<svg xmlns="http://www.w3.org/2000/svg" viewBox="6.836 -74.658 78.857 78.808" aria-hidden="true" data-sf-symbol="backward.circle.fill">
 <g fill="black" fill-rule="evenodd">
  <path d="M46.2402 4.15039C68.0176 4.15039 85.6934-13.5254 85.6934-35.2539C85.6934-56.9824 68.0176-74.6582 46.2402-74.6582C24.5117-74.6582 6.83594-56.9824 6.83594-35.2539C6.83594-13.5254 24.5117 4.15039 46.2402 4.15039ZM18.1641-35.2051C18.1641-36.3281 18.75-37.3047 20.166-38.1348L38.623-49.0234C39.4531-49.5117 40.0391-49.707 40.8691-49.707C42.3828-49.707 43.6523-48.584 43.6523-46.4355L43.6523-36.5234C43.9941-37.1582 44.5312-37.6953 45.3613-38.1348L63.7695-49.0234C64.5996-49.5117 65.2344-49.707 66.0645-49.707C67.5781-49.707 68.8477-48.584 68.8477-46.4355L68.8477-23.9746C68.8477-21.8262 67.5781-20.7031 66.0645-20.7031C65.2344-20.7031 64.5996-20.8984 63.7695-21.3867L45.3613-32.2266C44.5312-32.7148 43.9941-33.252 43.6523-33.8867L43.6523-23.9746C43.6523-21.8262 42.3828-20.7031 40.8691-20.7031C40.0391-20.7031 39.4531-20.8984 38.623-21.3867L20.166-32.2266C18.75-33.1055 18.1641-34.082 18.1641-35.2051Z"/>
 </g>
</svg>
