<svg xmlns="http://www.w3.org/2000/svg" viewBox="6.643 -76.121 131.147 84.565" aria-hidden="true" data-sf-symbol="display.2">
 <g fill="black">
  <path d="M19.5312-8.54492L92.3828-8.54492C98.4863-8.54492 102.148-12.207 102.148-18.3105L102.148-63.2324C102.148-69.3359 98.4863-72.998 92.3828-72.998L19.5312-72.998C13.4277-72.998 9.76562-69.3359 9.76562-63.2324L9.76562-18.3105C9.76562-12.207 13.4277-8.54492 19.5312-8.54492Z"/>
  <path d="M19.6289-15.625C17.8711-15.625 16.7969-16.6992 16.7969-18.4082L16.7969-63.1348C16.7969-64.8926 17.8711-65.9668 19.6289-65.9668L92.2852-65.9668C94.043-65.9668 95.1172-64.8926 95.1172-63.1348L95.1172-18.4082C95.1172-16.6992 94.043-15.625 92.2852-15.625Z"/>
  <path d="M43.6523 0.244141L68.3105 0.244141L68.3105-9.0332L43.6523-9.0332ZM43.6035 5.32227L68.3594 5.32227C70.2637 5.32227 71.875 3.75977 71.875 1.80664C71.875-0.146484 70.2637-1.75781 68.3594-1.75781L43.6035-1.75781C41.6504-1.75781 40.0391-0.146484 40.0391 1.80664C40.0391 3.75977 41.6504 5.32227 43.6035 5.32227Z"/>
  <path d="M61.9629-15.0879C61.9629-8.00781 65.4297-4.73633 72.3145-4.73633L124.316-4.73633C131.25-4.73633 134.668-8.00781 134.668-15.0879L134.668-44.1406C134.668-51.2695 131.25-54.541 124.316-54.541L72.3145-54.541C65.4297-54.541 61.9629-51.2695 61.9629-44.1406Z"/>
  <path d="M68.9941-15.1855L68.9941-44.043C68.9941-46.582 70.0195-47.5098 72.4121-47.5098L124.219-47.5098C126.611-47.5098 127.637-46.582 127.637-44.043L127.637-15.1855C127.637-12.6953 126.611-11.7676 124.219-11.7676L72.4121-11.7676C70.0195-11.7676 68.9941-12.6953 68.9941-15.1855Z"/>
  <path d="M87.9395 0.244141L108.691 0.244141L108.691-8.93555L87.9395-8.93555ZM87.8906 5.32227L108.74 5.32227C110.693 5.32227 112.256 3.75977 112.256 1.80664C112.256-0.146484 110.693-1.75781 108.74-1.75781L87.8906-1.75781C85.9863-1.75781 84.375-0.146484 84.375 1.80664C84.375 3.75977 85.9863 5.32227 87.8906 5.32227Z"/>
 </g>
</svg>
