<svg xmlns="http://www.w3.org/2000/svg" viewBox="1.506 -80.671 96.694 96.694" aria-hidden="true" data-sf-symbol="film.stack">
 <g fill="black">
  <path d="M31.6406-40.1367L68.0664-40.1367C71.8262-40.1367 73.9746-42.2363 73.9746-45.9473L73.9746-72.5586C73.9746-76.2695 71.8262-78.3691 68.0664-78.3691L31.6406-78.3691C27.8809-78.3691 25.7324-76.2695 25.7324-72.5586L25.7324-45.9473C25.7324-42.2363 27.8809-40.1367 31.6406-40.1367Z"/>
  <path d="M25.6836-11.9141L74.0723-11.9141C81.8848-11.9141 87.0117-16.9434 87.0117-24.707L87.0117-60.0586C87.0117-67.8711 81.8848-72.8516 74.0723-72.8516L25.6836-72.8516C17.8223-72.8516 12.7441-67.8711 12.7441-60.0586L12.7441-24.707C12.7441-16.9434 17.8223-11.9141 25.6836-11.9141Z"/>
  <path d="M25.5371-16.8945L74.1699-16.8945C79.1992-16.8945 82.0312-19.6777 82.0312-24.6094L82.0312-60.1562C82.0312-65.1367 79.1992-67.9199 74.1699-67.9199L25.5371-67.9199C20.5078-67.9199 17.6758-65.1367 17.6758-60.1562L17.6758-24.6094C17.6758-19.6777 20.5078-16.8945 25.5371-16.8945Z"/>
  <path d="M22.2168 13.7207L77.5391 13.7207C89.1113 13.7207 95.8984 7.03125 95.8984-4.49219L95.8984-43.5547C95.8984-55.0293 89.1113-61.7188 77.5391-61.7188L22.2168-61.7188C10.5957-61.7188 3.80859-55.0293 3.80859-43.5547L3.80859-4.49219C3.80859 7.03125 10.5957 13.7207 22.2168 13.7207Z"/>
  <path d="M17.041 7.61719L82.666 7.61719C87.2559 7.61719 90.2344 4.63867 90.2344 0.195312L90.2344-48.4375C90.2344-52.8809 87.2559-55.8105 82.666-55.8105L17.041-55.8105C12.4512-55.8105 9.52148-52.8809 9.52148-48.4375L9.52148 0.195312C9.52148 4.63867 12.4512 7.61719 17.041 7.61719ZM16.9922-42.8711C15.9668-42.8711 15.332-43.5547 15.332-44.4336L15.332-47.8516C15.332-48.877 16.0156-49.5605 17.041-49.5605L20.8496-49.5605C21.8262-49.5605 22.4121-48.877 22.4121-47.9004L22.4121-44.4336C22.4121-43.5547 21.8262-42.8711 20.8496-42.8711ZM16.9922-31.6895C15.9668-31.6895 15.332-32.4219 15.332-33.2031L15.332-36.6699C15.332-37.5488 15.9668-38.2812 16.9922-38.2812L20.8496-38.2812C21.8262-38.2812 22.4121-37.5488 22.4121-36.6699L22.4121-33.2031C22.4121-32.4219 21.8262-31.6895 20.8496-31.6895ZM16.9922-20.752C15.9668-20.752 15.332-21.4844 15.332-22.4121L15.332-25.6836C15.332-26.7578 15.9668-27.4414 16.9922-27.4414L20.8496-27.4414C21.8262-27.4414 22.4121-26.7578 22.4121-25.6836L22.4121-22.4121C22.4121-21.4844 21.8262-20.752 20.8496-20.752ZM16.9922-9.86328C15.9668-9.86328 15.332-10.5957 15.332-11.4258L15.332-14.7949C15.332-15.8203 15.9668-16.5039 16.9922-16.5039L20.8496-16.5039C21.8262-16.5039 22.4121-15.8203 22.4121-14.7949L22.4121-11.4258C22.4121-10.5957 21.8262-9.86328 20.8496-9.86328ZM17.041 1.36719C16.0156 1.36719 15.332 0.634766 15.332-0.292969L15.332-3.66211C15.332-4.6875 15.9668-5.32227 16.9922-5.32227L20.8496-5.32227C21.8262-5.32227 22.4121-4.6875 22.4121-3.66211L22.4121-0.244141C22.4121 0.634766 21.8262 1.36719 20.8496 1.36719ZM29.4922-27.2461C28.5645-27.2461 27.9297-27.7832 27.9297-28.8086L27.9297-47.998C27.9297-48.9746 28.5645-49.5605 29.4922-49.5605L70.2148-49.5605C71.1426-49.5605 71.7773-48.9746 71.7773-47.998L71.7773-28.8086C71.7773-27.7832 71.1426-27.2461 70.2148-27.2461ZM29.4922 1.36719C28.5645 1.36719 27.9297 0.732422 27.9297-0.244141L27.9297-19.2383C27.9297-20.2637 28.5645-20.8496 29.4922-20.8496L70.2148-20.8496C71.1426-20.8496 71.7773-20.2637 71.7773-19.2383L71.7773-0.244141C71.7773 0.732422 71.1426 1.36719 70.2148 1.36719ZM78.8574-42.8711C77.9297-42.8711 77.2949-43.5547 77.2949-44.4336L77.2949-47.9004C77.2949-48.877 77.9297-49.5605 78.8574-49.5605L82.666-49.5605C83.7402-49.5605 84.375-48.877 84.375-47.8516L84.375-44.4336C84.375-43.5547 83.7402-42.8711 82.7148-42.8711ZM78.8574-31.6895C77.9297-31.6895 77.2949-32.4219 77.2949-33.2031L77.2949-36.6699C77.2949-37.5488 77.9297-38.2812 78.8574-38.2812L82.7148-38.2812C83.7402-38.2812 84.375-37.5488 84.375-36.6699L84.375-33.2031C84.375-32.4219 83.7402-31.6895 82.7148-31.6895ZM78.8574-20.752C77.9297-20.752 77.2949-21.4844 77.2949-22.4121L77.2949-25.6836C77.2949-26.7578 77.9297-27.4414 78.8574-27.4414L82.7148-27.4414C83.7402-27.4414 84.375-26.7578 84.375-25.6836L84.375-22.4121C84.375-21.4844 83.7402-20.752 82.7148-20.752ZM78.8574-9.86328C77.9297-9.86328 77.2949-10.5957 77.2949-11.4258L77.2949-14.7949C77.2949-15.8203 77.9297-16.5039 78.8574-16.5039L82.7148-16.5039C83.7402-16.5039 84.375-15.8203 84.375-14.7949L84.375-11.4258C84.375-10.5957 83.7402-9.86328 82.7148-9.86328ZM78.8574 1.36719C77.9297 1.36719 77.2949 0.634766 77.2949-0.244141L77.2949-3.66211C77.2949-4.6875 77.9297-5.32227 78.8574-5.32227L82.7148-5.32227C83.7402-5.32227 84.375-4.6875 84.375-3.66211L84.375-0.292969C84.375 0.634766 83.7402 1.36719 82.666 1.36719Z"/>
 </g>
</svg>
