<svg xmlns="http://www.w3.org/2000/svg" viewBox="9.766 -64.893 106.103 59.278" aria-hidden="true" data-sf-symbol="forward.fill">
 <g fill="black">
  <path d="M9.76562-11.3281C9.76562-7.4707 11.9629-5.61523 14.6484-5.61523C15.8203-5.61523 17.0898-5.95703 18.3105-6.64062L58.4961-29.8828C61.7188-31.7871 62.9395-33.1543 62.9395-35.2539C62.9395-37.3535 61.7188-38.7207 58.4961-40.625L18.3105-63.8672C17.0898-64.5508 15.8203-64.8926 14.6484-64.8926C11.9629-64.8926 9.76562-63.0371 9.76562-59.1797ZM62.7441-11.3281C62.7441-7.4707 64.9414-5.61523 67.627-5.61523C68.7988-5.61523 70.0195-5.95703 71.2402-6.64062L111.426-29.8828C114.697-31.7871 115.869-33.1543 115.869-35.2539C115.869-37.3535 114.697-38.7207 111.426-40.625L71.2402-63.8672C70.0195-64.5508 68.7988-64.8926 67.627-64.8926C64.9414-64.8926 62.7441-63.0371 62.7441-59.1797Z"/>
 </g>
</svg>
