<svg xmlns="http://www.w3.org/2000/svg" viewBox="6.836 -74.658 78.857 78.808" aria-hidden="true" data-sf-symbol="forward.circle.fill">
 <g fill="black" fill-rule="evenodd">
  <path d="M46.2402 4.15039C68.0176 4.15039 85.6934-13.5254 85.6934-35.2539C85.6934-56.9824 68.0176-74.6582 46.2402-74.6582C24.5117-74.6582 6.83594-56.9824 6.83594-35.2539C6.83594-13.5254 24.5117 4.15039 46.2402 4.15039ZM74.4629-35.2051C74.4629-34.082 73.8281-33.1055 72.4121-32.2266L54.0039-21.3867C53.125-20.8984 52.5391-20.7031 51.7578-20.7031C50.1953-20.7031 48.9746-21.8262 48.9746-23.9746L48.9746-33.8867C48.6328-33.252 48.0957-32.7148 47.2656-32.2266L28.8086-21.3867C28.0273-20.8984 27.3926-20.7031 26.5625-20.7031C25.0488-20.7031 23.7793-21.8262 23.7793-23.9746L23.7793-46.4355C23.7793-48.584 25.0488-49.707 26.5625-49.707C27.3926-49.707 28.0273-49.5117 28.8086-49.0234L47.2656-38.1348C48.0957-37.6953 48.6328-37.1582 48.9746-36.5234L48.9746-46.4355C48.9746-48.584 50.1953-49.707 51.7578-49.707C52.5391-49.707 53.125-49.5117 54.0039-49.0234L72.4121-38.1348C73.8281-37.3047 74.4629-36.3281 74.4629-35.2051Z"/>
 </g>
</svg>
