<svg xmlns="http://www.w3.org/2000/svg" viewBox="5.237 -80.733 107.478 91.153" aria-hidden="true" data-sf-symbol="guitars">
 <g fill="black">
  <path d="M92.627 5.71289C103.32 5.71289 110.156 0.537109 110.156-7.56836C110.156-15.625 105.029-17.4805 105.029-20.7031C105.029-23.1934 106.152-25.5371 106.152-28.8086C106.152-34.2773 102.441-37.7441 95.8008-38.4766L95.8008-60.9375C95.8008-62.4023 95.8984-62.793 96.7773-63.3789C97.5586-63.916 97.9492-64.4043 97.9004-65.1855L97.3145-74.6094C97.2656-75.5371 96.582-76.2207 95.752-76.2207L89.4531-76.2207C88.623-76.2207 87.9883-75.5371 87.9395-74.6094L87.3535-65.1855C87.3047-64.4043 87.6953-63.916 88.4277-63.3789C89.3555-62.7441 89.4531-62.3535 89.4531-60.9375L89.4531-38.4766C82.8125-37.7441 79.1016-34.2773 79.1016-28.8086C79.1016-25.5371 80.2246-23.1934 80.2246-20.7031C80.2246-17.4805 75.0977-15.625 75.0977-7.56836C75.0977 0.537109 81.8848 5.71289 92.627 5.71289ZM92.627 0.927734C84.668 0.927734 79.8828-2.29492 79.8828-7.56836C79.8828-13.6719 85.0586-16.0645 85.0586-20.8008C85.0586-23.4863 83.8867-26.3184 83.8867-28.8086C83.8867-32.8613 87.5-34.0332 92.627-34.0332C97.7539-34.0332 101.318-32.8613 101.318-28.8086C101.318-26.3184 100.146-23.4863 100.146-20.8008C100.146-16.0645 105.322-13.6719 105.322-7.56836C105.322-2.29492 100.586 0.927734 92.627 0.927734ZM92.627-17.627C94.9707-17.627 96.8262-19.4824 96.8262-21.8262C96.8262-24.1699 94.9707-26.0742 92.627-26.0742C90.2832-26.0742 88.3301-24.1699 88.3301-21.8262C88.3301-19.4824 90.2344-17.627 92.627-17.627ZM87.7441-6.73828L97.4609-6.73828C98.4375-6.73828 99.2676-7.51953 99.2676-8.54492C99.2676-9.57031 98.4375-10.4004 97.4609-10.4004L87.7441-10.4004C86.7188-10.4004 85.8887-9.52148 85.8887-8.54492C85.8887-7.51953 86.7188-6.73828 87.7441-6.73828Z"/>
  <path d="M61.8652 7.86133C73.4375 7.86133 81.3965 0.78125 81.3965-9.81445C81.3965-18.2617 76.6602-22.0215 76.6602-23.3887C76.6602-25.3906 79.248-27.7832 79.248-32.6172C79.248-36.7188 76.3672-39.7949 72.4121-39.7949C70.0195-39.7949 68.2617-38.8672 66.9434-37.5977L66.9922-59.2285C68.0176-59.8145 68.6523-60.8398 68.8965-62.6465L69.6777-70.5078C69.7754-71.7773 69.2383-73.1934 68.1641-74.1699L64.8438-77.002C64.0625-77.7344 63.0371-78.1738 61.8652-78.1738C60.6934-78.1738 59.6191-77.7344 58.8867-77.002L55.5664-74.1699C54.5898-73.2422 53.9551-71.7773 54.0527-70.459L54.834-62.6465C54.9805-60.8887 55.7129-59.8633 56.7383-59.2773L56.8359-37.5488C55.5664-38.8184 53.6621-39.7949 51.3184-39.7949C47.3633-39.7949 44.4824-36.7188 44.4824-32.6172C44.4824-27.7832 47.0703-25.3906 47.0703-23.3887C47.0703-22.0215 42.334-18.2617 42.334-9.81445C42.334 0.78125 50.2441 7.86133 61.8652 7.86133Z"/>
  <path d="M61.8652 5.9082C72.4121 5.9082 79.4434-0.341797 79.4434-9.81445C79.4434-17.2852 74.707-21.0938 74.707-23.3887C74.707-26.2207 77.2949-28.6133 77.2949-32.6172C77.2949-35.6934 75.2441-37.8418 72.4121-37.8418C69.9219-37.8418 68.3105-36.5723 67.4316-35.1074C66.748-33.9844 66.0645-33.252 65.6738-33.252C65.1367-33.252 64.9902-34.082 64.9902-35.8887L65.0391-59.5215C65.0391-60.5957 65.0391-60.5957 65.5762-60.7422C66.5039-61.0352 66.7969-61.5723 66.9434-62.8418L67.7246-70.6543C67.7734-71.3379 67.4805-72.1191 66.8457-72.7051L63.5742-75.5371C63.1348-75.9766 62.5488-76.2207 61.8652-76.2207C61.1816-76.2207 60.5957-75.9766 60.1562-75.5371L56.8848-72.7051C56.2988-72.168 55.957-71.3379 56.0059-70.6543L56.7871-62.8418C56.8848-61.6211 57.2754-61.0352 58.2031-60.7422C58.6426-60.6445 58.6914-60.5469 58.6914-59.5215L58.7891-35.8887C58.7891-34.2285 58.5938-33.252 58.1055-33.252C57.666-33.252 56.9824-33.9844 56.2988-35.1074C55.4199-36.5723 53.8086-37.8418 51.3184-37.8418C48.4863-37.8418 46.4355-35.6934 46.4355-32.6172C46.4355-28.6133 49.0234-26.2207 49.0234-23.3887C49.0234-21.0938 44.2871-17.2852 44.2871-9.81445C44.2871-0.341797 51.2695 5.9082 61.8652 5.9082ZM61.8652 1.07422C53.8574 1.07422 49.1211-2.97852 49.1211-9.81445C49.1211-16.7969 53.8086-19.0918 53.8086-23.291C53.8086-27.3438 51.1719-29.6387 51.1719-32.666C51.1719-32.959 51.416-33.2031 51.709-33.2031C53.3691-33.2031 54.3457-28.6133 58.252-28.6133C59.9121-28.6133 61.084-29.4434 61.7676-30.7129L61.9629-30.7129C62.6953-29.3945 63.916-28.6133 65.5273-28.6133C69.3359-28.6133 70.3613-33.2031 72.0215-33.2031C72.2656-33.2031 72.5098-32.959 72.5098-32.666C72.5098-29.6387 69.9219-27.3438 69.9219-23.291C69.9219-19.0918 74.6094-16.7969 74.6094-9.81445C74.6094-2.97852 69.873 1.07422 61.8652 1.07422ZM54.248-10.498C55.127-10.1562 56.0547-10.6445 56.3965-11.4746L59.5215-20.0195C59.8145-20.8496 59.375-21.875 58.4961-22.168C57.6172-22.4609 56.6895-22.0215 56.3477-21.1426L53.2715-12.5977C52.9785-11.7676 53.418-10.791 54.248-10.498ZM69.4824-10.498C70.3125-10.791 70.752-11.7676 70.459-12.5977L67.3828-21.1426C67.041-22.0215 66.0645-22.4609 65.2344-22.168C64.3555-21.875 63.916-20.8496 64.209-20.0195L67.334-11.4746C67.6758-10.6445 68.6035-10.1562 69.4824-10.498Z"/>
  <path d="M8.59375-2.63672C6.44531 2.09961 8.69141 7.76367 14.6973 7.76367C16.8945 7.76367 18.6523 6.88477 21.1426 4.88281L30.7129-3.125L40.2832 4.88281C42.7734 6.88477 44.5801 7.76367 46.7285 7.76367C52.7344 7.76367 54.9805 2.09961 52.8809-2.63672L35.8887-40.7227L35.8887-57.7637C35.8887-66.2598 37.3535-72.7051 37.3535-74.2188C37.3535-76.4648 35.7422-78.1738 33.4473-78.1738C32.2266-78.1738 31.1035-77.6367 29.5898-76.0254L21.1426-66.3086C19.4824-64.3555 20.0195-61.7188 22.2656-60.5469L25.5859-58.8379L25.5859-40.8691Z"/>
  <path d="M10.4004-1.85547C8.83789 1.5625 10.1074 5.81055 14.6973 5.81055C16.3574 5.81055 17.7246 5.17578 19.873 3.36914L30.127-5.17578C30.4199-5.46875 30.6152-5.51758 30.7129-5.51758C30.8594-5.51758 31.0059-5.46875 31.3477-5.17578L41.5527 3.36914C43.75 5.17578 45.0684 5.81055 46.7285 5.81055C51.3672 5.81055 52.5879 1.5625 51.0742-1.85547L33.9355-40.332L33.9355-57.7637C33.9355-66.4551 35.4004-72.9492 35.4004-74.2188C35.4004-75.3906 34.668-76.2207 33.4473-76.2207C32.7148-76.2207 32.0312-75.7812 31.0547-74.707L22.6074-65.0391C21.7773-64.0625 21.9727-62.8418 23.0957-62.3047C26.416-60.791 27.5391-60.3516 27.5391-57.7637L27.5391-40.4297ZM14.8438-0.195312L30.6641-36.1816L30.7617-36.1816L46.6309-0.195312C47.0215 0.732422 46.3379 1.26953 45.6055 0.634766L33.9355-9.13086C32.666-10.1562 31.6406-10.6445 30.7129-10.6445C29.7852-10.6445 28.7598-10.1562 27.5391-9.13086L15.8691 0.634766C15.1367 1.26953 14.4043 0.732422 14.8438-0.195312ZM34.5215-17.8223C35.5469-17.8223 36.4258-18.6523 36.4258-19.7266C36.4258-20.8008 35.5469-21.7285 34.5215-21.7285C33.4473-21.7285 32.5684-20.752 32.5684-19.7266C32.5684-18.7012 33.4473-17.8223 34.5215-17.8223ZM36.5723-12.9395C37.5977-12.9395 38.5254-13.8184 38.5254-14.8438C38.5254-15.9668 37.5977-16.8457 36.5723-16.8457C35.498-16.8457 34.5703-15.918 34.5703-14.8438C34.5703-13.8184 35.498-12.9395 36.5723-12.9395ZM38.5254-8.05664C39.5996-8.05664 40.5762-8.98438 40.5762-10.0098C40.5762-11.0352 39.6484-11.9629 38.5254-11.9629C37.5488-11.9629 36.6699-11.0352 36.6699-10.0098C36.6699-8.93555 37.5-8.05664 38.5254-8.05664Z"/>
 </g>
</svg>
