<svg xmlns="http://www.w3.org/2000/svg" viewBox="7.761 -77.346 63.726 84.185" aria-hidden="true" data-sf-symbol="hifispeaker">
 <g fill="black">
  <path d="M9.76562-64.0137L9.76562-6.49414C9.76562 1.07422 13.4766 4.83398 20.9473 4.83398L58.3008 4.83398C65.7715 4.83398 69.4824 1.07422 69.4824-6.49414L69.4824-64.0137C69.4824-71.582 65.7715-75.3418 58.3008-75.3418L20.9473-75.3418C13.4766-75.3418 9.76562-71.582 9.76562-64.0137ZM16.7969-63.916C16.7969-66.7969 18.3105-68.3105 21.2402-68.3105L58.0078-68.3105C60.9375-68.3105 62.4512-66.7969 62.4512-63.916L62.4512-6.5918C62.4512-3.71094 60.9375-2.19727 58.0078-2.19727L21.2402-2.19727C18.3105-2.19727 16.7969-3.71094 16.7969-6.5918ZM39.6484-8.05664C48.2422-8.05664 55.1758-14.9414 55.1758-23.6328C55.1758-32.2754 48.2422-39.1113 39.6484-39.1602C31.0059-39.209 24.0723-32.2754 24.0723-23.6328C24.0723-14.9414 31.0059-8.05664 39.6484-8.05664ZM39.6484-17.334C36.1328-17.334 33.3008-20.166 33.3008-23.6328C33.3008-27.2461 36.0352-29.9805 39.6484-29.9805C43.2129-29.9805 45.9473-27.2461 45.9473-23.6328C45.9473-20.166 43.2129-17.334 39.6484-17.334ZM39.6484-44.873C44.4824-44.873 48.5352-48.7793 48.4375-53.6621C48.3887-58.5938 44.4824-62.4023 39.6484-62.4512C34.7656-62.5 30.8105-58.5938 30.8105-53.6621C30.8105-48.7793 34.7656-44.873 39.6484-44.873ZM39.6484-49.6094C37.3535-49.6094 35.5469-51.4648 35.5469-53.6621C35.5469-56.0547 37.3535-57.7637 39.6484-57.7637C41.8457-57.7637 43.7012-55.957 43.7012-53.6621C43.7012-51.4648 41.8945-49.6094 39.6484-49.6094Z"/>
 </g>
</svg>
