<svg xmlns="http://www.w3.org/2000/svg" viewBox="7.513 -86.966 94.292 91.799" aria-hidden="true" data-sf-symbol="movieclapper">
 <g fill="black">
  <path d="M10.3516-53.418L13.2812-42.6758L13.2812-9.13086C13.2812-1.31836 17.2852 2.58789 25.1953 2.58789L87.5977 2.58789C95.6055 2.58789 99.5605-1.31836 99.5605-9.13086L99.5605-44.2871C99.5605-48.8281 96.4844-51.8555 91.8457-51.8555L47.7539-51.8555L89.209-62.9395C93.7012-64.1113 95.8008-67.9688 94.6777-72.2168L93.75-75.7812C91.7969-83.3984 86.7676-86.084 79.1016-84.082L18.8477-67.8711C11.2793-65.7715 8.39844-60.9375 10.3516-53.418ZM20.0684-9.52148L20.0684-29.0039L92.7734-29.0039L92.7734-9.52148C92.7734-6.00586 90.8691-4.19922 87.5-4.19922L25.293-4.19922C21.9727-4.19922 20.0684-6.00586 20.0684-9.52148Z"/>
  <path d="M20.8008-51.2207L23.3398-62.0117L35.4492-65.2832L33.0078-54.4922ZM44.3359-57.5195L46.7773-68.3105L59.8145-71.7773L57.373-60.9863ZM68.6035-64.0137L71.0938-74.8047L80.4688-77.3926C81.4453-77.6367 82.3242-77.8809 83.252-78.125L80.8105-67.2852ZM22.8027-35.2539L27.9297-44.9219L38.2812-45.0195L40.625-45.0195L35.4004-35.2539ZM47.1191-35.2539L52.2949-45.0195L65.8203-45.0195L60.5957-35.2539ZM72.3145-35.2539L77.4902-45.0195L90.0879-45.0195L84.8633-35.2539Z"/>
 </g>
</svg>
