<svg xmlns="http://www.w3.org/2000/svg" viewBox="8.162 -68.938 36.069 67.368" aria-hidden="true" data-sf-symbol="pause">
 <g fill="black">
  <path d="M13.5254-3.17383C15.5762-3.17383 17.2852-4.78516 17.2852-6.83594L17.2852-63.6719C17.2852-65.7227 15.5762-67.334 13.5254-67.334C11.4746-67.334 9.76562-65.7227 9.76562-63.6719L9.76562-6.83594C9.76562-4.78516 11.4746-3.17383 13.5254-3.17383ZM38.8672-3.17383C40.9668-3.17383 42.627-4.78516 42.627-6.83594L42.627-63.6719C42.627-65.7227 40.9668-67.334 38.8672-67.334C36.8164-67.334 35.1074-65.7227 35.1074-63.6719L35.1074-6.83594C35.1074-4.78516 36.8164-3.17383 38.8672-3.17383Z"/>
 </g>
</svg>
