<svg xmlns="http://www.w3.org/2000/svg" viewBox="7.456 -75.308 97.001 82.939" aria-hidden="true" data-sf-symbol="play.display">
 <g fill="black">
  <path d="M19.5312-8.54492L92.3828-8.54492C98.4863-8.54492 102.148-12.207 102.148-18.3105L102.148-63.2324C102.148-69.3359 98.4863-72.998 92.3828-72.998L19.5312-72.998C13.4277-72.998 9.76562-69.3359 9.76562-63.2324L9.76562-18.3105C9.76562-12.207 13.4277-8.54492 19.5312-8.54492ZM19.6289-15.625C17.8711-15.625 16.7969-16.6992 16.7969-18.4082L16.7969-63.1348C16.7969-64.8926 17.8711-65.9668 19.6289-65.9668L92.2852-65.9668C94.043-65.9668 95.1172-64.8926 95.1172-63.1348L95.1172-18.4082C95.1172-16.6992 94.043-15.625 92.2852-15.625ZM43.6523 0.244141L68.3105 0.244141L68.3105-9.0332L43.6523-9.0332ZM43.6035 5.32227L68.3594 5.32227C70.2637 5.32227 71.875 3.75977 71.875 1.80664C71.875-0.146484 70.2637-1.75781 68.3594-1.75781L43.6035-1.75781C41.6504-1.75781 40.0391-0.146484 40.0391 1.80664C40.0391 3.75977 41.6504 5.32227 43.6035 5.32227Z"/>
  <path d="M46.7773-28.9062C46.7773-27.2949 48.4863-26.6602 49.8047-27.4414L69.7266-39.1602C70.9961-39.9414 70.9473-41.6504 69.6777-42.3828L49.8047-54.1016C48.4863-54.8828 46.7773-54.2969 46.7773-52.6367Z"/>
 </g>
</svg>
