<svg xmlns="http://www.w3.org/2000/svg" viewBox="0 0 99.6094 99.6582" aria-hidden="true" data-sf-symbol="playpause.circle.fill">
 <g fill="black">
  <path d="M99.6094 49.8047C99.6094 77.2461 77.2949 99.6094 49.8047 99.6094C22.3633 99.6094 0 77.2461 0 49.8047C0 22.3145 22.3633 0 49.8047 0C77.2949 0 99.6094 22.3145 99.6094 49.8047ZM17.7246 33.0566L17.7246 66.6504C17.7246 69.043 20.3613 70.166 22.6074 68.75L47.7051 52.4902C49.6582 51.123 49.6582 48.5352 47.7051 47.2656L22.6074 30.9082C20.5078 29.5898 17.7246 30.7129 17.7246 33.0566ZM56.3477 30.9082C53.9551 30.9082 52.832 32.1777 52.832 34.082L52.832 65.5273C52.832 67.3828 53.9551 68.7012 56.3477 68.7012L61.084 68.7012C63.4766 68.7012 64.5508 67.3828 64.5508 65.5273L64.5508 34.082C64.5508 32.1777 63.4766 30.9082 61.084 30.9082ZM73.8281 30.9082C71.4355 30.9082 70.2637 32.1777 70.2637 34.082L70.2637 65.5273C70.2637 67.3828 71.4355 68.7012 73.8281 68.7012L78.5645 68.7012C80.8594 68.7012 81.9824 67.3828 81.9824 65.5273L81.9824 34.082C81.9824 32.1777 80.8594 30.9082 78.5645 30.9082Z"/>
 </g>
</svg>
