<svg xmlns="http://www.w3.org/2000/svg" viewBox="7.293 -86.728 75.92 102.949" aria-hidden="true" data-sf-symbol="popcorn">
 <g fill="black">
  <path d="M17.3828-51.416L19.873-57.3242C17.9199-57.8613 16.5039-59.6191 16.5039-61.7188C16.5039-65.332 20.6543-67.4805 24.4629-65.918C24.0723-69.873 28.2227-72.6074 32.0312-70.5566C30.4688-75.4395 33.3496-77.9785 36.377-77.9785C39.3555-77.9785 42.4805-75.6836 41.748-71.0449C44.2871-72.6562 48.5352-72.3633 50.7812-70.7031C51.7578-73.0469 53.8086-74.4141 56.2988-74.4141C59.7656-74.4141 61.3281-71.6797 61.3281-67.7734C65.9668-68.457 69.1895-66.6504 69.1895-62.3047C69.1895-60.0098 67.334-57.9102 64.9902-57.373L68.4082-51.8066C72.5098-53.6621 75.3906-57.9102 75.3906-62.7441C75.3906-69.5801 71.1914-74.3164 64.9414-74.5117C63.1348-78.2715 60.2051-80.7129 55.957-80.7129C53.3203-80.7129 50.8301-79.834 48.9258-78.125C48.0957-78.3203 46.9238-78.418 45.9961-78.2715C44.2383-81.9824 40.5273-84.2773 36.377-84.2773C30.6641-84.2773 27.002-80.7129 26.3672-77.2949C23.584-77.4414 21.3867-74.7559 21.3867-72.5098C15.332-72.7539 10.3027-67.8711 10.3027-61.7188C10.3027-57.0801 13.2324-52.9297 17.3828-51.416ZM27.7344 7.12891L57.959 7.12891C63.7207 7.12891 66.5527 3.71094 67.6758-2.14844L75.6836-44.5312C77.3926-53.3691 70.6055-59.1797 62.8418-59.1797C59.5215-59.1797 56.543-57.8613 54.3457-55.6641C51.9531-59.0332 47.9004-61.1328 42.8223-61.1328C37.793-61.1328 33.7402-59.0332 31.3477-55.6641C29.1504-57.8613 26.1719-59.1797 22.8027-59.1797C15.0879-59.1797 8.30078-53.3691 10.0098-44.5312L18.0176-2.14844C19.1406 3.71094 21.9727 7.12891 27.7344 7.12891ZM39.7461 0.634766L35.4492-46.8262C35.0098-51.6113 37.8906-54.6387 42.8223-54.6387C47.8027-54.6387 50.6836-51.6113 50.2441-46.8262L45.9473 0.634766ZM52.4414 0.634766L56.6895-46.582C57.0312-50.5859 59.6191-52.6855 62.8418-52.6855C66.5527-52.6855 70.2637-49.8535 69.2871-44.873L61.084-2.39258C60.7422-0.488281 59.6191 0.634766 57.7148 0.634766ZM27.9297 0.634766C26.0742 0.634766 24.9512-0.488281 24.6094-2.39258L16.4062-44.873C15.4297-49.8535 19.1406-52.6855 22.8027-52.6855C26.0742-52.6855 28.6621-50.5859 29.0039-46.582L33.252 0.634766Z"/>
  <path d="M63.916 13.7695C67.6758 13.7695 71.1426 11.7188 72.998 8.54492C77.5391 7.27539 80.7617 3.07617 80.7617-1.70898C80.7617-6.00586 78.125-9.7168 74.5605-11.7676C74.2188-17.334 69.5801-20.8984 63.916-20.8984C58.3008-20.8984 53.7109-17.4316 53.3203-12.0117C48.6328-10.8398 45.166-6.64062 45.166-1.70898C45.166 3.80859 49.3652 8.30078 54.6875 8.88672C56.7871 11.8164 60.2539 13.7695 63.916 13.7695Z"/>
  <path d="M63.916 8.20312C61.1816 8.20312 58.3984 6.49414 58.3984 2.97852C54.7363 4.24805 50.6836 2.34375 50.6836-1.70898C50.6836-6.00586 54.0039-8.25195 58.9355-7.22656C57.5684-10.5957 59.2773-15.332 63.916-15.332C68.4082-15.332 70.3613-10.8887 69.0918-7.12891C72.6562-7.61719 75.0488-5.32227 75.0488-1.46484C75.0488 1.75781 72.6562 3.61328 68.9941 3.27148C69.2383 6.15234 66.5527 8.20312 63.916 8.20312Z"/>
 </g>
</svg>
