<svg xmlns="http://www.w3.org/2000/svg" viewBox="-2.513 -76.231 87.081 87.069" aria-hidden="true" data-sf-symbol="speaker.slash">
 <g fill="black">
  <path d="M20.5078-19.1895L31.25-19.1895C31.4941-19.1895 31.7871-19.0918 32.0312-18.8965L48.9746-3.66211C51.0742-1.85547 52.5879-1.02539 54.5898-1.02539C57.2754-1.02539 59.3262-2.97852 59.3262-5.71289L59.3262-64.4531C59.3262-67.1387 57.2754-69.3848 54.4922-69.3848C52.4902-69.3848 51.2695-68.5059 48.9746-66.4551L32.0312-51.5137C31.7871-51.3184 31.4941-51.2207 31.25-51.2207L20.5078-51.2207C14.8926-51.2207 12.0605-48.3398 12.0605-42.2852L12.0605-28.0762C12.0605-22.0703 14.8926-19.1895 20.5078-19.1895ZM20.8496-25.5371C19.5312-25.5371 18.8965-26.1719 18.8965-27.4902L18.8965-42.9199C18.8965-44.1895 19.5312-44.873 20.8496-44.873L33.1055-44.873C34.082-44.873 34.8145-45.0195 35.6934-45.8496L51.5137-60.2051C51.6602-60.3516 51.8555-60.4492 52.0508-60.4492C52.3438-60.4492 52.5391-60.2539 52.5391-59.9609L52.5391-10.498C52.5391-10.1562 52.3438-9.96094 52.0996-9.96094C51.8555-9.96094 51.6602-10.0586 51.5137-10.2539L35.6934-24.5605C34.8145-25.3418 34.082-25.5371 33.1055-25.5371Z"/>
  <path d="M68.6035 6.39648C71.8262 9.57031 77.0508 9.57031 80.1758 6.29883C83.3008 3.125 83.252-1.95312 80.127-5.17578L13.4766-71.7773C10.3027-74.9512 5.07812-74.9512 1.9043-71.7773C-1.2207-68.6523-1.2207-63.3789 1.9043-60.2539Z"/>
  <path d="M72.0215 2.97852C73.3398 4.29688 75.4883 4.29688 76.7578 2.97852C78.0273 1.66016 78.0762-0.439453 76.7578-1.75781L10.0586-68.4082C8.74023-69.6777 6.5918-69.7266 5.27344-68.4082C4.00391-67.1387 4.00391-64.8926 5.27344-63.623Z"/>
 </g>
</svg>
