<svg xmlns="http://www.w3.org/2000/svg" viewBox="7.4 -71.751 99.361 73.091" aria-hidden="true" data-sf-symbol="speaker.plus">
 <g fill="black">
  <path d="M90.0879-21.0449L90.0879-49.5117C90.0879-51.7578 88.5742-53.2715 86.377-53.2715C84.2285-53.2715 82.7637-51.7578 82.7637-49.5117L82.7637-21.0449C82.7637-18.8477 84.2285-17.334 86.377-17.334C88.5742-17.334 90.0879-18.8477 90.0879-21.0449ZM72.2656-31.6406L100.684-31.6406C102.881-31.6406 104.395-33.1055 104.395-35.2539C104.395-37.4512 102.881-38.9648 100.684-38.9648L72.2656-38.9648C69.9707-38.9648 68.5059-37.4512 68.5059-35.2539C68.5059-33.1055 70.0195-31.6406 72.2656-31.6406Z"/>
  <path d="M18.2129-19.1895L28.9062-19.1895C29.1992-19.1895 29.4922-19.0918 29.6875-18.8965L46.6797-3.66211C48.7305-1.85547 50.293-1.02539 52.2949-1.02539C54.9316-1.02539 57.0312-2.97852 57.0312-5.71289L57.0312-64.4531C57.0312-67.1387 54.9316-69.3848 52.1973-69.3848C50.1953-69.3848 48.9258-68.5059 46.6797-66.4551L29.6875-51.5137C29.4922-51.3184 29.1992-51.2207 28.9062-51.2207L18.2129-51.2207C12.5488-51.2207 9.76562-48.3398 9.76562-42.2852L9.76562-28.0762C9.76562-22.0703 12.5977-19.1895 18.2129-19.1895ZM18.5059-25.5371C17.2363-25.5371 16.5527-26.1719 16.5527-27.4902L16.5527-42.9199C16.5527-44.1895 17.2363-44.873 18.5059-44.873L30.8105-44.873C31.7383-44.873 32.4707-45.0195 33.3496-45.8496L49.2188-60.2051C49.3652-60.3516 49.5605-60.4492 49.7559-60.4492C50-60.4492 50.1953-60.2539 50.1953-59.9609L50.1953-10.498C50.1953-10.1562 50-9.96094 49.7559-9.96094C49.5605-9.96094 49.3652-10.0586 49.2188-10.2539L33.3496-24.5605C32.4707-25.3418 31.7383-25.5371 30.8105-25.5371Z"/>
 </g>
</svg>
