<svg xmlns="http://www.w3.org/2000/svg" viewBox="7.383 -71.768 100.078 73.125" aria-hidden="true" data-sf-symbol="speaker.minus">
 <g fill="black">
  <path d="M72.2168-31.5918L100.879-31.5918C103.369-31.5918 105.078-32.8613 105.078-35.2051C105.078-37.5977 103.467-38.916 100.879-38.916L72.2168-38.916C69.6289-38.916 67.9688-37.5977 67.9688-35.2051C67.9688-32.8613 69.7266-31.5918 72.2168-31.5918Z"/>
  <path d="M18.2129-19.1895L28.9062-19.1895C29.1992-19.1895 29.4922-19.0918 29.6875-18.8965L46.6797-3.66211C48.7305-1.85547 50.293-1.02539 52.2949-1.02539C54.9316-1.02539 57.0312-2.97852 57.0312-5.71289L57.0312-64.4531C57.0312-67.1387 54.9316-69.3848 52.1973-69.3848C50.1953-69.3848 48.9258-68.5059 46.6797-66.4551L29.6875-51.5137C29.4922-51.3184 29.1992-51.2207 28.9062-51.2207L18.2129-51.2207C12.5488-51.2207 9.76562-48.3398 9.76562-42.2852L9.76562-28.0762C9.76562-22.0703 12.5977-19.1895 18.2129-19.1895ZM18.5059-25.5371C17.2363-25.5371 16.5527-26.1719 16.5527-27.4902L16.5527-42.9199C16.5527-44.1895 17.2363-44.873 18.5059-44.873L30.8105-44.873C31.7383-44.873 32.4707-45.0195 33.3496-45.8496L49.2188-60.2051C49.3652-60.3516 49.5605-60.4492 49.7559-60.4492C50-60.4492 50.1953-60.2539 50.1953-59.9609L50.1953-10.498C50.1953-10.1562 50-9.96094 49.7559-9.96094C49.5605-9.96094 49.3652-10.0586 49.2188-10.2539L33.3496-24.5605C32.4707-25.3418 31.7383-25.5371 30.8105-25.5371Z"/>
 </g>
</svg>
