<svg xmlns="http://www.w3.org/2000/svg" viewBox="4.865 -76.63 82.8 82.751" aria-hidden="true" data-sf-symbol="stop.circle">
 <g fill="black">
  <path d="M46.2402 4.15039C68.0176 4.15039 85.6934-13.4766 85.6934-35.2539C85.6934-57.0312 68.0176-74.6582 46.2402-74.6582C24.5117-74.6582 6.83594-57.0312 6.83594-35.2539C6.83594-13.4766 24.5117 4.15039 46.2402 4.15039ZM46.2402-3.27148C28.5645-3.27148 14.3066-17.5781 14.3066-35.2539C14.3066-52.9297 28.5645-67.2363 46.2402-67.2363C63.916-67.2363 78.2227-52.9297 78.2227-35.2539C78.2227-17.5781 63.916-3.27148 46.2402-3.27148Z"/>
  <path d="M36.2305-21.2402L56.2012-21.2402C58.6914-21.2402 60.2051-22.7051 60.2051-25.1465L60.2051-45.3613C60.2051-47.8027 58.6914-49.2676 56.2012-49.2676L36.2305-49.2676C33.6914-49.2676 32.2266-47.8027 32.2266-45.3613L32.2266-25.1465C32.2266-22.7051 33.6914-21.2402 36.2305-21.2402Z"/>
 </g>
</svg>
