<svg xmlns="http://www.w3.org/2000/svg" viewBox="5.474 -80.488 98.232 92.324" aria-hidden="true" data-sf-symbol="waveform.path">
 <g fill="black">
  <path d="M10.9375-27.4414L21.7285-27.4414C22.8516-27.4414 23.9258-28.125 24.2188-29.3945L25.7812-36.6211L24.2676-36.6211L30.127-9.57031C30.7129-6.98242 34.9121-6.98242 35.3027-9.57031L39.6484-38.0371L44.873 7.08008C45.2637 10.3027 49.8047 10.2539 50.0977 7.08008L54.834-46.0449L59.5703 7.08008C59.8145 10.3027 64.3555 10.3027 64.7461 7.08008L69.9707-38.0371L74.3652-9.57031C74.707-6.98242 78.9062-6.98242 79.4922-9.57031L85.3027-36.377L83.6426-36.3281L85.4492-29.3945C85.791-27.9297 86.8164-27.4414 87.9395-27.4414L98.2422-27.4414C100-27.4414 101.367-28.7598 101.367-30.4688C101.367-32.2266 100-33.5938 98.2422-33.5938L89.8438-33.5938L86.8164-45.0195C86.084-47.9004 82.3242-47.9004 81.7383-45.0195L77.2949-24.3652L72.168-57.8613C71.6797-60.9863 67.334-60.9375 66.9922-57.8613L62.4512-18.9453L57.4707-75.7324C57.1777-78.9551 52.4414-78.9551 52.1973-75.7324L47.168-18.9453L42.6758-57.8613C42.2852-60.9863 37.9395-60.9863 37.4512-57.8613L32.3242-24.3652L27.9297-45.0195C27.3438-47.7051 23.5352-47.7051 22.8027-45.0195L19.8242-33.5938L10.9375-33.5938C9.17969-33.5938 7.8125-32.2266 7.8125-30.4688C7.8125-28.7598 9.17969-27.4414 10.9375-27.4414Z"/>
 </g>
</svg>
