<svg xmlns="http://www.w3.org/2000/svg" viewBox="4.865 -76.63 82.8 82.751" aria-hidden="true" data-sf-symbol="waveform.circle">
 <g fill="black">
  <path d="M46.2402 4.15039C68.0176 4.15039 85.6934-13.4766 85.6934-35.2539C85.6934-57.0312 68.0176-74.6582 46.2402-74.6582C24.5117-74.6582 6.83594-57.0312 6.83594-35.2539C6.83594-13.4766 24.5117 4.15039 46.2402 4.15039ZM46.2402-3.27148C28.5645-3.27148 14.3066-17.5781 14.3066-35.2539C14.3066-52.9297 28.5645-67.2363 46.2402-67.2363C63.916-67.2363 78.2227-52.9297 78.2227-35.2539C78.2227-17.5781 63.916-3.27148 46.2402-3.27148Z"/>
  <path d="M65.625-28.418C67.0898-28.418 68.2129-29.4922 68.2129-30.957L68.2129-39.5996C68.2129-41.0645 67.0898-42.1387 65.625-42.1387C64.1602-42.1387 63.0371-41.0156 63.0371-39.5996L63.0371-30.957C63.0371-29.541 64.1602-28.418 65.625-28.418Z"/>
  <path d="M57.8125-19.3848C59.2773-19.3848 60.4492-20.5566 60.4492-21.9727L60.4492-48.6328C60.4492-50.0488 59.2773-51.1719 57.8125-51.1719C56.3965-51.1719 55.2734-50.0488 55.2734-48.6328L55.2734-21.9727C55.2734-20.5566 56.3965-19.3848 57.8125-19.3848Z"/>
  <path d="M50.0488-26.9531C51.5137-26.9531 52.6855-28.0762 52.6855-29.4922L52.6855-41.0645C52.6855-42.4805 51.5137-43.6035 50.0488-43.6035C48.6328-43.6035 47.5098-42.4805 47.5098-41.0645L47.5098-29.4922C47.5098-28.0762 48.6328-26.9531 50.0488-26.9531Z"/>
  <path d="M42.334-14.4531C43.75-14.4531 44.9219-15.5762 44.9219-17.041L44.9219-53.4668C44.9219-54.9316 43.75-56.0547 42.334-56.0547C40.8691-56.0547 39.7461-54.9316 39.7461-53.4668L39.7461-17.041C39.7461-15.5273 40.8203-14.4531 42.334-14.4531Z"/>
  <path d="M34.5703-23.4863C35.9863-23.4863 37.1582-24.6094 37.1582-26.0742L37.1582-44.5312C37.1582-45.9473 35.9863-47.1191 34.5703-47.1191C33.1055-47.1191 31.9824-45.9473 31.9824-44.5312L31.9824-26.0742C31.9824-24.6094 33.1055-23.4863 34.5703-23.4863Z"/>
  <path d="M26.7578-29.5898C28.2227-29.5898 29.3945-30.7129 29.3945-32.1289L29.3945-38.4277C29.3945-39.8438 28.2227-40.9668 26.7578-40.9668C25.3418-40.9668 24.2188-39.8438 24.2188-38.4277L24.2188-32.1289C24.2188-30.7129 25.3906-29.5898 26.7578-29.5898Z"/>
 </g>
</svg>
