<svg xmlns="http://www.w3.org/2000/svg" viewBox="7.952 -55.232 76.187 40.054" aria-hidden="true" data-sf-symbol="waveform.low">
 <g fill="black">
  <path d="M78.8086-27.6367C80.8105-27.6367 82.3242-29.248 82.3242-31.1523L82.3242-39.2578C82.3242-41.1621 80.8105-42.7734 78.8086-42.7734C76.8066-42.7734 75.293-41.1621 75.293-39.2578L75.293-31.1523C75.293-29.248 76.8066-27.6367 78.8086-27.6367Z"/>
  <path d="M65.7227-21.8262C67.6758-21.8262 69.2383-23.3887 69.2383-25.3418L69.2383-45.0684C69.2383-47.0215 67.6758-48.584 65.7227-48.584C63.6719-48.584 62.207-47.0215 62.207-45.0684L62.207-25.3418C62.207-23.3887 63.6719-21.8262 65.7227-21.8262Z"/>
  <path d="M52.5879-28.0762C54.5898-28.0762 56.1035-29.6387 56.1035-31.543L56.1035-38.8672C56.1035-40.7715 54.5898-42.334 52.5879-42.334C50.5859-42.334 49.0723-40.7715 49.0723-38.8672L49.0723-31.543C49.0723-29.6387 50.5859-28.0762 52.5879-28.0762Z"/>
  <path d="M39.4531-16.9922C41.4551-16.9922 43.0176-18.5547 43.0176-20.5078L43.0176-49.9023C43.0176-51.8555 41.4551-53.418 39.4531-53.418C37.5-53.418 35.9863-51.8555 35.9863-49.9023L35.9863-20.5078C35.9863-18.5547 37.5-16.9922 39.4531-16.9922Z"/>
  <path d="M26.3672-25C28.3691-25 29.9316-26.6113 29.9316-28.5645L29.9316-41.8457C29.9316-43.7988 28.3691-45.4102 26.3672-45.4102C24.3652-45.4102 22.8516-43.7988 22.8516-41.8457L22.8516-28.5645C22.8516-26.6113 24.3652-25 26.3672-25Z"/>
  <path d="M13.2324-29.6875C15.2832-29.6875 16.7969-31.2988 16.7969-33.2031L16.7969-37.207C16.7969-39.1602 15.2832-40.7227 13.2324-40.7227C11.2793-40.7227 9.76562-39.1602 9.76562-37.207L9.76562-33.2031C9.76562-31.2988 11.2793-29.6875 13.2324-29.6875Z"/>
 </g>
</svg>
