<svg xmlns="http://www.w3.org/2000/svg" viewBox="4.574 -73.011 76.036 75.709" aria-hidden="true" data-sf-symbol="location">
 <g fill="black">
  <path d="M 9.324 -41.608 C 4.551 -39.403 5.908 -33.034 11.104 -33 L 39.875 -32.917 C 40.303 -32.917 40.431 -32.756 40.431 -32.362 L 40.513 -3.768 C 40.547 1.669 47.029 2.59 49.323 -2.316 L 78.077 -64.073 C 80.507 -69.203 76.438 -72.82 71.38 -70.466 Z M 15.032 -38.262 C 14.859 -38.262 14.825 -38.45 15.002 -38.514 L 71.971 -64.756 C 72.254 -64.914 72.457 -64.759 72.266 -64.428 L 45.941 -7.556 C 45.862 -7.364 45.708 -7.395 45.708 -7.586 L 45.857 -35.752 C 45.857 -37.32 44.812 -38.412 43.138 -38.412 Z"/>
 </g>
</svg>
