<svg xmlns="http://www.w3.org/2000/svg" viewBox="5.798 -73.791 84.595 76.929" aria-hidden="true" data-sf-symbol="exclamationmark.triangle">
 <g fill="black">
  <path d="M18.75 1.12305L77.4414 1.12305C84.2285 1.12305 88.3789-3.61328 88.3789-9.81445C88.3789-11.6211 87.8418-13.5254 86.8652-15.2344L57.4707-66.2598C55.3711-69.873 51.8066-71.7773 48.0957-71.7773C44.3848-71.7773 40.7715-69.873 38.7207-66.2598L9.32617-15.2344C8.30078-13.4766 7.8125-11.6211 7.8125-9.81445C7.8125-3.61328 11.9629 1.12305 18.75 1.12305ZM18.7988-5.76172C16.4062-5.76172 14.8438-7.71484 14.8438-9.81445C14.8438-10.4492 14.9902-11.2305 15.332-11.8652L44.6777-62.9395C45.4102-64.209 46.7773-64.8438 48.0957-64.8438C49.3652-64.8438 50.6836-64.209 51.4648-62.9395L80.8105-11.8164C81.1523-11.1816 81.2988-10.4492 81.2988-9.81445C81.2988-7.71484 79.7363-5.76172 77.3438-5.76172Z"/>
  <path d="M48.0957-24.9023C50.1465-24.9023 51.3184-26.0254 51.3672-28.2715L52.002-48.291C52.0508-50.4395 50.293-52.0996 48.0469-52.0996C45.7031-52.0996 44.0918-50.4883 44.1406-48.3398L44.6777-28.2715C44.7266-26.0742 45.8984-24.9023 48.0957-24.9023ZM48.0957-12.1094C50.4883-12.1094 52.5391-13.9648 52.5391-16.4062C52.5391-18.8477 50.5371-20.7031 48.0957-20.7031C45.6543-20.7031 43.6035-18.7988 43.6035-16.4062C43.6035-14.0137 45.7031-12.1094 48.0957-12.1094Z"/>
 </g>
</svg>
