<svg xmlns="http://www.w3.org/2000/svg" viewBox="7.375 -85.601 67.142 100.693" aria-hidden="true" data-sf-symbol="fire.extinguisher">
 <g fill="black">
  <path d="M32.7637-67.4316C37.207-67.4316 40.625-70.8984 40.625-75.3418C40.625-79.7363 37.207-83.2031 32.7637-83.2031C28.3203-83.2031 24.8535-79.7363 24.8535-75.3418C24.8535-70.8984 28.3203-67.4316 32.7637-67.4316ZM32.7637-72.168C31.0059-72.168 29.5898-73.584 29.5898-75.3418C29.5898-77.0508 31.0059-78.418 32.7637-78.418C34.4727-78.418 35.8398-77.0508 35.8398-75.3418C35.8398-73.584 34.4727-72.168 32.7637-72.168ZM16.0645-55.127C19.0918-61.9141 23.4863-65.7227 34.6191-65.7227L49.2676-65.7227L49.2676-72.2656L34.6191-72.2656C20.7031-72.2656 13.7695-66.2109 10.0586-57.8125C9.13086-55.7617 10.5469-53.2227 13.0371-53.2227C14.4043-53.2227 15.5273-54.0039 16.0645-55.127ZM44.6289-71.8262L44.6289-66.1621C44.6289-64.3555 45.9961-62.8906 47.8027-62.7441L68.2617-60.9375C70.4102-60.7422 72.1191-62.3047 72.1191-64.5508L72.1191-73.4375C72.1191-75.6348 70.4102-77.2461 68.2617-77.0508L47.8027-75.2441C45.9961-75.0977 44.6289-73.6328 44.6289-71.8262ZM30.3223-66.3086L30.3223-56.5918L37.8906-56.5918L37.8906-66.3086ZM25.0977 12.6953L43.1152 12.6953C48.3887 12.6953 52.0508 9.0332 52.0508 3.75977L52.0508-40.8691C52.0508-51.416 44.6289-58.8867 34.082-58.8867C23.584-58.8867 16.1621-51.416 16.1621-40.8691L16.1621 3.75977C16.1621 9.0332 19.8242 12.6953 25.0977 12.6953ZM26.0254 5.66406C24.4141 5.66406 23.1934 4.39453 23.1934 2.83203L23.1934-40.8691C23.1934-47.2656 27.6855-51.8066 34.082-51.8066C40.5273-51.8066 45.0195-47.2656 45.0195-40.8691L45.0195 2.83203C45.0195 4.39453 43.75 5.66406 42.1875 5.66406Z"/>
 </g>
</svg>
