<?xml version="1.0" encoding="UTF-8"?>
<svg xmlns="http://www.w3.org/2000/svg" viewBox="0 0 1024 1024">
  <defs>
    <style>
      .cls-1 {
        fill: #f6f6f7;
      }

      .cls-2 {
        fill: #606060;
      }

      .cls-3 {
        fill: #30302f;
      }

      .cls-4 {
        fill: #32836c;
      }
    </style>
  </defs>
  <g id="App_Icon_Shape" data-name="App Icon Shape">
    <path class="cls-4" d="M1023.4,295.11c0-.27-.01-.54-.02-.82-.71-26.13-2.25-52.49-6.89-78.34-4.71-26.22-12.4-50.62-24.53-74.44-11.92-23.41-27.49-44.84-46.07-63.41s-40-34.15-63.41-46.07c-23.82-12.12-48.22-19.82-74.44-24.53-25.84-4.65-52.2-6.18-78.34-6.89-11.99-.33-23.99-.46-35.98-.53C679.48,0,665.24,0,651,0h-278C358.76,0,344.52,0,330.27.08c-12,.07-23.99.21-35.98.53-26.13.71-52.49,2.25-78.34,6.89-26.22,4.71-50.62,12.4-74.44,24.53-23.41,11.92-44.84,27.49-63.41,46.07s-34.15,40-46.07,63.41c-12.12,23.82-19.82,48.22-24.53,74.44-4.65,25.84-6.18,52.2-6.89,78.34-.33,11.99-.46,23.99-.53,35.98C0,344.52,0,358.76,0,373v278c0,14.24,0,28.48.08,42.73.07,12,.21,23.99.53,35.98.71,26.13,2.25,52.49,6.89,78.34,4.71,26.22,12.4,50.62,24.53,74.44,11.92,23.41,27.49,44.84,46.07,63.41s40,34.15,63.41,46.07c23.82,12.12,48.22,19.82,74.44,24.53,25.84,4.65,52.2,6.18,78.34,6.89,11.99.33,23.99.46,35.98.53,14.24.09,28.48.08,42.73.08h278c14.24,0,28.48,0,42.73-.08,12-.07,23.99-.21,35.98-.53,26.13-.71,52.49-2.25,78.34-6.89,26.22-4.71,50.62-12.4,74.44-24.53,23.41-11.92,44.84-27.49,63.41-46.07s34.15-40,46.07-63.41c12.12-23.82,19.82-48.22,24.53-74.44,4.65-25.84,6.18-52.2,6.89-78.34,0-.27.01-.54.02-.82v-433.79Z"/>
  </g>
  <g id="Head">
    <ellipse class="cls-3" cx="512" cy="363.19" rx="254.79" ry="232.77"/>
  </g>
  <g id="Ears">
    <path class="cls-3" d="M306.68,362.04c-6.84,5.69-10.7,13.24-20.29,14.54-5.43.74-10.94-.03-16.42.07-8.23.16-16.41,2.34-23.63,6.3-1.27.69-2.61,1.47-4.05,1.36-4.13-.3-4.3-6.16-4.63-10.3-.79-9.96-10.05-17.64-19.83-19.6-8.54-1.72-18.73,2.96-27.42,2.92-2.03,0-4.22-.17-5.81-1.45-2.18-1.76-2.44-4.92-2.5-7.72-.22-9.47-.85-20.42-8.5-25.99-6.97-5.07-16.59-3.26-24.96-1.24-.93-7.96,12.46-13.62,9.19-20.94-1.5-3.35-5.77-4.37-8.21-7.1-7.29-8.13,8.24-22.09,8.29-30.87-.19-5.35-4.35-7.92-5.18-13.67-.63-4.66.52-9.09,1.18-13.87.86-5.47,1.89-11.91,2.73-17.25,4.25-38.19,16.68-91.3,75.34-116.88,19.54-8.3,39.13-10.51,60.08-10.82,56.74-1.02,102.46,32.45,117.73,59.26.52,1.66-.15,2.35-.45,5.05-.61,3.47-1.63,9.03-3.11,16.15-9.36,47.66-38.69,153.58-99.35,191.82,0,0-.22.19-.22.19Z"/>
    <path class="cls-3" d="M717.32,362.04c6.84,5.69,10.7,13.24,20.29,14.54,5.43.74,10.94-.03,16.42.07,8.23.16,16.41,2.34,23.63,6.3,1.27.69,2.61,1.47,4.05,1.36,4.13-.3,4.3-6.16,4.63-10.3.79-9.96,10.05-17.64,19.83-19.6,8.54-1.72,18.73,2.96,27.42,2.92,2.03,0,4.22-.17,5.81-1.45,2.18-1.76,2.44-4.92,2.5-7.72.22-9.47.85-20.42,8.5-25.99,6.97-5.07,16.59-3.26,24.96-1.24.93-7.96-12.46-13.62-9.19-20.94,1.5-3.35,5.77-4.37,8.21-7.1,7.29-8.13-8.24-22.09-8.29-30.87.19-5.35,4.35-7.92,5.18-13.67.63-4.66-.52-9.09-1.18-13.87-.86-5.47-1.89-11.91-2.73-17.25-4.25-38.19-16.68-91.3-75.34-116.88-19.54-8.3-39.13-10.51-60.08-10.82-56.74-1.02-102.46,32.45-117.73,59.26-.52,1.66.15,2.35.45,5.05.61,3.47,1.63,9.03,3.11,16.15,9.36,47.66,38.69,153.58,99.35,191.82,0,0,.22.19.22.19Z"/>
  </g>
  <g id="Nose">
    <ellipse class="cls-2" cx="512" cy="511.52" rx="86.15" ry="105.19"/>
    <path class="cls-1" d="M177.76,664.93l144.8,72.55c25.32,12.69,25.29,48.83-.05,61.47l-144.8,72.24c-22.85,11.4-49.7-5.22-49.7-30.75v-144.8c0-25.56,26.91-42.17,49.76-30.72Z"/>
    <rect class="cls-1" x="383.58" y="704.41" width="460.85" height="127.73" rx="45" ry="45"/>
  </g>
</svg>