<?xml version="1.0" encoding="UTF-8"?>
<svg xmlns="http://www.w3.org/2000/svg" xmlns:xlink="http://www.w3.org/1999/xlink" viewBox="0 0 1024 1024">
  <defs>
    <style>
      .cls-1 {
        fill: url(#linear-gradient-5);
      }

      .cls-2 {
        fill: url(#linear-gradient-4);
      }

      .cls-3 {
        fill: url(#linear-gradient-3);
      }

      .cls-4 {
        fill: url(#linear-gradient-2);
      }

      .cls-5 {
        fill: url(#linear-gradient);
      }
    </style>
    <linearGradient id="linear-gradient" x1="511.7" y1="0" x2="511.7" y2="1024" gradientUnits="userSpaceOnUse">
      <stop offset="0" stop-color="#569986"/>
      <stop offset=".05" stop-color="#4f9481"/>
      <stop offset=".23" stop-color="#3e8a75"/>
      <stop offset=".42" stop-color="#35846e"/>
      <stop offset=".67" stop-color="#32836c"/>
      <stop offset=".76" stop-color="#3c8973"/>
      <stop offset=".91" stop-color="#579986"/>
      <stop offset="1" stop-color="#6ca695"/>
    </linearGradient>
    <linearGradient id="linear-gradient-2" x1="511.7" y1="630.89" x2="511.7" y2="56.78" gradientUnits="userSpaceOnUse">
      <stop offset=".07" stop-color="#30302f"/>
      <stop offset=".33" stop-color="#454544"/>
      <stop offset=".7" stop-color="#5f5f5e"/>
      <stop offset=".92" stop-color="#696968"/>
    </linearGradient>
    <linearGradient id="linear-gradient-3" x1="511.7" y1="649.75" x2="511.7" y2="403.85" gradientUnits="userSpaceOnUse">
      <stop offset="0" stop-color="#606060"/>
      <stop offset=".54" stop-color="#5d5d5d"/>
      <stop offset=".85" stop-color="#555"/>
      <stop offset="1" stop-color="#4e4e4e"/>
    </linearGradient>
    <linearGradient id="linear-gradient-4" x1="277.24" y1="938.67" x2="277.24" y2="725.06" gradientUnits="userSpaceOnUse">
      <stop offset="0" stop-color="#f6f6f7"/>
      <stop offset=".18" stop-color="#efeff0"/>
      <stop offset=".43" stop-color="#dededf"/>
      <stop offset=".71" stop-color="#c2c2c3"/>
      <stop offset="1" stop-color="#9d9d9e"/>
    </linearGradient>
    <linearGradient id="linear-gradient-5" x1="665.58" y1="895.73" x2="665.58" y2="768" xlink:href="#linear-gradient-4"/>
  </defs>
  <g id="App_Icon_Shape" data-name="App Icon Shape">
    <path class="cls-5" d="M1023.4,295.11c0-.27-.01-.54-.02-.82-.71-26.13-2.25-52.49-6.89-78.34-4.71-26.22-12.4-50.62-24.53-74.44-11.92-23.41-27.49-44.84-46.07-63.41s-40-34.15-63.41-46.07c-23.82-12.12-48.22-19.82-74.44-24.53-25.84-4.65-52.2-6.18-78.34-6.89-11.99-.33-23.99-.46-35.98-.53C679.48,0,665.24,0,651,0h-278C358.76,0,344.52,0,330.27.08c-12,.07-23.99.21-35.98.53-26.13.71-52.49,2.25-78.34,6.89-26.22,4.71-50.62,12.4-74.44,24.53-23.41,11.92-44.84,27.49-63.41,46.07s-34.15,40-46.07,63.41c-12.12,23.82-19.82,48.22-24.53,74.44-4.65,25.84-6.18,52.2-6.89,78.34-.33,11.99-.46,23.99-.53,35.98C0,344.52,0,358.76,0,373v278c0,14.24,0,28.48.08,42.73.07,12,.21,23.99.53,35.98.71,26.13,2.25,52.49,6.89,78.34,4.71,26.22,12.4,50.62,24.53,74.44,11.92,23.41,27.49,44.84,46.07,63.41s40,34.15,63.41,46.07c23.82,12.12,48.22,19.82,74.44,24.53,25.84,4.65,52.2,6.18,78.34,6.89,11.99.33,23.99.46,35.98.53,14.24.09,28.48.08,42.73.08h278c14.24,0,28.48,0,42.73-.08,12-.07,23.99-.21,35.98-.53,26.13-.71,52.49-2.25,78.34-6.89,26.22-4.71,50.62-12.4,74.44-24.53,23.41-11.92,44.84-27.49,63.41-46.07s34.15-40,46.07-63.41c12.12-23.82,19.82-48.22,24.53-74.44,4.65-25.84,6.18-52.2,6.89-78.34,0-.27.01-.54.02-.82v-433.79Z"/>
  </g>
  <g id="Ears">
    <path class="cls-4" d="M913.2,295.39c1.69-3.79,6.54-4.96,9.31-8.05,8.26-9.22-9.34-25.05-9.4-35,.22-6.06,4.93-8.98,5.87-15.5.72-5.29-.59-10.31-1.34-15.72-.98-6.2-2.14-13.51-3.09-19.55-4.82-43.3-18.91-103.51-85.41-132.5-22.15-9.41-44.36-11.92-68.11-12.27-64.33-1.16-116.15,36.79-133.47,67.18-.14.43-.19.81-.21,1.17-35.41-14.15-74.52-22.02-115.64-22.02s-80.23,7.87-115.64,22.02c-.01-.36-.07-.73-.21-1.17-17.32-30.39-69.14-68.34-133.47-67.18-23.75.35-45.96,2.85-68.11,12.27-66.49,28.99-80.59,89.2-85.41,132.5-.95,6.05-2.12,13.35-3.09,19.55-.75,5.41-2.06,10.43-1.34,15.72.94,6.52,5.65,9.43,5.87,15.5-.06,9.95-17.66,25.78-9.4,35,2.77,3.09,7.61,4.26,9.31,8.05,3.71,8.29-11.47,14.71-10.42,23.74,9.49-2.3,20.4-4.35,28.3,1.4,8.67,6.31,9.39,18.73,9.64,29.46.07,3.17.37,6.76,2.84,8.75,1.8,1.45,4.28,1.63,6.58,1.64,9.85.04,21.4-5.26,31.08-3.31,11.08,2.23,21.58,10.93,22.48,22.22.37,4.69.57,11.33,5.25,11.67,1.63.12,3.15-.76,4.59-1.55,4.08-2.24,8.44-3.98,12.94-5.18,9.72,137.7,135.03,246.65,288.22,246.65s278.5-108.95,288.22-246.65c4.5,1.2,8.86,2.94,12.94,5.18,1.44.79,2.95,1.66,4.59,1.55,4.68-.34,4.88-6.98,5.25-11.67.89-11.29,11.39-19.99,22.48-22.22,9.68-1.94,21.23,3.36,31.08,3.31,2.31-.01,4.79-.19,6.58-1.64,2.47-1.99,2.77-5.58,2.84-8.75.25-10.73.97-23.15,9.64-29.46,7.9-5.75,18.81-3.7,28.3-1.4,1.06-9.03-14.12-15.44-10.42-23.74Z"/>
  </g>
  <g id="Nose">
    <ellipse class="cls-3" cx="511.7" cy="526.8" rx="109.2" ry="122.95"/>
    <path class="cls-2" d="M220.23,728.74l144.8,72.55c25.32,12.69,25.29,48.83-.05,61.47l-144.8,72.24c-22.85,11.4-49.7-5.22-49.7-30.75v-144.8c0-25.56,26.91-42.17,49.76-30.72Z"/>
    <rect class="cls-1" x="435.15" y="768" width="460.85" height="127.73" rx="45" ry="45"/>
  </g>
</svg>