<?xml version="1.0" encoding="UTF-8"?>
<svg xmlns="http://www.w3.org/2000/svg" xmlns:xlink="http://www.w3.org/1999/xlink" viewBox="0 0 1024 1024">
  <defs>
    <style>
      .cls-1, .cls-2 {
        fill: #df4b9a;
      }

      .cls-3 {
        fill: url(#linear-gradient-4);
      }

      .cls-4 {
        fill: url(#linear-gradient-3);
      }

      .cls-5 {
        fill: url(#linear-gradient-2);
      }

      .cls-6 {
        fill: #f9efff;
        mix-blend-mode: overlay;
      }

      .cls-7 {
        fill: url(#linear-gradient);
      }

      .cls-2 {
        mix-blend-mode: darken;
      }

      .cls-8 {
        isolation: isolate;
      }
    </style>
    <linearGradient id="linear-gradient" x1="511.7" y1="1024" x2="511.7" y2="0" gradientUnits="userSpaceOnUse">
      <stop offset="0" stop-color="#df4b9a"/>
      <stop offset=".01" stop-color="#c34187"/>
      <stop offset=".04" stop-color="#963267"/>
      <stop offset=".07" stop-color="#6d244b"/>
      <stop offset=".1" stop-color="#4b1934"/>
      <stop offset=".13" stop-color="#301021"/>
      <stop offset=".16" stop-color="#1a0812"/>
      <stop offset=".2" stop-color="#0b0308"/>
      <stop offset=".24" stop-color="#020001"/>
      <stop offset=".31" stop-color="#000"/>
      <stop offset=".43" stop-color="#060204"/>
      <stop offset=".6" stop-color="#180811"/>
      <stop offset=".79" stop-color="#351225"/>
      <stop offset=".9" stop-color="#491933"/>
    </linearGradient>
    <linearGradient id="linear-gradient-2" x1="259.33" y1="238.9" x2="259.33" y2="207.29" gradientUnits="userSpaceOnUse">
      <stop offset="0" stop-color="#df4b9a"/>
      <stop offset=".02" stop-color="#c34187"/>
      <stop offset=".06" stop-color="#963267"/>
      <stop offset=".11" stop-color="#6d244b"/>
      <stop offset=".15" stop-color="#4b1934"/>
      <stop offset=".2" stop-color="#301021"/>
      <stop offset=".25" stop-color="#1a0812"/>
      <stop offset=".31" stop-color="#0b0308"/>
      <stop offset=".38" stop-color="#020001"/>
      <stop offset=".48" stop-color="#000"/>
      <stop offset=".59" stop-color="#060204"/>
      <stop offset=".74" stop-color="#180811"/>
      <stop offset=".91" stop-color="#351225"/>
      <stop offset="1" stop-color="#491933"/>
    </linearGradient>
    <linearGradient id="linear-gradient-3" x1="456.73" y1="512" x2="896" y2="512" gradientUnits="userSpaceOnUse">
      <stop offset=".2" stop-color="#df4b9a"/>
      <stop offset=".62" stop-color="#cf4898"/>
      <stop offset="1" stop-color="#67348e"/>
    </linearGradient>
    <linearGradient id="linear-gradient-4" x1="534.56" y1="467.85" x2="534.56" y2="411.65" gradientUnits="userSpaceOnUse">
      <stop offset="0" stop-color="#f6f6f7"/>
      <stop offset="1" stop-color="#cbcbcb"/>
    </linearGradient>
  </defs>
  <g class="cls-8">
    <g id="App_Icon_Shape" data-name="App Icon Shape">
      <path class="cls-7" d="M1023.4,295.11c0-.27-.01-.54-.02-.82-.71-26.13-2.25-52.49-6.89-78.34-4.71-26.22-12.4-50.62-24.53-74.44-11.92-23.41-27.49-44.84-46.07-63.41s-40-34.15-63.41-46.07c-23.82-12.12-48.22-19.82-74.44-24.53-25.84-4.65-52.2-6.18-78.34-6.89-11.99-.33-23.99-.46-35.98-.53C679.48,0,665.24,0,651,0h-278C358.76,0,344.52,0,330.27.08c-12,.07-23.99.21-35.98.53-26.13.71-52.49,2.25-78.34,6.89-26.22,4.71-50.62,12.4-74.44,24.53-23.41,11.92-44.84,27.49-63.41,46.07s-34.15,40-46.07,63.41c-12.12,23.82-19.82,48.22-24.53,74.44-4.65,25.84-6.18,52.2-6.89,78.34-.33,11.99-.46,23.99-.53,35.98C0,344.52,0,358.76,0,373v278c0,14.24,0,28.48.08,42.73.07,12,.21,23.99.53,35.98.71,26.13,2.25,52.49,6.89,78.34,4.71,26.22,12.4,50.62,24.53,74.44,11.92,23.41,27.49,44.84,46.07,63.41s40,34.15,63.41,46.07c23.82,12.12,48.22,19.82,74.44,24.53,25.84,4.65,52.2,6.18,78.34,6.89,11.99.33,23.99.46,35.98.53,14.24.09,28.48.08,42.73.08h278c14.24,0,28.48,0,42.73-.08,12-.07,23.99-.21,35.98-.53,26.13-.71,52.49-2.25,78.34-6.89,26.22-4.71,50.62-12.4,74.44-24.53,23.41-11.92,44.84-27.49,63.41-46.07s34.15-40,46.07-63.41c12.12-23.82,19.82-48.22,24.53-74.44,4.65-25.84,6.18-52.2,6.89-78.34,0-.27.01-.54.02-.82v-433.79Z"/>
      <path class="cls-5" d="M273.67,209.04c.04.08.07.15.1.23.75,1.99-5.02,10.32-6.27,12.21-4.63,6.99-10.32,13.71-18.28,16.92-1.31.53-3.05.86-3.93-.24-.49-.62-.51-1.48-.45-2.26.64-9.77,5.7-20.93,14.6-25.81,2.64-1.45,12.36-4.86,14.22-1.05Z"/>
    </g>
    <g id="Neck">
      <path class="cls-1" d="M541.53,641c-93.63,45.17-158.54-11.37-158.54-11.37-98.6-79.29-4.64-245.24-4.64-245.24,53.69-105.36,1.5-130.32-12.23-140.67-13.73-10.35-31.83,2.77-31.83,2.77,0,0-39.88,50.28-70.63,58.09-30.74,7.8-10.21,125.95-10.21,125.95-17.27,15.29-50.15-53.04-50.15-53.04-26.18-35.57-9.16-68.47-9.16-68.47l36.45-60.25c-10.01-70.96,71.08-67.75,71.08-67.75,65.01-12.07,122.68,46.41,122.68,46.41,77.43,64.46-14.05,222.03-14.05,222.03-46.04,149.14,51.49,134.84,51.49,134.84,16.28-6.07,21.02-27.41,20.86-50.71l18.48,85.92c2.7,12.54,13.78,21.49,26.6,21.49h13.8Z"/>
    </g>
    <g id="Legs">
      <path class="cls-1" d="M762.52,706.78c-6.18,3.19-12.93,5.33-19.33,7.99-13.03,5.39-26.06,10.79-39.09,16.18-4.16,1.72-55.25,19.73-55.03,22.78,3.62,49.63,7.35,96.5,7.35,96.5,2.41,9.2,4.17,19.66,3.2,29.15-1.63,15.84-5.81,30.71-5.73,46.76.07,14.46.45,28.91,1.04,43.36.74,18.17,1.69,36.35,2.93,54.5h-9.01s-8.58-121.8-8.58-121.82c-.81-11.57-2.82-23.32-2.01-35.45s3.38-22.93,3.05-34.53c-.7-24.57-2.17-49.07-4.05-73.58-11.82,4.89-23.64,9.78-35.46,14.68-9.42,3.9-18.83,7.79-28.25,11.69s-21.52,6.77-29.44,13.27c-2.36,1.94-4.35,4.3-6.31,6.65-14.03,16.74-28.12,33.41-42.22,50.09l-1.69-11.4-18.99,14.48s5.35-30.4,28.68-53.6c11.37-11.31,72.45-39.72,132.08-65.88-4.12-49.99-8.97-97.47-8.97-97.47l-.05-.12h15.72c-.28,10.32,2.25,50.17,5.25,92.37,31.18-14.03,63.52-25.85,94.32-40.61,8.22-4.67,12.72-12.15,14.03-21.46.17-1.19.27-2.46-.23-3.55-.58-1.29-1.87-2.09-3.08-2.82-11.89-7.13-22.73-15.96-33.85-24.28,11.84,2.55,25.04-2.96,35.89,2.41,3.4,1.68,6.22,4.3,8.91,6.97,5.33,5.28,10.41,11,13.66,17.77s4.5,14.77,2.01,21.86c-2.2,6.24-7.09,11.24-12.67,14.8-1.33.84-2.69,1.62-4.08,2.34Z"/>
    </g>
    <g id="Body">
      <path class="cls-4" d="M895.38,415.93l-43.78,203.58c-2.7,12.54-13.78,21.49-26.6,21.49h-297.27c-12.82,0-23.9-8.95-26.6-21.49l-18.48-85.92-25.3-117.66c-3.64-16.94,9.27-32.93,26.6-32.93h384.83c17.33,0,30.25,15.99,26.6,32.93Z"/>
    </g>
    <g id="Inner_Body" data-name="Inner Body">
      <path class="cls-6" d="M690.21,390.75h-199.33c-16.64,0-29.03,15.13-25.54,31.16l42.02,192.63c2.59,11.86,13.23,20.34,25.54,20.34h285.32c12.31,0,22.95-8.47,25.54-20.34l42.02-192.63c3.5-16.03-8.9-31.16-25.54-31.16h-170.04Z"/>
    </g>
    <g id="Lines">
      <path class="cls-2" d="M598.61,580.12h-61.92c-3.13,0-5.5,2.82-4.95,5.9l3.79,21.47c.42,2.4,2.51,4.16,4.95,4.16h99.03c2.44,0,4.53-1.75,4.95-4.16l3.79-21.47c.54-3.08-1.83-5.9-4.95-5.9h-44.69Z"/>
      <path class="cls-2" d="M649.39,529.96h-121.84c-3.21,0-5.65,2.9-5.09,6.07l3.74,21.2c.44,2.47,2.58,4.27,5.09,4.27h158.88c2.51,0,4.65-1.8,5.09-4.27l3.74-21.2c.56-3.16-1.88-6.07-5.09-6.07h-44.53Z"/>
      <path class="cls-2" d="M695.27,479.8h-179.47c-3.13,0-5.5,2.83-4.96,5.91l3.79,21.46c.42,2.41,2.51,4.16,4.96,4.16h216.58c2.44,0,4.53-1.75,4.96-4.16l3.79-21.46c.54-3.08-1.83-5.91-4.96-5.91h-44.69Z"/>
      <path class="cls-2" d="M766.48,429.64h-179.47c-3.13,0-5.5,2.83-4.96,5.91l3.79,21.46c.42,2.41,2.51,4.16,4.96,4.16h216.58c2.44,0,4.53-1.75,4.96-4.16l3.79-21.46c.54-3.08-1.83-5.91-4.96-5.91h-44.69Z"/>
      <path class="cls-3" d="M519.56,412.62l38.1,19.09c6.66,3.34,6.65,12.85-.01,16.17l-38.1,19.01c-6.01,3-13.08-1.37-13.08-8.09v-38.1c0-6.72,7.08-11.1,13.09-8.08Z"/>
    </g>
  </g>
</svg>