<?xml version="1.0" encoding="UTF-8"?>
<svg xmlns="http://www.w3.org/2000/svg" viewBox="0 0 1024 1024">
  <defs>
    <style>
      .cls-1 {
        fill: #df4b9a;
      }

      .cls-2 {
        fill: #f9efff;
        mix-blend-mode: overlay;
      }

      .cls-3 {
        fill: #f6f6f7;
      }

      .cls-4 {
        fill: #9e4fd9;
      }

      .cls-5 {
        isolation: isolate;
      }

      .cls-6 {
        fill: #18081e;
      }
    </style>
  </defs>
  <g class="cls-5">
    <g id="App_Icon_Shape" data-name="App Icon Shape">
      <path class="cls-6" d="M1023.4,295.11c0-.27-.01-.54-.02-.82-.71-26.13-2.25-52.49-6.89-78.34-4.71-26.22-12.4-50.62-24.53-74.44-11.92-23.41-27.49-44.84-46.07-63.41s-40-34.15-63.41-46.07c-23.82-12.12-48.22-19.82-74.44-24.53-25.84-4.65-52.2-6.18-78.34-6.89-11.99-.33-23.99-.46-35.98-.53C679.48,0,665.24,0,651,0h-278C358.76,0,344.52,0,330.27.08c-12,.07-23.99.21-35.98.53-26.13.71-52.49,2.25-78.34,6.89-26.22,4.71-50.62,12.4-74.44,24.53-23.41,11.92-44.84,27.49-63.41,46.07s-34.15,40-46.07,63.41c-12.12,23.82-19.82,48.22-24.53,74.44-4.65,25.84-6.18,52.2-6.89,78.34-.33,11.99-.46,23.99-.53,35.98C0,344.52,0,358.76,0,373v278c0,14.24,0,28.48.08,42.73.07,12,.21,23.99.53,35.98.71,26.13,2.25,52.49,6.89,78.34,4.71,26.22,12.4,50.62,24.53,74.44,11.92,23.41,27.49,44.84,46.07,63.41s40,34.15,63.41,46.07c23.82,12.12,48.22,19.82,74.44,24.53,25.84,4.65,52.2,6.18,78.34,6.89,11.99.33,23.99.46,35.98.53,14.24.09,28.48.08,42.73.08h278c14.24,0,28.48,0,42.73-.08,12-.07,23.99-.21,35.98-.53,26.13-.71,52.49-2.25,78.34-6.89,26.22-4.71,50.62-12.4,74.44-24.53,23.41-11.92,44.84-27.49,63.41-46.07s34.15-40,46.07-63.41c12.12-23.82,19.82-48.22,24.53-74.44,4.65-25.84,6.18-52.2,6.89-78.34,0-.27.01-.54.02-.82v-433.79Z"/>
    </g>
    <g id="Neck">
      <path class="cls-1" d="M541.53,641c-93.63,45.17-158.54-11.37-158.54-11.37-98.6-79.29-4.64-245.24-4.64-245.24,53.69-105.36,1.5-130.32-12.23-140.67-13.73-10.35-31.83,2.77-31.83,2.77,0,0-39.88,50.28-70.63,58.09-30.74,7.8-10.21,125.95-10.21,125.95-17.27,15.29-50.15-53.04-50.15-53.04-26.18-35.57-9.16-68.47-9.16-68.47l36.45-60.25c-10.01-70.96,71.08-67.75,71.08-67.75,65.01-12.07,122.68,46.41,122.68,46.41,77.43,64.46-14.05,222.03-14.05,222.03-46.04,149.14,51.49,134.84,51.49,134.84,16.28-6.07,21.02-27.41,20.86-50.71l18.48,85.92c2.7,12.54,13.78,21.49,26.6,21.49h13.8Z"/>
    </g>
    <g id="Legs">
      <path class="cls-1" d="M762.51,706.77l-113.44,46.96c3.62,49.63,7.35,96.5,7.35,96.5,0,0,7.28,27.74.3,41.4-6.98,13.65,1.14,132.37,1.14,132.37h-9.01s-8.58-121.82-8.58-121.82c0,0-6.88-34.12-.29-50.41,2.9-7.17.68-48.78-2.72-93.15l-92.64,38.34-49.04,58.03-1.69-11.4-18.99,14.48s5.35-30.4,28.68-53.6c11.37-11.31,72.45-39.72,132.08-65.88-4.12-49.99-8.97-97.47-8.97-97.47l-.05-.12h15.72c-.28,10.32,2.25,50.17,5.25,92.37,58.28-25.36,111.83-47.28,111.83-47.28l-2.46-16.55-38.71-28.54h34.99c8.97,7.56,16.51,15.04,21.03,21.74,19.88,29.46-11.78,44.03-11.78,44.03Z"/>
    </g>
    <g id="Body">
      <path class="cls-4" d="M895.38,415.93l-43.78,203.58c-2.7,12.54-13.78,21.49-26.6,21.49h-297.27c-12.82,0-23.9-8.95-26.6-21.49l-18.48-85.92-25.3-117.66c-3.64-16.94,9.27-32.93,26.6-32.93h384.83c17.33,0,30.25,15.99,26.6,32.93Z"/>
    </g>
    <g id="Inner_Body" data-name="Inner Body">
      <path class="cls-2" d="M690.69,399.04h-183.56c-15.32,0-26.74,13.68-23.52,28.19l38.7,174.24c2.38,10.73,12.18,18.39,23.52,18.39h262.76c11.34,0,21.13-7.66,23.52-18.39l38.7-174.24c3.22-14.5-8.2-28.19-23.52-28.19h-156.59Z"/>
    </g>
    <g id="Lines">
      <path class="cls-1" d="M598.61,580.12h-61.92c-3.13,0-5.5,2.82-4.95,5.9l3.79,21.47c.42,2.4,2.51,4.16,4.95,4.16h99.03c2.44,0,4.53-1.75,4.95-4.16l3.79-21.47c.54-3.08-1.83-5.9-4.95-5.9h-44.69Z"/>
      <path class="cls-1" d="M649.39,529.96h-121.84c-3.21,0-5.65,2.9-5.09,6.07l3.74,21.2c.44,2.47,2.58,4.27,5.09,4.27h158.88c2.51,0,4.65-1.8,5.09-4.27l3.74-21.2c.56-3.16-1.88-6.07-5.09-6.07h-44.53Z"/>
      <path class="cls-1" d="M695.27,479.8h-179.47c-3.13,0-5.5,2.83-4.96,5.91l3.79,21.46c.42,2.41,2.51,4.16,4.96,4.16h216.58c2.44,0,4.53-1.75,4.96-4.16l3.79-21.46c.54-3.08-1.83-5.91-4.96-5.91h-44.69Z"/>
      <path class="cls-1" d="M766.48,429.64h-179.47c-3.13,0-5.5,2.83-4.96,5.91l3.79,21.46c.42,2.41,2.51,4.16,4.96,4.16h216.58c2.44,0,4.53-1.75,4.96-4.16l3.79-21.46c.54-3.08-1.83-5.91-4.96-5.91h-44.69Z"/>
      <path class="cls-3" d="M519.56,412.62l38.1,19.09c6.66,3.34,6.65,12.85-.01,16.17l-38.1,19.01c-6.01,3-13.08-1.37-13.08-8.09v-38.1c0-6.72,7.08-11.1,13.09-8.08Z"/>
    </g>
  </g>
</svg>