<?xml version="1.0" encoding="UTF-8"?>
<svg xmlns="http://www.w3.org/2000/svg" xmlns:xlink="http://www.w3.org/1999/xlink" viewBox="0 0 1024 1024">
  <defs>
    <style>
      .cls-1 {
        fill: url(#linear-gradient-3);
      }

      .cls-2 {
        fill: url(#linear-gradient-2);
      }

      .cls-3 {
        fill: #8e715b;
      }

      .cls-4 {
        fill: url(#linear-gradient);
      }

      .cls-5 {
        fill: #fff;
        opacity: .8;
      }

      .cls-6 {
        fill: #7f746b;
      }

      .cls-7 {
        fill: #a54907;
      }

      .cls-8 {
        fill: #2a2a21;
      }

      .cls-9 {
        fill: #33302b;
      }

      .cls-10 {
        fill: #3d3429;
      }

      .cls-11 {
        fill: #090907;
      }
    </style>
    <linearGradient id="linear-gradient" x1="511.7" y1="0" x2="511.7" y2="1024" gradientUnits="userSpaceOnUse">
      <stop offset="0" stop-color="#ddeb9d"/>
      <stop offset=".08" stop-color="#daea95"/>
      <stop offset=".2" stop-color="#d4ea82"/>
      <stop offset=".35" stop-color="#cae861"/>
      <stop offset=".51" stop-color="#bce734"/>
      <stop offset=".56" stop-color="#b9e728"/>
      <stop offset=".6" stop-color="#b4df27"/>
      <stop offset=".67" stop-color="#a9cb24"/>
      <stop offset=".75" stop-color="#97aa20"/>
      <stop offset=".84" stop-color="#7d7d1b"/>
      <stop offset=".94" stop-color="#5c4313"/>
      <stop offset="1" stop-color="#461b0f"/>
    </linearGradient>
    <linearGradient id="linear-gradient-2" x1="363.2" y1="781.37" x2="363.2" y2="831.67" gradientUnits="userSpaceOnUse">
      <stop offset="0" stop-color="#a54907"/>
      <stop offset="1" stop-color="#000"/>
    </linearGradient>
    <linearGradient id="linear-gradient-3" x1="2489.53" y1="2211.08" x2="2489.53" y2="2251.28" gradientTransform="translate(2852.7253 3037.7031) rotate(-180)" gradientUnits="userSpaceOnUse">
      <stop offset="0" stop-color="#ba7441"/>
      <stop offset=".13" stop-color="#b76e3a"/>
      <stop offset=".33" stop-color="#b06026"/>
      <stop offset=".56" stop-color="#a54907"/>
      <stop offset=".56" stop-color="#a54907"/>
      <stop offset=".91" stop-color="#a54a09"/>
      <stop offset="1" stop-color="#a74d0c"/>
    </linearGradient>
  </defs>
  <g id="App_Icon_Shape" data-name="App Icon Shape">
    <path class="cls-4" d="M1023.4,295.11c0-.27-.01-.54-.02-.82-.71-26.13-2.25-52.49-6.89-78.34-4.71-26.22-12.4-50.62-24.53-74.44-11.92-23.41-27.49-44.84-46.07-63.41s-40-34.15-63.41-46.07c-23.82-12.12-48.22-19.82-74.44-24.53-25.84-4.65-52.2-6.18-78.34-6.89-11.99-.33-23.99-.46-35.98-.53C679.48,0,665.24,0,651,0h-278C358.76,0,344.52,0,330.27.08c-12,.07-23.99.21-35.98.53-26.13.71-52.49,2.25-78.34,6.89-26.22,4.71-50.62,12.4-74.44,24.53-23.41,11.92-44.84,27.49-63.41,46.07s-34.15,40-46.07,63.41c-12.12,23.82-19.82,48.22-24.53,74.44-4.65,25.84-6.18,52.2-6.89,78.34-.33,11.99-.46,23.99-.53,35.98C0,344.52,0,358.76,0,373v278c0,14.24,0,28.48.08,42.73.07,12,.21,23.99.53,35.98.71,26.13,2.25,52.49,6.89,78.34,4.71,26.22,12.4,50.62,24.53,74.44,11.92,23.41,27.49,44.84,46.07,63.41s40,34.15,63.41,46.07c23.82,12.12,48.22,19.82,74.44,24.53,25.84,4.65,52.2,6.18,78.34,6.89,11.99.33,23.99.46,35.98.53,14.24.09,28.48.08,42.73.08h278c14.24,0,28.48,0,42.73-.08,12-.07,23.99-.21,35.98-.53,26.13-.71,52.49-2.25,78.34-6.89,26.22-4.71,50.62-12.4,74.44-24.53,23.41-11.92,44.84-27.49,63.41-46.07s34.15-40,46.07-63.41c12.12-23.82,19.82-48.22,24.53-74.44,4.65-25.84,6.18-52.2,6.89-78.34,0-.27.01-.54.02-.82v-433.79Z"/>
  </g>
  <g id="Layer_12" data-name="Layer 12">
    <ellipse cx="363.2" cy="866.78" rx="194.79" ry="29.22"/>
    <rect class="cls-7" x="195.55" y="806.52" width="335.31" height="50.3"/>
    <ellipse class="cls-7" cx="363.55" cy="856.82" rx="167.65" ry="25.15"/>
    <ellipse class="cls-2" cx="363.2" cy="806.52" rx="167.65" ry="25.15"/>
    <ellipse class="cls-1" cx="363.2" cy="806.52" rx="152.44" ry="20.1"/>
  </g>
  <g id="Layer_11" data-name="Layer 11">
    <path class="cls-6" d="M751.88,849.33c-40.25-49.31-54.89-205.47-54.89-205.47l-41.44,19.51s44.58,118.57,20.53,165.41c0,0-19.49,27.74-48.61,25.48,0,0-19.85-2.14-15.16,10.68,7.91,21.6,43.46,15.86,64.23,10.41-2.67,5.44-5.31,9.53-7.42,10.19,0,0-4.8,10.12,10.48,7.03,9.09-1.84,18.17-16.49,24.04-28.06,2.75-.31,5.57.34,7.99,2.88,7.84,8.22,49.14,19.72,49.14,19.72,0,0,31.36,11.51-8.89-37.81Z"/>
    <path class="cls-6" d="M454.34,614.37s18.04,19.89,7.76,41.96c-10.28,22.07-57.35,85.63-57.35,85.63,0,0-22.63,1.05-28.11,12.49-5.47,11.44-46.93,15.57-62.38,10.87-9.63-2.93-15.75,4.29-5.91,9.22s14.13.87,13.71,1.11c-4.02,2.24-3.73,1.29-6.05,1.55-1.76.19-3.48.66-5.23.92-2.71.39-5.43.16-8.16.4s-5.36.83-7.72,2.2c-1.65.95-2.71,2.79-1.57,4.52.97,1.47,3.34,1.96,4.87,2.35,5.23,1.31,10.72,1.66,16.08,2.01,11.38.73,22.79.82,34.19.8,9.48-.02,18.95-.16,28.43-.38,1.06-.02-1.94,1.88-2.63,2.65-1.73,1.94-3.41,3.93-5.08,5.93-1.75,2.1-3.51,4.2-5.18,6.37-1.53,1.97-3.59,3.71-4.61,6.05-1.66,3.81.35,9.95,4.31,11.46,5.84,2.23,13.08-4.93,16.85-8.56,9.01-8.68,18.91-16.23,28.84-23.73,3.61-2.73,7.27-5.43,10.68-8.44,2.35-2.07,5.91-4.96,5.95-8.46v-.41c-.04-1.9.5-3.26,2.62-2.13,2.71,1.43,4.77,4.03,5.82,6.99s1.11,6.23.41,9.3c-.16.7-.36,1.45-.1,2.12,1.4,3.63,5.76-5.04,6.08-6.19.38-1.33.41-2.74.43-4.13.09-4.66.17-9.38-.96-13.89-.72-2.87-1.33-5.17.22-7.8.56-.95,1.18-1.89,1.79-2.82,1.54-2.36,3.18-4.65,4.83-6.93,4.42-6.09,9.04-12.04,13.68-17.96,9.47-12.05,19.15-23.93,28.91-35.73,2.38-2.88,4.76-5.76,7.16-8.62l10.72-10.66s12.46-.02,6.26-36.92c-6.2-36.9-59.57-23.13-59.57-23.13Z"/>
  </g>
  <g id="Layer_8" data-name="Layer 8">
    <path class="cls-8" d="M798.21,438.52c-1.65-23.93-5.28-47.7-10.12-71.18-8.96-43.45-26.04-87.06-57.86-118.97-14.12-14.16-31.01-25.51-49.45-33.26-20.75-8.72-42.33-11.12-64.66-11.68-17.08-.43-33.58-3.02-50.53-4.81-15.44-1.64-30.98-2.34-46.5-2.06-37.16.68-74.31,6.06-109.93,16.74-55.37,16.61-106.34,46.54-147.4,87.29-6.47,6.42-11.67,13.01-15.73,20.13-5.15,9.02-8.5,18.9-10.37,30.43-4.9,30.12-5.86,61.38-.58,91.48,6.69,38.18,23.73,73.87,50.04,102.44,13.54,14.7,29.98,26.51,47.53,35.96,18.37,9.89,38.02,17.31,58.05,23.09,9.96,2.87,20.03,5.34,30.17,7.46,5.3,17.35,29.25,37.22,116.61,26.44,0,0,11.2-3.52,8.44-14.41,3.47,0,6.94,0,10.41-.05,10.98-.14,21.92-.64,32.88-1.27.35-.02.72-.03,1.01.16.28.19.41.53.53.85,5.07,13.97,12.5,27.46,22.32,38.66,12.8,14.59,30.46,24.21,50.3,21.52.19-.03.45-.09.65-.09,14.71-2.17,29.7-2.43,44.31-5.21,12.3-2.35,23.77-7.37,31.1-17.96,12.23-17.67,13.14-42.2,12.5-62.94-.01-.47-.03-.97.17-1.4.21-.46.62-.8,1.02-1.11,7.23-5.72,13.27-11.78,18.57-19.39,6.09-8.75,10.84-18.4,14.58-28.37,5.38-14.35,8.69-29.44,10.63-44.62,2.7-21.16,2.77-42.61,1.31-63.86Z"/>
    <ellipse class="cls-9" cx="345.66" cy="358.88" rx="136.69" ry="162.37"/>
    <circle class="cls-10" cx="326.69" cy="256.4" r="95.17"/>
    <path class="cls-3" d="M326.1,280.66l.03,1.15-.05-1.15c-30.13,3.54-35.89,16.4-35.89,16.4,0,0,23.48,38.99,29.69,111.66,3.89,45.58,8.48,57.69,11.36,60.38h0s.06.06.15.14c.53.44,1,.57,1.39.54,3.06.14,9.65-6.09,9.88-61.98.3-72.93,20.55-113.7,20.55-113.7,0,0-6.78-12.34-37.1-13.43Z"/>
  </g>
  <g id="Layer_10" data-name="Layer 10">
    <circle class="cls-11" cx="274.55" cy="245.79" r="15.64"/>
    <circle class="cls-5" cx="278.48" cy="242.44" r="7.16"/>
    <circle class="cls-11" cx="378.84" cy="245.79" r="15.64"/>
    <circle class="cls-5" cx="382.76" cy="242.44" r="7.16"/>
  </g>
</svg>