<?xml version="1.0" encoding="UTF-8"?>
<svg xmlns="http://www.w3.org/2000/svg" viewBox="0 0 1024 1024">
  <defs>
    <style>
      .cls-1 {
        fill: #1b1509;
      }

      .cls-2 {
        fill: #f6f6f7;
      }

      .cls-3 {
        mix-blend-mode: screen;
      }

      .cls-3, .cls-4 {
        fill: #00e636;
      }

      .cls-5 {
        fill: #cb7844;
      }

      .cls-6 {
        isolation: isolate;
      }

      .cls-7 {
        fill: #3e2119;
      }
    </style>
  </defs>
  <g class="cls-6">
    <g id="App_Icon_Shape" data-name="App Icon Shape">
      <path class="cls-1" d="M1023.4,295.11c0-.27-.01-.54-.02-.82-.71-26.13-2.25-52.49-6.89-78.34-4.71-26.22-12.4-50.62-24.53-74.44-11.92-23.41-27.49-44.84-46.07-63.41s-40-34.15-63.41-46.07c-23.82-12.12-48.22-19.82-74.44-24.53-25.84-4.65-52.2-6.18-78.34-6.89-11.99-.33-23.99-.46-35.98-.53C679.48,0,665.24,0,651,0h-278C358.76,0,344.52,0,330.27.08c-12,.07-23.99.21-35.98.53-26.13.71-52.49,2.25-78.34,6.89-26.22,4.71-50.62,12.4-74.44,24.53-23.41,11.92-44.84,27.49-63.41,46.07s-34.15,40-46.07,63.41c-12.12,23.82-19.82,48.22-24.53,74.44-4.65,25.84-6.18,52.2-6.89,78.34-.33,11.99-.46,23.99-.53,35.98C0,344.52,0,358.76,0,373v278c0,14.24,0,28.48.08,42.73.07,12,.21,23.99.53,35.98.71,26.13,2.25,52.49,6.89,78.34,4.71,26.22,12.4,50.62,24.53,74.44,11.92,23.41,27.49,44.84,46.07,63.41s40,34.15,63.41,46.07c23.82,12.12,48.22,19.82,74.44,24.53,25.84,4.65,52.2,6.18,78.34,6.89,11.99.33,23.99.46,35.98.53,14.24.09,28.48.08,42.73.08h278c14.24,0,28.48,0,42.73-.08,12-.07,23.99-.21,35.98-.53,26.13-.71,52.49-2.25,78.34-6.89,26.22-4.71,50.62-12.4,74.44-24.53,23.41-11.92,44.84-27.49,63.41-46.07s34.15-40,46.07-63.41c12.12-23.82,19.82-48.22,24.53-74.44,4.65-25.84,6.18-52.2,6.89-78.34,0-.27.01-.54.02-.82v-433.79Z"/>
    </g>
    <g id="Green_Button" data-name="Green Button">
      <circle class="cls-4" cx="512" cy="512.89" r="201.26"/>
      <circle class="cls-3" cx="515.83" cy="512" r="185.79"/>
      <path class="cls-2" d="M468.97,409.77l144.8,72.55c25.32,12.69,25.29,48.83-.05,61.47l-144.8,72.24c-22.85,11.4-49.7-5.22-49.7-30.75v-144.8c0-25.56,26.91-42.17,49.76-30.72Z"/>
    </g>
    <g id="Layer_16" data-name="Layer 16">
      <path class="cls-7" d="M656.36,9.39l-47.55,174.35s-34.87,42.27,13.74,215.56c48.61,173.3-135.26,95.1-135.26,95.1,0,0-22.58-9.56-14.13-23.3,8.45-13.74,24.24,5.34,60.92-6.29,36.68-11.62,10.27-97.21,10.27-97.21,0,0-7.4-17.96-30.64,12.68-23.25,30.64-35.93,16.91-35.93,16.91,0,0-17.96-6.26,34.87-88.72,0,0-31.7-23.29-28.53-67.67,3.17-44.38,34.87-244.09,34.87-244.09l137.37,12.68Z"/>
      <polyline class="cls-5" points="720.23 -2.19 697.93 142.05 674.52 69.93 645.53 229.76 628.81 146.28 605.4 302.71 584.22 241.38 561.92 263.57 546.31 220.25 529.59 226.59 509.52 201.22 477.19 210.74 491.69 145.22 453.78 173.75 498.37 84.99 466.04 104.01 503.95 32.16 469.39 48.01 506.18 -3.29 720.23 -2.19 506.18 -3.29"/>
    </g>
  </g>
</svg>