<?xml version="1.0" encoding="UTF-8"?>
<svg xmlns="http://www.w3.org/2000/svg" viewBox="0 0 1024 1024">
  <defs>
    <style>
      .cls-1 {
        fill: #f6f6f7;
      }

      .cls-2 {
        fill: lime;
      }

      .cls-3 {
        fill: #cb7844;
      }

      .cls-4 {
        isolation: isolate;
      }

      .cls-5 {
        mix-blend-mode: screen;
      }

      .cls-6 {
        fill: #00e636;
      }

      .cls-7 {
        fill: #3e2119;
      }
    </style>
  </defs>
  <g class="cls-4">
    <g id="App_Icon_Shape" data-name="App Icon Shape">
      <g class="cls-5">
        <g>
          <path class="cls-6" d="M368.1,1001.5c-13.36,0-25.42,0-37.68-.08-14.21-.08-25.16-.24-35.52-.52-22.45-.61-48.92-1.86-74.97-6.55-25.11-4.51-47.42-11.85-68.21-22.43-21.33-10.86-40.75-24.96-57.71-41.92s-31.06-36.38-41.92-57.71c-10.58-20.79-17.92-43.1-22.44-68.21-4.68-26.05-5.94-52.52-6.55-74.97-.28-10.25-.44-21.54-.52-35.5-.08-13.35-.08-26.94-.08-40.08v-283.03c0-13.14,0-26.74.08-40.07.08-13.98.25-25.26.52-35.52.61-22.45,1.86-48.91,6.55-74.97,4.51-25.11,11.85-47.42,22.44-68.21,10.86-21.33,24.96-40.75,41.92-57.71,16.96-16.96,36.38-31.06,57.71-41.92,20.79-10.58,43.1-17.92,68.21-22.44,26.05-4.68,52.52-5.94,74.97-6.55,10.25-.28,21.53-.44,35.5-.52,12.28-.08,24.33-.08,37.7-.08h287.8c13.36,0,25.42,0,37.68.08,13.99.08,25.27.25,35.52.52,22.45.61,48.91,1.86,74.97,6.55,25.11,4.51,47.42,11.85,68.21,22.44,21.34,10.86,40.75,24.96,57.71,41.92s31.06,36.38,41.92,57.71c10.58,20.79,17.92,43.1,22.43,68.21,4.68,26.05,5.94,52.51,6.55,74.97v.46s0,433.28,0,433.28v.52c-.62,22.4-1.87,48.86-6.56,74.91-4.51,25.11-11.85,47.42-22.43,68.21-10.86,21.33-24.96,40.75-41.92,57.71-16.96,16.96-36.38,31.06-57.71,41.92-20.79,10.58-43.1,17.92-68.21,22.43-26.05,4.68-52.51,5.94-74.97,6.55-10.35.28-21.3.44-35.5.52-12.28.08-24.33.08-37.7.08h-287.8Z"/>
          <path class="cls-2" d="M655.99,45c13.29,0,25.29,0,37.48.08,13.82.08,24.95.24,35.02.52,21.61.59,47.02,1.78,71.6,6.2,22.91,4.12,43.18,10.77,61.99,20.34,19.23,9.79,36.72,22.5,52.01,37.78,15.28,15.28,28,32.78,37.78,52.01,9.57,18.8,16.22,39.08,20.34,61.99,4.42,24.58,5.61,49.99,6.2,71.59v.12s0,432.75,0,432.75v.12c-.59,21.61-1.78,47.02-6.2,71.6-4.12,22.91-10.77,43.18-20.34,61.99-9.79,19.23-22.5,36.72-37.78,52.01-15.28,15.28-32.78,28-52.01,37.78-18.8,9.57-39.08,16.22-61.99,20.34-24.58,4.42-49.99,5.61-71.59,6.2-10.07.27-21.2.44-35.05.52-12.16.08-24.16.08-37.45.08h-287.98c-13.29,0-25.29,0-37.48-.08-13.82-.08-24.95-.24-35.02-.52-21.61-.59-47.02-1.78-71.6-6.2-22.91-4.12-43.18-10.77-61.99-20.34-19.23-9.79-36.72-22.5-52.01-37.78-15.28-15.28-28-32.78-37.78-52.01-9.57-18.8-16.22-39.08-20.34-61.99-4.42-24.58-5.61-49.99-6.2-71.59-.27-10.07-.44-21.2-.52-35.05-.08-13.27-.08-26.83-.08-39.94v-282.99c0-13.11,0-26.68.08-39.97.08-13.82.24-24.95.52-35.02.59-21.61,1.78-47.02,6.2-71.6,4.12-22.91,10.77-43.18,20.34-61.99,9.79-19.23,22.5-36.72,37.78-52.01,15.28-15.28,32.78-28,52.01-37.78,18.8-9.57,39.08-16.22,61.99-20.34,24.58-4.42,49.99-5.61,71.59-6.2,10.07-.27,21.2-.44,35.05-.52,12.16-.08,24.16-.08,37.45-.08h287.98M655.99,0c-1.66,0-3.33,0-4.99,0h-278c-1.66,0-3.33,0-4.99,0-12.58,0-25.16,0-37.73.08-12,.07-23.99.21-35.98.53-26.13.71-52.49,2.25-78.34,6.89-26.22,4.71-50.62,12.4-74.44,24.53-23.41,11.92-44.84,27.49-63.41,46.07-18.58,18.58-34.15,40-46.07,63.41-12.12,23.82-19.82,48.22-24.53,74.44-4.65,25.84-6.18,52.2-6.89,78.34-.32,11.99-.46,23.99-.53,35.98C0,344.52,0,358.76,0,373v278c0,14.24,0,28.48.08,42.73.07,12,.21,23.99.53,35.98.71,26.13,2.25,52.49,6.89,78.34,4.71,26.22,12.4,50.62,24.53,74.44,11.92,23.41,27.49,44.84,46.07,63.41,18.58,18.58,40,34.15,63.41,46.07,23.82,12.12,48.22,19.82,74.44,24.53,25.84,4.65,52.2,6.18,78.34,6.89,11.99.33,23.99.46,35.98.53,12.58.08,25.16.08,37.73.08h287.98c12.58,0,25.16,0,37.73-.08,12-.07,23.99-.21,35.98-.53,26.13-.71,52.49-2.25,78.34-6.89,26.22-4.71,50.62-12.4,74.44-24.53,23.41-11.92,44.84-27.49,63.41-46.07,18.58-18.58,34.15-40,46.07-63.41,12.12-23.82,19.82-48.22,24.53-74.44,4.65-25.84,6.18-52.2,6.89-78.34,0-.27.01-.54.02-.82v-433.79c0-.27-.01-.54-.02-.82-.71-26.13-2.25-52.49-6.89-78.34-4.71-26.22-12.4-50.62-24.53-74.44-11.92-23.41-27.49-44.84-46.07-63.41-18.58-18.58-40-34.15-63.41-46.07-23.82-12.12-48.22-19.82-74.44-24.53-25.84-4.65-52.2-6.18-78.34-6.89-11.99-.32-23.99-.46-35.98-.53C681.15,0,668.57,0,655.99,0h0Z"/>
        </g>
      </g>
    </g>
    <g id="Green_Button" data-name="Green Button">
      <path class="cls-1" d="M395,497.69l305.92,153.29c53.49,26.8,53.42,103.16-.11,129.87l-305.92,152.63c-48.27,24.08-105.01-11.02-105.01-64.96v-305.92c0-54,56.85-89.1,105.13-64.91Z"/>
    </g>
    <g id="Layer_16" data-name="Layer 16">
      <path class="cls-7" d="M393.44,496.97c4.73-22.71,15.87-58.82,39.87-116.1,0,0-36.01-40.45-32.41-117.53,3.6-77.08,52.55-241.13,52.55-241.13l161.67-.07-72.56,142.1s-39.62,73.41,15.61,374.39c55.22,300.98-153.66,165.17-153.66,165.17,0,0-25.66-16.61-16.05-40.47,9.6-23.86,27.54,9.27,69.21-10.92,41.68-20.19,11.66-168.84,11.66-168.84,0,0-8.4-31.2-34.81,22.02-1.65,3.33-3.43,6.71-4.99,9.45"/>
      <polyline class="cls-3" points="714.61 -.5 684.26 195.82 652.4 97.66 612.94 315.2 590.18 201.58 558.32 414.49 529.49 331.02 499.14 361.22 477.9 302.25 455.14 310.88 427.82 276.36 383.82 289.31 403.54 200.14 351.95 238.97 412.65 118.16 368.64 144.05 420.24 46.25 373.2 67.82 423.27 -2 714.61 -.5 423.27 -2"/>
    </g>
  </g>
</svg>