<?xml version="1.0" encoding="UTF-8"?>
<svg xmlns="http://www.w3.org/2000/svg" xmlns:xlink="http://www.w3.org/1999/xlink" viewBox="0 0 1024 1024">
  <defs>
    <style>
      .cls-1 {
        fill: url(#linear-gradient-4);
      }

      .cls-2 {
        fill: url(#linear-gradient-3);
      }

      .cls-3 {
        fill: url(#linear-gradient-2);
      }

      .cls-4 {
        fill: url(#linear-gradient);
      }

      .cls-5 {
        isolation: isolate;
      }

      .cls-6 {
        mix-blend-mode: screen;
      }
    </style>
    <linearGradient id="linear-gradient" x1="511.7" y1="0" x2="511.7" y2="1024" gradientUnits="userSpaceOnUse">
      <stop offset="0" stop-color="#00efb8"/>
      <stop offset=".03" stop-color="#00eeac"/>
      <stop offset=".13" stop-color="#00eb82"/>
      <stop offset=".23" stop-color="#00e860"/>
      <stop offset=".33" stop-color="#00e749"/>
      <stop offset=".41" stop-color="#00e63a"/>
      <stop offset=".49" stop-color="#00e636"/>
      <stop offset=".59" stop-color="#00ce30"/>
      <stop offset=".81" stop-color="#009122"/>
      <stop offset="1" stop-color="#005915"/>
    </linearGradient>
    <linearGradient id="linear-gradient-2" x1="516.05" y1="807.66" x2="516.05" y2="429.96" gradientUnits="userSpaceOnUse">
      <stop offset="0" stop-color="#f6f6f7"/>
      <stop offset=".23" stop-color="#f3f3f4"/>
      <stop offset=".39" stop-color="#e9e9ea"/>
      <stop offset=".53" stop-color="#dadadb"/>
      <stop offset=".66" stop-color="#c4c4c5"/>
      <stop offset=".78" stop-color="#a7a7a8"/>
      <stop offset=".9" stop-color="#858586"/>
      <stop offset="1" stop-color="#5f5f60"/>
    </linearGradient>
    <linearGradient id="linear-gradient-3" x1="529.21" y1="640" x2="529.21" y2="0" gradientUnits="userSpaceOnUse">
      <stop offset="0" stop-color="#3e2119"/>
      <stop offset=".12" stop-color="#5f1e16"/>
      <stop offset="1" stop-color="#000"/>
    </linearGradient>
    <linearGradient id="linear-gradient-4" x1="355.94" y1="184.37" x2="718.59" y2="184.37" gradientUnits="userSpaceOnUse">
      <stop offset="0" stop-color="#cb7844"/>
      <stop offset=".24" stop-color="#cb7a47"/>
      <stop offset=".43" stop-color="#ce8151"/>
      <stop offset=".61" stop-color="#d38e62"/>
      <stop offset=".78" stop-color="#da9f7a"/>
      <stop offset=".94" stop-color="#e3b699"/>
      <stop offset="1" stop-color="#e7c0a7"/>
    </linearGradient>
  </defs>
  <g class="cls-5">
    <g id="App_Icon_Shape" data-name="App Icon Shape">
      <g class="cls-6">
        <path class="cls-4" d="M1023.4,295.11c0-.27-.01-.54-.02-.82-.71-26.13-2.25-52.49-6.89-78.34-4.71-26.22-12.4-50.62-24.53-74.44-11.92-23.41-27.49-44.84-46.07-63.41s-40-34.15-63.41-46.07c-23.82-12.12-48.22-19.82-74.44-24.53-25.84-4.65-52.2-6.18-78.34-6.89-11.99-.33-23.99-.46-35.98-.53C679.48,0,665.24,0,651,0h-278C358.76,0,344.52,0,330.27.08c-12,.07-23.99.21-35.98.53-26.13.71-52.49,2.25-78.34,6.89-26.22,4.71-50.62,12.4-74.44,24.53-23.41,11.92-44.84,27.49-63.41,46.07s-34.15,40-46.07,63.41c-12.12,23.82-19.82,48.22-24.53,74.44-4.65,25.84-6.18,52.2-6.89,78.34-.33,11.99-.46,23.99-.53,35.98C0,344.52,0,358.76,0,373v278c0,14.24,0,28.48.08,42.73.07,12,.21,23.99.53,35.98.71,26.13,2.25,52.49,6.89,78.34,4.71,26.22,12.4,50.62,24.53,74.44,11.92,23.41,27.49,44.84,46.07,63.41s40,34.15,63.41,46.07c23.82,12.12,48.22,19.82,74.44,24.53,25.84,4.65,52.2,6.18,78.34,6.89,11.99.33,23.99.46,35.98.53,14.24.09,28.48.08,42.73.08h278c14.24,0,28.48,0,42.73-.08,12-.07,23.99-.21,35.98-.53,26.13-.71,52.49-2.25,78.34-6.89,26.22-4.71,50.62-12.4,74.44-24.53,23.41-11.92,44.84-27.49,63.41-46.07s34.15-40,46.07-63.41c12.12-23.82,19.82-48.22,24.53-74.44,4.65-25.84,6.18-52.2,6.89-78.34,0-.27.01-.54.02-.82v-433.79Z"/>
      </g>
    </g>
    <g id="Green_Button" data-name="Green Button">
      <path class="cls-3" d="M415.25,436.48l256.03,128.29c44.76,22.43,44.71,86.34-.09,108.69l-256.03,127.74c-40.4,20.15-87.89-9.22-87.89-54.37v-256.03c0-45.19,47.58-74.57,87.98-54.32Z"/>
    </g>
    <g id="Layer_16" data-name="Layer 16">
      <path class="cls-2" d="M404.12,432.16c4.73-20.69,15.75-53.09,39.76-105.29,0,0-36.01-36.86-32.41-107.09C415.06,149.55,464.01.07,464.01.07L625.67,0l11.52,68.81s-90.4,117.66,6.86,388.26c95.24,264.98-228.99,164.06-228.99,164.06,0,0-25.66-15.13-16.05-36.87,9.6-21.74,27.54,8.44,69.21-9.95,41.68-18.4,11.66-153.85,11.66-153.85,0,0-8.4-28.43-34.81,20.07-1.65,3.03-3.16,5.97-4.72,8.48l-36.24-16.84Z"/>
      <polyline class="cls-1" points="704.28 .15 688.24 175.14 656.38 88.23 616.93 280.82 604.26 241.99 562.3 368.73 533.47 294.83 503.12 321.57 481.88 269.36 459.12 277 431.81 246.44 387.8 257.9 407.53 178.96 355.94 213.34 416.63 106.38 372.63 129.3 424.22 42.71 377.18 61.81 427.25 0 718.59 1.32 427.25 0"/>
    </g>
  </g>
</svg>