<?xml version="1.0" encoding="UTF-8"?>
<svg xmlns="http://www.w3.org/2000/svg" viewBox="0 0 1024 1024">
  <defs>
    <style>
      .cls-1, .cls-2 {
        fill: #f6f6f7;
      }

      .cls-3 {
        fill: #fff;
      }

      .cls-4, .cls-2 {
        stroke: #fff;
        stroke-miterlimit: 10;
        stroke-width: 5px;
      }
    </style>
  </defs>
  <g id="App_Icon_Shape" data-name="App Icon Shape">
    <path d="M1023.4,295.11c0-.27-.01-.54-.02-.82-.71-26.13-2.25-52.49-6.89-78.34-4.71-26.22-12.4-50.62-24.53-74.44-11.92-23.41-27.49-44.84-46.07-63.41s-40-34.15-63.41-46.07c-23.82-12.12-48.22-19.82-74.44-24.53-25.84-4.65-52.2-6.18-78.34-6.89-11.99-.33-23.99-.46-35.98-.53C679.48,0,665.24,0,651,0h-278C358.76,0,344.52,0,330.27.08c-12,.07-23.99.21-35.98.53-26.13.71-52.49,2.25-78.34,6.89-26.22,4.71-50.62,12.4-74.44,24.53-23.41,11.92-44.84,27.49-63.41,46.07s-34.15,40-46.07,63.41c-12.12,23.82-19.82,48.22-24.53,74.44-4.65,25.84-6.18,52.2-6.89,78.34-.33,11.99-.46,23.99-.53,35.98C0,344.52,0,358.76,0,373v278c0,14.24,0,28.48.08,42.73.07,12,.21,23.99.53,35.98.71,26.13,2.25,52.49,6.89,78.34,4.71,26.22,12.4,50.62,24.53,74.44,11.92,23.41,27.49,44.84,46.07,63.41s40,34.15,63.41,46.07c23.82,12.12,48.22,19.82,74.44,24.53,25.84,4.65,52.2,6.18,78.34,6.89,11.99.33,23.99.46,35.98.53,14.24.09,28.48.08,42.73.08h278c14.24,0,28.48,0,42.73-.08,12-.07,23.99-.21,35.98-.53,26.13-.71,52.49-2.25,78.34-6.89,26.22-4.71,50.62-12.4,74.44-24.53,23.41-11.92,44.84-27.49,63.41-46.07s34.15-40,46.07-63.41c12.12-23.82,19.82-48.22,24.53-74.44,4.65-25.84,6.18-52.2,6.89-78.34,0-.27.01-.54.02-.82v-433.79Z"/>
  </g>
  <g id="Clipboard">
    <g>
      <rect class="cls-4" x="215.74" y="178.07" width="591.32" height="717.93" rx="70.73" ry="70.73"/>
      <path class="cls-2" d="M687.21,253.75l-46.87-1.67-2.79-32.92-66.4-22.88-27.65-35.47c4-6,6.34-13.2,6.34-20.96,0-20.9-16.94-37.84-37.84-37.84s-37.84,16.94-37.84,37.84c0,7.75,2.34,14.96,6.34,20.96l-27.65,35.47-66.4,22.88-2.79,32.92-46.87,1.67-6.7,30.13h363.82l-6.7-30.13ZM512,159.87c-13.09,0-23.7-10.61-23.7-23.7s10.61-23.7,23.7-23.7,23.7,10.61,23.7,23.7-10.61,23.7-23.7,23.7Z"/>
    </g>
  </g>
  <g id="ears">
    <g>
      <path class="cls-4" d="M425.87,141.33c7.42-21.13-13.72-45.72-35.03-38.84-34.13,11.01-73.16,65.31-38.73,95.58,41.11,36.15,73.73-56.64,73.76-56.74Z"/>
      <path class="cls-4" d="M596.93,141.33c-7.42-21.13,13.72-45.72,35.03-38.84,34.13,11.01,73.16,65.31,38.73,95.58-41.11,36.15-73.73-56.64-73.76-56.74Z"/>
    </g>
  </g>
  <g id="eyes">
    <ellipse class="cls-4" cx="459.76" cy="206.43" rx="42.58" ry="25.01" transform="translate(87.25 545.88) rotate(-66.52)"/>
    <ellipse class="cls-4" cx="564.24" cy="206.43" rx="25.01" ry="42.58" transform="translate(-35.53 241.89) rotate(-23.48)"/>
  </g>
  <g id="Nose">
    <path class="cls-4" d="M542.63,262.62c-4.34-2.78-8.79-2.01-13.66-1.59-2.87.25-5.74.49-8.6.74-1.38.12-2.75.24-4.13.36-1.1.1-3.11-.11-4.23.29-1.12-.4-3.13-.19-4.23-.29-1.38-.12-2.75-.24-4.13-.36-2.87-.25-5.74-.49-8.6-.74-4.88-.42-9.32-1.19-13.66,1.59-5.97,3.82-3.96,12.04-.97,17.77,5.99,10.49,31.6,17.76,31.6,17.76,0-.01,0-.02,0-.03,0,.01,0,.02,0,.03,0,0,25.61-7.28,31.6-17.76,2.99-5.73,5-13.95-.97-17.77Z"/>
  </g>
  <g id="Body">
    <ellipse class="cls-3" cx="512" cy="566.05" rx="182.8" ry="201.95"/>
  </g>
  <g id="Feet">
    <g>
      <g>
        <circle cx="386.22" cy="768" r="70.06"/>
        <circle class="cls-1" cx="340.47" cy="755.46" r="11.44"/>
        <circle class="cls-1" cx="370.59" cy="731.81" r="12.21"/>
        <circle class="cls-1" cx="406.03" cy="734.49" r="11.44"/>
        <circle class="cls-1" cx="431.58" cy="768" r="14.1"/>
      </g>
      <g>
        <circle cx="636.58" cy="768" r="70.06"/>
        <circle class="cls-1" cx="682.34" cy="755.46" r="11.44"/>
        <circle class="cls-1" cx="652.21" cy="731.81" r="12.21"/>
        <circle class="cls-1" cx="616.77" cy="734.49" r="11.44"/>
        <circle class="cls-1" cx="591.23" cy="768" r="14.1"/>
      </g>
    </g>
  </g>
</svg>