<?xml version="1.0" encoding="UTF-8"?>
<svg xmlns="http://www.w3.org/2000/svg" viewBox="0 0 1024 1024">
  <defs>
    <style>
      .cls-1 {
        fill: #f6f6f7;
      }

      .cls-2, .cls-3 {
        fill: #fff;
      }

      .cls-4, .cls-3 {
        stroke: #fff;
        stroke-miterlimit: 10;
        stroke-width: 5px;
      }
    </style>
  </defs>
  <g id="App_Icon_Shape" data-name="App Icon Shape">
    <g>
      <path d="M1024,296c0-.27-.01-.54-.02-.82-.71-26.13-2.25-52.49-6.89-78.34-4.71-26.22-12.4-50.62-24.53-74.44-11.92-23.41-27.49-44.84-46.07-63.41s-40-34.15-63.41-46.07c-23.82-12.12-48.22-19.82-74.44-24.53-25.84-4.65-52.2-6.18-78.34-6.89-11.99-.33-23.99-.46-35.98-.53-14.24-.09-28.48-.08-42.73-.08h-278c-14.24,0-28.48,0-42.73.08-12,.07-23.99.21-35.98.53-26.13.71-52.49,2.25-78.34,6.89-26.22,4.71-50.62,12.4-74.44,24.53-23.41,11.92-44.84,27.49-63.41,46.07s-34.15,40-46.07,63.41c-12.12,23.82-19.82,48.22-24.53,74.44-4.65,25.84-6.18,52.2-6.89,78.34-.33,11.99-.46,23.99-.53,35.98-.09,14.24-.08,28.48-.08,42.73v278c0,14.24,0,28.48.08,42.73.07,12,.21,23.99.53,35.98.71,26.13,2.25,52.49,6.89,78.34,4.71,26.22,12.4,50.62,24.53,74.44,11.92,23.41,27.49,44.84,46.07,63.41s40,34.15,63.41,46.07c23.82,12.12,48.22,19.82,74.44,24.53,25.84,4.65,52.2,6.18,78.34,6.89,11.99.33,23.99.46,35.98.53,14.24.09,28.48.08,42.73.08h278c14.24,0,28.48,0,42.73-.08,12-.07,23.99-.21,35.98-.53,26.13-.71,52.49-2.25,78.34-6.89,26.22-4.71,50.62-12.4,74.44-24.53,23.41-11.92,44.84-27.49,63.41-46.07s34.15-40,46.07-63.41c12.12-23.82,19.82-48.22,24.53-74.44,4.65-25.84,6.18-52.2,6.89-78.34,0-.27.01-.54.02-.82v-433.79Z"/>
      <rect x="0" y=".89" width=".6" height="1024"/>
    </g>
  </g>
  <g id="Body">
    <path class="cls-2" d="M395.29,354.14h233.41c60.85,0,110.26,49.41,110.26,110.26v362.98c0,67.65-54.92,122.58-122.58,122.58h-208.77c-67.65,0-122.58-54.92-122.58-122.58v-362.98c0-60.85,49.41-110.26,110.26-110.26Z"/>
    <rect x="306.38" y="473.12" width="350.47" height="28.39" rx="6.86" ry="6.86"/>
    <rect x="306.38" y="514.05" width="289.46" height="28.39" rx="6.86" ry="6.86"/>
    <rect x="306.38" y="554.99" width="241.17" height="28.39" rx="6.86" ry="6.86"/>
    <rect x="306.38" y="595.92" width="211.06" height="28.39" rx="6.86" ry="6.86"/>
  </g>
  <g id="Feet">
    <g>
      <circle cx="285.04" cy="881.61" r="87.19"/>
      <circle class="cls-1" cx="228.09" cy="866" r="14.23"/>
      <circle class="cls-1" cx="265.58" cy="836.58" r="15.2"/>
      <circle class="cls-1" cx="309.69" cy="839.91" r="14.23"/>
      <circle class="cls-1" cx="341.48" cy="881.61" r="17.55"/>
    </g>
    <g>
      <circle cx="738.96" cy="882.99" r="87.19"/>
      <circle class="cls-1" cx="795.91" cy="867.38" r="14.23"/>
      <circle class="cls-1" cx="758.42" cy="837.95" r="15.2"/>
      <circle class="cls-1" cx="714.31" cy="841.29" r="14.23"/>
      <circle class="cls-1" cx="682.52" cy="882.99" r="17.55"/>
    </g>
    <g>
      <circle cx="290.48" cy="402.61" r="63.28"/>
      <circle class="cls-1" cx="253.24" cy="423.83" r="10.33"/>
      <circle class="cls-1" cx="257.38" cy="389.48" r="11.03"/>
      <circle class="cls-1" cx="281.73" cy="368.55" r="10.33"/>
      <circle class="cls-1" cx="319.45" cy="373.64" r="12.74"/>
    </g>
    <g>
      <circle cx="744.41" cy="402.61" r="63.28"/>
      <circle class="cls-1" cx="781.65" cy="423.83" r="10.33"/>
      <circle class="cls-1" cx="777.51" cy="389.48" r="11.03"/>
      <circle class="cls-1" cx="753.16" cy="368.55" r="10.33"/>
      <circle class="cls-1" cx="715.44" cy="373.64" r="12.74"/>
    </g>
  </g>
  <g id="Clipboard">
    <path class="cls-2" d="M851.97,149.85c30.02,0,58.33,11.78,79.73,33.18,21.4,21.4,33.18,49.71,33.18,79.73v484.51c0,30.23-5.97,59.61-17.74,87.33-11.38,26.78-27.65,50.86-48.37,71.58-20.72,20.72-44.8,36.99-71.58,48.37-27.72,11.77-57.1,17.74-87.33,17.74h-441.85c-32.09,0-63.28-6.34-92.71-18.84-28.43-12.08-53.99-29.35-75.98-51.35-21.99-21.99-39.27-47.56-51.35-75.98-12.5-29.42-18.84-60.61-18.84-92.71v-470.66c0-30.02,11.78-58.33,33.18-79.73,21.4-21.4,49.71-33.18,79.73-33.18h679.93M851.97,133.85H172.03c-70.9,0-128.91,58.01-128.91,128.91v470.66c0,140.18,114.69,254.87,254.87,254.87h441.85c132.57,0,241.03-108.46,241.03-241.03v-484.51c0-70.9-58.01-128.91-128.91-128.91h0Z"/>
  </g>
  <g id="Head">
    <path class="cls-3" d="M808.89,256.71l-57.37-1.8c-8-.25-14.69-8.82-15.79-20.22l-1.42-14.74c-.94-9.8-6.06-17.69-12.79-19.73l-101.82-30.82c-2.44-.74-4.73-2.28-6.7-4.49l-33.09-37.31c-6.18-6.97-7.86-19.21-4.32-29.3,1.91-5.44,2.94-11.21,2.94-17.2,0-32.29-29.79-58.46-66.53-58.46s-66.53,26.17-66.53,58.46c0,5.99,1.03,11.77,2.94,17.2,3.54,10.09,1.87,22.33-4.32,29.3l-33.09,37.31c-1.96,2.21-4.26,3.75-6.7,4.49l-101.81,30.82c-6.73,2.04-11.85,9.93-12.79,19.73l-1.42,14.74c-1.1,11.4-7.79,19.97-15.79,20.22l-57.37,1.8c-6.72.21-12.67,6.34-14.97,15.43h0c-3.87,15.3,4.01,31.47,15.32,31.47h593.08c11.32,0,19.19-16.17,15.32-31.47h0c-2.3-9.09-8.24-15.22-14.97-15.43ZM512,112.03c-23.02,0-41.68-16.4-41.68-36.62s18.66-36.62,41.68-36.62,41.67,16.4,41.67,36.62-18.66,36.62-41.67,36.62Z"/>
    <g>
      <path class="cls-4" d="M425.87,141.33c7.42-21.13-13.72-45.72-35.03-38.84-34.13,11.01-73.16,65.31-38.73,95.58,41.11,36.15,73.73-56.64,73.76-56.74Z"/>
      <path class="cls-4" d="M596.93,141.33c-7.42-21.13,13.72-45.72,35.03-38.84,34.13,11.01,73.16,65.31,38.73,95.58-41.11,36.15-73.73-56.64-73.76-56.74Z"/>
    </g>
    <ellipse class="cls-4" cx="459.76" cy="206.43" rx="58.75" ry="34.51" transform="translate(87.25 545.88) rotate(-66.52)"/>
    <ellipse class="cls-2" cx="466.96" cy="189.87" rx="28.25" ry="16.59" transform="translate(106.76 542.52) rotate(-66.52)"/>
    <ellipse class="cls-2" cx="628.21" cy="153.87" rx="22.27" ry="37.92" transform="translate(-9.29 263.03) rotate(-23.48)"/>
    <ellipse class="cls-2" cx="394.6" cy="153.87" rx="37.92" ry="22.27" transform="translate(96.25 454.49) rotate(-66.52)"/>
    <ellipse class="cls-4" cx="564.24" cy="206.43" rx="32.85" ry="55.94" transform="translate(-35.53 241.89) rotate(-23.48)"/>
    <ellipse class="cls-2" cx="557.04" cy="189.87" rx="16.59" ry="28.25" transform="translate(-29.53 237.65) rotate(-23.48)"/>
    <ellipse cx="459.76" cy="208.52" rx="26.09" ry="10.7" transform="translate(113.98 576.35) rotate(-71.17)"/>
    <ellipse cx="562.8" cy="206.43" rx="10.7" ry="26.09" transform="translate(-36.51 192.74) rotate(-18.83)"/>
    <path d="M514.32,291.17h0c-17.99,0-32.7-14.72-32.7-32.7h0c0-6.6,5.4-12,12-12h41.41c6.6,0,12,5.4,12,12h0c0,17.99-14.72,32.7-32.7,32.7Z"/>
    <ellipse class="cls-2" cx="536.19" cy="290.3" rx="5.5" ry="13.4" transform="translate(-65.01 188.64) rotate(-18.83)"/>
    <ellipse class="cls-2" cx="494.3" cy="290.3" rx="13.4" ry="5.5" transform="translate(59.97 664.42) rotate(-71.17)"/>
  </g>
</svg>