<?xml version="1.0" encoding="UTF-8"?>
<svg xmlns="http://www.w3.org/2000/svg" viewBox="0 0 1024 1024">
  <defs>
    <style>
      .cls-1 {
        fill: #f6f6f7;
      }

      .cls-2, .cls-3 {
        fill: #fff;
      }

      .cls-4, .cls-3 {
        stroke: #fff;
        stroke-miterlimit: 10;
        stroke-width: 5px;
      }
    </style>
  </defs>
  <g id="App_Icon_Shape" data-name="App Icon Shape">
    <g>
      <path d="M1024,296c0-.27-.01-.54-.02-.82-.71-26.13-2.25-52.49-6.89-78.34-4.71-26.22-12.4-50.62-24.53-74.44-11.92-23.41-27.49-44.84-46.07-63.41s-40-34.15-63.41-46.07c-23.82-12.12-48.22-19.82-74.44-24.53-25.84-4.65-52.2-6.18-78.34-6.89-11.99-.33-23.99-.46-35.98-.53-14.24-.09-28.48-.08-42.73-.08h-278c-14.24,0-28.48,0-42.73.08-12,.07-23.99.21-35.98.53-26.13.71-52.49,2.25-78.34,6.89-26.22,4.71-50.62,12.4-74.44,24.53-23.41,11.92-44.84,27.49-63.41,46.07s-34.15,40-46.07,63.41c-12.12,23.82-19.82,48.22-24.53,74.44-4.65,25.84-6.18,52.2-6.89,78.34-.33,11.99-.46,23.99-.53,35.98-.09,14.24-.08,28.48-.08,42.73v278c0,14.24,0,28.48.08,42.73.07,12,.21,23.99.53,35.98.71,26.13,2.25,52.49,6.89,78.34,4.71,26.22,12.4,50.62,24.53,74.44,11.92,23.41,27.49,44.84,46.07,63.41s40,34.15,63.41,46.07c23.82,12.12,48.22,19.82,74.44,24.53,25.84,4.65,52.2,6.18,78.34,6.89,11.99.33,23.99.46,35.98.53,14.24.09,28.48.08,42.73.08h278c14.24,0,28.48,0,42.73-.08,12-.07,23.99-.21,35.98-.53,26.13-.71,52.49-2.25,78.34-6.89,26.22-4.71,50.62-12.4,74.44-24.53,23.41-11.92,44.84-27.49,63.41-46.07s34.15-40,46.07-63.41c12.12-23.82,19.82-48.22,24.53-74.44,4.65-25.84,6.18-52.2,6.89-78.34,0-.27.01-.54.02-.82v-433.79Z"/>
      <rect x="0" y=".89" width=".6" height="1024"/>
    </g>
  </g>
  <g id="Clipboard">
    <path class="cls-2" d="M893.86,149.85c30.34,0,58.97,11.91,80.6,33.54,21.63,21.63,33.54,50.25,33.54,80.6v517.75c0,30.4-6,59.94-17.84,87.81-11.44,26.92-27.8,51.14-48.63,71.97-20.83,20.83-45.05,37.2-71.97,48.64-27.87,11.84-57.41,17.84-87.81,17.84H256.1c-32.26,0-63.61-6.37-93.18-18.93-28.57-12.14-54.27-29.5-76.38-51.61-22.11-22.11-39.47-47.8-51.61-76.38-12.56-29.57-18.93-60.93-18.93-93.18v-503.91c0-30.34,11.91-58.97,33.54-80.6,21.63-21.63,50.25-33.54,80.6-33.54h763.72M893.86,133.85H130.14C58.56,133.85,0,192.41,0,263.99v503.91c0,140.86,115.25,256.1,256.1,256.1h525.64c133.24,0,242.26-109.02,242.26-242.26V263.99c0-71.58-58.56-130.14-130.14-130.14h0Z"/>
  </g>
  <g id="Head">
    <path class="cls-3" d="M939.08,256.71l-82.53-1.8c-11.51-.25-21.14-8.82-22.72-20.22l-2.05-14.74c-1.36-9.8-8.72-17.69-18.4-19.73l-146.46-30.82c-3.51-.74-6.81-2.28-9.64-4.49l-47.6-37.31c-8.9-6.97-11.3-19.21-6.21-29.3,2.74-5.44,4.22-11.21,4.22-17.2,0-32.29-42.85-58.46-95.7-58.46s-95.7,26.17-95.7,58.46c0,5.99,1.48,11.77,4.22,17.2,5.09,10.09,2.68,22.33-6.21,29.3l-47.61,37.31c-2.83,2.21-6.12,3.75-9.64,4.49l-146.46,30.82c-9.68,2.04-17.04,9.93-18.4,19.73l-2.05,14.74c-1.58,11.4-11.21,19.97-22.72,20.22l-82.53,1.8c-9.67.21-18.22,6.34-21.53,15.43h0c-5.56,15.3,5.76,31.47,22.04,31.47h853.15c16.28,0,27.6-16.17,22.04-31.47h0c-3.31-9.09-11.86-15.22-21.53-15.43ZM512,112.03c-33.11,0-59.95-16.4-59.95-36.62s26.84-36.62,59.95-36.62,59.95,16.4,59.95,36.62-26.84,36.62-59.95,36.62Z"/>
    <g>
      <path class="cls-4" d="M425.87,141.33c7.42-21.13-13.72-45.72-35.03-38.84-34.13,11.01-73.16,65.31-38.73,95.58,41.11,36.15,73.73-56.64,73.76-56.74Z"/>
      <path class="cls-4" d="M596.93,141.33c-7.42-21.13,13.72-45.72,35.03-38.84,34.13,11.01,73.16,65.31,38.73,95.58-41.11,36.15-73.73-56.64-73.76-56.74Z"/>
    </g>
    <ellipse class="cls-4" cx="459.76" cy="206.43" rx="58.75" ry="34.51" transform="translate(87.25 545.88) rotate(-66.52)"/>
    <ellipse class="cls-2" cx="466.96" cy="189.87" rx="28.25" ry="16.59" transform="translate(106.76 542.52) rotate(-66.52)"/>
    <ellipse class="cls-2" cx="628.21" cy="153.87" rx="22.27" ry="37.92" transform="translate(-9.29 263.03) rotate(-23.48)"/>
    <ellipse class="cls-2" cx="394.6" cy="153.87" rx="37.92" ry="22.27" transform="translate(96.25 454.49) rotate(-66.52)"/>
    <ellipse class="cls-4" cx="564.24" cy="206.43" rx="32.85" ry="55.94" transform="translate(-35.53 241.89) rotate(-23.48)"/>
    <ellipse class="cls-2" cx="557.04" cy="189.87" rx="16.59" ry="28.25" transform="translate(-29.53 237.65) rotate(-23.48)"/>
    <ellipse cx="459.76" cy="208.52" rx="26.09" ry="10.7" transform="translate(113.98 576.35) rotate(-71.17)"/>
    <ellipse cx="562.8" cy="206.43" rx="10.7" ry="26.09" transform="translate(-36.51 192.74) rotate(-18.83)"/>
    <path d="M514.32,291.17h0c-17.99,0-32.7-14.72-32.7-32.7h0c0-6.6,5.4-12,12-12h41.41c6.6,0,12,5.4,12,12h0c0,17.99-14.72,32.7-32.7,32.7Z"/>
    <ellipse class="cls-2" cx="536.19" cy="290.3" rx="5.5" ry="13.4" transform="translate(-65.01 188.64) rotate(-18.83)"/>
    <ellipse class="cls-2" cx="494.3" cy="290.3" rx="13.4" ry="5.5" transform="translate(59.97 664.42) rotate(-71.17)"/>
  </g>
  <g id="Body">
    <path class="cls-2" d="M395.29,354.14h233.41c60.85,0,110.26,49.41,110.26,110.26v362.98c0,67.65-54.92,122.58-122.58,122.58h-208.77c-67.65,0-122.58-54.92-122.58-122.58v-362.98c0-60.85,49.41-110.26,110.26-110.26Z"/>
    <rect x="301.39" y="452.65" width="350.47" height="28.39" rx="6.86" ry="6.86"/>
    <rect x="301.39" y="493.59" width="289.46" height="28.39" rx="6.86" ry="6.86"/>
    <rect x="301.39" y="534.52" width="241.17" height="28.39" rx="6.86" ry="6.86"/>
    <rect x="301.39" y="575.45" width="211.06" height="28.39" rx="6.86" ry="6.86"/>
  </g>
  <g id="Feet">
    <g>
      <g>
        <circle cx="355.78" cy="910.22" r="87.19"/>
        <circle class="cls-1" cx="298.84" cy="894.61" r="14.23"/>
        <circle class="cls-1" cx="336.33" cy="865.18" r="15.2"/>
        <circle class="cls-1" cx="380.44" cy="868.52" r="14.23"/>
        <circle class="cls-1" cx="412.22" cy="910.22" r="17.55"/>
      </g>
      <g>
        <circle cx="667.36" cy="910.22" r="87.19"/>
        <circle class="cls-1" cx="724.3" cy="894.61" r="14.23"/>
        <circle class="cls-1" cx="686.81" cy="865.18" r="15.2"/>
        <circle class="cls-1" cx="642.7" cy="868.52" r="14.23"/>
        <circle class="cls-1" cx="610.91" cy="910.22" r="17.55"/>
      </g>
    </g>
  </g>
</svg>