<svg xmlns="http://www.w3.org/2000/svg" viewBox="7.77 -76.141 83.83 81.759" aria-hidden="true" data-sf-symbol="bubbles.and.sparkles">
 <g fill="black">
  <path d="M 75.694 3.622 C 76.406 3.622 77.036 3.075 77.152 2.313 C 78.457 -7.08 78.434 -6.913 88.31 -8.811 C 89.056 -8.96 89.604 -9.542 89.604 -10.269 C 89.604 -11.03 89.056 -11.611 88.276 -11.743 C 78.535 -13.221 78.423 -13.271 77.152 -22.818 C 77.07 -23.613 76.44 -24.16 75.694 -24.16 C 74.899 -24.16 74.303 -23.579 74.22 -22.784 C 72.983 -13.425 72.872 -13.591 63.044 -11.743 C 62.283 -11.578 61.769 -10.997 61.769 -10.269 C 61.769 -9.508 62.316 -8.96 63.179 -8.811 C 72.872 -7.183 72.983 -7.113 74.22 2.246 C 74.303 3.041 74.899 3.622 75.694 3.622 Z"/>
  <path d="M 34.507 -52.993 C 35.085 -52.993 35.565 -53.405 35.681 -54.017 C 36.981 -61.217 36.804 -60.965 44.035 -62.371 C 44.68 -62.502 45.059 -62.967 45.059 -63.544 C 45.059 -64.156 44.68 -64.636 44.035 -64.733 C 36.804 -66.158 36.981 -65.92 35.681 -73.121 C 35.565 -73.732 35.085 -74.145 34.507 -74.145 C 33.896 -74.145 33.435 -73.732 33.318 -73.121 C 32.019 -65.92 32.195 -66.158 24.964 -64.733 C 24.319 -64.636 23.922 -64.156 23.922 -63.544 C 23.922 -62.967 24.319 -62.502 24.964 -62.371 C 32.195 -60.965 32.019 -61.217 33.318 -54.017 C 33.435 -53.405 33.896 -52.993 34.507 -52.993 Z"/>
  <path d="M 34.341 2.149 C 40.088 2.149 44.788 -2.599 44.788 -8.38 C 44.788 -14.063 40.073 -18.827 34.341 -18.827 C 28.56 -18.827 23.827 -14.078 23.827 -8.38 C 23.827 -2.599 28.56 2.149 34.341 2.149 Z M 34.341 -2.989 C 31.356 -2.989 28.95 -5.41 28.95 -8.38 C 28.95 -11.282 31.405 -13.703 34.341 -13.703 C 37.228 -13.703 39.649 -11.282 39.649 -8.38 C 39.649 -5.459 37.228 -2.989 34.341 -2.989 Z"/>
  <path d="M 19.529 -32.229 C 24.821 -32.229 29.243 -36.636 29.243 -41.977 C 29.243 -47.319 24.821 -51.692 19.529 -51.692 C 14.157 -51.692 9.766 -47.334 9.766 -41.977 C 9.766 -36.621 14.157 -32.229 19.529 -32.229 Z M 19.529 -37.353 C 16.968 -37.353 14.889 -39.447 14.889 -41.977 C 14.889 -44.523 16.983 -46.602 19.529 -46.602 C 22.025 -46.602 24.12 -44.523 24.12 -41.977 C 24.12 -39.447 22.025 -37.353 19.529 -37.353 Z"/>
  <path d="M 70.154 -34.021 C 79.927 -34.021 87.853 -41.916 87.853 -51.641 C 87.853 -61.414 79.927 -69.321 70.154 -69.321 C 60.366 -69.321 52.474 -61.414 52.474 -51.641 C 52.474 -41.916 60.366 -34.021 70.154 -34.021 Z M 70.154 -39.129 C 63.211 -39.129 57.564 -44.728 57.564 -51.641 C 57.564 -58.633 63.162 -64.231 70.154 -64.231 C 77.131 -64.231 82.73 -58.633 82.73 -51.641 C 82.73 -44.728 77.082 -39.129 70.154 -39.129 Z"/>
  <path d="M 54.903 -22.405 C 62.884 -22.405 69.376 -28.832 69.376 -36.862 C 69.376 -44.874 62.884 -51.316 54.903 -51.316 C 46.906 -51.316 40.43 -44.874 40.43 -36.862 C 40.43 -28.832 46.906 -22.405 54.903 -22.405 Z"/>
  <path d="M 54.903 -27.528 C 49.717 -27.528 45.554 -31.677 45.554 -36.862 C 45.554 -42.063 49.717 -46.227 54.903 -46.227 C 60.073 -46.227 64.252 -42.063 64.252 -36.862 C 64.252 -31.677 60.073 -27.528 54.903 -27.528 Z"/>
 </g>
</svg>
