<svg xmlns="http://www.w3.org/2000/svg" viewBox="7.693 -77.426 87.067 86.811" aria-hidden="true" data-sf-symbol="crop">
 <g fill="black">
  <path d="M 92.687 -13.821 C 92.687 -15.417 91.625 -16.366 90.007 -16.366 L 34.816 -16.366 C 34.073 -16.366 33.78 -16.659 33.78 -17.435 L 33.78 -72.523 C 33.78 -74.176 32.712 -75.353 31.082 -75.353 C 29.433 -75.353 28.369 -74.176 28.369 -72.523 L 28.369 -14.097 C 28.369 -12.382 29.46 -11.276 31.174 -11.276 L 90.007 -11.276 C 91.625 -11.276 92.687 -12.273 92.687 -13.821 Z M 9.766 -54.205 C 9.766 -52.624 10.827 -51.66 12.445 -51.66 L 67.636 -51.66 C 68.413 -51.66 68.706 -51.367 68.706 -50.625 L 68.706 4.498 C 68.706 6.15 69.74 7.312 71.389 7.312 C 73.019 7.312 74.117 6.15 74.117 4.498 L 74.117 -53.978 C 74.117 -55.677 73.026 -56.784 71.311 -56.784 L 12.445 -56.784 C 10.827 -56.784 9.766 -55.787 9.766 -54.205 Z"/>
 </g>
</svg>
