<svg xmlns="http://www.w3.org/2000/svg" viewBox="4.633 -78.353 92.506 87.071" aria-hidden="true" data-sf-symbol="hand.draw">
 <g fill="black">
  <path d="M 9.044 -25.867 C 10.255 -25.901 11.102 -26.831 11.136 -28.057 C 11.405 -41.083 16.599 -52.831 30.093 -60.537 C 31.139 -61.204 31.469 -62.418 30.986 -63.509 C 30.42 -64.548 28.958 -65.013 27.882 -64.316 C 13.333 -56.29 6.836 -42.754 6.836 -28.139 C 6.836 -26.91 7.897 -25.833 9.044 -25.867 Z"/>
  <path d="M 74.316 4.329 C 91.537 -1.913 99.343 -18.097 92.426 -37.395 L 89.708 -45.023 C 86.314 -54.392 79.43 -59.377 71.396 -58.029 C 68.022 -60.499 63.631 -60.484 60.164 -58.918 C 57.574 -60.595 54.81 -60.829 51.996 -60.291 L 49.296 -67.773 C 46.819 -74.585 40.102 -77.739 33.525 -75.368 C 27.023 -72.963 23.743 -66.334 26.273 -59.406 L 32.587 -42.059 C 30.901 -42.985 29.066 -43.081 27.353 -42.509 C 21.431 -40.328 18.005 -34.293 20.253 -28.061 C 20.764 -26.658 21.698 -24.815 23.037 -23.248 L 36.01 -7.551 C 46.644 5.275 59.919 9.581 74.316 4.329 Z"/>
  <path d="M 72.666 -0.225 C 87.438 -5.574 94.013 -19.047 87.887 -35.778 L 85.169 -43.357 C 82.142 -51.628 76.627 -55.004 70.064 -52.702 C 68.314 -55.019 65.573 -55.831 62.606 -54.771 C 61.517 -54.347 60.51 -53.765 59.62 -53.036 C 57.717 -55.521 54.758 -56.434 51.69 -55.307 C 50.834 -54.984 49.961 -54.518 49.187 -53.938 L 44.724 -66.108 C 43.151 -70.481 39.187 -72.308 35.176 -70.845 C 31.119 -69.351 29.238 -65.444 30.811 -61.038 L 41.982 -30.377 C 42.064 -30.182 42.016 -30.02 41.835 -29.938 C 41.689 -29.889 41.561 -29.938 41.448 -30.099 L 36.227 -35.788 C 34.057 -38.135 31.443 -38.841 28.988 -37.955 C 25.584 -36.727 23.436 -33.458 24.826 -29.674 C 25.186 -28.638 25.91 -27.355 26.717 -26.334 L 39.723 -10.604 C 49.085 0.771 60.268 4.3 72.666 -0.225 Z M 71.237 -4.651 C 61.133 -1.007 51.69 -3.1 43.161 -13.393 L 30.136 -29.105 C 29.749 -29.59 29.474 -30.026 29.215 -30.706 C 28.749 -32.026 29.339 -33.507 30.873 -34.056 C 32.136 -34.526 33.193 -34.041 34.238 -32.917 L 43.068 -23.687 C 44.422 -22.269 45.638 -22.107 46.884 -22.55 C 48.295 -23.075 48.945 -24.572 48.355 -26.145 L 34.995 -62.885 C 34.385 -64.552 35.065 -66.127 36.671 -66.707 C 38.296 -67.301 39.762 -66.499 40.372 -64.833 L 49.872 -38.714 C 50.303 -37.54 51.566 -36.984 52.706 -37.431 C 53.828 -37.843 54.4 -39.051 53.988 -40.191 L 50.514 -49.647 C 51.09 -50.211 51.895 -50.726 52.654 -50.985 C 54.586 -51.711 56.166 -50.873 56.937 -48.834 L 59.853 -40.787 C 60.296 -39.507 61.559 -39.091 62.654 -39.488 C 63.733 -39.871 64.412 -41.033 63.936 -42.264 L 61.464 -49.111 C 62.04 -49.642 62.844 -50.19 63.57 -50.45 C 65.502 -51.142 67.082 -50.303 67.853 -48.265 L 69.801 -42.844 C 70.277 -41.613 71.541 -41.148 72.635 -41.546 C 73.681 -41.928 74.36 -43.09 73.917 -44.355 L 72.346 -48.613 C 75.787 -49.85 78.956 -47.187 81.106 -41.222 L 83.483 -34.706 C 88.783 -20.138 83.765 -9.236 71.237 -4.651 Z"/>
 </g>
</svg>
