<svg xmlns="http://www.w3.org/2000/svg" viewBox="6.848 -77.286 79.483 81.332" aria-hidden="true" data-sf-symbol="microphone.dynamic.on.stand">
 <g fill="black">
  <path d="M 47.494 2.11 C 49.336 2.11 50.754 0.677 50.754 -1.135 L 50.754 -29.615 L 62.245 -40.231 C 66.666 -39.606 71.371 -41.437 75.558 -45.623 L 54.647 -66.553 C 50.46 -62.351 48.766 -57.798 49.455 -53.376 L 13.844 -15.053 C 12.443 -13.472 12.279 -11.45 14.143 -9.616 L 9.074 -3.215 C 8.673 -2.698 8.654 -1.926 9.239 -1.308 L 10.362 -0.185 C 10.961 0.381 11.684 0.415 12.284 -0.069 L 18.685 -5.168 C 20.409 -3.29 22.526 -3.438 24.058 -4.873 L 44.2 -23.522 L 44.2 -1.135 C 44.2 0.677 45.666 2.11 47.494 2.11 Z M 17.211 -12.12 L 51.302 -48.346 C 51.967 -47.127 52.787 -45.96 53.848 -44.824 C 54.875 -43.722 55.98 -42.774 57.132 -42.127 L 21.158 -8.157 Z M 58.195 -70.105 L 79.091 -49.19 C 85.928 -55.979 86.172 -64.353 79.724 -70.719 C 73.357 -77.07 65.018 -76.908 58.195 -70.105 Z"/>
 </g>
</svg>
