<svg xmlns="http://www.w3.org/2000/svg" viewBox="9.5 -80.799 57.776 85.422" aria-hidden="true" data-sf-symbol="microphone">
 <g fill="black">
  <path d="M 38.38 -12.152 C 54.407 -12.152 65.242 -22.91 65.242 -38.389 L 65.242 -45.997 C 65.242 -47.443 64.095 -48.575 62.664 -48.575 C 61.251 -48.575 60.119 -47.443 60.119 -45.997 L 60.119 -38.591 C 60.119 -25.653 51.581 -16.905 38.38 -16.905 C 25.195 -16.905 16.657 -25.653 16.657 -38.591 L 16.657 -45.997 C 16.657 -47.443 15.51 -48.575 14.079 -48.575 C 12.681 -48.575 11.534 -47.443 11.534 -45.997 L 11.534 -38.389 C 11.534 -22.91 22.354 -12.152 38.38 -12.152 Z M 24.869 -39.844 C 24.869 -31.3 30.323 -25.243 38.38 -25.243 C 46.419 -25.243 51.907 -31.3 51.907 -39.844 L 51.907 -64.165 C 51.907 -72.709 46.419 -78.765 38.38 -78.765 C 30.323 -78.765 24.869 -72.709 24.869 -64.165 Z M 29.978 -39.844 L 29.978 -64.165 C 29.978 -69.916 33.284 -73.739 38.38 -73.739 C 43.458 -73.739 46.783 -69.916 46.783 -64.165 L 46.783 -39.844 C 46.783 -34.092 43.458 -30.269 38.38 -30.269 C 33.284 -30.269 29.978 -34.092 29.978 -39.844 Z M 21.291 2.589 L 55.47 2.589 C 56.883 2.589 58.015 1.442 58.015 0.01 C 58.015 -1.403 56.883 -2.535 55.47 -2.535 L 21.291 -2.535 C 19.859 -2.535 18.712 -1.403 18.712 0.01 C 18.712 1.442 19.859 2.589 21.291 2.589 Z M 38.38 1.442 C 39.793 1.442 40.925 0.31 40.925 -1.103 L 40.925 -13.344 C 40.925 -14.791 39.793 -15.923 38.38 -15.923 C 36.949 -15.923 35.802 -14.791 35.802 -13.344 L 35.802 -1.103 C 35.802 0.31 36.949 1.442 38.38 1.442 Z"/>
 </g>
</svg>
