<svg xmlns="http://www.w3.org/2000/svg" viewBox="4.552 -75.82 95.911 80.399" aria-hidden="true" data-sf-symbol="paintpalette">
 <g fill="black">
  <path d="M 55.958 2.296 C 71.789 2.296 82.409 -3.246 82.409 -11.426 C 82.409 -18.858 75.918 -20.372 75.918 -25.056 C 75.918 -31.618 98.18 -32.38 98.18 -48.145 C 98.18 -63.42 82.344 -73.536 58.79 -73.536 C 27.75 -73.536 6.836 -58.064 6.836 -34.961 C 6.836 -12.688 26.676 2.296 55.958 2.296 Z M 55.958 -3.468 C 29.805 -3.468 12.585 -16.072 12.585 -34.961 C 12.585 -54.68 30.879 -67.772 58.79 -67.772 C 79.084 -67.772 92.432 -59.852 92.432 -48.145 C 92.432 -34.529 70.068 -36.438 70.068 -24.961 C 70.068 -18.491 76.66 -16.563 76.66 -11.914 C 76.66 -6.768 68.538 -3.468 55.958 -3.468 Z M 52.799 -12.647 C 58.754 -12.647 63.59 -17.531 63.59 -23.486 C 63.59 -29.408 58.754 -34.292 52.799 -34.292 C 46.863 -34.292 41.994 -29.408 41.994 -23.486 C 41.994 -17.531 46.863 -12.647 52.799 -12.647 Z M 52.799 -16.659 C 49.034 -16.659 46.005 -19.687 46.005 -23.486 C 46.005 -27.555 49.168 -30.213 52.732 -30.247 C 56.363 -30.28 59.627 -27.656 59.627 -23.486 C 59.627 -19.687 56.599 -16.659 52.799 -16.659 Z"/>
  <path d="M 25.782 -29.943 C 29.142 -29.943 31.875 -32.743 31.875 -36.133 C 31.875 -39.538 29.172 -42.225 25.782 -42.225 C 22.393 -42.225 19.626 -39.522 19.626 -36.133 C 19.626 -32.743 22.408 -29.943 25.782 -29.943 Z"/>
  <path d="M 39.747 -42.046 C 44.13 -42.046 47.667 -45.516 47.667 -50 C 47.667 -54.386 44.115 -57.856 39.747 -57.856 C 35.282 -57.856 31.695 -54.401 31.695 -50 C 31.695 -45.516 35.282 -42.046 39.747 -42.046 Z"/>
  <path d="M 59.132 -48.312 C 62.612 -48.312 65.409 -51.109 65.409 -54.59 C 65.409 -58.07 62.612 -60.867 59.132 -60.867 C 55.651 -60.867 52.791 -58.055 52.791 -54.59 C 52.791 -51.124 55.651 -48.312 59.132 -48.312 Z"/>
  <path d="M 76.627 -45.883 C 79.364 -45.883 81.575 -48.112 81.575 -50.928 C 81.575 -53.694 79.349 -55.973 76.627 -55.973 C 73.812 -55.973 71.503 -53.694 71.503 -50.928 C 71.503 -48.127 73.797 -45.883 76.627 -45.883 Z"/>
 </g>
</svg>
