<svg xmlns="http://www.w3.org/2000/svg" viewBox="4.247 -66.284 108.457 72.768" aria-hidden="true" data-sf-symbol="pencil.and.scribble">
 <g fill="black">
  <path d="M 7.636 -5.8 C 10.966 5.19 27.597 6.997 45.459 -1.167 C 48.379 -2.527 46.4 -6.307 43.603 -4.964 C 28.498 2.092 14.082 1.104 11.696 -6.993 C 5.642 -26.867 48.045 -29.4 43.239 -45.616 C 40.885 -53.594 22.126 -52.245 8.757 -43.228 C 6.305 -41.639 8.66 -38.156 11.063 -39.828 C 20.985 -46.388 37.871 -48.972 39.243 -44.472 C 40.228 -41.063 37.507 -38.701 26.842 -32.685 C 16.57 -26.937 3.426 -19.567 7.636 -5.8 Z"/>
  <path d="M 60.933 -8.492 L 101.797 -49.273 L 95.608 -55.493 L 54.744 -14.711 L 51.043 -6.464 C 50.683 -5.605 51.606 -4.66 52.45 -4.99 Z M 104.98 -52.407 L 108.645 -55.991 C 110.515 -57.845 110.616 -59.788 108.908 -61.462 L 107.834 -62.57 C 106.19 -64.214 104.201 -64.034 102.392 -62.244 L 98.708 -58.66 Z"/>
 </g>
</svg>
