<svg xmlns="http://www.w3.org/2000/svg" viewBox="3.945 -73.764 109.268 82.483" aria-hidden="true" data-sf-symbol="scissors">
 <g fill="black">
  <path d="M 24.921 -71.162 C 16.502 -71.162 9.766 -64.342 9.766 -55.859 C 9.766 -47.425 16.502 -40.655 24.921 -40.655 C 31.997 -40.655 33.402 -43.81 36.534 -43.81 C 37.239 -43.81 37.776 -43.663 38.669 -43.235 L 45.504 -39.591 C 48.246 -38.173 49.063 -37.133 49.573 -35.245 L 50.291 -32.447 C 51.424 -28.397 53.334 -26.231 57.786 -24.647 L 90.452 -12.787 C 99.148 -9.682 105.216 -10.379 106.934 -15.546 L 42.467 -49.895 C 40.111 -51.161 40.175 -52.544 40.175 -55.859 C 40.175 -64.376 33.371 -71.162 24.921 -71.162 Z M 24.921 -65.496 C 30.289 -65.496 34.524 -61.242 34.524 -55.859 C 34.524 -50.556 30.289 -46.271 24.921 -46.271 C 19.701 -46.271 15.431 -50.556 15.431 -55.859 C 15.431 -61.242 19.701 -65.496 24.921 -65.496 Z"/>
  <path d="M 24.921 6.118 C 35.152 6.118 43.393 -2.119 43.393 -12.402 C 43.393 -14.822 43.35 -15.196 44.237 -15.647 L 110.612 -51.006 C 109.368 -60.998 100.31 -62.459 89.33 -58.479 L 56.664 -46.619 C 51.255 -44.689 48.573 -41.717 47.188 -36.644 L 46.471 -33.812 C 46.246 -33.01 45.616 -32.357 44.053 -31.51 L 37.655 -28.102 C 37.078 -27.805 36.827 -27.67 36.5 -27.67 C 34.678 -27.67 32.7 -30.825 24.921 -30.825 C 14.721 -30.825 6.547 -22.603 6.547 -12.402 C 6.547 -2.153 14.721 6.118 24.921 6.118 Z"/>
  <path d="M 24.921 2.9 C 33.371 2.9 40.175 -3.886 40.175 -12.402 C 40.175 -15.717 40.111 -17.101 42.467 -18.367 L 106.934 -52.715 C 105.216 -57.882 99.148 -58.595 90.452 -55.475 L 57.786 -43.615 C 53.334 -42.03 51.409 -39.865 50.291 -35.815 L 49.573 -33.017 C 49.063 -31.129 48.246 -30.088 45.504 -28.67 L 38.669 -25.026 C 37.776 -24.599 37.239 -24.452 36.534 -24.452 C 33.402 -24.452 31.997 -27.607 24.921 -27.607 C 16.502 -27.607 9.766 -20.836 9.766 -12.402 C 9.766 -3.919 16.502 2.9 24.921 2.9 Z M 24.921 -2.766 C 19.701 -2.766 15.431 -7.02 15.431 -12.402 C 15.431 -17.706 19.701 -21.99 24.921 -21.99 C 30.289 -21.99 34.524 -17.706 34.524 -12.402 C 34.524 -7.02 30.289 -2.766 24.921 -2.766 Z M 58.562 -32.989 C 56.94 -32.989 55.496 -34.382 55.496 -36.056 C 55.496 -37.778 56.94 -39.126 58.562 -39.126 C 60.285 -39.126 61.696 -37.778 61.696 -36.056 C 61.696 -34.367 60.285 -32.989 58.562 -32.989 Z"/>
 </g>
</svg>
