<svg xmlns="http://www.w3.org/2000/svg" viewBox="8.046 -71.788 72.26 70.088" aria-hidden="true" data-sf-symbol="slider.vertical.3">
 <g fill="black">
  <path d="M 67.258 -67.321 L 67.258 -6 C 67.258 -4.621 68.424 -3.421 69.972 -3.421 C 71.471 -3.421 72.685 -4.621 72.685 -6 L 72.685 -67.321 C 72.685 -68.854 71.471 -70.068 69.972 -70.068 C 68.424 -70.068 67.258 -68.854 67.258 -67.321 Z"/>
  <path d="M 69.987 -13.756 C 75.023 -13.756 78.585 -17.299 78.585 -22.335 L 78.585 -29.636 C 78.585 -34.658 75.023 -38.219 69.987 -38.219 C 64.965 -38.219 61.389 -34.658 61.389 -29.636 L 61.389 -22.335 C 61.389 -17.299 64.965 -13.756 69.987 -13.756 Z"/>
  <path d="M 69.987 -17.918 C 67.387 -17.918 65.584 -19.736 65.584 -22.335 L 65.584 -29.636 C 65.584 -32.236 67.387 -34.039 69.987 -34.039 C 72.586 -34.039 74.405 -32.236 74.405 -29.636 L 74.405 -22.335 C 74.405 -19.736 72.586 -17.918 69.987 -17.918 Z"/>
  <path d="M 41.447 -67.321 L 41.447 -6 C 41.447 -4.621 42.612 -3.421 44.16 -3.421 C 45.659 -3.421 46.874 -4.621 46.874 -6 L 46.874 -67.321 C 46.874 -68.854 45.659 -70.068 44.16 -70.068 C 42.612 -70.068 41.447 -68.854 41.447 -67.321 Z"/>
  <path d="M 44.175 -35.255 C 49.212 -35.255 52.773 -38.798 52.773 -43.82 L 52.773 -51.121 C 52.773 -56.157 49.212 -59.719 44.175 -59.719 C 39.139 -59.719 35.577 -56.157 35.577 -51.121 L 35.577 -43.82 C 35.577 -38.798 39.139 -35.255 44.175 -35.255 Z"/>
  <path d="M 44.175 -39.417 C 41.576 -39.417 39.739 -41.22 39.739 -43.82 L 39.739 -51.121 C 39.739 -53.72 41.576 -55.539 44.175 -55.539 C 46.775 -55.539 48.593 -53.72 48.593 -51.121 L 48.593 -43.82 C 48.593 -41.22 46.775 -39.417 44.175 -39.417 Z"/>
  <path d="M 15.635 -67.321 L 15.635 -6 C 15.635 -4.621 16.801 -3.421 18.349 -3.421 C 19.848 -3.421 21.047 -4.621 21.047 -6 L 21.047 -67.321 C 21.047 -68.854 19.848 -70.068 18.349 -70.068 C 16.801 -70.068 15.635 -68.854 15.635 -67.321 Z"/>
  <path d="M 18.364 -13.756 C 23.4 -13.756 26.928 -17.299 26.928 -22.335 L 26.928 -29.636 C 26.928 -34.658 23.4 -38.219 18.364 -38.219 C 13.327 -38.219 9.766 -34.658 9.766 -29.636 L 9.766 -22.335 C 9.766 -17.299 13.327 -13.756 18.364 -13.756 Z"/>
  <path d="M 18.364 -17.918 C 15.73 -17.918 13.927 -19.736 13.927 -22.335 L 13.927 -29.636 C 13.927 -32.236 15.73 -34.039 18.364 -34.039 C 20.963 -34.039 22.782 -32.236 22.782 -29.636 L 22.782 -22.335 C 22.782 -19.736 20.963 -17.918 18.364 -17.918 Z"/>
 </g>
</svg>
