<svg xmlns="http://www.w3.org/2000/svg" viewBox="5.634 -84.512 74.726 91.485" aria-hidden="true" data-sf-symbol="sparkles">
 <g fill="black">
  <path d="M 40.836 -63.854 C 41.313 -63.854 41.575 -64.15 41.658 -64.559 C 42.712 -70.691 42.645 -71.137 49.354 -72.255 C 49.812 -72.338 50.093 -72.616 50.093 -73.077 C 50.093 -73.539 49.812 -73.816 49.354 -73.899 C 42.645 -75.017 42.712 -75.463 41.658 -81.595 C 41.575 -82.038 41.313 -82.334 40.836 -82.334 C 40.393 -82.334 40.145 -82.038 40.063 -81.595 C 38.975 -75.463 39.076 -75.017 32.352 -73.899 C 31.909 -73.816 31.627 -73.539 31.627 -73.077 C 31.627 -72.616 31.909 -72.338 32.352 -72.255 C 39.076 -71.137 38.975 -70.691 40.063 -64.559 C 40.145 -64.15 40.393 -63.854 40.836 -63.854 Z"/>
  <path d="M 22.253 -37.688 C 22.868 -37.688 23.299 -38.104 23.381 -38.719 C 24.821 -48.954 25.063 -48.867 35.614 -50.933 C 36.195 -51.015 36.66 -51.431 36.66 -52.061 C 36.66 -52.725 36.195 -53.126 35.614 -53.208 C 25.063 -54.817 24.787 -55.018 23.381 -65.388 C 23.299 -66.052 22.868 -66.468 22.253 -66.468 C 21.604 -66.468 21.173 -66.052 21.091 -65.354 C 19.752 -55.134 19.353 -55.24 8.858 -53.208 C 8.277 -53.092 7.812 -52.725 7.812 -52.061 C 7.812 -51.397 8.277 -51.015 8.993 -50.933 C 19.42 -49.17 19.752 -49.006 21.091 -38.786 C 21.173 -38.104 21.604 -37.688 22.253 -37.688 Z"/>
  <path d="M 48.196 4.795 C 49.115 4.795 49.809 4.154 49.959 3.212 C 52.564 -18.224 55.401 -21.152 76.498 -23.394 C 77.488 -23.476 78.182 -24.204 78.182 -25.127 C 78.182 -26.083 77.488 -26.762 76.498 -26.878 C 55.401 -29.119 52.564 -32.014 49.959 -53.465 C 49.809 -54.425 49.115 -55.067 48.196 -55.067 C 47.243 -55.067 46.549 -54.425 46.433 -53.465 C 43.794 -32.014 40.957 -29.119 19.86 -26.878 C 18.87 -26.762 18.21 -26.083 18.21 -25.127 C 18.21 -24.204 18.87 -23.476 19.86 -23.394 C 40.893 -20.674 43.621 -18.209 46.433 3.212 C 46.549 4.154 47.243 4.795 48.196 4.795 Z"/>
 </g>
</svg>
