<svg xmlns="http://www.w3.org/2000/svg" viewBox="7.406 -75.136 99.102 79.763" aria-hidden="true" data-sf-symbol="sparkles.tv">
 <g fill="black">
  <path d="M 19.133 -10 L 94.781 -10 C 100.633 -10 104.149 -13.564 104.149 -19.401 L 104.149 -63.408 C 104.149 -69.245 100.633 -72.776 94.781 -72.776 L 19.133 -72.776 C 13.282 -72.776 9.766 -69.245 9.766 -63.408 L 9.766 -19.401 C 9.766 -13.564 13.282 -10 19.133 -10 Z M 19.246 -15.46 C 16.707 -15.46 15.192 -16.926 15.192 -19.499 L 15.192 -63.311 C 15.192 -65.849 16.707 -67.349 19.246 -67.349 L 94.668 -67.349 C 97.207 -67.349 98.722 -65.849 98.722 -63.311 L 98.722 -19.499 C 98.722 -16.926 97.207 -15.46 94.668 -15.46 Z M 37.944 2.268 L 75.97 2.268 C 77.5 2.268 78.699 1.069 78.699 -0.445 C 78.699 -1.975 77.5 -3.192 75.97 -3.192 L 37.944 -3.192 C 36.415 -3.192 35.215 -1.975 35.215 -0.445 C 35.215 1.069 36.415 2.268 37.944 2.268 Z"/>
  <path d="M 58.813 -25.502 C 59.488 -25.502 59.919 -25.982 60.069 -26.608 C 62.142 -38.541 63.155 -40.377 75.375 -42.015 C 76.068 -42.098 76.533 -42.562 76.533 -43.256 C 76.533 -43.901 76.068 -44.415 75.375 -44.531 C 63.189 -46.151 61.828 -48.027 60.069 -59.803 C 59.953 -60.516 59.488 -60.962 58.813 -60.962 C 58.122 -60.962 57.642 -60.549 57.492 -59.837 C 55.362 -47.862 54.406 -46.151 42.202 -44.531 C 41.508 -44.415 41.028 -43.901 41.028 -43.256 C 41.028 -42.562 41.508 -42.083 42.202 -42.015 C 54.451 -41.004 55.839 -38.541 57.492 -26.642 C 57.608 -25.982 58.055 -25.502 58.813 -25.502 Z M 43.644 -19.408 C 44.112 -19.408 44.446 -19.708 44.547 -20.158 C 45.567 -25.724 45.23 -26.182 51.468 -27.064 C 51.967 -27.131 52.285 -27.532 52.285 -27.997 C 52.285 -28.462 51.967 -28.863 51.468 -28.896 C 45.246 -29.88 45.567 -30.353 44.547 -35.769 C 44.446 -36.268 44.146 -36.635 43.644 -36.635 C 43.179 -36.635 42.831 -36.301 42.696 -35.769 C 41.69 -30.353 42.061 -29.88 35.823 -28.896 C 35.306 -28.863 35.04 -28.462 35.04 -27.997 C 35.04 -27.465 35.306 -27.131 35.876 -27.064 C 42.061 -26.182 41.69 -25.724 42.696 -20.259 C 42.831 -19.742 43.145 -19.408 43.644 -19.408 Z"/>
 </g>
</svg>
