<?xml version="1.0" encoding="UTF-8"?>
<!--Generator: Apple Native CoreSVG 341-->
<!DOCTYPE svg
PUBLIC "-//W3C//DTD SVG 1.1//EN"
       "http://www.w3.org/Graphics/SVG/1.1/DTD/svg11.dtd">
<svg version="1.1" xmlns="http://www.w3.org/2000/svg" xmlns:xlink="http://www.w3.org/1999/xlink" viewBox="0 0 3300 2200">
 <!--glyph: "10035F", point size: 100.0, font version: "22.0d4e4", template writer version: "138.0.0"-->
 <style>.defaults {-sfsymbols-wiggle-style:clockwise;-sfsymbols-rotates-clockwise:true;-sfsymbols-draw-reverses-motion-groups:true}

.monochrome-0 {-sfsymbols-motion-group:0;-sfsymbols-always-rotates:true;-sfsymbols-layer-tags:gear}

.multicolor-0:systemGrayColor {-sfsymbols-motion-group:0;-sfsymbols-always-rotates:true;-sfsymbols-layer-tags:gear}

.hierarchical-0:primary {-sfsymbols-motion-group:0;-sfsymbols-always-rotates:true;-sfsymbols-layer-tags:gear}

.SFSymbolsPreviewWireframe {fill:none;opacity:1.0;stroke:black;stroke-width:0.5}
</style>
 <g id="Notes">
  <rect height="2200" id="artboard" style="fill:white;opacity:1" width="3300" x="0" y="0"/>
  <line style="fill:none;stroke:black;opacity:1;stroke-width:0.5;" x1="263" x2="3036" y1="292" y2="292"/>
  <text style="stroke:none;fill:black;font-family:sans-serif;font-size:13;font-weight:bold;" transform="matrix(1 0 0 1 263 322)">Weight/Scale Variations</text>
  <text style="stroke:none;fill:black;font-family:sans-serif;font-size:13;text-anchor:middle;" transform="matrix(1 0 0 1 559.711 322)">Ultralight</text>
  <text style="stroke:none;fill:black;font-family:sans-serif;font-size:13;text-anchor:middle;" transform="matrix(1 0 0 1 856.422 322)">Thin</text>
  <text style="stroke:none;fill:black;font-family:sans-serif;font-size:13;text-anchor:middle;" transform="matrix(1 0 0 1 1153.13 322)">Light</text>
  <text style="stroke:none;fill:black;font-family:sans-serif;font-size:13;text-anchor:middle;" transform="matrix(1 0 0 1 1449.84 322)">Regular</text>
  <text style="stroke:none;fill:black;font-family:sans-serif;font-size:13;text-anchor:middle;" transform="matrix(1 0 0 1 1746.56 322)">Medium</text>
  <text style="stroke:none;fill:black;font-family:sans-serif;font-size:13;text-anchor:middle;" transform="matrix(1 0 0 1 2043.27 322)">Semibold</text>
  <text style="stroke:none;fill:black;font-family:sans-serif;font-size:13;text-anchor:middle;" transform="matrix(1 0 0 1 2339.98 322)">Bold</text>
  <text style="stroke:none;fill:black;font-family:sans-serif;font-size:13;text-anchor:middle;" transform="matrix(1 0 0 1 2636.69 322)">Heavy</text>
  <text style="stroke:none;fill:black;font-family:sans-serif;font-size:13;text-anchor:middle;" transform="matrix(1 0 0 1 2933.4 322)">Black</text>
  <line style="fill:none;stroke:black;opacity:1;stroke-width:0.5;" x1="263" x2="3036" y1="1903" y2="1903"/>
  <g transform="matrix(0.2 0 0 0.2 263 1933)">
   <path d="m46.2402 4.15039c21.7773 0 39.4531-17.627 39.4531-39.4043s-17.6758-39.4043-39.4531-39.4043c-21.7285 0-39.4043 17.627-39.4043 39.4043s17.6758 39.4043 39.4043 39.4043Zm0-7.42188c-17.6758 0-31.9336-14.3066-31.9336-31.9824s14.2578-31.9824 31.9336-31.9824 31.9824 14.3066 31.9824 31.9824-14.3066 31.9824-31.9824 31.9824Zm3.61328-17.7734v-28.4668c0-2.24609-1.46484-3.75977-3.71094-3.75977-2.14844 0-3.61328 1.51367-3.61328 3.75977v28.4668c0 2.19727 1.46484 3.71094 3.61328 3.71094 2.24609 0 3.71094-1.51367 3.71094-3.71094Zm-17.8223-10.5957h28.418c2.19727 0 3.71094-1.46484 3.71094-3.61328 0-2.19727-1.51367-3.71094-3.71094-3.71094h-28.418c-2.24609 0-3.75977 1.51367-3.75977 3.71094 0 2.14844 1.51367 3.61328 3.75977 3.61328Z"/>
  </g>
  <g transform="matrix(0.2 0 0 0.2 281.506 1933)">
   <path d="m58.5449 14.5508c27.4902 0 49.8047-22.3145 49.8047-49.8047s-22.3145-49.8047-49.8047-49.8047-49.8047 22.3145-49.8047 49.8047 22.3145 49.8047 49.8047 49.8047Zm0-8.30078c-22.9492 0-41.5039-18.5547-41.5039-41.5039s18.5547-41.5039 41.5039-41.5039 41.5039 18.5547 41.5039 41.5039-18.5547 41.5039-41.5039 41.5039Zm4.05273-23.0957v-36.9141c0-2.49023-1.70898-4.19922-4.15039-4.19922-2.39258 0-4.05273 1.70898-4.05273 4.19922v36.9141c0 2.44141 1.66016 4.15039 4.05273 4.15039 2.44141 0 4.15039-1.66016 4.15039-4.15039Zm-22.5586-14.4043h36.9629c2.44141 0 4.15039-1.61133 4.15039-4.00391 0-2.44141-1.70898-4.15039-4.15039-4.15039h-36.9629c-2.49023 0-4.15039 1.70898-4.15039 4.15039 0 2.39258 1.66016 4.00391 4.15039 4.00391Z"/>
  </g>
  <g transform="matrix(0.2 0 0 0.2 304.924 1933)">
   <path d="m74.8535 28.3203c35.1074 0 63.623-28.4668 63.623-63.5742s-28.5156-63.623-63.623-63.623-63.5742 28.5156-63.5742 63.623 28.4668 63.5742 63.5742 63.5742Zm0-9.08203c-30.127 0-54.4922-24.3652-54.4922-54.4922s24.3652-54.4922 54.4922-54.4922 54.4922 24.3652 54.4922 54.4922-24.3652 54.4922-54.4922 54.4922Zm4.44336-30.3223v-48.4863c0-2.73438-1.85547-4.63867-4.54102-4.63867-2.58789 0-4.44336 1.9043-4.44336 4.63867v48.4863c0 2.68555 1.85547 4.58984 4.44336 4.58984 2.68555 0 4.54102-1.85547 4.54102-4.58984Zm-28.7109-19.7754h48.4863c2.68555 0 4.58984-1.80664 4.58984-4.39453 0-2.73438-1.85547-4.58984-4.58984-4.58984h-48.4863c-2.73438 0-4.58984 1.85547-4.58984 4.58984 0 2.58789 1.85547 4.39453 4.58984 4.39453Z"/>
  </g>
  <text style="stroke:none;fill:black;font-family:sans-serif;font-size:13;font-weight:bold;" transform="matrix(1 0 0 1 263 1953)">Design Variations</text>
  <text style="stroke:none;fill:black;font-family:sans-serif;font-size:13;" transform="matrix(1 0 0 1 263 1971)">Symbols are supported in up to nine weights and three scales.</text>
  <text style="stroke:none;fill:black;font-family:sans-serif;font-size:13;" transform="matrix(1 0 0 1 263 1989)">For optimal layout with text and other symbols, vertically align</text>
  <text style="stroke:none;fill:black;font-family:sans-serif;font-size:13;" transform="matrix(1 0 0 1 263 2007)">symbols with the adjacent text.</text>
  <line style="fill:none;stroke:#00AEEF;stroke-width:0.5;opacity:1.0;" x1="776" x2="776" y1="1919" y2="1933"/>
  <g transform="matrix(0.2 0 0 0.2 776 1933)">
   <path d="m16.5527 0.78125c2.58789 0 3.85742-0.976562 4.78516-3.71094l20.5566-57.5195h0.244141l20.6055 57.5195c0.927734 2.73438 2.19727 3.71094 4.73633 3.71094 2.58789 0 4.24805-1.5625 4.24805-4.00391 0-0.830078-0.146484-1.61133-0.537109-2.63672l-22.9004-60.9863c-1.12305-2.97852-3.125-4.49219-6.25-4.49219-3.02734 0-5.07812 1.46484-6.15234 4.44336l-22.9004 61.084c-0.390625 1.02539-0.537109 1.80664-0.537109 2.63672 0 2.44141 1.5625 3.95508 4.10156 3.95508Zm10.2051-20.9473h30.6641c2.00195 0 3.66211-1.66016 3.66211-3.66211 0-2.05078-1.66016-3.66211-3.66211-3.66211h-30.6641c-2.00195 0-3.66211 1.61133-3.66211 3.66211 0 2.00195 1.66016 3.66211 3.66211 3.66211Z"/>
  </g>
  <line style="fill:none;stroke:#00AEEF;stroke-width:0.5;opacity:1.0;" x1="792.836" x2="792.836" y1="1919" y2="1933"/>
  <text style="stroke:none;fill:black;font-family:sans-serif;font-size:13;font-weight:bold;" transform="matrix(1 0 0 1 776 1953)">Margins</text>
  <text style="stroke:none;fill:black;font-family:sans-serif;font-size:13;" transform="matrix(1 0 0 1 776 1971)">Leading and trailing margins on the left and right side of each symbol</text>
  <text style="stroke:none;fill:black;font-family:sans-serif;font-size:13;" transform="matrix(1 0 0 1 776 1989)">can be adjusted by modifying the x-location of the margin guidelines.</text>
  <text style="stroke:none;fill:black;font-family:sans-serif;font-size:13;" transform="matrix(1 0 0 1 776 2007)">Modifications are automatically applied proportionally to all</text>
  <text style="stroke:none;fill:black;font-family:sans-serif;font-size:13;" transform="matrix(1 0 0 1 776 2025)">scales and weights.</text>
  <g transform="matrix(0.2 0 0 0.2 1289 1933)">
   <path d="m14.209 13.1348 7.86133 7.86133c4.29688 4.39453 9.32617 4.10156 13.8672-1.02539l60.6934-68.2129-4.88281-4.88281-60.2539 67.6758c-1.80664 1.95312-3.4668 2.44141-5.81055 0.0976562l-5.17578-5.12695c-2.29492-2.29492-1.80664-3.95508 0.195312-5.81055l67.4805-62.1582-4.88281-4.83398-68.0664 62.5977c-4.98047 4.58984-5.32227 9.47266-1.02539 13.8184Zm44.873-97.4609c-2.05078 2.00195-2.24609 4.88281-1.07422 6.78711 1.12305 1.80664 3.4668 3.02734 6.5918 2.24609 5.85938-1.66016 12.5977-2.39258 18.8965 0.927734l-2.68555 7.12891c-1.61133 4.00391-0.732422 6.88477 1.70898 9.42383l10.2539 10.3027c2.34375 2.39258 4.54102 2.44141 7.08008 1.95312l4.44336-0.732422 2.58789 2.53906-0.195312 2.24609c-0.0976562 2.29492 0.537109 4.29688 2.7832 6.49414l3.36914 3.32031c2.29492 2.29492 5.51758 2.49023 7.8125 0.195312l12.9883-13.0371c2.29492-2.34375 2.14844-5.37109-0.195312-7.66602l-3.41797-3.41797c-2.19727-2.19727-4.05273-3.02734-6.34766-2.88086l-2.34375 0.244141-2.44141-2.44141 1.02539-4.6875c0.634766-2.73438-0.244141-4.98047-2.88086-7.61719l-11.2793-11.1816c-12.9395-12.8418-35.5957-11.0352-46.6797-0.146484Zm7.08008 2.05078c8.78906-6.39648 25.9766-5.66406 33.6914 1.95312l12.3047 12.207c1.02539 1.02539 1.2207 1.80664 0.927734 3.32031l-1.46484 6.64062 6.73828 6.68945 4.39453-0.244141c1.12305-0.0488281 1.51367 0.0488281 2.34375 0.878906l2.53906 2.49023-10.8398 10.8398-2.49023-2.49023c-0.830078-0.878906-0.976562-1.2207-0.927734-2.39258l0.292969-4.3457-6.68945-6.73828-6.83594 1.17188c-1.41602 0.292969-2.05078 0.195312-3.17383-0.878906l-8.93555-8.88672c-1.07422-1.02539-1.17188-1.70898-0.488281-3.36914l4.58984-11.4746c-6.10352-6.34766-17.041-7.51953-25.5859-4.58984-0.683594 0.244141-0.927734-0.390625-0.390625-0.78125Z"/>
  </g>
  <text style="stroke:none;fill:black;font-family:sans-serif;font-size:13;font-weight:bold;" transform="matrix(1 0 0 1 1289 1953)">Exporting</text>
  <text style="stroke:none;fill:black;font-family:sans-serif;font-size:13;" transform="matrix(1 0 0 1 1289 1971)">Symbols should be outlined when exporting to ensure the</text>
  <text style="stroke:none;fill:black;font-family:sans-serif;font-size:13;" transform="matrix(1 0 0 1 1289 1989)">design is preserved when submitting to Xcode.</text>
  <text id="template-version" style="stroke:none;fill:black;font-family:sans-serif;font-size:13;text-anchor:end;" transform="matrix(1 0 0 1 3036 1933)">Template v.7.0</text>
  <text style="stroke:none;fill:black;font-family:sans-serif;font-size:13;text-anchor:end;" transform="matrix(1 0 0 1 3036 1951)">Requires Xcode 26 or greater</text>
  <text id="descriptive-name" style="stroke:none;fill:black;font-family:sans-serif;font-size:13;text-anchor:end;" transform="matrix(1 0 0 1 3036 1969)">Generated from gear</text>
  <text style="stroke:none;fill:black;font-family:sans-serif;font-size:13;text-anchor:end;" transform="matrix(1 0 0 1 3036 1987)">Typeset at 100.0 points</text>
  <text style="stroke:none;fill:black;font-family:sans-serif;font-size:13;" transform="matrix(1 0 0 1 263 726)">Small</text>
  <text style="stroke:none;fill:black;font-family:sans-serif;font-size:13;" transform="matrix(1 0 0 1 263 1156)">Medium</text>
  <text style="stroke:none;fill:black;font-family:sans-serif;font-size:13;" transform="matrix(1 0 0 1 263 1586)">Large</text>
 </g>
 <g id="Guides">
  <g id="H-reference" style="fill:#27AAE1;stroke:none;" transform="matrix(1 0 0 1 339 696)">
   <path d="M0.993654 0L3.63775 0L29.3281-67.1323L30.0303-67.1323L30.0303-70.459L28.1226-70.459ZM11.6885-24.4799L46.9815-24.4799L46.2315-26.7285L12.4385-26.7285ZM55.1196 0L57.7637 0L30.6382-70.459L29.4326-70.459L29.4326-67.1323Z"/>
  </g>
  <line id="Baseline-S" style="fill:none;stroke:#27AAE1;opacity:1;stroke-width:0.5;" x1="263" x2="3036" y1="696" y2="696"/>
  <line id="Capline-S" style="fill:none;stroke:#27AAE1;opacity:1;stroke-width:0.5;" x1="263" x2="3036" y1="625.541" y2="625.541"/>
  <g id="H-reference" style="fill:#27AAE1;stroke:none;" transform="matrix(1 0 0 1 339 1126)">
   <path d="M0.993654 0L3.63775 0L29.3281-67.1323L30.0303-67.1323L30.0303-70.459L28.1226-70.459ZM11.6885-24.4799L46.9815-24.4799L46.2315-26.7285L12.4385-26.7285ZM55.1196 0L57.7637 0L30.6382-70.459L29.4326-70.459L29.4326-67.1323Z"/>
  </g>
  <line id="Baseline-M" style="fill:none;stroke:#27AAE1;opacity:1;stroke-width:0.5;" x1="263" x2="3036" y1="1126" y2="1126"/>
  <line id="Capline-M" style="fill:none;stroke:#27AAE1;opacity:1;stroke-width:0.5;" x1="263" x2="3036" y1="1055.54" y2="1055.54"/>
  <g id="H-reference" style="fill:#27AAE1;stroke:none;" transform="matrix(1 0 0 1 339 1556)">
   <path d="M0.993654 0L3.63775 0L29.3281-67.1323L30.0303-67.1323L30.0303-70.459L28.1226-70.459ZM11.6885-24.4799L46.9815-24.4799L46.2315-26.7285L12.4385-26.7285ZM55.1196 0L57.7637 0L30.6382-70.459L29.4326-70.459L29.4326-67.1323Z"/>
  </g>
  <line id="Baseline-L" style="fill:none;stroke:#27AAE1;opacity:1;stroke-width:0.5;" x1="263" x2="3036" y1="1556" y2="1556"/>
  <line id="Capline-L" style="fill:none;stroke:#27AAE1;opacity:1;stroke-width:0.5;" x1="263" x2="3036" y1="1485.54" y2="1485.54"/>
  <line id="right-margin-Black-S" style="fill:none;stroke:#00AEEF;stroke-width:0.5;opacity:1.0;" x1="2987.82" x2="2987.82" y1="600.785" y2="720.121"/>
  <line id="left-margin-Black-S" style="fill:none;stroke:#00AEEF;stroke-width:0.5;opacity:1.0;" x1="2878.98" x2="2878.98" y1="600.785" y2="720.121"/>
  <line id="right-margin-Regular-S" style="fill:none;stroke:#00AEEF;stroke-width:0.5;opacity:1.0;" x1="1501.11" x2="1501.11" y1="600.785" y2="720.121"/>
  <line id="left-margin-Regular-S" style="fill:none;stroke:#00AEEF;stroke-width:0.5;opacity:1.0;" x1="1398.57" x2="1398.57" y1="600.785" y2="720.121"/>
  <line id="right-margin-Ultralight-S" style="fill:none;stroke:#00AEEF;stroke-width:0.5;opacity:1.0;" x1="608.529" x2="608.529" y1="600.785" y2="720.121"/>
  <line id="left-margin-Ultralight-S" style="fill:none;stroke:#00AEEF;stroke-width:0.5;opacity:1.0;" x1="510.894" x2="510.894" y1="600.785" y2="720.121"/>
 </g>
 <g id="Symbols">
  <g id="Black-S" transform="matrix(1 0 0 1 2878.98 696)">
   <path class="monochrome-0 multicolor-0:systemGrayColor hierarchical-0:primary SFSymbolsPreviewWireframe" d="M54.4434 12.3047C55.8594 12.3047 56.8848 11.6211 57.2754 9.13086L57.7637 5.81055C57.959 4.73633 58.7402 4.39453 59.7168 4.19922C60.6445 4.05273 61.377 4.39453 61.8164 5.27344L63.1836 8.30078C64.1602 10.791 65.5273 11.0352 66.6992 10.6445C67.9199 10.3516 69.043 9.375 68.7012 6.83594L68.2617 3.56445C68.1641 2.53906 68.6523 1.9043 69.7266 1.41602C70.6543 0.976562 71.4355 1.17188 72.0703 1.95312L74.1699 4.63867C75.6836 6.5918 77.002 6.54297 78.1738 5.85938C79.4434 5.17578 80.0781 4.05273 79.1504 1.75781L77.832-1.36719C77.3926-2.34375 77.7344-3.17383 78.5645-3.71094C79.541-4.39453 80.2246-4.49219 81.1035-3.85742L83.6914-1.85547C85.8887-0.244141 87.1582-0.585938 88.1348-1.70898C88.8184-2.63672 89.4531-3.80859 87.793-5.9082L85.791-8.54492C85.2539-9.32617 85.3516-10.2539 85.9863-11.084C86.5723-11.8652 87.3535-12.2559 88.3301-11.8164L91.4062-10.5957C93.75-9.61914 94.9707-10.3027 95.6055-11.4746C96.3867-12.7441 96.3379-14.0137 94.3359-15.5762L91.6992-17.6758C90.918-18.3105 90.7715-19.1895 91.1621-20.1172C91.4551-21.0938 92.1387-21.4844 93.2617-21.3867L96.582-20.9961C99.0723-20.7031 100-21.582 100.439-22.998C100.732-24.2676 100.391-25.5859 98.0469-26.5625L94.9707-27.832C93.9453-28.2227 93.6523-28.8086 93.7988-30.127C93.8965-31.1523 94.5312-31.7383 95.5566-31.8848L98.8281-32.4219C101.465-32.7148 102.002-33.9844 102.002-35.2539C102.002-36.5723 101.465-37.8418 98.8281-38.1836L95.5566-38.623C94.4336-38.8184 93.8965-39.502 93.7988-40.5273C93.7012-41.5039 93.9453-42.2363 94.9707-42.6758L98.0957-43.9453C100.391-45.0195 100.781-46.2891 100.391-47.6074C100-48.877 99.0723-49.8535 96.582-49.4629L93.2617-49.1211C92.2363-49.0234 91.4551-49.5605 91.1133-50.4883C90.7227-51.5625 90.8691-52.3438 91.6992-52.9785L94.3359-55.0293C96.4355-56.5918 96.3867-57.8613 95.6543-59.082C94.9707-60.2539 93.75-60.8887 91.4062-59.9609L88.3301-58.7402C87.3535-58.3496 86.5723-58.5938 85.8887-59.4727C85.2539-60.2539 85.3027-61.2793 85.791-61.9629L87.8418-64.6484C89.4043-66.748 88.916-67.9688 88.0859-68.9453C87.207-69.8242 85.791-70.2637 83.7402-68.6523L81.25-66.748C80.3223-66.0156 79.3945-66.1133 78.5156-66.8945C77.7344-67.5293 77.3926-68.2617 77.832-69.2871L79.1504-72.3145C80.0781-74.7559 79.4434-75.7324 78.2227-76.416C76.9043-77.1484 75.4883-76.9531 74.1699-75.1953L72.0703-72.6074C71.4355-71.7773 70.5566-71.6309 69.5312-72.0703C68.7012-72.3633 68.1641-73.0469 68.3105-74.1699L68.7988-77.5391C69.043-80.127 68.0664-80.8105 66.6992-81.2012C65.4297-81.543 64.1602-81.2012 63.1836-78.9062L61.9141-75.8789C61.5234-74.9512 60.791-74.4141 59.5703-74.6094C58.4961-74.8047 57.9102-75.3906 57.8125-76.3672L57.2754-79.6875C56.8848-82.1289 55.8594-82.9102 54.4922-82.9102C53.0273-82.9102 51.9043-82.1777 51.5625-79.7852L51.0742-76.3672C50.9277-75.3906 50.1465-74.8047 49.1699-74.7559C48.2422-74.6094 47.5098-74.9023 47.0215-75.8789L45.6543-78.9062C44.7266-81.25 43.4082-81.543 42.1387-81.2012C40.9668-80.9082 39.7949-80.0293 40.1367-77.4902L40.6738-74.2188C40.8691-73.0469 40.1367-72.3633 39.209-72.0215C38.2324-71.6309 37.4023-71.7773 36.7676-72.6074L34.668-75.1953C33.1055-77.1973 31.8359-77.1484 30.6641-76.416C29.4434-75.6836 28.8086-74.6094 29.7363-72.3145L31.0059-69.3359C31.4453-68.3105 31.1523-67.5293 30.3223-66.8945C29.4922-66.2598 28.6133-66.0645 27.7832-66.748L25.1465-68.7012C22.998-70.2637 21.6309-69.873 20.752-68.9453C19.7266-67.8711 19.6777-66.4551 21.0449-64.6973L23.0469-62.0605C23.6816-61.2305 23.5352-60.2539 22.9004-59.4727C22.2656-58.6914 21.3867-58.4473 20.5078-58.7891L17.4805-59.9121C15.1367-60.8887 13.916-60.2539 13.2324-59.1309C12.4512-57.8125 12.5488-56.4941 14.502-55.0293L17.1387-52.9785C18.0176-52.2949 18.1152-51.4648 17.7246-50.5371C17.1875-49.3164 16.6016-48.9746 15.5762-49.1211L12.3047-49.5605C9.81445-49.8535 8.83789-48.877 8.49609-47.5586C8.1543-46.4355 8.39844-45.0195 10.8398-44.043L13.8672-42.7246C14.8926-42.2363 15.1855-41.4551 15.0391-40.4297C14.8926-39.4531 14.4043-38.8184 13.2812-38.623L10.1074-38.1836C7.37305-37.8418 6.83594-36.6211 6.83594-35.2539C6.83594-33.9844 7.37305-32.7148 10.1074-32.4219L13.2812-31.8848C14.4043-31.6895 14.8926-31.1035 15.0391-30.0781C15.2344-28.8086 14.8926-28.3203 13.916-27.8809L10.7422-26.6602C8.39844-25.7324 8.05664-24.2676 8.49609-22.9492C8.83789-21.6309 9.86328-20.7031 12.3047-21.0449L15.625-21.4355C16.6016-21.582 17.334-21.1914 17.7734-20.0195C18.1152-19.1406 18.0176-18.3105 17.1387-17.6758L14.502-15.5762C12.5-13.9648 12.5-12.7441 13.2324-11.4258C13.9648-10.3027 15.0879-9.61914 17.4805-10.5469L20.5078-11.8164C21.4844-12.207 22.4121-11.8652 22.998-11.0352C23.584-10.2539 23.6328-9.47266 23.0469-8.64258L20.9961-5.95703C19.4824-3.85742 19.873-2.73438 20.752-1.66016C21.6309-0.683594 23.0469-0.292969 25.0977-1.9043L27.7344-3.90625C28.5645-4.49219 29.248-4.44336 30.3223-3.75977C31.1523-3.125 31.3477-2.34375 31.0059-1.36719L29.7363 1.75781C28.7598 4.05273 29.3945 5.12695 30.7129 5.85938C31.8848 6.49414 33.1543 6.5918 34.668 4.63867L36.7676 1.95312C37.4023 1.17188 38.2324 1.02539 39.1602 1.41602C40.0391 1.75781 40.6738 2.49023 40.5762 3.51562L40.0391 6.83594C39.5996 9.42383 40.8691 10.3027 42.2363 10.6445C43.457 10.9375 44.7266 10.791 45.6543 8.30078L46.9727 5.22461C47.3633 4.3457 48.0469 3.90625 49.3652 4.05273C50.1953 4.19922 50.8301 4.83398 51.0254 5.85938L51.5625 9.0332C52.002 11.6211 53.0273 12.3047 54.4434 12.3047ZM32.7637-14.6973C27.6367-20.0684 24.6094-27.2461 24.6094-35.2539C24.6094-43.3105 27.6855-50.5371 32.8125-55.9082C34.668-57.8125 37.2559-57.2754 38.623-54.9316L47.9004-38.7207C49.3652-36.2793 49.1211-33.9844 47.9004-31.8848L38.5742-15.7227C37.3047-13.5254 34.4238-12.8906 32.7637-14.6973ZM54.541-5.32227C52.1484-5.32227 49.8535-5.61523 47.6074-6.15234C45.2148-6.73828 44.1895-9.27734 45.5566-11.6211L54.8828-27.832C56.1523-30.0293 58.1055-31.25 60.8398-31.25L79.4922-31.25C82.4219-31.25 83.9355-29.1016 83.252-26.7578C79.5898-14.2578 68.1152-5.32227 54.541-5.32227ZM54.1992-32.3242C52.6367-32.3242 51.3672-33.5938 51.3672-35.1562C51.3672-36.7188 52.6367-37.9883 54.1992-37.9883C55.7617-37.9883 57.0312-36.7188 57.0312-35.1562C57.0312-33.5938 55.7617-32.3242 54.1992-32.3242ZM60.8398-39.3555C58.1543-39.3555 56.2012-40.4297 54.8828-42.7734L45.8984-58.3008C44.1895-61.2793 45.166-63.7207 47.6074-64.4043C49.9512-65.0391 52.1484-65.1855 54.541-65.1855C68.1152-65.1855 79.541-56.2988 83.252-43.8477C83.9844-41.4551 82.666-39.3555 79.4922-39.3555Z"/>
  </g>
  <g id="Regular-S" transform="matrix(1 0 0 1 1398.57 696)">
   <path class="monochrome-0 multicolor-0:systemGrayColor hierarchical-0:primary SFSymbolsPreviewWireframe" d="M51.2695 9.22852C52.3438 9.22852 53.2227 8.69141 53.5156 6.68945L53.9551 3.51562C54.1992 2.34375 54.9316 1.66016 56.2012 1.51367C57.373 1.31836 58.2031 1.80664 58.6914 2.92969L59.9121 5.81055C60.7422 7.76367 61.7676 8.00781 62.7441 7.71484C63.7695 7.42188 64.502 6.68945 64.209 4.58984L63.8184 1.5625C63.6719 0.292969 64.3066-0.439453 65.5273-1.02539C66.5527-1.46484 67.5781-1.31836 68.3105-0.341797L70.2637 2.14844C71.582 3.85742 72.5586 3.80859 73.4863 3.22266C74.4629 2.68555 74.9512 1.9043 74.1211-0.0488281L72.998-2.97852C72.5098-4.19922 72.8516-5.17578 73.8281-5.85938C74.8535-6.5918 75.7324-6.68945 76.8066-5.9082L79.2969-4.00391C80.957-2.7832 81.9336-3.02734 82.7148-3.75977C83.4473-4.54102 83.6914-5.56641 82.4219-7.17773L80.5176-9.61914C79.7852-10.6445 79.9316-11.6211 80.6641-12.7441C81.3477-13.623 82.3242-14.0137 83.4961-13.4766L86.4258-12.3535C88.3789-11.5234 89.209-12.0117 89.7461-13.0371C90.2832-13.916 90.332-14.8926 88.623-16.2109L86.1816-18.1641C85.2051-18.9453 85.0586-19.9707 85.5469-21.0449C85.9375-22.1191 86.6699-22.7051 88.0371-22.6074L91.1621-22.2168C93.1641-21.9727 93.9453-22.6562 94.1895-23.7305C94.4336-24.7559 94.2383-25.7324 92.2852-26.5137L89.4043-27.7344C88.2812-28.1738 87.8418-29.0527 87.9883-30.4199C88.1348-31.6406 88.8184-32.3242 90.0391-32.5195L93.1152-32.959C95.166-33.252 95.7031-34.1309 95.7031-35.2051C95.7031-36.2793 95.166-37.1582 93.1152-37.4512L90.0391-37.8906C88.7695-38.1348 88.1836-38.8184 87.9883-40.0879C87.8418-41.2598 88.2812-42.1387 89.4043-42.627L92.334-43.8477C94.2383-44.6777 94.4824-45.7031 94.1895-46.6797C93.8965-47.7051 93.1641-48.4375 91.1133-48.1445L88.0859-47.7539C86.7676-47.6074 85.8398-48.3398 85.498-49.3652C85.0098-50.6348 85.1074-51.4648 86.1816-52.2461L88.623-54.1992C90.332-55.5176 90.2832-56.4941 89.7949-57.4219C89.1602-58.4473 88.2812-58.8379 86.4258-58.1055L83.4961-56.8848C82.3242-56.3965 81.3477-56.8359 80.6152-57.7637C79.9316-58.7891 79.7852-59.668 80.5664-60.7422L82.4707-63.2324C83.6914-64.8438 83.4961-65.8691 82.7148-66.6504C81.9336-67.3828 80.957-67.627 79.3457-66.3574L76.8555-64.4531C75.8301-63.623 74.7559-63.8184 73.8281-64.5996C72.8516-65.4297 72.5098-66.2109 72.998-67.4316L74.1211-70.3613C74.9512-72.3145 74.4629-73.1445 73.4863-73.6328C72.4609-74.2676 71.4355-74.0723 70.2637-72.5586L68.3105-70.1172C67.5293-69.1406 66.5527-68.9941 65.3809-69.4336C64.3555-69.873 63.7207-70.6543 63.8672-71.9727L64.3066-75.0488C64.502-77.0996 63.9648-77.832 62.7441-78.125C61.6211-78.418 60.6445-77.9785 59.9609-76.2207L58.7891-73.3398C58.3008-72.168 57.3242-71.6797 56.1035-71.875C54.834-72.1191 54.1504-72.7051 54.0039-73.9746L53.5156-77.0508C53.2227-79.1016 52.3438-79.6387 51.3184-79.6387C50.1953-79.6387 49.3164-79.1016 49.0234-77.0996L48.584-73.9258C48.3887-72.7539 47.6562-72.0215 46.3867-71.9238C45.2148-71.8262 44.3359-72.2168 43.8477-73.3398L42.627-76.2207C41.8945-77.9297 40.9668-78.4668 39.7949-78.125C38.5254-77.7832 38.0371-76.8555 38.3301-75.0488L38.7207-71.9727C38.8672-70.6543 38.1836-69.8242 37.0605-69.3848C35.8398-68.9941 35.0098-69.1406 34.2285-70.1172L32.2754-72.5586C31.0547-74.1211 30.0781-74.2188 29.1016-73.6328C28.0762-73.0957 27.5879-72.3145 28.418-70.3613L29.541-67.4316C30.0293-66.3086 29.6875-65.2832 28.8086-64.5996C27.832-63.8184 26.8066-63.7207 25.7324-64.502L23.2422-66.4062C21.7285-67.5293 20.7031-67.4805 19.8242-66.6504C18.9453-65.7227 18.9941-64.7461 20.1172-63.2324L22.0215-60.791C22.8516-59.7656 22.6562-58.6914 21.875-57.7148C21.0449-56.7871 20.2637-56.4453 19.043-56.9336L16.1133-58.0566C14.3555-58.7891 13.3789-58.4961 12.8418-57.4219C12.1582-56.3477 12.4512-55.3223 13.916-54.1992L16.3574-52.2461C17.334-51.4648 17.5293-50.3906 17.041-49.3652C16.5039-48.291 15.8203-47.7051 14.502-47.8027L11.377-48.1934C9.375-48.4375 8.59375-47.7539 8.34961-46.6797C8.10547-45.7031 8.30078-44.6777 10.2539-43.8965L13.1348-42.6758C14.3066-42.1387 14.7949-41.2598 14.5508-40.0391C14.3066-38.7695 13.8184-38.1348 12.5-37.8906L9.42383-37.4512C7.37305-37.1582 6.83594-36.2793 6.83594-35.2051C6.83594-34.1309 7.37305-33.252 9.42383-32.959L12.5-32.5195C13.8184-32.3242 14.3555-31.6406 14.5508-30.3711C14.6973-29.248 14.3066-28.2715 13.1348-27.7832L10.2051-26.5625C8.30078-25.7324 8.05664-24.7559 8.34961-23.7305C8.64258-22.7051 9.375-21.9727 11.4258-22.2656L14.4531-22.6562C15.7715-22.8027 16.5039-22.168 17.0898-20.9961C17.5293-19.9707 17.334-18.8965 16.3574-18.1641L13.916-16.2109C12.207-14.8926 12.2559-13.916 12.8418-12.9883C13.3301-12.0117 14.1602-11.5234 16.1133-12.3047L19.043-13.5254C20.166-14.0137 21.2402-13.5254 21.9238-12.6465C22.6562-11.7188 22.7539-10.7422 21.9727-9.66797L20.0684-7.22656C18.8477-5.56641 19.043-4.54102 19.8242-3.75977C20.6055-3.02734 21.582-2.7832 23.1934-4.05273L25.6836-5.95703C26.709-6.68945 27.6855-6.5918 28.8086-5.81055C29.6875-5.12695 30.0293-4.15039 29.541-2.97852L28.418-0.0488281C27.5879 1.9043 28.0762 2.68555 29.1016 3.22266C29.9805 3.80859 30.957 3.85742 32.2754 2.14844L34.2285-0.292969C35.0586-1.31836 35.9863-1.46484 37.0117-1.02539C38.0859-0.585938 38.8184 0.244141 38.6719 1.5625L38.2324 4.63867C38.0371 6.68945 38.7207 7.4707 39.7949 7.71484C40.8203 7.95898 41.7969 7.76367 42.5781 5.81055L43.75 2.92969C44.2383 1.80664 45.1172 1.36719 46.4844 1.46484C47.7051 1.61133 48.3887 2.34375 48.5352 3.56445L49.0234 6.64062C49.3164 8.69141 50.1953 9.22852 51.2695 9.22852ZM28.5645-13.5742C23.1445-19.2383 19.873-26.8066 19.873-35.2051C19.873-43.6523 23.1445-51.2207 28.5645-56.8359C31.0547-59.4238 33.8867-58.7891 35.7422-55.5664L45.3613-38.916C46.875-36.2793 46.875-34.1309 45.3613-31.4453L35.7422-14.8438C33.8867-11.6211 31.0547-10.9863 28.5645-13.5742ZM51.0254-4.05273C48.4863-4.05273 45.9473-4.3457 43.5547-4.93164C40.0391-5.81055 39.209-8.54492 41.0645-11.7676L50.6836-28.418C52.1484-31.0059 54.0527-32.1289 57.0801-32.1289L76.2695-32.1289C79.9316-32.1289 81.9336-30.0293 80.9082-26.5625C77.1484-13.5254 65.2344-4.05273 51.0254-4.05273ZM50.8789-32.666C49.5117-32.666 48.4375-33.7402 48.4375-35.1074C48.4375-36.4746 49.5117-37.5488 50.8789-37.5488C52.2461-37.5488 53.3691-36.4746 53.3691-35.1074C53.3691-33.7402 52.2461-32.666 50.8789-32.666ZM57.0801-38.2812C54.1016-38.2812 52.1484-39.4043 50.6836-41.9922L41.0645-58.6426C39.209-61.8652 40.0391-64.5996 43.5547-65.4785C45.9473-66.0645 48.4863-66.4062 51.0254-66.4062C65.2344-66.4062 77.1973-56.9336 80.9082-43.8477C81.9336-40.3809 79.9316-38.2812 76.2695-38.2812Z"/>
  </g>
  <g id="Ultralight-S" transform="matrix(1 0 0 1 510.894 696)">
   <path class="monochrome-0 multicolor-0:systemGrayColor hierarchical-0:primary SFSymbolsPreviewWireframe" d="M48.8174 6.59475C49.6192 6.59475 49.9532 6.01223 50.0645 5.00929L50.3223 1.92628C50.4756 0.254899 51.2989-0.701153 53.3404-0.893047C55.2842-1.17918 56.4321-0.37303 56.9204 1.06789L58.0049 3.99415C58.3809 4.90285 58.9068 5.37404 59.6563 5.1719C60.4092 4.92434 60.5967 4.28273 60.44 3.27296L59.9131 0.291026C59.585-1.38719 60.2198-2.48289 62.0762-3.25047C63.8736-4.00779 65.0806-3.77049 66.0855-2.29442L67.857 0.241226C68.4033 1.08742 69.0166 1.40187 69.7173 0.997576C70.4214 0.596696 70.4556-0.0937343 70.0342-1.00243L68.7295-3.79589C68.0142-5.33446 68.4014-6.62889 70.0591-7.812C71.5386-8.86229 72.8262-9.05076 74.1729-7.90623L76.5723-5.91112C77.2788-5.28074 77.9829-5.11619 78.5371-5.66698C79.1333-6.26659 78.9234-6.9287 78.2896-7.67724L76.3399-10.0278C75.1988-11.3711 75.3453-12.8926 76.441-14.1973C77.5786-15.5757 78.7368-16.1025 80.4082-15.3384L83.1563-14.0337C84.1104-13.6123 84.8042-13.6465 85.2051-14.354C85.606-15.0513 85.2915-15.6191 84.4453-16.2109L81.9131-17.9824C80.5279-18.9453 80.2906-20.1978 80.9605-21.9531C81.669-23.8447 82.8555-24.4307 84.4497-24.1514L87.5293-23.6245C88.4869-23.4712 89.1773-23.6553 89.376-24.4116C89.5747-25.21 89.107-25.687 88.1529-26.0596L85.272-27.0986C83.6949-27.6743 83.0284-28.8257 83.3111-30.7378C83.503-32.4126 84.232-33.5957 86.1338-33.7456L89.21-33.958C90.2163-34.0693 90.7989-34.4487 90.7989-35.2505C90.7989-36.0522 90.2163-36.4316 89.21-36.543L86.1338-36.7554C84.2286-36.9087 83.5064-38.0918 83.3111-39.77C83.0284-41.6685 83.6949-42.8198 85.272-43.3989L88.1563-44.438C89.107-44.814 89.5782-45.2944 89.376-46.0894C89.1739-46.8423 88.4869-47.0298 87.5259-46.8731L84.4532-46.3462C82.8623-46.0635 81.6621-46.6597 80.9571-48.5479C80.2871-50.3169 80.521-51.5557 81.9131-52.5186L84.4453-54.29C85.2915-54.8818 85.606-55.4951 85.2085-56.1504C84.8008-56.8579 84.1035-56.8853 83.1563-56.4707L80.4082-55.1592C78.7368-54.3985 77.5786-54.9287 76.4375-56.3106C75.3453-57.6084 75.1988-59.1231 76.3433-60.4697L78.293-62.8237C78.9234-63.5723 79.1368-64.2344 78.5371-64.834C77.9829-65.3848 77.2788-65.2202 76.5757-64.5864L74.1763-62.5913C72.833-61.4434 71.5318-61.6387 70.0591-62.6924C68.4014-63.8858 68.0142-65.2119 68.7295-66.7051L70.0342-69.4985C70.4556-70.4072 70.4214-71.1011 69.7173-71.4986C69.0098-71.9063 68.4385-71.5747 67.857-70.7422L66.0855-68.21C65.0772-66.7339 63.8736-66.4966 62.0659-67.2539C60.2232-68.0112 59.5884-69.1104 59.9165-70.792L60.4468-73.7774C60.5967-74.7837 60.4229-75.4253 59.6563-75.6729C58.8965-75.875 58.374-75.3902 58.0083-74.4951L56.9273-71.5689C56.439-70.1245 55.2808-69.3184 53.3335-69.6045C51.292-69.8032 50.4722-70.7525 50.3257-72.4307L50.0645-75.5068C49.9532-76.5132 49.6192-77.0957 48.8208-77.0957C48.0156-77.0957 47.6362-76.5132 47.5249-75.5103L47.2671-72.4273C47.1172-70.7559 46.294-69.7964 44.2979-69.6079C42.354-69.3286 41.1573-70.1279 40.669-71.5689L39.6299-74.4951C39.2608-75.3867 38.7417-75.8784 37.9785-75.6729C37.1631-75.4219 37.0381-74.7666 37.1494-73.7774L37.7217-70.792C38.0498-69.1104 37.4116-68.0078 35.5166-67.2505C33.751-66.4966 32.5576-66.7339 31.5493-68.21L29.7779-70.7422C29.1929-71.5781 28.5796-71.9029 27.8755-71.4986C27.2134-71.0977 27.1792-70.4072 27.6006-69.4985L28.9053-66.7051C29.6206-65.1733 29.2334-63.8755 27.5371-62.6924C26.061-61.6387 24.8086-61.4502 23.4619-62.5947L21.0625-64.5899C20.3208-65.2134 19.6133-65.3916 19.0977-64.834C18.4912-64.2241 18.7217-63.5654 19.3452-62.8237L21.2949-60.4731C22.4429-59.1299 22.293-57.6016 21.1939-56.3071C20.0459-54.9253 18.856-54.4019 17.2266-55.1626L14.4331-56.4673C13.5381-56.8819 12.834-56.8613 12.4331-56.1504C12.022-55.4849 12.3604-54.8682 13.1895-54.29L15.7217-52.5186C17.1069-51.5557 17.3477-50.2998 16.6777-48.5479C15.959-46.6563 14.7305-46.0703 13.1397-46.3496L10.0601-46.8765C9.14795-47.0298 8.45752-46.8457 8.25879-46.0894C8.06006-45.2944 8.52783-44.814 9.48194-44.4414L12.3628-43.4023C13.9434-42.8198 14.6133-41.6685 14.3237-39.7666C14.125-38.0884 13.4097-36.9087 11.501-36.7554L8.42481-36.543C7.41846-36.4316 6.83594-36.0522 6.83594-35.2505C6.83594-34.4487 7.41846-34.0693 8.42481-33.958L11.501-33.7456C13.4097-33.5957 14.1284-32.4126 14.3237-30.7344C14.6064-28.8394 13.9434-27.6812 12.3628-27.1021L9.47852-26.063C8.52783-25.687 8.05664-25.21 8.25879-24.4116C8.46094-23.6587 9.14795-23.4712 10.0635-23.6279L13.1362-24.1548C14.7725-24.4375 15.959-23.8481 16.6812-21.9497C17.3477-20.1978 17.1069-18.9419 15.7217-17.9824L13.1895-16.2109C12.3433-15.6191 12.0288-15.0513 12.4331-14.3506C12.8306-13.6465 13.5244-13.6123 14.4331-14.0303L17.2266-15.3418C18.8491-16.1025 20.0142-15.5688 21.1973-14.1904C22.293-12.8994 22.436-11.3779 21.2915-10.0312L19.3418-7.68066C18.7114-6.9287 18.4981-6.26659 19.0977-5.66698C19.6519-5.11619 20.3106-5.28074 21.0591-5.91454L23.4585-7.90965C24.8018-9.05076 26.0508-8.86229 27.5371-7.80858C29.2334-6.62548 29.6206-5.33105 28.9053-3.79589L27.6006-1.00243C27.1792-0.0937343 27.2134 0.596696 27.8755 0.997576C28.5728 1.40187 29.186 1.08742 29.7779 0.241226L31.5493-2.291C32.5611-3.77049 33.7612-4.00779 35.5132-3.25047C37.4048-2.49315 38.0464-1.39061 37.7183 0.291026L37.1426 3.27638C37.0381 4.28273 37.1768 4.92775 37.9785 5.1719C38.7315 5.37063 39.2539 4.90285 39.6265 3.99415L40.7075 1.06789C41.1958-0.37303 42.3472-1.17576 44.3047-0.896466C46.2974-0.704572 47.1172 0.254899 47.2637 1.9297L47.5249 5.00587C47.6362 6.01223 48.0156 6.59475 48.8174 6.59475ZM28.9277-9.62357C21.2373-15.5601 16.2857-24.854 16.2857-35.2959C16.2857-45.7412 21.2373-55.0351 28.8823-60.9682C30.5552-62.3301 31.9341-62.2402 32.836-60.7431L46.2695-37.4175C47.1475-35.916 47.1475-34.2671 46.0879-32.7168L32.9268-9.93949C31.9795-8.26077 30.646-8.30715 28.9277-9.62357ZM48.8003-2.78126C44.4449-2.78126 40.3619-3.66456 36.607-5.2041C34.3174-6.12842 33.8506-7.22804 34.8433-8.86135L48.0498-31.6875C49.0606-33.458 50.2837-34.1269 52.4937-34.1269L78.8125-34.1269C80.9307-34.1269 81.2524-32.8901 80.9082-30.7856C78.7378-14.9785 65.2344-2.78126 48.8003-2.78126ZM48.7901-34.3008C48.2402-34.3008 47.8018-34.7392 47.8018-35.2891C47.8018-35.8389 48.2402-36.2774 48.7901-36.2774C49.3399-36.2774 49.7818-35.8389 49.7818-35.2891C49.7818-34.7392 49.3399-34.3008 48.7901-34.3008ZM52.4937-36.374C50.378-36.374 49.0606-37.1338 48.2315-38.541L34.7979-61.8667C33.896-63.4092 34.4082-64.5542 36.5616-65.3877C40.3165-66.9272 44.4449-67.814 48.8003-67.814C65.2344-67.814 78.7866-55.6167 80.9082-39.67C81.2524-37.5655 81.0215-36.374 78.8579-36.374Z"/>
  </g>
 </g>
</svg>
