<svg xmlns="http://www.w3.org/2000/svg" viewBox="7.638 -75.028 89.363 84.529" aria-hidden="true" data-sf-symbol="plus.bubble">
 <g fill="black">
  <path d="M34.2773 7.37305C36.4258 7.37305 37.8906 6.25 40.5273 3.85742L53.6133-7.86133L76.5625-7.86133C88.5742-7.86133 94.873-14.3555 94.873-26.1719L94.873-54.5898C94.873-66.4062 88.5742-72.9004 76.5625-72.9004L28.0762-72.9004C16.0645-72.9004 9.76562-66.4062 9.76562-54.5898L9.76562-26.1719C9.76562-14.3555 16.0645-7.86133 28.0762-7.86133L29.4922-7.86133L29.4922 1.85547C29.4922 5.22461 31.2012 7.37305 34.2773 7.37305ZM36.084-0.634766L36.084-11.6211C36.084-14.0137 35.2051-14.8926 32.8125-14.8926L28.0762-14.8926C20.2148-14.8926 16.7969-18.6523 16.7969-26.1719L16.7969-54.5898C16.7969-62.0605 20.2148-65.8203 28.0762-65.8203L76.5625-65.8203C84.4238-65.8203 87.8418-62.0605 87.8418-54.5898L87.8418-26.1719C87.8418-18.6523 84.4238-14.8926 76.5625-14.8926L53.2227-14.8926C50.8789-14.8926 49.6582-14.5508 48.0957-12.8906Z"/>
  <path d="M55.957-26.1719L55.957-54.5898C55.957-56.8848 54.4922-58.3496 52.2461-58.3496C50.0977-58.3496 48.6328-56.8848 48.6328-54.5898L48.6328-26.1719C48.6328-23.9746 50.0977-22.4609 52.2461-22.4609C54.4922-22.4609 55.957-23.9746 55.957-26.1719ZM38.1348-36.7676L66.5527-36.7676C68.75-36.7676 70.2637-38.2324 70.2637-40.3809C70.2637-42.5781 68.75-44.0918 66.5527-44.0918L38.1348-44.0918C35.8887-44.0918 34.375-42.5781 34.375-40.3809C34.375-38.2324 35.8887-36.7676 38.1348-36.7676Z"/>
 </g>
</svg>
