<svg xmlns="http://www.w3.org/2000/svg" viewBox="4.696 -73.289 76.507 76.181" aria-hidden="true" data-sf-symbol="location">
 <g fill="black">
  <path d="M10.1562-42.7734C4.24805-40.0391 5.9082-32.0801 12.4512-32.0312L39.209-31.9336C39.6973-31.9336 39.7949-31.7871 39.7949-31.3477L39.8926-4.73633C39.9414 2.00195 47.998 3.27148 50.9277-3.02734L78.5156-62.6953C81.4453-68.9453 76.5137-73.4863 70.2148-70.5566ZM17.9688-38.8672C17.8711-38.8672 17.8223-38.9648 17.9688-39.0137L70.6543-62.9395C70.8008-63.0371 70.8984-62.9883 70.752-62.793L46.7285-10.2051C46.6797-10.0586 46.6309-10.0586 46.6309-10.2051L46.8262-35.8887C46.8262-37.7441 45.5078-39.0625 43.6523-39.0625Z"/>
 </g>
</svg>
