<svg xmlns="http://www.w3.org/2000/svg" viewBox="7.603 -76.04 90.85 81.768" aria-hidden="true" data-sf-symbol="checklist">
 <g fill="black">
  <path d="M55.0781-9.66797L92.7246-9.66797C94.6777-9.66797 96.2891-11.2305 96.2891-13.1836C96.2891-15.1367 94.6777-16.6992 92.7246-16.6992L55.0781-16.6992C53.125-16.6992 51.5625-15.1367 51.5625-13.1836C51.5625-11.2305 53.125-9.66797 55.0781-9.66797Z"/>
  <path d="M26.5137 3.56445C35.5957 3.56445 43.1641-4.10156 43.1641-13.1836C43.1641-22.3145 35.5957-29.9316 26.5137-29.9316C17.334-29.9316 9.76562-22.3145 9.76562-13.1836C9.76562-4.10156 17.3828 3.56445 26.5137 3.56445ZM26.5137-2.7832C20.8496-2.7832 16.1133-7.56836 16.1133-13.1836C16.1133-18.7988 20.8984-23.584 26.5137-23.584C32.0801-23.584 36.8164-18.7988 36.8164-13.1836C36.8164-7.56836 32.0801-2.7832 26.5137-2.7832Z"/>
  <path d="M55.0781-53.6133L92.7246-53.6133C94.6777-53.6133 96.2891-55.1758 96.2891-57.1289C96.2891-59.082 94.6777-60.6445 92.7246-60.6445L55.0781-60.6445C53.125-60.6445 51.5625-59.082 51.5625-57.1289C51.5625-55.1758 53.125-53.6133 55.0781-53.6133Z"/>
  <path d="M26.5137-40.4297C35.5957-40.4297 43.1641-48.0957 43.1641-57.1777C43.1641-66.3086 35.5957-73.877 26.5137-73.877C17.334-73.877 9.76562-66.3086 9.76562-57.1777C9.76562-48.0957 17.3828-40.4297 26.5137-40.4297ZM24.5117-48.291C23.6328-48.291 23.0469-48.7793 22.4121-49.4629L18.3105-54.4434C17.9688-54.9316 17.8223-55.4199 17.8223-56.1035C17.8223-57.2754 18.7012-58.2031 19.8242-58.2031C20.6055-58.2031 21.1426-57.9102 21.7285-57.1289L24.4141-53.6133L30.957-64.1602C31.3965-64.9414 32.0312-65.332 32.8125-65.332C33.9355-65.332 34.9121-64.4531 34.9121-63.3789C34.9121-62.8418 34.7656-62.3535 34.375-61.7188L26.6602-49.4629C26.1719-48.7305 25.3906-48.291 24.5117-48.291Z"/>
 </g>
</svg>
