<svg xmlns="http://www.w3.org/2000/svg" viewBox="7.819 -65.424 81.775 60.437" aria-hidden="true" data-sf-symbol="list.bullet">
 <g fill="black">
  <path d="M32.0312-8.39844L84.082-8.39844C86.0352-8.39844 87.6465-9.96094 87.6465-11.9141C87.6465-13.916 86.0352-15.4297 84.082-15.4297L32.0312-15.4297C30.0781-15.4297 28.5156-13.916 28.5156-11.9141C28.5156-9.96094 30.0781-8.39844 32.0312-8.39844Z"/>
  <path d="M14.7461-6.93359C17.4805-6.93359 19.7266-9.17969 19.7266-11.9141C19.7266-14.6973 17.4805-16.8945 14.7461-16.8945C12.0117-16.8945 9.76562-14.6973 9.76562-11.9141C9.76562-9.17969 12.0117-6.93359 14.7461-6.93359Z"/>
  <path d="M32.0312-31.6895L84.082-31.6895C86.0352-31.6895 87.6465-33.252 87.6465-35.2051C87.6465-37.1582 86.0352-38.7207 84.082-38.7207L32.0312-38.7207C30.0781-38.7207 28.5156-37.1582 28.5156-35.2051C28.5156-33.252 30.0781-31.6895 32.0312-31.6895Z"/>
  <path d="M14.7461-30.2246C17.4805-30.2246 19.7266-32.4707 19.7266-35.2051C19.7266-37.9395 17.4805-40.1855 14.7461-40.1855C12.0117-40.1855 9.76562-37.9395 9.76562-35.2051C9.76562-32.4707 12.0117-30.2246 14.7461-30.2246Z"/>
  <path d="M32.0312-54.9805L84.082-54.9805C86.0352-54.9805 87.6465-56.543 87.6465-58.4961C87.6465-60.4492 86.0352-62.0117 84.082-62.0117L32.0312-62.0117C30.0781-62.0117 28.5156-60.4492 28.5156-58.4961C28.5156-56.543 30.0781-54.9805 32.0312-54.9805Z"/>
  <path d="M14.7461-53.5156C17.4805-53.5156 19.7266-55.7617 19.7266-58.4961C19.7266-61.2305 17.4805-63.4766 14.7461-63.4766C12.0117-63.4766 9.76562-61.2305 9.76562-58.4961C9.76562-55.7617 12.0117-53.5156 14.7461-53.5156Z"/>
 </g>
</svg>
