<svg xmlns="http://www.w3.org/2000/svg" viewBox="7.819 -70.697 81.775 69.031" aria-hidden="true" data-sf-symbol="list.number">
 <g fill="black">
  <path d="M35.4004-8.39844L84.082-8.39844C86.0352-8.39844 87.6465-9.96094 87.6465-11.9141C87.6465-13.8672 86.0352-15.4297 84.082-15.4297L35.4004-15.4297C33.4473-15.4297 31.8848-13.8672 31.8848-11.9141C31.8848-9.96094 33.4473-8.39844 35.4004-8.39844Z"/>
  <path d="M16.6992-3.61328C21.4355-3.61328 24.2188-5.66406 24.2188-8.98438C24.2188-11.1816 22.6562-12.5977 20.0195-12.8418L20.0195-12.9395C21.9238-13.2812 23.5352-14.5508 23.5352-16.7969C23.5352-19.873 20.5566-21.4844 16.6504-21.4844C13.5742-21.4844 10.2051-20.0684 10.2051-17.4316C10.2051-16.3086 11.0352-15.4785 12.3047-15.4785C13.1836-15.4785 13.5742-15.8203 14.1602-16.4062C15.0879-17.334 15.7715-17.5781 16.6504-17.5781C17.7734-17.5781 18.6035-17.0898 18.6035-16.0156C18.6035-14.9414 17.7734-14.4531 16.2598-14.4531L15.8691-14.4531C14.7461-14.4531 14.0137-13.916 14.0137-12.7441C14.0137-11.6211 14.6973-10.9863 15.8691-10.9863L16.3086-10.9863C17.9688-10.9863 18.7988-10.498 18.7988-9.375C18.7988-8.34961 17.9199-7.66602 16.6992-7.66602C15.332-7.66602 14.4043-8.49609 13.6719-9.08203C13.2324-9.47266 12.8418-9.81445 12.0605-9.81445C10.6934-9.81445 9.76562-9.0332 9.76562-7.76367C9.76562-5.07812 13.4766-3.61328 16.6992-3.61328Z"/>
  <path d="M35.4004-31.6895L84.082-31.6895C86.0352-31.6895 87.6465-33.252 87.6465-35.2051C87.6465-37.1582 86.0352-38.7207 84.082-38.7207L35.4004-38.7207C33.4473-38.7207 31.8848-37.1582 31.8848-35.2051C31.8848-33.252 33.4473-31.6895 35.4004-31.6895Z"/>
  <path d="M12.1094-27.5879L22.1191-27.5879C23.2422-27.5879 24.1211-28.3691 24.1211-29.541C24.1211-30.7617 23.2422-31.543 22.1191-31.543L16.8457-31.543L16.8457-31.6406L19.8242-33.9844C22.4609-36.084 23.584-37.3535 23.584-39.6973C23.584-42.8223 20.8984-44.9707 16.6016-44.9707C12.8418-44.9707 10.1074-43.0664 10.1074-40.5273C10.1074-39.2578 10.9375-38.5254 12.4023-38.5254C13.2812-38.5254 13.916-38.8184 14.502-39.6973C15.0879-40.5762 15.7227-41.0156 16.6992-41.0156C17.7734-41.0156 18.5059-40.332 18.5059-39.3066C18.5059-38.4766 18.0664-37.6953 16.0645-36.084L10.9863-32.0801C10.2051-31.3965 9.86328-30.6641 9.86328-29.7852C9.86328-28.4668 10.7422-27.5879 12.1094-27.5879Z"/>
  <path d="M35.4004-54.9805L84.082-54.9805C86.0352-54.9805 87.6465-56.543 87.6465-58.4961C87.6465-60.4492 86.0352-62.0117 84.082-62.0117L35.4004-62.0117C33.4473-62.0117 31.8848-60.4492 31.8848-58.4961C31.8848-56.543 33.4473-54.9805 35.4004-54.9805Z"/>
  <path d="M18.457-50.8789C20.0195-50.8789 21.0938-51.709 21.0938-53.6133L21.0938-65.918C21.0938-67.6758 19.873-68.75 18.1152-68.75C16.6504-68.75 15.7715-68.2617 14.7461-67.627L12.0605-65.7227C11.2793-65.1855 10.8398-64.6973 10.8398-63.8184C10.8398-62.7441 11.6699-62.0605 12.5977-62.0605C13.0859-62.0605 13.3301-62.1582 13.9648-62.5977L15.6738-63.6719L15.7227-63.6719L15.7227-53.6133C15.7227-51.709 16.7969-50.8789 18.457-50.8789Z"/>
 </g>
</svg>
