<svg xmlns="http://www.w3.org/2000/svg" viewBox="7.483 -83.191 73.071 95.874" aria-hidden="true" data-sf-symbol="magazine">
 <g fill="black">
  <path d="M64.4531-66.2109L68.75-66.2109C70.459-66.2109 71.2402-65.332 71.2402-63.3301L71.2402-5.51758C71.2402-3.22266 70.9473-2.39258 68.75-1.51367C60.8398 1.9043 50.4395 4.00391 40.3809 4.05273C34.7168 4.00391 29.1992 3.71094 23.2422 2.73438L23.2422 3.32031C39.6973 3.66211 54.7363-1.41602 61.4258-6.44531C64.3555-8.69141 65.2344-10.1562 65.2344-13.8184L65.2344-74.8535C65.2344-78.8574 63.2812-80.9082 59.5703-80.9082C58.3496-80.9082 56.8359-80.6641 55.0781-80.0293C43.7012-76.2695 33.8867-73.6328 19.9219-73.6328L16.6016-73.6328C12.3047-73.6328 9.76562-71.0938 9.76562-67.2852L9.76562-1.2207C9.76562 1.75781 10.3516 3.80859 13.3301 5.32227C19.4336 8.25195 29.3457 10.4004 40.3809 10.4004C51.1719 10.4004 62.9883 8.88672 72.168 4.54102C77.0996 2.19727 78.2715 0.0976562 78.2715-5.0293L78.2715-63.3789C78.2715-70.166 75.293-73.2422 68.75-73.2422L64.4531-73.2422ZM16.7969-4.6875L16.7969-65.2832C16.7969-66.1621 17.2852-66.6992 18.1152-66.6992L20.2637-66.6992C33.7402-66.6992 46.0449-69.5801 56.2988-72.8516C57.5195-73.2422 58.2031-72.9004 58.2031-71.8262L58.2031-15.2832C58.2031-13.1836 57.9102-12.3047 55.8105-10.9863C47.8516-5.76172 35.5469-2.44141 18.0664-3.36914C17.1387-3.41797 16.7969-3.80859 16.7969-4.6875ZM24.3652-56.6406L24.3652-44.1406C24.3652-43.5547 24.8047-43.2617 25.293-43.2617C34.2773-43.3105 43.1152-44.9707 50-47.7539C50.3418-47.9004 50.5371-48.2422 50.5371-48.584L50.5371-61.7188C50.5371-62.5977 49.7559-62.793 49.3164-62.5977C41.4062-59.5703 33.9844-58.0078 25.293-57.6172C24.7559-57.5684 24.3652-57.1777 24.3652-56.6406Z"/>
 </g>
</svg>
