<svg xmlns="http://www.w3.org/2000/svg" viewBox="7.638 -75.028 89.363 84.529" aria-hidden="true" data-sf-symbol="quote.bubble">
 <g fill="black">
  <path d="M34.2773 7.37305C36.4258 7.37305 37.8906 6.25 40.5273 3.85742L53.6133-7.86133L76.5625-7.86133C88.5742-7.86133 94.873-14.3555 94.873-26.1719L94.873-54.5898C94.873-66.4062 88.5742-72.9004 76.5625-72.9004L28.0762-72.9004C16.0645-72.9004 9.76562-66.4062 9.76562-54.5898L9.76562-26.1719C9.76562-14.3555 16.0645-7.86133 28.0762-7.86133L29.4922-7.86133L29.4922 1.85547C29.4922 5.22461 31.2012 7.37305 34.2773 7.37305ZM36.084-0.634766L36.084-11.6211C36.084-14.0137 35.2051-14.8926 32.8125-14.8926L28.0762-14.8926C20.2148-14.8926 16.7969-18.6523 16.7969-26.1719L16.7969-54.5898C16.7969-62.0605 20.2148-65.8203 28.0762-65.8203L76.5625-65.8203C84.4238-65.8203 87.8418-62.0605 87.8418-54.5898L87.8418-26.1719C87.8418-18.6523 84.4238-14.8926 76.5625-14.8926L53.2227-14.8926C50.8789-14.8926 49.6582-14.5508 48.0957-12.8906Z"/>
  <path d="M33.7891-44.5312C33.7891-40.1367 36.5234-36.7188 40.8691-36.7188C42.4316-36.7188 43.9941-36.9141 44.9707-38.1348L45.2637-38.1348C43.8477-35.1074 41.1621-33.2031 38.5254-32.5195C37.0605-32.1289 36.6211-31.4453 36.6211-30.5176C36.6211-29.4922 37.4512-28.6621 38.5742-28.6621C42.627-28.6621 50.3418-33.3496 50.3418-43.1152C50.3418-48.291 47.0215-52.3438 41.9434-52.3438C37.3047-52.3438 33.7891-49.1699 33.7891-44.5312ZM54.3457-44.5312C54.3457-40.1367 57.0312-36.7188 61.4258-36.7188C62.9395-36.7188 64.5508-36.9141 65.5273-38.1348L65.8203-38.1348C64.4043-35.1074 61.6699-33.2031 59.082-32.5195C57.6172-32.1289 57.1777-31.4453 57.1777-30.5176C57.1777-29.4922 57.959-28.6621 59.1309-28.6621C63.1836-28.6621 70.8496-33.3496 70.8496-43.1152C70.8496-48.291 67.5781-52.3438 62.5-52.3438C57.8613-52.3438 54.3457-49.1699 54.3457-44.5312Z"/>
 </g>
</svg>
