<svg xmlns="http://www.w3.org/2000/svg" viewBox="7.628 -64.198 89.773 57.986" aria-hidden="true" data-sf-symbol="quote.opening">
 <g fill="black">
  <path d="M48.584-27.0508C48.584-37.3535 40.9668-45.5566 31.2012-45.5566C26.7578-45.5566 22.6074-43.8477 19.5801-40.625L18.5547-40.625C20.9473-47.8027 27.6367-53.0762 35.2051-55.5664C36.5234-56.0059 37.4512-56.3965 37.9883-56.9336C38.5742-57.5195 38.8184-58.2031 38.8184-59.082C38.8184-60.8398 37.5-62.0605 35.5469-62.0605C34.375-62.0605 33.5449-61.8652 31.8359-61.2793C26.6113-59.4727 21.9238-56.4453 18.2617-52.6367C13.0371-47.2168 9.76562-39.9414 9.76562-31.3477C9.76562-16.748 18.9941-8.34961 29.834-8.34961C40.5273-8.34961 48.584-16.5039 48.584-27.0508ZM95.2637-27.0508C95.2637-37.3535 87.5488-45.5566 77.8809-45.5566C73.3887-45.5566 69.2383-43.8477 66.2598-40.625L65.1855-40.625C67.5781-47.8027 74.3164-53.0762 81.7871-55.5664C83.1055-56.0059 84.082-56.3965 84.6191-56.9336C85.2051-57.5195 85.4492-58.2031 85.4492-59.082C85.4492-60.8398 84.1309-62.0605 82.1777-62.0605C80.957-62.0605 80.2246-61.8652 78.418-61.2793C73.291-59.4727 68.5547-56.4453 64.8438-52.6367C59.668-47.2168 56.3965-39.9414 56.3965-31.3477C56.3965-16.748 65.625-8.34961 76.4648-8.34961C87.1582-8.34961 95.2637-16.5039 95.2637-27.0508Z"/>
 </g>
</svg>
