<svg xmlns="http://www.w3.org/2000/svg" viewBox="7.628 -64.198 89.773 57.986" aria-hidden="true" data-sf-symbol="quote.closing">
 <g fill="black">
  <path d="M9.76562-43.4082C9.76562-33.0566 17.4316-24.8535 27.1484-24.8535C31.6406-24.8535 35.791-26.6113 38.7695-29.7852L39.8438-29.7852C37.4023-22.6074 30.7129-17.334 23.1934-14.8438C21.875-14.4043 20.8984-14.0137 20.4102-13.4766C19.7754-12.8906 19.5801-12.207 19.5801-11.377C19.5801-9.57031 20.8496-8.34961 22.8027-8.34961C24.0234-8.34961 24.8047-8.54492 26.5625-9.13086C31.7383-10.9375 36.4746-13.9648 40.1367-17.7734C45.3613-23.1934 48.584-30.4688 48.584-39.0625C48.584-53.6621 39.3555-62.0605 28.5156-62.0605C17.8223-62.0605 9.76562-53.9062 9.76562-43.4082ZM56.3965-43.4082C56.3965-33.0566 64.0625-24.8535 73.7793-24.8535C78.2715-24.8535 82.373-26.6113 85.4004-29.7852L86.4258-29.7852C84.082-22.6074 77.3438-17.334 69.8242-14.8438C68.5059-14.4043 67.5781-14.0137 67.041-13.4766C66.4551-12.8906 66.1621-12.207 66.1621-11.377C66.1621-9.57031 67.5293-8.34961 69.4824-8.34961C70.6543-8.34961 71.4355-8.54492 73.1934-9.13086C78.3691-10.9375 83.1055-13.9648 86.7676-17.7734C91.9922-23.1934 95.2637-30.4688 95.2637-39.0625C95.2637-53.6621 85.9863-62.0605 75.1953-62.0605C64.502-62.0605 56.3965-53.9062 56.3965-43.4082Z"/>
 </g>
</svg>
