<svg xmlns="http://www.w3.org/2000/svg" viewBox="7.695 -78.389 86.953 86.27" aria-hidden="true" data-sf-symbol="scroll">
 <g fill="black">
  <path d="M9.76562-57.373C9.76562-54.834 11.5234-53.125 14.1113-53.125L23.7793-53.125L23.7793-6.64062C23.7793 1.70898 27.832 5.81055 36.1816 5.81055L80.0781 5.81055C87.5488 5.81055 92.5781 0.634766 92.5781-7.12891L92.5781-17.5293C92.5781-20.0684 90.8203-21.7773 88.2324-21.7773L85.3027-21.7773L85.3027-63.8672C85.3027-72.168 81.25-76.3184 73.0469-76.3184L20.3125-76.3184C14.0137-76.3184 9.76562-71.9727 9.76562-65.3809ZM30.8105-6.5918L30.8105-65.3809C30.8105-66.6992 30.7617-68.0176 30.7129-69.2871L72.6562-69.2871C76.3672-69.2871 78.2715-67.2852 78.2715-63.7695L78.2715-21.7773L45.8496-21.7773C43.2617-21.7773 41.5039-20.0684 41.5039-17.5293L41.5039-6.5918C41.5039-3.4668 39.1602-1.2207 36.1816-1.2207C33.2031-1.2207 30.8105-3.61328 30.8105-6.5918ZM16.7969-60.1562L16.7969-65.3809C16.7969-67.7246 18.2617-69.2871 20.3125-69.2871C22.3633-69.2871 23.7793-67.7246 23.7793-65.3809L23.7793-60.1562ZM47.3633-1.2207C48.0957-2.92969 48.5352-4.88281 48.5352-7.08008L48.5352-14.7461L85.5469-14.7461L85.5469-7.12891C85.5469-3.56445 83.3496-1.2207 80.0781-1.2207ZM41.9922-39.7949L55.2734-39.7949C56.7871-39.7949 57.9102-40.918 57.9102-42.3828C57.9102-43.8965 56.7871-45.0684 55.2734-45.0684L41.9922-45.0684C40.4297-45.0684 39.3066-43.8965 39.3066-42.3828C39.3066-40.918 40.4297-39.7949 41.9922-39.7949ZM41.9922-53.0762L67.1387-53.0762C68.6523-53.0762 69.7754-54.248 69.7754-55.7617C69.7754-57.2266 68.6523-58.3496 67.1387-58.3496L41.9922-58.3496C40.4297-58.3496 39.3066-57.2266 39.3066-55.7617C39.3066-54.248 40.4297-53.0762 41.9922-53.0762Z"/>
 </g>
</svg>
