<svg xmlns="http://www.w3.org/2000/svg" viewBox="2.883 -73.094 88.326 75.68" aria-hidden="true" data-sf-symbol="text.line.magnify">
 <g fill="black">
  <path d="M18.0664-64.0625L75.9766-64.0625C77.9785-64.0625 79.541-65.625 79.541-67.5781C79.541-69.5801 77.9785-71.0938 75.9766-71.0938L18.0664-71.0938C16.1133-71.0938 14.5508-69.5801 14.5508-67.5781C14.5508-65.625 16.1133-64.0625 18.0664-64.0625ZM18.0664-39.1113L75.9766-39.1113C77.9785-39.1113 79.541-40.6738 79.541-42.627C79.541-44.6289 77.9785-46.1426 75.9766-46.1426L18.0664-46.1426C16.1133-46.1426 14.5508-44.6289 14.5508-42.627C14.5508-40.6738 16.1133-39.1113 18.0664-39.1113ZM18.0664-14.4531L75.9766-14.4531C77.9785-14.4531 79.541-16.0156 79.541-17.9688C79.541-19.9707 77.9785-21.4844 75.9766-21.4844L18.0664-21.4844C16.1133-21.4844 14.5508-19.9707 14.5508-17.9688C14.5508-16.0156 16.1133-14.4531 18.0664-14.4531ZM18.0664 0.585938L75.9766 0.585938C77.9785 0.585938 79.541-0.927734 79.541-2.92969C79.541-4.88281 77.9785-6.44531 75.9766-6.44531L18.0664-6.44531C16.1133-6.44531 14.5508-4.88281 14.5508-2.92969C14.5508-0.927734 16.1133 0.585938 18.0664 0.585938Z"/>
  <path d="M18.0664-29.5898L76.0254-29.5898C83.4473-29.5898 89.209-35.4004 89.209-42.7734C89.209-50.1465 83.4473-55.957 76.0254-55.957L18.0664-55.957C10.6934-55.957 4.88281-50.1465 4.88281-42.7734C4.88281-35.4004 10.6934-29.5898 18.0664-29.5898ZM18.0664-34.3262C13.3301-34.3262 9.61914-38.0371 9.61914-42.7734C9.61914-47.5098 13.3301-51.2207 18.0664-51.2207L76.0254-51.2207C80.7617-51.2207 84.5215-47.5098 84.5215-42.7734C84.5215-38.0371 80.7617-34.3262 76.0254-34.3262Z"/>
 </g>
</svg>
