<svg xmlns="http://www.w3.org/2000/svg" viewBox="-7.791 -78.859 107.769 79.716" aria-hidden="true" data-sf-symbol="text.line.first.and.arrowtriangle.forward">
 <g fill="black">
  <path d="M23.0469-1.70898L93.8477-1.70898C95.8008-1.70898 97.4121-3.27148 97.4121-5.22461C97.4121-7.17773 95.8008-8.74023 93.8477-8.74023L23.0469-8.74023C21.0938-8.74023 19.5312-7.17773 19.5312-5.22461C19.5312-3.27148 21.0938-1.70898 23.0469-1.70898Z"/>
  <path d="M23.0469-21.7285L93.8477-21.7285C95.8008-21.7285 97.4121-23.291 97.4121-25.2441C97.4121-27.1973 95.8008-28.7598 93.8477-28.7598L23.0469-28.7598C21.0938-28.7598 19.5312-27.1973 19.5312-25.2441C19.5312-23.291 21.0938-21.7285 23.0469-21.7285Z"/>
  <path d="M23.0469-41.748L93.8477-41.748C95.8008-41.748 97.4121-43.3105 97.4121-45.2637C97.4121-47.2168 95.8008-48.7793 93.8477-48.7793L23.0469-48.7793C21.0938-48.7793 19.5312-47.2168 19.5312-45.2637C19.5312-43.3105 21.0938-41.748 23.0469-41.748Z"/>
  <path d="M24.8535-58.5938L92.0898-58.5938C95.6543-58.5938 97.4121-60.3027 97.4121-63.8672L97.4121-66.748C97.4121-70.2148 95.6543-71.9727 92.0898-71.9727L24.8535-71.9727C21.2891-71.9727 19.5312-70.2148 19.5312-66.748L19.5312-63.8672C19.5312-60.3027 21.2891-58.5938 24.8535-58.5938Z"/>
  <path d="M-1.46484-54.7363L12.0605-62.9883C13.9648-64.1602 13.916-66.3574 12.0605-67.4805L-1.46484-75.7812C-3.4668-77.002-5.22461-75.9277-5.22461-73.7305L-5.22461-56.7383C-5.22461-54.4922-3.4668-53.5156-1.46484-54.7363Z"/>
 </g>
</svg>
