<svg xmlns="http://www.w3.org/2000/svg" viewBox="7.708 -78.474 69.155 86.44" aria-hidden="true" data-sf-symbol="text.page">
 <g fill="black">
  <path d="M9.76562-6.54297C9.76562 1.80664 13.8184 5.9082 22.0215 5.9082L62.5 5.9082C70.7031 5.9082 74.8047 1.80664 74.8047-6.54297L74.8047-63.9648C74.8047-72.2656 70.7031-76.416 62.5-76.416L22.0215-76.416C13.8184-76.416 9.76562-72.2656 9.76562-63.9648ZM16.7969-6.64062L16.7969-63.8672C16.7969-67.3828 18.7012-69.3848 22.4121-69.3848L62.1582-69.3848C65.8203-69.3848 67.7246-67.3828 67.7246-63.8672L67.7246-6.64062C67.7246-3.125 65.8203-1.12305 62.1582-1.12305L22.4121-1.12305C18.7012-1.12305 16.7969-3.125 16.7969-6.64062Z"/>
  <path d="M28.125-53.2227L56.4941-53.2227C58.0078-53.2227 59.1309-54.3945 59.1309-55.9082C59.1309-57.373 58.0078-58.4961 56.4941-58.4961L28.125-58.4961C26.5625-58.4961 25.4395-57.373 25.4395-55.9082C25.4395-54.3945 26.5625-53.2227 28.125-53.2227Z"/>
  <path d="M28.125-39.8926L56.4941-39.8926C58.0078-39.8926 59.1309-41.1133 59.1309-42.627C59.1309-44.043 58.0078-45.2148 56.4941-45.2148L28.125-45.2148C26.5625-45.2148 25.4395-44.043 25.4395-42.627C25.4395-41.1133 26.5625-39.8926 28.125-39.8926Z"/>
  <path d="M28.125-26.6113L41.4062-26.6113C42.9199-26.6113 44.043-27.7344 44.043-29.1992C44.043-30.7129 42.9199-31.8848 41.4062-31.8848L28.125-31.8848C26.5625-31.8848 25.4395-30.7129 25.4395-29.1992C25.4395-27.7344 26.5625-26.6113 28.125-26.6113Z"/>
 </g>
</svg>
