<svg xmlns="http://www.w3.org/2000/svg" viewBox="-7.791 -71.365 107.769 79.716" aria-hidden="true" data-sf-symbol="text.line.last.and.arrowtriangle.forward">
 <g fill="black">
  <path d="M23.0469-68.7988C21.0938-68.7988 19.5312-67.2363 19.5312-65.2832C19.5312-63.3301 21.0938-61.7676 23.0469-61.7676L93.8477-61.7676C95.8008-61.7676 97.4121-63.3301 97.4121-65.2832C97.4121-67.2363 95.8008-68.7988 93.8477-68.7988Z"/>
  <path d="M23.0469-48.7793C21.0938-48.7793 19.5312-47.2168 19.5312-45.2637C19.5312-43.3105 21.0938-41.748 23.0469-41.748L93.8477-41.748C95.8008-41.748 97.4121-43.3105 97.4121-45.2637C97.4121-47.2168 95.8008-48.7793 93.8477-48.7793Z"/>
  <path d="M23.0469-28.7598C21.0938-28.7598 19.5312-27.1973 19.5312-25.2441C19.5312-23.291 21.0938-21.7285 23.0469-21.7285L93.8477-21.7285C95.8008-21.7285 97.4121-23.291 97.4121-25.2441C97.4121-27.1973 95.8008-28.7598 93.8477-28.7598Z"/>
  <path d="M24.8535-11.9141C21.2891-11.9141 19.5312-10.2051 19.5312-6.64062L19.5312-3.75977C19.5312-0.292969 21.2891 1.46484 24.8535 1.46484L92.0898 1.46484C95.6543 1.46484 97.4121-0.292969 97.4121-3.75977L97.4121-6.64062C97.4121-10.2051 95.6543-11.9141 92.0898-11.9141Z"/>
  <path d="M-1.46484-15.7715C-3.4668-16.9922-5.22461-16.0156-5.22461-13.7695L-5.22461 3.22266C-5.22461 5.41992-3.4668 6.49414-1.46484 5.27344L12.0605-3.02734C13.916-4.15039 13.9648-6.34766 12.0605-7.51953Z"/>
 </g>
</svg>
