<svg xmlns="http://www.w3.org/2000/svg" viewBox="7.72 -76.509 85.928 82.51" aria-hidden="true" data-sf-symbol="bubbles.and.sparkles">
 <g fill="black">
  <path d="M77.3438 3.95508C78.2227 3.95508 79.0039 3.27148 79.1504 2.34375C80.2734-6.64062 80.3711-6.64062 89.9902-8.44727C90.918-8.64258 91.6016-9.375 91.6016-10.2539C91.6016-11.1816 90.918-11.9141 89.9414-12.0605C80.5176-13.2812 80.2246-13.5742 79.1504-22.8027C79.0527-23.7793 78.2715-24.4629 77.3438-24.4629C76.3672-24.4629 75.6348-23.7305 75.5371-22.7539C74.5117-13.8184 74.2188-13.8184 64.6484-12.0605C63.7207-11.8652 63.0859-11.1328 63.0859-10.2539C63.0859-9.32617 63.7695-8.64258 64.8438-8.44727C74.2188-7.03125 74.5117-6.68945 75.5371 2.24609C75.6348 3.22266 76.3672 3.95508 77.3438 3.95508Z"/>
  <path d="M35.4004-53.6133C36.084-53.6133 36.6699-54.1016 36.8164-54.834C38.0859-61.4746 37.9395-61.3281 44.5801-62.5977C45.3613-62.7441 45.8008-63.3301 45.8008-64.0137C45.8008-64.7461 45.3613-65.332 44.5801-65.4297C37.9395-66.748 38.0859-66.6016 36.8164-73.2422C36.6699-73.9746 36.084-74.4629 35.4004-74.4629C34.668-74.4629 34.1309-73.9746 33.9844-73.2422C32.7148-66.6016 32.8613-66.748 26.2207-65.4297C25.4395-65.332 24.9512-64.7461 24.9512-64.0137C24.9512-63.3301 25.4395-62.7441 26.2207-62.5977C32.8613-61.3281 32.7148-61.4746 33.9844-54.834C34.1309-54.1016 34.668-53.6133 35.4004-53.6133Z"/>
  <path d="M35.4004 3.02734C41.6016 3.02734 46.6797-2.09961 46.6797-8.34961C46.6797-14.502 41.6016-19.6289 35.4004-19.6289C29.1504-19.6289 24.0234-14.502 24.0234-8.34961C24.0234-2.09961 29.1504 3.02734 35.4004 3.02734ZM35.4004-3.56445C32.7637-3.56445 30.6152-5.71289 30.6152-8.34961C30.6152-10.8887 32.8125-13.0371 35.4004-13.0371C37.9395-13.0371 40.0879-10.8887 40.0879-8.34961C40.0879-5.76172 37.9395-3.56445 35.4004-3.56445Z"/>
  <path d="M20.3613-31.8359C26.123-31.8359 30.9082-36.6211 30.9082-42.4316C30.9082-48.2422 26.123-52.9785 20.3613-52.9785C14.5508-52.9785 9.76562-48.2422 9.76562-42.4316C9.76562-36.6211 14.5508-31.8359 20.3613-31.8359ZM20.3613-38.4277C18.1641-38.4277 16.3574-40.2344 16.3574-42.4316C16.3574-44.6289 18.1641-46.4355 20.3613-46.4355C22.5098-46.4355 24.3164-44.6289 24.3164-42.4316C24.3164-40.2344 22.5098-38.4277 20.3613-38.4277Z"/>
  <path d="M71.7285-33.6426C82.0312-33.6426 90.3809-41.9922 90.3809-52.2461C90.3809-62.5488 82.0312-70.8496 71.7285-70.8496C61.4258-70.8496 53.125-62.5488 53.125-52.2461C53.125-41.9922 61.4258-33.6426 71.7285-33.6426ZM71.7285-40.2344C65.0879-40.2344 59.668-45.6055 59.668-52.2461C59.668-58.9355 65.0391-64.3066 71.7285-64.3066C78.418-64.3066 83.7891-58.9355 83.7891-52.2461C83.7891-45.6055 78.3691-40.2344 71.7285-40.2344Z"/>
  <path d="M56.25-21.875C64.7461-21.875 71.6309-28.7109 71.6309-37.2559C71.6309-45.752 64.7461-52.5879 56.25-52.5879C47.7539-52.5879 40.8691-45.752 40.8691-37.2559C40.8691-28.7109 47.7539-21.875 56.25-21.875Z"/>
  <path d="M56.25-28.4668C51.3672-28.4668 47.4609-32.373 47.4609-37.2559C47.4609-42.1387 51.3672-46.0449 56.25-46.0449C61.1328-46.0449 65.0391-42.1387 65.0391-37.2559C65.0391-32.373 61.1328-28.4668 56.25-28.4668Z"/>
 </g>
</svg>
