<svg xmlns="http://www.w3.org/2000/svg" viewBox="7.64 -78.492 89.26 89.065" aria-hidden="true" data-sf-symbol="crop">
 <g fill="black">
  <path d="M94.7754-12.9883C94.7754-15.0391 93.457-16.2598 91.3086-16.2598L36.1328-16.2598C35.2539-16.2598 34.9609-16.5527 34.9609-17.4805L34.9609-72.7051C34.9609-74.9023 33.5449-76.3672 31.4453-76.3672C29.2969-76.3672 27.9297-74.9023 27.9297-72.7051L27.9297-13.0371C27.9297-11.0352 29.248-9.7168 31.25-9.7168L91.3086-9.7168C93.457-9.7168 94.7754-10.9863 94.7754-12.9883ZM9.76562-54.9316C9.76562-52.8809 11.084-51.6602 13.2324-51.6602L68.4082-51.6602C69.3359-51.6602 69.6289-51.3672 69.6289-50.4883L69.6289 4.78516C69.6289 6.98242 70.9961 8.44727 73.1445 8.44727C75.2441 8.44727 76.6602 6.98242 76.6602 4.78516L76.6602-54.9316C76.6602-56.9336 75.3418-58.252 73.3398-58.252L13.2324-58.252C11.084-58.252 9.76562-56.9824 9.76562-54.9316Z"/>
 </g>
</svg>
