<svg xmlns="http://www.w3.org/2000/svg" viewBox="4.497 -81.11 98.218 91.83" aria-hidden="true" data-sf-symbol="hand.draw">
 <g fill="black">
  <path d="M9.61914-24.4141C11.1328-24.4629 12.207-25.6348 12.2559-27.1484C12.6465-39.5996 16.9922-51.5137 31.5918-60.4004C32.9102-61.2793 33.3008-62.8418 32.666-64.1602C31.9336-65.3809 30.0781-65.9668 28.7598-65.0879C12.9395-55.957 6.83594-41.8457 6.83594-27.2461C6.83594-25.6836 8.1543-24.3652 9.61914-24.4141Z"/>
  <path d="M78.418 6.05469C97.168-0.732422 104.883-18.5059 97.7539-38.3789L94.8242-46.582C91.3086-56.2988 83.7891-61.5723 75.1953-60.2539C71.9727-62.4512 67.627-62.8906 63.7207-61.2793C61.3281-62.7441 58.5938-63.2812 55.8105-62.9395L53.5645-69.2871C50.8301-76.8555 43.3105-80.6152 35.6445-77.8809C28.1738-75.0977 24.5605-67.5293 27.3926-59.8145L33.0566-44.2383C31.8848-44.2871 30.7617-44.1406 29.6387-43.75C23.0957-41.3574 19.1406-34.7168 21.6309-27.6367C22.2168-25.9766 23.2422-23.877 24.8535-22.0215L37.4023-6.88477C48.9746 7.03125 63.0371 11.6699 78.418 6.05469Z"/>
  <path d="M76.4648 0.683594C92.2363-5.0293 98.584-19.5312 92.3828-36.4746L89.4531-44.6289C86.4258-52.9297 80.5176-56.3965 73.6816-54.0039C71.8262-56.3965 68.9941-57.1777 65.9668-56.1035C64.8926-55.6641 63.916-55.127 63.0859-54.4434C60.9863-57.0801 57.8613-58.0078 54.6875-56.8359C53.9062-56.543 53.125-56.1523 52.4414-55.6641L48.1445-67.334C46.4355-72.0703 42.1387-74.1699 37.5977-72.5098C33.0566-70.8496 31.0547-66.5039 32.7637-61.7188L43.3594-32.6172C43.457-32.4219 43.4082-32.2754 43.2129-32.1777C43.0664-32.1289 42.9688-32.1777 42.8711-32.3242L39.209-36.1816C36.9629-38.5742 34.2285-39.3555 31.5918-38.3789C27.9297-37.0605 25.5859-33.5938 27.0508-29.4922C27.4414-28.3203 28.2715-26.8555 29.1992-25.6836L41.7969-10.498C51.8555 1.70898 63.4766 5.41992 76.4648 0.683594ZM74.6582-5.0293C64.5996-1.41602 55.3223-2.97852 46.1426-14.0137L33.4961-29.1504C33.1543-29.5898 32.9102-29.9805 32.666-30.6152C32.2754-31.7383 32.7148-33.0078 34.082-33.4961C35.2539-33.9355 36.084-33.4961 36.9629-32.5684L45.8984-23.5352C47.5098-21.875 48.877-21.7285 50.2441-22.2168C51.8066-22.8027 52.4414-24.5117 51.8066-26.2207L38.0371-64.1113C37.5488-65.4297 38.1836-66.748 39.502-67.2363C40.8691-67.7246 42.1387-67.0898 42.627-65.7715L52.4902-38.623C53.0273-37.207 54.6387-36.6211 56.0059-37.1582C57.3242-37.6465 58.1543-39.1113 57.666-40.4785L54.1016-50.1465C54.541-50.6348 55.2246-51.0742 55.9082-51.3184C57.5684-51.9531 58.9355-51.2207 59.5703-49.5605L62.7441-40.7715C63.2324-39.3555 64.8438-38.8184 66.2109-39.3066C67.5781-39.7949 68.4082-41.2598 67.8711-42.627L65.4297-49.4141C65.8691-49.8535 66.5527-50.3418 67.1875-50.5859C68.8477-51.1719 70.2148-50.4395 70.8496-48.7793L72.9492-42.9199C73.4863-41.5527 75.0977-40.9668 76.4648-41.4551C77.7832-41.9434 78.6133-43.4082 78.125-44.8242L76.6602-48.7793C79.541-49.8047 82.4219-47.2168 84.375-41.7969L86.7676-35.2051C91.9922-20.8496 87.5488-9.76562 74.6582-5.0293Z"/>
 </g>
</svg>
