<svg xmlns="http://www.w3.org/2000/svg" viewBox="9.607 -81.116 60.181 86.645" aria-hidden="true" data-sf-symbol="microphone">
 <g fill="black">
  <path d="M39.6973-10.9863C56.2988-10.9863 67.7246-22.168 67.7246-38.5254L67.7246-46.4355C67.7246-48.291 66.2598-49.7559 64.4043-49.7559C62.5977-49.7559 61.1328-48.291 61.1328-46.4355L61.1328-38.8184C61.1328-25.6836 52.6855-17.041 39.6973-17.041C26.709-17.041 18.2617-25.6836 18.2617-38.8184L18.2617-46.4355C18.2617-48.291 16.7969-49.7559 14.9414-49.7559C13.1348-49.7559 11.6699-48.291 11.6699-46.4355L11.6699-38.5254C11.6699-22.168 23.0957-10.9863 39.6973-10.9863ZM25.293-39.8438C25.293-30.6641 31.2012-24.3652 39.6973-24.3652C48.1445-24.3652 54.1016-30.6641 54.1016-39.8438L54.1016-63.5742C54.1016-72.7539 48.1445-79.0527 39.6973-79.0527C31.2012-79.0527 25.293-72.7539 25.293-63.5742ZM31.8848-39.8438L31.8848-63.5742C31.8848-69.1895 35.0098-72.5586 39.6973-72.5586C44.3359-72.5586 47.5098-69.1895 47.5098-63.5742L47.5098-39.8438C47.5098-34.2285 44.3359-30.8594 39.6973-30.8594C35.0098-30.8594 31.8848-34.2285 31.8848-39.8438ZM22.6074 3.4668L56.7871 3.4668C58.5938 3.4668 60.0586 2.00195 60.0586 0.146484C60.0586-1.66016 58.5938-3.125 56.7871-3.125L22.6074-3.125C20.752-3.125 19.2871-1.66016 19.2871 0.146484C19.2871 2.00195 20.752 3.4668 22.6074 3.4668ZM39.6973 2.00195C41.5039 2.00195 42.9688 0.537109 42.9688-1.26953L42.9688-12.4512C42.9688-14.3066 41.5039-15.7715 39.6973-15.7715C37.8418-15.7715 36.377-14.3066 36.377-12.4512L36.377-1.26953C36.377 0.537109 37.8418 2.00195 39.6973 2.00195Z"/>
 </g>
</svg>
