<svg xmlns="http://www.w3.org/2000/svg" viewBox="4.508 -76.742 97.771 82.244" aria-hidden="true" data-sf-symbol="paintpalette">
 <g fill="black">
  <path d="M56.8359 3.17383C73.2422 3.17383 84.1797-2.68555 84.1797-11.4258C84.1797-18.9941 77.7344-20.9473 77.7344-25.1465C77.7344-30.6641 99.9512-32.4707 99.9512-48.1445C99.9512-63.9648 83.6914-74.4141 59.668-74.4141C28.1738-74.4141 6.83594-58.5938 6.83594-34.9609C6.83594-12.1582 27.0996 3.17383 56.8359 3.17383ZM56.8359-4.3457C31.1523-4.3457 14.3555-16.6016 14.3555-34.9609C14.3555-54.1504 32.2266-66.8945 59.668-66.8945C79.4922-66.8945 92.4316-59.2773 92.4316-48.1445C92.4316-35.0586 70.0684-36.8164 70.0684-25.0977C70.0684-18.5059 76.6602-16.2598 76.6602-11.9141C76.6602-7.37305 68.75-4.3457 56.8359-4.3457ZM53.6621-13.0859C59.375-13.0859 64.0137-17.7734 64.0137-23.4863C64.0137-29.1504 59.375-33.8379 53.6621-33.8379C47.998-33.8379 43.3105-29.1504 43.3105-23.4863C43.3105-17.7734 47.998-13.0859 53.6621-13.0859ZM53.6621-18.0664C50.6836-18.0664 48.291-20.459 48.291-23.4863C48.291-26.9043 50.8789-28.7598 53.5645-28.8086C56.3477-28.8574 59.082-27.0508 59.082-23.4863C59.082-20.459 56.6895-18.0664 53.6621-18.0664Z"/>
  <path d="M26.6602-29.4434C30.3223-29.4434 33.252-32.4707 33.252-36.1328C33.252-39.7949 30.3223-42.7246 26.6602-42.7246C22.998-42.7246 20.0195-39.7949 20.0195-36.1328C20.0195-32.4707 22.998-29.4434 26.6602-29.4434Z"/>
  <path d="M40.625-41.8945C45.0684-41.8945 48.6816-45.4102 48.6816-50C48.6816-54.4922 45.0684-58.0078 40.625-58.0078C36.084-58.0078 32.4219-54.4922 32.4219-50C32.4219-45.4102 36.084-41.8945 40.625-41.8945Z"/>
  <path d="M60.0098-47.9492C63.6719-47.9492 66.6504-50.9277 66.6504-54.5898C66.6504-58.252 63.6719-61.2305 60.0098-61.2305C56.3477-61.2305 53.3203-58.252 53.3203-54.5898C53.3203-50.9277 56.3477-47.9492 60.0098-47.9492Z"/>
  <path d="M77.4902-45.459C80.4688-45.459 82.8613-47.9004 82.8613-50.9277C82.8613-53.9062 80.4688-56.3965 77.4902-56.3965C74.4629-56.3965 71.9727-53.9062 71.9727-50.9277C71.9727-47.9004 74.4629-45.459 77.4902-45.459Z"/>
 </g>
</svg>
