<svg xmlns="http://www.w3.org/2000/svg" viewBox="4.176 -67.655 111.389 74.729" aria-hidden="true" data-sf-symbol="pencil.and.scribble">
 <g fill="black">
  <path d="M7.66602-5.66406C11.1328 5.81055 28.3691 7.61719 46.5332-0.878906C50.1953-2.58789 47.6562-7.27539 44.2383-5.61523C29.3457 1.5625 14.9902 0.634766 12.6953-7.12891C6.64062-26.8066 49.3164-28.6133 44.2383-45.752C41.748-54.1992 22.6562-52.8809 8.98438-43.6523C5.95703-41.6992 8.88672-37.3535 11.8652-39.4043C21.4844-45.752 38.0371-48.291 39.2578-44.3359C40.1367-41.2598 37.5977-38.8672 27.0996-33.1543C16.7969-27.5879 3.32031-19.8242 7.66602-5.66406Z"/>
  <path d="M63.0371-8.00781L103.613-48.4863L96.2891-55.8105L55.7129-15.332L52.1484-6.49414C51.7578-5.46875 52.832-4.29688 53.8574-4.6875ZM107.129-51.9531L111.279-56.0059C113.33-58.0566 113.477-60.3027 111.572-62.1582L110.059-63.7207C108.203-65.5762 105.957-65.3809 103.906-63.3789L99.707-59.3262Z"/>
 </g>
</svg>
