<svg xmlns="http://www.w3.org/2000/svg" viewBox="3.281 -74.307 112.383 84.16" aria-hidden="true" data-sf-symbol="scissors">
 <g fill="black">
  <path d="M25.3906-71.6309C16.6992-71.6309 9.76562-64.5996 9.76562-55.8594C9.76562-47.168 16.6992-40.1855 25.3906-40.1855C32.6172-40.1855 33.4473-42.8711 36.6699-42.8711C37.4512-42.8711 37.9883-42.7246 39.0625-42.2363L43.9453-39.6973C47.2168-38.0371 48.291-37.0117 48.877-34.9121L49.6094-32.1289C50.8789-27.6855 53.0762-25.293 57.8613-23.6328L90.5273-12.0605C101.025-8.34961 107.471-9.66797 108.887-16.0156L43.7988-50.4395C41.5039-51.6602 41.1133-52.832 41.1133-55.8594C41.1133-64.6484 34.082-71.6309 25.3906-71.6309ZM25.3906-64.6484C30.2734-64.6484 34.1309-60.7422 34.1309-55.8594C34.1309-51.0254 30.2734-47.1191 25.3906-47.1191C20.6543-47.1191 16.748-51.0254 16.748-55.8594C16.748-60.7422 20.6543-64.6484 25.3906-64.6484Z"/>
  <path d="M25.3906 7.17773C36.1816 7.17773 44.9219-1.51367 44.9219-12.4023C44.9219-13.6719 45.166-14.2578 45.9473-14.6484L112.988-50.0977C112.305-62.0117 102.49-64.502 89.209-59.7656L56.543-48.1934C50.6348-46.1426 47.5586-42.8223 45.9473-37.1582L45.2148-34.3262C45.0195-33.6914 44.2383-33.0078 42.2363-31.9336L37.9883-29.7363C37.3047-29.3945 36.9629-29.1992 36.6211-29.1992C34.8145-29.1992 33.1543-31.8848 25.3906-31.8848C14.5996-31.8848 5.95703-23.1934 5.95703-12.4023C5.95703-1.5625 14.5996 7.17773 25.3906 7.17773Z"/>
  <path d="M25.3906 3.36914C34.082 3.36914 41.1133-3.61328 41.1133-12.4023C41.1133-15.4297 41.5039-16.6016 43.7988-17.8223L108.887-52.2461C107.471-58.5938 101.025-59.9121 90.5273-56.2012L57.8613-44.6289C53.0762-42.9688 50.8789-40.5762 49.6094-36.1328L48.877-33.3496C48.291-31.25 47.2168-30.2246 43.9453-28.5645L39.0625-26.0254C37.9883-25.5371 37.4512-25.3906 36.6699-25.3906C33.4473-25.3906 32.6172-28.0762 25.3906-28.0762C16.6992-28.0762 9.76562-21.0938 9.76562-12.4023C9.76562-3.66211 16.6992 3.36914 25.3906 3.36914ZM25.3906-3.61328C20.6543-3.61328 16.748-7.51953 16.748-12.4023C16.748-17.2363 20.6543-21.1426 25.3906-21.1426C30.2734-21.1426 34.1309-17.2363 34.1309-12.4023C34.1309-7.51953 30.2734-3.61328 25.3906-3.61328ZM58.7891-32.959C57.0312-32.959 55.4199-34.4727 55.4199-36.3281C55.4199-38.2324 57.0312-39.7461 58.7891-39.7461C60.6934-39.7461 62.2559-38.2324 62.2559-36.3281C62.2559-34.4727 60.6934-32.959 58.7891-32.959Z"/>
 </g>
</svg>
