<svg xmlns="http://www.w3.org/2000/svg" viewBox="8 -73.347 74.136 71.645" aria-hidden="true" data-sf-symbol="slider.vertical.3">
 <g fill="black">
  <path d="M67.334-68.0176L67.334-6.78711C67.334-5.0293 68.8477-3.4668 70.8496-3.4668C72.8027-3.4668 74.3652-5.0293 74.3652-6.78711L74.3652-68.0176C74.3652-70.0195 72.8027-71.582 70.8496-71.582C68.8477-71.582 67.334-70.0195 67.334-68.0176Z"/>
  <path d="M70.8496-13.5742C76.416-13.5742 80.3711-17.4805 80.3711-23.0469L80.3711-30.4688C80.3711-36.0352 76.416-39.9902 70.8496-39.9902C65.2832-39.9902 61.3281-36.0352 61.3281-30.4688L61.3281-23.0469C61.3281-17.4805 65.2832-13.5742 70.8496-13.5742Z"/>
  <path d="M70.8496-18.75C68.3105-18.75 66.5527-20.5078 66.5527-23.0469L66.5527-30.4688C66.5527-33.0078 68.3105-34.7656 70.8496-34.7656C73.3887-34.7656 75.1465-33.0078 75.1465-30.4688L75.1465-23.0469C75.1465-20.5078 73.3887-18.75 70.8496-18.75Z"/>
  <path d="M41.5527-68.0176L41.5527-6.78711C41.5527-5.0293 43.0664-3.4668 45.0684-3.4668C47.0215-3.4668 48.584-5.0293 48.584-6.78711L48.584-68.0176C48.584-70.0195 47.0215-71.582 45.0684-71.582C43.0664-71.582 41.5527-70.0195 41.5527-68.0176Z"/>
  <path d="M45.0684-35.0586C50.6348-35.0586 54.5898-38.9648 54.5898-44.5312L54.5898-51.9531C54.5898-57.5195 50.6348-61.4746 45.0684-61.4746C39.502-61.4746 35.5469-57.5195 35.5469-51.9531L35.5469-44.5312C35.5469-38.9648 39.502-35.0586 45.0684-35.0586Z"/>
  <path d="M45.0684-40.2344C42.5293-40.2344 40.7227-41.9922 40.7227-44.5312L40.7227-51.9531C40.7227-54.4922 42.5293-56.25 45.0684-56.25C47.6074-56.25 49.3652-54.4922 49.3652-51.9531L49.3652-44.5312C49.3652-41.9922 47.6074-40.2344 45.0684-40.2344Z"/>
  <path d="M15.7715-68.0176L15.7715-6.78711C15.7715-5.0293 17.2852-3.4668 19.2871-3.4668C21.2402-3.4668 22.8027-5.0293 22.8027-6.78711L22.8027-68.0176C22.8027-70.0195 21.2402-71.582 19.2871-71.582C17.2852-71.582 15.7715-70.0195 15.7715-68.0176Z"/>
  <path d="M19.2871-13.5742C24.8535-13.5742 28.7598-17.4805 28.7598-23.0469L28.7598-30.4688C28.7598-36.0352 24.8535-39.9902 19.2871-39.9902C13.7207-39.9902 9.76562-36.0352 9.76562-30.4688L9.76562-23.0469C9.76562-17.4805 13.7207-13.5742 19.2871-13.5742Z"/>
  <path d="M19.2871-18.75C16.6992-18.75 14.9414-20.5078 14.9414-23.0469L14.9414-30.4688C14.9414-33.0078 16.6992-34.7656 19.2871-34.7656C21.8262-34.7656 23.584-33.0078 23.584-30.4688L23.584-23.0469C23.584-20.5078 21.8262-18.75 19.2871-18.75Z"/>
 </g>
</svg>
