<svg xmlns="http://www.w3.org/2000/svg" viewBox="7.336 -76.794 102.027 83.081" aria-hidden="true" data-sf-symbol="sparkles.tv">
 <g fill="black">
  <path d="M20.1172-9.86328L96.582-9.86328C102.979-9.86328 106.934-13.8672 106.934-20.2637L106.934-64.0137C106.934-70.4102 102.979-74.3652 96.582-74.3652L20.1172-74.3652C13.7207-74.3652 9.76562-70.4102 9.76562-64.0137L9.76562-20.2637C9.76562-13.8672 13.7207-9.86328 20.1172-9.86328ZM20.2148-16.9434C18.1152-16.9434 16.7969-18.2129 16.7969-20.3613L16.7969-63.916C16.7969-66.0156 18.1152-67.334 20.2148-67.334L96.4844-67.334C98.584-67.334 99.9023-66.0156 99.9023-63.916L99.9023-20.3613C99.9023-18.2129 98.584-16.9434 96.4844-16.9434ZM38.8672 3.85742L77.832 3.85742C79.7852 3.85742 81.3477 2.29492 81.3477 0.341797C81.3477-1.61133 79.7852-3.22266 77.832-3.22266L38.8672-3.22266C36.9141-3.22266 35.3516-1.61133 35.3516 0.341797C35.3516 2.29492 36.9141 3.85742 38.8672 3.85742Z"/>
  <path d="M60.2051-27.1973C60.9863-27.1973 61.5234-27.7832 61.7188-28.5156C63.8672-38.9648 64.9414-41.4062 76.0254-42.9688C76.8555-43.0664 77.4414-43.6523 77.4414-44.4824C77.4414-45.2637 76.8555-45.8984 76.0254-46.0449C64.9902-47.5586 63.2812-50.1465 61.7188-60.3027C61.5723-61.1816 60.9863-61.7188 60.2051-61.7188C59.4238-61.7188 58.8379-61.2305 58.6426-60.3516C56.543-49.9512 55.4199-47.5586 44.3359-46.0449C43.5059-45.8984 42.9199-45.2637 42.9199-44.4824C42.9199-43.6523 43.5059-43.0664 44.3359-42.9688C55.4199-41.5039 57.0801-38.9648 58.6426-28.5645C58.7891-27.7832 59.3262-27.1973 60.2051-27.1973ZM45.2637-20.8008C45.8984-20.8008 46.3379-21.1914 46.4844-21.7773C47.6562-27.3438 47.168-27.3926 53.0273-28.3203C53.6621-28.418 54.1016-28.9551 54.1016-29.541C54.1016-30.127 53.6621-30.6641 53.0273-30.7129C47.168-31.7871 47.6562-31.8359 46.4844-37.207C46.3379-37.8418 45.9473-38.3301 45.2637-38.3301C44.6777-38.3301 44.2383-37.8906 44.043-37.207C42.8711-31.8359 43.4082-31.7871 37.5488-30.7129C36.8652-30.6641 36.5234-30.127 36.5234-29.541C36.5234-28.8574 36.8652-28.418 37.6465-28.3203C43.4082-27.3926 42.8711-27.3438 44.043-21.9238C44.2383-21.2402 44.6289-20.8008 45.2637-20.8008Z"/>
 </g>
</svg>
