<svg xmlns="http://www.w3.org/2000/svg" viewBox="5.627 -84.656 75.708 91.772" aria-hidden="true" data-sf-symbol="sparkles">
 <g fill="black">
  <path d="M41.2598-63.6719C41.7969-63.6719 42.0898-64.0137 42.1875-64.4531C43.4082-70.752 43.3105-70.8496 49.8535-72.1191C50.3418-72.2168 50.6836-72.5098 50.6836-73.0469C50.6836-73.584 50.3418-73.877 49.8535-73.9746C43.3105-75.2441 43.4082-75.3418 42.1875-81.6406C42.0898-82.1289 41.7969-82.4707 41.2598-82.4707C40.7715-82.4707 40.4785-82.1289 40.3809-81.6406C39.1113-75.3418 39.2578-75.2441 32.7148-73.9746C32.2266-73.877 31.8848-73.584 31.8848-73.0469C31.8848-72.5098 32.2266-72.2168 32.7148-72.1191C39.2578-70.8496 39.1113-70.752 40.3809-64.4531C40.4785-64.0137 40.7715-63.6719 41.2598-63.6719Z"/>
  <path d="M22.9492-37.1582C23.7305-37.1582 24.2676-37.6953 24.3652-38.4766C25.6836-48.6816 26.123-48.7305 36.7188-50.7812C37.4512-50.8789 38.0371-51.416 38.0371-52.1973C38.0371-53.0273 37.4512-53.5645 36.7188-53.6621C26.123-55.0293 25.6348-55.5176 24.3652-65.918C24.2676-66.748 23.7305-67.2852 22.9492-67.2852C22.1191-67.2852 21.582-66.748 21.4844-65.8691C20.3125-55.6641 19.5801-55.6641 9.13086-53.6621C8.39844-53.5156 7.8125-53.0273 7.8125-52.1973C7.8125-51.3672 8.39844-50.8789 9.32617-50.7812C19.6777-49.1699 20.3125-48.7793 21.4844-38.5742C21.582-37.6953 22.1191-37.1582 22.9492-37.1582Z"/>
  <path d="M48.877 4.93164C49.9023 4.93164 50.7324 4.19922 50.9277 3.07617C53.7598-17.2852 56.8848-20.8496 77.1484-23.2422C78.3203-23.3398 79.1504-24.2188 79.1504-25.293C79.1504-26.416 78.3203-27.2461 77.1484-27.3926C56.8848-29.7852 53.7598-33.3008 50.9277-53.6621C50.7324-54.834 49.9023-55.5664 48.877-55.5664C47.8027-55.5664 46.9727-54.834 46.8262-53.6621C43.9453-33.3008 40.8203-29.7852 20.5566-27.3926C19.3848-27.2461 18.6035-26.416 18.6035-25.293C18.6035-24.2188 19.3848-23.3398 20.5566-23.2422C40.7715-20.5078 43.8477-17.2852 46.8262 3.07617C46.9727 4.19922 47.8027 4.93164 48.877 4.93164Z"/>
 </g>
</svg>
