<svg xmlns="http://www.w3.org/2000/svg" viewBox="7.817 -76.068 61.401 81.841" aria-hidden="true" data-sf-symbol="arrow.down.to.line">
 <g fill="black">
  <path d="M 67.27 0.842 C 67.27 -0.893 66.07 -2.159 64.369 -2.159 L 12.749 -2.159 C 10.999 -2.159 9.766 -0.893 9.766 0.842 C 9.766 2.592 10.999 3.825 12.749 3.825 L 64.369 3.825 C 66.07 3.825 67.27 2.592 67.27 0.842 Z M 12.666 -33.837 C 10.999 -33.837 9.766 -32.57 9.766 -30.921 C 9.766 -30.105 10.065 -29.404 10.699 -28.737 L 36.299 -3.163 C 36.933 -2.462 37.701 -2.129 38.518 -2.129 C 39.35 -2.129 40.103 -2.462 40.736 -3.163 L 66.352 -28.737 C 66.985 -29.404 67.27 -30.105 67.27 -30.921 C 67.27 -32.57 66.037 -33.837 64.384 -33.837 C 63.586 -33.837 62.772 -33.556 62.286 -33.02 L 52.094 -22.979 L 38.518 -8.211 L 24.941 -22.979 L 14.765 -33.02 C 14.263 -33.556 13.449 -33.837 12.666 -33.837 Z M 41.118 -7.818 L 41.519 -19.37 L 41.519 -71.2 C 41.519 -72.92 40.252 -74.119 38.518 -74.119 C 36.783 -74.119 35.531 -72.92 35.531 -71.2 L 35.531 -19.37 L 35.917 -7.818 C 35.984 -6.402 37.116 -5.218 38.518 -5.218 C 39.934 -5.218 41.051 -6.402 41.118 -7.818 Z"/>
 </g>
</svg>
