<svg xmlns="http://www.w3.org/2000/svg" viewBox="7.967 -72.296 75.558 74.182" aria-hidden="true" data-sf-symbol="arrow.uturn.left">
 <g fill="black">
  <path d="M 9.766 -44.963 C 9.766 -44.146 10.099 -43.378 10.766 -42.745 L 33.41 -20.362 C 34.01 -19.811 34.83 -19.444 35.595 -19.444 C 37.378 -19.444 38.544 -20.677 38.544 -22.396 C 38.544 -23.262 38.278 -23.959 37.727 -24.477 L 26.165 -35.822 L 15.694 -44.963 L 26.165 -54.138 L 37.727 -65.464 C 38.278 -66.015 38.544 -66.664 38.544 -67.529 C 38.544 -69.249 37.378 -70.497 35.595 -70.497 C 34.83 -70.497 34.01 -70.13 33.41 -69.564 L 10.766 -47.181 C 10.099 -46.548 9.766 -45.795 9.766 -44.963 Z M 42.976 -2.915 C 42.976 -1.281 44.16 0.087 45.996 0.087 L 55.697 0.087 C 72.206 0.087 81.726 -9.502 81.726 -23.811 C 81.726 -38.154 72.003 -47.964 55.207 -47.964 L 27.598 -47.964 L 15.491 -47.462 C 14.123 -47.395 12.991 -46.346 12.991 -44.963 C 12.991 -43.595 14.123 -42.531 15.491 -42.463 L 27.598 -41.977 L 55.666 -41.977 C 68.62 -41.977 75.771 -34.688 75.771 -24.133 C 75.771 -13.594 68.62 -5.916 55.666 -5.916 L 45.98 -5.916 C 44.145 -5.916 42.976 -4.548 42.976 -2.915 Z"/>
 </g>
</svg>
