<svg xmlns="http://www.w3.org/2000/svg" viewBox="6.9 -72.009 85.713 73.51" aria-hidden="true" data-sf-symbol="arrowshape.turn.up.right.fill">
 <g fill="black">
  <path d="M 61.011 -50.74 L 48.302 -50.74 C 21.576 -50.74 8.941 -33.965 8.941 -5.25 C 8.941 -2.239 10.677 -0.54 12.587 -0.54 C 14.114 -0.54 15.707 -0.957 16.9 -3.246 C 23.292 -15.692 32.889 -19.646 48.302 -19.646 L 61.011 -19.646 C 69.627 -19.646 76.591 -26.611 76.591 -35.227 C 76.591 -43.81 69.627 -50.74 61.011 -50.74 Z M 49.536 -4.677 C 49.536 -2.318 51.211 -0.54 53.635 -0.54 C 55.383 -0.54 56.801 -1.294 58.428 -2.82 L 88.595 -31.194 C 90.144 -32.645 90.572 -34.026 90.572 -35.254 C 90.572 -36.515 90.159 -37.862 88.595 -39.347 L 58.428 -67.501 C 56.632 -69.18 55.45 -69.968 53.702 -69.968 C 51.211 -69.968 49.536 -67.988 49.536 -65.628 Z"/>
 </g>
</svg>
