<svg xmlns="http://www.w3.org/2000/svg" viewBox="7.817 -76.068 61.401 81.841" aria-hidden="true" data-sf-symbol="arrow.up.to.line">
 <g fill="black">
  <path d="M 67.27 -71.151 C 67.27 -72.886 66.07 -74.119 64.369 -74.119 L 12.749 -74.119 C 10.999 -74.119 9.766 -72.886 9.766 -71.151 C 9.766 -69.401 10.999 -68.135 12.749 -68.135 L 64.369 -68.135 C 66.07 -68.135 67.27 -69.401 67.27 -71.151 Z M 12.666 -36.457 C 13.449 -36.457 14.263 -36.772 14.765 -37.274 L 24.941 -47.315 L 38.518 -62.083 L 52.094 -47.315 L 62.286 -37.274 C 62.772 -36.772 63.586 -36.457 64.384 -36.457 C 66.037 -36.457 67.27 -37.724 67.27 -39.406 C 67.27 -40.189 66.985 -40.89 66.352 -41.557 L 40.736 -67.131 C 40.103 -67.831 39.35 -68.165 38.518 -68.165 C 37.701 -68.165 36.933 -67.831 36.299 -67.131 L 10.699 -41.557 C 10.065 -40.89 9.766 -40.189 9.766 -39.406 C 9.766 -37.724 10.999 -36.457 12.666 -36.457 Z M 41.118 -62.476 C 41.051 -63.926 39.934 -65.076 38.518 -65.076 C 37.116 -65.076 35.984 -63.926 35.917 -62.476 L 35.531 -50.957 L 35.531 0.891 C 35.531 2.626 36.783 3.825 38.518 3.825 C 40.252 3.825 41.519 2.626 41.519 0.891 L 41.519 -50.957 Z"/>
 </g>
</svg>
