<svg xmlns="http://www.w3.org/2000/svg" viewBox="7.724 -78.102 73.512 85.764" aria-hidden="true" data-sf-symbol="arrowshape.down">
 <g fill="black">
  <path d="M 44.48 5.62 C 45.741 5.62 47.073 5.173 48.573 3.609 L 76.712 -26.524 C 78.406 -28.369 79.194 -29.536 79.194 -31.284 C 79.194 -33.741 77.214 -35.465 74.855 -35.465 L 59.951 -35.465 L 59.951 -66.918 C 59.951 -72.724 56.728 -76.06 51.068 -76.06 L 37.77 -76.06 C 32.096 -76.06 28.873 -72.724 28.873 -66.918 L 28.873 -35.465 L 13.903 -35.465 C 11.544 -35.465 9.766 -33.741 9.766 -31.351 C 9.766 -29.603 10.52 -28.2 12.031 -26.524 L 40.42 3.609 C 41.872 5.158 43.252 5.62 44.48 5.62 Z M 44.48 -0.444 C 44.167 -0.444 43.888 -0.568 43.484 -1.002 L 17.321 -28.752 C 17.084 -29.005 16.971 -29.23 16.971 -29.456 C 16.971 -29.828 17.212 -30.039 17.565 -30.039 L 32.75 -30.039 C 33.617 -30.039 33.996 -30.384 33.996 -31.251 L 33.996 -66.884 C 33.996 -69.497 35.42 -70.936 38.021 -70.936 L 50.802 -70.936 C 53.403 -70.936 54.861 -69.497 54.861 -66.884 L 54.861 -31.251 C 54.861 -30.384 55.24 -30.039 56.074 -30.039 L 71.694 -30.039 C 72.033 -30.039 72.258 -29.813 72.258 -29.441 C 72.258 -29.17 72.1 -28.944 71.908 -28.737 L 45.476 -1.002 C 45.057 -0.584 44.793 -0.444 44.48 -0.444 Z"/>
 </g>
</svg>
