<svg xmlns="http://www.w3.org/2000/svg" viewBox="7.724 -78.102 73.512 85.764" aria-hidden="true" data-sf-symbol="arrowshape.up">
 <g fill="black">
  <path d="M 44.48 -76.06 C 43.252 -76.06 41.872 -75.599 40.42 -74.05 L 12.031 -43.916 C 10.52 -42.24 9.766 -40.837 9.766 -39.089 C 9.766 -36.7 11.544 -34.975 13.903 -34.975 L 28.873 -34.975 L 28.873 -3.522 C 28.873 2.284 32.096 5.62 37.77 5.62 L 51.068 5.62 C 56.728 5.62 59.951 2.284 59.951 -3.522 L 59.951 -34.975 L 74.855 -34.975 C 77.214 -34.975 79.194 -36.7 79.194 -39.157 C 79.194 -40.905 78.406 -42.105 76.712 -43.916 L 48.573 -74.05 C 47.073 -75.614 45.741 -76.06 44.48 -76.06 Z M 44.48 -69.997 C 44.793 -69.997 45.057 -69.857 45.476 -69.438 L 71.908 -41.703 C 72.1 -41.496 72.258 -41.27 72.258 -41 C 72.258 -40.661 72.033 -40.402 71.694 -40.402 L 56.074 -40.402 C 55.24 -40.402 54.861 -40.057 54.861 -39.189 L 54.861 -3.59 C 54.861 -0.943 53.403 0.496 50.802 0.496 L 38.021 0.496 C 35.42 0.496 33.996 -0.943 33.996 -3.59 L 33.996 -39.189 C 33.996 -40.057 33.617 -40.402 32.75 -40.402 L 17.565 -40.402 C 17.212 -40.402 16.971 -40.612 16.971 -40.984 C 16.971 -41.21 17.084 -41.436 17.321 -41.688 L 43.484 -69.438 C 43.888 -69.872 44.167 -69.997 44.48 -69.997 Z"/>
 </g>
</svg>
