<svg xmlns="http://www.w3.org/2000/svg" viewBox="3.666 -72.01 85.763 73.512" aria-hidden="true" data-sf-symbol="arrowshape.left">
 <g fill="black">
  <path d="M 5.708 -35.254 C 5.708 -34.026 6.169 -32.645 7.699 -31.194 L 37.852 -2.82 C 39.527 -1.294 40.93 -0.54 42.678 -0.54 C 45.068 -0.54 46.792 -2.318 46.792 -4.677 L 46.792 -19.646 L 78.245 -19.646 C 84.051 -19.646 87.387 -22.885 87.387 -28.544 L 87.387 -41.842 C 87.387 -47.502 84.051 -50.74 78.245 -50.74 L 46.792 -50.74 L 46.792 -65.628 C 46.792 -67.988 45.068 -69.968 42.611 -69.968 C 40.878 -69.968 39.662 -69.18 37.852 -67.501 L 7.699 -39.347 C 6.154 -37.862 5.708 -36.515 5.708 -35.254 Z M 11.737 -35.254 C 11.737 -35.567 11.911 -35.831 12.33 -36.25 L 40.064 -62.682 C 40.271 -62.874 40.497 -63.032 40.768 -63.032 C 41.106 -63.032 41.332 -62.807 41.332 -62.468 L 41.332 -46.863 C 41.332 -46.029 41.711 -45.65 42.578 -45.65 L 78.178 -45.65 C 80.79 -45.65 82.264 -44.192 82.264 -41.576 L 82.264 -28.811 C 82.264 -26.194 80.79 -24.77 78.178 -24.77 L 42.578 -24.77 C 41.711 -24.77 41.332 -24.391 41.332 -23.524 L 41.332 -8.339 C 41.332 -7.986 41.122 -7.745 40.783 -7.745 C 40.558 -7.745 40.332 -7.858 40.08 -8.095 L 12.33 -34.258 C 11.896 -34.677 11.737 -34.941 11.737 -35.254 Z"/>
 </g>
</svg>
