<svg xmlns="http://www.w3.org/2000/svg" viewBox="7.95 -73.361 76.181 76.282" aria-hidden="true" data-sf-symbol="arrow.down.left.and.arrow.up.right">
 <g fill="black">
  <path d="M 76.181 -48.937 L 76.181 -44.111 C 76.181 -42.312 77.466 -41.012 79.231 -41.012 C 81.045 -41.012 82.315 -42.361 82.315 -44.111 L 82.315 -66.146 C 82.315 -69.548 80.317 -71.545 76.9 -71.545 L 54.88 -71.545 C 53.082 -71.545 51.699 -70.26 51.699 -68.461 C 51.699 -66.663 53.112 -65.396 54.88 -65.396 L 59.707 -65.396 L 77.147 -66.408 Z M 75.142 -68.236 L 61.593 -55.324 L 49.444 -43.175 C 48.845 -42.576 48.511 -41.759 48.511 -40.89 C 48.511 -38.975 49.913 -37.757 51.813 -37.757 C 52.629 -37.757 53.398 -38.023 53.963 -38.656 L 66.052 -50.809 L 79.039 -64.369 C 81.719 -67.235 78.121 -71.013 75.142 -68.236 Z M 15.9 -21.503 L 15.9 -26.33 C 15.9 -28.128 14.648 -29.429 12.85 -29.429 C 11.036 -29.429 9.766 -28.08 9.766 -26.33 L 9.766 -4.295 C 9.766 -0.893 11.763 1.105 15.181 1.105 L 37.2 1.105 C 38.999 1.105 40.382 -0.18 40.382 -1.979 C 40.382 -3.778 38.969 -5.044 37.2 -5.044 L 32.407 -5.044 L 14.933 -4.066 Z M 16.939 -2.205 L 30.487 -15.116 L 42.636 -27.28 C 43.27 -27.865 43.554 -28.682 43.554 -29.551 C 43.554 -31.466 42.168 -32.717 40.268 -32.717 C 39.451 -32.717 38.717 -32.417 38.117 -31.818 L 26.062 -19.632 L 13.075 -6.087 C 10.362 -3.205 13.993 0.573 16.939 -2.205 Z"/>
 </g>
</svg>
