<svg xmlns="http://www.w3.org/2000/svg" viewBox="4.789 -82.846 71.169 85.986" aria-hidden="true" data-sf-symbol="arrow.counterclockwise">
 <g fill="black">
  <path d="M 40.373 1.092 C 58.918 1.092 73.91 -13.949 73.91 -32.445 C 73.91 -50.99 58.918 -65.982 40.373 -65.982 C 36.164 -65.982 32.117 -65.196 28.559 -63.775 C 27.572 -63.415 26.363 -62.743 26.408 -61.054 C 26.469 -58.997 28.488 -58 30.22 -58.697 C 33.37 -59.95 36.824 -60.604 40.373 -60.604 C 55.905 -60.604 68.499 -48.011 68.499 -32.479 C 68.499 -16.947 55.905 -4.402 40.373 -4.402 C 24.841 -4.402 12.263 -16.947 12.263 -32.479 C 12.263 -33.993 11.048 -35.192 9.549 -35.192 C 8.069 -35.192 6.836 -33.993 6.836 -32.479 C 6.836 -13.949 21.843 1.092 40.373 1.092 Z M 29.502 -61.519 L 44.04 -76.058 C 44.554 -76.571 44.786 -77.272 44.786 -78.018 C 44.786 -79.536 43.651 -80.799 42.14 -80.799 C 41.278 -80.799 40.66 -80.45 40.161 -79.952 L 24.141 -63.63 C 23.521 -63.011 23.191 -62.28 23.191 -61.534 C 23.191 -60.735 23.473 -60.072 24.141 -59.388 L 40.176 -43.202 C 40.675 -42.737 41.308 -42.437 42.125 -42.437 C 43.636 -42.437 44.786 -43.618 44.786 -45.135 C 44.786 -45.848 44.554 -46.563 44.006 -47.077 Z"/>
 </g>
</svg>
