<svg xmlns="http://www.w3.org/2000/svg" viewBox="3.666 -72.01 85.763 73.512" aria-hidden="true" data-sf-symbol="arrowshape.turn.up.left.fill">
 <g fill="black">
  <path d="M 35.269 -50.74 C 26.652 -50.74 19.737 -43.81 19.737 -35.227 C 19.737 -26.611 26.652 -19.646 35.269 -19.646 L 48.011 -19.646 C 63.391 -19.646 73.002 -15.692 79.413 -3.246 C 80.621 -0.957 82.165 -0.54 83.741 -0.54 C 85.636 -0.54 87.387 -2.239 87.387 -5.25 C 87.387 -33.965 74.719 -50.74 48.011 -50.74 Z M 46.792 -4.677 L 46.792 -65.628 C 46.792 -67.988 45.068 -69.968 42.611 -69.968 C 40.878 -69.968 39.662 -69.18 37.852 -67.501 L 7.699 -39.347 C 6.154 -37.862 5.708 -36.515 5.708 -35.254 C 5.708 -34.026 6.169 -32.645 7.699 -31.194 L 37.852 -2.82 C 39.527 -1.294 40.93 -0.54 42.678 -0.54 C 45.068 -0.54 46.792 -2.318 46.792 -4.677 Z"/>
 </g>
</svg>
