<svg xmlns="http://www.w3.org/2000/svg" viewBox="7.967 -72.296 75.558 74.182" aria-hidden="true" data-sf-symbol="arrow.uturn.right">
 <g fill="black">
  <path d="M 81.726 -44.963 C 81.726 -45.795 81.426 -46.548 80.759 -47.181 L 58.081 -69.564 C 57.515 -70.13 56.661 -70.497 55.93 -70.497 C 54.146 -70.497 52.947 -69.249 52.947 -67.529 C 52.947 -66.664 53.247 -66.015 53.764 -65.464 L 65.327 -54.138 L 75.831 -44.963 L 65.327 -35.822 L 53.764 -24.477 C 53.247 -23.959 52.947 -23.262 52.947 -22.396 C 52.947 -20.677 54.146 -19.444 55.93 -19.444 C 56.661 -19.444 57.515 -19.811 58.081 -20.362 L 80.759 -42.745 C 81.426 -43.378 81.726 -44.146 81.726 -44.963 Z M 48.549 -2.915 C 48.549 -4.548 47.347 -5.916 45.511 -5.916 L 35.825 -5.916 C 22.872 -5.916 15.72 -13.594 15.72 -24.133 C 15.72 -34.688 22.872 -41.977 35.825 -41.977 L 63.927 -41.977 L 76.001 -42.463 C 77.402 -42.531 78.5 -43.595 78.5 -44.963 C 78.5 -46.346 77.402 -47.395 76.001 -47.462 L 63.927 -47.964 L 36.318 -47.964 C 19.521 -47.964 9.766 -38.154 9.766 -23.811 C 9.766 -9.502 19.286 0.087 35.794 0.087 L 45.496 0.087 C 47.332 0.087 48.549 -1.281 48.549 -2.915 Z"/>
 </g>
</svg>
