<svg xmlns="http://www.w3.org/2000/svg" viewBox="7.95 -73.361 76.181 76.282" aria-hidden="true" data-sf-symbol="arrow.up.right.and.arrow.down.left">
 <g fill="black">
  <path d="M 54.661 -60.331 L 54.661 -65.158 C 54.661 -66.957 53.394 -68.272 51.629 -68.272 C 49.83 -68.272 48.511 -66.908 48.511 -65.158 L 48.511 -43.172 C 48.511 -39.721 50.524 -37.757 53.926 -37.757 L 75.961 -37.757 C 77.793 -37.757 79.127 -39.008 79.127 -40.822 C 79.127 -42.621 77.73 -43.873 75.961 -43.873 L 71.153 -43.873 L 53.679 -42.909 Z M 55.718 -41.048 L 69.267 -53.959 L 81.382 -66.108 C 82.015 -66.708 82.315 -67.51 82.315 -68.394 C 82.315 -70.294 80.929 -71.545 79.014 -71.545 C 78.212 -71.545 77.462 -71.261 76.896 -70.661 L 64.808 -58.475 L 51.821 -44.915 C 49.141 -42.033 52.754 -38.271 55.718 -41.048 Z M 37.42 -10.109 L 37.42 -5.283 C 37.42 -3.484 38.72 -2.168 40.485 -2.168 C 42.284 -2.168 43.554 -3.533 43.554 -5.283 L 43.554 -27.302 C 43.554 -30.72 41.557 -32.717 38.154 -32.717 L 16.12 -32.717 C 14.321 -32.717 12.953 -31.432 12.953 -29.618 C 12.953 -27.819 14.351 -26.568 16.12 -26.568 L 20.946 -26.568 L 38.402 -27.531 Z M 36.381 -29.393 L 22.848 -16.481 L 10.699 -4.332 C 10.099 -3.732 9.766 -2.931 9.766 -2.046 C 9.766 -0.146 11.152 1.105 13.052 1.105 C 13.869 1.105 14.618 0.82 15.218 0.221 L 27.272 -11.965 L 40.293 -25.525 C 42.973 -28.407 39.36 -32.17 36.381 -29.393 Z"/>
 </g>
</svg>
