<svg xmlns="http://www.w3.org/2000/svg" viewBox="6.9 -72.009 85.713 73.51" aria-hidden="true" data-sf-symbol="arrowshape.turn.up.right">
 <g fill="black">
  <path d="M 53.635 -0.54 C 55.383 -0.54 56.801 -1.294 58.428 -2.82 L 88.595 -31.194 C 90.144 -32.645 90.572 -34.026 90.572 -35.254 C 90.572 -36.515 90.159 -37.862 88.595 -39.347 L 58.428 -67.501 C 56.632 -69.18 55.45 -69.968 53.702 -69.968 C 51.211 -69.968 49.536 -67.988 49.536 -65.628 L 49.536 -50.74 L 48.302 -50.74 C 21.576 -50.74 8.941 -33.965 8.941 -5.25 C 8.941 -2.239 10.677 -0.54 12.587 -0.54 C 14.114 -0.54 15.707 -0.957 16.9 -3.246 C 23.292 -15.692 32.889 -19.646 48.302 -19.646 L 49.536 -19.646 L 49.536 -4.677 C 49.536 -2.318 51.211 -0.54 53.635 -0.54 Z M 55.496 -7.745 C 55.158 -7.745 54.947 -7.986 54.947 -8.339 L 54.947 -23.524 C 54.947 -24.391 54.568 -24.77 53.701 -24.77 L 49.036 -24.77 C 30.723 -24.77 19.132 -18.605 14.51 -8.462 C 14.382 -8.143 14.288 -7.973 14.066 -7.973 C 13.862 -7.973 13.75 -8.131 13.75 -8.42 C 14.374 -28.37 23.4 -45.65 49.036 -45.65 L 53.701 -45.65 C 54.568 -45.65 54.947 -46.029 54.947 -46.863 L 54.947 -62.468 C 54.947 -62.807 55.173 -63.032 55.511 -63.032 C 55.816 -63.032 56.042 -62.874 56.264 -62.682 L 83.983 -36.25 C 84.402 -35.831 84.557 -35.567 84.557 -35.254 C 84.557 -34.941 84.433 -34.677 83.983 -34.258 L 56.249 -8.095 C 55.947 -7.858 55.722 -7.745 55.496 -7.745 Z"/>
 </g>
</svg>
