<svg xmlns="http://www.w3.org/2000/svg" viewBox="8.209 -67.071 65.406 63.733" aria-hidden="true" data-sf-symbol="arrowtriangle.right">
 <g fill="black">
  <path d="M 14.023 -4.896 C 15.429 -4.896 16.539 -5.492 18.036 -6.25 L 68.138 -30.498 C 71.074 -31.957 72.057 -33.311 72.057 -35.205 C 72.057 -37.1 71.074 -38.454 68.138 -39.912 L 18.036 -64.16 C 16.505 -64.918 15.396 -65.514 13.989 -65.514 C 11.397 -65.514 9.766 -63.515 9.766 -60.432 L 9.799 -9.979 C 9.799 -6.895 11.431 -4.896 14.023 -4.896 Z M 15.652 -11.281 C 15.366 -11.281 15.192 -11.485 15.192 -11.862 L 15.192 -58.548 C 15.192 -58.94 15.366 -59.129 15.652 -59.129 C 15.84 -59.129 16.014 -59.02 16.236 -58.925 L 64.402 -35.767 C 64.655 -35.658 64.87 -35.488 64.87 -35.205 C 64.87 -34.922 64.655 -34.752 64.402 -34.643 L 16.236 -11.485 C 16.014 -11.391 15.84 -11.281 15.652 -11.281 Z"/>
 </g>
</svg>
