<svg xmlns="http://www.w3.org/2000/svg" viewBox="7.511 -87.636 94.696 93.941" aria-hidden="true" data-sf-symbol="display.and.arrow.down">
 <g fill="black">
  <path d="M 17.806 -9.241 L 91.914 -9.241 C 96.912 -9.241 99.953 -12.283 99.953 -17.281 L 99.953 -63.929 C 99.953 -68.912 96.912 -71.969 91.914 -71.969 L 17.806 -71.969 C 12.807 -71.969 9.766 -68.912 9.766 -63.929 L 9.766 -17.281 C 9.766 -12.283 12.807 -9.241 17.806 -9.241 Z M 17.918 -14.702 C 16.236 -14.702 15.192 -15.746 15.192 -17.379 L 15.192 -63.831 C 15.192 -65.498 16.236 -66.542 17.918 -66.542 L 91.801 -66.542 C 93.483 -66.542 94.527 -65.498 94.527 -63.831 L 94.527 -17.379 C 94.527 -15.746 93.483 -14.702 91.801 -14.702 Z M 42.971 0.138 L 66.782 0.138 L 66.782 -9.729 L 42.971 -9.729 Z M 42.635 4.051 L 67.118 4.051 C 68.614 4.051 69.847 2.867 69.847 1.337 C 69.847 -0.177 68.614 -1.395 67.118 -1.395 L 42.635 -1.395 C 41.105 -1.395 39.873 -0.177 39.873 1.337 C 39.873 2.867 41.105 4.051 42.635 4.051 Z"/>
  <path d="M 45.415 -75.928 L 45.415 -44.382 C 45.415 -39.153 49.653 -34.915 54.867 -34.915 C 60.096 -34.915 64.335 -39.153 64.335 -44.382 L 64.335 -75.928 C 64.335 -81.142 60.096 -85.381 54.867 -85.381 C 49.653 -85.381 45.415 -81.142 45.415 -75.928 Z"/>
  <path d="M 41.867 -52.285 C 40.451 -52.285 39.42 -51.273 39.42 -49.89 C 39.42 -49.174 39.72 -48.642 40.252 -48.11 L 52.918 -35.814 C 53.585 -35.147 54.2 -34.915 54.867 -34.915 C 55.549 -34.915 56.164 -35.147 56.831 -35.814 L 69.516 -48.11 C 70.015 -48.642 70.299 -49.174 70.299 -49.89 C 70.299 -51.273 69.235 -52.285 67.834 -52.285 C 67.185 -52.285 66.488 -52.004 65.989 -51.472 L 59.665 -44.795 L 54.867 -39.713 L 50.07 -44.795 L 43.745 -51.472 C 43.247 -52.004 42.516 -52.285 41.867 -52.285 Z M 54.867 -84.621 C 53.436 -84.621 52.203 -83.407 52.203 -82.009 L 52.203 -48.022 L 52.573 -38.372 C 52.641 -37.158 53.619 -36.112 54.867 -36.112 C 56.13 -36.112 57.109 -37.158 57.176 -38.372 L 57.547 -48.022 L 57.547 -82.009 C 57.547 -83.407 56.348 -84.621 54.867 -84.621 Z"/>
 </g>
</svg>
