<svg xmlns="http://www.w3.org/2000/svg" viewBox="7.247 -72.669 105.801 90.326" aria-hidden="true" data-sf-symbol="inset.filled.rectangle.and.pointer.arrow">
 <g fill="black">
  <path d="M 21.399 -0.291 L 88.012 -0.291 C 95.756 -0.291 99.646 -4.21 99.646 -11.823 L 99.646 -58.617 C 99.646 -66.23 95.756 -70.15 88.012 -70.15 L 21.399 -70.15 C 13.689 -70.15 9.766 -66.26 9.766 -58.617 L 9.766 -11.823 C 9.766 -4.18 13.689 -0.291 21.399 -0.291 Z M 21.497 -5.751 C 17.421 -5.751 15.192 -7.913 15.192 -12.089 L 15.192 -58.351 C 15.192 -62.562 17.421 -64.689 21.497 -64.689 L 87.914 -64.689 C 91.929 -64.689 94.219 -62.562 94.219 -58.351 L 94.219 -12.089 C 94.219 -7.913 91.929 -5.751 87.914 -5.751 Z"/>
  <path d="M 23.657 -10.537 L 85.754 -10.537 C 88.098 -10.537 89.399 -11.906 89.399 -14.283 L 89.399 -56.158 C 89.399 -58.535 88.098 -59.903 85.754 -59.903 L 23.657 -59.903 C 21.347 -59.903 20.012 -58.535 20.012 -56.158 L 20.012 -14.283 C 20.012 -11.906 21.347 -10.537 23.657 -10.537 Z"/>
  <path d="M 101.991 14.537 C 106.077 12.875 107.975 8.193 106.246 4.138 L 102.969 -3.535 L 104.872 -3.508 C 109.994 -4.021 112.471 -10.132 108.724 -13.985 L 87.761 -35.854 C 83.901 -39.823 77.249 -37.205 77.164 -31.6 L 76.986 -1.025 C 76.9 4.414 83.207 7.104 87.134 3.891 L 88.489 2.588 L 91.608 10.234 C 93.255 14.289 97.891 16.202 101.991 14.537 Z"/>
  <path d="M 100.176 10.081 C 101.756 9.424 102.514 7.63 101.838 6.051 L 95.749 -8.06 L 104.226 -8.276 C 105.561 -8.313 106.237 -9.626 105.295 -10.632 L 84.381 -32.467 C 83.459 -33.405 82.066 -32.865 82.032 -31.548 L 81.855 -0.939 C 81.821 0.445 83.438 0.903 84.361 -0.001 L 90.24 -5.941 L 96.079 8.437 C 96.721 9.983 98.566 10.722 100.176 10.081 Z"/>
 </g>
</svg>
