<svg xmlns="http://www.w3.org/2000/svg" viewBox="7.74 -77.804 84.149 85.1" aria-hidden="true" data-sf-symbol="square.arrowtriangle.4.outward">
 <g fill="black">
  <path d="M 13.449 -57.844 L 27.767 -72.128 C 29.188 -73.58 28.696 -75.778 26.483 -75.778 L 12.657 -75.778 C 10.651 -75.778 9.766 -74.791 9.766 -72.886 L 9.766 -59.094 C 9.766 -56.881 11.93 -56.355 13.449 -57.844 Z M 86.18 -57.844 C 87.699 -56.355 89.863 -56.881 89.863 -59.094 L 89.863 -72.92 C 89.863 -74.791 89.011 -75.778 87.005 -75.778 L 73.179 -75.778 C 70.933 -75.778 70.441 -73.58 71.862 -72.128 Z M 13.449 -12.664 C 11.93 -14.152 9.766 -13.627 9.766 -11.414 L 9.766 2.412 C 9.766 4.283 10.651 5.27 12.624 5.27 L 26.483 5.27 C 28.696 5.27 29.188 3.072 27.767 1.621 Z M 86.18 -12.664 L 71.862 1.621 C 70.441 3.072 70.933 5.27 73.179 5.27 L 87.005 5.27 C 89.011 5.27 89.863 4.283 89.863 2.412 L 89.863 -11.414 C 89.863 -13.627 87.699 -14.152 86.18 -12.664 Z"/>
  <path d="M 35.877 -9.683 L 63.785 -9.683 C 71.496 -9.683 75.419 -13.539 75.419 -21.182 L 75.419 -49.326 C 75.419 -56.969 71.496 -60.825 63.785 -60.825 L 35.877 -60.825 C 28.133 -60.825 24.244 -56.939 24.244 -49.326 L 24.244 -21.182 C 24.244 -13.569 28.133 -9.683 35.877 -9.683 Z M 35.975 -15.11 C 31.899 -15.11 29.67 -17.271 29.67 -21.448 L 29.67 -49.06 C 29.67 -53.236 31.899 -55.398 35.975 -55.398 L 63.688 -55.398 C 67.669 -55.398 69.959 -53.236 69.959 -49.06 L 69.959 -21.448 C 69.959 -17.271 67.669 -15.11 63.688 -15.11 Z"/>
 </g>
</svg>
