<svg xmlns="http://www.w3.org/2000/svg" viewBox="7.488 -89.513 71.788 95.658" aria-hidden="true" data-sf-symbol="square.and.arrow.up">
 <g fill="black">
  <path d="M 25.598 3.868 L 61.151 3.868 C 71.324 3.868 76.999 -1.821 76.999 -11.979 L 76.999 -41.285 C 76.999 -51.443 71.324 -57.084 61.151 -57.084 L 25.598 -57.084 C 15.44 -57.084 9.766 -51.443 9.766 -41.285 L 9.766 -11.979 C 9.766 -1.821 15.44 3.868 25.598 3.868 Z M 25.583 -1.559 C 18.937 -1.559 15.192 -5.303 15.192 -11.964 L 15.192 -41.3 C 15.192 -47.913 18.937 -51.672 25.583 -51.672 L 61.151 -51.672 C 67.828 -51.672 71.572 -47.913 71.572 -41.3 L 71.572 -11.964 C 71.572 -5.303 67.828 -1.559 61.151 -1.559 Z"/>
  <path d="M 52.833 -28.427 L 52.833 -77.816 C 52.833 -82.963 48.561 -87.235 43.365 -87.235 C 38.204 -87.235 33.897 -82.963 33.897 -77.816 L 33.897 -28.427 C 33.897 -23.266 38.204 -19.027 43.365 -19.027 C 48.561 -19.027 52.833 -23.266 52.833 -28.427 Z"/>
  <path d="M 30.365 -63.809 C 31.014 -63.809 31.763 -64.075 32.228 -64.607 L 38.586 -71.284 L 43.365 -76.332 L 48.148 -71.284 L 54.487 -64.607 C 54.986 -64.075 55.668 -63.809 56.35 -63.809 C 57.718 -63.809 58.797 -64.806 58.797 -66.17 C 58.797 -66.904 58.498 -67.436 57.999 -67.969 L 45.314 -80.265 C 44.647 -80.932 44.081 -81.164 43.365 -81.164 C 42.683 -81.164 42.102 -80.932 41.416 -80.265 L 28.75 -67.969 C 28.218 -67.436 27.952 -66.904 27.952 -66.17 C 27.952 -64.806 28.967 -63.809 30.365 -63.809 Z M 43.365 -25.815 C 44.831 -25.815 46.079 -27.014 46.079 -28.427 L 46.079 -68.057 L 45.659 -77.673 C 45.592 -78.921 44.613 -79.967 43.365 -79.967 C 42.136 -79.967 41.172 -78.921 41.105 -77.673 L 40.686 -68.057 L 40.686 -28.427 C 40.686 -27.014 41.934 -25.815 43.365 -25.815 Z"/>
 </g>
</svg>
