<svg xmlns="http://www.w3.org/2000/svg" viewBox="7.674 -74.039 87.852 82.413" aria-hidden="true" data-sf-symbol="plus.bubble">
 <g fill="black">
  <path d="M 32.491 6.283 C 34.17 6.283 35.333 5.402 37.303 3.63 L 50.662 -8.134 L 76.562 -8.134 C 87.424 -8.134 93.435 -14.31 93.435 -25.006 L 93.435 -55.074 C 93.435 -65.77 87.424 -71.947 76.562 -71.947 L 26.638 -71.947 C 15.777 -71.947 9.766 -65.801 9.766 -55.074 L 9.766 -25.006 C 9.766 -14.28 15.777 -8.134 26.638 -8.134 L 28.766 -8.134 L 28.766 1.992 C 28.766 4.619 30.127 6.283 32.491 6.283 Z M 33.859 0.137 L 33.859 -11.016 C 33.859 -12.863 33.162 -13.561 31.314 -13.561 L 26.669 -13.561 C 19.004 -13.561 15.192 -17.623 15.192 -25.037 L 15.192 -55.044 C 15.192 -62.439 19.004 -66.486 26.669 -66.486 L 76.532 -66.486 C 84.136 -66.486 88.008 -62.439 88.008 -55.044 L 88.008 -25.037 C 88.008 -17.623 84.136 -13.561 76.532 -13.561 L 50.528 -13.561 C 48.624 -13.561 47.63 -13.264 46.279 -11.892 Z"/>
  <path d="M 54.413 -25.385 L 54.413 -54.726 C 54.413 -56.476 53.251 -57.623 51.535 -57.623 C 49.916 -57.623 48.754 -56.461 48.754 -54.726 L 48.754 -25.385 C 48.754 -23.717 49.916 -22.521 51.535 -22.521 C 53.251 -22.521 54.413 -23.702 54.413 -25.385 Z M 36.939 -37.267 L 66.295 -37.267 C 67.963 -37.267 69.144 -38.414 69.144 -40.048 C 69.144 -41.73 67.978 -42.911 66.295 -42.911 L 36.939 -42.911 C 35.223 -42.911 34.057 -41.73 34.057 -40.048 C 34.057 -38.414 35.238 -37.267 36.939 -37.267 Z"/>
 </g>
</svg>
