<svg xmlns="http://www.w3.org/2000/svg" viewBox="0 0 100 100" aria-hidden="true" data-sf-symbol="questionmark.circle.fill">
 <path fill="black" fill-rule="evenodd" d="M50 2C23.49 2 2 23.49 2 50s21.49 48 48 48 48-21.49 48-48S76.51 2 50 2Zm-2.1 58.9c1.9 0 3.05-1.05 3.35-2.85.25-2.35 1.35-3.6 4.6-5.75 4.6-3 6.85-6.15 6.85-11.05 0-7.15-5.9-11.85-13.9-11.85-6.35 0-11.05 2.95-12.75 7.35-.35.9-.55 1.8-.55 2.65 0 1.85 1.15 3 2.85 3 1.5 0 2.45-.7 3.15-2.35 1.15-3.05 3.4-4.55 6.95-4.55 3.95 0 6.6 2.25 6.6 5.6 0 3-1.3 4.65-5.15 7.15-3.3 2.15-4.85 4.35-4.85 7.55v.55c0 1.9 1.25 2.9 3.35 2.9Zm-.05 12.15c2.15 0 3.95-1.7 3.95-3.85s-1.8-3.9-3.95-3.9-3.95 1.75-3.95 3.9 1.8 3.85 3.95 3.85Z"/>
</svg>
