<svg xmlns="http://www.w3.org/2000/svg" viewBox="7.102 -91.482 56.108 111.87" aria-hidden="true" data-sf-symbol="balloon">
 <g fill="black">
  <path d="M35.1074-28.7109C49.3652-28.7109 60.5469-43.9453 60.5469-62.6953C60.5469-77.5391 50.0977-88.8184 35.1074-88.8184C20.166-88.8184 9.76562-77.5391 9.76562-62.6953C9.76562-43.9453 20.8984-28.7109 35.1074-28.7109ZM35.1074-35.2539C24.5605-35.2539 16.3574-47.7051 16.3574-62.6953C16.3574-73.6328 24.0723-82.2266 35.1074-82.2266C46.1426-82.2266 53.9551-73.6328 53.9551-62.6953C53.9551-47.7051 45.6543-35.2539 35.1074-35.2539ZM29.3457-31.7383L27.3926-24.3164C26.9043-22.6074 27.8809-20.7031 30.0781-20.7031L40.1855-20.7031C42.3828-20.7031 43.3594-22.6074 42.8711-24.3164L40.8691-31.7383ZM34.9121 17.7246C36.6211 17.7246 37.9883 16.3086 37.9883 14.6484C37.9883 6.39648 45.6055 4.49219 45.6055-4.15039C45.6055-13.1348 37.9883-14.4531 38.0859-22.0703L31.9336-22.0703C31.8848-11.4258 39.4531-9.76562 39.4531-4.15039C39.4531 1.61133 31.8359 2.53906 31.8359 14.6484C31.8359 16.3086 33.2031 17.7246 34.9121 17.7246Z"/>
 </g>
</svg>
