<svg xmlns="http://www.w3.org/2000/svg" viewBox="5.769 -77.141 76.841 83.774" aria-hidden="true" data-sf-symbol="bell">
 <g fill="black">
  <path d="M7.76367-14.8438C7.76367-11.7188 10.2051-9.61914 14.3555-9.61914L29.2969-9.61914C29.6387-2.14844 35.6934 4.63867 44.1895 4.63867C52.6367 4.63867 58.6914-2.09961 59.082-9.61914L74.0234-9.61914C78.1738-9.61914 80.6152-11.7188 80.6152-14.8438C80.6152-18.6523 76.6113-22.168 73.2422-25.5371C71.0449-27.7344 70.166-32.2754 70.0684-35.6934C70.0195-52.002 66.1133-62.207 55.6641-66.2109C54.248-71.0938 50.0488-75.1465 44.1895-75.1465C38.3301-75.1465 34.1309-71.0938 32.7148-66.2109C22.2656-62.207 18.3594-52.002 18.2617-35.6934C18.2129-32.2754 17.2852-27.7344 15.1367-25.5371C11.7188-22.168 7.76367-18.6523 7.76367-14.8438ZM16.3086-16.2109L16.3086-16.6992C17.1387-17.5781 19.2383-19.5312 21.1426-21.6797C23.4375-24.3164 25.1465-28.0762 25.2441-35.2051C25.293-53.4668 30.6152-58.6426 37.1094-60.4492C37.9883-60.6445 38.4277-61.1328 38.4277-62.0117C38.4766-66.0645 40.7227-68.75 44.1895-68.75C47.6074-68.75 49.9023-66.0645 49.9023-62.0117C49.9023-61.1328 50.3906-60.6445 51.2207-60.4492C57.7637-58.6426 63.0859-53.4668 63.1348-35.2051C63.2324-28.0762 64.9414-24.3164 67.2363-21.6797C69.1406-19.5312 71.2402-17.5781 72.0703-16.6992L72.0703-16.2109ZM36.084-9.61914L52.2949-9.61914C52.002-4.63867 48.7305-1.46484 44.1895-1.46484C39.5996-1.46484 36.377-4.63867 36.084-9.61914Z"/>
 </g>
</svg>
