<svg xmlns="http://www.w3.org/2000/svg" viewBox="12.083 -78.933 56.743 87.261" aria-hidden="true" data-sf-symbol="bookmark">
 <g fill="black">
  <path d="M18.6035 6.25C20.6543 6.25 21.875 5.0293 25.8789 1.17188L40.0879-12.5977C40.2832-12.793 40.6738-12.793 40.8203-12.5977L55.0293 1.17188C59.082 5.0293 60.2539 6.25 62.3535 6.25C65.1367 6.25 66.748 4.39453 66.748 1.12305L66.748-65.4785C66.748-73.0469 62.9883-76.8555 55.5176-76.8555L25.3906-76.8555C17.9199-76.8555 14.1602-73.0469 14.1602-65.4785L14.1602 1.12305C14.1602 4.39453 15.7715 6.25 18.6035 6.25ZM22.168-5.71289C21.6309-5.22461 21.0449-5.37109 21.0449-6.10352L21.0449-65.3809C21.0449-68.4082 22.6562-69.9707 25.7324-69.9707L55.1758-69.9707C58.252-69.9707 59.8633-68.4082 59.8633-65.3809L59.8633-6.10352C59.8633-5.37109 59.2773-5.22461 58.7891-5.71289L42.6758-20.9961C41.3086-22.3145 39.5996-22.3145 38.2324-20.9961Z"/>
 </g>
</svg>
