<svg xmlns="http://www.w3.org/2000/svg" viewBox="4.865 -76.63 82.8 82.751" aria-hidden="true" data-sf-symbol="clock">
 <g fill="black">
  <path d="M46.2402 4.15039C68.0176 4.15039 85.6934-13.4766 85.6934-35.2539C85.6934-57.0312 68.0176-74.6582 46.2402-74.6582C24.5117-74.6582 6.83594-57.0312 6.83594-35.2539C6.83594-13.4766 24.5117 4.15039 46.2402 4.15039ZM46.2402-3.27148C28.5645-3.27148 14.3066-17.5781 14.3066-35.2539C14.3066-52.9297 28.5645-67.2363 46.2402-67.2363C63.916-67.2363 78.2227-52.9297 78.2227-35.2539C78.2227-17.5781 63.916-3.27148 46.2402-3.27148Z"/>
  <path d="M26.709-30.9082L46.1914-30.9082C47.9004-30.9082 49.2188-32.2266 49.2188-33.8867L49.2188-59.0332C49.2188-60.7422 47.9004-62.0605 46.1914-62.0605C44.5312-62.0605 43.2129-60.7422 43.2129-59.0332L43.2129-36.9141L26.709-36.9141C25-36.9141 23.7305-35.5957 23.7305-33.8867C23.7305-32.2266 25-30.9082 26.709-30.9082Z"/>
 </g>
</svg>
