<svg xmlns="http://www.w3.org/2000/svg" viewBox="5 -44.658 77.109 18.809" aria-hidden="true" data-sf-symbol="ellipsis">
 <g fill="black">
  <path d="M72.7051-27.6855C76.9043-27.6855 80.2734-31.0547 80.2734-35.2539C80.2734-39.4531 76.9043-42.8223 72.7051-42.8223C68.5547-42.8223 65.1367-39.4531 65.1367-35.2539C65.1367-31.0547 68.5547-27.6855 72.7051-27.6855Z"/>
  <path d="M43.5547-27.6855C47.7539-27.6855 51.123-31.0547 51.123-35.2539C51.123-39.4531 47.7539-42.8223 43.5547-42.8223C39.3555-42.8223 35.9863-39.4531 35.9863-35.2539C35.9863-31.0547 39.3555-27.6855 43.5547-27.6855Z"/>
  <path d="M14.4043-27.6855C18.6035-27.6855 21.9727-31.0547 21.9727-35.2539C21.9727-39.4531 18.6035-42.8223 14.4043-42.8223C10.2051-42.8223 6.83594-39.4531 6.83594-35.2539C6.83594-31.0547 10.2051-27.6855 14.4043-27.6855Z"/>
 </g>
</svg>
