<svg xmlns="http://www.w3.org/2000/svg" viewBox="4.614 -81.86 93.311 93.311" aria-hidden="true" data-sf-symbol="gear">
 <g fill="black">
  <path d="M51.2695 9.22852C52.3438 9.22852 53.2227 8.69141 53.5156 6.68945L53.9551 3.51562C54.1992 2.34375 54.9316 1.66016 56.2012 1.51367C57.373 1.31836 58.2031 1.80664 58.6914 2.92969L59.9121 5.81055C60.7422 7.76367 61.7676 8.00781 62.7441 7.71484C63.7695 7.42188 64.502 6.68945 64.209 4.58984L63.8184 1.5625C63.6719 0.292969 64.3066-0.439453 65.5273-1.02539C66.5527-1.46484 67.5781-1.31836 68.3105-0.341797L70.2637 2.14844C71.582 3.85742 72.5586 3.80859 73.4863 3.22266C74.4629 2.68555 74.9512 1.9043 74.1211-0.0488281L72.998-2.97852C72.5098-4.19922 72.8516-5.17578 73.8281-5.85938C74.8535-6.5918 75.7324-6.68945 76.8066-5.9082L79.2969-4.00391C80.957-2.7832 81.9336-3.02734 82.7148-3.75977C83.4473-4.54102 83.6914-5.56641 82.4219-7.17773L80.5176-9.61914C79.7852-10.6445 79.9316-11.6211 80.6641-12.7441C81.3477-13.623 82.3242-14.0137 83.4961-13.4766L86.4258-12.3535C88.3789-11.5234 89.209-12.0117 89.7461-13.0371C90.2832-13.916 90.332-14.8926 88.623-16.2109L86.1816-18.1641C85.2051-18.9453 85.0586-19.9707 85.5469-21.0449C85.9375-22.1191 86.6699-22.7051 88.0371-22.6074L91.1621-22.2168C93.1641-21.9727 93.9453-22.6562 94.1895-23.7305C94.4336-24.7559 94.2383-25.7324 92.2852-26.5137L89.4043-27.7344C88.2812-28.1738 87.8418-29.0527 87.9883-30.4199C88.1348-31.6406 88.8184-32.3242 90.0391-32.5195L93.1152-32.959C95.166-33.252 95.7031-34.1309 95.7031-35.2051C95.7031-36.2793 95.166-37.1582 93.1152-37.4512L90.0391-37.8906C88.7695-38.1348 88.1836-38.8184 87.9883-40.0879C87.8418-41.2598 88.2812-42.1387 89.4043-42.627L92.334-43.8477C94.2383-44.6777 94.4824-45.7031 94.1895-46.6797C93.8965-47.7051 93.1641-48.4375 91.1133-48.1445L88.0859-47.7539C86.7676-47.6074 85.8398-48.3398 85.498-49.3652C85.0098-50.6348 85.1074-51.4648 86.1816-52.2461L88.623-54.1992C90.332-55.5176 90.2832-56.4941 89.7949-57.4219C89.1602-58.4473 88.2812-58.8379 86.4258-58.1055L83.4961-56.8848C82.3242-56.3965 81.3477-56.8359 80.6152-57.7637C79.9316-58.7891 79.7852-59.668 80.5664-60.7422L82.4707-63.2324C83.6914-64.8438 83.4961-65.8691 82.7148-66.6504C81.9336-67.3828 80.957-67.627 79.3457-66.3574L76.8555-64.4531C75.8301-63.623 74.7559-63.8184 73.8281-64.5996C72.8516-65.4297 72.5098-66.2109 72.998-67.4316L74.1211-70.3613C74.9512-72.3145 74.4629-73.1445 73.4863-73.6328C72.4609-74.2676 71.4355-74.0723 70.2637-72.5586L68.3105-70.1172C67.5293-69.1406 66.5527-68.9941 65.3809-69.4336C64.3555-69.873 63.7207-70.6543 63.8672-71.9727L64.3066-75.0488C64.502-77.0996 63.9648-77.832 62.7441-78.125C61.6211-78.418 60.6445-77.9785 59.9609-76.2207L58.7891-73.3398C58.3008-72.168 57.3242-71.6797 56.1035-71.875C54.834-72.1191 54.1504-72.7051 54.0039-73.9746L53.5156-77.0508C53.2227-79.1016 52.3438-79.6387 51.3184-79.6387C50.1953-79.6387 49.3164-79.1016 49.0234-77.0996L48.584-73.9258C48.3887-72.7539 47.6562-72.0215 46.3867-71.9238C45.2148-71.8262 44.3359-72.2168 43.8477-73.3398L42.627-76.2207C41.8945-77.9297 40.9668-78.4668 39.7949-78.125C38.5254-77.7832 38.0371-76.8555 38.3301-75.0488L38.7207-71.9727C38.8672-70.6543 38.1836-69.8242 37.0605-69.3848C35.8398-68.9941 35.0098-69.1406 34.2285-70.1172L32.2754-72.5586C31.0547-74.1211 30.0781-74.2188 29.1016-73.6328C28.0762-73.0957 27.5879-72.3145 28.418-70.3613L29.541-67.4316C30.0293-66.3086 29.6875-65.2832 28.8086-64.5996C27.832-63.8184 26.8066-63.7207 25.7324-64.502L23.2422-66.4062C21.7285-67.5293 20.7031-67.4805 19.8242-66.6504C18.9453-65.7227 18.9941-64.7461 20.1172-63.2324L22.0215-60.791C22.8516-59.7656 22.6562-58.6914 21.875-57.7148C21.0449-56.7871 20.2637-56.4453 19.043-56.9336L16.1133-58.0566C14.3555-58.7891 13.3789-58.4961 12.8418-57.4219C12.1582-56.3477 12.4512-55.3223 13.916-54.1992L16.3574-52.2461C17.334-51.4648 17.5293-50.3906 17.041-49.3652C16.5039-48.291 15.8203-47.7051 14.502-47.8027L11.377-48.1934C9.375-48.4375 8.59375-47.7539 8.34961-46.6797C8.10547-45.7031 8.30078-44.6777 10.2539-43.8965L13.1348-42.6758C14.3066-42.1387 14.7949-41.2598 14.5508-40.0391C14.3066-38.7695 13.8184-38.1348 12.5-37.8906L9.42383-37.4512C7.37305-37.1582 6.83594-36.2793 6.83594-35.2051C6.83594-34.1309 7.37305-33.252 9.42383-32.959L12.5-32.5195C13.8184-32.3242 14.3555-31.6406 14.5508-30.3711C14.6973-29.248 14.3066-28.2715 13.1348-27.7832L10.2051-26.5625C8.30078-25.7324 8.05664-24.7559 8.34961-23.7305C8.64258-22.7051 9.375-21.9727 11.4258-22.2656L14.4531-22.6562C15.7715-22.8027 16.5039-22.168 17.0898-20.9961C17.5293-19.9707 17.334-18.8965 16.3574-18.1641L13.916-16.2109C12.207-14.8926 12.2559-13.916 12.8418-12.9883C13.3301-12.0117 14.1602-11.5234 16.1133-12.3047L19.043-13.5254C20.166-14.0137 21.2402-13.5254 21.9238-12.6465C22.6562-11.7188 22.7539-10.7422 21.9727-9.66797L20.0684-7.22656C18.8477-5.56641 19.043-4.54102 19.8242-3.75977C20.6055-3.02734 21.582-2.7832 23.1934-4.05273L25.6836-5.95703C26.709-6.68945 27.6855-6.5918 28.8086-5.81055C29.6875-5.12695 30.0293-4.15039 29.541-2.97852L28.418-0.0488281C27.5879 1.9043 28.0762 2.68555 29.1016 3.22266C29.9805 3.80859 30.957 3.85742 32.2754 2.14844L34.2285-0.292969C35.0586-1.31836 35.9863-1.46484 37.0117-1.02539C38.0859-0.585938 38.8184 0.244141 38.6719 1.5625L38.2324 4.63867C38.0371 6.68945 38.7207 7.4707 39.7949 7.71484C40.8203 7.95898 41.7969 7.76367 42.5781 5.81055L43.75 2.92969C44.2383 1.80664 45.1172 1.36719 46.4844 1.46484C47.7051 1.61133 48.3887 2.34375 48.5352 3.56445L49.0234 6.64062C49.3164 8.69141 50.1953 9.22852 51.2695 9.22852ZM28.5645-13.5742C23.1445-19.2383 19.873-26.8066 19.873-35.2051C19.873-43.6523 23.1445-51.2207 28.5645-56.8359C31.0547-59.4238 33.8867-58.7891 35.7422-55.5664L45.3613-38.916C46.875-36.2793 46.875-34.1309 45.3613-31.4453L35.7422-14.8438C33.8867-11.6211 31.0547-10.9863 28.5645-13.5742ZM51.0254-4.05273C48.4863-4.05273 45.9473-4.3457 43.5547-4.93164C40.0391-5.81055 39.209-8.54492 41.0645-11.7676L50.6836-28.418C52.1484-31.0059 54.0527-32.1289 57.0801-32.1289L76.2695-32.1289C79.9316-32.1289 81.9336-30.0293 80.9082-26.5625C77.1484-13.5254 65.2344-4.05273 51.0254-4.05273ZM50.8789-32.666C49.5117-32.666 48.4375-33.7402 48.4375-35.1074C48.4375-36.4746 49.5117-37.5488 50.8789-37.5488C52.2461-37.5488 53.3691-36.4746 53.3691-35.1074C53.3691-33.7402 52.2461-32.666 50.8789-32.666ZM57.0801-38.2812C54.1016-38.2812 52.1484-39.4043 50.6836-41.9922L41.0645-58.6426C39.209-61.8652 40.0391-64.5996 43.5547-65.4785C45.9473-66.0645 48.4863-66.4062 51.0254-66.4062C65.2344-66.4062 77.1973-56.9336 80.9082-43.8477C81.9336-40.3809 79.9316-38.2812 76.2695-38.2812Z"/>
 </g>
</svg>
