<svg xmlns="http://www.w3.org/2000/svg" viewBox="6.313 -84.061 103.59 98.668" aria-hidden="true" data-sf-symbol="hammer">
 <g fill="black">
  <path d="M11.1816 2.92969L17.8711 9.66797C21.3379 13.1836 25.4883 12.9883 29.1504 8.83789L76.9531-45.2637L72.6074-49.6094L25.1953 4.00391C23.9746 5.32227 22.8027 5.76172 21.0449 3.95508L16.8457-0.195312C15.0879-1.95312 15.5273-3.07617 16.8945-4.3457L70.166-53.8086L65.8203-58.1055L12.0117-8.25195C8.00781-4.54102 7.71484-0.537109 11.1816 2.92969ZM46.3379-74.3164C44.6289-72.6562 44.4824-70.2637 45.4102-68.6035C46.3867-67.0898 48.3887-66.0645 51.0742-66.6992C55.6152-67.9688 60.7422-68.3594 65.6738-65.9668L63.7695-60.8398C62.4512-57.4707 63.1836-55.127 65.2344-53.0273L73.291-44.873C75.293-42.8711 77.1484-42.8223 79.1992-43.2129L82.5195-43.75L84.2773-41.9922L84.1309-40.2344C84.0332-38.5254 84.6191-36.8164 86.4258-35.1074L89.0625-32.4707C91.0645-30.4688 93.8965-30.2734 95.8496-32.2754L106.006-42.4805C108.008-44.5312 107.861-47.2168 105.859-49.2188L103.174-51.9043C101.465-53.6133 99.8535-54.3945 98.0957-54.248L96.2402-54.0527L94.6289-55.6641L95.459-59.375C95.9473-61.5234 95.2148-63.2812 93.0664-65.4785L84.0332-74.4141C73.4863-84.8145 55.3711-83.1543 46.3379-74.3164ZM52.7344-72.6562C59.668-77.3438 72.8516-76.9043 78.8086-70.9473L88.7207-61.1328C89.502-60.4004 89.5996-59.8145 89.4043-58.7402L88.1836-53.418L93.6035-47.998L97.168-48.1934C97.998-48.2422 98.1934-48.1934 98.877-47.6074L100.684-45.8008L92.5293-37.6465L90.7227-39.4531C90.0879-40.0879 89.9902-40.332 90.0391-41.2109L90.2832-44.6777L84.9121-50.0488L79.3945-49.1211C78.3691-48.9258 77.9785-48.9746 77.1484-49.7559L70.0195-56.8359C69.2871-57.5684 69.2383-58.0078 69.7266-59.1797L73.3398-68.1641C68.5547-73.3398 59.7656-74.4141 52.9785-72.168C52.5391-71.9727 52.3438-72.4121 52.7344-72.6562Z"/>
 </g>
</svg>
