<svg xmlns="http://www.w3.org/2000/svg" viewBox="7.766 -72.801 75.143 75.191" aria-hidden="true" data-sf-symbol="info.square">
 <g fill="black">
  <path d="M22.2168 0.390625L68.457 0.390625C76.8066 0.390625 80.9082-3.71094 80.9082-11.9141L80.9082-58.4961C80.9082-66.6992 76.8066-70.8008 68.457-70.8008L22.2168-70.8008C13.916-70.8008 9.76562-66.6992 9.76562-58.4961L9.76562-11.9141C9.76562-3.71094 13.916 0.390625 22.2168 0.390625ZM22.3145-6.68945C18.7988-6.68945 16.7969-8.59375 16.7969-12.2559L16.7969-58.1543C16.7969-61.8652 18.7988-63.7207 22.3145-63.7207L68.3594-63.7207C71.875-63.7207 73.877-61.8652 73.877-58.1543L73.877-12.2559C73.877-8.59375 71.875-6.68945 68.3594-6.68945Z"/>
  <path d="M38.7695-13.5742L54.2969-13.5742C56.0547-13.5742 57.4707-14.8438 57.4707-16.6504C57.4707-18.3594 56.0547-19.6777 54.2969-19.6777L50-19.6777L50-37.9395C50-40.332 48.8281-41.8457 46.6309-41.8457L39.502-41.8457C37.793-41.8457 36.377-40.5273 36.377-38.8672C36.377-37.0605 37.793-35.791 39.502-35.791L43.0664-35.791L43.0664-19.6777L38.7695-19.6777C37.0117-19.6777 35.5957-18.3594 35.5957-16.6504C35.5957-14.8438 37.0117-13.5742 38.7695-13.5742ZM44.9707-47.8516C48.0469-47.8516 50.4395-50.293 50.4395-53.3691C50.4395-56.4453 48.0469-58.8379 44.9707-58.8379C41.9434-58.8379 39.502-56.4453 39.502-53.3691C39.502-50.293 41.9434-47.8516 44.9707-47.8516Z"/>
 </g>
</svg>
