<svg xmlns="http://www.w3.org/2000/svg" viewBox="4.865 -76.63 82.8 82.751" aria-hidden="true" data-sf-symbol="info.circle">
 <g fill="black">
  <path d="M46.2402 4.15039C68.0176 4.15039 85.6934-13.4766 85.6934-35.2539C85.6934-57.0312 68.0176-74.6582 46.2402-74.6582C24.5117-74.6582 6.83594-57.0312 6.83594-35.2539C6.83594-13.4766 24.5117 4.15039 46.2402 4.15039ZM46.2402-3.27148C28.5645-3.27148 14.3066-17.5781 14.3066-35.2539C14.3066-52.9297 28.5645-67.2363 46.2402-67.2363C63.916-67.2363 78.2227-52.9297 78.2227-35.2539C78.2227-17.5781 63.916-3.27148 46.2402-3.27148Z"/>
  <path d="M39.6484-13.623L55.1758-13.623C56.9336-13.623 58.3496-14.8926 58.3496-16.6992C58.3496-18.4082 56.9336-19.7266 55.1758-19.7266L50.8789-19.7266L50.8789-37.9883C50.8789-40.3809 49.707-41.8945 47.5098-41.8945L40.3809-41.8945C38.623-41.8945 37.2559-40.5762 37.2559-38.916C37.2559-37.1094 38.623-35.8398 40.3809-35.8398L43.9453-35.8398L43.9453-19.7266L39.6484-19.7266C37.8906-19.7266 36.4746-18.4082 36.4746-16.6992C36.4746-14.8926 37.8906-13.623 39.6484-13.623ZM45.8496-47.9004C48.9258-47.9004 51.3184-50.3418 51.3184-53.418C51.3184-56.4941 48.9258-58.8867 45.8496-58.8867C42.8223-58.8867 40.3809-56.4941 40.3809-53.418C40.3809-50.3418 42.8223-47.9004 45.8496-47.9004Z"/>
 </g>
</svg>
