<svg xmlns="http://www.w3.org/2000/svg" viewBox="7.52 -83.447 56.348 94.336" aria-hidden="true" data-sf-symbol="lightbulb">
 <g fill="black">
  <path d="M9.76562-57.3242C9.76562-42.2363 18.6523-38.8184 21.1426-13.7207C21.2891-12.2559 22.1191-11.3281 23.6328-11.3281L47.7539-11.3281C49.2676-11.3281 50.0977-12.2559 50.2441-13.7207C52.7344-38.8184 61.6211-42.2363 61.6211-57.3242C61.6211-70.8496 50.1953-81.2012 35.6934-81.2012C21.1914-81.2012 9.76562-70.8496 9.76562-57.3242ZM16.3574-57.3242C16.3574-67.5293 25.1953-74.6094 35.6934-74.6094C46.1914-74.6094 55.0293-67.5293 55.0293-57.3242C55.0293-46.4844 47.9492-44.2871 44.2383-17.8711L27.1484-17.8711C23.4375-44.2871 16.3574-46.4844 16.3574-57.3242ZM23.3398-2.63672L47.998-2.63672C49.3652-2.63672 50.3906-3.71094 50.3906-5.0293C50.3906-6.39648 49.3652-7.42188 47.998-7.42188L23.3398-7.42188C22.0215-7.42188 20.9473-6.39648 20.9473-5.0293C20.9473-3.71094 22.0215-2.63672 23.3398-2.63672ZM35.6934 8.64258C41.6504 8.64258 46.7773 5.71289 47.1191 1.2207L24.2188 1.2207C24.5117 5.71289 29.6875 8.64258 35.6934 8.64258Z"/>
 </g>
</svg>
