<svg xmlns="http://www.w3.org/2000/svg" viewBox="7.766 -56.785 81.93 43.16" aria-hidden="true" data-sf-symbol="line.3.horizontal">
 <g fill="black">
  <path d="M13.0371-15.625L84.375-15.625C86.2305-15.625 87.6953-17.0898 87.6953-18.9453C87.6953-20.8008 86.2305-22.2656 84.375-22.2656L13.0371-22.2656C11.2305-22.2656 9.76562-20.8008 9.76562-18.9453C9.76562-17.0898 11.2305-15.625 13.0371-15.625Z"/>
  <path d="M13.0371-31.8848L84.375-31.8848C86.2305-31.8848 87.6953-33.3496 87.6953-35.2051C87.6953-37.0605 86.2305-38.5254 84.375-38.5254L13.0371-38.5254C11.2305-38.5254 9.76562-37.0605 9.76562-35.2051C9.76562-33.3496 11.2305-31.8848 13.0371-31.8848Z"/>
  <path d="M13.0371-48.1934L84.375-48.1934C86.2305-48.1934 87.6953-49.6582 87.6953-51.4648C87.6953-53.3203 86.2305-54.7852 84.375-54.7852L13.0371-54.7852C11.2305-54.7852 9.76562-53.3203 9.76562-51.4648C9.76562-49.6582 11.2305-48.1934 13.0371-48.1934Z"/>
 </g>
</svg>
