<svg xmlns="http://www.w3.org/2000/svg" viewBox="10.742 -73.975 52.393 75.488" aria-hidden="true" data-sf-symbol="lock.fill">
 <g fill="black">
  <path d="M19.6289 1.51367L54.248 1.51367C60.1562 1.51367 63.1348-1.51367 63.1348-7.91016L63.1348-33.6426C63.1348-39.9902 60.1562-43.0176 54.248-43.0176L19.6289-43.0176C13.7207-43.0176 10.7422-39.9902 10.7422-33.6426L10.7422-7.91016C10.7422-1.51367 13.7207 1.51367 19.6289 1.51367ZM17.3828-39.6484L24.2676-39.6484L24.2676-53.3203C24.2676-62.793 30.3711-67.4316 36.9141-67.4316C43.5059-67.4316 49.6582-62.793 49.6582-53.3203L49.6582-39.6484L56.543-39.6484L56.543-52.3438C56.543-67.2852 46.7285-73.9746 36.9141-73.9746C27.1484-73.9746 17.3828-67.2852 17.3828-52.3438Z"/>
 </g>
</svg>
