<svg xmlns="http://www.w3.org/2000/svg" viewBox="6.712 -78.64 78.266 87.468" aria-hidden="true" data-sf-symbol="paperclip">
 <g fill="black">
  <path d="M71.2891-32.9102L43.5059-5.17578C36.2793 2.14844 26.5625 1.46484 20.3613-4.78516C14.1113-11.0352 13.4277-20.6543 20.7031-27.9785L59.082-66.3086C63.2324-70.459 69.5801-71.5332 73.877-67.2852C78.125-62.9395 77.0508-56.6406 72.9492-52.4902L35.498-14.9902C33.7402-13.1836 31.6406-13.8184 30.4688-14.9414C29.3457-16.1133 28.8086-18.1152 30.5664-19.9219L56.3477-45.7031C57.6172-47.0215 57.7637-48.9258 56.4941-50.1953C55.2246-51.416 53.2715-51.3184 52.002-50.0488L26.0742-24.1211C22.1191-20.0684 22.168-13.8184 25.7812-10.2051C29.7363-6.29883 35.6445-6.49414 39.6973-10.498L77.3438-48.1934C84.6191-55.4688 84.6191-65.1855 78.0762-71.7285C71.6309-78.1738 61.7676-78.3691 54.4922-71.0938L15.8203-32.3242C6.25-22.8027 6.73828-8.83789 15.5762 0C24.4141 8.78906 38.3789 9.27734 47.9004-0.244141L75.9277-28.2715C77.1973-29.4922 77.1973-31.7871 75.8789-33.0078C74.6094-34.375 72.5586-34.1309 71.2891-32.9102Z"/>
 </g>
</svg>
