<svg xmlns="http://www.w3.org/2000/svg" viewBox="13.322 -81.552 65.398 94.695" aria-hidden="true" data-sf-symbol="pin.fill">
 <g fill="black">
  <path d="M15.5762-23.2422C15.5762-19.7266 17.9199-17.3828 21.582-17.3828L42.2363-17.3828L42.2363-0.976562C42.2363 5.51758 44.9707 10.8887 45.9961 10.8887C47.0703 10.8887 49.8047 5.51758 49.8047-0.976562L49.8047-17.3828L70.4102-17.3828C74.1211-17.3828 76.4648-19.7266 76.4648-23.2422C76.4648-31.2988 69.9707-39.9414 58.9844-43.9941L57.7148-61.4258C63.7695-64.7949 68.3594-68.4082 70.3125-70.8984C71.4355-72.3145 71.9238-73.6816 71.9238-74.9512C71.9238-77.4414 69.9707-79.2969 67.1387-79.2969L24.9023-79.2969C22.0215-79.2969 20.1172-77.4414 20.1172-74.9512C20.1172-73.6816 20.6055-72.3145 21.6797-70.8984C23.6328-68.4082 28.2227-64.7949 34.2773-61.4258L33.0566-43.9941C22.0703-39.9414 15.5762-31.2988 15.5762-23.2422Z"/>
 </g>
</svg>
