<svg xmlns="http://www.w3.org/2000/svg" viewBox="6.528 -80.727 95.528 95.499" aria-hidden="true" data-sf-symbol="pizza.slice">
 <g fill="black">
  <path d="M22.1191 11.6699L90.1855-12.9883C92.9688-14.0137 94.9219-15.1855 96.4844-16.748C104.932-25.1953 96.2402-43.8477 80.7129-59.4238C65.1367-74.9512 46.5332-83.5938 38.0371-75.1465C36.4746-73.6328 35.4004-71.6309 34.375-68.8477L9.66797-0.830078C8.20312 3.17383 8.49609 7.12891 11.3281 9.96094C14.209 12.793 18.1152 13.0859 22.1191 11.6699ZM19.5312 5.17578C17.9688 5.71289 16.9922 5.66406 16.3574 4.98047C15.6738 4.29688 15.625 3.36914 16.1621 1.80664L41.1621-66.7969C41.6992-68.2617 42.2363-69.1895 43.0176-70.0195C47.4121-74.4629 62.6953-67.4805 75.7324-54.4434C88.7695-41.3574 95.752-26.123 91.3574-21.7285C90.5762-20.8496 89.5508-20.3613 88.0859-19.8242ZM33.7402-4.58984C37.8906-4.58984 41.2109-8.05664 41.2598-12.207C41.2598-16.3574 37.8906-19.7266 33.7891-19.6777C29.541-19.7266 26.123-16.3574 26.1719-12.207C26.123-8.00781 29.541-4.58984 33.7402-4.58984ZM42.3828-26.0254C46.5332-26.0254 49.9023-29.3457 49.9023-33.5449C49.9023-37.6465 46.5332-41.0645 42.3828-41.0645C38.1348-41.0156 34.8145-37.6953 34.8145-33.5449C34.8145-29.3457 38.1836-25.9277 42.3828-26.0254ZM62.8418-17.2363C66.9434-17.2852 70.3125-20.6543 70.3613-24.7559C70.3125-28.9551 66.9434-32.373 62.8418-32.2754C58.6426-32.3242 55.2734-28.9551 55.3223-24.707C55.2734-20.6055 58.6426-17.2852 62.8418-17.2363ZM81.3477-13.7207L88.2324-16.3086C87.4512-25.8789 80.2734-38.0371 69.8242-48.5352C59.375-58.9844 47.2656-66.1621 37.6465-66.9434L35.0586-60.0586C41.9434-60.791 54.541-54.4922 65.1855-43.8477C75.8301-33.2031 82.1289-20.6543 81.3477-13.7207Z"/>
 </g>
</svg>
