<svg xmlns="http://www.w3.org/2000/svg" viewBox="6.886 -75.194 79.197 79.929" aria-hidden="true" data-sf-symbol="plus.magnifyingglass">
 <g fill="black">
  <path d="M8.78906-42.2363C8.78906-25.0977 22.7051-11.2305 39.8438-11.2305C46.4355-11.2305 52.4902-13.2812 57.5195-16.7969L75.6836 1.41602C76.709 2.39258 77.9785 2.83203 79.2969 2.83203C82.1289 2.83203 84.1797 0.683594 84.1797-2.14844C84.1797-3.51562 83.6426-4.73633 82.8125-5.66406L64.7461-23.7793C68.6035-28.9551 70.8496-35.3027 70.8496-42.2363C70.8496-59.375 56.9824-73.291 39.8438-73.291C22.7051-73.291 8.78906-59.375 8.78906-42.2363ZM16.3086-42.2363C16.3086-55.2734 26.8066-65.7715 39.8438-65.7715C52.832-65.7715 63.3789-55.2734 63.3789-42.2363C63.3789-29.248 52.832-18.7012 39.8438-18.7012C26.8066-18.7012 16.3086-29.248 16.3086-42.2363Z"/>
  <path d="M30.127-39.0625L49.5117-39.0625C51.3184-39.0625 52.7344-40.4785 52.7344-42.2363C52.7344-44.043 51.3184-45.459 49.5117-45.459L30.127-45.459C28.3203-45.459 26.9043-44.043 26.9043-42.2363C26.9043-40.4785 28.3203-39.0625 30.127-39.0625ZM43.0176-32.5684L43.0176-51.9531C43.0176-53.7598 41.6016-55.1758 39.8438-55.1758C38.0371-55.1758 36.6211-53.7598 36.6211-51.9531L36.6211-32.5684C36.6211-30.7617 38.0371-29.3457 39.8438-29.3457C41.6016-29.3457 43.0176-30.7617 43.0176-32.5684Z"/>
 </g>
</svg>
