<svg xmlns="http://www.w3.org/2000/svg" viewBox="4.811 -78.881 82.908 85.056" aria-hidden="true" data-sf-symbol="power">
 <g fill="black">
  <path d="M46.2402 4.15039C68.0176 4.15039 85.6934-13.4766 85.6934-35.2539C85.6934-47.0703 80.6641-57.0312 73.1934-63.9648C69.3848-67.4805 64.3555-62.1582 68.1641-58.5449C74.3652-52.7344 78.2227-44.4824 78.2227-35.2539C78.2227-17.5781 63.916-3.27148 46.2402-3.27148C28.5645-3.27148 14.3066-17.5781 14.3066-35.2539C14.3066-44.5801 18.2129-52.7832 24.3652-58.5938C28.2227-62.2559 23.2422-67.334 19.3848-63.916C11.8164-57.1777 6.83594-46.6797 6.83594-35.2539C6.83594-13.4766 24.5117 4.15039 46.2402 4.15039ZM46.2402-35.5469C48.3887-35.5469 49.7559-37.0117 49.7559-39.2578L49.7559-73.0957C49.7559-75.3418 48.3887-76.8555 46.2402-76.8555C44.1406-76.8555 42.7246-75.3418 42.7246-73.0957L42.7246-39.2578C42.7246-37.0117 44.1406-35.5469 46.2402-35.5469Z"/>
 </g>
</svg>
