<svg xmlns="http://www.w3.org/2000/svg" viewBox="7.577 -73.087 91.926 75.178" aria-hidden="true" data-sf-symbol="questionmark.folder">
 <g fill="black">
  <path d="M22.2168-0.0976562L86.2793-0.0976562C93.2129-0.0976562 97.3145-4.19922 97.3145-12.4023L97.3145-51.6602C97.3145-59.8633 93.1641-63.916 84.8633-63.916L48.291-63.916C45.8984-63.916 44.3359-64.5996 42.4805-66.1133L40.0391-68.0664C37.5-70.166 35.4004-70.8984 31.6895-70.8984L20.752-70.8984C13.8672-70.8984 9.76562-66.8945 9.76562-58.7402L9.76562-12.4023C9.76562-4.19922 13.916-0.0976562 22.2168-0.0976562ZM22.3145-7.17773C18.7988-7.17773 16.7969-9.0332 16.7969-12.7441L16.7969-58.3984C16.7969-62.0117 18.75-63.8672 22.2656-63.8672L29.834-63.8672C32.2266-63.8672 33.7891-63.1836 35.6445-61.6699L38.0859-59.7168C40.5762-57.666 42.7246-56.8848 46.4355-56.8848L84.7656-56.8848C88.2812-56.8848 90.2832-54.9805 90.2832-51.2695L90.2832-12.6953C90.2832-9.0332 88.2812-7.17773 84.7656-7.17773Z"/>
  <path d="M52.832-25C54.8828-25 56.0547-26.2695 56.0547-27.832C56.0547-27.8809 56.0547-27.9785 56.0547-28.0273C56.0547-29.9316 57.2754-31.1523 59.6191-32.7148C62.9395-34.8633 65.5762-36.9141 65.5762-41.3086C65.5762-47.4609 60.1074-50.5859 54.0527-50.5859C47.8516-50.5859 43.7988-47.8516 42.7246-44.7266C42.5293-44.1406 42.3828-43.5059 42.3828-42.9199C42.3828-41.1133 43.7988-40.1855 45.1172-40.1855C46.4355-40.1855 47.2656-40.7715 48.0469-41.6992L48.7793-42.627C50.2441-44.4824 51.8555-45.2148 53.7598-45.2148C56.6895-45.2148 58.6426-43.5547 58.6426-41.0156C58.6426-38.623 57.0801-37.5977 54.1016-35.498C51.709-33.8379 49.6582-31.9824 49.6582-28.3691C49.6582-28.3203 49.6582-28.2227 49.6582-28.125C49.6582-26.0254 50.7812-25 52.832-25ZM52.7832-14.3066C54.9316-14.3066 56.8359-16.0156 56.8359-18.2129C56.8359-20.459 54.9805-22.168 52.7832-22.168C50.5371-22.168 48.6816-20.4102 48.6816-18.2129C48.6816-16.0645 50.5859-14.3066 52.7832-14.3066Z"/>
 </g>
</svg>
