<svg xmlns="http://www.w3.org/2000/svg" viewBox="7.67 -71.92 88.03 73.43" aria-hidden="true" data-sf-symbol="repeat">
 <g fill="black">
  <path d="M44.6289-3.22266L44.6289-27.8809C44.6289-29.5898 43.6035-30.5176 41.8945-30.5176C41.1621-30.5176 40.332-30.2246 39.7461-29.7363L25.1465-17.4316C23.9258-16.4062 23.8281-14.7949 25.1465-13.6719L39.7461-1.36719C40.332-0.878906 41.1621-0.585938 41.8945-0.585938C43.6035-0.585938 44.6289-1.51367 44.6289-3.22266ZM89.9902-36.7676C87.9395-36.7676 86.4258-35.2051 86.4258-33.1543L86.4258-29.4434C86.4258-23.1934 81.8848-18.9453 75.293-18.9453L38.9648-18.9453C37.0117-18.9453 35.4004-17.334 35.4004-15.4297C35.4004-13.4766 37.0117-11.8652 38.9648-11.8652L74.5605-11.8652C86.1816-11.8652 93.6035-18.5059 93.6035-28.9062L93.6035-33.1543C93.6035-35.2051 92.041-36.7676 89.9902-36.7676Z"/>
  <path d="M58.7402-67.1875L58.7402-42.5293C58.7402-40.8203 59.7168-39.8926 61.4258-39.8926C62.207-39.8926 62.9883-40.1855 63.5742-40.6738L78.1738-52.9297C79.4434-54.0039 79.541-55.6152 78.1738-56.7383L63.5742-69.043C62.9883-69.5312 62.207-69.8242 61.4258-69.8242C59.7168-69.8242 58.7402-68.8965 58.7402-67.1875ZM13.3789-33.6426C15.3809-33.6426 16.9434-35.2051 16.9434-37.2559L16.9434-40.9668C16.9434-47.2168 21.4355-51.4648 28.0273-51.4648L64.4043-51.4648C66.3574-51.4648 67.9199-53.0762 67.9199-54.9805C67.9199-56.9336 66.3574-58.5449 64.4043-58.5449L28.8086-58.5449C17.1875-58.5449 9.76562-51.9043 9.76562-41.5039L9.76562-37.2559C9.76562-35.2051 11.3281-33.6426 13.3789-33.6426Z"/>
 </g>
</svg>
