<svg xmlns="http://www.w3.org/2000/svg" viewBox="7.888 -74.241 78.853 77.778" aria-hidden="true" data-sf-symbol="square.grid.3x3">
 <g fill="black">
  <path d="M69.8242 1.66016L77.9297 1.66016C82.2754 1.66016 84.8633-0.976562 84.8633-5.46875L84.8633-13.1836C84.8633-17.6758 82.2754-20.3125 77.9297-20.3125L69.8242-20.3125C65.4785-20.3125 62.8418-17.6758 62.8418-13.1836L62.8418-5.46875C62.8418-0.976562 65.4785 1.66016 69.8242 1.66016ZM70.6543-4.29688C69.4824-4.29688 68.7988-4.98047 68.7988-6.25L68.7988-12.4512C68.7988-13.7207 69.4824-14.4043 70.6543-14.4043L77.0508-14.4043C78.2227-14.4043 78.9062-13.7207 78.9062-12.4512L78.9062-6.25C78.9062-4.98047 78.2227-4.29688 77.0508-4.29688Z"/>
  <path d="M43.2617 1.66016L51.3672 1.66016C55.7617 1.66016 58.3008-0.976562 58.3008-5.46875L58.3008-13.1836C58.3008-17.6758 55.7617-20.3125 51.3672-20.3125L43.2617-20.3125C38.8672-20.3125 36.3281-17.6758 36.3281-13.1836L36.3281-5.46875C36.3281-0.976562 38.8672 1.66016 43.2617 1.66016ZM44.0918-4.29688C42.8711-4.29688 42.2363-4.98047 42.2363-6.25L42.2363-12.4512C42.2363-13.7207 42.8711-14.4043 44.0918-14.4043L50.4883-14.4043C51.6602-14.4043 52.3438-13.7207 52.3438-12.4512L52.3438-6.25C52.3438-4.98047 51.6602-4.29688 50.4883-4.29688Z"/>
  <path d="M16.748 1.66016L24.8047 1.66016C29.1992 1.66016 31.7871-0.976562 31.7871-5.46875L31.7871-13.1836C31.7871-17.6758 29.1992-20.3125 24.8047-20.3125L16.748-20.3125C12.3535-20.3125 9.76562-17.6758 9.76562-13.1836L9.76562-5.46875C9.76562-0.976562 12.3535 1.66016 16.748 1.66016ZM17.5781-4.29688C16.4062-4.29688 15.7227-4.98047 15.7227-6.25L15.7227-12.4512C15.7227-13.7207 16.4062-14.4043 17.5781-14.4043L23.9258-14.4043C25.0977-14.4043 25.8301-13.7207 25.8301-12.4512L25.8301-6.25C25.8301-4.98047 25.0977-4.29688 23.9258-4.29688Z"/>
  <path d="M69.8242-24.3652L77.9297-24.3652C82.2754-24.3652 84.8633-26.9531 84.8633-31.4453L84.8633-39.209C84.8633-43.7012 82.2754-46.3379 77.9297-46.3379L69.8242-46.3379C65.4785-46.3379 62.8418-43.7012 62.8418-39.209L62.8418-31.4453C62.8418-26.9531 65.4785-24.3652 69.8242-24.3652ZM70.6543-30.2734C69.4824-30.2734 68.7988-30.957 68.7988-32.2754L68.7988-38.4766C68.7988-39.6973 69.4824-40.3809 70.6543-40.3809L77.0508-40.3809C78.2227-40.3809 78.9062-39.6973 78.9062-38.4766L78.9062-32.2754C78.9062-30.957 78.2227-30.2734 77.0508-30.2734Z"/>
  <path d="M43.2617-24.3652L51.3672-24.3652C55.7617-24.3652 58.3008-26.9531 58.3008-31.4453L58.3008-39.209C58.3008-43.7012 55.7617-46.3379 51.3672-46.3379L43.2617-46.3379C38.8672-46.3379 36.3281-43.7012 36.3281-39.209L36.3281-31.4453C36.3281-26.9531 38.8672-24.3652 43.2617-24.3652ZM44.0918-30.2734C42.8711-30.2734 42.2363-30.957 42.2363-32.2754L42.2363-38.4766C42.2363-39.6973 42.8711-40.3809 44.0918-40.3809L50.4883-40.3809C51.6602-40.3809 52.3438-39.6973 52.3438-38.4766L52.3438-32.2754C52.3438-30.957 51.6602-30.2734 50.4883-30.2734Z"/>
  <path d="M16.748-24.3652L24.8047-24.3652C29.1992-24.3652 31.7871-26.9531 31.7871-31.4453L31.7871-39.209C31.7871-43.7012 29.1992-46.3379 24.8047-46.3379L16.748-46.3379C12.3535-46.3379 9.76562-43.7012 9.76562-39.209L9.76562-31.4453C9.76562-26.9531 12.3535-24.3652 16.748-24.3652ZM17.5781-30.2734C16.4062-30.2734 15.7227-30.957 15.7227-32.2754L15.7227-38.4766C15.7227-39.6973 16.4062-40.3809 17.5781-40.3809L23.9258-40.3809C25.0977-40.3809 25.8301-39.6973 25.8301-38.4766L25.8301-32.2754C25.8301-30.957 25.0977-30.2734 23.9258-30.2734Z"/>
  <path d="M69.8242-50.3418L77.9297-50.3418C82.2754-50.3418 84.8633-53.0273 84.8633-57.5195L84.8633-65.1855C84.8633-69.6777 82.2754-72.3633 77.9297-72.3633L69.8242-72.3633C65.4785-72.3633 62.8418-69.6777 62.8418-65.1855L62.8418-57.5195C62.8418-53.0273 65.4785-50.3418 69.8242-50.3418ZM70.6543-56.25C69.4824-56.25 68.7988-56.9824 68.7988-58.3008L68.7988-64.4531C68.7988-65.6738 69.4824-66.4062 70.6543-66.4062L77.0508-66.4062C78.2227-66.4062 78.9062-65.6738 78.9062-64.4531L78.9062-58.3008C78.9062-56.9824 78.2227-56.25 77.0508-56.25Z"/>
  <path d="M43.2617-50.3418L51.3672-50.3418C55.7617-50.3418 58.3008-53.0273 58.3008-57.5195L58.3008-65.1855C58.3008-69.6777 55.7617-72.3633 51.3672-72.3633L43.2617-72.3633C38.8672-72.3633 36.3281-69.6777 36.3281-65.1855L36.3281-57.5195C36.3281-53.0273 38.8672-50.3418 43.2617-50.3418ZM44.0918-56.25C42.8711-56.25 42.2363-56.9824 42.2363-58.3008L42.2363-64.4531C42.2363-65.6738 42.8711-66.4062 44.0918-66.4062L50.4883-66.4062C51.6602-66.4062 52.3438-65.6738 52.3438-64.4531L52.3438-58.3008C52.3438-56.9824 51.6602-56.25 50.4883-56.25Z"/>
  <path d="M16.748-50.3418L24.8047-50.3418C29.1992-50.3418 31.7871-53.0273 31.7871-57.5195L31.7871-65.1855C31.7871-69.6777 29.1992-72.3633 24.8047-72.3633L16.748-72.3633C12.3535-72.3633 9.76562-69.6777 9.76562-65.1855L9.76562-57.5195C9.76562-53.0273 12.3535-50.3418 16.748-50.3418ZM17.5781-56.25C16.4062-56.25 15.7227-56.9824 15.7227-58.3008L15.7227-64.4531C15.7227-65.6738 16.4062-66.4062 17.5781-66.4062L23.9258-66.4062C25.0977-66.4062 25.8301-65.6738 25.8301-64.4531L25.8301-58.3008C25.8301-56.9824 25.0977-56.25 23.9258-56.25Z"/>
 </g>
</svg>
