<svg xmlns="http://www.w3.org/2000/svg" viewBox="-0.563 -86.061 99.514 96.633" aria-hidden="true" data-sf-symbol="square.stack.3d.up">
 <g fill="black">
  <path d="M84.1797-10.6934C87.5977-12.7441 88.916-14.2578 88.916-16.5039C88.916-18.7988 87.5977-20.3125 84.1797-22.3633L54.5898-39.5508C52.5391-40.7227 50.9766-41.2598 49.2188-41.2598C47.4609-41.2598 45.8496-40.7227 43.7988-39.5508L14.2578-22.3633C10.791-20.3125 9.52148-18.7988 9.52148-16.5039C9.52148-14.2578 10.791-12.7441 14.2578-10.6934L43.7988 6.49414C45.8496 7.66602 47.4609 8.20312 49.2188 8.20312C50.9766 8.20312 52.5391 7.66602 54.5898 6.49414Z"/>
  <path d="M1.80664-33.8867C1.80664-29.1992 3.95508-25.1465 10.3516-21.4355L47.1191-0.0488281C47.7539 0.341797 48.584 0.585938 49.2188 0.585938C49.8047 0.585938 50.6348 0.341797 51.3184-0.0488281L88.0371-21.4355C94.3848-25.0977 96.582-29.1992 96.582-33.8867C96.582-38.5742 94.3848-42.627 88.0371-46.3379L58.4473-63.5742C54.9316-65.625 52.002-66.3574 49.2188-66.3574C46.3867-66.3574 43.457-65.625 39.9414-63.5742L10.3516-46.3379C4.00391-42.627 1.80664-38.5742 1.80664-33.8867Z"/>
  <path d="M14.2578-28.0762L43.7988-10.8398C45.8496-9.66797 47.4609-9.13086 49.2188-9.13086C50.9766-9.13086 52.5391-9.66797 54.5898-10.8398L84.1797-28.0762C87.5977-30.0781 88.916-31.5918 88.916-33.8867C88.916-36.1816 87.5977-37.6953 84.1797-39.7461L54.5898-56.9336C52.5391-58.1055 50.9766-58.6426 49.2188-58.6426C47.4609-58.6426 45.8496-58.1055 43.7988-56.9336L14.2578-39.7461C10.791-37.6953 9.52148-36.1816 9.52148-33.8867C9.52148-31.5918 10.791-30.0781 14.2578-28.0762Z"/>
  <path d="M1.80664-51.2695C1.80664-46.582 3.95508-42.5293 10.3516-38.8184L47.1191-17.4316C47.7539-17.041 48.584-16.7969 49.2188-16.7969C49.8047-16.7969 50.6348-17.041 51.3184-17.4316L88.0371-38.8184C94.3848-42.4805 96.582-46.582 96.582-51.2695C96.582-55.957 94.3848-60.0098 88.0371-63.7207L58.4473-80.957C54.9316-83.0078 52.002-83.6914 49.2188-83.6914C46.3867-83.6914 43.457-83.0078 39.9414-80.957L10.3516-63.7207C4.00391-60.0098 1.80664-55.957 1.80664-51.2695Z"/>
  <path d="M14.2578-46.1914L43.7988-29.0039C45.8496-27.832 47.4609-27.2949 49.2188-27.2949C50.9766-27.2949 52.5391-27.832 54.5898-29.0039L84.1797-46.1914C87.5977-48.2422 88.916-49.7559 88.916-52.0508C88.916-54.2969 87.5977-55.8594 84.1797-57.8613L54.5898-75.0488C52.5391-76.2695 50.9766-76.7578 49.2188-76.7578C47.4609-76.7578 45.8496-76.2695 43.7988-75.0488L14.2578-57.8613C10.791-55.8594 9.52148-54.2969 9.52148-52.0508C9.52148-49.7559 10.791-48.2422 14.2578-46.1914ZM18.8477-51.8066C18.6523-51.9043 18.6523-52.1484 18.8477-52.2949L47.3633-68.5547C48.0469-68.9453 48.6328-69.1406 49.2188-69.1406C49.7559-69.1406 50.3418-68.9453 51.0254-68.5547L79.541-52.2949C79.7852-52.1484 79.7852-51.9043 79.541-51.8066L51.0254-35.498C50.3418-35.1562 49.8047-34.9609 49.2188-34.9609C48.584-34.9609 48.0469-35.1562 47.3633-35.498Z"/>
 </g>
</svg>
