<svg xmlns="http://www.w3.org/2000/svg" viewBox="6.499 -83.429 94.111 96.047" aria-hidden="true" data-sf-symbol="wrench.adjustable">
 <g fill="black">
  <path d="M13.5742 5.56641C20.0195 12.0117 29.4434 12.1094 35.9375 4.6875C42.8711-3.22266 50.7324-18.0664 61.6699-29.0039C70.0195-37.3535 80.0781-29.4922 91.6504-40.4785C96.582-45.166 99.2188-51.8555 98.0469-56.6406L82.959-52.4902C80.8594-51.9531 79.1992-53.3691 78.4668-55.9082L77.3438-59.7168C76.6113-62.2559 77.5879-64.3066 79.6875-64.8926L94.7266-68.9453C94.3359-70.4102 92.9199-72.4121 91.2109-74.1699C82.2266-83.4473 67.2363-83.2031 58.5938-75C45.7031-62.793 55.3223-49.9023 47.2656-41.8457C37.1582-31.7383 22.3145-23.7305 14.4043-16.7969C6.98242-10.3027 7.12891-0.878906 13.5742 5.56641ZM17.6758 1.46484C13.6719-2.63672 13.6719-8.69141 18.4082-12.793C26.2695-19.6777 42.1387-28.5156 51.3672-37.7441C61.2305-47.6074 50.4883-59.6191 62.793-70.8984C69.043-76.709 80.3711-76.9531 87.5-70.3125L88.9648-72.8516L78.5156-70.1172C72.7539-68.6035 70.2148-64.1602 71.9238-58.1543L72.998-54.4434C74.9512-47.7539 78.8086-45.8984 84.0332-47.3145L94.873-50.2441L92.2852-51.5625C91.4551-48.8281 89.9414-46.2891 87.793-44.1895C78.5156-35.1074 67.4316-42.9199 57.5684-33.1055C47.5586-23.1445 38.8184-7.17773 31.9336 0.732422C27.7344 5.56641 21.6797 5.56641 17.6758 1.46484ZM62.9883-43.2617L71.3379-45.5078C72.0703-45.7031 72.5098-46.4844 72.3145-47.3145C72.1191-48.0469 71.3867-48.5352 70.5566-48.291L62.2559-46.0449C61.5234-45.8496 61.084-45.0684 61.2305-44.2871C61.377-43.457 62.207-43.0664 62.9883-43.2617ZM61.9629-47.4609L70.2148-49.6582C70.9961-49.8535 71.4355-50.6348 71.2402-51.4648C71.0449-52.2461 70.2148-52.6855 69.4824-52.4902L61.1816-50.2441C60.4004-50.0488 59.9609-49.2188 60.1562-48.5352C60.4004-47.6562 61.1328-47.2168 61.9629-47.4609ZM60.9375-51.6602L69.1895-53.8574C69.9707-54.0527 70.4102-54.834 70.2148-55.6641C70.0195-56.4453 69.1895-56.8848 68.457-56.6895L60.1562-54.4434C59.375-54.248 58.9355-53.418 59.1309-52.7344C59.375-51.8555 60.1074-51.416 60.9375-51.6602ZM77.6367-37.207L81.3965-38.0371L76.7578-55.2246L72.998-54.4434ZM24.6582-0.634766C27.2949-0.634766 29.4922-2.7832 29.4922-5.46875C29.4922-8.10547 27.2949-10.3027 24.6582-10.3027C21.9727-10.3027 19.7754-8.10547 19.7754-5.46875C19.7754-2.7832 21.9727-0.634766 24.6582-0.634766Z"/>
 </g>
</svg>
