<svg xmlns="http://www.w3.org/2000/svg" viewBox="7.713 -74.298 86.226 75.35" aria-hidden="true" data-sf-symbol="person.fill.questionmark">
 <g fill="black">
  <path d="M 16.053 -1.001 L 67.65 -1.001 C 71.584 -1.001 73.972 -2.894 73.972 -5.954 C 73.972 -15.805 61.66 -29.401 41.859 -29.401 C 22.092 -29.401 9.766 -15.805 9.766 -5.954 C 9.766 -2.894 12.168 -1.001 16.053 -1.001 Z M 41.89 -36.252 C 50.153 -36.252 57.107 -43.565 57.107 -53.093 C 57.107 -62.391 50.108 -69.491 41.89 -69.491 C 33.705 -69.491 26.69 -62.256 26.69 -53.026 C 26.69 -43.565 33.66 -36.252 41.89 -36.252 Z"/>
  <path d="M 79.015 -45.22 C 80.697 -45.22 81.728 -46.299 81.728 -47.626 C 81.728 -47.86 81.728 -48.064 81.728 -48.283 C 81.728 -50.47 82.956 -51.834 85.676 -53.679 C 89.459 -56.174 91.886 -58.42 91.886 -62.8 C 91.886 -68.827 86.501 -72.245 80.118 -72.245 C 73.667 -72.245 69.466 -69.051 68.521 -65.455 C 68.337 -64.847 68.236 -64.284 68.236 -63.68 C 68.236 -62.12 69.436 -61.291 70.579 -61.291 C 71.772 -61.291 72.548 -61.835 73.105 -62.725 L 73.678 -63.535 C 74.775 -65.979 77.017 -67.642 79.919 -67.642 C 83.623 -67.642 86.01 -65.544 86.01 -62.519 C 86.01 -59.916 84.471 -58.562 81.033 -56.18 C 78.233 -54.188 76.32 -52.167 76.32 -48.564 C 76.32 -48.364 76.32 -48.096 76.32 -47.896 C 76.32 -46.131 77.298 -45.22 79.015 -45.22 Z M 78.932 -34.061 C 81.007 -34.061 82.773 -35.705 82.773 -37.734 C 82.773 -39.827 81.041 -41.44 78.932 -41.44 C 76.839 -41.44 75.091 -39.793 75.091 -37.734 C 75.091 -35.738 76.873 -34.061 78.932 -34.061 Z"/>
 </g>
</svg>
