<svg xmlns="http://www.w3.org/2000/svg" viewBox="7.424 -76.902 88.326 83.297" aria-hidden="true" data-sf-symbol="figure.flexibility">
 <g fill="black">
  <path d="M33.5449-57.9102C38.2812-57.9102 42.0898-61.7188 42.0898-66.4551C42.0898-71.1426 38.2812-74.9023 33.5449-74.9023C28.9062-74.9023 25.0488-71.1426 25.0488-66.4551C25.0488-61.7188 28.9062-57.9102 33.5449-57.9102ZM91.1133-3.80859L65.4785-17.627L50.6836-27.9297C49.5605-28.7109 48.5352-29.6875 47.6562-30.7617C49.1699-31.6895 49.8047-33.3984 49.3652-35.1074L46.4355-46.875C45.4102-51.0742 41.6504-53.9551 37.3535-53.9551L28.0762-53.9551C25.2441-53.9551 23.291-53.2715 21.4355-51.416L10.8887-40.8691C9.61914-39.5996 9.42383-37.5977 10.3027-36.0352L17.6758-23.0957L17.6758-0.292969C17.6758 1.80664 19.4824 3.66211 21.6797 3.66211C23.877 3.66211 25.6348 1.80664 25.6348-0.292969L25.6348-19.873L48.3398-18.2129L62.0117-10.4492L87.4023 3.125C89.6973 4.39453 91.9434 3.22266 92.7734 1.5625C93.75-0.341797 93.0176-2.7832 91.1133-3.80859ZM18.7012-37.3535L25.5371-44.2871L30.9082-30.5176L26.6602-28.125L24.0234-28.125Z"/>
 </g>
</svg>
