<svg xmlns="http://www.w3.org/2000/svg" viewBox="4.865 -76.630 82.800 82.751" aria-hidden="true" data-sf-symbol="person.crop.circle.fill">
 <g fill="black">
  <path fill-rule="evenodd" d="M46.2402 4.15039C68.0176 4.15039 85.6934-13.5254 85.6934-35.2539C85.6934-56.9824 68.0176-74.6582 46.2402-74.6582C24.5117-74.6582 6.83594-56.9824 6.83594-35.2539C6.83594-13.5254 24.5117 4.15039 46.2402 4.15039Z M46.2402-2.44141C37.8906-2.44141 29.1016-5.81055 23.1445-12.0605C27.2461-18.457 35.9863-22.1191 46.2402-22.1191C56.3477-22.1191 65.1855-18.5059 69.3359-12.0605C63.3789-5.81055 54.5898-2.44141 46.2402-2.44141ZM46.2402-28.5645C38.8672-28.6621 33.0566-34.7656 33.0566-43.0176C33.0078-50.7812 38.8672-57.1777 46.2402-57.1777C53.6133-57.1777 59.4238-50.7812 59.4238-43.0176C59.4238-34.7656 53.6133-28.4668 46.2402-28.5645Z"/>
 </g>
</svg>
