<svg xmlns="http://www.w3.org/2000/svg" viewBox="7.672 -75.14 87.927 76.55" aria-hidden="true" data-sf-symbol="person.fill.questionmark">
 <g fill="black">
  <path d="M16.5527-0.683594L67.5293-0.683594C71.8262-0.683594 74.3652-2.63672 74.3652-5.9082C74.3652-15.8203 61.9629-29.4922 42.041-29.4922C22.168-29.4922 9.76562-15.8203 9.76562-5.9082C9.76562-2.63672 12.3047-0.683594 16.5527-0.683594ZM42.041-36.3281C50.2441-36.3281 57.4707-43.7012 57.4707-53.3203C57.4707-62.8906 50.2441-69.8242 42.041-69.8242C33.8867-69.8242 26.6602-62.6953 26.6602-53.2227C26.6602-43.7012 33.8867-36.3281 42.041-36.3281Z"/>
  <path d="M79.5898-45.0684C81.7871-45.0684 83.1055-46.4355 83.1055-48.0957C83.1055-48.1934 83.1055-48.291 83.1055-48.3887C83.1055-50.4395 84.4238-51.7578 86.9629-53.4668C90.625-55.8105 93.5059-58.0566 93.5059-62.8906C93.5059-69.6289 87.5-73.0469 80.8594-73.0469C74.1211-73.0469 69.6777-70.0195 68.5059-66.6504C68.2617-65.9668 68.1152-65.2832 68.1152-64.6484C68.1152-62.6953 69.6777-61.6699 71.0938-61.6699C72.5586-61.6699 73.4863-62.3047 74.3164-63.3301L75.1465-64.3066C76.7578-66.3574 78.5156-67.1875 80.6152-67.1875C83.7891-67.1875 85.8887-65.332 85.8887-62.5488C85.8887-59.9609 84.2285-58.7891 80.957-56.543C78.3691-54.6875 76.123-52.6367 76.123-48.7305C76.123-48.6816 76.123-48.5352 76.123-48.4863C76.123-46.1914 77.3438-45.0684 79.5898-45.0684ZM79.4922-33.3496C81.8848-33.3496 83.9844-35.2051 83.9844-37.5977C83.9844-40.0391 81.9336-41.8945 79.4922-41.8945C77.0508-41.8945 75-39.9902 75-37.5977C75-35.2539 77.0996-33.3496 79.4922-33.3496Z"/>
 </g>
</svg>
