<svg xmlns="http://www.w3.org/2000/svg" viewBox="6.831 -76.677 82.562 82.602" aria-hidden="true" data-sf-symbol="bandage">
 <g fill="black">
  <path d="M 14.563 -1.791 C 22.558 6.185 34.044 5.877 42.748 -2.808 L 54.211 -14.305 L 50.411 -18.195 L 38.936 -6.656 C 32.585 -0.355 24.223 0.608 18.139 -5.4 C 12.039 -11.391 13.078 -19.862 19.428 -26.164 L 30.903 -37.703 L 27.043 -41.473 L 15.546 -29.991 C 6.846 -21.306 6.602 -9.819 14.563 -1.791 Z M 81.661 -68.938 C 73.666 -76.914 62.195 -76.655 53.491 -67.97 L 42.028 -56.458 L 45.828 -52.582 L 57.303 -64.072 C 63.653 -70.423 72.016 -71.352 78.1 -65.377 C 84.2 -59.353 83.161 -50.915 76.811 -44.564 L 65.335 -33.074 L 69.196 -29.305 L 80.693 -40.753 C 89.393 -49.472 89.606 -60.943 81.661 -68.938 Z M 69.245 -42.126 L 54.864 -56.506 C 50.521 -60.782 46.483 -60.913 42.028 -56.458 L 27.043 -41.473 C 22.603 -37.047 22.685 -32.979 26.994 -28.651 L 41.375 -14.256 C 45.717 -9.962 49.771 -9.846 54.211 -14.305 L 69.196 -29.305 C 73.636 -33.745 73.539 -37.798 69.245 -42.126 Z M 51.651 -52.498 L 65.251 -38.897 C 67.483 -36.631 67.258 -34.978 64.897 -32.602 L 50.849 -18.618 C 48.523 -16.224 46.851 -15.983 44.588 -18.265 L 31.003 -31.831 C 28.755 -34.112 28.981 -35.766 31.341 -38.126 L 45.39 -52.11 C 47.716 -54.52 49.403 -54.745 51.651 -52.498 Z"/>
  <path d="M 48.078 -39.832 C 49.865 -39.832 51.209 -41.243 51.224 -42.913 C 51.273 -44.651 49.831 -46.059 48.112 -46.059 C 46.423 -46.059 45.03 -44.651 45.03 -42.864 C 45.03 -41.292 46.472 -39.832 48.078 -39.832 Z M 40.651 -32.277 C 42.34 -32.277 43.748 -33.733 43.748 -35.34 C 43.748 -37.093 42.34 -38.534 40.651 -38.534 C 38.85 -38.534 37.521 -37.093 37.521 -35.389 C 37.521 -33.685 38.834 -32.277 40.651 -32.277 Z M 55.636 -32.292 C 57.34 -32.292 58.767 -33.7 58.733 -35.437 C 58.733 -37.108 57.374 -38.534 55.603 -38.534 C 53.947 -38.534 52.54 -37.059 52.54 -35.486 C 52.54 -33.7 53.898 -32.292 55.636 -32.292 Z M 48.127 -24.734 C 49.816 -24.734 51.224 -26.175 51.224 -27.928 C 51.224 -29.52 49.816 -30.976 48.161 -30.976 C 46.359 -30.976 44.997 -29.568 44.997 -27.879 C 44.997 -26.175 46.374 -24.734 48.127 -24.734 Z"/>
 </g>
</svg>
