<svg xmlns="http://www.w3.org/2000/svg" viewBox="7.73 -78.018 85.514 85.513" aria-hidden="true" data-sf-symbol="cross">
 <g fill="black">
  <path d="M 9.766 -28.942 C 9.766 -22.223 13.148 -18.806 19.785 -18.806 L 34.031 -18.806 L 34.031 -4.526 C 34.031 2.077 37.448 5.459 44.167 5.459 L 56.788 5.459 C 63.541 5.459 66.957 2.077 66.957 -4.526 L 66.957 -18.806 L 81.188 -18.806 C 87.791 -18.806 91.208 -22.223 91.208 -28.942 L 91.208 -41.563 C 91.208 -48.282 87.791 -51.732 81.188 -51.732 L 66.957 -51.732 L 66.957 -65.997 C 66.957 -72.6 63.541 -75.982 56.788 -75.982 L 44.167 -75.982 C 37.448 -75.982 34.031 -72.6 34.031 -65.997 L 34.031 -51.732 L 19.785 -51.732 C 13.148 -51.732 9.766 -48.282 9.766 -41.563 Z M 15.192 -29.04 L 15.192 -41.465 C 15.192 -44.598 16.899 -46.271 20.051 -46.271 L 39.458 -46.271 L 39.458 -65.697 C 39.458 -68.849 41.131 -70.556 44.265 -70.556 L 56.69 -70.556 C 59.842 -70.556 61.53 -68.849 61.53 -65.697 L 61.53 -46.271 L 80.888 -46.271 C 84.074 -46.271 85.781 -44.598 85.781 -41.465 L 85.781 -29.04 C 85.781 -25.906 84.074 -24.233 80.888 -24.233 L 61.53 -24.233 L 61.53 -4.826 C 61.53 -1.674 59.842 0.033 56.69 0.033 L 44.265 0.033 C 41.131 0.033 39.458 -1.674 39.458 -4.826 L 39.458 -24.233 L 20.051 -24.233 C 16.899 -24.233 15.192 -25.906 15.192 -29.04 Z"/>
 </g>
</svg>
