<svg xmlns="http://www.w3.org/2000/svg" viewBox="7.885 -70.708 79.014 73.103" aria-hidden="true" data-sf-symbol="heart">
 <g fill="black">
  <path d="M 9.766 -46.094 C 9.766 -29.95 23.545 -14.132 44.848 -0.447 C 45.576 0.033 46.667 0.513 47.391 0.513 C 48.149 0.513 49.191 0.033 49.934 -0.447 C 71.222 -14.132 85.017 -29.95 85.017 -46.094 C 85.017 -59.364 75.862 -68.827 63.658 -68.827 C 56.628 -68.827 50.759 -65.358 47.391 -60.015 C 44.057 -65.325 38.154 -68.827 31.124 -68.827 C 18.92 -68.827 9.766 -59.364 9.766 -46.094 Z M 15.192 -46.094 C 15.192 -56.415 21.952 -63.4 31.091 -63.4 C 38.227 -63.4 42.466 -58.95 45.04 -54.847 C 45.955 -53.456 46.566 -53.028 47.391 -53.028 C 48.25 -53.028 48.745 -53.49 49.742 -54.847 C 52.436 -58.882 56.589 -63.4 63.725 -63.4 C 72.849 -63.4 79.59 -56.415 79.59 -46.094 C 79.59 -31.812 64.578 -16.531 48.134 -5.581 C 47.785 -5.348 47.538 -5.183 47.391 -5.183 C 47.245 -5.183 46.997 -5.348 46.682 -5.581 C 30.205 -16.531 15.192 -31.812 15.192 -46.094 Z"/>
 </g>
</svg>
