<svg xmlns="http://www.w3.org/2000/svg" viewBox="7.519 -72.397 94.374 74.353" aria-hidden="true" data-sf-symbol="photo.artframe">
 <g fill="black">
  <path d="M 12.571 -70.15 C 10.872 -70.15 9.766 -69.01 9.766 -67.344 L 9.766 -3.13 C 9.766 -1.431 10.872 -0.291 12.571 -0.291 L 96.84 -0.291 C 98.539 -0.291 99.646 -1.431 99.646 -3.13 L 99.646 -67.344 C 99.646 -69.01 98.539 -70.15 96.84 -70.15 Z M 16.247 -64.689 L 93.198 -64.689 C 93.926 -64.689 94.219 -64.396 94.219 -63.669 L 94.219 -6.771 C 94.219 -6.044 93.926 -5.751 93.198 -5.751 L 16.247 -5.751 C 15.485 -5.751 15.192 -6.044 15.192 -6.771 L 15.192 -63.669 C 15.192 -64.396 15.485 -64.689 16.247 -64.689 Z"/>
  <path d="M 21.532 -60.447 C 20.211 -60.447 19.435 -59.704 19.435 -58.433 L 19.435 -12.023 C 19.435 -10.736 20.211 -9.994 21.532 -9.994 L 87.913 -9.994 C 89.233 -9.994 89.976 -10.736 89.976 -12.023 L 89.976 -58.433 C 89.976 -59.704 89.233 -60.447 87.913 -60.447 Z M 23.782 -56.925 L 85.629 -56.925 C 86.173 -56.925 86.455 -56.644 86.455 -56.134 L 86.455 -14.34 C 86.455 -13.796 86.173 -13.515 85.629 -13.515 L 23.782 -13.515 C 23.238 -13.515 22.99 -13.796 22.99 -14.34 L 22.99 -56.134 C 22.99 -56.644 23.238 -56.925 23.782 -56.925 Z M 87.458 -18.738 L 69.369 -35.611 C 67.93 -36.904 66.401 -37.517 64.69 -37.517 C 62.958 -37.517 61.478 -36.972 60.054 -35.66 L 46.298 -23.363 L 40.643 -28.526 C 39.377 -29.695 37.991 -30.259 36.537 -30.259 C 35.131 -30.259 33.892 -29.695 32.626 -28.56 L 21.123 -18.062 L 21.123 -14.738 C 21.123 -12.518 22.382 -11.58 24.22 -11.58 L 84.361 -11.58 C 86.183 -11.58 87.458 -12.518 87.458 -14.738 Z"/>
  <path d="M 41.419 -35.624 C 45.349 -35.624 48.546 -38.87 48.546 -42.815 C 48.546 -46.726 45.349 -49.972 41.419 -49.972 C 37.508 -49.972 34.262 -46.726 34.262 -42.815 C 34.262 -38.87 37.508 -35.624 41.419 -35.624 Z"/>
 </g>
</svg>
