<svg xmlns="http://www.w3.org/2000/svg" viewBox="7.914 -74.077 77.724 77.773" aria-hidden="true" data-sf-symbol="plus.viewfinder">
 <g fill="black">
  <path d="M 9.766 -51.095 C 9.766 -49.63 10.999 -48.382 12.479 -48.382 C 13.978 -48.382 15.192 -49.63 15.192 -51.095 L 15.192 -58.424 C 15.192 -63.651 18.29 -66.764 23.551 -66.764 L 30.996 -66.764 C 32.461 -66.764 33.694 -67.997 33.694 -69.478 C 33.694 -70.977 32.461 -72.225 30.996 -72.225 L 23.551 -72.225 C 14.928 -72.225 9.766 -66.98 9.766 -58.424 Z M 83.786 -51.095 L 83.786 -58.424 C 83.786 -66.98 78.639 -72.225 70.035 -72.225 L 62.571 -72.225 C 61.09 -72.225 59.857 -70.977 59.857 -69.478 C 59.857 -67.997 61.09 -66.764 62.571 -66.764 L 70.035 -66.764 C 75.295 -66.764 78.374 -63.651 78.374 -58.424 L 78.374 -51.095 C 78.374 -49.63 79.607 -48.382 81.073 -48.382 C 82.553 -48.382 83.786 -49.63 83.786 -51.095 Z M 9.766 -19.251 L 9.766 -11.956 C 9.766 -3.367 14.928 1.845 23.551 1.845 L 30.996 1.845 C 32.461 1.845 33.694 0.597 33.694 -0.869 C 33.694 -2.383 32.461 -3.616 30.996 -3.616 L 23.551 -3.616 C 18.29 -3.616 15.192 -6.729 15.192 -11.956 L 15.192 -19.251 C 15.192 -20.75 13.978 -21.998 12.479 -21.998 C 10.999 -21.998 9.766 -20.75 9.766 -19.251 Z M 83.786 -19.251 C 83.786 -20.75 82.553 -21.998 81.073 -21.998 C 79.607 -21.998 78.374 -20.75 78.374 -19.251 L 78.374 -11.956 C 78.374 -6.729 75.295 -3.616 70.035 -3.616 L 62.571 -3.616 C 61.09 -3.616 59.857 -2.383 59.857 -0.869 C 59.857 0.597 61.09 1.845 62.571 1.845 L 70.035 1.845 C 78.639 1.845 83.786 -3.367 83.786 -11.956 Z"/>
  <path d="M 49.615 -20.557 L 49.615 -49.947 C 49.615 -51.664 48.434 -52.829 46.752 -52.829 C 45.084 -52.829 43.971 -51.648 43.971 -49.947 L 43.971 -20.557 C 43.971 -18.89 45.084 -17.709 46.752 -17.709 C 48.434 -17.709 49.615 -18.875 49.615 -20.557 Z M 32.122 -32.439 L 61.463 -32.439 C 63.146 -32.439 64.327 -33.602 64.327 -35.22 C 64.327 -36.903 63.161 -38.099 61.463 -38.099 L 32.122 -38.099 C 30.406 -38.099 29.225 -36.903 29.225 -35.22 C 29.225 -33.602 30.421 -32.439 32.122 -32.439 Z"/>
 </g>
</svg>
