<?xml version="1.0" encoding="UTF-8"?>
<!--Generator: Apple Native CoreSVG 341-->
<!DOCTYPE svg
PUBLIC "-//W3C//DTD SVG 1.1//EN"
       "http://www.w3.org/Graphics/SVG/1.1/DTD/svg11.dtd">
<svg version="1.1" xmlns="http://www.w3.org/2000/svg" xmlns:xlink="http://www.w3.org/1999/xlink" viewBox="0 0 3300 2200">
 <!--glyph: "1035EF", point size: 100.0, font version: "22.0d4e4", template writer version: "138.0.0"-->
 <style>.defaults {-sfsymbols-variable-value-mode:color;-sfsymbols-draw-reverses-motion-groups:false}

.monochrome-0 {-sfsymbols-motion-group:2;-sfsymbols-layer-tags:slider.vertical.3}
.monochrome-1 {opacity:0.0;-sfsymbols-clear-behind:true;-sfsymbols-motion-group:2;-sfsymbols-layer-tags:slider.vertical.3}
.monochrome-2 {-sfsymbols-motion-group:2;-sfsymbols-layer-tags:slider.vertical.3}
.monochrome-3 {-sfsymbols-motion-group:1;-sfsymbols-layer-tags:slider.vertical.3}
.monochrome-4 {opacity:0.0;-sfsymbols-clear-behind:true;-sfsymbols-motion-group:1;-sfsymbols-layer-tags:slider.vertical.3}
.monochrome-5 {-sfsymbols-motion-group:1;-sfsymbols-layer-tags:slider.vertical.3}
.monochrome-6 {-sfsymbols-motion-group:0;-sfsymbols-layer-tags:slider.vertical.3}
.monochrome-7 {opacity:0.0;-sfsymbols-clear-behind:true;-sfsymbols-motion-group:0;-sfsymbols-layer-tags:slider.vertical.3}
.monochrome-8 {-sfsymbols-motion-group:0;-sfsymbols-layer-tags:slider.vertical.3}

.multicolor-0:tintColor {-sfsymbols-motion-group:2;-sfsymbols-layer-tags:slider.vertical.3}
.multicolor-1:tintColor {opacity:0.0;-sfsymbols-clear-behind:true;-sfsymbols-motion-group:2;-sfsymbols-layer-tags:slider.vertical.3}
.multicolor-2:tintColor {-sfsymbols-motion-group:2;-sfsymbols-layer-tags:slider.vertical.3}
.multicolor-3:tintColor {-sfsymbols-motion-group:1;-sfsymbols-layer-tags:slider.vertical.3}
.multicolor-4:tintColor {opacity:0.0;-sfsymbols-clear-behind:true;-sfsymbols-motion-group:1;-sfsymbols-layer-tags:slider.vertical.3}
.multicolor-5:tintColor {-sfsymbols-motion-group:1;-sfsymbols-layer-tags:slider.vertical.3}
.multicolor-6:tintColor {-sfsymbols-motion-group:0;-sfsymbols-layer-tags:slider.vertical.3}
.multicolor-7:tintColor {opacity:0.0;-sfsymbols-clear-behind:true;-sfsymbols-motion-group:0;-sfsymbols-layer-tags:slider.vertical.3}
.multicolor-8:tintColor {-sfsymbols-motion-group:0;-sfsymbols-layer-tags:slider.vertical.3}

.hierarchical-0:primary {-sfsymbols-motion-group:2;-sfsymbols-layer-tags:slider.vertical.3}
.hierarchical-1:primary {opacity:0.0;-sfsymbols-clear-behind:true;-sfsymbols-motion-group:2;-sfsymbols-layer-tags:slider.vertical.3}
.hierarchical-2:primary {-sfsymbols-motion-group:2;-sfsymbols-layer-tags:slider.vertical.3}
.hierarchical-3:primary {-sfsymbols-motion-group:1;-sfsymbols-layer-tags:slider.vertical.3}
.hierarchical-4:primary {opacity:0.0;-sfsymbols-clear-behind:true;-sfsymbols-motion-group:1;-sfsymbols-layer-tags:slider.vertical.3}
.hierarchical-5:primary {-sfsymbols-motion-group:1;-sfsymbols-layer-tags:slider.vertical.3}
.hierarchical-6:primary {-sfsymbols-motion-group:0;-sfsymbols-layer-tags:slider.vertical.3}
.hierarchical-7:primary {opacity:0.0;-sfsymbols-clear-behind:true;-sfsymbols-motion-group:0;-sfsymbols-layer-tags:slider.vertical.3}
.hierarchical-8:primary {-sfsymbols-motion-group:0;-sfsymbols-layer-tags:slider.vertical.3}

.SFSymbolsPreviewWireframe {fill:none;opacity:1.0;stroke:black;stroke-width:0.5}
</style>
 <g id="Notes">
  <rect height="2200" id="artboard" style="fill:white;opacity:1" width="3300" x="0" y="0"/>
  <line style="fill:none;stroke:black;opacity:1;stroke-width:0.5;" x1="263" x2="3036" y1="292" y2="292"/>
  <text style="stroke:none;fill:black;font-family:sans-serif;font-size:13;font-weight:bold;" transform="matrix(1 0 0 1 263 322)">Weight/Scale Variations</text>
  <text style="stroke:none;fill:black;font-family:sans-serif;font-size:13;text-anchor:middle;" transform="matrix(1 0 0 1 559.711 322)">Ultralight</text>
  <text style="stroke:none;fill:black;font-family:sans-serif;font-size:13;text-anchor:middle;" transform="matrix(1 0 0 1 856.422 322)">Thin</text>
  <text style="stroke:none;fill:black;font-family:sans-serif;font-size:13;text-anchor:middle;" transform="matrix(1 0 0 1 1153.13 322)">Light</text>
  <text style="stroke:none;fill:black;font-family:sans-serif;font-size:13;text-anchor:middle;" transform="matrix(1 0 0 1 1449.84 322)">Regular</text>
  <text style="stroke:none;fill:black;font-family:sans-serif;font-size:13;text-anchor:middle;" transform="matrix(1 0 0 1 1746.56 322)">Medium</text>
  <text style="stroke:none;fill:black;font-family:sans-serif;font-size:13;text-anchor:middle;" transform="matrix(1 0 0 1 2043.27 322)">Semibold</text>
  <text style="stroke:none;fill:black;font-family:sans-serif;font-size:13;text-anchor:middle;" transform="matrix(1 0 0 1 2339.98 322)">Bold</text>
  <text style="stroke:none;fill:black;font-family:sans-serif;font-size:13;text-anchor:middle;" transform="matrix(1 0 0 1 2636.69 322)">Heavy</text>
  <text style="stroke:none;fill:black;font-family:sans-serif;font-size:13;text-anchor:middle;" transform="matrix(1 0 0 1 2933.4 322)">Black</text>
  <line style="fill:none;stroke:black;opacity:1;stroke-width:0.5;" x1="263" x2="3036" y1="1903" y2="1903"/>
  <g transform="matrix(0.2 0 0 0.2 263 1933)">
   <path d="m46.2402 4.15039c21.7773 0 39.4531-17.627 39.4531-39.4043s-17.6758-39.4043-39.4531-39.4043c-21.7285 0-39.4043 17.627-39.4043 39.4043s17.6758 39.4043 39.4043 39.4043Zm0-7.42188c-17.6758 0-31.9336-14.3066-31.9336-31.9824s14.2578-31.9824 31.9336-31.9824 31.9824 14.3066 31.9824 31.9824-14.3066 31.9824-31.9824 31.9824Zm3.61328-17.7734v-28.4668c0-2.24609-1.46484-3.75977-3.71094-3.75977-2.14844 0-3.61328 1.51367-3.61328 3.75977v28.4668c0 2.19727 1.46484 3.71094 3.61328 3.71094 2.24609 0 3.71094-1.51367 3.71094-3.71094Zm-17.8223-10.5957h28.418c2.19727 0 3.71094-1.46484 3.71094-3.61328 0-2.19727-1.51367-3.71094-3.71094-3.71094h-28.418c-2.24609 0-3.75977 1.51367-3.75977 3.71094 0 2.14844 1.51367 3.61328 3.75977 3.61328Z"/>
  </g>
  <g transform="matrix(0.2 0 0 0.2 281.506 1933)">
   <path d="m58.5449 14.5508c27.4902 0 49.8047-22.3145 49.8047-49.8047s-22.3145-49.8047-49.8047-49.8047-49.8047 22.3145-49.8047 49.8047 22.3145 49.8047 49.8047 49.8047Zm0-8.30078c-22.9492 0-41.5039-18.5547-41.5039-41.5039s18.5547-41.5039 41.5039-41.5039 41.5039 18.5547 41.5039 41.5039-18.5547 41.5039-41.5039 41.5039Zm4.05273-23.0957v-36.9141c0-2.49023-1.70898-4.19922-4.15039-4.19922-2.39258 0-4.05273 1.70898-4.05273 4.19922v36.9141c0 2.44141 1.66016 4.15039 4.05273 4.15039 2.44141 0 4.15039-1.66016 4.15039-4.15039Zm-22.5586-14.4043h36.9629c2.44141 0 4.15039-1.61133 4.15039-4.00391 0-2.44141-1.70898-4.15039-4.15039-4.15039h-36.9629c-2.49023 0-4.15039 1.70898-4.15039 4.15039 0 2.39258 1.66016 4.00391 4.15039 4.00391Z"/>
  </g>
  <g transform="matrix(0.2 0 0 0.2 304.924 1933)">
   <path d="m74.8535 28.3203c35.1074 0 63.623-28.4668 63.623-63.5742s-28.5156-63.623-63.623-63.623-63.5742 28.5156-63.5742 63.623 28.4668 63.5742 63.5742 63.5742Zm0-9.08203c-30.127 0-54.4922-24.3652-54.4922-54.4922s24.3652-54.4922 54.4922-54.4922 54.4922 24.3652 54.4922 54.4922-24.3652 54.4922-54.4922 54.4922Zm4.44336-30.3223v-48.4863c0-2.73438-1.85547-4.63867-4.54102-4.63867-2.58789 0-4.44336 1.9043-4.44336 4.63867v48.4863c0 2.68555 1.85547 4.58984 4.44336 4.58984 2.68555 0 4.54102-1.85547 4.54102-4.58984Zm-28.7109-19.7754h48.4863c2.68555 0 4.58984-1.80664 4.58984-4.39453 0-2.73438-1.85547-4.58984-4.58984-4.58984h-48.4863c-2.73438 0-4.58984 1.85547-4.58984 4.58984 0 2.58789 1.85547 4.39453 4.58984 4.39453Z"/>
  </g>
  <text style="stroke:none;fill:black;font-family:sans-serif;font-size:13;font-weight:bold;" transform="matrix(1 0 0 1 263 1953)">Design Variations</text>
  <text style="stroke:none;fill:black;font-family:sans-serif;font-size:13;" transform="matrix(1 0 0 1 263 1971)">Symbols are supported in up to nine weights and three scales.</text>
  <text style="stroke:none;fill:black;font-family:sans-serif;font-size:13;" transform="matrix(1 0 0 1 263 1989)">For optimal layout with text and other symbols, vertically align</text>
  <text style="stroke:none;fill:black;font-family:sans-serif;font-size:13;" transform="matrix(1 0 0 1 263 2007)">symbols with the adjacent text.</text>
  <line style="fill:none;stroke:#00AEEF;stroke-width:0.5;opacity:1.0;" x1="776" x2="776" y1="1919" y2="1933"/>
  <g transform="matrix(0.2 0 0 0.2 776 1933)">
   <path d="m16.5527 0.78125c2.58789 0 3.85742-0.976562 4.78516-3.71094l20.5566-57.5195h0.244141l20.6055 57.5195c0.927734 2.73438 2.19727 3.71094 4.73633 3.71094 2.58789 0 4.24805-1.5625 4.24805-4.00391 0-0.830078-0.146484-1.61133-0.537109-2.63672l-22.9004-60.9863c-1.12305-2.97852-3.125-4.49219-6.25-4.49219-3.02734 0-5.07812 1.46484-6.15234 4.44336l-22.9004 61.084c-0.390625 1.02539-0.537109 1.80664-0.537109 2.63672 0 2.44141 1.5625 3.95508 4.10156 3.95508Zm10.2051-20.9473h30.6641c2.00195 0 3.66211-1.66016 3.66211-3.66211 0-2.05078-1.66016-3.66211-3.66211-3.66211h-30.6641c-2.00195 0-3.66211 1.61133-3.66211 3.66211 0 2.00195 1.66016 3.66211 3.66211 3.66211Z"/>
  </g>
  <line style="fill:none;stroke:#00AEEF;stroke-width:0.5;opacity:1.0;" x1="792.836" x2="792.836" y1="1919" y2="1933"/>
  <text style="stroke:none;fill:black;font-family:sans-serif;font-size:13;font-weight:bold;" transform="matrix(1 0 0 1 776 1953)">Margins</text>
  <text style="stroke:none;fill:black;font-family:sans-serif;font-size:13;" transform="matrix(1 0 0 1 776 1971)">Leading and trailing margins on the left and right side of each symbol</text>
  <text style="stroke:none;fill:black;font-family:sans-serif;font-size:13;" transform="matrix(1 0 0 1 776 1989)">can be adjusted by modifying the x-location of the margin guidelines.</text>
  <text style="stroke:none;fill:black;font-family:sans-serif;font-size:13;" transform="matrix(1 0 0 1 776 2007)">Modifications are automatically applied proportionally to all</text>
  <text style="stroke:none;fill:black;font-family:sans-serif;font-size:13;" transform="matrix(1 0 0 1 776 2025)">scales and weights.</text>
  <g transform="matrix(0.2 0 0 0.2 1289 1933)">
   <path d="m14.209 13.1348 7.86133 7.86133c4.29688 4.39453 9.32617 4.10156 13.8672-1.02539l60.6934-68.2129-4.88281-4.88281-60.2539 67.6758c-1.80664 1.95312-3.4668 2.44141-5.81055 0.0976562l-5.17578-5.12695c-2.29492-2.29492-1.80664-3.95508 0.195312-5.81055l67.4805-62.1582-4.88281-4.83398-68.0664 62.5977c-4.98047 4.58984-5.32227 9.47266-1.02539 13.8184Zm44.873-97.4609c-2.05078 2.00195-2.24609 4.88281-1.07422 6.78711 1.12305 1.80664 3.4668 3.02734 6.5918 2.24609 5.85938-1.66016 12.5977-2.39258 18.8965 0.927734l-2.68555 7.12891c-1.61133 4.00391-0.732422 6.88477 1.70898 9.42383l10.2539 10.3027c2.34375 2.39258 4.54102 2.44141 7.08008 1.95312l4.44336-0.732422 2.58789 2.53906-0.195312 2.24609c-0.0976562 2.29492 0.537109 4.29688 2.7832 6.49414l3.36914 3.32031c2.29492 2.29492 5.51758 2.49023 7.8125 0.195312l12.9883-13.0371c2.29492-2.34375 2.14844-5.37109-0.195312-7.66602l-3.41797-3.41797c-2.19727-2.19727-4.05273-3.02734-6.34766-2.88086l-2.34375 0.244141-2.44141-2.44141 1.02539-4.6875c0.634766-2.73438-0.244141-4.98047-2.88086-7.61719l-11.2793-11.1816c-12.9395-12.8418-35.5957-11.0352-46.6797-0.146484Zm7.08008 2.05078c8.78906-6.39648 25.9766-5.66406 33.6914 1.95312l12.3047 12.207c1.02539 1.02539 1.2207 1.80664 0.927734 3.32031l-1.46484 6.64062 6.73828 6.68945 4.39453-0.244141c1.12305-0.0488281 1.51367 0.0488281 2.34375 0.878906l2.53906 2.49023-10.8398 10.8398-2.49023-2.49023c-0.830078-0.878906-0.976562-1.2207-0.927734-2.39258l0.292969-4.3457-6.68945-6.73828-6.83594 1.17188c-1.41602 0.292969-2.05078 0.195312-3.17383-0.878906l-8.93555-8.88672c-1.07422-1.02539-1.17188-1.70898-0.488281-3.36914l4.58984-11.4746c-6.10352-6.34766-17.041-7.51953-25.5859-4.58984-0.683594 0.244141-0.927734-0.390625-0.390625-0.78125Z"/>
  </g>
  <text style="stroke:none;fill:black;font-family:sans-serif;font-size:13;font-weight:bold;" transform="matrix(1 0 0 1 1289 1953)">Exporting</text>
  <text style="stroke:none;fill:black;font-family:sans-serif;font-size:13;" transform="matrix(1 0 0 1 1289 1971)">Symbols should be outlined when exporting to ensure the</text>
  <text style="stroke:none;fill:black;font-family:sans-serif;font-size:13;" transform="matrix(1 0 0 1 1289 1989)">design is preserved when submitting to Xcode.</text>
  <text id="template-version" style="stroke:none;fill:black;font-family:sans-serif;font-size:13;text-anchor:end;" transform="matrix(1 0 0 1 3036 1933)">Template v.7.0</text>
  <text style="stroke:none;fill:black;font-family:sans-serif;font-size:13;text-anchor:end;" transform="matrix(1 0 0 1 3036 1951)">Requires Xcode 26 or greater</text>
  <text id="descriptive-name" style="stroke:none;fill:black;font-family:sans-serif;font-size:13;text-anchor:end;" transform="matrix(1 0 0 1 3036 1969)">Generated from slider.vertical.3</text>
  <text style="stroke:none;fill:black;font-family:sans-serif;font-size:13;text-anchor:end;" transform="matrix(1 0 0 1 3036 1987)">Typeset at 100.0 points</text>
  <text style="stroke:none;fill:black;font-family:sans-serif;font-size:13;" transform="matrix(1 0 0 1 263 726)">Small</text>
  <text style="stroke:none;fill:black;font-family:sans-serif;font-size:13;" transform="matrix(1 0 0 1 263 1156)">Medium</text>
  <text style="stroke:none;fill:black;font-family:sans-serif;font-size:13;" transform="matrix(1 0 0 1 263 1586)">Large</text>
 </g>
 <g id="Guides">
  <g id="H-reference" style="fill:#27AAE1;stroke:none;" transform="matrix(1 0 0 1 339 696)">
   <path d="M0.993654 0L3.63775 0L29.3281-67.1323L30.0303-67.1323L30.0303-70.459L28.1226-70.459ZM11.6885-24.4799L46.9815-24.4799L46.2315-26.7285L12.4385-26.7285ZM55.1196 0L57.7637 0L30.6382-70.459L29.4326-70.459L29.4326-67.1323Z"/>
  </g>
  <line id="Baseline-S" style="fill:none;stroke:#27AAE1;opacity:1;stroke-width:0.5;" x1="263" x2="3036" y1="696" y2="696"/>
  <line id="Capline-S" style="fill:none;stroke:#27AAE1;opacity:1;stroke-width:0.5;" x1="263" x2="3036" y1="625.541" y2="625.541"/>
  <g id="H-reference" style="fill:#27AAE1;stroke:none;" transform="matrix(1 0 0 1 339 1126)">
   <path d="M0.993654 0L3.63775 0L29.3281-67.1323L30.0303-67.1323L30.0303-70.459L28.1226-70.459ZM11.6885-24.4799L46.9815-24.4799L46.2315-26.7285L12.4385-26.7285ZM55.1196 0L57.7637 0L30.6382-70.459L29.4326-70.459L29.4326-67.1323Z"/>
  </g>
  <line id="Baseline-M" style="fill:none;stroke:#27AAE1;opacity:1;stroke-width:0.5;" x1="263" x2="3036" y1="1126" y2="1126"/>
  <line id="Capline-M" style="fill:none;stroke:#27AAE1;opacity:1;stroke-width:0.5;" x1="263" x2="3036" y1="1055.54" y2="1055.54"/>
  <g id="H-reference" style="fill:#27AAE1;stroke:none;" transform="matrix(1 0 0 1 339 1556)">
   <path d="M0.993654 0L3.63775 0L29.3281-67.1323L30.0303-67.1323L30.0303-70.459L28.1226-70.459ZM11.6885-24.4799L46.9815-24.4799L46.2315-26.7285L12.4385-26.7285ZM55.1196 0L57.7637 0L30.6382-70.459L29.4326-70.459L29.4326-67.1323Z"/>
  </g>
  <line id="Baseline-L" style="fill:none;stroke:#27AAE1;opacity:1;stroke-width:0.5;" x1="263" x2="3036" y1="1556" y2="1556"/>
  <line id="Capline-L" style="fill:none;stroke:#27AAE1;opacity:1;stroke-width:0.5;" x1="263" x2="3036" y1="1485.54" y2="1485.54"/>
  <line id="right-margin-Black-S" style="fill:none;stroke:#00AEEF;stroke-width:0.5;opacity:1.0;" x1="2984.72" x2="2984.72" y1="600.785" y2="720.121"/>
  <line id="left-margin-Black-S" style="fill:none;stroke:#00AEEF;stroke-width:0.5;opacity:1.0;" x1="2882.08" x2="2882.08" y1="600.785" y2="720.121"/>
  <line id="right-margin-Regular-S" style="fill:none;stroke:#00AEEF;stroke-width:0.5;opacity:1.0;" x1="1494.91" x2="1494.91" y1="600.785" y2="720.121"/>
  <line id="left-margin-Regular-S" style="fill:none;stroke:#00AEEF;stroke-width:0.5;opacity:1.0;" x1="1404.78" x2="1404.78" y1="600.785" y2="720.121"/>
  <line id="right-margin-Ultralight-S" style="fill:none;stroke:#00AEEF;stroke-width:0.5;opacity:1.0;" x1="602.1" x2="602.1" y1="600.785" y2="720.121"/>
  <line id="left-margin-Ultralight-S" style="fill:none;stroke:#00AEEF;stroke-width:0.5;opacity:1.0;" x1="517.322" x2="517.322" y1="600.785" y2="720.121"/>
 </g>
 <g id="Symbols">
  <g id="Black-S" transform="matrix(1 0 0 1 2882.08 696)">
   <path class="monochrome-0 multicolor-0:tintColor hierarchical-0:primary SFSymbolsPreviewWireframe" d="M74.2188-70.166L74.2188-2.29492C74.2188 1.12305 77.2461 3.80859 80.5664 3.80859C84.0332 3.80859 86.9141 1.17188 86.9141-2.29492L86.9141-70.166C86.9141-73.584 83.9355-76.2695 80.5664-76.2695C77.3438-76.2695 74.2188-73.5352 74.2188-70.166Z"/>
   <path class="monochrome-1 monochrome-2 multicolor-1:tintColor multicolor-2:tintColor hierarchical-1:primary hierarchical-2:primary SFSymbolsPreviewWireframe" d="M80.5664-7.12891C87.6953-7.12891 92.8711-12.3047 92.8711-19.3848L92.8711-27.5879C92.8711-34.668 87.6953-39.8438 80.5664-39.8438C73.4375-39.8438 68.2617-34.668 68.2617-27.5879L68.2617-19.3848C68.2617-12.3047 73.4375-7.12891 80.5664-7.12891Z"/>
   <path class="monochrome-2 multicolor-2:tintColor hierarchical-2:primary SFSymbolsPreviewWireframe" d="M80.5664-14.6973C77.7832-14.6973 75.8301-16.6016 75.8301-19.3848L75.8301-27.5879C75.8301-30.3711 77.7832-32.2754 80.5664-32.2754C83.3496-32.2754 85.3027-30.3711 85.3027-27.5879L85.3027-19.3848C85.3027-16.6016 83.3496-14.6973 80.5664-14.6973Z"/>
   <path class="monochrome-3 multicolor-3:tintColor hierarchical-3:primary SFSymbolsPreviewWireframe" d="M44.9707-70.166L44.9707-2.29492C44.9707 1.12305 47.998 3.80859 51.3184 3.80859C54.7852 3.80859 57.666 1.17188 57.666-2.29492L57.666-70.166C57.666-73.584 54.6875-76.2695 51.3184-76.2695C48.0957-76.2695 44.9707-73.5352 44.9707-70.166Z"/>
   <path class="monochrome-4 monochrome-5 multicolor-4:tintColor multicolor-5:tintColor hierarchical-4:primary hierarchical-5:primary SFSymbolsPreviewWireframe" d="M51.3184-32.6172C58.4473-32.6172 63.623-37.793 63.623-44.873L63.623-53.0762C63.623-60.1562 58.4473-65.332 51.3184-65.332C44.1895-65.332 39.0137-60.1562 39.0137-53.0762L39.0137-44.873C39.0137-37.793 44.1895-32.6172 51.3184-32.6172Z"/>
   <path class="monochrome-5 multicolor-5:tintColor hierarchical-5:primary SFSymbolsPreviewWireframe" d="M51.3184-40.1855C48.5352-40.1855 46.582-42.0898 46.582-44.873L46.582-53.0762C46.582-55.8594 48.5352-57.7637 51.3184-57.7637C54.1016-57.7637 56.0547-55.8594 56.0547-53.0762L56.0547-44.873C56.0547-42.0898 54.1016-40.1855 51.3184-40.1855Z"/>
   <path class="monochrome-6 multicolor-6:tintColor hierarchical-6:primary SFSymbolsPreviewWireframe" d="M15.7227-70.166L15.7227-2.29492C15.7227 1.12305 18.75 3.80859 22.0703 3.80859C25.5371 3.80859 28.418 1.17188 28.418-2.29492L28.418-70.166C28.418-73.584 25.4395-76.2695 22.0703-76.2695C18.8477-76.2695 15.7227-73.5352 15.7227-70.166Z"/>
   <path class="monochrome-7 monochrome-8 multicolor-7:tintColor multicolor-8:tintColor hierarchical-7:primary hierarchical-8:primary SFSymbolsPreviewWireframe" d="M22.0703-7.12891C29.1992-7.12891 34.375-12.3047 34.375-19.3848L34.375-27.5879C34.375-34.668 29.1992-39.8438 22.0703-39.8438C14.9414-39.8438 9.76562-34.668 9.76562-27.5879L9.76562-19.3848C9.76562-12.3047 14.9414-7.12891 22.0703-7.12891Z"/>
   <path class="monochrome-8 multicolor-8:tintColor hierarchical-8:primary SFSymbolsPreviewWireframe" d="M22.0703-14.6973C19.2871-14.6973 17.334-16.6016 17.334-19.3848L17.334-27.5879C17.334-30.3711 19.2871-32.2754 22.0703-32.2754C24.8535-32.2754 26.8066-30.3711 26.8066-27.5879L26.8066-19.3848C26.8066-16.6016 24.8535-14.6973 22.0703-14.6973Z"/>
  </g>
  <g id="Regular-S" transform="matrix(1 0 0 1 1404.78 696)">
   <path class="monochrome-0 multicolor-0:tintColor hierarchical-0:primary SFSymbolsPreviewWireframe" d="M67.334-68.0176L67.334-6.78711C67.334-5.0293 68.8477-3.4668 70.8496-3.4668C72.8027-3.4668 74.3652-5.0293 74.3652-6.78711L74.3652-68.0176C74.3652-70.0195 72.8027-71.582 70.8496-71.582C68.8477-71.582 67.334-70.0195 67.334-68.0176Z"/>
   <path class="monochrome-1 monochrome-2 multicolor-1:tintColor multicolor-2:tintColor hierarchical-1:primary hierarchical-2:primary SFSymbolsPreviewWireframe" d="M70.8496-13.5742C76.416-13.5742 80.3711-17.4805 80.3711-23.0469L80.3711-30.4688C80.3711-36.0352 76.416-39.9902 70.8496-39.9902C65.2832-39.9902 61.3281-36.0352 61.3281-30.4688L61.3281-23.0469C61.3281-17.4805 65.2832-13.5742 70.8496-13.5742Z"/>
   <path class="monochrome-2 multicolor-2:tintColor hierarchical-2:primary SFSymbolsPreviewWireframe" d="M70.8496-18.75C68.3105-18.75 66.5527-20.5078 66.5527-23.0469L66.5527-30.4688C66.5527-33.0078 68.3105-34.7656 70.8496-34.7656C73.3887-34.7656 75.1465-33.0078 75.1465-30.4688L75.1465-23.0469C75.1465-20.5078 73.3887-18.75 70.8496-18.75Z"/>
   <path class="monochrome-3 multicolor-3:tintColor hierarchical-3:primary SFSymbolsPreviewWireframe" d="M41.5527-68.0176L41.5527-6.78711C41.5527-5.0293 43.0664-3.4668 45.0684-3.4668C47.0215-3.4668 48.584-5.0293 48.584-6.78711L48.584-68.0176C48.584-70.0195 47.0215-71.582 45.0684-71.582C43.0664-71.582 41.5527-70.0195 41.5527-68.0176Z"/>
   <path class="monochrome-4 monochrome-5 multicolor-4:tintColor multicolor-5:tintColor hierarchical-4:primary hierarchical-5:primary SFSymbolsPreviewWireframe" d="M45.0684-35.0586C50.6348-35.0586 54.5898-38.9648 54.5898-44.5312L54.5898-51.9531C54.5898-57.5195 50.6348-61.4746 45.0684-61.4746C39.502-61.4746 35.5469-57.5195 35.5469-51.9531L35.5469-44.5312C35.5469-38.9648 39.502-35.0586 45.0684-35.0586Z"/>
   <path class="monochrome-5 multicolor-5:tintColor hierarchical-5:primary SFSymbolsPreviewWireframe" d="M45.0684-40.2344C42.5293-40.2344 40.7227-41.9922 40.7227-44.5312L40.7227-51.9531C40.7227-54.4922 42.5293-56.25 45.0684-56.25C47.6074-56.25 49.3652-54.4922 49.3652-51.9531L49.3652-44.5312C49.3652-41.9922 47.6074-40.2344 45.0684-40.2344Z"/>
   <path class="monochrome-6 multicolor-6:tintColor hierarchical-6:primary SFSymbolsPreviewWireframe" d="M15.7715-68.0176L15.7715-6.78711C15.7715-5.0293 17.2852-3.4668 19.2871-3.4668C21.2402-3.4668 22.8027-5.0293 22.8027-6.78711L22.8027-68.0176C22.8027-70.0195 21.2402-71.582 19.2871-71.582C17.2852-71.582 15.7715-70.0195 15.7715-68.0176Z"/>
   <path class="monochrome-7 monochrome-8 multicolor-7:tintColor multicolor-8:tintColor hierarchical-7:primary hierarchical-8:primary SFSymbolsPreviewWireframe" d="M19.2871-13.5742C24.8535-13.5742 28.7598-17.4805 28.7598-23.0469L28.7598-30.4688C28.7598-36.0352 24.8535-39.9902 19.2871-39.9902C13.7207-39.9902 9.76562-36.0352 9.76562-30.4688L9.76562-23.0469C9.76562-17.4805 13.7207-13.5742 19.2871-13.5742Z"/>
   <path class="monochrome-8 multicolor-8:tintColor hierarchical-8:primary SFSymbolsPreviewWireframe" d="M19.2871-18.75C16.6992-18.75 14.9414-20.5078 14.9414-23.0469L14.9414-30.4688C14.9414-33.0078 16.6992-34.7656 19.2871-34.7656C21.8262-34.7656 23.584-33.0078 23.584-30.4688L23.584-23.0469C23.584-20.5078 21.8262-18.75 19.2871-18.75Z"/>
  </g>
  <g id="Ultralight-S" transform="matrix(1 0 0 1 517.322 696)">
   <path class="monochrome-0 multicolor-0:tintColor hierarchical-0:primary SFSymbolsPreviewWireframe" d="M67.1069-65.9287L67.1069-4.4258C67.1069-3.80323 67.5762-3.33057 68.2158-3.33057C68.8067-3.33057 69.3247-3.80323 69.3247-4.4258L69.3247-65.9287C69.3247-66.523 68.8067-67.0411 68.2158-67.0411C67.5762-67.0411 67.1069-66.523 67.1069-65.9287Z"/>
   <path class="monochrome-1 monochrome-2 multicolor-1:tintColor multicolor-2:tintColor hierarchical-1:primary hierarchical-2:primary SFSymbolsPreviewWireframe" d="M68.2613-14.1191C72.2383-14.1191 75.0127-16.9356 75.0127-20.9126L75.0127-27.9712C75.0127-31.9029 72.2383-34.6773 68.2613-34.6773C64.3296-34.6773 61.5098-31.9029 61.5098-27.9712L61.5098-20.9126C61.5098-16.9356 64.3296-14.1191 68.2613-14.1191Z"/>
   <path class="monochrome-2 multicolor-2:tintColor hierarchical-2:primary SFSymbolsPreviewWireframe" d="M68.2613-16.2525C65.5405-16.2525 63.6465-18.1919 63.6465-20.9126L63.6465-27.9712C63.6465-30.6919 65.5405-32.586 68.2613-32.586C70.982-32.586 72.9214-30.6919 72.9214-27.9712L72.9214-20.9126C72.9214-18.1919 70.982-16.2525 68.2613-16.2525Z"/>
   <path class="monochrome-3 multicolor-3:tintColor hierarchical-3:primary SFSymbolsPreviewWireframe" d="M41.2349-65.9287L41.2349-4.4258C41.2349-3.80323 41.7041-3.33057 42.3438-3.33057C42.9346-3.33057 43.4527-3.80323 43.4527-4.4258L43.4527-65.9287C43.4527-66.523 42.9346-67.0411 42.3438-67.0411C41.7041-67.0411 41.2349-66.523 41.2349-65.9287Z"/>
   <path class="monochrome-4 monochrome-5 multicolor-4:tintColor multicolor-5:tintColor hierarchical-4:primary hierarchical-5:primary SFSymbolsPreviewWireframe" d="M42.3892-35.6489C46.3662-35.6489 49.1407-38.4653 49.1407-42.397L49.1407-49.4556C49.1407-53.4326 46.3662-56.2071 42.3892-56.2071C38.4121-56.2071 35.6377-53.4326 35.6377-49.4556L35.6377-42.397C35.6377-38.4653 38.4121-35.6489 42.3892-35.6489Z"/>
   <path class="monochrome-5 multicolor-5:tintColor hierarchical-5:primary SFSymbolsPreviewWireframe" d="M42.3892-37.7822C39.6685-37.7822 37.771-39.6763 37.771-42.397L37.771-49.4556C37.771-52.1763 39.6685-54.1157 42.3892-54.1157C45.1099-54.1157 47.0493-52.1763 47.0493-49.4556L47.0493-42.397C47.0493-39.6763 45.1099-37.7822 42.3892-37.7822Z"/>
   <path class="monochrome-6 multicolor-6:tintColor hierarchical-6:primary SFSymbolsPreviewWireframe" d="M15.3628-65.9287L15.3628-4.4258C15.3628-3.80323 15.832-3.33057 16.4717-3.33057C17.0625-3.33057 17.5352-3.80323 17.5352-4.4258L17.5352-65.9287C17.5352-66.523 17.0625-67.0411 16.4717-67.0411C15.832-67.0411 15.3628-66.523 15.3628-65.9287Z"/>
   <path class="monochrome-7 monochrome-8 multicolor-7:tintColor multicolor-8:tintColor hierarchical-7:primary hierarchical-8:primary SFSymbolsPreviewWireframe" d="M16.5171-14.1191C20.4942-14.1191 23.2652-16.9356 23.2652-20.9126L23.2652-27.9712C23.2652-31.9029 20.4942-34.6773 16.5171-34.6773C12.54-34.6773 9.76562-31.9029 9.76562-27.9712L9.76562-20.9126C9.76562-16.9356 12.54-14.1191 16.5171-14.1191Z"/>
   <path class="monochrome-8 multicolor-8:tintColor hierarchical-8:primary SFSymbolsPreviewWireframe" d="M16.5171-16.2525C13.793-16.2525 11.8989-18.1919 11.8989-20.9126L11.8989-27.9712C11.8989-30.6919 13.793-32.586 16.5171-32.586C19.2378-32.586 21.1773-30.6919 21.1773-27.9712L21.1773-20.9126C21.1773-18.1919 19.2378-16.2525 16.5171-16.2525Z"/>
  </g>
 </g>
</svg>
