<svg xmlns="http://www.w3.org/2000/svg" viewBox="7.638 -75.869 89.371 81.425" aria-hidden="true" data-sf-symbol="checklist">
 <g fill="black">
  <path d="M 53.746 -10.213 L 92.134 -10.213 C 93.664 -10.213 94.881 -11.397 94.881 -12.926 C 94.881 -14.44 93.664 -15.625 92.134 -15.625 L 53.746 -15.625 C 52.232 -15.625 51.033 -14.44 51.033 -12.926 C 51.033 -11.397 52.232 -10.213 53.746 -10.213 Z"/>
  <path d="M 26.09 3.428 C 34.975 3.428 42.362 -4.011 42.362 -12.926 C 42.362 -21.845 34.975 -29.25 26.09 -29.25 C 17.122 -29.25 9.766 -21.83 9.766 -12.926 C 9.766 -4.026 17.156 3.428 26.09 3.428 Z M 26.09 -1.527 C 19.881 -1.527 14.721 -6.751 14.721 -12.926 C 14.721 -19.086 19.93 -24.311 26.09 -24.311 C 32.231 -24.311 37.422 -19.071 37.422 -12.926 C 37.422 -6.751 32.231 -1.527 26.09 -1.527 Z"/>
  <path d="M 53.746 -54.703 L 92.134 -54.703 C 93.664 -54.703 94.881 -55.887 94.881 -57.401 C 94.881 -58.931 93.664 -60.115 92.134 -60.115 L 53.746 -60.115 C 52.232 -60.115 51.033 -58.931 51.033 -57.401 C 51.033 -55.887 52.232 -54.703 53.746 -54.703 Z"/>
  <path d="M 26.09 -41.096 C 34.975 -41.096 42.362 -48.535 42.362 -57.435 C 42.362 -66.369 34.975 -73.741 26.09 -73.741 C 17.122 -73.741 9.766 -66.354 9.766 -57.435 C 9.766 -48.55 17.156 -41.096 26.09 -41.096 Z M 24.133 -48.548 C 23.406 -48.548 22.926 -48.961 22.397 -49.523 L 17.872 -54.867 C 17.575 -55.265 17.429 -55.677 17.429 -56.285 C 17.429 -57.291 18.217 -58.127 19.219 -58.127 C 19.879 -58.127 20.371 -57.85 20.835 -57.235 L 24.051 -53.25 L 31.123 -64.493 C 31.518 -65.168 32.092 -65.529 32.752 -65.529 C 33.754 -65.529 34.609 -64.726 34.609 -63.803 C 34.609 -63.326 34.463 -62.898 34.118 -62.355 L 25.964 -49.554 C 25.536 -48.912 24.906 -48.548 24.133 -48.548 Z"/>
 </g>
</svg>
