<svg xmlns="http://www.w3.org/2000/svg" viewBox="7.856 -69.631 80.233 67.717" aria-hidden="true" data-sf-symbol="list.number">
 <g fill="black">
  <path d="M 33.312 -9.503 L 83.431 -9.503 C 84.945 -9.503 86.178 -10.687 86.178 -12.202 C 86.178 -13.731 84.945 -14.915 83.431 -14.915 L 33.312 -14.915 C 31.797 -14.915 30.598 -13.731 30.598 -12.202 C 30.598 -10.687 31.797 -9.503 33.312 -9.503 Z"/>
  <path d="M 16.26 -3.825 C 20.664 -3.825 23.311 -5.785 23.311 -8.939 C 23.311 -11.045 21.869 -12.507 19.217 -12.736 L 19.217 -12.834 C 21.228 -13.206 22.657 -14.49 22.657 -16.63 C 22.657 -19.464 19.936 -21.061 16.227 -21.061 C 13.332 -21.061 10.16 -19.66 10.16 -17.22 C 10.16 -16.203 10.914 -15.494 11.987 -15.494 C 12.76 -15.494 13.12 -15.79 13.646 -16.391 C 14.498 -17.364 15.227 -17.669 16.211 -17.669 C 17.486 -17.669 18.361 -17.075 18.361 -15.91 C 18.361 -14.79 17.44 -14.196 15.836 -14.196 L 15.309 -14.196 C 14.322 -14.196 13.65 -13.659 13.65 -12.638 C 13.65 -11.651 14.289 -11.062 15.309 -11.062 L 15.885 -11.062 C 17.666 -11.062 18.602 -10.468 18.602 -9.254 C 18.602 -8.123 17.617 -7.363 16.26 -7.363 C 14.893 -7.363 13.935 -8.072 13.218 -8.84 C 12.809 -9.291 12.418 -9.603 11.758 -9.603 C 10.557 -9.603 9.766 -8.897 9.766 -7.794 C 9.766 -5.245 13.25 -3.825 16.26 -3.825 Z"/>
  <path d="M 33.312 -32.492 L 83.431 -32.492 C 84.945 -32.492 86.178 -33.691 86.178 -35.205 C 86.178 -36.719 84.945 -37.918 83.431 -37.918 L 33.312 -37.918 C 31.797 -37.918 30.598 -36.719 30.598 -35.205 C 30.598 -33.691 31.797 -32.492 33.312 -32.492 Z"/>
  <path d="M 11.822 -27.543 L 21.498 -27.543 C 22.47 -27.543 23.228 -28.233 23.228 -29.238 C 23.228 -30.292 22.485 -30.983 21.498 -30.983 L 15.907 -30.983 L 15.907 -31.081 L 19.082 -33.757 C 21.704 -35.963 22.691 -37.157 22.691 -39.334 C 22.691 -42.292 20.157 -44.335 16.178 -44.335 C 12.615 -44.335 10.062 -42.431 10.062 -40.043 C 10.062 -38.879 10.801 -38.268 12.009 -38.268 C 12.827 -38.268 13.401 -38.546 13.881 -39.395 C 14.392 -40.349 15.147 -40.864 16.245 -40.864 C 17.44 -40.864 18.264 -40.105 18.264 -39.019 C 18.264 -38.053 17.779 -37.271 15.822 -35.615 L 10.835 -31.475 C 10.145 -30.867 9.848 -30.225 9.848 -29.452 C 9.848 -28.3 10.606 -27.543 11.822 -27.543 Z"/>
  <path d="M 33.312 -55.495 L 83.431 -55.495 C 84.945 -55.495 86.178 -56.679 86.178 -58.209 C 86.178 -59.723 84.945 -60.907 83.431 -60.907 L 33.312 -60.907 C 31.797 -60.907 30.598 -59.723 30.598 -58.209 C 30.598 -56.679 31.797 -55.495 33.312 -55.495 Z"/>
  <path d="M 17.821 -50.47 C 19.202 -50.47 20.125 -51.225 20.125 -52.841 L 20.125 -65.207 C 20.125 -66.768 19.071 -67.721 17.51 -67.721 C 16.196 -67.721 15.438 -67.263 14.519 -66.673 L 11.803 -64.754 C 11.022 -64.217 10.628 -63.774 10.628 -62.986 C 10.628 -62.018 11.367 -61.395 12.219 -61.395 C 12.692 -61.395 12.937 -61.477 13.541 -61.917 L 15.401 -63.188 L 15.465 -63.188 L 15.465 -52.841 C 15.465 -51.225 16.373 -50.47 17.821 -50.47 Z"/>
 </g>
</svg>
