<svg xmlns="http://www.w3.org/2000/svg" viewBox="7.856 -64.811 80.233 59.183" aria-hidden="true" data-sf-symbol="list.bullet">
 <g fill="black">
  <path d="M 31.017 -9.519 L 83.431 -9.519 C 84.945 -9.519 86.178 -10.703 86.178 -12.217 C 86.178 -13.78 84.945 -14.93 83.431 -14.93 L 31.017 -14.93 C 29.488 -14.93 28.304 -13.78 28.304 -12.217 C 28.304 -10.703 29.488 -9.519 31.017 -9.519 Z"/>
  <path d="M 14.459 -7.539 C 17.026 -7.539 19.136 -9.649 19.136 -12.217 C 19.136 -14.834 17.026 -16.91 14.459 -16.91 C 11.875 -16.91 9.766 -14.834 9.766 -12.217 C 9.766 -9.649 11.875 -7.539 14.459 -7.539 Z"/>
  <path d="M 31.017 -32.507 L 83.431 -32.507 C 84.945 -32.507 86.178 -33.706 86.178 -35.22 C 86.178 -36.734 84.945 -37.934 83.431 -37.934 L 31.017 -37.934 C 29.488 -37.934 28.304 -36.734 28.304 -35.22 C 28.304 -33.706 29.488 -32.507 31.017 -32.507 Z"/>
  <path d="M 14.459 -30.527 C 17.026 -30.527 19.136 -32.637 19.136 -35.22 C 19.136 -37.803 17.026 -39.913 14.459 -39.913 C 11.875 -39.913 9.766 -37.803 9.766 -35.22 C 9.766 -32.637 11.875 -30.527 14.459 -30.527 Z"/>
  <path d="M 31.017 -55.51 L 83.431 -55.51 C 84.945 -55.51 86.178 -56.694 86.178 -58.224 C 86.178 -59.738 84.945 -60.922 83.431 -60.922 L 31.017 -60.922 C 29.488 -60.922 28.304 -59.738 28.304 -58.224 C 28.304 -56.694 29.488 -55.51 31.017 -55.51 Z"/>
  <path d="M 14.459 -53.531 C 17.026 -53.531 19.136 -55.641 19.136 -58.224 C 19.136 -60.792 17.026 -62.901 14.459 -62.901 C 11.875 -62.901 9.766 -60.792 9.766 -58.224 C 9.766 -55.641 11.875 -53.531 14.459 -53.531 Z"/>
 </g>
</svg>
