<svg xmlns="http://www.w3.org/2000/svg" viewBox="7.56 -81.585 70.133 92.664" aria-hidden="true" data-sf-symbol="magazine">
 <g fill="black">
  <path d="M 63.076 -67.27 L 67.448 -67.27 C 69.218 -67.27 70.06 -66.316 70.06 -64.299 L 70.06 -5.684 C 70.06 -3.389 69.646 -2.468 67.494 -1.529 C 60.159 1.798 49.123 3.868 39.049 3.917 C 32.9 3.868 27.11 3.484 21.396 2.447 L 21.396 2.851 C 37.336 3.042 53.208 -1.128 60.533 -6.748 C 63.039 -8.691 63.766 -9.975 63.766 -13.183 L 63.766 -74.097 C 63.766 -77.722 61.904 -79.379 58.768 -79.379 C 57.729 -79.379 56.412 -79.15 54.957 -78.637 C 43.171 -74.877 32.07 -72.573 18.802 -72.573 L 15.981 -72.573 C 12.032 -72.573 9.766 -70.307 9.766 -66.665 L 9.766 -1.327 C 9.766 1.606 10.458 3.264 13.179 4.49 C 20.145 7.268 29.754 8.856 39.049 8.872 C 49.719 8.856 61.929 7.222 70.155 3.164 C 74.39 1.062 75.486 -0.841 75.486 -5.287 L 75.486 -64.363 C 75.486 -70.045 72.932 -72.682 67.433 -72.682 L 63.076 -72.682 Z M 15.192 -3.704 L 15.192 -65.268 C 15.192 -66.525 15.832 -67.229 16.995 -67.229 L 19.068 -67.229 C 32.348 -67.229 44.985 -69.762 56.072 -73.169 C 57.429 -73.605 58.339 -73.294 58.339 -72.053 L 58.339 -14.375 C 58.339 -12.321 58.046 -11.502 56.219 -10.305 C 48.351 -4.929 34.941 -1.654 16.613 -2.279 C 15.595 -2.313 15.192 -2.734 15.192 -3.704 Z M 23.185 -57.14 L 23.185 -44.504 C 23.185 -43.918 23.624 -43.64 24.112 -43.64 C 33.097 -43.583 42.389 -45.167 49.273 -47.951 C 49.615 -48.097 49.811 -48.439 49.811 -48.781 L 49.811 -61.779 C 49.811 -62.658 49.029 -62.838 48.59 -62.673 C 40.68 -59.934 32.668 -58.386 24.112 -58.117 C 23.575 -58.083 23.185 -57.677 23.185 -57.14 Z"/>
 </g>
</svg>
