<svg xmlns="http://www.w3.org/2000/svg" viewBox="7.687 -63.504 87.31 56.583" aria-hidden="true" data-sf-symbol="quote.opening">
 <g fill="black">
  <path d="M 47.509 -27.187 C 47.509 -37.202 40.089 -45.254 30.414 -45.254 C 25.804 -45.254 21.306 -43.424 17.991 -39.611 L 16.98 -39.611 C 19.01 -46.91 25.775 -53.591 34.872 -56.051 C 35.963 -56.384 36.815 -56.669 37.307 -57.055 C 37.954 -57.489 38.349 -58.082 38.349 -58.946 C 38.349 -60.431 37.228 -61.425 35.562 -61.425 C 34.345 -61.425 33.348 -61.199 31.775 -60.689 C 26.43 -58.988 21.666 -55.991 18.004 -52.122 C 12.916 -46.823 9.766 -39.714 9.766 -31.363 C 9.766 -17.172 18.752 -9 29.274 -9 C 39.695 -9 47.509 -16.943 47.509 -27.187 Z M 92.918 -27.187 C 92.918 -37.202 85.415 -45.254 75.792 -45.254 C 71.164 -45.254 66.65 -43.424 63.384 -39.611 L 62.34 -39.611 C 64.354 -46.91 71.153 -53.591 80.183 -56.051 C 81.274 -56.384 82.16 -56.669 82.651 -57.055 C 83.313 -57.489 83.693 -58.082 83.693 -58.946 C 83.693 -60.431 82.587 -61.425 80.921 -61.425 C 79.655 -61.425 78.741 -61.199 77.086 -60.689 C 71.808 -58.988 67.026 -55.991 63.315 -52.122 C 58.26 -46.823 55.125 -39.714 55.125 -31.363 C 55.125 -17.172 64.096 -9 74.633 -9 C 85.039 -9 92.918 -16.943 92.918 -27.187 Z"/>
 </g>
</svg>
