<svg xmlns="http://www.w3.org/2000/svg" viewBox="7.674 -74.039 87.852 82.413" aria-hidden="true" data-sf-symbol="quote.bubble">
 <g fill="black">
  <path d="M 32.491 6.283 C 34.17 6.283 35.333 5.402 37.303 3.63 L 50.662 -8.134 L 76.562 -8.134 C 87.424 -8.134 93.435 -14.31 93.435 -25.006 L 93.435 -55.074 C 93.435 -65.77 87.424 -71.947 76.562 -71.947 L 26.638 -71.947 C 15.777 -71.947 9.766 -65.801 9.766 -55.074 L 9.766 -25.006 C 9.766 -14.28 15.777 -8.134 26.638 -8.134 L 28.766 -8.134 L 28.766 1.992 C 28.766 4.619 30.127 6.283 32.491 6.283 Z M 33.859 0.137 L 33.859 -11.016 C 33.859 -12.863 33.162 -13.561 31.314 -13.561 L 26.669 -13.561 C 19.004 -13.561 15.192 -17.623 15.192 -25.037 L 15.192 -55.044 C 15.192 -62.439 19.004 -66.486 26.669 -66.486 L 76.532 -66.486 C 84.136 -66.486 88.008 -62.439 88.008 -55.044 L 88.008 -25.037 C 88.008 -17.623 84.136 -13.561 76.532 -13.561 L 50.528 -13.561 C 48.624 -13.561 47.63 -13.264 46.279 -11.892 Z"/>
  <path d="M 33.063 -44.032 C 33.063 -39.698 35.842 -36.401 40.127 -36.401 C 41.781 -36.401 43.389 -36.732 44.411 -38.029 L 44.719 -38.029 C 43.318 -34.668 40.193 -32.613 37.799 -31.975 C 36.455 -31.614 36.046 -31.006 36.046 -30.154 C 36.046 -29.22 36.8 -28.465 37.832 -28.465 C 41.522 -28.465 49.403 -32.926 49.403 -42.616 C 49.403 -47.897 45.901 -51.753 41.081 -51.753 C 36.518 -51.753 33.063 -48.534 33.063 -44.032 Z M 53.816 -44.032 C 53.816 -39.698 56.562 -36.401 60.881 -36.401 C 62.501 -36.401 64.142 -36.732 65.164 -38.029 L 65.487 -38.029 C 64.102 -34.668 60.928 -32.613 58.552 -31.975 C 57.224 -31.614 56.799 -31.006 56.799 -30.154 C 56.799 -29.22 57.52 -28.465 58.586 -28.465 C 62.291 -28.465 70.123 -32.926 70.123 -42.616 C 70.123 -47.897 66.67 -51.753 61.834 -51.753 C 57.271 -51.753 53.816 -48.534 53.816 -44.032 Z"/>
 </g>
</svg>
