<svg xmlns="http://www.w3.org/2000/svg" viewBox="7.687 -63.504 87.31 56.583" aria-hidden="true" data-sf-symbol="quote.closing">
 <g fill="black">
  <path d="M 9.766 -43.272 C 9.766 -33.223 17.235 -25.171 26.891 -25.171 C 31.52 -25.171 36.018 -27.035 39.299 -30.814 L 40.343 -30.814 C 38.28 -23.516 31.515 -16.834 22.467 -14.375 C 21.36 -14.041 20.475 -13.756 20.017 -13.371 C 19.321 -12.936 18.975 -12.343 18.975 -11.513 C 18.975 -9.994 20.062 -9 21.713 -9 C 22.994 -9 23.942 -9.226 25.564 -9.736 C 30.875 -11.437 35.657 -14.434 39.334 -18.303 C 44.423 -23.602 47.509 -30.711 47.509 -39.062 C 47.509 -53.253 38.553 -61.425 28.001 -61.425 C 17.61 -61.425 9.766 -53.482 9.766 -43.272 Z M 55.125 -43.272 C 55.125 -33.223 62.594 -25.171 72.235 -25.171 C 76.879 -25.171 81.344 -27.035 84.659 -30.814 L 85.669 -30.814 C 83.658 -23.516 76.859 -16.834 67.811 -14.375 C 66.705 -14.041 65.868 -13.756 65.376 -13.371 C 64.73 -12.936 64.285 -12.343 64.285 -11.513 C 64.285 -9.994 65.456 -9 67.121 -9 C 68.338 -9 69.301 -9.226 70.908 -9.736 C 76.22 -11.437 81.017 -14.434 84.679 -18.303 C 89.767 -23.602 92.918 -30.711 92.918 -39.062 C 92.918 -53.253 83.897 -61.425 73.394 -61.425 C 62.988 -61.425 55.125 -53.482 55.125 -43.272 Z"/>
 </g>
</svg>
