<svg xmlns="http://www.w3.org/2000/svg" viewBox="7.751 -77.531 84.648 84.555" aria-hidden="true" data-sf-symbol="scroll">
 <g fill="black">
  <path d="M 9.766 -57.373 C 9.766 -55.288 11.145 -53.927 13.309 -53.927 L 23.492 -53.927 L 23.492 -6.625 C 23.492 1.119 27.332 5.008 35.077 5.008 L 78.686 5.008 C 85.717 5.008 90.383 0.196 90.383 -7.129 L 90.383 -17.529 C 90.383 -19.614 88.989 -20.975 86.84 -20.975 L 83.395 -20.975 L 83.395 -63.882 C 83.395 -71.593 79.555 -75.516 71.896 -75.516 L 19.359 -75.516 C 13.696 -75.516 9.766 -71.685 9.766 -65.517 Z M 28.903 -6.622 L 28.903 -65.517 C 28.903 -67.259 28.658 -68.805 28.185 -70.089 L 71.597 -70.089 C 75.807 -70.089 77.984 -67.86 77.984 -63.785 L 77.984 -20.975 L 44.745 -20.975 C 42.596 -20.975 41.216 -19.614 41.216 -17.529 L 41.216 -6.622 C 41.216 -2.831 38.752 -0.434 35.077 -0.418 C 31.387 -0.434 28.903 -2.932 28.903 -6.622 Z M 15.192 -59.354 L 15.192 -65.517 C 15.192 -68.375 17.005 -70.089 19.359 -70.089 C 21.849 -70.089 23.492 -68.375 23.492 -65.517 L 23.492 -59.354 Z M 44.835 -0.418 C 45.992 -2.112 46.628 -4.277 46.628 -6.929 L 46.628 -15.548 L 84.957 -15.548 L 84.957 -7.129 C 84.957 -3.125 82.411 -0.418 78.686 -0.418 Z M 39.797 -40.521 L 53.911 -40.521 C 55.137 -40.521 56.033 -41.433 56.033 -42.595 C 56.033 -43.806 55.137 -44.751 53.911 -44.751 L 39.797 -44.751 C 38.538 -44.751 37.642 -43.806 37.642 -42.595 C 37.642 -41.433 38.538 -40.521 39.797 -40.521 Z M 39.797 -53.894 L 67.124 -53.894 C 68.35 -53.894 69.246 -54.838 69.246 -56.034 C 69.246 -57.211 68.35 -58.123 67.124 -58.123 L 39.797 -58.123 C 38.538 -58.123 37.642 -57.211 37.642 -56.034 C 37.642 -54.838 38.538 -53.894 39.797 -53.894 Z"/>
 </g>
</svg>
