<svg xmlns="http://www.w3.org/2000/svg" viewBox="2.863 -71.524 84.855 72.542" aria-hidden="true" data-sf-symbol="text.line.magnify">
 <g fill="black">
  <path d="M 16.674 -64.078 L 73.873 -64.078 C 75.42 -64.078 76.62 -65.262 76.62 -66.791 C 76.62 -68.339 75.42 -69.504 73.873 -69.504 L 16.674 -69.504 C 15.16 -69.504 13.96 -68.339 13.96 -66.791 C 13.96 -65.262 15.16 -64.078 16.674 -64.078 Z M 16.674 -39.747 L 73.873 -39.747 C 75.405 -39.747 76.62 -40.946 76.62 -42.46 C 76.62 -43.993 75.405 -45.174 73.873 -45.174 L 16.674 -45.174 C 15.175 -45.174 13.96 -43.993 13.96 -42.46 C 13.96 -40.946 15.175 -39.747 16.674 -39.747 Z M 16.674 -15.619 L 73.873 -15.619 C 75.42 -15.619 76.62 -16.803 76.62 -18.332 C 76.62 -19.88 75.42 -21.03 73.873 -21.03 L 16.674 -21.03 C 15.16 -21.03 13.96 -19.88 13.96 -18.332 C 13.96 -16.803 15.16 -15.619 16.674 -15.619 Z M 16.674 -1.003 L 73.873 -1.003 C 75.42 -1.003 76.62 -2.169 76.62 -3.717 C 76.62 -5.246 75.42 -6.43 73.873 -6.43 L 16.674 -6.43 C 15.16 -6.43 13.96 -5.246 13.96 -3.717 C 13.96 -2.169 15.16 -1.003 16.674 -1.003 Z"/>
  <path d="M 16.674 -30.77 L 73.906 -30.77 C 80.541 -30.77 85.697 -35.96 85.697 -42.562 C 85.697 -49.163 80.541 -54.353 73.906 -54.353 L 16.674 -54.353 C 10.073 -54.353 4.883 -49.163 4.883 -42.562 C 4.883 -35.96 10.073 -30.77 16.674 -30.77 Z M 16.674 -34.614 C 12.225 -34.614 8.741 -38.113 8.741 -42.562 C 8.741 -46.995 12.225 -50.494 16.674 -50.494 L 73.906 -50.494 C 78.355 -50.494 81.873 -46.995 81.873 -42.562 C 81.873 -38.113 78.355 -34.614 73.906 -34.614 Z"/>
 </g>
</svg>
