<svg xmlns="http://www.w3.org/2000/svg" viewBox="-6.714 -78.45 105.162 78.443" aria-hidden="true" data-sf-symbol="text.line.first.and.arrowtriangle.forward">
 <g fill="black">
  <path d="M 22.245 -2.511 L 93.197 -2.511 C 94.711 -2.511 95.944 -3.71 95.944 -5.225 C 95.944 -6.739 94.711 -7.938 93.197 -7.938 L 22.245 -7.938 C 20.715 -7.938 19.531 -6.739 19.531 -5.225 C 19.531 -3.71 20.715 -2.511 22.245 -2.511 Z"/>
  <path d="M 22.245 -22.531 L 93.197 -22.531 C 94.711 -22.531 95.944 -23.73 95.944 -25.244 C 95.944 -26.758 94.711 -27.958 93.197 -27.958 L 22.245 -27.958 C 20.715 -27.958 19.531 -26.758 19.531 -25.244 C 19.531 -23.73 20.715 -22.531 22.245 -22.531 Z"/>
  <path d="M 22.245 -42.55 L 93.197 -42.55 C 94.711 -42.55 95.944 -43.749 95.944 -45.264 C 95.944 -46.778 94.711 -47.977 93.197 -47.977 L 22.245 -47.977 C 20.715 -47.977 19.531 -46.778 19.531 -45.264 C 19.531 -43.749 20.715 -42.55 22.245 -42.55 Z"/>
  <path d="M 23.976 -59.472 L 91.499 -59.472 C 94.443 -59.472 95.944 -60.938 95.944 -63.882 L 95.944 -66.718 C 95.944 -69.594 94.443 -71.095 91.499 -71.095 L 23.976 -71.095 C 21.032 -71.095 19.531 -69.594 19.531 -66.718 L 19.531 -63.882 C 19.531 -60.938 21.032 -59.472 23.976 -59.472 Z"/>
  <path d="M -0.98 -55.009 L 12.621 -63.291 C 14.237 -64.296 14.188 -66.221 12.621 -67.178 L -0.996 -75.524 C -2.649 -76.518 -4.21 -75.686 -4.21 -73.776 L -4.21 -56.723 C -4.21 -54.78 -2.634 -54.015 -0.98 -55.009 Z"/>
 </g>
</svg>
