<svg xmlns="http://www.w3.org/2000/svg" viewBox="7.722 -78.157 67.887 85.868" aria-hidden="true" data-sf-symbol="text.page">
 <g fill="black">
  <path d="M 9.766 -5.968 C 9.766 1.776 13.622 5.666 21.265 5.666 L 62.031 5.666 C 69.689 5.666 73.564 1.776 73.564 -5.968 L 73.564 -64.479 C 73.564 -72.19 69.689 -76.113 62.031 -76.113 L 21.265 -76.113 C 13.622 -76.113 9.766 -72.19 9.766 -64.479 Z M 15.192 -6.065 L 15.192 -64.382 C 15.192 -68.457 17.354 -70.687 21.564 -70.687 L 61.765 -70.687 C 65.941 -70.687 68.118 -68.457 68.118 -64.382 L 68.118 -6.065 C 68.118 -1.99 65.941 0.239 61.765 0.239 L 21.564 0.239 C 17.354 0.239 15.192 -1.99 15.192 -6.065 Z"/>
  <path d="M 26.914 -54.827 L 56.449 -54.827 C 57.675 -54.827 58.571 -55.772 58.571 -56.983 C 58.571 -58.145 57.675 -59.056 56.449 -59.056 L 26.914 -59.056 C 25.669 -59.056 24.758 -58.145 24.758 -56.983 C 24.758 -55.772 25.669 -54.827 26.914 -54.827 Z"/>
  <path d="M 26.914 -41.421 L 56.449 -41.421 C 57.675 -41.421 58.571 -42.4 58.571 -43.596 C 58.571 -44.739 57.675 -45.684 56.449 -45.684 L 26.914 -45.684 C 25.669 -45.684 24.758 -44.739 24.758 -43.596 C 24.758 -42.4 25.669 -41.421 26.914 -41.421 Z"/>
  <path d="M 26.914 -28.049 L 41.028 -28.049 C 42.254 -28.049 43.165 -28.96 43.165 -30.123 C 43.165 -31.334 42.254 -32.278 41.028 -32.278 L 26.914 -32.278 C 25.669 -32.278 24.758 -31.334 24.758 -30.123 C 24.758 -28.96 25.669 -28.049 26.914 -28.049 Z"/>
 </g>
</svg>
