<svg xmlns="http://www.w3.org/2000/svg" viewBox="-6.714 -70.501 105.162 78.443" aria-hidden="true" data-sf-symbol="text.line.last.and.arrowtriangle.forward">
 <g fill="black">
  <path d="M 22.245 -67.997 C 20.715 -67.997 19.531 -66.797 19.531 -65.283 C 19.531 -63.769 20.715 -62.57 22.245 -62.57 L 93.197 -62.57 C 94.711 -62.57 95.944 -63.769 95.944 -65.283 C 95.944 -66.797 94.711 -67.997 93.197 -67.997 Z"/>
  <path d="M 22.245 -47.977 C 20.715 -47.977 19.531 -46.778 19.531 -45.264 C 19.531 -43.749 20.715 -42.55 22.245 -42.55 L 93.197 -42.55 C 94.711 -42.55 95.944 -43.749 95.944 -45.264 C 95.944 -46.778 94.711 -47.977 93.197 -47.977 Z"/>
  <path d="M 22.245 -27.958 C 20.715 -27.958 19.531 -26.758 19.531 -25.244 C 19.531 -23.73 20.715 -22.531 22.245 -22.531 L 93.197 -22.531 C 94.711 -22.531 95.944 -23.73 95.944 -25.244 C 95.944 -26.758 94.711 -27.958 93.197 -27.958 Z"/>
  <path d="M 23.976 -11.036 C 21.032 -11.036 19.531 -9.569 19.531 -6.625 L 19.531 -3.79 C 19.531 -0.914 21.032 0.587 23.976 0.587 L 91.499 0.587 C 94.443 0.587 95.944 -0.914 95.944 -3.79 L 95.944 -6.625 C 95.944 -9.569 94.443 -11.036 91.499 -11.036 Z"/>
  <path d="M -0.98 -15.499 C -2.634 -16.493 -4.21 -15.728 -4.21 -13.785 L -4.21 3.268 C -4.21 5.178 -2.649 6.01 -0.996 5.016 L 12.621 -3.33 C 14.188 -4.287 14.237 -6.211 12.621 -7.217 Z"/>
 </g>
</svg>
