<svg xmlns="http://www.w3.org/2000/svg" viewBox="7.866 -72.02 79.802 73.66" aria-hidden="true" data-sf-symbol="text.pad.header">
 <g fill="black">
  <path d="M 21.399 -0.26 L 74.134 -0.26 C 81.894 -0.26 85.768 -4.18 85.768 -11.793 L 85.768 -58.587 C 85.768 -66.2 81.894 -70.12 74.134 -70.12 L 21.399 -70.12 C 13.689 -70.12 9.766 -66.23 9.766 -58.587 L 9.766 -11.793 C 9.766 -4.15 13.689 -0.26 21.399 -0.26 Z M 20.958 -5.721 C 17.219 -5.721 15.192 -7.68 15.192 -11.52 L 15.192 -47.028 C 15.192 -50.868 17.219 -52.842 20.958 -52.842 L 74.542 -52.842 C 78.22 -52.842 80.356 -50.868 80.356 -47.028 L 80.356 -11.52 C 80.356 -7.68 78.22 -5.721 74.542 -5.721 Z"/>
  <path d="M 27.301 -38.816 L 68.266 -38.816 C 69.477 -38.816 70.388 -39.761 70.388 -40.972 C 70.388 -42.134 69.477 -43.045 68.266 -43.045 L 27.301 -43.045 C 26.057 -43.045 25.145 -42.134 25.145 -40.972 C 25.145 -39.761 26.057 -38.816 27.301 -38.816 Z"/>
  <path d="M 27.301 -27.167 L 68.266 -27.167 C 69.477 -27.167 70.388 -28.078 70.388 -29.24 C 70.388 -30.451 69.477 -31.381 68.266 -31.381 L 27.301 -31.381 C 26.057 -31.381 25.145 -30.451 25.145 -29.24 C 25.145 -28.078 26.057 -27.167 27.301 -27.167 Z"/>
  <path d="M 27.301 -15.518 L 53.618 -15.518 C 54.829 -15.518 55.74 -16.414 55.74 -17.591 C 55.74 -18.787 54.829 -19.732 53.618 -19.732 L 27.301 -19.732 C 26.057 -19.732 25.145 -18.787 25.145 -17.591 C 25.145 -16.414 26.057 -15.518 27.301 -15.518 Z"/>
 </g>
</svg>
