<svg xmlns="http://www.w3.org/2000/svg" viewBox="7.142 -72.887 87.62 75.266" aria-hidden="true" data-sf-symbol="arrowshape.turn.up.right.fill">
 <g fill="black">
  <path d="M61.7676-51.709L48.877-51.709C20.4102-51.709 9.22852-33.0566 9.22852-5.37109C9.22852-1.70898 11.3281 0.292969 13.5254 0.292969C15.2344 0.292969 17.2363-0.0488281 18.7012-2.68555C25.6836-15.2832 34.7656-18.7988 48.877-18.7988L61.7676-18.7988C70.8984-18.7988 78.2715-26.1719 78.2715-35.3027C78.2715-44.3848 70.8984-51.709 61.7676-51.709ZM49.8535-4.54102C49.8535-1.75781 51.9531 0.292969 54.7852 0.292969C56.8359 0.292969 58.4961-0.537109 60.5469-2.44141L90.8203-31.1035C92.1875-32.373 92.6758-33.9355 92.6758-35.2539C92.6758-36.6211 92.1875-38.1348 90.8203-39.4531L60.5469-67.7734C58.252-69.9219 56.9336-70.8008 54.8828-70.8008C51.9531-70.8008 49.8535-68.457 49.8535-65.6738Z"/>
 </g>
</svg>
