<svg xmlns="http://www.w3.org/2000/svg" viewBox="7.753 -77.404 62.62 84.543" aria-hidden="true" data-sf-symbol="arrow.up.to.line">
 <g fill="black">
  <path d="M68.3594-71.4844C68.3594-73.7793 66.7969-75.3906 64.5508-75.3906L13.6719-75.3906C11.377-75.3906 9.76562-73.7793 9.76562-71.4844C9.76562-69.1895 11.377-67.5293 13.6719-67.5293L64.5508-67.5293C66.7969-67.5293 68.3594-69.1895 68.3594-71.4844ZM13.5742-34.2773C14.5996-34.2773 15.625-34.668 16.3086-35.3516L23.291-42.1387L39.0625-59.5703L54.834-42.1387L61.8164-35.3516C62.5-34.668 63.5254-34.2773 64.5508-34.2773C66.748-34.2773 68.3594-35.9375 68.3594-38.1348C68.3594-39.1602 67.9688-40.0879 67.1387-40.9668L41.9922-66.1621C41.1621-67.0898 40.1367-67.5293 39.0625-67.5293C37.9883-67.5293 36.9629-67.0898 36.1328-66.1621L10.9863-40.9668C10.1562-40.0879 9.76562-39.1602 9.76562-38.1348C9.76562-35.9375 11.377-34.2773 13.5742-34.2773ZM42.4805-60.2051C42.3828-62.1094 40.918-63.623 39.0625-63.623C37.207-63.623 35.7422-62.1094 35.6445-60.2051L35.1074-47.4609L35.1074 1.26953C35.1074 3.56445 36.7676 5.12695 39.0625 5.12695C41.3574 5.12695 43.0176 3.56445 43.0176 1.26953L43.0176-47.4609Z"/>
 </g>
</svg>
