<svg xmlns="http://www.w3.org/2000/svg" viewBox="7.678 -79.041 75.269 87.671" aria-hidden="true" data-sf-symbol="arrowshape.up">
 <g fill="black">
  <path d="M45.3125-76.9531C43.9941-76.9531 42.4316-76.416 41.1621-75.0488L12.5-44.8242C10.5957-42.7246 9.76562-41.0645 9.76562-39.0137C9.76562-36.2305 11.8164-34.082 14.5996-34.082L28.8574-34.082L28.8574-3.61328C28.8574 2.7832 32.5195 6.54297 38.7695 6.54297L51.8555 6.54297C58.1055 6.54297 61.7676 2.7832 61.7676-3.61328L61.7676-34.082L75.7324-34.082C78.5156-34.082 80.8594-36.2305 80.8594-39.1113C80.8594-41.1621 79.9805-42.5293 77.832-44.8242L49.5117-75.0488C48.1934-76.416 46.6797-76.9531 45.3125-76.9531ZM45.3125-69.043C45.459-69.043 45.5566-68.9941 45.7031-68.8477L71.4844-42.1875C71.6309-42.041 71.7285-41.8457 71.7285-41.6504C71.7285-41.3574 71.5332-41.1133 71.2402-41.1133L56.543-41.1133C55.6641-41.1133 55.2246-40.7227 55.2246-39.7949L55.2246-3.71094C55.2246-1.36719 53.8574-0.0488281 51.5137-0.0488281L39.1113-0.0488281C36.7676-0.0488281 35.4492-1.36719 35.4492-3.71094L35.4492-39.7949C35.4492-40.7227 35.0098-41.1133 34.082-41.1133L19.7754-41.1133C19.4824-41.1133 19.2871-41.3086 19.2871-41.6504C19.2871-41.8457 19.3848-42.041 19.5312-42.1875L44.9219-68.8477C45.0684-68.9941 45.166-69.043 45.3125-69.043Z"/>
 </g>
</svg>
