<svg xmlns="http://www.w3.org/2000/svg" viewBox="7.678 -79.041 75.269 87.671" aria-hidden="true" data-sf-symbol="arrowshape.down">
 <g fill="black">
  <path d="M45.3125 6.54297C46.6797 6.54297 48.1934 6.00586 49.5117 4.63867L77.832-25.5859C79.9805-27.9297 80.8594-29.248 80.8594-31.2988C80.8594-34.1797 78.5156-36.3281 75.7324-36.3281L61.7676-36.3281L61.7676-66.7969C61.7676-73.1934 58.1055-76.9531 51.8555-76.9531L38.7695-76.9531C32.5195-76.9531 28.8574-73.1934 28.8574-66.7969L28.8574-36.3281L14.5996-36.3281C11.8164-36.3281 9.76562-34.1797 9.76562-31.3965C9.76562-29.3457 10.5957-27.6855 12.5-25.5859L41.1621 4.63867C42.4316 6.00586 43.9941 6.54297 45.3125 6.54297ZM45.3125-1.36719C45.166-1.36719 45.0684-1.41602 44.9219-1.5625L19.5312-28.2227C19.3848-28.3691 19.2871-28.5645 19.2871-28.7598C19.2871-29.1016 19.4824-29.2969 19.7754-29.2969L34.082-29.2969C35.0098-29.2969 35.4492-29.6875 35.4492-30.6152L35.4492-66.748C35.4492-69.043 36.7676-70.3613 39.1113-70.3613L51.5137-70.3613C53.8574-70.3613 55.2246-69.043 55.2246-66.748L55.2246-30.6152C55.2246-29.6875 55.6641-29.2969 56.543-29.2969L71.2402-29.2969C71.5332-29.2969 71.7285-29.1016 71.7285-28.7598C71.7285-28.5645 71.6309-28.3691 71.4844-28.2227L45.7031-1.5625C45.5566-1.41602 45.459-1.36719 45.3125-1.36719Z"/>
 </g>
</svg>
