<svg xmlns="http://www.w3.org/2000/svg" viewBox="7.93 -73.76 76.963 77.109" aria-hidden="true" data-sf-symbol="arrow.down.left.and.arrow.up.right">
 <g fill="black">
  <path d="M75-45.8496L75-44.5801C75-42.2363 76.709-40.5273 79.0039-40.5273C81.3477-40.5273 83.0566-42.2852 83.0566-44.5801L83.0566-64.8438C83.0566-69.3359 80.4688-71.9238 75.9766-71.9238L55.7129-71.9238C53.3691-71.9238 51.5625-70.2148 51.5625-67.8711C51.5625-65.5273 53.3691-63.8672 55.7129-63.8672L56.9824-63.8672L76.2695-65.1367ZM73.7793-67.6758L60.791-55.5664L49.4141-44.1895C48.6328-43.4082 48.1934-42.334 48.1934-41.1621C48.1934-38.6719 50.0488-37.0605 52.5391-37.0605C53.6133-37.0605 54.6387-37.4023 55.3711-38.2324L66.748-49.6582L78.8574-62.5977C82.3242-66.3574 77.6367-71.2402 73.7793-67.6758ZM17.8223-24.5605L17.8223-25.8301C17.8223-28.1738 16.1621-29.8828 13.8184-29.8828C11.4746-29.8828 9.76562-28.125 9.76562-25.8301L9.76562-5.56641C9.76562-1.07422 12.3535 1.51367 16.8457 1.51367L37.1094 1.51367C39.4531 1.51367 41.2598-0.195312 41.2598-2.53906C41.2598-4.88281 39.4531-6.54297 37.1094-6.54297L35.8887-6.54297L16.5527-5.32227ZM19.043-2.73438L32.0312-14.8438L43.4082-26.2207C44.2383-27.002 44.6289-28.0762 44.6289-29.248C44.6289-31.7383 42.7734-33.3984 40.2832-33.3984C39.209-33.3984 38.2324-33.0078 37.4512-32.2266L26.123-20.752L14.0137-7.8125C10.498-4.05273 15.2344 0.830078 19.043-2.73438Z"/>
 </g>
</svg>
