<svg xmlns="http://www.w3.org/2000/svg" viewBox="7.949 -73.252 76.289 76.094" aria-hidden="true" data-sf-symbol="arrow.uturn.left">
 <g fill="black">
  <path d="M9.76562-45.5078C9.76562-44.4336 10.2051-43.4082 11.084-42.5781L33.3496-20.8008C34.1309-20.0684 35.2539-19.5801 36.2305-19.5801C38.5742-19.5801 40.0879-21.1914 40.0879-23.4863C40.0879-24.6094 39.7461-25.4883 39.0137-26.1719L28.6621-36.2305L17.4805-45.5078L28.6621-54.834L39.0137-64.8438C39.7461-65.5762 40.0879-66.4062 40.0879-67.5293C40.0879-69.8242 38.5742-71.4355 36.2305-71.4355C35.2539-71.4355 34.1309-70.9473 33.3496-70.2148L11.084-48.4375C10.2051-47.6074 9.76562-46.582 9.76562-45.5078ZM43.0664-2.92969C43.0664-0.78125 44.6289 1.02539 47.0703 1.02539L54.834 1.02539C72.7051 1.02539 82.4219-9.0332 82.4219-24.0234C82.4219-39.0625 72.4121-49.4629 54.1016-49.4629L30.7617-49.4629L17.3828-48.7793C15.5762-48.6816 14.1113-47.3145 14.1113-45.5078C14.1113-43.7012 15.5762-42.334 17.3828-42.2363L30.7617-41.5527L54.834-41.5527C67.9688-41.5527 74.5605-34.5215 74.5605-24.5117C74.5605-14.502 67.9688-6.88477 54.834-6.88477L47.0703-6.88477C44.6289-6.88477 43.0664-5.07812 43.0664-2.92969Z"/>
 </g>
</svg>
