<svg xmlns="http://www.w3.org/2000/svg" viewBox="7.949 -73.252 76.289 76.094" aria-hidden="true" data-sf-symbol="arrow.uturn.right">
 <g fill="black">
  <path d="M82.4219-45.5078C82.4219-46.582 82.0312-47.6074 81.1523-48.4375L58.8379-70.2148C58.1055-70.9473 56.9336-71.4355 56.0059-71.4355C53.6621-71.4355 52.0996-69.8242 52.0996-67.5293C52.0996-66.4062 52.4902-65.5762 53.1738-64.8438L63.5254-54.834L74.7559-45.5078L63.5254-36.2305L53.1738-26.1719C52.4902-25.4883 52.0996-24.6094 52.0996-23.4863C52.0996-21.1914 53.6621-19.5801 56.0059-19.5801C56.9336-19.5801 58.1055-20.0684 58.8379-20.8008L81.1523-42.5781C82.0312-43.4082 82.4219-44.4336 82.4219-45.5078ZM49.1699-2.92969C49.1699-5.07812 47.5586-6.88477 45.1172-6.88477L37.3535-6.88477C24.2188-6.88477 17.627-14.502 17.627-24.5117C17.627-34.5215 24.2188-41.5527 37.3535-41.5527L61.4746-41.5527L74.8047-42.2363C76.6602-42.334 78.0762-43.7012 78.0762-45.5078C78.0762-47.3145 76.6602-48.6816 74.8047-48.7793L61.4746-49.4629L38.1348-49.4629C19.8242-49.4629 9.76562-39.0625 9.76562-24.0234C9.76562-9.0332 19.4824 1.02539 37.3535 1.02539L45.1172 1.02539C47.5586 1.02539 49.1699-0.78125 49.1699-2.92969Z"/>
 </g>
</svg>
