<svg xmlns="http://www.w3.org/2000/svg" viewBox="3.333 -72.888 87.671 75.269" aria-hidden="true" data-sf-symbol="arrowshape.left">
 <g fill="black">
  <path d="M5.41992-35.2539C5.41992-33.9355 5.95703-32.373 7.27539-31.1035L37.5488-2.44141C39.6484-0.537109 41.3086 0.292969 43.3594 0.292969C46.1426 0.292969 48.291-1.75781 48.291-4.54102L48.291-18.7988L78.7598-18.7988C85.1562-18.7988 88.916-22.4609 88.916-28.7109L88.916-41.7969C88.916-48.0469 85.1562-51.709 78.7598-51.709L48.291-51.709L48.291-65.6738C48.291-68.457 46.1426-70.8008 43.2617-70.8008C41.2109-70.8008 39.8438-69.9219 37.5488-67.7734L7.27539-39.4531C5.95703-38.1348 5.41992-36.6211 5.41992-35.2539ZM13.2812-35.2539C13.2812-35.4004 13.3789-35.498 13.5254-35.6445L40.1855-61.4258C40.332-61.5723 40.5273-61.6699 40.7227-61.6699C41.0156-61.6699 41.2109-61.4746 41.2109-61.1816L41.2109-46.4844C41.2109-45.6055 41.6504-45.166 42.5781-45.166L78.6621-45.166C80.957-45.166 82.3242-43.7988 82.3242-41.4551L82.3242-29.0527C82.3242-26.709 80.957-25.3906 78.6621-25.3906L42.5781-25.3906C41.6504-25.3906 41.2109-24.9512 41.2109-24.0234L41.2109-9.7168C41.2109-9.42383 41.0156-9.22852 40.7227-9.22852C40.5273-9.22852 40.332-9.32617 40.1855-9.47266L13.5254-34.8633C13.3789-35.0098 13.2812-35.1074 13.2812-35.2539Z"/>
 </g>
</svg>
