<svg xmlns="http://www.w3.org/2000/svg" viewBox="8.202 -67.335 65.676 64.26" aria-hidden="true" data-sf-symbol="arrowtriangle.right">
 <g fill="black">
  <path d="M14.7949-4.63867C16.5039-4.63867 17.8711-5.37109 19.5801-6.25L67.5781-29.5898C71.2402-31.3965 72.3145-33.0078 72.3145-35.2051C72.3145-37.4023 71.2402-39.0137 67.5781-40.8203L19.5801-64.1602C17.8223-65.0391 16.4551-65.7715 14.7461-65.7715C11.6699-65.7715 9.76562-63.3789 9.76562-59.7656L9.81445-10.6445C9.81445-7.03125 11.7188-4.63867 14.7949-4.63867ZM17.0898-13.0371C16.8945-13.0371 16.7969-13.1348 16.7969-13.3301L16.7969-57.0801C16.7969-57.2754 16.8945-57.373 17.0898-57.373C17.1875-57.373 17.2852-57.3242 17.4316-57.2754L62.6465-35.4492C62.793-35.4004 62.8418-35.3516 62.8418-35.2051C62.8418-35.0586 62.793-35.0098 62.6465-34.9609L17.4316-13.1348C17.2852-13.0859 17.1875-13.0371 17.0898-13.0371Z"/>
 </g>
</svg>
