<svg xmlns="http://www.w3.org/2000/svg" viewBox="3.333 -72.888 87.671 75.269" aria-hidden="true" data-sf-symbol="arrowshape.turn.up.left.fill">
 <g fill="black">
  <path d="M36.3281-51.709C27.1973-51.709 19.873-44.3848 19.873-35.3027C19.873-26.1719 27.1973-18.7988 36.3281-18.7988L49.2676-18.7988C63.3301-18.7988 72.4121-15.2832 79.4434-2.68555C80.9082-0.0488281 82.8613 0.292969 84.6191 0.292969C86.8164 0.292969 88.916-1.70898 88.916-5.37109C88.916-33.0566 77.6855-51.709 49.2676-51.709ZM48.291-4.54102L48.291-65.6738C48.291-68.457 46.1426-70.8008 43.2617-70.8008C41.2109-70.8008 39.8438-69.9219 37.5488-67.7734L7.27539-39.4531C5.95703-38.1348 5.41992-36.6211 5.41992-35.2539C5.41992-33.9355 5.95703-32.373 7.27539-31.1035L37.5488-2.44141C39.6484-0.537109 41.3086 0.292969 43.3594 0.292969C46.1426 0.292969 48.291-1.75781 48.291-4.54102Z"/>
 </g>
</svg>
