<svg xmlns="http://www.w3.org/2000/svg" viewBox="7.93 -73.76 76.963 77.109" aria-hidden="true" data-sf-symbol="arrow.up.right.and.arrow.down.left">
 <g fill="black">
  <path d="M56.25-63.0859L56.25-64.3555C56.25-66.6992 54.5898-68.4082 52.2949-68.4082C49.9512-68.4082 48.1934-66.6504 48.1934-64.3555L48.1934-44.1406C48.1934-39.5996 50.7812-37.0605 55.2734-37.0605L75.5371-37.0605C77.9297-37.0605 79.6875-38.7207 79.6875-41.0645C79.6875-43.4082 77.8809-45.0684 75.5371-45.0684L74.3164-45.0684L54.9805-43.8477ZM57.5195-41.2598L70.5078-53.3691L81.8359-64.7461C82.666-65.5273 83.0566-66.6016 83.0566-67.7734C83.0566-70.2637 81.2012-71.9238 78.7109-71.9238C77.6367-71.9238 76.6602-71.5332 75.9277-70.752L64.5508-59.2773L52.4414-46.3379C48.9746-42.5781 53.6621-37.6953 57.5195-41.2598ZM36.5723-7.32422L36.5723-6.05469C36.5723-3.71094 38.2812-2.00195 40.5762-2.00195C42.9199-2.00195 44.6289-3.75977 44.6289-6.05469L44.6289-26.3184C44.6289-30.8105 42.041-33.3984 37.5488-33.3984L17.2852-33.3984C14.9414-33.3984 13.1348-31.6895 13.1348-29.3457C13.1348-27.002 14.9414-25.3418 17.2852-25.3418L18.5547-25.3418L37.8418-26.5625ZM35.3516-29.1504L22.3633-17.041L10.9863-5.66406C10.2051-4.88281 9.76562-3.80859 9.76562-2.63672C9.76562-0.146484 11.6211 1.51367 14.1113 1.51367C15.1855 1.51367 16.1621 1.12305 16.9434 0.341797L28.2715-11.1328L40.4297-24.0723C43.8965-27.832 39.209-32.7148 35.3516-29.1504Z"/>
 </g>
</svg>
