<svg xmlns="http://www.w3.org/2000/svg" viewBox="7.753 -77.404 62.62 84.543" aria-hidden="true" data-sf-symbol="arrow.down.to.line">
 <g fill="black">
  <path d="M68.3594 1.2207C68.3594-1.07422 66.7969-2.73438 64.5508-2.73438L13.6719-2.73438C11.377-2.73438 9.76562-1.07422 9.76562 1.2207C9.76562 3.51562 11.377 5.12695 13.6719 5.12695L64.5508 5.12695C66.7969 5.12695 68.3594 3.51562 68.3594 1.2207ZM13.5742-35.9863C11.377-35.9863 9.76562-34.3262 9.76562-32.1777C9.76562-31.1035 10.1562-30.1758 10.9863-29.2969L36.1328-4.10156C36.9629-3.17383 37.9883-2.73438 39.0625-2.73438C40.1367-2.73438 41.1621-3.17383 41.9922-4.10156L67.1387-29.2969C67.9688-30.1758 68.3594-31.1035 68.3594-32.1777C68.3594-34.3262 66.748-35.9863 64.5508-35.9863C63.5254-35.9863 62.5-35.6445 61.8164-34.9121L54.834-28.125L39.0625-10.6934L23.291-28.125L16.3086-34.9121C15.625-35.6445 14.5996-35.9863 13.5742-35.9863ZM42.4805-10.0586L43.0176-22.8516L43.0176-71.5332C43.0176-73.8281 41.3574-75.3906 39.0625-75.3906C36.7676-75.3906 35.1074-73.8281 35.1074-71.5332L35.1074-22.8516L35.6445-10.0586C35.7422-8.20312 37.207-6.64062 39.0625-6.64062C40.918-6.64062 42.3828-8.20312 42.4805-10.0586Z"/>
 </g>
</svg>
