<svg xmlns="http://www.w3.org/2000/svg" viewBox="7.142 -72.887 87.62 75.266" aria-hidden="true" data-sf-symbol="arrowshape.right">
 <g fill="black">
  <path d="M92.6758-35.2539C92.6758-36.6211 92.1875-38.1348 90.8203-39.4531L60.5469-67.7734C58.252-69.9219 56.9336-70.8008 54.8828-70.8008C51.9531-70.8008 49.8535-68.457 49.8535-65.6738L49.8535-51.709L19.3359-51.709C12.9395-51.709 9.22852-48.0469 9.22852-41.7969L9.22852-28.7109C9.22852-22.4609 12.9395-18.7988 19.3359-18.7988L49.8535-18.7988L49.8535-4.54102C49.8535-1.75781 51.9531 0.292969 54.7852 0.292969C56.8359 0.292969 58.4961-0.537109 60.5469-2.44141L90.8203-31.1035C92.1875-32.373 92.6758-33.9355 92.6758-35.2539ZM84.8145-35.2539C84.8145-35.1074 84.7656-35.0098 84.6191-34.8633L57.959-9.47266C57.7637-9.32617 57.5684-9.22852 57.373-9.22852C57.0801-9.22852 56.8848-9.42383 56.8848-9.7168L56.8848-24.0234C56.8848-24.9512 56.4453-25.3906 55.5176-25.3906L19.4336-25.3906C17.1387-25.3906 15.8203-26.709 15.8203-29.0527L15.8203-41.4551C15.8203-43.7988 17.1387-45.166 19.4336-45.166L55.5176-45.166C56.4453-45.166 56.8848-45.6055 56.8848-46.4844L56.8848-61.1816C56.8848-61.4746 57.0801-61.6699 57.373-61.6699C57.6172-61.6699 57.8125-61.5723 57.959-61.4258L84.6191-35.6445C84.7656-35.498 84.8145-35.4004 84.8145-35.2539Z"/>
 </g>
</svg>
