<svg xmlns="http://www.w3.org/2000/svg" viewBox="7.456 -88.296 97.001 95.928" aria-hidden="true" data-sf-symbol="display.and.arrow.down">
 <g fill="black">
  <path d="M19.5312-8.54492L92.3828-8.54492C98.4863-8.54492 102.148-12.207 102.148-18.3105L102.148-63.2324C102.148-69.3359 98.4863-72.998 92.3828-72.998L19.5312-72.998C13.4277-72.998 9.76562-69.3359 9.76562-63.2324L9.76562-18.3105C9.76562-12.207 13.4277-8.54492 19.5312-8.54492ZM19.6289-15.625C17.8711-15.625 16.7969-16.6992 16.7969-18.4082L16.7969-63.1348C16.7969-64.8926 17.8711-65.9668 19.6289-65.9668L92.2852-65.9668C94.043-65.9668 95.1172-64.8926 95.1172-63.1348L95.1172-18.4082C95.1172-16.6992 94.043-15.625 92.2852-15.625ZM43.6523 0.244141L68.3105 0.244141L68.3105-9.0332L43.6523-9.0332ZM43.6035 5.32227L68.3594 5.32227C70.2637 5.32227 71.875 3.75977 71.875 1.80664C71.875-0.146484 70.2637-1.75781 68.3594-1.75781L43.6035-1.75781C41.6504-1.75781 40.0391-0.146484 40.0391 1.80664C40.0391 3.75977 41.6504 5.32227 43.6035 5.32227Z"/>
  <path d="M44.8242-74.8535L44.8242-45.2148C44.8242-39.0625 49.8047-34.082 55.957-34.082C62.1094-34.082 67.0898-39.0625 67.0898-45.2148L67.0898-74.8535C67.0898-81.0059 62.1094-85.9863 55.957-85.9863C49.8047-85.9863 44.8242-81.0059 44.8242-74.8535Z"/>
  <path d="M43.0176-52.5879C41.1621-52.5879 39.8438-51.3184 39.8438-49.5117C39.8438-48.584 40.2344-47.9004 40.918-47.2168L53.418-35.2539C54.2969-34.375 55.0781-34.082 55.957-34.082C56.8359-34.082 57.6172-34.375 58.4961-35.2539L71.0449-47.2168C71.6797-47.9004 72.0703-48.584 72.0703-49.5117C72.0703-51.3184 70.7031-52.5879 68.8477-52.5879C68.0176-52.5879 67.1387-52.2461 66.5039-51.5625L61.1328-45.7031L55.957-40.1367L50.7812-45.7031L45.4102-51.5625C44.7754-52.2461 43.8477-52.5879 43.0176-52.5879ZM55.957-84.8633C54.1016-84.8633 52.4902-83.3008 52.4902-81.4941L52.4902-49.4141L53.0273-38.2812C53.125-36.7188 54.3457-35.4004 55.957-35.4004C57.5684-35.4004 58.7891-36.7188 58.8867-38.2812L59.4238-49.4141L59.4238-81.4941C59.4238-83.3008 57.8613-84.8633 55.957-84.8633Z"/>
 </g>
</svg>
