<svg xmlns="http://www.w3.org/2000/svg" viewBox="7.231 -73.335 106.439 92.004" aria-hidden="true" data-sf-symbol="inset.filled.rectangle.and.pointer.arrow">
 <g fill="black">
  <path d="M22.2168 0.390625L87.8906 0.390625C96.2402 0.390625 100.342-3.71094 100.342-11.9141L100.342-58.4961C100.342-66.6992 96.2402-70.8008 87.8906-70.8008L22.2168-70.8008C13.916-70.8008 9.76562-66.6992 9.76562-58.4961L9.76562-11.9141C9.76562-3.71094 13.916 0.390625 22.2168 0.390625ZM22.3145-6.68945C18.7988-6.68945 16.7969-8.59375 16.7969-12.2559L16.7969-58.1543C16.7969-61.8652 18.7988-63.7207 22.3145-63.7207L87.793-63.7207C91.3086-63.7207 93.3105-61.8652 93.3105-58.1543L93.3105-12.2559C93.3105-8.59375 91.3086-6.68945 87.793-6.68945Z"/>
  <path d="M25.4883-12.3535L84.6191-12.3535C86.5234-12.3535 87.5977-13.5254 87.5977-15.4785L87.5977-54.9316C87.5977-56.8848 86.5234-58.0566 84.6191-58.0566L25.4883-58.0566C23.6328-58.0566 22.5098-56.8848 22.5098-54.9316L22.5098-15.4785C22.5098-13.5254 23.6328-12.3535 25.4883-12.3535Z"/>
  <path d="M101.855 15.4297C106.592 13.5254 108.838 8.05664 106.836 3.32031L104.15-2.92969L104.736-2.97852C110.645-3.80859 113.379-10.8887 108.936-15.332L87.9883-36.4746C83.4473-41.0645 75.7812-38.0371 75.6348-31.4941L75.0488-1.02539C74.9023 5.32227 82.1777 8.49609 86.8164 4.98047L87.3535 4.54102L89.7461 10.4004C91.6504 15.1367 97.1191 17.3828 101.855 15.4297Z"/>
  <path d="M99.707 10.1562C101.514 9.42383 102.393 7.37305 101.611 5.56641L95.7031-8.10547L103.711-8.59375C105.273-8.69141 106.055-10.1562 104.932-11.3281L84.0332-32.4219C82.959-33.4961 81.4453-32.9102 81.3965-31.3965L80.8105-0.878906C80.7617 0.732422 82.666 1.2207 83.7402 0.195312L89.4531-5.51758L95.0195 8.30078C95.752 10.0586 97.9004 10.8887 99.707 10.1562Z"/>
 </g>
</svg>
