<svg xmlns="http://www.w3.org/2000/svg" viewBox="7.627 -79.385 89.824 88.262" aria-hidden="true" data-sf-symbol="square.arrowtriangle.4.outward">
 <g fill="black">
  <path d="M14.1602-59.1309L27.9785-72.9004C29.6875-74.6094 29.1504-77.2461 26.5137-77.2461L13.2324-77.2461C10.7422-77.2461 9.76562-76.123 9.76562-73.7793L9.76562-60.5469C9.76562-57.9102 12.3535-57.3242 14.1602-59.1309ZM90.918-59.1309C92.7246-57.3242 95.3125-57.9102 95.3125-60.5469L95.3125-73.8281C95.3125-76.123 94.3848-77.2461 91.8945-77.2461L78.6133-77.2461C75.9277-77.2461 75.3906-74.6094 77.0996-72.9004ZM14.1602-11.377C12.3535-13.1836 9.76562-12.5977 9.76562-9.96094L9.76562 3.32031C9.76562 5.61523 10.7422 6.73828 13.1836 6.73828L26.5137 6.73828C29.1504 6.73828 29.6875 4.10156 27.9785 2.39258ZM90.918-11.377L77.0996 2.39258C75.3906 4.10156 75.9277 6.73828 78.6133 6.73828L91.8945 6.73828C94.3848 6.73828 95.3125 5.61523 95.3125 3.32031L95.3125-9.96094C95.3125-12.5977 92.7246-13.1836 90.918-11.377Z"/>
  <path d="M37.8906-8.1543L67.2363-8.1543C75.5371-8.1543 79.6875-12.207 79.6875-20.4102L79.6875-50.0977C79.6875-58.3008 75.5371-62.3535 67.2363-62.3535L37.8906-62.3535C29.541-62.3535 25.4395-58.3008 25.4395-50.0977L25.4395-20.4102C25.4395-12.207 29.541-8.1543 37.8906-8.1543ZM37.9883-15.1855C34.4727-15.1855 32.4707-17.0898 32.4707-20.752L32.4707-49.7559C32.4707-53.418 34.4727-55.3223 37.9883-55.3223L67.1387-55.3223C70.6055-55.3223 72.6074-53.418 72.6074-49.7559L72.6074-20.752C72.6074-17.0898 70.6055-15.1855 67.1387-15.1855Z"/>
 </g>
</svg>
