<svg xmlns="http://www.w3.org/2000/svg" viewBox="5.815 -73.759 83.88 76.501" aria-hidden="true" data-sf-symbol="exclamationmark.triangle">
 <g fill="black">
  <path d="M 17.842 0.745 L 77.668 0.745 C 83.926 0.745 87.698 -3.628 87.698 -9.209 C 87.698 -10.97 87.191 -12.829 86.214 -14.538 L 56.29 -66.805 C 54.387 -70.115 51.11 -71.762 47.763 -71.762 C 44.4 -71.762 41.089 -70.115 39.22 -66.805 L 9.296 -14.538 C 8.286 -12.795 7.812 -10.97 7.812 -9.209 C 7.812 -3.628 11.584 0.745 17.842 0.745 Z M 17.891 -4.581 C 14.998 -4.581 13.27 -6.776 13.27 -9.224 C 13.27 -10.086 13.492 -11.094 13.97 -11.971 L 43.845 -64.241 C 44.699 -65.738 46.248 -66.388 47.763 -66.388 C 49.229 -66.388 50.744 -65.738 51.631 -64.241 L 81.507 -11.938 C 81.985 -11.061 82.207 -10.086 82.207 -9.224 C 82.207 -6.776 80.478 -4.581 77.586 -4.581 Z"/>
  <path d="M 47.748 -24.887 C 49.359 -24.887 50.319 -25.844 50.353 -27.651 L 50.867 -47.973 C 50.9 -49.713 49.521 -51.025 47.714 -51.025 C 45.839 -51.025 44.561 -49.747 44.595 -48.007 L 45.041 -27.651 C 45.075 -25.877 46.035 -24.887 47.748 -24.887 Z M 47.748 -12.745 C 49.822 -12.745 51.555 -14.389 51.555 -16.452 C 51.555 -18.545 49.856 -20.158 47.748 -20.158 C 45.654 -20.158 43.906 -18.511 43.906 -16.452 C 43.906 -14.422 45.688 -12.745 47.748 -12.745 Z"/>
 </g>
</svg>
