<svg xmlns="http://www.w3.org/2000/svg" viewBox="7.413 -84.775 64.871 99.089" aria-hidden="true" data-sf-symbol="fire.extinguisher">
 <g fill="black">
  <path d="M 32.173 -67.038 C 36.496 -67.038 39.838 -70.429 39.838 -74.751 C 39.838 -79.04 36.496 -82.416 32.173 -82.416 C 27.851 -82.416 24.46 -79.04 24.46 -74.751 C 24.46 -70.429 27.851 -67.038 32.173 -67.038 Z M 32.173 -70.897 C 30.022 -70.897 28.318 -72.615 28.318 -74.751 C 28.318 -76.869 30.022 -78.524 32.173 -78.524 C 34.291 -78.524 35.946 -76.869 35.946 -74.751 C 35.946 -72.615 34.291 -70.897 32.173 -70.897 Z M 14.657 -54.87 C 17.745 -61.793 22.457 -65.874 33.893 -65.874 L 49.404 -65.874 L 49.404 -70.964 L 33.893 -70.964 C 20.31 -70.964 13.618 -65.121 9.998 -56.95 C 9.267 -55.353 10.38 -53.374 12.311 -53.374 C 13.36 -53.374 14.241 -53.989 14.657 -54.87 Z M 43.312 -70.963 L 43.312 -65.89 C 43.312 -64.34 44.482 -63.072 46.032 -62.926 L 66.491 -60.771 C 68.427 -60.576 69.924 -61.987 69.924 -63.976 L 69.924 -72.862 C 69.924 -74.833 68.427 -76.277 66.491 -76.082 L 46.032 -73.912 C 44.482 -73.766 43.312 -72.498 43.312 -70.963 Z M 30.322 -66.46 L 30.322 -56.849 L 36.422 -56.849 L 36.422 -66.46 Z M 24.795 11.954 L 41.935 11.954 C 47.117 11.954 50.734 8.337 50.734 3.154 L 50.734 -41.02 C 50.734 -51.416 43.554 -58.75 33.355 -58.75 C 23.175 -58.75 16.011 -51.416 16.011 -41.02 L 16.011 3.154 C 16.011 8.337 19.627 11.954 24.795 11.954 Z M 25.435 6.527 C 23.112 6.527 21.422 4.818 21.422 2.529 L 21.422 -41.02 C 21.422 -48.204 26.354 -53.29 33.355 -53.29 C 40.391 -53.29 45.307 -48.204 45.307 -41.02 L 45.307 2.529 C 45.307 4.818 43.599 6.527 41.31 6.527 Z"/>
 </g>
</svg>
