<svg xmlns="http://www.w3.org/2000/svg" viewBox="0.674 -92.002 117.305 115.709" aria-hidden="true" data-sf-symbol="cloud.sun.bolt">
 <g fill="black">
  <path d="M75.293-24.1699C73.291-24.1699 71.6309-22.4609 71.6309-20.5078L71.6309-12.8906C71.6309-10.8398 73.291-9.22852 75.293-9.22852C77.3438-9.22852 78.9551-10.8398 78.9551-12.8906L78.9551-20.5078C78.9551-22.4609 77.3438-24.1699 75.293-24.1699Z"/>
  <path d="M52.5391 1.75781L43.8477 1.75781L43.6523 3.51562L47.9492-4.63867C48.3887-5.46875 48.0469-6.05469 47.2168-6.05469L38.0371-6.05469C37.0117-6.05469 36.6699-5.66406 36.3281-4.93164L31.3965 6.34766C30.957 7.22656 31.3477 7.8125 32.3242 7.8125L39.502 7.8125L39.9902 5.61523L34.082 19.8242C33.8867 20.3125 33.9844 20.7031 34.3262 20.8496C34.668 20.9961 35.0586 20.8984 35.4492 20.5078L53.0762 3.56445C53.8574 2.7832 53.6133 1.75781 52.5391 1.75781Z"/>
  <path d="M75.293-29.9805C85.9375-29.9805 94.4824-38.5742 94.4824-49.2188C94.4824-59.8633 85.9375-68.4082 75.293-68.4082C64.6484-68.4082 56.1523-59.8633 56.1523-49.2188C56.1523-38.5742 64.6484-29.9805 75.293-29.9805ZM75.293-36.377C68.1152-36.377 62.5488-41.9922 62.5488-49.2188C62.5488-56.4453 68.1152-62.0117 75.293-62.0117C82.4707-62.0117 88.0859-56.4453 88.0859-49.2188C88.0859-41.9922 82.4707-36.377 75.293-36.377ZM75.293-74.2676C77.3438-74.2676 78.9551-75.9277 78.9551-77.9297L78.9551-85.5469C78.9551-87.5488 77.3438-89.209 75.293-89.209C73.291-89.209 71.6309-87.5488 71.6309-85.5469L71.6309-77.9297C71.6309-75.9277 73.291-74.2676 75.293-74.2676ZM92.9688-66.8945C94.3359-65.4785 96.7285-65.4297 98.1934-66.8945L103.564-72.3145C104.98-73.7305 104.98-76.0742 103.564-77.4414C102.148-78.8574 99.8535-78.8574 98.4375-77.4414L92.9688-71.9727C91.6016-70.6055 91.6504-68.3105 92.9688-66.8945ZM100.293-49.2188C100.293-47.2168 102.002-45.5566 103.955-45.5566L111.572-45.5566C113.574-45.5566 115.186-47.2168 115.186-49.2188C115.186-51.2207 113.574-52.8809 111.572-52.8809L103.955-52.8809C102.002-52.8809 100.293-51.2207 100.293-49.2188ZM92.9688-31.543C91.6504-30.127 91.6016-27.832 92.9688-26.416L98.4375-20.9473C99.8535-19.5312 102.148-19.5312 103.564-20.9473C104.98-22.3633 104.98-24.707 103.564-26.123L98.1934-31.543C96.7285-33.0078 94.3359-32.959 92.9688-31.543ZM57.6172-31.543C56.25-32.959 53.8574-33.0078 52.4414-31.543L47.0703-26.123C45.6543-24.707 45.6543-22.3633 47.0703-20.9473C48.4863-19.5312 50.7812-19.5312 52.1484-20.9473L57.6172-26.416C59.0332-27.832 58.9844-30.127 57.6172-31.543ZM50.293-49.2188C50.293-51.2207 48.6328-52.8809 46.6309-52.8809L39.0137-52.8809C37.0605-52.8809 35.4004-51.2207 35.4004-49.2188C35.4004-47.2168 37.0605-45.5566 39.0137-45.5566L46.6309-45.5566C48.6328-45.5566 50.293-47.2168 50.293-49.2188ZM57.6172-66.8945C58.9844-68.3105 59.0332-70.6055 57.6172-71.9727L52.1484-77.4414C50.7812-78.8574 48.4863-78.8574 47.0703-77.4414C45.6543-76.0742 45.6543-73.7305 47.0703-72.3145L52.4414-66.8945C53.8574-65.4297 56.25-65.4785 57.6172-66.8945Z"/>
  <path d="M20.0684-11.4746L61.3281-11.4746C72.5586-11.4746 81.25-19.9707 81.25-30.957C81.25-41.8945 72.4609-50.0977 60.8398-50.293C56.3477-58.6426 48.1934-63.6719 38.916-63.6719C26.0742-63.6719 15.332-53.9062 14.0137-41.3086C7.61719-39.209 3.4668-33.5449 3.4668-26.6113C3.4668-17.6758 10.2051-11.4746 20.0684-11.4746Z"/>
  <path d="M19.873-18.5059C13.7207-18.5059 10.498-21.9238 10.498-26.416C10.498-30.127 12.5-33.5938 18.0664-35.0098C20.1172-35.5469 20.8496-36.4746 21.0449-38.6719C21.9727-49.2188 29.5898-56.6406 38.916-56.6406C45.8496-56.6406 51.416-52.8809 54.9805-45.752C55.8594-43.9453 56.9336-43.3594 59.082-43.3594C68.9941-43.3594 74.2188-37.5488 74.2188-30.7617C74.2188-23.9258 68.7012-18.5059 61.4258-18.5059Z"/>
 </g>
</svg>
