<svg xmlns="http://www.w3.org/2000/svg" viewBox="4.592 -81.833 92.231 94.233" aria-hidden="true" data-sf-symbol="cloud.hail">
 <g fill="black">
  <path d="M70.3613-7.42188L72.7051-11.4746C73.4375-12.7441 73.0469-14.3066 71.7773-15.0391C70.459-15.7715 68.9453-15.332 68.2129-14.0625L65.8691-9.91211C65.1855-8.69141 65.5273-7.17773 66.8457-6.44531C68.1152-5.71289 69.6777-6.15234 70.3613-7.42188ZM63.1348 4.44336C65.4785 4.44336 67.4316 2.44141 67.4316 0.0488281C67.4316-2.29492 65.4785-4.24805 63.1348-4.24805C60.7422-4.24805 58.7891-2.29492 58.7891 0.0488281C58.7891 2.44141 60.7422 4.44336 63.1348 4.44336Z"/>
  <path d="M46.9727-1.70898L52.6855-11.5723C53.418-12.8906 53.0273-14.4043 51.7578-15.1367C50.4395-15.8691 48.9258-15.4785 48.1934-14.1602L42.4805-4.19922C41.748-2.97852 42.1387-1.46484 43.457-0.732422C44.7266 0 46.2891-0.439453 46.9727-1.70898ZM39.7461 10.1562C42.0898 10.1562 44.043 8.1543 44.043 5.76172C44.043 3.41797 42.0898 1.46484 39.7461 1.46484C37.3535 1.46484 35.4004 3.41797 35.4004 5.76172C35.4004 8.1543 37.3535 10.1562 39.7461 10.1562Z"/>
  <path d="M30.2734-7.56836L32.6172-11.6211C33.3496-12.8906 32.959-14.4531 31.6895-15.1855C30.3711-15.918 28.8574-15.4785 28.125-14.209L25.7812-10.0586C25.0977-8.83789 25.4395-7.32422 26.7578-6.5918C28.0273-5.85938 29.5898-6.29883 30.2734-7.56836ZM23.0469 4.29688C25.3906 4.29688 27.3438 2.29492 27.3438-0.0976562C27.3438-2.44141 25.3906-4.39453 23.0469-4.39453C20.6543-4.39453 18.7012-2.44141 18.7012-0.0976562C18.7012 2.29492 20.6543 4.29688 23.0469 4.29688Z"/>
  <path d="M25.1465-21.1914L72.4609-21.1914C85.2051-21.1914 94.5801-30.8594 94.5801-42.7734C94.5801-55.1758 84.5215-64.209 71.4355-64.209C66.6504-73.584 57.6172-79.5898 46.7285-79.5898C32.1777-79.5898 20.166-68.3105 18.8965-54.1016C12.0117-52.0996 6.83594-45.9473 6.83594-37.8418C6.83594-28.6133 13.5254-21.1914 25.1465-21.1914ZM25.0488-28.2227C17.5293-28.2227 13.8672-32.2754 13.8672-37.6465C13.8672-41.7969 16.1621-45.752 22.5586-47.4609C24.9023-48.0469 25.7324-49.1699 25.9277-51.6113C26.8555-63.9648 35.8887-72.5586 46.7285-72.5586C54.7852-72.5586 61.4258-68.1641 65.5273-59.7656C66.5039-57.7148 67.7246-56.9824 70.2148-56.9824C81.5918-56.9824 87.5488-50.3906 87.5488-42.627C87.5488-34.6191 81.25-28.2227 72.9004-28.2227Z"/>
 </g>
</svg>
