<svg xmlns="http://www.w3.org/2000/svg" viewBox="0.674 -78.721 117.305 85.664" aria-hidden="true" data-sf-symbol="cloud.sun">
 <g fill="black">
  <path d="M75.293-10.791C73.3398-10.791 71.6309-9.13086 71.6309-7.17773L71.6309 0.537109C71.6309 2.49023 73.3398 4.15039 75.293 4.15039C77.2949 4.15039 78.9551 2.49023 78.9551 0.537109L78.9551-7.17773C78.9551-9.13086 77.2949-10.791 75.293-10.791Z"/>
  <path d="M75.293-16.6992C85.791-16.6992 94.4824-25.3906 94.4824-35.8887C94.4824-46.4355 85.791-55.127 75.293-55.127C64.8438-55.127 56.1523-46.4355 56.1523-35.8887C56.1523-25.3906 64.8438-16.6992 75.293-16.6992ZM75.293-23.0957C68.3105-23.0957 62.5488-28.9062 62.5488-35.8887C62.5488-42.9199 68.3105-48.6816 75.293-48.6816C82.3242-48.6816 88.0859-42.9199 88.0859-35.8887C88.0859-28.9062 82.3242-23.0957 75.293-23.0957ZM75.293-60.9863C77.2949-60.9863 78.9551-62.6465 78.9551-64.5996L78.9551-72.2656C78.9551-74.2676 77.2949-75.9277 75.293-75.9277C73.3398-75.9277 71.6309-74.2676 71.6309-72.2656L71.6309-64.5996C71.6309-62.6465 73.3398-60.9863 75.293-60.9863ZM92.9688-53.5645C94.3848-52.1973 96.7285-52.1484 98.1934-53.5645L103.613-58.9844C105.029-60.4004 105.029-62.793 103.613-64.209C102.197-65.625 99.8535-65.625 98.4863-64.209L92.9688-58.6914C91.5527-57.3242 91.6016-54.9805 92.9688-53.5645ZM100.293-35.8887C100.293-33.8867 102.002-32.2266 103.955-32.2266L111.572-32.2266C113.574-32.2266 115.186-33.8867 115.186-35.8887C115.186-37.8906 113.574-39.5508 111.572-39.5508L103.955-39.5508C102.002-39.5508 100.293-37.8906 100.293-35.8887ZM92.9688-18.1641C91.6016-16.7969 91.5527-14.4531 92.9688-13.0371L98.4863-7.56836C99.8535-6.15234 102.197-6.20117 103.613-7.61719C105.029-8.98438 105.029-11.3281 103.613-12.7441L98.1445-18.1641C96.7285-19.5312 94.3848-19.5312 92.9688-18.1641ZM57.6172-18.1641C56.2012-19.5312 53.8574-19.5312 52.4414-18.1641L47.0215-12.793C45.6055-11.377 45.6055-9.0332 46.9727-7.66602C48.3887-6.25 50.7812-6.20117 52.0996-7.61719L57.5684-13.0371C58.9844-14.4531 58.9844-16.7969 57.6172-18.1641ZM50.293-35.8887C50.293-37.8906 48.6328-39.5508 46.6309-39.5508L39.0137-39.5508C37.0605-39.5508 35.4004-37.8906 35.4004-35.8887C35.4004-33.8867 37.0605-32.2266 39.0137-32.2266L46.6309-32.2266C48.6328-32.2266 50.293-33.8867 50.293-35.8887ZM57.5684-53.5645C58.9844-54.9316 58.9844-57.373 57.6172-58.6914L52.1484-64.209C50.7812-65.5762 48.4863-65.625 47.0703-64.209C45.6543-62.793 45.6543-60.4004 47.0215-59.0332L52.4414-53.5645C53.8574-52.1484 56.2012-52.1973 57.5684-53.5645Z"/>
  <path d="M20.0684 1.80664L61.3281 1.80664C72.5586 1.80664 81.25-6.68945 81.25-17.7246C81.25-28.6133 72.4609-36.8652 60.8398-37.0117C56.3477-45.4102 48.1934-50.3906 38.916-50.3906C26.0742-50.3906 15.332-40.625 14.0137-28.0273C7.61719-25.9766 3.4668-20.3125 3.4668-13.3789C3.4668-4.44336 10.2051 1.80664 20.0684 1.80664Z"/>
  <path d="M19.873-5.22461C13.7207-5.22461 10.498-8.69141 10.498-13.1836C10.498-16.8457 12.5-20.3125 18.0664-21.7773C20.1172-22.2656 20.8496-23.2422 21.0449-25.3906C21.9727-35.9863 29.5898-43.3594 38.916-43.3594C45.8496-43.3594 51.416-39.6484 54.9805-32.5195C55.8594-30.7129 56.9336-30.0781 59.082-30.0781C68.9941-30.0781 74.2188-24.3164 74.2188-17.5293C74.2188-10.6934 68.7012-5.22461 61.4258-5.22461Z"/>
 </g>
</svg>
