<svg xmlns="http://www.w3.org/2000/svg" viewBox="4.476 -81.949 92.463 99.104" aria-hidden="true" data-sf-symbol="cloud.sleet">
 <g fill="black">
  <path d="M62.9883 9.08203C63.7207 9.08203 64.2578 8.39844 64.209 7.66602L63.916 4.15039L66.8945 6.20117C67.4316 6.5918 68.3594 6.39648 68.7012 5.81055C69.0918 5.22461 68.8965 4.24805 68.1152 3.90625L64.8926 2.39258L68.1641 0.830078C68.8965 0.488281 69.043-0.439453 68.75-1.02539C68.4082-1.66016 67.4316-1.80664 66.8945-1.41602L63.916 0.683594L64.2578-2.88086C64.3555-3.66211 63.7207-4.29688 62.9883-4.29688C62.207-4.29688 61.6699-3.66211 61.7188-2.88086L62.0117 0.683594L58.9844-1.41602C58.4473-1.80664 57.5684-1.70898 57.1777-1.02539C56.8359-0.439453 56.9824 0.439453 57.7148 0.830078L60.9863 2.39258L57.7148 3.95508C56.9824 4.29688 56.7871 5.17578 57.1289 5.81055C57.4707 6.44531 58.4473 6.5918 58.9844 6.20117L62.0117 4.15039L61.7676 7.66602C61.7188 8.39844 62.207 9.08203 62.9883 9.08203Z"/>
  <path d="M41.1621 14.7949C41.8945 14.7949 42.4316 14.1113 42.3828 13.3789L42.0898 9.86328L45.0684 11.9141C45.6055 12.3047 46.5332 12.1094 46.875 11.5234C47.2656 10.9375 47.0703 9.96094 46.2891 9.61914L43.0664 8.10547L46.3379 6.54297C47.0703 6.20117 47.2168 5.27344 46.9238 4.6875C46.582 4.05273 45.6055 3.90625 45.0684 4.29688L42.0898 6.39648L42.4316 2.83203C42.5293 2.05078 41.8945 1.41602 41.1621 1.41602C40.3809 1.41602 39.8438 2.05078 39.8926 2.83203L40.1855 6.39648L37.1582 4.29688C36.6211 3.90625 35.7422 4.00391 35.3516 4.6875C35.0098 5.27344 35.1562 6.15234 35.8887 6.54297L39.1602 8.10547L35.8887 9.66797C35.1562 10.0098 34.9609 10.8887 35.3027 11.5234C35.6445 12.1582 36.6211 12.3047 37.1582 11.9141L40.1855 9.86328L39.9414 13.3789C39.8926 14.1113 40.3809 14.7949 41.1621 14.7949Z"/>
  <path d="M22.9004 8.93555C23.6328 8.93555 24.1699 8.25195 24.1211 7.51953L23.8281 4.00391L26.8066 6.05469C27.3438 6.44531 28.2715 6.25 28.6133 5.66406C29.0039 5.07812 28.8086 4.10156 28.0273 3.75977L24.8047 2.24609L28.0762 0.683594C28.8086 0.341797 28.9551-0.585938 28.6621-1.17188C28.3203-1.80664 27.3438-1.95312 26.8066-1.5625L23.8281 0.537109L24.1699-3.02734C24.2676-3.80859 23.6328-4.44336 22.9004-4.44336C22.1191-4.44336 21.582-3.80859 21.6309-3.02734L21.9238 0.537109L18.8965-1.5625C18.3594-1.95312 17.4805-1.85547 17.0898-1.17188C16.748-0.585938 16.8945 0.292969 17.627 0.683594L20.8984 2.24609L17.627 3.80859C16.8945 4.15039 16.6992 5.0293 17.041 5.66406C17.3828 6.29883 18.3594 6.44531 18.8965 6.05469L21.9238 4.00391L21.6797 7.51953C21.6309 8.25195 22.1191 8.93555 22.9004 8.93555Z"/>
  <path d="M70.3613-7.42188L72.7051-11.4746C73.4375-12.7441 73.0469-14.3066 71.7773-15.0391C70.459-15.7715 68.9453-15.332 68.2129-14.0625L65.8691-9.91211C65.1855-8.69141 65.5273-7.17773 66.8457-6.44531C68.1152-5.71289 69.6777-6.15234 70.3613-7.42188Z"/>
  <path d="M46.9727-1.70898L52.6855-11.5723C53.418-12.8906 53.0273-14.4043 51.7578-15.1367C50.4395-15.8691 48.9258-15.4785 48.1934-14.1602L42.4805-4.19922C41.748-2.97852 42.1387-1.46484 43.457-0.732422C44.7266 0 46.2891-0.439453 46.9727-1.70898Z"/>
  <path d="M30.2734-7.56836L32.6172-11.6211C33.3496-12.8906 32.959-14.4531 31.6895-15.1855C30.3711-15.918 28.8574-15.4785 28.125-14.209L25.7812-10.0586C25.0977-8.83789 25.4395-7.32422 26.7578-6.5918C28.0273-5.85938 29.5898-6.29883 30.2734-7.56836Z"/>
  <path d="M25.1465-21.1914L72.4609-21.1914C85.2051-21.1914 94.5801-30.8594 94.5801-42.7734C94.5801-55.1758 84.5215-64.209 71.4355-64.209C66.6504-73.584 57.6172-79.5898 46.7285-79.5898C32.1777-79.5898 20.166-68.3105 18.8965-54.1016C12.0117-52.0996 6.83594-45.9473 6.83594-37.8418C6.83594-28.6133 13.5254-21.1914 25.1465-21.1914ZM25.0488-28.2227C17.5293-28.2227 13.8672-32.2754 13.8672-37.6465C13.8672-41.7969 16.1621-45.752 22.5586-47.4609C24.9023-48.0469 25.7324-49.1699 25.9277-51.6113C26.8555-63.9648 35.8887-72.5586 46.7285-72.5586C54.7852-72.5586 61.4258-68.1641 65.5273-59.7656C66.5039-57.7148 67.7246-56.9824 70.2148-56.9824C81.5918-56.9824 87.5488-50.3906 87.5488-42.627C87.5488-34.6191 81.25-28.2227 72.9004-28.2227Z"/>
 </g>
</svg>
