<svg xmlns="http://www.w3.org/2000/svg" viewBox="4.536 -81.89 92.345 96.608" aria-hidden="true" data-sf-symbol="cloud.bolt.rain">
 <g fill="black">
  <path d="M77.7344 8.30078C79.0039 8.98438 80.5664 8.54492 81.2988 7.32422L85.9863-0.878906C86.7676-2.14844 86.3281-3.66211 85.0586-4.39453C83.7402-5.17578 82.2754-4.73633 81.4941-3.4668L76.7578 4.83398C76.0254 6.00586 76.416 7.51953 77.7344 8.30078Z"/>
  <path d="M70.4102-2.39258C71.6797-1.70898 73.1934-2.14844 73.9258-3.36914L78.6621-11.5723C79.3945-12.8418 79.0039-14.3555 77.7344-15.0879C76.416-15.8691 74.9512-15.4297 74.1699-14.1602L69.3848-5.85938C68.7012-4.6875 69.043-3.17383 70.4102-2.39258Z"/>
  <path d="M61.084-7.56836L52.0508-7.56836L51.8555-5.71289L56.2988-14.3066C56.7383-15.1367 56.3965-15.7715 55.5664-15.7715L46.0449-15.7715C44.9707-15.7715 44.5801-15.3809 44.2383-14.5996L39.0625-2.7832C38.6719-1.85547 39.0137-1.26953 40.0391-1.26953L47.5098-1.26953L47.998-3.51562L41.8945 11.2793C41.6992 11.7676 41.7969 12.207 42.1387 12.3535C42.4805 12.5 42.8711 12.4023 43.3105 12.0117L61.6211-5.66406C62.5-6.49414 62.207-7.56836 61.084-7.56836Z"/>
  <path d="M24.1699 8.30078C25.4395 8.98438 27.002 8.54492 27.6855 7.32422L32.4219-0.878906C33.1543-2.14844 32.7637-3.66211 31.4941-4.39453C30.1758-5.17578 28.7109-4.73633 27.9297-3.4668L23.1445 4.83398C22.4609 6.00586 22.8516 7.51953 24.1699 8.30078Z"/>
  <path d="M16.7969-2.39258C18.0664-1.70898 19.6289-2.14844 20.3613-3.36914L25.0488-11.5723C25.8301-12.8418 25.3906-14.3555 24.1211-15.0879C22.8027-15.8691 21.3379-15.4297 20.6055-14.1602L15.8203-5.85938C15.0879-4.6875 15.4785-3.17383 16.7969-2.39258Z"/>
  <path d="M25.1465-21.1914L72.4609-21.1914C85.2051-21.1914 94.5801-30.8594 94.5801-42.7734C94.5801-55.1758 84.5215-64.209 71.4355-64.209C66.6504-73.584 57.6172-79.5898 46.7285-79.5898C32.1777-79.5898 20.166-68.3105 18.8965-54.1016C12.0117-52.0996 6.83594-45.9473 6.83594-37.8418C6.83594-28.6133 13.5254-21.1914 25.1465-21.1914ZM25.0488-28.2227C17.5293-28.2227 13.8672-32.2754 13.8672-37.6465C13.8672-41.7969 16.1621-45.752 22.5586-47.4609C24.9023-48.0469 25.7324-49.1699 25.9277-51.6113C26.8555-63.9648 35.8887-72.5586 46.7285-72.5586C54.7852-72.5586 61.4258-68.1641 65.5273-59.7656C66.5039-57.7148 67.7246-56.9824 70.2148-56.9824C81.5918-56.9824 87.5488-50.3906 87.5488-42.627C87.5488-34.6191 81.25-28.2227 72.9004-28.2227Z"/>
 </g>
</svg>
