<svg xmlns="http://www.w3.org/2000/svg" viewBox="4.541 -68.066 96.387 65.576" aria-hidden="true" data-sf-symbol="cloud">
 <g fill="black">
  <path d="M25.8789-4.78516L75.5371-4.78516C88.5254-4.78516 98.6328-14.5996 98.6328-27.2949C98.6328-40.0391 88.3789-49.707 74.2676-49.707C69.1406-59.7168 59.668-65.7715 48.5352-65.7715C33.5938-65.7715 20.8496-54.3457 19.4824-39.0137C11.8164-36.7676 6.83594-30.1758 6.83594-22.1191C6.83594-12.5 13.7695-4.78516 25.8789-4.78516ZM25.7812-11.8164C18.3594-11.8164 13.8672-15.6738 13.8672-21.875C13.8672-27.0996 17.1387-30.7617 23.0957-32.373C25.4395-32.959 26.3184-34.0332 26.5137-36.5723C27.4902-49.3652 36.8164-58.7402 48.5352-58.7402C57.2266-58.7402 64.209-53.9062 68.457-45.166C69.4336-43.1152 70.6543-42.4316 73.1934-42.4316C85.2539-42.4316 91.5527-35.4004 91.5527-27.0996C91.5527-18.5059 84.7656-11.8164 76.0742-11.8164Z"/>
 </g>
</svg>
