<svg xmlns="http://www.w3.org/2000/svg" viewBox="0.674 -92.002 117.305 113.194" aria-hidden="true" data-sf-symbol="cloud.sun.rain">
 <g fill="black">
  <path d="M75.293-24.0723C73.3398-24.0723 71.6309-22.3633 71.6309-20.4102L71.6309-12.7441C71.6309-10.791 73.3398-9.08203 75.293-9.08203C77.2949-9.08203 78.9551-10.791 78.9551-12.7441L78.9551-20.4102C78.9551-22.3633 77.2949-24.0723 75.293-24.0723Z"/>
  <path d="M62.0117 17.041L66.748 8.88672C67.5293 7.56836 67.0898 6.05469 65.8203 5.32227C64.502 4.58984 63.0371 4.98047 62.2559 6.29883L57.5195 14.5508C56.7871 15.7715 57.1777 17.2852 58.4961 18.0176C59.7656 18.75 61.3281 18.3105 62.0117 17.041Z"/>
  <path d="M50.0977 6.29883L54.834-1.9043C55.5664-3.22266 55.1758-4.6875 53.8574-5.46875C52.5391-6.20117 51.123-5.81055 50.3418-4.49219L45.5566 3.75977C44.873 4.98047 45.2148 6.49414 46.5332 7.22656C47.8516 7.95898 49.3652 7.51953 50.0977 6.29883Z"/>
  <path d="M31.5918 17.0898L36.3281 8.93555C37.0605 7.61719 36.6699 6.10352 35.4004 5.37109C34.082 4.63867 32.6172 5.0293 31.8359 6.29883L27.0996 14.5996C26.3672 15.8203 26.7578 17.2852 28.0762 18.0664C29.3457 18.75 30.9082 18.3594 31.5918 17.0898Z"/>
  <path d="M19.6777 6.34766L24.4141-1.85547C25.1465-3.17383 24.7559-4.63867 23.4375-5.41992C22.1191-6.15234 20.6543-5.76172 19.9219-4.44336L15.1367 3.80859C14.4531 5.0293 14.7949 6.54297 16.1133 7.27539C17.4316 8.00781 18.9453 7.56836 19.6777 6.34766Z"/>
  <path d="M75.293-29.9316C85.791-29.9316 94.4824-38.6719 94.4824-49.1699C94.4824-59.668 85.791-68.3594 75.293-68.3594C64.8438-68.3594 56.1523-59.668 56.1523-49.1699C56.1523-38.6719 64.8438-29.9316 75.293-29.9316ZM75.293-36.3281C68.3105-36.3281 62.5488-42.1387 62.5488-49.1699C62.5488-56.1523 68.3105-61.9141 75.293-61.9141C82.3242-61.9141 88.0859-56.1523 88.0859-49.1699C88.0859-42.1387 82.3242-36.3281 75.293-36.3281ZM75.293-74.2676C77.2949-74.2676 78.9551-75.8789 78.9551-77.8809L78.9551-85.5469C78.9551-87.5 77.2949-89.209 75.293-89.209C73.3398-89.209 71.6309-87.5 71.6309-85.5469L71.6309-77.8809C71.6309-75.8789 73.3398-74.2676 75.293-74.2676ZM92.9688-66.8457C94.3848-65.4297 96.7285-65.3809 98.1934-66.8457L103.613-72.2656C105.029-73.6816 105.029-76.0742 103.613-77.4414C102.197-78.8574 99.8535-78.8574 98.4863-77.4414L92.9688-71.9727C91.5527-70.6055 91.6016-68.2617 92.9688-66.8457ZM100.293-49.1699C100.293-47.168 102.002-45.5078 103.955-45.5078L111.572-45.5078C113.574-45.5078 115.186-47.168 115.186-49.1699C115.186-51.123 113.574-52.832 111.572-52.832L103.955-52.832C102.002-52.832 100.293-51.123 100.293-49.1699ZM92.9688-31.4453C91.6016-30.0293 91.5527-27.6855 92.9688-26.2695L98.4863-20.8008C99.8535-19.3848 102.197-19.4824 103.613-20.8496C105.029-22.2168 105.029-24.5605 103.613-25.9766L98.1445-31.4453C96.7285-32.8125 94.3848-32.8125 92.9688-31.4453ZM57.6172-31.4453C56.2012-32.8125 53.8574-32.8125 52.4414-31.4453L47.0215-26.0254C45.6055-24.6094 45.6055-22.2656 46.9727-20.8984C48.3887-19.4824 50.7812-19.4336 52.0996-20.8496L57.5684-26.2695C58.9844-27.6855 58.9844-30.0293 57.6172-31.4453ZM50.293-49.1699C50.293-51.123 48.6328-52.832 46.6309-52.832L39.0137-52.832C37.0605-52.832 35.4004-51.123 35.4004-49.1699C35.4004-47.168 37.0605-45.5078 39.0137-45.5078L46.6309-45.5078C48.6328-45.5078 50.293-47.168 50.293-49.1699ZM57.5684-66.8457C58.9844-68.2129 58.9844-70.6543 57.6172-71.9727L52.1484-77.4414C50.7812-78.8086 48.4863-78.8574 47.0703-77.4414C45.6543-76.0742 45.6543-73.6816 47.0215-72.3145L52.4414-66.8457C53.8574-65.4297 56.2012-65.4297 57.5684-66.8457Z"/>
  <path d="M20.0684-11.4746L61.3281-11.4746C72.5586-11.4746 81.25-19.9707 81.25-30.957C81.25-41.8945 72.4609-50.0977 60.8398-50.293C56.3477-58.6426 48.1934-63.6719 38.916-63.6719C26.0742-63.6719 15.332-53.9062 14.0137-41.3086C7.61719-39.209 3.4668-33.5449 3.4668-26.6113C3.4668-17.6758 10.2051-11.4746 20.0684-11.4746Z"/>
  <path d="M19.873-18.5059C13.7207-18.5059 10.498-21.9727 10.498-26.416C10.498-30.127 12.5-33.5938 18.0664-35.0098C20.1172-35.5469 20.8496-36.4746 21.0449-38.6719C21.9727-49.2188 29.5898-56.6406 38.916-56.6406C45.8496-56.6406 51.416-52.8809 54.9805-45.752C55.8594-43.9453 56.9336-43.3594 59.082-43.3594C68.9941-43.3594 74.2188-37.5488 74.2188-30.7617C74.2188-23.9258 68.7012-18.5059 61.4258-18.5059Z"/>
 </g>
</svg>
