<svg xmlns="http://www.w3.org/2000/svg" viewBox="4.627 -81.799 92.162 92.773" aria-hidden="true" data-sf-symbol="cloud.rain">
 <g fill="black">
  <path d="M65.8203 7.42188L76.9043-11.7188C77.6367-12.9883 77.2461-14.4043 76.0254-15.1855C74.8047-15.918 73.2422-15.5762 72.4609-14.2578L61.5234 4.78516C60.791 6.10352 61.1816 7.61719 62.4512 8.34961C63.6719 9.08203 65.1367 8.69141 65.8203 7.42188Z"/>
  <path d="M56.9824-3.4668L61.7188-11.6699C62.4512-12.9395 62.0605-14.4531 60.791-15.2344C59.4727-15.9668 58.0078-15.5762 57.2266-14.2578L52.4902-6.00586C51.7578-4.78516 52.1484-3.27148 53.4668-2.53906C54.7363-1.80664 56.2988-2.24609 56.9824-3.4668Z"/>
  <path d="M35.4004 7.4707L46.4844-11.6699C47.2168-12.9395 46.8262-14.4043 45.6055-15.1367C44.3848-15.8691 42.7734-15.5273 42.041-14.209L31.1035 4.83398C30.3711 6.15234 30.7617 7.66602 32.0312 8.39844C33.252 9.13086 34.7168 8.74023 35.4004 7.4707Z"/>
  <path d="M26.5625-3.41797L31.2988-11.6211C32.0312-12.9395 31.6406-14.4043 30.3711-15.1855C29.0527-15.918 27.5879-15.5273 26.8066-14.209L22.0215-5.95703C21.3379-4.73633 21.7285-3.22266 23.0469-2.49023C24.3164-1.75781 25.8789-2.19727 26.5625-3.41797Z"/>
  <path d="M25.1465-21.1914L72.4609-21.1914C85.2051-21.1914 94.5801-30.8594 94.5801-42.7734C94.5801-55.1758 84.5215-64.209 71.4355-64.209C66.6504-73.584 57.6172-79.5898 46.7285-79.5898C32.1777-79.5898 20.166-68.3105 18.8965-54.1016C12.0117-52.0996 6.83594-45.9473 6.83594-37.8418C6.83594-28.6133 13.5254-21.1914 25.1465-21.1914ZM25.0488-28.2227C17.5293-28.2227 13.8672-32.2754 13.8672-37.6465C13.8672-41.7969 16.1621-45.752 22.5586-47.4609C24.9023-48.0469 25.7324-49.1699 25.9277-51.6113C26.8555-63.9648 35.8887-72.5586 46.7285-72.5586C54.7852-72.5586 61.4258-68.1641 65.5273-59.7656C66.5039-57.7148 67.7246-56.9824 70.2148-56.9824C81.5918-56.9824 87.5488-50.3906 87.5488-42.627C87.5488-34.6191 81.25-28.2227 72.9004-28.2227Z"/>
 </g>
</svg>
