<svg xmlns="http://www.w3.org/2000/svg" viewBox="4.536 -81.89 92.345 96.608" aria-hidden="true" data-sf-symbol="cloud.bolt">
 <g fill="black">
  <path d="M61.084-7.56836L52.0508-7.56836L51.8555-5.71289L56.2988-14.3066C56.7383-15.1367 56.3965-15.7715 55.5664-15.7715L46.0449-15.7715C44.9707-15.7715 44.5801-15.3809 44.2383-14.5996L39.0625-2.7832C38.6719-1.85547 39.0137-1.26953 40.0391-1.26953L47.5098-1.26953L47.998-3.51562L41.8945 11.2793C41.6992 11.7676 41.7969 12.207 42.1387 12.3535C42.4805 12.5 42.8711 12.4023 43.3105 12.0117L61.6211-5.66406C62.5-6.49414 62.207-7.56836 61.084-7.56836Z"/>
  <path d="M25.1465-21.1914L72.4609-21.1914C85.2051-21.1914 94.5801-30.8594 94.5801-42.7734C94.5801-55.1758 84.5215-64.209 71.4355-64.209C66.6504-73.584 57.6172-79.5898 46.7285-79.5898C32.1777-79.5898 20.166-68.3105 18.8965-54.1016C12.0117-52.0996 6.83594-45.9473 6.83594-37.8418C6.83594-28.6133 13.5254-21.1914 25.1465-21.1914ZM25.0488-28.2227C17.5293-28.2227 13.8672-32.2754 13.8672-37.6465C13.8672-41.7969 16.1621-45.752 22.5586-47.4609C24.9023-48.0469 25.7324-49.1699 25.9277-51.6113C26.8555-63.9648 35.8887-72.5586 46.7285-72.5586C54.7852-72.5586 61.4258-68.1641 65.5273-59.7656C66.5039-57.7148 67.7246-56.9824 70.2148-56.9824C81.5918-56.9824 87.5488-50.3906 87.5488-42.627C87.5488-34.6191 81.25-28.2227 72.9004-28.2227Z"/>
 </g>
</svg>
