<svg xmlns="http://www.w3.org/2000/svg" viewBox="4.642 -81.783 92.131 89.788" aria-hidden="true" data-sf-symbol="cloud.fog">
 <g fill="black">
  <path d="M75.7324 0.390625L26.5137 0.390625C25 0.390625 23.8281 1.5625 23.8281 3.07617C23.8281 4.63867 25 5.81055 26.5137 5.81055L75.7324 5.81055C77.1973 5.81055 78.418 4.63867 78.418 3.07617C78.418 1.5625 77.1973 0.390625 75.7324 0.390625Z"/>
  <path d="M75.7324-12.5977L26.5137-12.5977C25-12.5977 23.8281-11.4258 23.8281-9.91211C23.8281-8.34961 25-7.17773 26.5137-7.17773L75.7324-7.17773C77.1973-7.17773 78.418-8.34961 78.418-9.91211C78.418-11.4258 77.1973-12.5977 75.7324-12.5977Z"/>
  <path d="M25.1465-21.1914L72.4609-21.1914C85.2051-21.1914 94.5801-30.8594 94.5801-42.7734C94.5801-55.1758 84.5215-64.209 71.4355-64.209C66.6504-73.584 57.6172-79.5898 46.7285-79.5898C32.1777-79.5898 20.166-68.3105 18.8965-54.1016C12.0117-52.0996 6.83594-45.9473 6.83594-37.8418C6.83594-28.6133 13.5254-21.1914 25.1465-21.1914ZM25.0488-28.2227C17.5293-28.2227 13.8672-32.2754 13.8672-37.6465C13.8672-41.7969 16.1621-45.752 22.5586-47.4609C24.9023-48.0469 25.7324-49.1699 25.9277-51.6113C26.8555-63.9648 35.8887-72.5586 46.7285-72.5586C54.7852-72.5586 61.4258-68.1641 65.5273-59.7656C66.5039-57.7148 67.7246-56.9824 70.2148-56.9824C81.5918-56.9824 87.5488-50.3906 87.5488-42.627C87.5488-34.6191 81.25-28.2227 72.9004-28.2227Z"/>
 </g>
</svg>
