<svg xmlns="http://www.w3.org/2000/svg" viewBox="4.541 -81.885 92.334 96.387" aria-hidden="true" data-sf-symbol="cloud.snow">
 <g fill="black">
  <path d="M61.084 12.207C61.8164 12.207 62.3535 11.5234 62.3047 10.791L62.0117 7.27539L64.9414 9.32617C65.5273 9.7168 66.4062 9.52148 66.7969 8.93555C67.1875 8.34961 66.9922 7.37305 66.2109 7.03125L62.9883 5.51758L66.2598 3.95508C66.9922 3.61328 67.1387 2.68555 66.8457 2.09961C66.5039 1.46484 65.5273 1.31836 64.9414 1.70898L62.0117 3.80859L62.3535 0.244141C62.4512-0.537109 61.8164-1.17188 61.084-1.17188C60.2539-1.17188 59.7168-0.537109 59.7656 0.244141L60.0586 3.80859L57.0801 1.70898C56.543 1.31836 55.6641 1.41602 55.2734 2.09961C54.9316 2.68555 55.0293 3.56445 55.8105 3.95508L59.0332 5.51758L55.8105 7.03125C55.0293 7.37305 54.8828 8.30078 55.2246 8.93555C55.5664 9.57031 56.543 9.7168 57.0801 9.32617L60.0586 7.27539L59.8145 10.791C59.7656 11.5234 60.2539 12.207 61.084 12.207Z"/>
  <path d="M39.8926 12.207C40.625 12.207 41.1621 11.5234 41.1133 10.791L40.8203 7.27539L43.75 9.32617C44.3359 9.7168 45.2148 9.52148 45.6055 8.93555C45.9961 8.34961 45.8008 7.37305 45.0195 7.03125L41.7969 5.51758L45.0684 3.95508C45.8008 3.61328 45.9473 2.68555 45.6543 2.09961C45.3125 1.46484 44.3359 1.31836 43.75 1.70898L40.8203 3.80859L41.1621 0.244141C41.2598-0.537109 40.625-1.17188 39.8926-1.17188C39.0625-1.17188 38.5254-0.537109 38.5742 0.244141L38.8672 3.80859L35.8887 1.70898C35.3516 1.31836 34.4727 1.41602 34.082 2.09961C33.7402 2.68555 33.8379 3.56445 34.6191 3.95508L37.8418 5.51758L34.6191 7.03125C33.8379 7.37305 33.6914 8.30078 34.0332 8.93555C34.375 9.57031 35.3516 9.7168 35.8887 9.32617L38.8672 7.27539L38.623 10.791C38.5742 11.5234 39.0625 12.207 39.8926 12.207Z"/>
  <path d="M18.7012 12.207C19.4336 12.207 19.9707 11.5234 19.9219 10.791L19.6289 7.27539L22.5586 9.32617C23.1445 9.7168 24.0234 9.52148 24.4141 8.93555C24.8047 8.34961 24.6094 7.37305 23.8281 7.03125L20.6055 5.51758L23.877 3.95508C24.6094 3.61328 24.7559 2.68555 24.4629 2.09961C24.1211 1.46484 23.1445 1.31836 22.5586 1.70898L19.6289 3.80859L19.9707 0.244141C20.0684-0.537109 19.4336-1.17188 18.7012-1.17188C17.8711-1.17188 17.334-0.537109 17.3828 0.244141L17.6758 3.80859L14.6973 1.70898C14.1602 1.31836 13.2812 1.41602 12.8906 2.09961C12.5488 2.68555 12.6465 3.56445 13.4277 3.95508L16.6504 5.51758L13.4277 7.03125C12.6465 7.37305 12.5 8.30078 12.8418 8.93555C13.1836 9.57031 14.1602 9.7168 14.6973 9.32617L17.6758 7.27539L17.4316 10.791C17.3828 11.5234 17.8711 12.207 18.7012 12.207Z"/>
  <path d="M69.3848-2.14844C70.1172-2.14844 70.6543-2.83203 70.6055-3.56445L70.3125-7.08008L73.2422-5.0293C73.8281-4.63867 74.707-4.83398 75.0977-5.41992C75.4883-6.00586 75.293-6.98242 74.5117-7.32422L71.2891-8.83789L74.5605-10.4004C75.293-10.7422 75.4395-11.6699 75.1465-12.2559C74.8047-12.8906 73.8281-13.0371 73.2422-12.6465L70.3125-10.5469L70.6543-14.1113C70.752-14.8926 70.1172-15.5273 69.3848-15.5273C68.5547-15.5273 68.0176-14.8926 68.0664-14.1113L68.3594-10.5469L65.3809-12.6465C64.8438-13.0371 63.9648-12.9395 63.5742-12.2559C63.2324-11.6699 63.3301-10.791 64.1113-10.4004L67.334-8.83789L64.1113-7.32422C63.3301-6.98242 63.1836-6.05469 63.5254-5.41992C63.8672-4.78516 64.8438-4.63867 65.3809-5.0293L68.3594-7.08008L68.1152-3.56445C68.0664-2.83203 68.5547-2.14844 69.3848-2.14844Z"/>
  <path d="M48.1934-2.14844C48.9258-2.14844 49.4629-2.83203 49.4141-3.56445L49.1211-7.08008L52.0508-5.0293C52.6367-4.63867 53.5156-4.83398 53.9062-5.41992C54.2969-6.00586 54.1016-6.98242 53.3203-7.32422L50.0977-8.83789L53.3691-10.4004C54.1016-10.7422 54.248-11.6699 53.9551-12.2559C53.6133-12.8906 52.6367-13.0371 52.0508-12.6465L49.1211-10.5469L49.4629-14.1113C49.5605-14.8926 48.9258-15.5273 48.1934-15.5273C47.3633-15.5273 46.8262-14.8926 46.875-14.1113L47.168-10.5469L44.1895-12.6465C43.6523-13.0371 42.7734-12.9395 42.3828-12.2559C42.041-11.6699 42.1387-10.791 42.9199-10.4004L46.1426-8.83789L42.9199-7.32422C42.1387-6.98242 41.9922-6.05469 42.334-5.41992C42.6758-4.78516 43.6523-4.63867 44.1895-5.0293L47.168-7.08008L46.9238-3.56445C46.875-2.83203 47.3633-2.14844 48.1934-2.14844Z"/>
  <path d="M27.002-2.14844C27.7344-2.14844 28.2715-2.83203 28.2227-3.56445L27.9297-7.08008L30.8594-5.0293C31.4453-4.63867 32.3242-4.83398 32.7148-5.41992C33.1055-6.00586 32.9102-6.98242 32.1289-7.32422L28.9062-8.83789L32.1777-10.4004C32.9102-10.7422 33.0566-11.6699 32.7637-12.2559C32.4219-12.8906 31.4453-13.0371 30.8594-12.6465L27.9297-10.5469L28.2715-14.1113C28.3691-14.8926 27.7344-15.5273 27.002-15.5273C26.1719-15.5273 25.6348-14.8926 25.6836-14.1113L25.9766-10.5469L22.998-12.6465C22.4609-13.0371 21.582-12.9395 21.1914-12.2559C20.8496-11.6699 20.9473-10.791 21.7285-10.4004L24.9512-8.83789L21.7285-7.32422C20.9473-6.98242 20.8008-6.05469 21.1426-5.41992C21.4844-4.78516 22.4609-4.63867 22.998-5.0293L25.9766-7.08008L25.7324-3.56445C25.6836-2.83203 26.1719-2.14844 27.002-2.14844Z"/>
  <path d="M25.1465-21.1914L72.4609-21.1914C85.2051-21.1914 94.5801-30.8594 94.5801-42.7734C94.5801-55.1758 84.5215-64.209 71.4355-64.209C66.6504-73.584 57.6172-79.5898 46.7285-79.5898C32.1777-79.5898 20.166-68.3105 18.8965-54.1016C12.0117-52.0996 6.83594-45.9473 6.83594-37.8418C6.83594-28.6133 13.5254-21.1914 25.1465-21.1914ZM25.0488-28.2227C17.5293-28.2227 13.8672-32.2754 13.8672-37.6465C13.8672-41.7969 16.1621-45.752 22.5586-47.4609C24.9023-48.0469 25.7324-49.1699 25.9277-51.6113C26.8555-63.9648 35.8887-72.5586 46.7285-72.5586C54.7852-72.5586 61.4258-68.1641 65.5273-59.7656C66.5039-57.7148 67.7246-56.9824 70.2148-56.9824C81.5918-56.9824 87.5488-50.3906 87.5488-42.627C87.5488-34.6191 81.25-28.2227 72.9004-28.2227Z"/>
 </g>
</svg>
