<svg xmlns="http://www.w3.org/2000/svg" viewBox="4.627 -81.798 92.161 92.762" aria-hidden="true" data-sf-symbol="cloud.heavyrain">
 <g fill="black">
  <path d="M63.9648 7.4707L75-11.6699C75.7324-12.9395 75.3418-14.4531 74.0723-15.1367C72.8027-15.8203 71.2891-15.5273 70.5566-14.209L59.6191 4.83398C58.8379 6.15234 59.2285 7.66602 60.498 8.39844C61.6699 9.13086 63.2812 8.69141 63.9648 7.4707Z"/>
  <path d="M48.8281 7.42188L59.8145-11.5723C60.5957-12.9395 60.1562-14.4043 58.8867-15.1367C57.5684-15.8691 56.1035-15.5273 55.3223-14.1602L44.3359 4.93164C43.6523 6.15234 43.9941 7.66602 45.3125 8.39844C46.582 9.13086 48.1445 8.69141 48.8281 7.42188Z"/>
  <path d="M33.5938 7.42188L44.5801-11.5723C45.3613-12.9395 44.9219-14.4043 43.6523-15.1367C42.334-15.8691 40.8691-15.5273 40.0879-14.1602L29.1016 4.93164C28.418 6.15234 28.7598 7.66602 30.0781 8.39844C31.3477 9.13086 32.9102 8.69141 33.5938 7.42188Z"/>
  <path d="M18.3594 7.42188L29.3457-11.5723C30.127-12.9395 29.6875-14.4043 28.418-15.1367C27.0996-15.8691 25.6348-15.5273 24.8535-14.1602L13.8672 4.93164C13.1836 6.15234 13.5254 7.66602 14.8438 8.39844C16.1133 9.13086 17.6758 8.69141 18.3594 7.42188Z"/>
  <path d="M25.1465-21.1914L72.4609-21.1914C85.2051-21.1914 94.5801-30.8594 94.5801-42.7734C94.5801-55.1758 84.5215-64.209 71.4355-64.209C66.6504-73.584 57.6172-79.5898 46.7285-79.5898C32.1777-79.5898 20.166-68.3105 18.8965-54.1016C12.0117-52.0996 6.83594-45.9473 6.83594-37.8418C6.83594-28.6133 13.5254-21.1914 25.1465-21.1914ZM25.0488-28.2227C17.5293-28.2227 13.8672-32.2754 13.8672-37.6465C13.8672-41.7969 16.1621-45.752 22.5586-47.4609C24.9023-48.0469 25.7324-49.1699 25.9277-51.6113C26.8555-63.9648 35.8887-72.5586 46.7285-72.5586C54.7852-72.5586 61.4258-68.1641 65.5273-59.7656C66.5039-57.7148 67.7246-56.9824 70.2148-56.9824C81.5918-56.9824 87.5488-50.3906 87.5488-42.627C87.5488-34.6191 81.25-28.2227 72.9004-28.2227Z"/>
 </g>
</svg>
