<svg xmlns="http://www.w3.org/2000/svg" viewBox="4.822 -77.551 53.589 84.595" aria-hidden="true" data-sf-symbol="hurricane">
 <g fill="black">
  <path d="M6.83594 1.75781C6.83594 3.56445 8.30078 5.0293 10.1562 5.0293C33.4473 5.0293 51.5137-10.2539 51.5137-35.2539C51.5137-46.1914 42.4805-55.1758 31.5918-55.1758C28.125-55.1758 24.8047-54.248 22.0215-52.5879C27.832-63.1348 39.3066-68.9941 53.0762-68.9941C54.9316-68.9941 56.3965-70.459 56.3965-72.2656C56.3965-74.1211 54.9316-75.5371 53.0762-75.5371C29.7852-75.5371 11.7188-60.2539 11.7188-35.2539C11.7188-24.3164 20.752-15.332 31.5918-15.332C35.1074-15.332 38.3789-16.2598 41.2109-17.9199C35.3516-7.37305 23.8281-1.51367 10.1562-1.51367C8.30078-1.51367 6.83594-0.0976562 6.83594 1.75781ZM25.8301-35.2539C25.8301-38.4277 28.418-41.0156 31.5918-41.0156C34.8145-41.0156 37.4023-38.4277 37.4023-35.2539C37.4023-32.1289 34.8145-29.4922 31.5918-29.4922C28.418-29.4922 25.8301-32.0801 25.8301-35.2539Z"/>
 </g>
</svg>
