<svg xmlns="http://www.w3.org/2000/svg" viewBox="4.889 -76.071 81.194 81.778" aria-hidden="true" data-sf-symbol="moon">
 <g fill="black">
  <path d="M47.2656 3.75977C64.1113 3.75977 77.6367-6.39648 83.6426-19.043C85.1074-22.1191 83.1055-24.0723 80.3223-23.2422C77.3926-22.3145 72.8027-21.582 68.9453-21.582C46.0449-21.582 32.8613-34.7168 32.8613-57.6172C32.8613-61.6211 33.8379-66.6992 35.0586-69.873C36.3281-73.0957 34.082-75.0488 31.0547-73.6816C16.4551-67.2363 6.83594-52.7832 6.83594-36.6699C6.83594-14.3555 24.9512 3.75977 47.2656 3.75977ZM47.2656-2.97852C28.7109-2.97852 13.623-18.1152 13.623-36.6699C13.623-47.2656 18.6523-56.9336 26.5625-63.1348C26.2695-61.2305 26.123-59.4238 26.123-57.6172C26.123-30.957 42.2852-14.7949 68.9453-14.7949C70.3125-14.7949 71.7285-14.8926 72.998-15.0391C67.0898-7.95898 58.0078-2.97852 47.2656-2.97852Z"/>
 </g>
</svg>
