<svg xmlns="http://www.w3.org/2000/svg" viewBox="4.751 -79.038 87.324 87.568" aria-hidden="true" data-sf-symbol="sun.max.fill">
 <g fill="black">
  <path d="M48.4375-61.4746C50.4883-61.4746 52.1973-63.2324 52.1973-65.2832L52.1973-73.1934C52.1973-75.2441 50.4883-76.9531 48.4375-76.9531C46.3379-76.9531 44.6289-75.2441 44.6289-73.1934L44.6289-65.2832C44.6289-63.2324 46.3379-61.4746 48.4375-61.4746ZM66.8945-53.7598C68.3594-52.2949 70.8008-52.2461 72.3145-53.7598L77.9297-59.3262C79.3457-60.791 79.3457-63.2812 77.9297-64.7461C76.4648-66.2109 74.0234-66.2109 72.5586-64.7461L66.8945-59.082C65.4785-57.666 65.4785-55.2246 66.8945-53.7598ZM74.5605-35.2539C74.5605-33.2031 76.3184-31.4453 78.3691-31.4453L86.1816-31.4453C88.2812-31.4453 89.9902-33.2031 89.9902-35.2539C89.9902-37.3047 88.2812-39.0625 86.1816-39.0625L78.3691-39.0625C76.3184-39.0625 74.5605-37.3047 74.5605-35.2539ZM66.8945-16.6992C65.4785-15.2344 65.4785-12.8418 66.8945-11.377L72.5586-5.71289C74.0234-4.24805 76.4648-4.29688 77.9297-5.76172C79.3457-7.22656 79.3457-9.66797 77.9297-11.1328L72.2656-16.6992C70.8008-18.1641 68.3594-18.1641 66.8945-16.6992ZM48.4375-9.0332C46.3379-9.0332 44.6289-7.27539 44.6289-5.22461L44.6289 2.68555C44.6289 4.73633 46.3379 6.44531 48.4375 6.44531C50.4883 6.44531 52.1973 4.73633 52.1973 2.68555L52.1973-5.22461C52.1973-7.27539 50.4883-9.0332 48.4375-9.0332ZM29.9316-16.6992C28.4668-18.1641 25.9766-18.1641 24.5117-16.6992L18.9453-11.1816C17.4805-9.7168 17.4805-7.27539 18.8965-5.81055C20.3613-4.3457 22.8027-4.29688 24.2676-5.76172L29.8828-11.377C31.3477-12.8418 31.3477-15.2344 29.9316-16.6992ZM22.2656-35.2539C22.2656-37.3047 20.5566-39.0625 18.457-39.0625L10.6445-39.0625C8.54492-39.0625 6.83594-37.3047 6.83594-35.2539C6.83594-33.2031 8.54492-31.4453 10.6445-31.4453L18.457-31.4453C20.5566-31.4453 22.2656-33.2031 22.2656-35.2539ZM29.8828-53.7598C31.3477-55.1758 31.3477-57.666 29.9316-59.082L24.3164-64.7461C22.9004-66.1621 20.4102-66.2109 18.9941-64.7461C17.5293-63.2812 17.5293-60.791 18.9453-59.375L24.5117-53.7598C25.9766-52.2949 28.418-52.2949 29.8828-53.7598Z"/>
  <path d="M48.4375-15.3809C59.375-15.3809 68.3105-24.2676 68.3105-35.2539C68.3105-46.2402 59.375-55.127 48.4375-55.127C37.4512-55.127 28.5156-46.2402 28.5156-35.2539C28.5156-24.2676 37.4512-15.3809 48.4375-15.3809Z"/>
 </g>
</svg>
