<svg xmlns="http://www.w3.org/2000/svg" viewBox="1.316 -78.567 114.946 93.315" aria-hidden="true" data-sf-symbol="sunset.fill">
 <g fill="black">
  <path d="M58.7891 7.27539C70.2148 7.27539 79.7363-2.29492 79.7363-13.7207C79.7363-25.1465 70.2148-34.7656 58.7891-34.7656C47.3633-34.7656 37.793-25.1465 37.793-13.7207C37.793-2.29492 47.3633 7.27539 58.7891 7.27539ZM18.5547-11.084L26.9043-11.084C29.1992-11.084 30.957-12.6953 30.9082-14.6484C30.8594-16.6504 29.1992-18.2129 26.9043-18.2129L18.5547-18.2129C16.2598-18.2129 14.6484-16.6504 14.6484-14.6484C14.6484-12.6953 16.2598-11.084 18.5547-11.084ZM33.6914-33.6914C35.3516-32.0312 37.6953-31.9824 39.0625-33.3984C40.4297-34.8145 40.4297-37.1094 38.7695-38.7695L32.8613-44.6777C31.25-46.2891 29.0039-46.2402 27.5879-44.873C26.1719-43.5059 26.1719-41.2109 27.832-39.5996ZM78.5156-33.3984C79.9316-32.0312 82.2266-32.0312 83.8379-33.6914L89.7461-39.5996C91.4062-41.2109 91.3574-43.457 89.9902-44.873C88.623-46.2891 86.3281-46.2891 84.668-44.6777L78.7598-38.7695C77.1484-37.1094 77.0996-34.7656 78.5156-33.3984ZM90.625-11.084L98.9746-11.084C101.27-11.084 102.93-12.6953 102.93-14.6484C102.93-16.6504 101.27-18.2129 98.9746-18.2129L90.625-18.2129C88.3301-18.2129 86.6211-16.6504 86.6699-14.6484C86.7188-12.6953 88.3301-11.084 90.625-11.084Z"/>
  <path d="M13.623 12.0117L103.955 12.0117C109.229 12.0117 113.525 7.8125 113.525 2.73438C113.525-2.34375 109.229-6.49414 103.955-6.49414L13.623-6.49414C8.34961-6.49414 4.05273-2.34375 4.05273 2.73438C4.05273 7.8125 8.34961 12.0117 13.623 12.0117Z"/>
  <path d="M13.5742 5.32227L104.004 5.32227C106.055 5.32227 107.812 3.71094 107.812 1.80664C107.812-0.146484 106.055-1.70898 104.004-1.70898L13.5742-1.70898C11.4746-1.70898 9.76562-0.146484 9.76562 1.80664C9.76562 3.71094 11.4746 5.32227 13.5742 5.32227Z"/>
  <path d="M58.7891-48.7305L53.7598-55.0781L48.877-59.9609C48.2422-60.5469 47.4121-60.9375 46.582-60.9375C44.8242-60.9375 43.6035-59.7656 43.6035-58.0566C43.6035-57.1777 43.8965-56.4941 44.5801-55.8594L56.4941-44.9219C57.4219-44.0918 58.0078-43.7988 58.8379-43.7988C59.6191-43.7988 60.2539-44.0918 61.1816-44.9219L73.0469-55.8594C73.7793-56.4941 74.0723-57.1777 74.0723-58.0566C74.0723-59.7656 72.8516-60.9375 71.0938-60.9375C70.2637-60.9375 69.3848-60.5469 68.7988-59.9609L64.3555-55.5176ZM61.7188-50.3906L62.3535-58.0078L62.3535-71.9238C62.3535-74.0723 60.6934-75.8301 58.7891-75.8301C56.8359-75.8301 55.2246-74.0723 55.2246-71.9238L55.2246-58.0078L55.8105-50.3906C55.957-48.7305 57.1289-47.4121 58.7891-47.4121C60.4004-47.4121 61.6211-48.7305 61.7188-50.3906Z"/>
 </g>
</svg>
