<svg xmlns="http://www.w3.org/2000/svg" viewBox="1.316 -78.567 114.946 98.003" aria-hidden="true" data-sf-symbol="sunset">
 <g fill="black">
  <path d="M58.7891 7.66602C70.3125 7.66602 79.9316-1.95312 79.9316-13.5254C79.9316-25.1465 70.3125-34.7656 58.7891-34.7656C47.2656-34.7656 37.5977-25.1465 37.5977-13.5254C37.5977-1.95312 47.2656 7.66602 58.7891 7.66602ZM58.7891 0.585938C51.0254 0.585938 44.6777-5.81055 44.6777-13.5254C44.6777-21.2891 51.0254-27.6855 58.7891-27.6855C66.5039-27.6855 72.9004-21.2891 72.9004-13.5254C72.9004-5.81055 66.5039 0.585938 58.7891 0.585938ZM18.5547-10.9375L26.9043-10.9375C29.1992-10.9375 30.957-12.5488 30.9082-14.502C30.8594-16.5039 29.1992-18.0664 26.9043-18.0664L18.5547-18.0664C16.2598-18.0664 14.6484-16.5039 14.6484-14.502C14.6484-12.5488 16.2598-10.9375 18.5547-10.9375ZM39.0625-33.252C40.4297-34.668 40.4297-36.9629 38.7695-38.623L32.8613-44.5312C31.25-46.1426 29.0039-46.0938 27.5879-44.7266C26.1719-43.4082 26.1719-41.1133 27.832-39.4531L33.6914-33.5449C35.3516-31.9336 37.6953-31.8848 39.0625-33.252ZM78.5156-33.252C79.9316-31.9336 82.2266-31.9336 83.8379-33.5449L89.7461-39.4531C91.4062-41.1133 91.3574-43.3594 89.9902-44.7266C88.623-46.1426 86.3281-46.1426 84.668-44.5312L78.7598-38.623C77.1484-36.9629 77.0996-34.6191 78.5156-33.252ZM90.625-10.9375L98.9746-10.9375C101.27-10.9375 102.93-12.5488 102.93-14.502C102.93-16.5039 101.27-18.0664 98.9746-18.0664L90.625-18.0664C88.3301-18.0664 86.6211-16.5039 86.6699-14.502C86.7188-12.5488 88.3301-10.9375 90.625-10.9375Z"/>
  <path d="M13.5742 16.6992L104.004 16.6992C109.229 16.6992 113.525 12.5488 113.525 7.51953C113.525 2.44141 109.229-1.70898 104.004-1.70898L13.5742-1.70898C8.34961-1.70898 4.05273 2.44141 4.05273 7.51953C4.05273 12.5488 8.34961 16.6992 13.5742 16.6992Z"/>
  <path d="M13.5742 5.32227L104.004 5.32227C106.055 5.32227 107.812 3.71094 107.812 1.80664C107.812-0.146484 106.055-1.70898 104.004-1.70898L13.5742-1.70898C11.4746-1.70898 9.76562-0.146484 9.76562 1.80664C9.76562 3.71094 11.4746 5.32227 13.5742 5.32227Z"/>
  <path d="M58.7891-48.7305L53.7598-55.0781L48.877-59.9609C48.2422-60.5469 47.4121-60.9375 46.582-60.9375C44.8242-60.9375 43.6035-59.7656 43.6035-58.0566C43.6035-57.1777 43.8965-56.4941 44.5801-55.8594L56.4941-44.9219C57.4219-44.0918 58.0078-43.7988 58.8379-43.7988C59.6191-43.7988 60.2539-44.0918 61.1816-44.9219L73.0469-55.8594C73.7793-56.4941 74.0723-57.1777 74.0723-58.0566C74.0723-59.7656 72.8516-60.9375 71.0938-60.9375C70.2637-60.9375 69.3848-60.5469 68.7988-59.9609L64.3555-55.5176ZM61.7188-50.3906L62.3535-58.0078L62.3535-71.9238C62.3535-74.0723 60.6934-75.8301 58.7891-75.8301C56.8359-75.8301 55.2246-74.0723 55.2246-71.9238L55.2246-58.0078L55.8105-50.3906C55.957-48.7305 57.1289-47.4121 58.7891-47.4121C60.4004-47.4121 61.6211-48.7305 61.7188-50.3906Z"/>
 </g>
</svg>
