<svg xmlns="http://www.w3.org/2000/svg" viewBox="2.405 -93.494 88.403 108.179" aria-hidden="true" data-sf-symbol="thermometer.sun.fill">
 <g fill="black">
  <path d="M30.7129-68.6035C32.0801-69.9707 32.1289-72.3145 30.7129-73.6816L25.2441-79.1504C23.877-80.5664 21.582-80.5664 20.166-79.1504C18.75-77.7344 18.75-75.3906 20.166-74.0234L25.5371-68.6035C27.002-67.1387 29.3945-67.1875 30.7129-68.6035ZM23.4375-50.9277C23.4375-52.9297 21.7773-54.5898 19.8242-54.5898L12.1582-54.5898C10.2051-54.5898 8.54492-52.9297 8.54492-50.9277C8.54492-48.877 10.2051-47.2656 12.1582-47.2656L19.8242-47.2656C21.7773-47.2656 23.4375-48.877 23.4375-50.9277ZM30.7129-33.2031C29.3457-34.5703 27.0508-34.5703 25.6348-33.2031L20.166-27.7832C18.75-26.416 18.75-24.0723 20.166-22.6562C21.582-21.2402 23.877-21.1914 25.2441-22.6074L30.7129-28.0273C32.1289-29.4434 32.1289-31.7871 30.7129-33.2031ZM48.3887-25.8789C46.3867-25.8789 44.7266-24.1699 44.7266-22.2168L44.7266-14.5996C44.7266-12.5488 46.3867-10.9375 48.3887-10.9375C50.4395-10.9375 52.0508-12.5488 52.0508-14.5996L52.0508-22.2168C52.0508-24.1699 50.4395-25.8789 48.3887-25.8789Z"/>
  <path d="M48.3887-31.6895C59.0332-31.6895 67.5781-40.2832 67.5781-50.9277C67.5781-61.5723 59.0332-70.1172 48.3887-70.1172C37.7441-70.1172 29.248-61.5723 29.248-50.9277C29.248-40.2832 37.7441-31.6895 48.3887-31.6895ZM48.3887-75.9766C50.4395-75.9766 52.0508-77.6367 52.0508-79.6387L52.0508-87.2559C52.0508-89.2578 50.4395-90.918 48.3887-90.918C46.3867-90.918 44.7266-89.2578 44.7266-87.2559L44.7266-79.6387C44.7266-77.6367 46.3867-75.9766 48.3887-75.9766ZM66.0645-68.6035C67.4316-67.1875 69.8242-67.1387 71.2891-68.6035L76.6602-74.0234C78.0762-75.3906 78.0762-77.7344 76.6602-79.1504C75.2441-80.5664 72.9492-80.5664 71.5332-79.1504L66.0645-73.6816C64.6973-72.3145 64.7461-69.9707 66.0645-68.6035ZM73.3398-50.9277C73.3398-48.877 75.0488-47.2656 77.002-47.2656L84.6191-47.2656C86.6211-47.2656 88.2324-48.877 88.2324-50.9277C88.2324-52.9297 86.6211-54.5898 84.6191-54.5898L77.002-54.5898C75.0488-54.5898 73.3398-52.9297 73.3398-50.9277ZM66.0645-33.2031C64.6973-31.7871 64.6973-29.4434 66.0645-28.0273L71.5332-22.6074C72.9492-21.1914 75.2441-21.2402 76.6602-22.6562C78.0762-24.0723 78.0762-26.416 76.6602-27.7832L71.1914-33.2031C69.7754-34.5703 67.4805-34.5703 66.0645-33.2031Z"/>
  <path d="M30.1758 12.1094C44.043 12.1094 55.3223 0.830078 55.3223-13.0371C55.3223-20.0195 52.4902-26.2207 47.4121-31.2012L47.4609-64.2578C47.4609-74.9512 40.2832-82.666 30.1758-82.666C20.0195-82.666 12.8418-74.9512 12.8418-64.2578L12.8906-31.2012C7.8125-26.2207 4.98047-20.0195 4.98047-13.0371C4.98047 0.830078 16.2598 12.1094 30.1758 12.1094Z"/>
  <path d="M30.1758 7.32422C41.4062 7.32422 50.5371-1.75781 50.5371-13.0371C50.5371-18.8965 48.0957-24.1211 43.5547-28.3203C42.7734-29.0527 42.627-29.4434 42.627-30.4688L42.6758-64.2578C42.6758-72.3633 37.5977-77.8809 30.1758-77.8809C22.7051-77.8809 17.627-72.3633 17.627-64.2578L17.627-30.4688C17.627-29.4434 17.4805-29.0527 16.748-28.3203C12.207-24.1211 9.76562-18.8965 9.76562-13.0371C9.76562-1.75781 18.8965 7.32422 30.1758 7.32422ZM30.1758 1.02539C22.4121 1.02539 16.1621-5.32227 16.1621-13.0371C16.1621-17.7734 18.457-22.0703 22.4609-24.707C23.584-25.4395 24.0234-26.0742 24.0234-27.5879L24.0234-63.9648C24.0234-68.5059 26.5137-71.4844 30.1758-71.4844C33.7891-71.4844 36.2305-68.5059 36.2305-63.9648L36.2305-27.5879C36.2305-26.0742 36.7188-25.4395 37.8418-24.707C41.7969-22.0703 44.1406-17.7734 44.1406-13.0371C44.1406-5.32227 37.8906 1.02539 30.1758 1.02539Z"/>
  <path d="M30.127-4.15039C35.0586-4.15039 39.0137-8.1543 39.0137-13.0859C39.0137-16.5039 37.0605-19.3359 34.2773-20.8496C33.0566-21.4844 32.666-21.9727 32.666-23.7305L32.666-60.9375C32.666-62.793 31.543-63.916 30.127-63.916C28.7598-63.916 27.6367-62.793 27.6367-60.9375L27.6367-23.7305C27.6367-21.9727 27.2461-21.4844 26.0254-20.8496C23.1934-19.3359 21.2891-16.5039 21.2891-13.0859C21.2891-8.1543 25.2441-4.15039 30.127-4.15039Z"/>
 </g>
</svg>
