<svg xmlns="http://www.w3.org/2000/svg" viewBox="4.702 -81.002 77.753 89.605" aria-hidden="true" data-sf-symbol="tornado">
 <g fill="black">
  <path d="M43.0664-43.4082C67.1875-43.4082 80.3223-49.6094 80.3223-57.8613C80.3223-65.5762 69.4336-70.2148 53.9551-70.2148C42.1875-70.2148 33.252-67.9688 26.5137-64.7461C24.4629-63.7695 24.0234-61.7188 24.7559-60.2539C25.6348-58.5938 27.7832-58.1055 29.4922-58.8379C35.5957-61.377 43.2129-63.8672 53.5156-63.8672C66.3086-63.8672 73.4863-60.8887 73.4863-57.9102C73.4863-54.3457 62.4512-50 42.7246-50C23.6816-50 13.6719-53.6621 13.6719-60.6934C13.6719-64.6973 17.2363-68.9941 28.418-72.6074C30.5664-73.3398 31.4453-75.0488 30.8594-76.8555C30.2246-78.5645 28.7109-79.3457 26.2207-78.5645C12.9883-74.6094 6.83594-67.7734 6.83594-60.498C6.83594-49.3164 19.2383-43.4082 43.0664-43.4082ZM44.1895-30.6152C56.2012-30.6152 67.2363-32.6172 75.0977-35.791C76.7578-36.4258 77.5391-38.1836 76.7578-39.6973C75.9277-41.1621 74.3652-41.4062 72.4609-40.7227C65.5273-38.1348 55.3223-36.2305 44.1895-36.2305C36.084-36.2305 26.9043-37.207 19.3359-39.4043C17.3828-39.9902 15.8203-39.3555 15.332-37.7441C14.8438-36.1328 15.6738-34.5703 17.6758-33.9844C25.7324-31.7871 35.5957-30.6152 44.1895-30.6152ZM46.6797-17.9688C56.5918-18.0664 66.0645-19.3848 74.8535-22.4121C77.1973-23.1934 77.4902-25.0488 76.9531-26.3672C76.3184-27.8809 74.8047-28.3203 72.5586-27.6367C63.8672-24.8535 55.5664-23.584 46.6797-23.584C42.9199-23.584 38.916-23.877 35.8398-24.3164C33.7402-24.5605 32.4707-23.7305 32.1777-22.168C31.8848-20.6055 32.7148-19.1406 34.9609-18.75C37.8418-18.2129 41.8945-17.9199 46.6797-17.9688ZM43.2617-6.05469C50.293-5.27344 58.5938-5.46875 65.8691-7.37305C67.8711-7.91016 68.5547-9.61914 68.1152-11.1328C67.5781-12.7441 66.0645-13.3301 64.0137-12.8418C57.8125-11.2305 50.8789-10.7422 44.1895-11.5723C42.1387-11.7676 40.6738-10.791 40.4785-9.22852C40.2832-7.61719 41.1133-6.29883 43.2617-6.05469ZM40.625 6.25C43.1641 6.54297 45.8008 6.54297 48.3398 6.25C50.3418 6.00586 51.2695 4.73633 51.123 3.125C50.9766 1.70898 49.8535 0.683594 47.7539 0.927734C45.6543 1.17188 43.2129 1.17188 41.1133 0.927734C39.1113 0.683594 37.9395 1.75781 37.7441 3.125C37.5488 4.58984 38.5254 6.00586 40.625 6.25Z"/>
 </g>
</svg>
