<svg xmlns="http://www.w3.org/2000/svg" viewBox="7.818 -71.647 82.726 72.885" aria-hidden="true" data-sf-symbol="wind">
 <g fill="black">
  <path d="M48.7305-0.732422C54.7852-0.732422 59.5215-5.17578 59.5215-11.6699C59.5215-20.8984 50.2441-26.0254 32.9102-26.0254C26.0254-26.0254 18.457-24.8047 12.0117-22.5586C10.2539-21.9727 9.47266-20.459 9.91211-18.9453C10.3516-17.4316 11.8164-16.5039 13.7207-17.1875C19.7266-19.2383 26.2207-20.4102 32.9102-20.4102C46.6797-20.4102 53.9062-16.9922 53.9062-11.6699C53.9062-8.30078 51.5625-6.34766 48.7305-6.34766C45.8496-6.34766 44.2383-8.34961 43.7012-11.377C43.4082-12.9883 42.2852-14.3066 40.4297-14.1602C38.4277-14.0137 37.6953-12.3535 37.9395-10.6445C38.623-5.22461 42.627-0.732422 48.7305-0.732422Z"/>
  <path d="M73.1445-27.8809C82.1289-27.8809 88.5742-33.6914 88.5742-41.748C88.5742-49.8535 82.4219-55.5664 74.7559-55.5664C67.7734-55.5664 62.5977-50.8301 61.6211-44.4336C61.3281-42.627 62.3047-41.2109 63.8672-40.9668C65.4785-40.7227 66.8945-41.6992 67.2852-43.7988C67.9199-47.5586 71.0938-49.9512 74.7559-49.9512C79.2969-49.9512 82.959-46.6797 82.959-41.748C82.959-36.8652 79.0527-33.4961 73.1445-33.4961C61.5723-33.4961 49.0723-40.1367 33.7891-40.1367C26.0254-40.1367 18.7988-38.9648 12.0117-36.6211C10.2539-36.0352 9.47266-34.5215 9.91211-33.0078C10.3516-31.4941 11.8164-30.5664 13.7207-31.25C19.9707-33.4473 26.416-34.5215 33.7891-34.5215C49.0723-34.5215 60.2051-27.8809 73.1445-27.8809Z"/>
  <path d="M13.7207-46.1426C19.2871-47.8027 25-48.584 30.3223-48.584C37.1094-48.584 42.2852-47.5586 48.6816-47.5586C55.8594-47.5586 60.2051-52.4414 60.2051-58.6426C60.2051-65.1367 55.2734-69.6777 49.2188-69.6777C44.9219-69.6777 41.0645-67.0898 39.2578-63.5742C38.5254-62.1582 38.7207-60.4492 40.2344-59.6191C41.6016-58.8867 43.3594-59.2773 44.3359-61.0352C45.166-62.6953 47.1191-64.0137 49.2188-64.0137C52.1484-64.0137 54.5898-62.0117 54.5898-58.6426C54.5898-55.3223 52.2949-53.2227 48.6816-53.2227C42.6758-53.2227 37.3047-54.248 30.3223-54.248C24.0234-54.248 17.7734-53.2227 12.0117-51.5625C10.2051-51.0254 9.47266-49.4629 9.91211-47.9492C10.3516-46.4844 11.7676-45.5566 13.7207-46.1426Z"/>
 </g>
</svg>
