<svg xmlns="http://www.w3.org/2000/svg" viewBox="7.52 -77.356 94.316 84.204" aria-hidden="true" data-sf-symbol="house">
 <g fill="black">
  <path d="M 43.686 1.133 L 65.671 1.133 L 65.671 -23.67 C 65.671 -25.344 64.605 -26.428 62.913 -26.428 L 46.444 -26.428 C 44.786 -26.428 43.686 -25.344 43.686 -23.67 Z M 12.681 -35.348 C 13.614 -35.348 14.367 -35.85 15.049 -36.416 L 53.235 -68.48 C 53.686 -68.882 54.205 -69.059 54.686 -69.059 C 55.152 -69.059 55.637 -68.882 56.088 -68.48 L 94.308 -36.416 C 94.99 -35.85 95.743 -35.348 96.676 -35.348 C 98.508 -35.348 99.591 -36.648 99.591 -38.031 C 99.591 -38.826 99.243 -39.628 98.481 -40.273 L 59.024 -73.388 C 57.628 -74.536 56.149 -75.11 54.686 -75.11 C 53.208 -75.11 51.695 -74.536 50.333 -73.388 L 10.875 -40.273 C 10.114 -39.628 9.766 -38.826 9.766 -38.031 C 9.766 -36.648 10.864 -35.348 12.681 -35.348 Z M 79.876 -54.236 L 88.772 -46.727 L 88.772 -63.691 C 88.772 -65.214 87.764 -66.189 86.241 -66.189 L 82.407 -66.189 C 80.918 -66.189 79.876 -65.214 79.876 -63.691 Z M 28.846 4.603 L 80.478 4.603 C 85.767 4.603 88.772 1.634 88.772 -3.524 L 88.772 -45.853 L 83.327 -49.572 L 83.327 -4.892 C 83.327 -2.203 81.967 -0.824 79.361 -0.824 L 29.996 -0.824 C 27.39 -0.824 26.011 -2.203 26.011 -4.892 L 26.011 -49.526 L 20.584 -45.853 L 20.584 -3.524 C 20.584 1.649 23.59 4.603 28.846 4.603 Z"/>
 </g>
</svg>
