<svg xmlns="http://www.w3.org/2000/svg" viewBox="4.661 -80.766 91.369 88.314" aria-hidden="true" data-sf-symbol="cloud.fog">
 <g fill="black">
  <path d="M 75.869 1.087 L 25.636 1.087 C 24.41 1.087 23.45 2.017 23.45 3.212 C 23.45 4.457 24.41 5.372 25.636 5.372 L 75.869 5.372 C 77.061 5.372 78.04 4.457 78.04 3.212 C 78.04 2.017 77.061 1.087 75.869 1.087 Z"/>
  <path d="M 75.869 -11.901 L 25.636 -11.901 C 24.41 -11.901 23.45 -10.972 23.45 -9.776 C 23.45 -8.531 24.41 -7.617 25.636 -7.617 L 75.869 -7.617 C 77.061 -7.617 78.04 -8.531 78.04 -9.776 C 78.04 -10.972 77.061 -11.901 75.869 -11.901 Z"/>
  <path d="M 24.556 -21.055 L 72.173 -21.055 C 84.569 -21.055 93.854 -30.436 93.854 -42.077 C 93.854 -54.101 83.977 -62.907 71.148 -62.907 C 66.363 -72.449 57.617 -78.591 46.441 -78.591 C 32.178 -78.591 20.423 -67.312 19.184 -53.103 C 12.208 -51.146 6.836 -45.19 6.836 -37.13 C 6.836 -28.25 13.329 -21.055 24.556 -21.055 Z M 24.489 -26.437 C 16.394 -26.437 12.232 -31.08 12.232 -36.996 C 12.232 -41.918 15.239 -46.236 21.802 -47.976 C 23.752 -48.471 24.431 -49.367 24.581 -51.324 C 25.448 -63.904 35.117 -73.194 46.441 -73.194 C 55.436 -73.194 62.395 -68.21 66.511 -59.72 C 67.336 -57.987 68.36 -57.391 70.442 -57.391 C 81.698 -57.391 88.457 -50.406 88.457 -41.946 C 88.457 -33.363 81.522 -26.437 72.461 -26.437 Z"/>
 </g>
</svg>
