<svg xmlns="http://www.w3.org/2000/svg" viewBox="0.971 -78.211 116.272 84.434" aria-hidden="true" data-sf-symbol="cloud.sun">
 <g fill="black">
  <path d="M 75.127 -10.927 C 73.627 -10.927 72.312 -9.646 72.312 -8.162 L 72.312 0.688 C 72.312 2.188 73.627 3.454 75.127 3.454 C 76.644 3.454 77.941 2.188 77.941 0.688 L 77.941 -8.162 C 77.941 -9.646 76.644 -10.927 75.127 -10.927 Z"/>
  <path d="M 75.111 -17.244 C 85.397 -17.244 93.847 -25.678 93.847 -35.995 C 93.847 -46.345 85.397 -54.794 75.111 -54.794 C 64.844 -54.794 56.395 -46.345 56.395 -35.995 C 56.395 -25.678 64.844 -17.244 75.111 -17.244 Z M 75.111 -22.233 C 67.478 -22.233 61.383 -28.346 61.383 -35.995 C 61.383 -43.677 67.478 -49.771 75.111 -49.771 C 82.778 -49.771 88.858 -43.677 88.858 -35.995 C 88.858 -28.346 82.778 -22.233 75.111 -22.233 Z M 75.127 -61.062 C 76.644 -61.062 77.941 -62.359 77.941 -63.828 L 77.941 -72.659 C 77.941 -74.177 76.644 -75.443 75.127 -75.443 C 73.627 -75.443 72.312 -74.177 72.312 -72.659 L 72.312 -63.828 C 72.312 -62.359 73.627 -61.062 75.127 -61.062 Z M 92.787 -53.655 C 93.87 -52.621 95.654 -52.572 96.786 -53.655 L 103.023 -59.893 C 104.136 -61.006 104.106 -62.808 103.023 -63.906 C 101.94 -64.974 100.156 -65.004 99.092 -63.906 L 92.787 -57.586 C 91.689 -56.537 91.738 -54.753 92.787 -53.655 Z M 100.096 -35.995 C 100.096 -34.477 101.397 -33.195 102.88 -33.195 L 111.693 -33.195 C 113.241 -33.195 114.474 -34.477 114.474 -35.995 C 114.474 -37.512 113.241 -38.794 111.693 -38.794 L 102.88 -38.794 C 101.397 -38.794 100.096 -37.512 100.096 -35.995 Z M 92.787 -18.3 C 91.738 -17.251 91.689 -15.452 92.787 -14.369 L 99.092 -8.098 C 100.156 -6.985 101.94 -7.049 103.023 -8.132 C 104.106 -9.181 104.136 -10.95 103.023 -12.063 L 96.752 -18.3 C 95.654 -19.365 93.87 -19.35 92.787 -18.3 Z M 57.436 -18.3 C 56.337 -19.35 54.554 -19.365 53.456 -18.3 L 47.218 -12.097 C 46.12 -10.983 46.15 -9.215 47.185 -8.166 C 48.283 -7.083 50.085 -7.019 51.131 -8.132 L 57.402 -14.369 C 58.485 -15.452 58.47 -17.251 57.436 -18.3 Z M 50.127 -35.995 C 50.127 -37.512 48.845 -38.794 47.327 -38.794 L 38.514 -38.794 C 37.015 -38.794 35.733 -37.512 35.733 -35.995 C 35.733 -34.477 37.015 -33.195 38.514 -33.195 L 47.327 -33.195 C 48.845 -33.195 50.127 -34.477 50.127 -35.995 Z M 57.402 -53.655 C 58.47 -54.72 58.485 -56.571 57.436 -57.586 L 51.165 -63.906 C 50.085 -64.971 48.35 -64.974 47.252 -63.906 C 46.184 -62.808 46.154 -61.006 47.218 -59.926 L 53.456 -53.655 C 54.554 -52.572 56.337 -52.621 57.402 -53.655 Z"/>
  <path d="M 19.69 1.519 L 61.222 1.519 C 72.15 1.519 80.645 -6.735 80.645 -17.361 C 80.645 -27.902 72.022 -35.896 60.658 -36.013 C 56.196 -44.441 48.33 -49.664 38.81 -49.664 C 26.256 -49.664 15.801 -39.868 14.559 -27.316 C 8.192 -25.401 3.739 -19.995 3.739 -13.016 C 3.739 -4.64 10.069 1.519 19.69 1.519 Z"/>
  <path d="M 19.57 -3.908 C 12.812 -3.908 9.166 -7.874 9.166 -12.896 C 9.166 -17.209 11.789 -20.903 17.476 -22.474 C 19.209 -22.901 19.79 -23.681 19.94 -25.406 C 20.807 -36.228 29.03 -44.237 38.81 -44.237 C 46.591 -44.237 52.506 -39.86 56.085 -32.716 C 56.813 -31.212 57.721 -30.684 59.521 -30.684 C 69.312 -30.684 75.218 -24.574 75.218 -17.211 C 75.218 -9.846 69.17 -3.908 61.29 -3.908 Z"/>
 </g>
</svg>
