<svg xmlns="http://www.w3.org/2000/svg" viewBox="4.65 -80.777 91.391 91.823" aria-hidden="true" data-sf-symbol="cloud.drizzle">
 <g fill="black">
  <path d="M 67.64 7.748 L 72.846 -1.257 C 73.506 -2.349 73.157 -3.526 72.13 -4.156 C 71.099 -4.722 69.922 -4.407 69.262 -3.315 L 64.071 5.708 C 63.46 6.748 63.76 7.958 64.806 8.54 C 65.833 9.136 67.062 8.772 67.64 7.748 Z"/>
  <path d="M 55.65 -3.013 L 60.856 -12.003 C 61.482 -13.076 61.167 -14.287 60.14 -14.917 C 59.094 -15.482 57.932 -15.168 57.272 -14.076 L 52.066 -5.052 C 51.47 -4.013 51.755 -2.802 52.816 -2.221 C 53.843 -1.625 55.073 -1.989 55.65 -3.013 Z"/>
  <path d="M 37.205 7.748 L 42.411 -1.224 C 43.071 -2.315 42.722 -3.526 41.695 -4.122 C 40.664 -4.688 39.487 -4.373 38.827 -3.282 L 33.621 5.742 C 33.025 6.781 33.325 7.992 34.371 8.573 C 35.398 9.169 36.627 8.806 37.205 7.748 Z"/>
  <path d="M 25.215 -2.979 L 30.421 -11.984 C 31.047 -13.076 30.732 -14.253 29.705 -14.883 C 28.659 -15.449 27.497 -15.134 26.837 -14.043 L 21.598 -5.019 C 21.035 -3.979 21.32 -2.769 22.381 -2.188 C 23.408 -1.591 24.638 -1.955 25.215 -2.979 Z"/>
  <path d="M 24.556 -21.055 L 72.173 -21.055 C 84.569 -21.055 93.854 -30.436 93.854 -42.077 C 93.854 -54.101 83.977 -62.907 71.148 -62.907 C 66.363 -72.449 57.617 -78.591 46.441 -78.591 C 32.178 -78.591 20.423 -67.312 19.184 -53.103 C 12.208 -51.146 6.836 -45.19 6.836 -37.13 C 6.836 -28.25 13.329 -21.055 24.556 -21.055 Z M 24.489 -26.437 C 16.394 -26.437 12.232 -31.08 12.232 -36.996 C 12.232 -41.918 15.239 -46.236 21.802 -47.976 C 23.752 -48.471 24.431 -49.367 24.581 -51.324 C 25.448 -63.904 35.117 -73.194 46.441 -73.194 C 55.436 -73.194 62.395 -68.21 66.511 -59.72 C 67.336 -57.987 68.36 -57.391 70.442 -57.391 C 81.698 -57.391 88.457 -50.406 88.457 -41.946 C 88.457 -33.363 81.522 -26.437 72.461 -26.437 Z"/>
 </g>
</svg>
