<svg xmlns="http://www.w3.org/2000/svg" viewBox="4.544 -80.883 91.602 96.255" aria-hidden="true" data-sf-symbol="cloud.bolt.rain">
 <g fill="black">
  <path d="M 77.174 8.482 C 78.202 9.045 79.431 8.681 80.042 7.642 L 85.214 -1.348 C 85.875 -2.406 85.526 -3.617 84.499 -4.213 C 83.468 -4.813 82.291 -4.479 81.63 -3.406 L 76.44 5.651 C 75.829 6.657 76.128 7.853 77.174 8.482 Z"/>
  <path d="M 69.714 -2.211 C 70.741 -1.648 71.937 -2.012 72.548 -3.051 L 77.754 -12.042 C 78.38 -13.099 78.065 -14.31 77.038 -14.906 C 75.992 -15.506 74.83 -15.172 74.17 -14.1 L 68.931 -5.042 C 68.368 -4.037 68.619 -2.841 69.714 -2.211 Z"/>
  <path d="M 58.571 -6.312 L 50.189 -6.312 L 50.236 -4.744 L 55.042 -14.019 C 55.482 -14.849 55.14 -15.499 54.295 -15.499 L 46.998 -15.499 C 45.909 -15.499 45.519 -15.108 45.177 -14.312 L 39.94 -2.344 C 39.535 -1.386 39.967 -0.815 40.962 -0.815 L 47.752 -0.815 L 48.24 -3.092 L 42.061 11.915 C 41.851 12.434 41.963 12.873 42.32 13.02 C 42.677 13.166 43.098 13.053 43.507 12.617 L 59.23 -4.453 C 60.002 -5.298 59.679 -6.312 58.571 -6.312 Z"/>
  <path d="M 24.336 8.482 C 25.364 9.045 26.593 8.681 27.171 7.642 L 32.376 -1.348 C 33.003 -2.406 32.688 -3.617 31.661 -4.213 C 30.63 -4.813 29.453 -4.479 28.792 -3.406 L 23.568 5.651 C 22.991 6.657 23.291 7.853 24.336 8.482 Z"/>
  <path d="M 16.842 -2.211 C 17.87 -1.648 19.099 -2.012 19.71 -3.051 L 24.882 -12.042 C 25.543 -13.099 25.194 -14.31 24.166 -14.906 C 23.121 -15.506 21.959 -15.172 21.332 -14.1 L 16.093 -5.042 C 15.497 -4.037 15.781 -2.841 16.842 -2.211 Z"/>
  <path d="M 24.556 -21.055 L 72.173 -21.055 C 84.569 -21.055 93.854 -30.436 93.854 -42.077 C 93.854 -54.101 83.977 -62.907 71.148 -62.907 C 66.363 -72.449 57.617 -78.591 46.441 -78.591 C 32.178 -78.591 20.423 -67.312 19.184 -53.103 C 12.208 -51.146 6.836 -45.19 6.836 -37.13 C 6.836 -28.25 13.329 -21.055 24.556 -21.055 Z M 24.489 -26.437 C 16.394 -26.437 12.232 -31.08 12.232 -36.996 C 12.232 -41.918 15.239 -46.236 21.802 -47.976 C 23.752 -48.471 24.431 -49.367 24.581 -51.324 C 25.448 -63.904 35.117 -73.194 46.441 -73.194 C 55.436 -73.194 62.395 -68.21 66.511 -59.72 C 67.336 -57.987 68.36 -57.391 70.442 -57.391 C 81.698 -57.391 88.457 -50.406 88.457 -41.946 C 88.457 -33.363 81.522 -26.437 72.461 -26.437 Z"/>
 </g>
</svg>
