<svg xmlns="http://www.w3.org/2000/svg" viewBox="4.627 -80.8 91.436 92.772" aria-hidden="true" data-sf-symbol="cloud.hail">
 <g fill="black">
  <path d="M 69.393 -6.998 L 72.19 -11.868 C 72.817 -12.926 72.502 -14.17 71.49 -14.767 C 70.444 -15.333 69.233 -14.999 68.622 -13.926 L 65.809 -9.004 C 65.231 -7.965 65.497 -6.754 66.558 -6.173 C 67.57 -5.577 68.815 -5.94 69.393 -6.998 Z M 63.044 4.05 C 65.206 4.05 66.993 2.214 66.993 0.019 C 66.993 -2.159 65.221 -3.976 63.044 -3.976 C 60.818 -3.976 59.016 -2.159 59.016 0.019 C 59.016 2.214 60.818 4.05 63.044 4.05 Z"/>
  <path d="M 46.004 -1.285 L 52.171 -11.966 C 52.782 -13.057 52.482 -14.268 51.47 -14.864 C 50.424 -15.43 49.198 -15.115 48.602 -14.024 L 42.42 -3.291 C 41.809 -2.252 42.108 -1.041 43.169 -0.46 C 44.182 0.136 45.426 -0.228 46.004 -1.285 Z M 39.655 9.763 C 41.817 9.763 43.604 7.927 43.604 5.731 C 43.604 3.554 41.832 1.737 39.655 1.737 C 37.429 1.737 35.627 3.554 35.627 5.731 C 35.627 7.927 37.429 9.763 39.655 9.763 Z"/>
  <path d="M 29.305 -7.145 L 32.103 -12.015 C 32.729 -13.072 32.414 -14.317 31.402 -14.913 C 30.356 -15.479 29.145 -15.146 28.534 -14.073 L 25.721 -9.15 C 25.143 -8.111 25.409 -6.9 26.47 -6.319 C 27.482 -5.723 28.727 -6.087 29.305 -7.145 Z M 22.956 3.903 C 25.118 3.903 26.905 2.068 26.905 -0.128 C 26.905 -2.305 25.133 -4.122 22.956 -4.122 C 20.73 -4.122 18.928 -2.305 18.928 -0.128 C 18.928 2.068 20.73 3.903 22.956 3.903 Z"/>
  <path d="M 24.556 -21.055 L 72.173 -21.055 C 84.569 -21.055 93.854 -30.436 93.854 -42.077 C 93.854 -54.101 83.977 -62.907 71.148 -62.907 C 66.363 -72.449 57.617 -78.591 46.441 -78.591 C 32.178 -78.591 20.423 -67.312 19.184 -53.103 C 12.208 -51.146 6.836 -45.19 6.836 -37.13 C 6.836 -28.25 13.329 -21.055 24.556 -21.055 Z M 24.489 -26.437 C 16.394 -26.437 12.232 -31.08 12.232 -36.996 C 12.232 -41.918 15.239 -46.236 21.802 -47.976 C 23.752 -48.471 24.431 -49.367 24.581 -51.324 C 25.448 -63.904 35.117 -73.194 46.441 -73.194 C 55.436 -73.194 62.395 -68.21 66.511 -59.72 C 67.336 -57.987 68.36 -57.391 70.442 -57.391 C 81.698 -57.391 88.457 -50.406 88.457 -41.946 C 88.457 -33.363 81.522 -26.437 72.461 -26.437 Z"/>
 </g>
</svg>
