<svg xmlns="http://www.w3.org/2000/svg" viewBox="4.647 -80.78 91.395 91.927" aria-hidden="true" data-sf-symbol="cloud.heavyrain">
 <g fill="black">
  <path d="M 63.299 7.879 L 74.788 -12.033 C 75.415 -13.091 75.1 -14.302 74.072 -14.864 C 73.06 -15.396 71.864 -15.149 71.238 -14.058 L 59.816 5.772 C 59.171 6.879 59.471 8.09 60.498 8.671 C 61.458 9.267 62.721 8.903 63.299 7.879 Z"/>
  <path d="M 48.117 7.846 L 59.572 -11.966 C 60.217 -13.091 59.884 -14.268 58.856 -14.864 C 57.811 -15.43 56.648 -15.149 55.988 -14.024 L 44.533 5.84 C 43.955 6.879 44.221 8.09 45.282 8.671 C 46.31 9.267 47.539 8.903 48.117 7.846 Z"/>
  <path d="M 32.898 7.846 L 44.353 -11.966 C 44.998 -13.091 44.665 -14.268 43.637 -14.864 C 42.591 -15.43 41.429 -15.149 40.769 -14.024 L 29.314 5.84 C 28.736 6.879 29.002 8.09 30.063 8.671 C 31.09 9.267 32.32 8.903 32.898 7.846 Z"/>
  <path d="M 17.648 7.846 L 29.104 -11.966 C 29.749 -13.091 29.415 -14.268 28.388 -14.864 C 27.342 -15.43 26.18 -15.149 25.52 -14.024 L 14.064 5.84 C 13.486 6.879 13.752 8.09 14.813 8.671 C 15.841 9.267 17.07 8.903 17.648 7.846 Z"/>
  <path d="M 24.556 -21.055 L 72.173 -21.055 C 84.569 -21.055 93.854 -30.436 93.854 -42.077 C 93.854 -54.101 83.977 -62.907 71.148 -62.907 C 66.363 -72.449 57.617 -78.591 46.441 -78.591 C 32.178 -78.591 20.423 -67.312 19.184 -53.103 C 12.208 -51.146 6.836 -45.19 6.836 -37.13 C 6.836 -28.25 13.329 -21.055 24.556 -21.055 Z M 24.489 -26.437 C 16.394 -26.437 12.232 -31.08 12.232 -36.996 C 12.232 -41.918 15.239 -46.236 21.802 -47.976 C 23.752 -48.471 24.431 -49.367 24.581 -51.324 C 25.448 -63.904 35.117 -73.194 46.441 -73.194 C 55.436 -73.194 62.395 -68.21 66.511 -59.72 C 67.336 -57.987 68.36 -57.391 70.442 -57.391 C 81.698 -57.391 88.457 -50.406 88.457 -41.946 C 88.457 -33.363 81.522 -26.437 72.461 -26.437 Z"/>
 </g>
</svg>
