<svg xmlns="http://www.w3.org/2000/svg" viewBox="4.494 -80.933 91.702 98.357" aria-hidden="true" data-sf-symbol="cloud.sleet">
 <g fill="black">
  <path d="M 62.534 9.37 C 63.236 9.37 63.698 8.731 63.664 8.044 L 63.432 4.332 L 66.577 6.398 C 67.129 6.773 67.936 6.639 68.277 6.068 C 68.638 5.497 68.412 4.672 67.691 4.33 L 64.378 2.68 L 67.725 0.997 C 68.412 0.655 68.604 -0.137 68.311 -0.723 C 67.969 -1.327 67.129 -1.413 66.577 -1.038 L 63.432 1.077 L 63.698 -2.669 C 63.765 -3.405 63.236 -4.009 62.534 -4.009 C 61.798 -4.009 61.352 -3.405 61.386 -2.669 L 61.603 1.077 L 58.439 -1.038 C 57.887 -1.413 57.099 -1.346 56.739 -0.723 C 56.397 -0.137 56.604 0.636 57.276 0.997 L 60.653 2.68 L 57.276 4.379 C 56.589 4.721 56.363 5.463 56.69 6.068 C 57.032 6.687 57.887 6.789 58.439 6.413 L 61.603 4.347 L 61.404 8.044 C 61.386 8.731 61.798 9.37 62.534 9.37 Z"/>
  <path d="M 40.708 15.082 C 41.41 15.082 41.872 14.444 41.838 13.757 L 41.605 10.045 L 44.751 12.111 C 45.303 12.486 46.109 12.352 46.451 11.781 C 46.812 11.21 46.586 10.385 45.865 10.043 L 42.552 8.393 L 45.899 6.709 C 46.586 6.368 46.778 5.576 46.485 4.99 C 46.143 4.386 45.303 4.3 44.751 4.675 L 41.605 6.79 L 41.872 3.044 C 41.939 2.308 41.41 1.704 40.708 1.704 C 39.972 1.704 39.526 2.308 39.56 3.044 L 39.777 6.79 L 36.613 4.675 C 36.061 4.3 35.273 4.367 34.913 4.99 C 34.571 5.576 34.778 6.349 35.45 6.709 L 38.827 8.393 L 35.45 10.092 C 34.763 10.434 34.537 11.176 34.864 11.781 C 35.206 12.4 36.061 12.501 36.613 12.126 L 39.777 10.06 L 39.578 13.757 C 39.56 14.444 39.972 15.082 40.708 15.082 Z"/>
  <path d="M 22.446 9.223 C 23.148 9.223 23.61 8.585 23.576 7.898 L 23.344 4.186 L 26.489 6.251 C 27.041 6.627 27.848 6.492 28.189 5.921 C 28.55 5.351 28.324 4.525 27.604 4.184 L 24.29 2.534 L 27.637 0.85 C 28.324 0.508 28.516 -0.283 28.223 -0.869 C 27.881 -1.474 27.041 -1.56 26.489 -1.184 L 23.344 0.931 L 23.61 -2.815 C 23.677 -3.551 23.148 -4.156 22.446 -4.156 C 21.71 -4.156 21.264 -3.551 21.298 -2.815 L 21.515 0.931 L 18.352 -1.184 C 17.799 -1.56 17.011 -1.492 16.651 -0.869 C 16.309 -0.283 16.516 0.49 17.188 0.85 L 20.565 2.534 L 17.188 4.232 C 16.501 4.574 16.275 5.317 16.602 5.921 C 16.944 6.541 17.799 6.642 18.352 6.267 L 21.515 4.201 L 21.316 7.898 C 21.298 8.585 21.71 9.223 22.446 9.223 Z"/>
  <path d="M 69.393 -6.998 L 72.19 -11.868 C 72.817 -12.926 72.502 -14.17 71.49 -14.767 C 70.444 -15.333 69.233 -14.999 68.622 -13.926 L 65.809 -9.004 C 65.231 -7.965 65.497 -6.754 66.558 -6.173 C 67.57 -5.577 68.815 -5.94 69.393 -6.998 Z"/>
  <path d="M 46.004 -1.285 L 52.171 -11.966 C 52.782 -13.057 52.482 -14.268 51.47 -14.864 C 50.424 -15.43 49.198 -15.115 48.602 -14.024 L 42.42 -3.291 C 41.809 -2.252 42.108 -1.041 43.169 -0.46 C 44.182 0.136 45.426 -0.228 46.004 -1.285 Z"/>
  <path d="M 29.305 -7.145 L 32.103 -12.015 C 32.729 -13.072 32.414 -14.317 31.402 -14.913 C 30.356 -15.479 29.145 -15.146 28.534 -14.073 L 25.721 -9.15 C 25.143 -8.111 25.409 -6.9 26.47 -6.319 C 27.482 -5.723 28.727 -6.087 29.305 -7.145 Z"/>
  <path d="M 24.556 -21.055 L 72.173 -21.055 C 84.569 -21.055 93.854 -30.436 93.854 -42.077 C 93.854 -54.101 83.977 -62.907 71.148 -62.907 C 66.363 -72.449 57.617 -78.591 46.441 -78.591 C 32.178 -78.591 20.423 -67.312 19.184 -53.103 C 12.208 -51.146 6.836 -45.19 6.836 -37.13 C 6.836 -28.25 13.329 -21.055 24.556 -21.055 Z M 24.489 -26.437 C 16.394 -26.437 12.232 -31.08 12.232 -36.996 C 12.232 -41.918 15.239 -46.236 21.802 -47.976 C 23.752 -48.471 24.431 -49.367 24.581 -51.324 C 25.448 -63.904 35.117 -73.194 46.441 -73.194 C 55.436 -73.194 62.395 -68.21 66.511 -59.72 C 67.336 -57.987 68.36 -57.391 70.442 -57.391 C 81.698 -57.391 88.457 -50.406 88.457 -41.946 C 88.457 -33.363 81.522 -26.437 72.461 -26.437 Z"/>
 </g>
</svg>
