<svg xmlns="http://www.w3.org/2000/svg" viewBox="0.986 -91.599 116.24 114.459" aria-hidden="true" data-sf-symbol="cloud.sun.bolt">
 <g fill="black">
  <path d="M 75.096 -24.382 C 73.563 -24.382 72.297 -23.081 72.297 -21.613 L 72.297 -12.815 C 72.297 -11.264 73.563 -10.031 75.096 -10.031 C 76.648 -10.031 77.88 -11.264 77.88 -12.815 L 77.88 -21.613 C 77.88 -23.081 76.648 -24.382 75.096 -24.382 Z"/>
  <path d="M 50.677 1.909 L 42.531 1.909 L 42.562 3.425 L 47.026 -4.957 C 47.465 -5.787 47.124 -6.418 46.278 -6.418 L 39.218 -6.418 C 38.162 -6.418 37.805 -6.027 37.463 -5.25 L 32.653 5.742 C 32.213 6.667 32.68 7.237 33.641 7.237 L 40.229 7.237 L 40.717 4.995 L 34.899 18.961 C 34.689 19.48 34.802 19.886 35.159 20.032 C 35.516 20.179 35.937 20.066 36.312 19.63 L 51.32 3.701 C 52.041 2.889 51.752 1.909 50.677 1.909 Z"/>
  <path d="M 75.111 -30.646 C 85.499 -30.646 93.847 -39.028 93.847 -49.431 C 93.847 -59.848 85.499 -68.196 75.111 -68.196 C 64.709 -68.196 56.395 -59.848 56.395 -49.431 C 56.395 -39.028 64.709 -30.646 75.111 -30.646 Z M 75.111 -35.62 C 67.389 -35.62 61.368 -41.689 61.368 -49.431 C 61.368 -57.187 67.389 -63.223 75.111 -63.223 C 82.834 -63.223 88.873 -57.187 88.873 -49.431 C 88.873 -41.689 82.834 -35.62 75.111 -35.62 Z M 75.096 -74.48 C 76.648 -74.48 77.88 -75.761 77.88 -77.264 L 77.88 -86.062 C 77.88 -87.579 76.648 -88.831 75.096 -88.831 C 73.563 -88.831 72.297 -87.579 72.297 -86.062 L 72.297 -77.264 C 72.297 -75.761 73.563 -74.48 75.096 -74.48 Z M 92.802 -67.106 C 93.836 -66.039 95.654 -66.005 96.771 -67.106 L 102.974 -73.344 C 104.072 -74.442 104.057 -76.21 102.974 -77.26 C 101.906 -78.328 100.156 -78.343 99.073 -77.26 L 92.802 -70.989 C 91.753 -69.939 91.787 -68.189 92.802 -67.106 Z M 100.111 -49.431 C 100.111 -47.913 101.397 -46.662 102.88 -46.662 L 111.693 -46.662 C 113.241 -46.662 114.459 -47.913 114.459 -49.431 C 114.459 -50.963 113.241 -52.215 111.693 -52.215 L 102.88 -52.215 C 101.397 -52.215 100.111 -50.963 100.111 -49.431 Z M 92.802 -31.755 C 91.787 -30.687 91.753 -28.937 92.802 -27.854 L 99.073 -21.583 C 100.156 -20.485 101.906 -20.5 102.974 -21.583 C 104.057 -22.651 104.072 -24.435 102.974 -25.518 L 96.771 -31.755 C 95.654 -32.872 93.836 -32.838 92.802 -31.755 Z M 57.42 -31.755 C 56.371 -32.838 54.554 -32.872 53.471 -31.755 L 47.267 -25.518 C 46.184 -24.435 46.199 -22.651 47.267 -21.583 C 48.35 -20.5 50.085 -20.485 51.149 -21.583 L 57.42 -27.854 C 58.488 -28.937 58.455 -30.687 57.42 -31.755 Z M 50.111 -49.431 C 50.111 -50.963 48.845 -52.215 47.327 -52.215 L 38.514 -52.215 C 37.015 -52.215 35.764 -50.963 35.764 -49.431 C 35.764 -47.913 37.015 -46.662 38.514 -46.662 L 47.327 -46.662 C 48.845 -46.662 50.111 -47.913 50.111 -49.431 Z M 57.42 -67.106 C 58.455 -68.189 58.488 -69.939 57.42 -70.989 L 51.149 -77.26 C 50.085 -78.343 48.35 -78.328 47.267 -77.26 C 46.199 -76.21 46.184 -74.442 47.267 -73.344 L 53.471 -67.106 C 54.554 -66.005 56.371 -66.039 57.42 -67.106 Z"/>
  <path d="M 19.69 -11.914 L 61.222 -11.914 C 72.135 -11.914 80.614 -20.152 80.614 -30.745 C 80.614 -41.304 72.007 -49.25 60.643 -49.4 C 56.181 -57.795 48.33 -63.036 38.81 -63.036 C 26.256 -63.036 15.816 -53.255 14.574 -40.703 C 8.208 -38.755 3.754 -33.363 3.754 -26.399 C 3.754 -18.039 10.084 -11.914 19.69 -11.914 Z"/>
  <path d="M 19.57 -17.28 C 12.797 -17.28 9.136 -21.228 9.136 -26.265 C 9.136 -30.627 11.773 -34.32 17.476 -35.857 C 19.194 -36.319 19.775 -37.065 19.925 -38.808 C 20.792 -49.627 29.015 -57.655 38.81 -57.655 C 46.606 -57.655 52.521 -53.259 56.101 -46.115 C 56.828 -44.596 57.721 -44.101 59.521 -44.101 C 69.327 -44.101 75.233 -37.973 75.233 -30.58 C 75.233 -23.199 69.186 -17.28 61.29 -17.28 Z"/>
 </g>
</svg>
