<svg xmlns="http://www.w3.org/2000/svg" viewBox="0.971 -91.614 116.272 112.422" aria-hidden="true" data-sf-symbol="cloud.sun.rain">
 <g fill="black">
  <path d="M 75.127 -24.33 C 73.627 -24.33 72.312 -23.014 72.312 -21.545 L 72.312 -12.714 C 72.312 -11.23 73.627 -9.915 75.127 -9.915 C 76.644 -9.915 77.941 -11.23 77.941 -12.714 L 77.941 -21.545 C 77.941 -23.014 76.644 -24.33 75.127 -24.33 Z"/>
  <path d="M 61.255 16.905 L 66.46 7.948 C 67.105 6.842 66.772 5.631 65.745 5.05 C 64.699 4.469 63.537 4.784 62.877 5.875 L 57.671 14.914 C 57.06 15.938 57.359 17.149 58.42 17.745 C 59.448 18.326 60.677 17.977 61.255 16.905 Z"/>
  <path d="M 49.265 6.178 L 54.456 -2.812 C 55.082 -3.919 54.767 -5.096 53.721 -5.711 C 52.675 -6.292 51.547 -5.977 50.887 -4.886 L 45.647 4.153 C 45.07 5.177 45.336 6.388 46.397 6.984 C 47.443 7.565 48.654 7.217 49.265 6.178 Z"/>
  <path d="M 30.82 16.938 L 36.025 7.982 C 36.637 6.875 36.337 5.665 35.31 5.083 C 34.264 4.502 33.102 4.817 32.441 5.875 L 27.236 14.933 C 26.625 15.972 26.924 17.149 27.985 17.779 C 29.013 18.326 30.242 17.996 30.82 16.938 Z"/>
  <path d="M 18.83 6.211 L 24.021 -2.779 C 24.647 -3.885 24.332 -5.062 23.286 -5.677 C 22.24 -6.258 21.078 -5.943 20.452 -4.852 L 15.212 4.187 C 14.635 5.211 14.901 6.422 15.962 7.018 C 17.008 7.599 18.219 7.25 18.83 6.211 Z"/>
  <path d="M 75.111 -30.613 C 85.397 -30.613 93.847 -39.096 93.847 -49.397 C 93.847 -59.713 85.397 -68.163 75.111 -68.163 C 64.844 -68.163 56.395 -59.713 56.395 -49.397 C 56.395 -39.096 64.844 -30.613 75.111 -30.613 Z M 75.111 -35.602 C 67.478 -35.602 61.383 -41.715 61.383 -49.397 C 61.383 -57.045 67.478 -63.14 75.111 -63.14 C 82.778 -63.14 88.858 -57.045 88.858 -49.397 C 88.858 -41.715 82.778 -35.602 75.111 -35.602 Z M 75.127 -74.464 C 76.644 -74.464 77.941 -75.728 77.941 -77.23 L 77.941 -86.062 C 77.941 -87.545 76.644 -88.846 75.127 -88.846 C 73.627 -88.846 72.312 -87.545 72.312 -86.062 L 72.312 -77.23 C 72.312 -75.728 73.627 -74.464 75.127 -74.464 Z M 92.787 -67.058 C 93.87 -65.99 95.654 -65.941 96.786 -67.058 L 103.023 -73.295 C 104.136 -74.408 104.106 -76.21 103.023 -77.275 C 101.94 -78.343 100.156 -78.373 99.092 -77.275 L 92.787 -71.004 C 91.689 -69.939 91.738 -68.156 92.787 -67.058 Z M 100.096 -49.397 C 100.096 -47.879 101.397 -46.613 102.88 -46.613 L 111.693 -46.613 C 113.241 -46.613 114.474 -47.879 114.474 -49.397 C 114.474 -50.896 113.241 -52.196 111.693 -52.196 L 102.88 -52.196 C 101.397 -52.196 100.096 -50.896 100.096 -49.397 Z M 92.787 -31.703 C 91.738 -30.62 91.689 -28.836 92.787 -27.738 L 99.092 -21.467 C 100.156 -20.354 101.94 -20.451 103.023 -21.5 C 104.106 -22.55 104.136 -24.333 103.023 -25.432 L 96.752 -31.703 C 95.654 -32.767 93.87 -32.752 92.787 -31.703 Z M 57.436 -31.703 C 56.337 -32.752 54.554 -32.767 53.456 -31.703 L 47.218 -25.465 C 46.12 -24.367 46.15 -22.583 47.185 -21.534 C 48.283 -20.451 50.085 -20.387 51.131 -21.5 L 57.402 -27.738 C 58.485 -28.836 58.47 -30.62 57.436 -31.703 Z M 50.127 -49.397 C 50.127 -50.896 48.845 -52.196 47.327 -52.196 L 38.514 -52.196 C 37.015 -52.196 35.733 -50.896 35.733 -49.397 C 35.733 -47.879 37.015 -46.613 38.514 -46.613 L 47.327 -46.613 C 48.845 -46.613 50.127 -47.879 50.127 -49.397 Z M 57.402 -67.058 C 58.47 -68.122 58.485 -69.973 57.436 -71.004 L 51.165 -77.275 C 50.085 -78.339 48.35 -78.343 47.252 -77.275 C 46.184 -76.21 46.154 -74.408 47.218 -73.329 L 53.456 -67.058 C 54.554 -65.975 56.337 -65.99 57.402 -67.058 Z"/>
  <path d="M 19.69 -11.898 L 61.222 -11.898 C 72.15 -11.898 80.645 -20.137 80.645 -30.745 C 80.645 -41.304 72.022 -49.265 60.658 -49.415 C 56.196 -57.81 48.33 -63.066 38.81 -63.066 C 26.256 -63.066 15.801 -53.27 14.559 -40.718 C 8.192 -38.77 3.739 -33.363 3.739 -26.399 C 3.739 -18.009 10.069 -11.898 19.69 -11.898 Z"/>
  <path d="M 19.57 -17.31 C 12.812 -17.31 9.166 -21.276 9.166 -26.265 C 9.166 -30.611 11.789 -34.305 17.476 -35.842 C 19.209 -36.304 19.79 -37.05 19.94 -38.808 C 20.807 -49.612 29.03 -57.64 38.81 -57.64 C 46.591 -57.64 52.506 -53.244 56.085 -46.085 C 56.813 -44.581 57.721 -44.086 59.521 -44.086 C 69.312 -44.086 75.218 -37.958 75.218 -30.58 C 75.218 -23.214 69.17 -17.31 61.29 -17.31 Z"/>
 </g>
</svg>
