<svg xmlns="http://www.w3.org/2000/svg" viewBox="4.544 -80.883 91.602 96.255" aria-hidden="true" data-sf-symbol="cloud.bolt">
 <g fill="black">
  <path d="M 58.571 -6.312 L 50.189 -6.312 L 50.236 -4.744 L 55.042 -14.019 C 55.482 -14.849 55.14 -15.499 54.295 -15.499 L 46.998 -15.499 C 45.909 -15.499 45.519 -15.108 45.177 -14.312 L 39.94 -2.344 C 39.535 -1.386 39.967 -0.815 40.962 -0.815 L 47.752 -0.815 L 48.24 -3.092 L 42.061 11.915 C 41.851 12.434 41.963 12.873 42.32 13.02 C 42.677 13.166 43.098 13.053 43.507 12.617 L 59.23 -4.453 C 60.002 -5.298 59.679 -6.312 58.571 -6.312 Z"/>
  <path d="M 24.556 -21.055 L 72.173 -21.055 C 84.569 -21.055 93.854 -30.436 93.854 -42.077 C 93.854 -54.101 83.977 -62.907 71.148 -62.907 C 66.363 -72.449 57.617 -78.591 46.441 -78.591 C 32.178 -78.591 20.423 -67.312 19.184 -53.103 C 12.208 -51.146 6.836 -45.19 6.836 -37.13 C 6.836 -28.25 13.329 -21.055 24.556 -21.055 Z M 24.489 -26.437 C 16.394 -26.437 12.232 -31.08 12.232 -36.996 C 12.232 -41.918 15.239 -46.236 21.802 -47.976 C 23.752 -48.471 24.431 -49.367 24.581 -51.324 C 25.448 -63.904 35.117 -73.194 46.441 -73.194 C 55.436 -73.194 62.395 -68.21 66.511 -59.72 C 67.336 -57.987 68.36 -57.391 70.442 -57.391 C 81.698 -57.391 88.457 -50.406 88.457 -41.946 C 88.457 -33.363 81.522 -26.437 72.461 -26.437 Z"/>
 </g>
</svg>
