<svg xmlns="http://www.w3.org/2000/svg" viewBox="4.557 -68.066 95.703 64.741" aria-hidden="true" data-sf-symbol="cloud">
 <g fill="black">
  <path d="M 25.319 -5.603 L 75.295 -5.603 C 88.041 -5.603 97.982 -15.235 97.982 -27.567 C 97.982 -40.009 87.819 -49.404 74.086 -49.389 C 69.004 -59.52 59.819 -65.787 48.293 -65.787 C 33.548 -65.787 21.122 -54.225 19.8 -39.014 C 12.18 -36.858 6.836 -30.539 6.836 -22.376 C 6.836 -13.105 13.588 -5.603 25.319 -5.603 Z M 25.251 -11.029 C 17.088 -11.029 12.278 -15.613 12.278 -22.208 C 12.278 -27.962 16.003 -32.169 22.384 -33.856 C 24.35 -34.367 25.062 -35.244 25.212 -37.269 C 26.128 -50.364 36.181 -60.36 48.293 -60.36 C 57.893 -60.36 65.208 -54.981 69.517 -46.104 C 70.327 -44.372 71.366 -43.794 73.496 -43.794 C 85.39 -43.794 92.506 -36.384 92.506 -27.402 C 92.506 -18.279 85.129 -11.029 75.65 -11.029 Z"/>
 </g>
</svg>
