<svg xmlns="http://www.w3.org/2000/svg" viewBox="4.559 -80.868 91.572 95.623" aria-hidden="true" data-sf-symbol="cloud.snow">
 <g fill="black">
  <path d="M 61.084 12.479 C 61.786 12.479 62.248 11.841 62.214 11.154 L 61.981 7.442 L 65.078 9.508 C 65.664 9.883 66.452 9.749 66.827 9.178 C 67.188 8.607 66.962 7.782 66.241 7.44 L 62.928 5.79 L 66.275 4.106 C 66.962 3.765 67.154 2.973 66.861 2.387 C 66.519 1.783 65.664 1.697 65.078 2.072 L 61.981 4.187 L 62.248 0.441 C 62.315 -0.295 61.786 -0.899 61.084 -0.899 C 60.314 -0.899 59.853 -0.295 59.887 0.441 L 60.119 4.187 L 56.989 2.072 C 56.437 1.697 55.649 1.749 55.289 2.387 C 54.947 2.973 55.12 3.746 55.826 4.106 L 59.154 5.79 L 55.826 7.455 C 55.105 7.797 54.913 8.573 55.24 9.178 C 55.582 9.797 56.437 9.898 56.989 9.523 L 60.119 7.457 L 59.92 11.154 C 59.887 11.841 60.314 12.479 61.084 12.479 Z"/>
  <path d="M 39.893 12.479 C 40.595 12.479 41.056 11.841 41.022 11.154 L 40.79 7.442 L 43.886 9.508 C 44.472 9.883 45.26 9.749 45.636 9.178 C 45.996 8.607 45.771 7.782 45.05 7.44 L 41.736 5.79 L 45.084 4.106 C 45.771 3.765 45.962 2.973 45.669 2.387 C 45.328 1.783 44.472 1.697 43.886 2.072 L 40.79 4.187 L 41.056 0.441 C 41.124 -0.295 40.595 -0.899 39.893 -0.899 C 39.123 -0.899 38.662 -0.295 38.695 0.441 L 38.928 4.187 L 35.798 2.072 C 35.246 1.697 34.458 1.749 34.097 2.387 C 33.755 2.973 33.929 3.746 34.634 4.106 L 37.963 5.79 L 34.634 7.455 C 33.914 7.797 33.722 8.573 34.048 9.178 C 34.39 9.797 35.246 9.898 35.798 9.523 L 38.928 7.457 L 38.729 11.154 C 38.695 11.841 39.123 12.479 39.893 12.479 Z"/>
  <path d="M 18.701 12.479 C 19.403 12.479 19.865 11.841 19.831 11.154 L 19.599 7.442 L 22.695 9.508 C 23.281 9.883 24.069 9.749 24.444 9.178 C 24.805 8.607 24.579 7.782 23.858 7.44 L 20.545 5.79 L 23.892 4.106 C 24.579 3.765 24.771 2.973 24.478 2.387 C 24.136 1.783 23.281 1.697 22.695 2.072 L 19.599 4.187 L 19.865 0.441 C 19.932 -0.295 19.403 -0.899 18.701 -0.899 C 17.932 -0.899 17.47 -0.295 17.504 0.441 L 17.736 4.187 L 14.606 2.072 C 14.054 1.697 13.266 1.749 12.906 2.387 C 12.564 2.973 12.737 3.746 13.443 4.106 L 16.771 5.79 L 13.443 7.455 C 12.722 7.797 12.53 8.573 12.857 9.178 C 13.199 9.797 14.054 9.898 14.606 9.523 L 17.736 7.457 L 17.538 11.154 C 17.504 11.841 17.932 12.479 18.701 12.479 Z"/>
  <path d="M 69.385 -1.876 C 70.087 -1.876 70.548 -2.514 70.515 -3.201 L 70.282 -6.914 L 73.378 -4.848 C 73.964 -4.472 74.752 -4.607 75.128 -5.178 C 75.488 -5.749 75.263 -6.574 74.542 -6.916 L 71.229 -8.565 L 74.576 -10.249 C 75.263 -10.591 75.455 -11.382 75.162 -11.968 C 74.82 -12.573 73.964 -12.659 73.378 -12.283 L 70.282 -10.168 L 70.548 -13.915 C 70.616 -14.65 70.087 -15.255 69.385 -15.255 C 68.615 -15.255 68.154 -14.65 68.188 -13.915 L 68.42 -10.168 L 65.29 -12.283 C 64.738 -12.659 63.95 -12.606 63.589 -11.968 C 63.248 -11.382 63.421 -10.609 64.126 -10.249 L 67.455 -8.565 L 64.126 -6.9 C 63.406 -6.559 63.214 -5.782 63.541 -5.178 C 63.882 -4.558 64.738 -4.457 65.29 -4.833 L 68.42 -6.898 L 68.221 -3.201 C 68.188 -2.514 68.615 -1.876 69.385 -1.876 Z"/>
  <path d="M 48.193 -1.876 C 48.896 -1.876 49.357 -2.514 49.323 -3.201 L 49.091 -6.914 L 52.187 -4.848 C 52.773 -4.472 53.561 -4.607 53.937 -5.178 C 54.297 -5.749 54.071 -6.574 53.351 -6.916 L 50.037 -8.565 L 53.384 -10.249 C 54.071 -10.591 54.263 -11.382 53.97 -11.968 C 53.628 -12.573 52.773 -12.659 52.187 -12.283 L 49.091 -10.168 L 49.357 -13.915 C 49.424 -14.65 48.896 -15.255 48.193 -15.255 C 47.424 -15.255 46.962 -14.65 46.996 -13.915 L 47.229 -10.168 L 44.099 -12.283 C 43.546 -12.659 42.758 -12.606 42.398 -11.968 C 42.056 -11.382 42.23 -10.609 42.935 -10.249 L 46.264 -8.565 L 42.935 -6.9 C 42.214 -6.559 42.022 -5.782 42.349 -5.178 C 42.691 -4.558 43.546 -4.457 44.099 -4.833 L 47.229 -6.898 L 47.03 -3.201 C 46.996 -2.514 47.424 -1.876 48.193 -1.876 Z"/>
  <path d="M 27.002 -1.876 C 27.704 -1.876 28.166 -2.514 28.132 -3.201 L 27.899 -6.914 L 30.996 -4.848 C 31.582 -4.472 32.37 -4.607 32.745 -5.178 C 33.105 -5.749 32.88 -6.574 32.159 -6.916 L 28.846 -8.565 L 32.193 -10.249 C 32.88 -10.591 33.072 -11.382 32.779 -11.968 C 32.437 -12.573 31.582 -12.659 30.996 -12.283 L 27.899 -10.168 L 28.166 -13.915 C 28.233 -14.65 27.704 -15.255 27.002 -15.255 C 26.232 -15.255 25.771 -14.65 25.805 -13.915 L 26.037 -10.168 L 22.907 -12.283 C 22.355 -12.659 21.567 -12.606 21.207 -11.968 C 20.865 -11.382 21.038 -10.609 21.744 -10.249 L 25.072 -8.565 L 21.744 -6.9 C 21.023 -6.559 20.831 -5.782 21.158 -5.178 C 21.5 -4.558 22.355 -4.457 22.907 -4.833 L 26.037 -6.898 L 25.838 -3.201 C 25.805 -2.514 26.232 -1.876 27.002 -1.876 Z"/>
  <path d="M 24.556 -21.055 L 72.173 -21.055 C 84.569 -21.055 93.854 -30.436 93.854 -42.077 C 93.854 -54.101 83.977 -62.907 71.148 -62.907 C 66.363 -72.449 57.617 -78.591 46.441 -78.591 C 32.178 -78.591 20.423 -67.312 19.184 -53.103 C 12.208 -51.146 6.836 -45.19 6.836 -37.13 C 6.836 -28.25 13.329 -21.055 24.556 -21.055 Z M 24.489 -26.437 C 16.394 -26.437 12.232 -31.08 12.232 -36.996 C 12.232 -41.918 15.239 -46.236 21.802 -47.976 C 23.752 -48.471 24.431 -49.367 24.581 -51.324 C 25.448 -63.904 35.117 -73.194 46.441 -73.194 C 55.436 -73.194 62.395 -68.21 66.511 -59.72 C 67.336 -57.987 68.36 -57.391 70.442 -57.391 C 81.698 -57.391 88.457 -50.406 88.457 -41.946 C 88.457 -33.363 81.522 -26.437 72.461 -26.437 Z"/>
 </g>
</svg>
