<svg xmlns="http://www.w3.org/2000/svg" viewBox="4.918 -75.623 80.061 80.543" aria-hidden="true" data-sf-symbol="moon">
 <g fill="black">
  <path d="M 46.645 3.003 C 63.188 3.003 76.728 -6.957 82.689 -19.906 C 83.791 -22.255 82.318 -23.921 80.02 -23.182 C 77.256 -22.224 72.485 -21.158 67.81 -21.158 C 44.743 -21.158 31.59 -34.278 31.59 -57.36 C 31.59 -61.909 32.597 -66.654 34.06 -70.357 C 35.057 -72.884 33.325 -74.428 30.918 -73.364 C 17.893 -67.796 6.836 -54.1 6.836 -36.806 C 6.836 -14.84 24.679 3.003 46.645 3.003 Z M 46.645 -2.222 C 27.576 -2.222 12.094 -17.737 12.094 -36.806 C 12.094 -49.551 19.197 -59.688 27.41 -65.284 C 26.754 -62.699 26.365 -60.211 26.365 -57.36 C 26.365 -31.381 41.831 -15.915 67.81 -15.915 C 70.358 -15.915 72.712 -16.315 74.512 -16.719 C 68.573 -8.171 58.477 -2.222 46.645 -2.222 Z"/>
 </g>
</svg>
