<svg xmlns="http://www.w3.org/2000/svg" viewBox="4.772 -78.593 86.525 86.677" aria-hidden="true" data-sf-symbol="sun.max.fill">
 <g fill="black">
  <path d="M 48.044 -62.171 C 49.641 -62.171 50.926 -63.49 50.926 -65.086 L 50.926 -73.663 C 50.926 -75.244 49.641 -76.529 48.044 -76.529 C 46.429 -76.529 45.144 -75.244 45.144 -73.663 L 45.144 -65.086 C 45.144 -63.49 46.429 -62.171 48.044 -62.171 Z M 67.016 -54.259 C 68.163 -53.143 70.014 -53.094 71.164 -54.259 L 77.249 -60.295 C 78.347 -61.427 78.332 -63.312 77.249 -64.459 C 76.102 -65.56 74.25 -65.575 73.134 -64.459 L 67.016 -58.34 C 65.933 -57.242 65.948 -55.391 67.016 -54.259 Z M 74.894 -35.254 C 74.894 -33.672 76.228 -32.338 77.809 -32.338 L 86.318 -32.338 C 87.948 -32.338 89.233 -33.672 89.233 -35.254 C 89.233 -36.835 87.948 -38.169 86.318 -38.169 L 77.809 -38.169 C 76.228 -38.169 74.894 -36.835 74.894 -35.254 Z M 67.016 -16.215 C 65.948 -15.083 65.933 -13.266 67.016 -12.134 L 73.134 -6.016 C 74.25 -4.899 76.102 -4.948 77.249 -6.049 C 78.332 -7.196 78.347 -9.047 77.249 -10.179 L 71.13 -16.215 C 70.014 -17.347 68.163 -17.332 67.016 -16.215 Z M 48.044 -8.337 C 46.429 -8.337 45.144 -7.018 45.144 -5.421 L 45.144 3.155 C 45.144 4.736 46.429 6.021 48.044 6.021 C 49.641 6.021 50.926 4.736 50.926 3.155 L 50.926 -5.421 C 50.926 -7.018 49.641 -8.337 48.044 -8.337 Z M 29.054 -16.215 C 27.907 -17.332 26.022 -17.347 24.905 -16.215 L 18.854 -10.213 C 17.723 -9.081 17.738 -7.23 18.821 -6.083 C 19.953 -4.981 21.819 -4.933 22.936 -6.049 L 29.02 -12.134 C 30.137 -13.266 30.122 -15.083 29.054 -16.215 Z M 21.161 -35.254 C 21.161 -36.835 19.875 -38.169 18.26 -38.169 L 9.751 -38.169 C 8.121 -38.169 6.836 -36.835 6.836 -35.254 C 6.836 -33.672 8.121 -32.338 9.751 -32.338 L 18.26 -32.338 C 19.875 -32.338 21.161 -33.672 21.161 -35.254 Z M 29.02 -54.259 C 30.122 -55.357 30.137 -57.242 29.054 -58.34 L 22.969 -64.459 C 21.886 -65.541 19.986 -65.56 18.888 -64.459 C 17.771 -63.312 17.756 -61.427 18.854 -60.329 L 24.905 -54.259 C 26.022 -53.127 27.873 -53.143 29.02 -54.259 Z"/>
  <path d="M 48.014 -16.107 C 58.573 -16.107 67.16 -24.676 67.16 -35.254 C 67.16 -45.832 58.573 -54.4 48.014 -54.4 C 37.436 -54.4 28.833 -45.832 28.833 -35.254 C 28.833 -24.676 37.436 -16.107 48.014 -16.107 Z"/>
 </g>
</svg>
