<svg xmlns="http://www.w3.org/2000/svg" viewBox="2.238 -77.342 113.086 90.063" aria-hidden="true" data-sf-symbol="sunset.fill">
 <g fill="black">
  <path d="M 58.789 6.746 C 70.003 6.746 79.297 -2.583 79.297 -13.796 C 79.297 -25.01 70.003 -34.372 58.789 -34.372 C 47.56 -34.372 38.232 -25.01 38.232 -13.796 C 38.232 -2.583 47.56 6.746 58.789 6.746 Z M 17.586 -11.992 L 27.888 -11.992 C 29.623 -11.992 30.942 -13.24 30.908 -14.724 C 30.875 -16.242 29.608 -17.456 27.888 -17.456 L 17.586 -17.456 C 15.881 -17.456 14.648 -16.242 14.648 -14.724 C 14.648 -13.24 15.881 -11.992 17.586 -11.992 Z M 34.993 -33.661 C 36.214 -32.44 38.013 -32.406 39.062 -33.474 C 40.097 -34.557 40.097 -36.322 38.875 -37.543 L 31.59 -44.829 C 30.357 -46.062 28.641 -45.998 27.588 -44.949 C 26.49 -43.915 26.475 -42.165 27.741 -40.947 Z M 78.516 -33.474 C 79.583 -32.44 81.349 -32.44 82.551 -33.661 L 89.837 -40.947 C 91.088 -42.165 91.04 -43.881 89.99 -44.949 C 88.956 -46.032 87.206 -46.062 85.955 -44.829 L 78.669 -37.543 C 77.466 -36.322 77.433 -34.523 78.516 -33.474 Z M 89.641 -11.992 L 99.943 -11.992 C 101.663 -11.992 102.93 -13.24 102.93 -14.724 C 102.93 -16.242 101.663 -17.456 99.943 -17.456 L 89.641 -17.456 C 87.937 -17.456 86.636 -16.242 86.67 -14.724 C 86.704 -13.24 87.937 -11.992 89.641 -11.992 Z"/>
  <path d="M 13.018 10.029 L 104.56 10.029 C 109.244 10.029 112.632 6.511 112.632 2.265 C 112.632 -1.965 109.244 -5.465 104.56 -5.465 L 13.018 -5.465 C 8.334 -5.465 4.931 -1.965 4.931 2.265 C 4.931 6.511 8.334 10.029 13.018 10.029 Z"/>
  <path d="M 12.696 4.126 L 104.867 4.126 C 106.448 4.126 107.812 2.909 107.812 1.428 C 107.812 -0.071 106.448 -1.255 104.867 -1.255 L 12.696 -1.255 C 11.081 -1.255 9.766 -0.071 9.766 1.428 C 9.766 2.909 11.081 4.126 12.696 4.126 Z"/>
  <path d="M 58.789 -48.155 L 53.714 -54.17 L 48.287 -59.643 C 47.773 -60.108 47.125 -60.408 46.491 -60.408 C 45.112 -60.408 44.148 -59.478 44.148 -58.117 C 44.148 -57.39 44.396 -56.827 44.974 -56.298 L 56.979 -44.967 C 57.679 -44.334 58.174 -44.086 58.823 -44.086 C 59.422 -44.086 59.951 -44.334 60.652 -44.967 L 72.623 -56.298 C 73.234 -56.827 73.497 -57.39 73.497 -58.117 C 73.497 -59.478 72.519 -60.408 71.154 -60.408 C 70.506 -60.408 69.824 -60.108 69.359 -59.643 L 64.234 -54.458 Z M 61.053 -49.437 L 61.536 -56.994 L 61.536 -71.682 C 61.536 -73.315 60.254 -74.649 58.789 -74.649 C 57.275 -74.649 56.042 -73.315 56.042 -71.682 L 56.042 -56.994 L 56.492 -49.437 C 56.593 -48.155 57.507 -47.14 58.789 -47.14 C 60.022 -47.14 60.985 -48.155 61.053 -49.437 Z"/>
 </g>
</svg>
