<svg xmlns="http://www.w3.org/2000/svg" viewBox="2.238 -77.342 113.086 93.797" aria-hidden="true" data-sf-symbol="sunset">
 <g fill="black">
  <path d="M 58.789 7.091 C 70.101 7.091 79.493 -2.286 79.493 -13.646 C 79.493 -25.041 70.101 -34.433 58.789 -34.433 C 47.462 -34.433 38.037 -25.041 38.037 -13.646 C 38.037 -2.286 47.462 7.091 58.789 7.091 Z M 58.789 1.661 C 50.359 1.661 43.482 -5.25 43.482 -13.646 C 43.482 -22.076 50.359 -28.987 58.789 -28.987 C 67.185 -28.987 74.081 -22.076 74.081 -13.646 C 74.081 -5.25 67.185 1.661 58.789 1.661 Z M 17.586 -11.891 L 27.888 -11.891 C 29.623 -11.891 30.942 -13.139 30.908 -14.623 C 30.875 -16.141 29.608 -17.355 27.888 -17.355 L 17.586 -17.355 C 15.881 -17.355 14.648 -16.141 14.648 -14.623 C 14.648 -13.139 15.881 -11.891 17.586 -11.891 Z M 39.062 -33.373 C 40.097 -34.456 40.097 -36.221 38.875 -37.442 L 31.59 -44.728 C 30.357 -45.946 28.641 -45.897 27.588 -44.848 C 26.49 -43.847 26.475 -42.082 27.741 -40.846 L 34.993 -33.56 C 36.214 -32.373 38.013 -32.339 39.062 -33.373 Z M 78.516 -33.373 C 79.583 -32.373 81.349 -32.373 82.551 -33.56 L 89.837 -40.846 C 91.088 -42.082 91.04 -43.813 89.99 -44.848 C 88.956 -45.931 87.206 -45.946 85.955 -44.728 L 78.669 -37.442 C 77.466 -36.221 77.433 -34.422 78.516 -33.373 Z M 89.641 -11.891 L 99.943 -11.891 C 101.663 -11.891 102.93 -13.139 102.93 -14.623 C 102.93 -16.141 101.663 -17.355 99.943 -17.355 L 89.641 -17.355 C 87.937 -17.355 86.636 -16.141 86.67 -14.623 C 86.704 -13.139 87.937 -11.891 89.641 -11.891 Z"/>
  <path d="M 12.696 13.763 L 104.867 13.763 C 109.138 13.763 112.632 10.384 112.632 6.263 C 112.632 2.124 109.138 -1.255 104.867 -1.255 L 12.696 -1.255 C 8.44 -1.255 4.931 2.124 4.931 6.263 C 4.931 10.384 8.44 13.763 12.696 13.763 Z"/>
  <path d="M 12.696 4.126 L 104.867 4.126 C 106.448 4.126 107.812 2.909 107.812 1.428 C 107.812 -0.071 106.448 -1.255 104.867 -1.255 L 12.696 -1.255 C 11.081 -1.255 9.766 -0.071 9.766 1.428 C 9.766 2.909 11.081 4.126 12.696 4.126 Z"/>
  <path d="M 58.789 -48.155 L 53.714 -54.17 L 48.287 -59.643 C 47.773 -60.108 47.125 -60.408 46.491 -60.408 C 45.112 -60.408 44.148 -59.478 44.148 -58.117 C 44.148 -57.39 44.396 -56.827 44.974 -56.298 L 56.979 -44.967 C 57.679 -44.334 58.174 -44.086 58.823 -44.086 C 59.422 -44.086 59.951 -44.334 60.652 -44.967 L 72.623 -56.298 C 73.234 -56.827 73.497 -57.39 73.497 -58.117 C 73.497 -59.478 72.519 -60.408 71.154 -60.408 C 70.506 -60.408 69.824 -60.108 69.359 -59.643 L 64.234 -54.458 Z M 61.053 -49.437 L 61.536 -56.994 L 61.536 -71.682 C 61.536 -73.315 60.254 -74.649 58.789 -74.649 C 57.275 -74.649 56.042 -73.315 56.042 -71.682 L 56.042 -56.994 L 56.492 -49.437 C 56.593 -48.155 57.507 -47.14 58.789 -47.14 C 60.022 -47.14 60.985 -48.155 61.053 -49.437 Z"/>
 </g>
</svg>
