<svg xmlns="http://www.w3.org/2000/svg" viewBox="2.996 -94.204 86.524 108.131" aria-hidden="true" data-sf-symbol="thermometer.sun.fill">
 <g fill="black">
  <path d="M 29.986 -69.905 C 31.021 -70.939 31.054 -72.738 29.986 -73.772 L 23.715 -80.043 C 22.651 -81.142 20.916 -81.126 19.848 -80.043 C 18.765 -78.976 18.75 -77.207 19.848 -76.143 L 26.052 -69.905 C 27.153 -68.789 28.971 -68.822 29.986 -69.905 Z M 22.711 -52.245 C 22.711 -53.762 21.459 -55.029 19.96 -55.029 L 11.144 -55.029 C 9.63 -55.029 8.378 -53.762 8.378 -52.245 C 8.378 -50.693 9.63 -49.46 11.144 -49.46 L 19.96 -49.46 C 21.459 -49.46 22.711 -50.693 22.711 -52.245 Z M 29.986 -34.505 C 28.937 -35.539 27.187 -35.539 26.119 -34.505 L 19.848 -28.268 C 18.75 -27.203 18.765 -25.435 19.848 -24.351 C 20.916 -23.284 22.651 -23.235 23.715 -24.318 L 29.986 -30.57 C 31.054 -31.638 31.054 -33.422 29.986 -34.505 Z M 47.662 -27.211 C 46.145 -27.211 44.863 -25.895 44.863 -24.427 L 44.863 -15.629 C 44.863 -14.078 46.145 -12.86 47.662 -12.86 C 49.213 -12.86 50.461 -14.078 50.461 -15.629 L 50.461 -24.427 C 50.461 -25.895 49.213 -27.211 47.662 -27.211 Z"/>
  <path d="M 47.662 -33.46 C 58.064 -33.46 66.397 -41.827 66.397 -52.245 C 66.397 -62.662 58.064 -70.995 47.662 -70.995 C 37.26 -70.995 28.96 -62.662 28.96 -52.245 C 28.96 -41.827 37.26 -33.46 47.662 -33.46 Z M 47.662 -77.278 C 49.213 -77.278 50.461 -78.545 50.461 -80.062 L 50.461 -88.845 C 50.461 -90.378 49.213 -91.629 47.662 -91.629 C 46.145 -91.629 44.863 -90.378 44.863 -88.845 L 44.863 -80.062 C 44.863 -78.545 46.145 -77.278 47.662 -77.278 Z M 65.338 -69.905 C 66.372 -68.822 68.205 -68.789 69.306 -69.905 L 75.51 -76.143 C 76.608 -77.207 76.593 -78.976 75.51 -80.043 C 74.442 -81.126 72.707 -81.142 71.609 -80.043 L 65.338 -73.772 C 64.289 -72.738 64.322 -70.939 65.338 -69.905 Z M 72.613 -52.245 C 72.613 -50.693 73.898 -49.46 75.397 -49.46 L 84.18 -49.46 C 85.728 -49.46 86.946 -50.693 86.946 -52.245 C 86.946 -53.762 85.728 -55.029 84.18 -55.029 L 75.397 -55.029 C 73.898 -55.029 72.613 -53.762 72.613 -52.245 Z M 65.338 -34.505 C 64.289 -33.422 64.289 -31.638 65.338 -30.57 L 71.609 -24.318 C 72.707 -23.235 74.442 -23.284 75.51 -24.351 C 76.593 -25.435 76.608 -27.203 75.51 -28.268 L 69.239 -34.505 C 68.171 -35.539 66.406 -35.539 65.338 -34.505 Z"/>
  <path d="M 29.449 11.353 C 42.62 11.353 53.294 0.664 53.294 -12.477 C 53.294 -19.232 50.538 -25.237 45.263 -30.036 L 45.296 -65.015 C 45.296 -74.754 38.709 -81.818 29.449 -81.818 C 20.156 -81.818 13.568 -74.754 13.568 -65.015 L 13.602 -30.036 C 8.312 -25.222 5.571 -19.217 5.571 -12.477 C 5.571 0.664 16.245 11.353 29.449 11.353 Z"/>
  <path d="M 29.449 7.158 C 40.301 7.158 49.099 -1.622 49.099 -12.477 C 49.099 -18.185 46.733 -23.243 42.147 -27.291 C 41.245 -28.084 41.068 -28.565 41.068 -29.788 L 41.102 -65.015 C 41.102 -72.484 36.341 -77.624 29.449 -77.624 C 22.523 -77.624 17.763 -72.484 17.763 -65.015 L 17.763 -29.788 C 17.763 -28.565 17.586 -28.084 16.718 -27.291 C 12.131 -23.243 9.766 -18.185 9.766 -12.477 C 9.766 -1.622 18.564 7.158 29.449 7.158 Z M 29.449 2.282 C 21.307 2.282 14.724 -4.384 14.724 -12.477 C 14.724 -17.259 16.928 -21.601 21.053 -24.419 C 22.267 -25.243 22.737 -26.074 22.737 -27.664 L 22.737 -64.812 C 22.737 -69.49 25.484 -72.65 29.449 -72.65 C 33.38 -72.65 36.094 -69.49 36.094 -64.812 L 36.094 -27.664 C 36.094 -26.074 36.598 -25.243 37.812 -24.419 C 41.903 -21.601 44.141 -17.259 44.141 -12.477 C 44.141 -4.384 37.558 2.282 29.449 2.282 Z"/>
  <path d="M 29.416 -2.879 C 34.741 -2.879 38.999 -7.186 38.999 -12.511 C 38.999 -16.216 36.909 -19.275 33.869 -20.91 C 32.572 -21.59 32.151 -22.109 32.151 -24.003 L 32.151 -61.407 C 32.151 -63.232 30.968 -64.446 29.416 -64.446 C 27.897 -64.446 26.713 -63.232 26.713 -61.407 L 26.713 -24.003 C 26.713 -22.109 26.293 -21.59 24.996 -20.91 C 21.922 -19.275 19.866 -16.216 19.866 -12.511 C 19.866 -7.186 24.124 -2.879 29.416 -2.879 Z"/>
 </g>
</svg>
