<svg xmlns="http://www.w3.org/2000/svg" viewBox="4.778 -79.288 75.969 86.457" aria-hidden="true" data-sf-symbol="tornado">
 <g fill="black">
  <path d="M 42.128 -43.484 C 64.962 -43.484 78.688 -49.246 78.688 -57.195 C 78.688 -64.38 68.177 -68.837 53.002 -68.837 C 41.764 -68.837 32.828 -66.622 25.984 -63.429 C 24.342 -62.649 23.948 -61.053 24.544 -59.876 C 25.226 -58.579 26.905 -58.227 28.312 -58.838 C 34.415 -61.422 42.214 -63.913 52.698 -63.913 C 65.688 -63.913 73.426 -60.828 73.426 -57.229 C 73.426 -52.999 61.271 -48.577 41.892 -48.577 C 22.561 -48.577 12.098 -52.466 12.098 -59.846 C 12.098 -64.289 16.313 -68.934 27.283 -72.411 C 28.917 -72.946 29.614 -74.262 29.179 -75.66 C 28.681 -77.036 27.455 -77.575 25.6 -77.005 C 13.079 -73.262 6.836 -66.668 6.836 -59.711 C 6.836 -49.18 19.011 -43.484 42.128 -43.484 Z M 43.296 -31.069 C 55.232 -31.069 66.177 -32.98 73.932 -36.245 C 75.274 -36.759 75.904 -38.123 75.29 -39.319 C 74.641 -40.496 73.396 -40.68 71.871 -40.117 C 64.665 -37.287 54.369 -35.489 43.296 -35.489 C 34.964 -35.489 25.436 -36.556 18.216 -38.647 C 16.671 -39.112 15.427 -38.629 15.044 -37.351 C 14.647 -36.072 15.311 -34.858 16.889 -34.408 C 24.643 -32.211 34.688 -31.069 43.296 -31.069 Z M 45.938 -18.756 C 56.032 -18.823 65.444 -20.323 73.885 -23.199 C 75.668 -23.799 75.961 -25.23 75.53 -26.307 C 75.032 -27.502 73.836 -27.851 72.074 -27.319 C 63.791 -24.581 55.127 -23.16 45.938 -23.16 C 42.027 -23.16 37.947 -23.423 34.75 -23.893 C 33.12 -24.091 32.092 -23.458 31.875 -22.229 C 31.643 -20.999 32.291 -19.837 34.068 -19.537 C 37.024 -19.03 41.229 -18.722 45.938 -18.756 Z M 42.429 -7.129 C 49.339 -6.303 57.761 -6.468 64.87 -8.493 C 66.418 -8.909 66.98 -10.255 66.617 -11.451 C 66.186 -12.729 64.975 -13.164 63.363 -12.766 C 57.101 -11.094 49.804 -10.561 43.16 -11.451 C 41.548 -11.616 40.401 -10.867 40.236 -9.652 C 40.071 -8.374 40.72 -7.313 42.429 -7.129 Z M 39.808 4.888 C 42.135 5.211 45.135 5.166 47.568 4.857 C 49.131 4.659 49.862 3.646 49.73 2.383 C 49.599 1.255 48.688 0.457 46.997 0.67 C 44.882 0.96 42.38 0.975 40.235 0.701 C 38.657 0.502 37.712 1.304 37.547 2.398 C 37.382 3.576 38.132 4.674 39.808 4.888 Z"/>
 </g>
</svg>
