<svg xmlns="http://www.w3.org/2000/svg" viewBox="4.858 -76.789 52.048 83.07" aria-hidden="true" data-sf-symbol="tropicalstorm">
 <g fill="black">
  <path d="M 6.836 1.758 C 6.836 3.171 7.983 4.303 9.52 4.303 C 32.206 4.303 50.045 -11.54 50.045 -35.254 C 50.045 -45.768 41.345 -54.434 30.865 -54.434 C 26.626 -54.434 22.686 -52.855 19.766 -50.287 C 25.138 -62.257 37.46 -69.721 52.244 -69.721 C 53.781 -69.721 54.928 -70.853 54.928 -72.266 C 54.928 -73.712 53.781 -74.811 52.244 -74.811 C 29.558 -74.811 11.719 -58.967 11.719 -35.254 C 11.719 -24.74 20.419 -16.074 30.865 -16.074 C 35.138 -16.074 39.045 -17.652 41.983 -20.221 C 36.578 -8.266 24.222 -0.787 9.52 -0.787 C 7.983 -0.787 6.836 0.311 6.836 1.758 Z M 16.876 -35.254 C 16.876 -42.904 23.215 -49.277 30.865 -49.277 C 38.549 -49.277 44.888 -42.904 44.888 -35.254 C 44.888 -27.604 38.549 -21.231 30.865 -21.231 C 23.215 -21.231 16.876 -27.604 16.876 -35.254 Z M 25.543 -35.254 C 25.543 -32.322 27.934 -29.931 30.865 -29.931 C 33.846 -29.931 36.222 -32.356 36.222 -35.254 C 36.222 -38.201 33.846 -40.577 30.865 -40.577 C 27.934 -40.577 25.543 -38.201 25.543 -35.254 Z"/>
 </g>
</svg>
