<svg xmlns="http://www.w3.org/2000/svg" viewBox="7.831 -70.666 82.202 70.876" aria-hidden="true" data-sf-symbol="wind">
 <g fill="black">
  <path d="M 48.867 -1.747 C 54.588 -1.747 59.022 -6.008 59.022 -12.094 C 59.022 -20.929 49.911 -25.859 33.152 -25.859 C 25.919 -25.859 18.018 -24.426 11.497 -22.12 C 10.133 -21.67 9.533 -20.444 9.897 -19.263 C 10.261 -18.098 11.423 -17.382 12.888 -17.914 C 19.076 -20.146 26.16 -21.424 33.152 -21.424 C 47.104 -21.424 54.602 -17.84 54.602 -12.094 C 54.602 -8.467 52.062 -6.181 48.867 -6.181 C 45.713 -6.181 43.724 -8.274 43.187 -11.604 C 42.969 -12.882 42.073 -13.913 40.626 -13.827 C 39.079 -13.726 38.452 -12.414 38.651 -11.068 C 39.319 -5.77 43.202 -1.747 48.867 -1.747 Z"/>
  <path d="M 73.099 -28.577 C 81.993 -28.577 88.075 -34.13 88.075 -41.854 C 88.075 -49.46 82.24 -55.067 74.892 -55.067 C 68.046 -55.067 62.961 -50.209 62.136 -43.904 C 61.918 -42.491 62.729 -41.377 63.958 -41.209 C 65.221 -41.041 66.304 -41.82 66.589 -43.42 C 67.163 -47.604 70.625 -50.647 74.892 -50.647 C 79.781 -50.647 83.655 -46.967 83.655 -41.854 C 83.655 -36.623 79.537 -32.997 73.099 -32.997 C 61.3 -32.997 48.694 -39.637 33.305 -39.637 C 25.375 -39.637 18.239 -38.329 11.482 -35.879 C 10.133 -35.415 9.533 -34.204 9.897 -33.023 C 10.261 -31.827 11.423 -31.142 12.888 -31.689 C 19.153 -34.174 25.72 -35.218 33.305 -35.218 C 48.573 -35.218 60.19 -28.577 73.099 -28.577 Z"/>
  <path d="M 12.903 -46.173 C 18.318 -48.03 24.077 -48.978 29.55 -48.978 C 36.852 -48.978 41.967 -47.786 48.788 -47.786 C 55.481 -47.786 59.706 -52.335 59.706 -58.264 C 59.706 -64.304 55.137 -68.709 49.355 -68.709 C 44.892 -68.709 41.095 -65.849 39.651 -62.121 C 39.116 -60.962 39.387 -59.662 40.613 -59.089 C 41.692 -58.599 42.981 -58.975 43.685 -60.324 C 44.455 -62.499 46.695 -64.241 49.355 -64.241 C 52.678 -64.241 55.286 -61.83 55.286 -58.264 C 55.286 -54.626 52.734 -52.254 48.788 -52.254 C 42.207 -52.254 37.093 -53.431 29.55 -53.431 C 23.327 -53.431 17.092 -52.284 11.482 -50.382 C 10.084 -49.936 9.533 -48.721 9.897 -47.525 C 10.261 -46.394 11.389 -45.693 12.903 -46.173 Z"/>
 </g>
</svg>
