<svg xmlns="http://www.w3.org/2000/svg" viewBox="6.724 -75.011 127.762 82.104" aria-hidden="true" data-sf-symbol="display.2">
 <g fill="black">
  <path d="M 17.806 -9.241 L 91.914 -9.241 C 96.912 -9.241 99.953 -12.283 99.953 -17.281 L 99.953 -63.929 C 99.953 -68.912 96.912 -71.969 91.914 -71.969 L 17.806 -71.969 C 12.807 -71.969 9.766 -68.912 9.766 -63.929 L 9.766 -17.281 C 9.766 -12.283 12.807 -9.241 17.806 -9.241 Z"/>
  <path d="M 17.918 -14.702 C 16.236 -14.702 15.192 -15.746 15.192 -17.379 L 15.192 -63.831 C 15.192 -65.498 16.236 -66.542 17.918 -66.542 L 91.801 -66.542 C 93.483 -66.542 94.527 -65.498 94.527 -63.831 L 94.527 -17.379 C 94.527 -15.746 93.483 -14.702 91.801 -14.702 Z"/>
  <path d="M 42.971 0.138 L 66.782 0.138 L 66.782 -9.729 L 42.971 -9.729 Z M 42.635 4.051 L 67.118 4.051 C 68.614 4.051 69.847 2.867 69.847 1.337 C 69.847 -0.177 68.614 -1.395 67.118 -1.395 L 42.635 -1.395 C 41.105 -1.395 39.873 -0.177 39.873 1.337 C 39.873 2.867 41.105 4.051 42.635 4.051 Z"/>
  <path d="M 61.675 -15.224 C 61.675 -8.871 64.809 -5.872 71.028 -5.872 L 122.091 -5.872 C 128.344 -5.872 131.444 -8.871 131.444 -15.224 L 131.444 -44.549 C 131.444 -50.937 128.344 -53.936 122.091 -53.936 L 71.028 -53.936 C 64.809 -53.936 61.675 -50.937 61.675 -44.549 Z"/>
  <path d="M 67.087 -15.322 L 67.087 -44.452 C 67.087 -47.324 68.37 -48.509 71.141 -48.509 L 121.979 -48.509 C 124.749 -48.509 126.032 -47.324 126.032 -44.452 L 126.032 -15.322 C 126.032 -12.483 124.749 -11.283 121.979 -11.283 L 71.141 -11.283 C 68.37 -11.283 67.087 -12.483 67.087 -15.322 Z"/>
  <path d="M 86.607 0.138 L 106.511 0.138 L 106.511 -9.042 L 86.607 -9.042 Z M 86.271 4.051 L 106.848 4.051 C 108.377 4.051 109.577 2.867 109.577 1.337 C 109.577 -0.177 108.377 -1.395 106.848 -1.395 L 86.271 -1.395 C 84.775 -1.395 83.543 -0.177 83.543 1.337 C 83.543 2.867 84.775 4.051 86.271 4.051 Z"/>
 </g>
</svg>
