<svg xmlns="http://www.w3.org/2000/svg" viewBox="7.511 -74.224 94.696 80.529" aria-hidden="true" data-sf-symbol="display">
 <g fill="black">
  <path d="M 17.806 -9.241 L 91.914 -9.241 C 96.912 -9.241 99.953 -12.283 99.953 -17.281 L 99.953 -63.929 C 99.953 -68.912 96.912 -71.969 91.914 -71.969 L 17.806 -71.969 C 12.807 -71.969 9.766 -68.912 9.766 -63.929 L 9.766 -17.281 C 9.766 -12.283 12.807 -9.241 17.806 -9.241 Z"/>
  <path d="M 17.918 -14.702 C 16.236 -14.702 15.192 -15.746 15.192 -17.379 L 15.192 -63.831 C 15.192 -65.498 16.236 -66.542 17.918 -66.542 L 91.801 -66.542 C 93.483 -66.542 94.527 -65.498 94.527 -63.831 L 94.527 -17.379 C 94.527 -15.746 93.483 -14.702 91.801 -14.702 Z"/>
  <path d="M 42.971 0.138 L 66.782 0.138 L 66.782 -9.729 L 42.971 -9.729 Z M 42.635 4.051 L 67.118 4.051 C 68.614 4.051 69.847 2.867 69.847 1.337 C 69.847 -0.177 68.614 -1.395 67.118 -1.395 L 42.635 -1.395 C 41.105 -1.395 39.873 -0.177 39.873 1.337 C 39.873 2.867 41.105 4.051 42.635 4.051 Z"/>
 </g>
</svg>
