<svg xmlns="http://www.w3.org/2000/svg" viewBox="1.051 -79.341 97.41 94.504" aria-hidden="true" data-sf-symbol="film.stack">
 <g fill="black">
  <path d="M 30.505 -39.289 L 69.005 -39.289 C 72.084 -39.289 73.929 -41.086 73.929 -44.131 L 73.929 -72.165 C 73.929 -75.21 72.084 -77.022 69.005 -77.022 L 30.505 -77.022 C 27.427 -77.022 25.581 -75.21 25.581 -72.165 L 25.581 -44.131 C 25.581 -41.086 27.427 -39.289 30.505 -39.289 Z"/>
  <path d="M 24.836 -11.975 L 74.708 -11.975 C 82.097 -11.975 87.087 -16.898 87.087 -24.253 L 87.087 -60.346 C 87.087 -67.75 82.097 -72.64 74.708 -72.64 L 24.836 -72.64 C 17.414 -72.64 12.457 -67.75 12.457 -60.346 L 12.457 -24.253 C 12.457 -16.898 17.414 -11.975 24.836 -11.975 Z"/>
  <path d="M 24.129 -17.394 L 75.381 -17.394 C 79.381 -17.394 81.668 -19.647 81.668 -23.58 L 81.668 -61.034 C 81.668 -65 79.381 -67.254 75.381 -67.254 L 24.129 -67.254 C 20.129 -67.254 17.842 -65 17.842 -61.034 L 17.842 -23.58 C 17.842 -19.647 20.129 -17.394 24.129 -17.394 Z"/>
  <path d="M 21.384 12.843 L 78.16 12.843 C 89.384 12.843 96.141 6.123 96.141 -5.052 L 96.141 -44.539 C 96.141 -55.68 89.384 -62.4 78.16 -62.4 L 21.384 -62.4 C 10.126 -62.4 3.37 -55.71 3.37 -44.539 L 3.37 -5.052 C 3.37 6.153 10.126 12.843 21.384 12.843 Z"/>
  <path d="M 16.042 6.421 L 83.468 6.421 C 87.468 6.421 89.947 3.942 89.947 0.044 L 89.947 -49.694 C 89.947 -53.577 87.468 -56.038 83.468 -56.038 L 16.042 -56.038 C 12.043 -56.038 9.597 -53.577 9.597 -49.694 L 9.597 0.044 C 9.597 3.942 12.043 6.421 16.042 6.421 Z M 15.857 -43.461 C 14.832 -43.461 14.182 -44.16 14.182 -45.039 L 14.182 -49.259 C 14.182 -50.421 14.911 -51.15 16.057 -51.15 L 20.774 -51.15 C 21.72 -51.15 22.367 -50.481 22.367 -49.475 L 22.367 -45.039 C 22.367 -44.16 21.72 -43.461 20.774 -43.461 Z M 15.857 -32.144 C 14.832 -32.144 14.182 -32.876 14.182 -33.687 L 14.182 -38.062 C 14.182 -39.002 14.801 -39.704 15.857 -39.704 L 20.774 -39.704 C 21.72 -39.704 22.367 -39.002 22.367 -38.062 L 22.367 -33.687 C 22.367 -32.876 21.72 -32.144 20.774 -32.144 Z M 15.857 -20.994 C 14.832 -20.994 14.182 -21.727 14.182 -22.639 L 14.182 -26.879 C 14.182 -27.954 14.801 -28.622 15.857 -28.622 L 20.774 -28.622 C 21.72 -28.622 22.367 -27.954 22.367 -26.879 L 22.367 -22.639 C 22.367 -21.727 21.72 -20.994 20.774 -20.994 Z M 15.857 -9.878 C 14.832 -9.878 14.182 -10.611 14.182 -11.456 L 14.182 -15.764 C 14.182 -16.789 14.801 -17.473 15.857 -17.473 L 20.774 -17.473 C 21.72 -17.473 22.367 -16.789 22.367 -15.764 L 22.367 -11.456 C 22.367 -10.611 21.72 -9.878 20.774 -9.878 Z M 16.057 1.534 C 14.911 1.534 14.182 0.771 14.182 -0.308 L 14.182 -4.51 C 14.182 -5.49 14.832 -6.155 15.857 -6.155 L 20.774 -6.155 C 21.72 -6.155 22.367 -5.49 22.367 -4.51 L 22.367 -0.108 C 22.367 0.832 21.72 1.534 20.774 1.534 Z M 28.296 -27.261 C 27.338 -27.261 26.749 -27.798 26.749 -28.824 L 26.749 -49.602 C 26.749 -50.579 27.338 -51.15 28.296 -51.15 L 71.214 -51.15 C 72.157 -51.15 72.761 -50.579 72.761 -49.602 L 72.761 -28.824 C 72.761 -27.798 72.157 -27.261 71.214 -27.261 Z M 28.296 1.534 C 27.338 1.534 26.749 0.944 26.749 -0.047 L 26.749 -20.691 C 26.749 -21.717 27.338 -22.272 28.296 -22.272 L 71.214 -22.272 C 72.157 -22.272 72.761 -21.717 72.761 -20.691 L 72.761 -0.047 C 72.761 0.944 72.157 1.534 71.214 1.534 Z M 78.736 -43.461 C 77.793 -43.461 77.144 -44.16 77.144 -45.039 L 77.144 -49.475 C 77.144 -50.481 77.793 -51.15 78.736 -51.15 L 83.438 -51.15 C 84.633 -51.15 85.329 -50.421 85.329 -49.259 L 85.329 -45.039 C 85.329 -44.16 84.664 -43.461 83.653 -43.461 Z M 78.736 -32.144 C 77.793 -32.144 77.144 -32.876 77.144 -33.687 L 77.144 -38.062 C 77.144 -39.002 77.793 -39.704 78.736 -39.704 L 83.653 -39.704 C 84.694 -39.704 85.329 -39.002 85.329 -38.062 L 85.329 -33.687 C 85.329 -32.876 84.664 -32.144 83.653 -32.144 Z M 78.736 -20.994 C 77.793 -20.994 77.144 -21.727 77.144 -22.639 L 77.144 -26.879 C 77.144 -27.954 77.793 -28.622 78.736 -28.622 L 83.653 -28.622 C 84.694 -28.622 85.329 -27.954 85.329 -26.879 L 85.329 -22.639 C 85.329 -21.727 84.664 -20.994 83.653 -20.994 Z M 78.736 -9.878 C 77.793 -9.878 77.144 -10.611 77.144 -11.456 L 77.144 -15.764 C 77.144 -16.789 77.793 -17.473 78.736 -17.473 L 83.653 -17.473 C 84.694 -17.473 85.329 -16.789 85.329 -15.764 L 85.329 -11.456 C 85.329 -10.611 84.664 -9.878 83.653 -9.878 Z M 78.736 1.534 C 77.793 1.534 77.144 0.832 77.144 -0.108 L 77.144 -4.51 C 77.144 -5.49 77.793 -6.155 78.736 -6.155 L 83.653 -6.155 C 84.664 -6.155 85.329 -5.49 85.329 -4.51 L 85.329 -0.308 C 85.329 0.771 84.633 1.534 83.438 1.534 Z"/>
 </g>
</svg>
