<svg xmlns="http://www.w3.org/2000/svg" viewBox="5.337 -79.964 103.159 89.54" aria-hidden="true" data-sf-symbol="guitars">
 <g fill="black">
  <path d="M 89.252 4.971 C 99.536 4.971 106.039 0.098 106.039 -7.568 C 106.039 -15.307 100.897 -17.314 100.897 -20.703 C 100.897 -23.345 102.035 -25.673 102.035 -28.793 C 102.035 -33.808 98.415 -37.078 92.183 -37.78 L 92.183 -60.514 C 92.183 -62.1 92.341 -62.551 93.266 -63.167 C 94.017 -63.674 94.332 -64.071 94.283 -64.762 L 93.697 -74.186 C 93.648 -74.977 93.07 -75.555 92.377 -75.555 L 86.078 -75.555 C 85.384 -75.555 84.84 -74.977 84.791 -74.186 L 84.235 -64.762 C 84.187 -64.071 84.486 -63.674 85.188 -63.167 C 86.147 -62.517 86.305 -62.066 86.305 -60.514 L 86.305 -37.78 C 80.073 -37.078 76.468 -33.808 76.468 -28.793 C 76.468 -25.673 77.606 -23.345 77.606 -20.703 C 77.606 -17.314 72.464 -15.307 72.464 -7.568 C 72.464 0.098 78.948 4.971 89.252 4.971 Z M 89.252 1.079 C 81.187 1.079 76.371 -2.204 76.371 -7.568 C 76.371 -13.748 81.532 -16.14 81.532 -20.801 C 81.532 -23.471 80.36 -26.273 80.36 -28.793 C 80.36 -32.831 84.019 -34.169 89.252 -34.169 C 94.484 -34.169 98.109 -32.831 98.109 -28.793 C 98.109 -26.273 96.937 -23.471 96.937 -20.801 C 96.937 -16.14 102.098 -13.748 102.098 -7.568 C 102.098 -2.204 97.316 1.079 89.252 1.079 Z M 89.252 -17.763 C 91.504 -17.763 93.299 -19.573 93.299 -21.826 C 93.299 -24.079 91.504 -25.908 89.252 -25.908 C 86.999 -25.908 85.121 -24.079 85.121 -21.826 C 85.121 -19.573 86.965 -17.763 89.252 -17.763 Z M 84.369 -6.98 L 94.085 -6.98 C 94.911 -6.98 95.62 -7.641 95.62 -8.515 C 95.62 -9.389 94.911 -10.083 94.085 -10.083 L 84.369 -10.083 C 83.51 -10.083 82.816 -9.355 82.816 -8.515 C 82.816 -7.641 83.51 -6.98 84.369 -6.98 Z"/>
  <path d="M 59.897 7.12 C 71.076 7.12 78.687 0.373 78.687 -9.799 C 78.687 -18.716 73.951 -21.794 73.951 -23.374 C 73.951 -25.648 76.539 -27.98 76.539 -32.617 C 76.539 -36.401 73.9 -39.099 70.414 -39.099 C 67.961 -39.099 66.294 -37.868 64.764 -36.023 L 64.797 -58.986 C 65.853 -59.542 66.488 -60.537 66.702 -62.238 L 67.468 -70.099 C 67.565 -71.353 67.043 -72.664 66.03 -73.564 L 62.71 -76.412 C 61.974 -77.084 60.979 -77.508 59.897 -77.508 C 58.832 -77.508 57.803 -77.084 57.101 -76.412 L 53.78 -73.564 C 52.834 -72.697 52.26 -71.353 52.357 -70.065 L 53.124 -62.238 C 53.27 -60.495 54.018 -59.545 55.028 -59.02 L 55.08 -35.944 C 53.75 -37.38 51.513 -39.099 49.381 -39.099 C 45.895 -39.099 43.256 -36.401 43.256 -32.617 C 43.256 -27.98 45.844 -25.648 45.844 -23.374 C 45.844 -21.794 41.108 -18.716 41.108 -9.799 C 41.108 0.373 48.7 7.12 59.897 7.12 Z"/>
  <path d="M 59.897 5.167 C 70.051 5.167 76.734 -0.766 76.734 -9.799 C 76.734 -17.558 71.998 -20.806 71.998 -23.374 C 71.998 -26.448 74.585 -28.84 74.585 -32.617 C 74.585 -35.285 72.853 -37.145 70.414 -37.145 C 68.105 -37.145 66.661 -35.679 65.751 -34.214 C 65.083 -33.152 64.46 -32.419 63.963 -32.419 C 63.033 -32.419 62.811 -34.127 62.811 -35.889 L 62.844 -59.098 C 62.844 -60.232 62.875 -60.369 63.533 -60.576 C 64.355 -60.838 64.617 -61.3 64.749 -62.433 L 65.515 -70.246 C 65.563 -70.914 65.286 -71.589 64.727 -72.1 L 61.44 -74.947 C 61.046 -75.326 60.505 -75.555 59.897 -75.555 C 59.305 -75.555 58.764 -75.326 58.37 -74.947 L 55.084 -72.1 C 54.573 -71.623 54.262 -70.914 54.311 -70.246 L 55.077 -62.433 C 55.174 -61.334 55.474 -60.838 56.296 -60.576 C 56.872 -60.417 56.981 -60.229 56.981 -59.098 L 57.033 -35.889 C 57.033 -34.228 56.777 -32.419 55.896 -32.419 C 55.35 -32.419 54.727 -33.152 54.059 -34.214 C 53.149 -35.679 51.689 -37.145 49.381 -37.145 C 46.958 -37.145 45.209 -35.285 45.209 -32.617 C 45.209 -28.84 47.797 -26.448 47.797 -23.374 C 47.797 -20.806 43.061 -17.558 43.061 -9.799 C 43.061 -0.766 49.726 5.167 59.897 5.167 Z M 59.897 1.226 C 51.89 1.226 47.002 -2.948 47.002 -9.799 C 47.002 -16.873 51.689 -19.167 51.689 -23.352 C 51.689 -27.283 49.068 -29.578 49.068 -32.651 C 49.068 -33.004 49.327 -33.294 49.681 -33.294 C 51.416 -33.294 52.257 -28.644 56.012 -28.644 C 57.778 -28.644 59.207 -29.898 59.664 -32.348 L 60.146 -32.348 C 60.637 -29.864 62.1 -28.644 63.847 -28.644 C 67.504 -28.644 68.378 -33.294 70.114 -33.294 C 70.434 -33.294 70.693 -33.004 70.693 -32.651 C 70.693 -29.578 68.105 -27.283 68.105 -23.352 C 68.105 -19.167 72.793 -16.873 72.793 -9.799 C 72.793 -2.948 67.905 1.226 59.897 1.226 Z M 52.341 -10.437 C 53.114 -10.156 53.92 -10.569 54.217 -11.293 L 57.463 -20.186 C 57.726 -20.91 57.332 -21.799 56.574 -22.047 C 55.801 -22.31 55.009 -21.931 54.713 -21.173 L 51.485 -12.28 C 51.223 -11.556 51.617 -10.7 52.341 -10.437 Z M 67.469 -10.437 C 68.193 -10.7 68.587 -11.556 68.325 -12.28 L 65.112 -21.173 C 64.816 -21.931 63.976 -22.31 63.236 -22.047 C 62.479 -21.799 62.084 -20.91 62.347 -20.186 L 65.608 -11.293 C 65.89 -10.569 66.696 -10.156 67.469 -10.437 Z"/>
  <path d="M 8.503 -2.213 C 6.536 2.16 8.752 7.037 13.94 7.037 C 15.759 7.037 17.366 6.34 19.523 4.61 L 29.956 -4.094 L 40.389 4.61 C 42.546 6.34 44.171 7.037 45.972 7.037 C 51.16 7.037 53.376 2.16 51.443 -2.213 L 34.89 -39.648 L 34.89 -57.34 C 34.89 -65.851 36.354 -72.312 36.354 -73.795 C 36.354 -75.92 34.834 -77.508 32.69 -77.508 C 31.53 -77.508 30.468 -77.016 29.015 -75.42 L 20.583 -65.718 C 19.013 -63.871 19.52 -61.431 21.615 -60.38 L 25.071 -58.687 L 25.071 -39.794 Z"/>
  <path d="M 10.31 -1.432 C 8.944 1.578 10.107 5.084 13.94 5.084 C 15.283 5.084 16.468 4.585 18.253 3.097 L 28.931 -5.796 C 29.436 -6.226 29.737 -6.365 29.956 -6.365 C 30.209 -6.365 30.476 -6.226 31.015 -5.796 L 41.659 3.097 C 43.478 4.585 44.614 5.084 45.972 5.084 C 49.838 5.084 50.968 1.578 49.636 -1.432 L 32.936 -39.257 L 32.936 -57.34 C 32.936 -66.046 34.401 -72.556 34.401 -73.795 C 34.401 -74.846 33.76 -75.555 32.69 -75.555 C 32.034 -75.555 31.426 -75.161 30.48 -74.117 L 22.047 -64.449 C 21.323 -63.593 21.473 -62.6 22.43 -62.153 C 25.78 -60.655 27.024 -60.109 27.024 -57.34 L 27.024 -39.37 Z M 13.875 -0.014 L 29.589 -36.091 L 30.308 -36.091 L 46.071 -0.014 C 46.492 0.975 45.687 1.466 44.985 0.877 L 33.103 -9.04 C 31.879 -10.035 30.884 -10.539 29.956 -10.539 C 29.028 -10.539 28.033 -10.035 26.843 -9.04 L 14.961 0.877 C 14.259 1.466 13.42 0.975 13.875 -0.014 Z M 34.189 -17.368 C 35.108 -17.368 35.911 -18.138 35.911 -19.091 C 35.911 -20.074 35.123 -20.896 34.189 -20.896 C 33.235 -20.896 32.432 -20.025 32.432 -19.091 C 32.432 -18.156 33.22 -17.368 34.189 -17.368 Z M 36.164 -12.637 C 37.113 -12.637 37.95 -13.425 37.95 -14.344 C 37.95 -15.361 37.113 -16.149 36.164 -16.149 C 35.226 -16.149 34.389 -15.313 34.389 -14.344 C 34.389 -13.41 35.226 -12.637 36.164 -12.637 Z M 38.086 -7.89 C 39.07 -7.89 39.94 -8.727 39.94 -9.631 C 39.94 -10.581 39.104 -11.418 38.086 -11.418 C 37.231 -11.418 36.413 -10.566 36.413 -9.631 C 36.413 -8.693 37.182 -7.89 38.086 -7.89 Z"/>
 </g>
</svg>
