<svg xmlns="http://www.w3.org/2000/svg" viewBox="7.806 -76.409 61.699 82.325" aria-hidden="true" data-sf-symbol="hifispeaker">
 <g fill="black">
  <path d="M 9.766 -63.968 L 9.766 -6.524 C 9.766 0.423 13.25 3.956 20.13 3.956 L 57.181 3.956 C 64.076 3.956 67.545 0.423 67.545 -6.524 L 67.545 -63.968 C 67.545 -70.931 64.091 -74.449 57.181 -74.449 L 20.13 -74.449 C 13.234 -74.449 9.766 -70.931 9.766 -63.968 Z M 15.192 -63.886 C 15.192 -67.281 16.933 -69.022 20.347 -69.022 L 56.979 -69.022 C 60.377 -69.022 62.133 -67.281 62.133 -63.886 L 62.133 -6.607 C 62.133 -3.257 60.347 -1.471 56.979 -1.471 L 20.347 -1.471 C 16.963 -1.471 15.192 -3.257 15.192 -6.607 Z M 38.68 -7.86 C 47.349 -7.86 54.328 -14.805 54.328 -23.557 C 54.328 -32.275 47.349 -39.172 38.68 -39.206 C 29.977 -39.254 22.982 -32.275 22.982 -23.557 C 22.982 -14.805 29.977 -7.86 38.68 -7.86 Z M 38.68 -16.668 C 34.861 -16.668 31.757 -19.742 31.757 -23.557 C 31.757 -27.488 34.764 -30.48 38.68 -30.48 C 42.547 -30.48 45.554 -27.488 45.554 -23.557 C 45.554 -19.742 42.547 -16.668 38.68 -16.668 Z M 38.68 -45.478 C 43.393 -45.478 47.324 -49.294 47.257 -54.056 C 47.223 -58.821 43.408 -62.554 38.68 -62.603 C 33.918 -62.651 30.054 -58.836 30.054 -54.056 C 30.054 -49.279 33.903 -45.478 38.68 -45.478 Z M 38.68 -49.322 C 36.021 -49.322 33.912 -51.465 33.912 -54.056 C 33.912 -56.781 36.006 -58.793 38.68 -58.793 C 41.24 -58.793 43.414 -56.684 43.414 -54.056 C 43.414 -51.465 41.289 -49.322 38.68 -49.322 Z"/>
 </g>
</svg>
