<svg xmlns="http://www.w3.org/2000/svg" viewBox="7.534 -85.397 93.434 89.755" aria-hidden="true" data-sf-symbol="movieclapper">
 <g fill="black">
  <path d="M 10.321 -52.616 L 13.145 -42.252 L 13.145 -8.858 C 13.145 -1.561 16.922 2.134 24.287 2.134 L 87.583 2.134 C 95 2.134 98.743 -1.591 98.743 -8.858 L 98.743 -44.968 C 98.743 -48.979 96.182 -51.523 92.088 -51.538 L 46.921 -51.538 L 89.33 -62.879 C 93.293 -63.915 95.029 -67.121 94.042 -70.9 L 93.054 -74.782 C 91.267 -81.885 86.495 -84.449 79.374 -82.584 L 18.242 -66.161 C 11.188 -64.228 8.474 -59.621 10.321 -52.616 Z M 18.403 -9.143 L 18.403 -30.079 L 93.485 -30.079 L 93.485 -9.143 C 93.485 -5.173 91.308 -3.109 87.485 -3.109 L 24.385 -3.109 C 20.52 -3.109 18.403 -5.173 18.403 -9.143 Z"/>
  <path d="M 20.498 -49.601 L 23.567 -62.103 L 35.661 -65.374 L 32.675 -52.857 Z M 43.973 -55.885 L 46.989 -68.386 L 60.026 -71.883 L 57.025 -59.352 Z M 68.27 -62.379 L 71.306 -74.895 L 80.439 -77.408 C 81.491 -77.682 82.445 -77.866 83.403 -78.034 L 80.462 -65.65 Z M 22.167 -34.936 L 27.915 -45.482 L 37.63 -46.246 L 40.958 -46.246 L 34.75 -34.936 Z M 46.453 -34.936 L 52.628 -46.246 L 66.153 -46.246 L 59.945 -34.936 Z M 71.648 -34.936 L 77.823 -46.246 L 90.406 -46.246 L 84.212 -34.936 Z"/>
 </g>
</svg>
