<svg xmlns="http://www.w3.org/2000/svg" viewBox="8.203 -68.08 34.08 65.652" aria-hidden="true" data-sf-symbol="pause">
 <g fill="black">
  <path d="M 12.647 -3.991 C 14.214 -3.991 15.514 -5.239 15.514 -6.806 L 15.514 -63.702 C 15.514 -65.269 14.214 -66.517 12.647 -66.517 C 11.066 -66.517 9.766 -65.269 9.766 -63.702 L 9.766 -6.806 C 9.766 -5.239 11.066 -3.991 12.647 -3.991 Z M 37.853 -3.991 C 39.453 -3.991 40.72 -5.239 40.72 -6.806 L 40.72 -63.702 C 40.72 -65.269 39.453 -66.517 37.853 -66.517 C 36.272 -66.517 34.971 -65.269 34.971 -63.702 L 34.971 -6.806 C 34.971 -5.239 36.272 -3.991 37.853 -3.991 Z"/>
 </g>
</svg>
