<svg xmlns="http://www.w3.org/2000/svg" viewBox="7.362 -85.489 72.961 100.47" aria-hidden="true" data-sf-symbol="popcorn">
 <g fill="black">
  <path d="M 16.384 -51.855 L 18.632 -56.31 C 16.588 -56.983 15.172 -58.908 15.172 -61.265 C 15.172 -64.878 18.959 -67.481 23.297 -66.418 C 22.634 -70.312 26.527 -73.364 30.533 -71.48 C 29.591 -75.682 32.411 -78.175 35.681 -78.175 C 38.841 -78.175 42.011 -75.714 41.521 -71.257 C 43.954 -72.914 48.051 -72.59 50.024 -70.96 C 51.031 -73.274 53.082 -74.611 55.497 -74.611 C 58.933 -74.611 60.859 -71.831 60.707 -68.016 C 65.467 -68.881 69.099 -66.454 69.099 -61.941 C 69.099 -59.419 67.289 -57.184 64.915 -56.419 L 67.803 -52.23 C 71.435 -54.041 73.953 -57.88 73.953 -62.245 C 73.953 -68.596 69.723 -73.181 63.776 -73.316 C 62.348 -77.015 59.357 -79.532 55.261 -79.532 C 52.7 -79.532 50.315 -78.578 48.562 -76.884 C 47.505 -77.215 46.091 -77.283 44.876 -77.03 C 43.3 -80.741 39.725 -83.097 35.681 -83.097 C 30.528 -83.097 26.987 -79.971 26.307 -76.705 C 23.266 -77.108 20.584 -74.438 20.584 -71.496 C 14.969 -71.649 10.318 -66.963 10.318 -61.265 C 10.318 -57.02 12.763 -53.354 16.384 -51.855 Z M 27.099 6.872 L 57.187 6.872 C 62.404 6.872 65.145 4.029 66.147 -1.21 L 74.276 -44.213 C 75.864 -52.476 69.834 -57.999 62.145 -57.999 C 58.628 -57.999 55.589 -56.544 53.468 -53.878 C 51.469 -57.565 47.31 -59.952 42.126 -59.952 C 36.976 -59.952 32.817 -57.565 30.818 -53.878 C 28.696 -56.544 25.657 -57.999 22.106 -57.999 C 14.452 -57.999 8.422 -52.476 10.01 -44.213 L 18.139 -1.21 C 19.141 4.029 21.882 6.872 27.099 6.872 Z M 38.384 1.815 L 34.026 -46.312 C 33.557 -51.52 36.77 -54.896 42.126 -54.896 C 47.515 -54.896 50.729 -51.52 50.259 -46.312 L 45.902 1.815 Z M 50.958 1.815 L 55.267 -46.173 C 55.654 -50.586 58.56 -52.943 62.145 -52.943 C 66.659 -52.943 70.339 -49.717 69.317 -44.449 L 61.039 -1.484 C 60.636 0.738 59.286 1.815 57.019 1.815 Z M 27.233 1.815 C 25 1.815 23.649 0.738 23.247 -1.484 L 14.968 -44.449 C 13.946 -49.717 17.627 -52.943 22.106 -52.943 C 25.711 -52.943 28.632 -50.586 29.019 -46.173 L 33.328 1.815 Z"/>
  <path d="M 61.782 12.589 C 65.481 12.589 68.887 10.387 70.349 7.183 C 74.905 6.261 77.931 2.334 77.931 -2.208 C 77.931 -6.293 75.355 -9.762 71.836 -11.298 C 71.721 -16.804 67.34 -20.581 61.782 -20.581 C 56.394 -20.581 52.061 -17.038 51.807 -11.875 C 47.286 -10.885 43.879 -6.883 43.879 -2.254 C 43.879 3.021 47.973 7.181 53.159 7.479 C 54.638 10.469 58.029 12.589 61.782 12.589 Z"/>
  <path d="M 61.782 8.173 C 58.699 8.173 56.052 6.222 56.279 2.797 C 52.239 3.991 48.277 1.875 48.277 -2.254 C 48.277 -6.309 51.552 -8.751 56.241 -8.089 C 55.086 -11.807 57.188 -16.149 61.782 -16.149 C 66.365 -16.149 68.651 -11.857 67.457 -7.719 C 71.006 -7.996 73.414 -5.655 73.414 -2.04 C 73.414 1.334 71.112 3.341 67.132 3.014 C 67.225 5.986 64.57 8.173 61.782 8.173 Z"/>
 </g>
</svg>
