<svg xmlns="http://www.w3.org/2000/svg" viewBox="7.414 -70.965 98.79 71.474" aria-hidden="true" data-sf-symbol="speaker.minus">
 <g fill="black">
  <path d="M 69.598 -32.409 L 100.667 -32.409 C 102.537 -32.409 103.852 -33.437 103.852 -35.19 C 103.852 -37.007 102.619 -38.068 100.667 -38.068 L 69.598 -38.068 C 67.646 -38.068 66.379 -37.007 66.379 -35.19 C 66.379 -33.437 67.729 -32.409 69.598 -32.409 Z"/>
  <path d="M 17.017 -20.067 L 28.149 -20.067 C 28.563 -20.067 28.902 -19.939 29.173 -19.684 L 46.695 -4.041 C 48.307 -2.582 49.657 -1.843 51.356 -1.843 C 53.63 -1.843 55.321 -3.539 55.321 -5.849 L 55.321 -64.423 C 55.321 -66.7 53.63 -68.613 51.289 -68.613 C 49.59 -68.613 48.457 -67.81 46.695 -66.213 L 29.173 -50.605 C 28.902 -50.35 28.563 -50.252 28.149 -50.252 L 17.017 -50.252 C 12.125 -50.252 9.766 -47.765 9.766 -42.618 L 9.766 -27.622 C 9.766 -22.509 12.174 -20.067 17.017 -20.067 Z M 17.219 -25.007 C 15.707 -25.007 15.024 -25.672 15.024 -27.233 L 15.024 -43.056 C 15.024 -44.598 15.707 -45.297 17.219 -45.297 L 29.433 -45.297 C 30.452 -45.297 31.199 -45.443 32.093 -46.289 L 48.81 -61.477 C 49.032 -61.668 49.243 -61.827 49.514 -61.827 C 49.803 -61.827 50.029 -61.616 50.029 -61.263 L 50.029 -9.242 C 50.029 -8.839 49.803 -8.629 49.529 -8.629 C 49.303 -8.629 49.093 -8.727 48.825 -8.998 L 32.093 -24.016 C 31.214 -24.797 30.452 -25.007 29.433 -25.007 Z"/>
 </g>
</svg>
