<svg xmlns="http://www.w3.org/2000/svg" viewBox="-2.382 -72.956 82.081 82.051" aria-hidden="true" data-sf-symbol="speaker.slash">
 <g fill="black">
  <path d="M 18.585 -20.067 L 29.751 -20.067 C 30.132 -20.067 30.47 -19.939 30.775 -19.684 L 48.263 -4.041 C 49.909 -2.582 51.226 -1.843 52.925 -1.843 C 55.232 -1.843 56.874 -3.539 56.874 -5.849 L 56.874 -64.423 C 56.874 -66.7 55.232 -68.613 52.857 -68.613 C 51.158 -68.613 50.059 -67.81 48.263 -66.213 L 30.775 -50.605 C 30.47 -50.35 30.132 -50.252 29.751 -50.252 L 18.585 -50.252 C 13.727 -50.252 11.334 -47.765 11.334 -42.618 L 11.334 -27.622 C 11.334 -22.509 13.742 -20.067 18.585 -20.067 Z M 18.821 -25.007 C 17.276 -25.007 16.626 -25.672 16.626 -27.233 L 16.626 -43.056 C 16.626 -44.598 17.276 -45.297 18.821 -45.297 L 31.002 -45.297 C 32.054 -45.297 32.801 -45.443 33.695 -46.289 L 50.378 -61.477 C 50.586 -61.668 50.796 -61.827 51.082 -61.827 C 51.405 -61.827 51.631 -61.616 51.631 -61.263 L 51.631 -9.242 C 51.631 -8.839 51.405 -8.629 51.131 -8.629 C 50.872 -8.629 50.661 -8.727 50.394 -8.998 L 33.695 -24.016 C 32.816 -24.797 32.054 -25.007 31.002 -25.007 Z"/>
  <path d="M 66.121 5.155 C 68.814 7.814 73.161 7.814 75.786 5.088 C 78.427 2.429 78.378 -1.817 75.752 -4.495 L 11.206 -69.007 C 8.577 -71.651 4.215 -71.682 1.541 -69.007 C -1.084 -66.397 -1.084 -62.001 1.541 -59.391 Z"/>
  <path d="M 69.115 2.176 C 70.131 3.192 71.81 3.192 72.792 2.176 C 73.804 1.13 73.823 -0.485 72.792 -1.516 L 8.212 -66.062 C 7.211 -67.029 5.532 -67.093 4.501 -66.062 C 3.504 -65.065 3.504 -63.334 4.501 -62.336 Z"/>
 </g>
</svg>
