<svg xmlns="http://www.w3.org/2000/svg" viewBox="4.901 -75.867 81.258 81.225" aria-hidden="true" data-sf-symbol="stop.circle">
 <g fill="black">
  <path d="M 45.514 3.424 C 66.882 3.424 84.225 -13.885 84.225 -35.254 C 84.225 -56.623 66.882 -73.932 45.514 -73.932 C 24.179 -73.932 6.836 -56.623 6.836 -35.254 C 6.836 -13.885 24.179 3.424 45.514 3.424 Z M 45.514 -2.272 C 27.278 -2.272 12.551 -17.018 12.551 -35.254 C 12.551 -53.49 27.278 -68.235 45.514 -68.235 C 63.749 -68.235 78.495 -53.49 78.495 -35.254 C 78.495 -17.018 63.749 -2.272 45.514 -2.272 Z"/>
  <path d="M 35.322 -21.361 L 55.671 -21.361 C 57.965 -21.361 59.373 -22.735 59.373 -24.995 L 59.373 -45.513 C 59.373 -47.772 57.965 -49.147 55.671 -49.147 L 35.322 -49.147 C 32.995 -49.147 31.621 -47.772 31.621 -45.513 L 31.621 -24.995 C 31.621 -22.735 32.995 -21.361 35.322 -21.361 Z"/>
 </g>
</svg>
