<svg xmlns="http://www.w3.org/2000/svg" viewBox="7.406 -75.136 99.102 79.763" aria-hidden="true" data-sf-symbol="tv">
 <g fill="black">
  <path d="M 19.133 -10 L 94.781 -10 C 100.633 -10 104.149 -13.564 104.149 -19.401 L 104.149 -63.408 C 104.149 -69.245 100.633 -72.776 94.781 -72.776 L 19.133 -72.776 C 13.282 -72.776 9.766 -69.245 9.766 -63.408 L 9.766 -19.401 C 9.766 -13.564 13.282 -10 19.133 -10 Z"/>
  <path d="M 19.246 -15.46 C 16.707 -15.46 15.192 -16.926 15.192 -19.499 L 15.192 -63.311 C 15.192 -65.849 16.707 -67.349 19.246 -67.349 L 94.668 -67.349 C 97.207 -67.349 98.722 -65.849 98.722 -63.311 L 98.722 -19.499 C 98.722 -16.926 97.207 -15.46 94.668 -15.46 Z"/>
  <path d="M 37.944 2.268 L 75.97 2.268 C 77.5 2.268 78.699 1.069 78.699 -0.445 C 78.699 -1.975 77.5 -3.192 75.97 -3.192 L 37.944 -3.192 C 36.415 -3.192 35.215 -1.975 35.215 -0.445 C 35.215 1.069 36.415 2.268 37.944 2.268 Z"/>
 </g>
</svg>
