<svg xmlns="http://www.w3.org/2000/svg" viewBox="4.901 -75.867 81.258 81.225" aria-hidden="true" data-sf-symbol="waveform.circle">
 <g fill="black">
  <path d="M 45.514 3.424 C 66.882 3.424 84.225 -13.885 84.225 -35.254 C 84.225 -56.623 66.882 -73.932 45.514 -73.932 C 24.179 -73.932 6.836 -56.623 6.836 -35.254 C 6.836 -13.885 24.179 3.424 45.514 3.424 Z M 45.514 -2.272 C 27.278 -2.272 12.551 -17.018 12.551 -35.254 C 12.551 -53.49 27.278 -68.235 45.514 -68.235 C 63.749 -68.235 78.495 -53.49 78.495 -35.254 C 78.495 -17.018 63.749 -2.272 45.514 -2.272 Z"/>
  <path d="M 64.883 -27.843 C 66.076 -27.843 66.957 -28.705 66.957 -29.882 L 66.957 -40.705 C 66.957 -41.882 66.076 -42.744 64.883 -42.744 C 63.691 -42.744 62.81 -41.848 62.81 -40.705 L 62.81 -29.882 C 62.81 -28.739 63.691 -27.843 64.883 -27.843 Z"/>
  <path d="M 57.086 -19.491 C 58.278 -19.491 59.193 -20.42 59.193 -21.564 L 59.193 -49.057 C 59.193 -50.2 58.278 -51.096 57.086 -51.096 C 55.927 -51.096 55.046 -50.2 55.046 -49.057 L 55.046 -21.564 C 55.046 -20.42 55.927 -19.491 57.086 -19.491 Z"/>
  <path d="M 49.337 -26.302 C 50.53 -26.302 51.444 -27.198 51.444 -28.342 L 51.444 -42.245 C 51.444 -43.389 50.53 -44.285 49.337 -44.285 C 48.179 -44.285 47.298 -43.389 47.298 -42.245 L 47.298 -28.342 C 47.298 -27.198 48.179 -26.302 49.337 -26.302 Z"/>
  <path d="M 41.607 -13.817 C 42.766 -13.817 43.681 -14.713 43.681 -15.891 L 43.681 -54.678 C 43.681 -55.855 42.766 -56.751 41.607 -56.751 C 40.415 -56.751 39.534 -55.855 39.534 -54.678 L 39.534 -15.891 C 39.534 -14.68 40.381 -13.817 41.607 -13.817 Z"/>
  <path d="M 33.859 -22.805 C 35.018 -22.805 35.932 -23.701 35.932 -24.878 L 35.932 -45.742 C 35.932 -46.886 35.018 -47.815 33.859 -47.815 C 32.667 -47.815 31.786 -46.886 31.786 -45.742 L 31.786 -24.878 C 31.786 -23.701 32.667 -22.805 33.859 -22.805 Z"/>
  <path d="M 26.062 -29.666 C 27.254 -29.666 28.168 -30.562 28.168 -31.705 L 28.168 -38.882 C 28.168 -40.025 27.254 -40.921 26.062 -40.921 C 24.903 -40.921 24.022 -40.025 24.022 -38.882 L 24.022 -31.705 C 24.022 -30.562 24.936 -29.666 26.062 -29.666 Z"/>
 </g>
</svg>
