<svg xmlns="http://www.w3.org/2000/svg" viewBox="8.047 -53.881 72.197 37.336" aria-hidden="true" data-sf-symbol="waveform.low">
 <g fill="black">
  <path d="M 75.812 -28.863 C 77.359 -28.863 78.525 -30.081 78.525 -31.576 L 78.525 -38.849 C 78.525 -40.345 77.359 -41.562 75.812 -41.562 C 74.249 -41.562 73.098 -40.345 73.098 -38.849 L 73.098 -31.576 C 73.098 -30.081 74.249 -28.863 75.812 -28.863 Z"/>
  <path d="M 63.149 -22.568 C 64.679 -22.568 65.863 -23.767 65.863 -25.281 L 65.863 -45.144 C 65.863 -46.658 64.679 -47.857 63.149 -47.857 C 61.568 -47.857 60.436 -46.658 60.436 -45.144 L 60.436 -25.281 C 60.436 -23.767 61.568 -22.568 63.149 -22.568 Z"/>
  <path d="M 50.469 -28.636 C 52.017 -28.636 53.182 -29.82 53.182 -31.316 L 53.182 -39.125 C 53.182 -40.62 52.017 -41.804 50.469 -41.804 C 48.921 -41.804 47.755 -40.62 47.755 -39.125 L 47.755 -31.316 C 47.755 -29.82 48.921 -28.636 50.469 -28.636 Z"/>
  <path d="M 37.788 -18.264 C 39.336 -18.264 40.52 -19.448 40.52 -20.977 L 40.52 -49.448 C 40.52 -50.978 39.336 -52.162 37.788 -52.162 C 36.259 -52.162 35.108 -50.978 35.108 -49.448 L 35.108 -20.977 C 35.108 -19.448 36.259 -18.264 37.788 -18.264 Z"/>
  <path d="M 25.126 -25.969 C 26.689 -25.969 27.873 -27.202 27.873 -28.716 L 27.873 -41.709 C 27.873 -43.224 26.689 -44.457 25.126 -44.457 C 23.578 -44.457 22.413 -43.224 22.413 -41.709 L 22.413 -28.716 C 22.413 -27.202 23.578 -25.969 25.126 -25.969 Z"/>
  <path d="M 12.445 -30.49 C 14.027 -30.49 15.192 -31.723 15.192 -33.203 L 15.192 -37.222 C 15.192 -38.736 14.027 -39.936 12.445 -39.936 C 10.916 -39.936 9.766 -38.736 9.766 -37.222 L 9.766 -33.203 C 9.766 -31.723 10.916 -30.49 12.445 -30.49 Z"/>
 </g>
</svg>
