<svg xmlns="http://www.w3.org/2000/svg" viewBox="5.46 -80.13 98.789 91.479" aria-hidden="true" data-sf-symbol="waveform.path">
 <g fill="black">
  <path d="M 10.256 -28.123 L 21.865 -28.123 C 22.776 -28.123 23.653 -28.685 23.886 -29.682 L 25.857 -38.241 L 24.661 -38.241 L 30.808 -9.495 C 31.288 -7.376 34.655 -7.361 34.985 -9.51 L 39.906 -42.094 L 45.569 7.08 C 45.884 9.652 49.532 9.618 49.765 7.08 L 55.016 -52.024 L 60.282 7.035 C 60.48 9.622 64.128 9.637 64.443 7.035 L 70.092 -42.094 L 75.077 -9.464 C 75.358 -7.346 78.725 -7.346 79.205 -9.464 L 85.318 -38.072 L 84.021 -38.039 L 86.161 -29.682 C 86.427 -28.55 87.27 -28.123 88.167 -28.123 L 99.453 -28.123 C 100.817 -28.123 101.897 -29.184 101.897 -30.499 C 101.897 -31.848 100.817 -32.943 99.453 -32.943 L 89.723 -32.943 L 86.559 -45.125 C 85.978 -47.416 82.93 -47.401 82.465 -45.11 L 77.431 -21.398 L 71.865 -58.058 C 71.483 -60.547 67.985 -60.514 67.704 -58.043 L 62.587 -13.829 L 57.138 -75.838 C 56.905 -78.425 53.107 -78.425 52.909 -75.838 L 47.41 -13.829 L 42.343 -58.043 C 42.028 -60.562 38.545 -60.562 38.147 -58.058 L 32.566 -21.398 L 27.566 -45.08 C 27.102 -47.281 24.035 -47.281 23.438 -45.08 L 20.324 -32.943 L 10.256 -32.943 C 8.892 -32.943 7.812 -31.848 7.812 -30.499 C 7.812 -29.184 8.892 -28.123 10.256 -28.123 Z"/>
 </g>
</svg>
