<svg xmlns="http://www.w3.org/2000/svg" viewBox="6.776 -83.654 125.559 93.137" aria-hidden="true" data-sf-symbol="hare">
 <g fill="black">
  <path d="M91.8945 2.29492C100.293 2.29492 102.832-2.14844 102.832-6.83594C102.832-15.4785 95.9473-19.873 81.0059-19.873C77.8809-19.873 76.0254-19.7266 74.707-19.5801L71.8262-26.6113C66.3086-40.1855 57.0312-45.1172 47.6562-45.1172C46.0938-45.1172 44.3848-45.1172 42.6758-44.7266C40.5273-44.2871 39.7461-43.1152 39.7461-41.6992C39.7461-40.0879 40.9668-39.0137 42.6758-39.0625C44.4824-39.0625 45.3613-39.3066 47.3145-39.3066C56.0059-39.3066 61.8164-34.2773 67.041-22.2168L70.8496-13.2812C73.8281-13.8672 76.8555-14.3555 81.2012-14.3555C88.5742-14.3555 96.3867-12.6953 96.3867-7.37305C96.3867-5.37109 94.873-4.05273 91.8945-4.05273C88.0371-4.05273 85.4492-4.93164 82.1777-4.93164C77.1973-4.93164 74.1211-4.29688 72.168-4.29688C70.6543-4.29688 68.8965-4.39453 67.1387-5.85938L49.6094-21.0449C37.1582-20.459 28.2715-23.8281 23.2422-31.0547C19.4824-30.4688 16.6504-31.8359 16.6504-34.9609C16.6504-37.793 19.1895-39.7949 23.4375-39.5508C27.1973-52.4414 35.7422-58.252 47.5586-58.252C60.2051-58.252 73.9258-47.3633 82.8613-42.4316C85.0098-41.2109 87.8906-40.7715 89.5996-40.7715C94.1406-40.7715 97.6562-43.6035 100.342-49.0723L74.4141-65.2832C72.5098-66.4551 68.5547-69.4336 68.5547-70.3613C68.5547-72.5098 73.6816-73.9258 77.2461-73.9258C83.0566-73.9258 87.793-70.2637 92.4805-64.8926L104.59-50.9277C115.625-51.1719 123.438-43.2617 123.438-32.9102C123.438-26.2207 120.264-24.2188 112.598-24.2188C107.812-24.2188 102.441-26.0742 97.4609-28.8086C90.2344-27.4902 82.2266-24.0723 75.8789-19.1895L80.9082-16.5039C87.0605-19.873 93.0664-22.1191 96.3867-22.998C100.977-20.2637 107.666-18.5059 112.354-18.5547C122.607-18.6523 129.346-21.875 129.346-32.959C129.346-46.1426 119.482-55.7617 107.617-56.1035L99.5117-66.8945C92.8223-75.7324 86.084-80.6641 77.1484-80.6641C70.3613-80.6641 60.5469-76.9043 60.5469-71.3379C60.5469-66.5039 65.9668-63.2324 70.4102-60.4004C75.8301-56.9336 83.7402-52.3438 90.9668-48.1445C90.4297-47.7539 89.8438-47.4609 89.0137-47.4609C88.1348-47.4609 86.6699-48.0469 85.1074-48.9258C68.7012-58.0078 59.4727-65.1855 47.6074-65.1855C33.1055-65.1855 22.7051-57.8613 17.9199-43.6523C13.0859-42.5293 9.76562-39.3555 9.76562-34.375C9.76562-28.1738 14.8926-25.0977 19.7266-24.8535C22.9492-19.4336 33.1543-13.6719 46.6309-14.8926L63.7207-0.439453C65.8203 1.31836 68.0664 2.29492 72.0215 2.29492C75.3906 2.29492 77.7832 1.26953 82.4219 1.26953C86.5723 1.26953 88.623 2.29492 91.8945 2.29492ZM44.9707 6.49414C53.4668 6.49414 60.8398 4.29688 66.6504-2.29492L61.1816-5.9082C58.0566-1.80664 52.2461 0.634766 44.7266 0.634766C39.6973 0.634766 36.3281-1.17188 36.3281-4.00391C36.3281-5.37109 37.2559-6.44531 39.2578-6.44531C41.4062-6.44531 43.7012-6.05469 46.0449-6.05469C50.7812-6.05469 53.6133-6.49414 56.8359-9.96094L52.2461-14.0625C50.2441-11.8652 48.9258-11.4746 47.2168-11.4746C44.9707-11.5234 42.5781-12.1582 39.6484-12.1582C34.082-12.1582 30.0781-8.93555 30.0781-4.05273C30.0781 2.73438 36.084 6.49414 44.9707 6.49414ZM109.814-35.1074C111.816-35.1074 113.428-36.7188 113.428-38.7207C113.428-40.6738 111.816-42.334 109.814-42.334C107.861-42.334 106.201-40.6738 106.201-38.7207C106.201-36.7188 107.861-35.1074 109.814-35.1074Z"/>
 </g>
</svg>
