<svg xmlns="http://www.w3.org/2000/svg" viewBox="6.532 -65.441 135.813 72.043" aria-hidden="true" data-sf-symbol="tortoise">
 <g fill="black">
  <path d="M57.3242-1.5625C72.6074-1.5625 73.0957-12.207 90.332-12.207C109.521-12.207 108.594-21.2402 120.361-21.2402C131.055-21.2402 139.111-24.9023 139.111-32.0801C139.111-48.1445 129.932-56.0059 119.824-56.0059C109.131-56.0059 103.271-49.5117 101.221-40.4785C100.098-35.9375 97.9492-33.3008 94.9707-31.6406L92.7246-35.7422C82.5684-54.4434 73.0957-62.1582 57.4219-62.207C40.7227-62.1582 32.2754-54.8828 19.6777-31.2988C16.0156-24.3164 9.76562-23.0469 9.76562-18.0176C9.76562-14.5508 12.5-12.207 18.0176-12.207C19.3848-12.207 20.8496-12.207 22.2656-12.207C40.8691-12.207 43.9941-1.5625 57.3242-1.5625ZM57.3242-8.54492C45.7031-8.54492 42.4316-19.2383 23.7793-19.2383C21.9238-19.2383 20.0684-19.1895 18.6035-19.043L18.2617-19.5801C20.8984-21.875 23.9746-24.707 25.9277-28.5645C36.5234-48.877 43.457-55.2246 57.4219-55.2734C72.9004-55.2246 79.7363-44.873 87.1582-31.8848C89.9414-27.002 93.1641-22.0703 96.0938-19.0918C94.6777-19.1895 92.8711-19.2383 91.0645-19.2383C71.7773-19.2383 69.3359-8.54492 57.3242-8.54492ZM103.223-20.9961C101.709-22.168 99.8535-24.4141 98.7305-26.416C102.49-27.832 105.518-30.5664 106.885-37.0117C108.545-45.2148 112.891-49.4629 119.824-49.4629C126.758-49.4629 132.861-43.0664 132.861-33.2031C132.861-29.9316 127.295-27.5879 121.777-27.5879C112.646-27.5879 108.398-24.4629 103.223-20.9961ZM120.996-35.4492C122.949-35.4492 124.609-37.1094 124.609-39.0625C124.609-41.0645 122.949-42.6758 120.996-42.6758C118.994-42.6758 117.383-41.0645 117.383-39.0625C117.383-37.1094 118.994-35.4492 120.996-35.4492ZM57.0801-30.7617C70.0684-30.7617 79.6875-36.6699 85.5957-42.8223L82.4219-47.6074C75.7812-40.3809 66.9434-36.3281 57.0801-36.3281C47.168-36.3281 38.3789-40.2344 31.6895-47.6074L28.5645-42.7734C34.375-36.7188 43.9941-30.7617 57.0801-30.7617ZM39.8926-12.0117C44.0918-16.5527 47.9492-26.0742 48.5352-32.5195L43.8477-34.0332C43.4082-28.6621 39.4043-18.7012 35.1074-14.3066ZM74.9023-12.0117L79.7363-14.3066C75.3906-18.75 71.3867-28.6133 70.9473-34.0332L66.2598-32.6172C66.6016-26.1719 70.459-16.6992 74.9023-12.0117ZM21.0938 3.36914C29.248 3.36914 37.4512 0 44.0918-6.73828L38.623-10.3027C31.6895-4.73633 26.2207-2.44141 21.1914-2.44141C17.9688-2.44141 16.3574-3.56445 16.3574-5.17578C16.3574-6.34766 17.334-7.22656 19.6289-7.8125C21.582-8.39844 28.7109-10.498 32.4707-12.6953L26.709-14.502C23.3887-13.0859 18.8477-12.5488 15.3809-11.1328C12.1582-9.86328 9.91211-7.95898 9.91211-4.19922C9.91211 0.732422 14.8438 3.36914 21.0938 3.36914ZM92.2852 3.36914C98.5352 3.36914 103.516 0.78125 103.516-4.19922C103.516-8.83789 100.049-10.6934 95.8008-11.9141C92.7246-12.793 89.3555-13.3301 86.6699-14.4531L80.957-12.6465C84.7168-10.498 91.7969-8.34961 93.7988-7.8125C96.0938-7.17773 97.0215-6.34766 97.0215-5.12695C97.0215-3.51562 95.4102-2.39258 92.1875-2.39258C87.1582-2.39258 81.6895-4.6875 74.8047-10.3027L69.3359-6.73828C75.7812-0.195312 84.1309 3.36914 92.2852 3.36914Z"/>
 </g>
</svg>
