<svg xmlns="http://www.w3.org/2000/svg" viewBox="7.218 -88.339 106.023 107" aria-hidden="true" data-sf-symbol="tree">
 <g fill="black">
  <path d="M50.8789-5.51758C53.7109-5.51758 56.9336-5.95703 60.2539-7.12891C63.5254-5.95703 66.748-5.51758 69.6289-5.51758C77.6855-5.51758 83.6914-9.17969 85.9375-11.084C89.209-9.47266 92.2852-8.74023 95.166-8.74023C104.297-8.74023 110.693-15.332 110.693-24.7559C110.693-29.4922 108.74-34.5215 104.346-39.0137C107.861-42.6758 109.277-47.1191 109.277-51.3184C109.277-60.5957 102.197-69.3359 93.2129-70.459C92.6758-79.4434 82.5195-85.791 72.998-85.791C68.1641-85.791 63.623-84.375 60.2539-80.957C56.8359-84.375 52.3438-85.791 47.4609-85.791C37.9395-85.791 27.7832-79.4434 27.2949-70.459C18.2617-69.3359 11.1816-60.5957 11.1816-51.3184C11.1816-47.1191 12.6465-42.6758 16.1133-39.0137C11.7188-34.5215 9.76562-29.4922 9.76562-24.7559C9.76562-15.332 16.2109-8.74023 25.293-8.74023C28.1738-8.74023 31.2988-9.47266 34.5703-11.084C36.7676-9.17969 42.7734-5.51758 50.8789-5.51758ZM50.8789-11.7676C41.8945-11.7676 37.4512-16.748 35.5957-18.75C31.4453-15.8203 29.1992-15.0391 25.293-15.0391C19.8242-15.0391 16.0645-18.9453 16.0645-24.7559C16.0645-28.8086 17.4316-31.7871 22.9492-36.8164C24.2676-37.9883 24.1211-39.9414 23.0469-41.0156C18.3594-45.6055 17.4316-48.4863 17.4316-52.1973C17.4316-59.4727 22.998-64.9902 31.9824-64.3066C33.3984-64.209 33.8379-65.1855 33.6914-66.1133C32.5195-73.4863 38.5742-79.541 47.9004-79.541C53.3203-79.541 56.7871-77.4902 60.2539-74.1699C63.6719-77.4902 67.2363-79.541 72.5586-79.541C81.8848-79.541 87.9395-73.4863 86.7676-66.1133C86.6211-65.1855 87.0605-64.209 88.5254-64.3066C97.4609-64.9902 103.027-59.4727 103.027-52.1973C103.027-48.4863 102.1-45.6055 97.4121-41.0156C96.3867-39.9414 96.1914-37.9883 97.5098-36.8164C103.027-31.7871 104.395-28.8086 104.395-24.7559C104.395-18.9453 100.684-15.0391 95.166-15.0391C91.2598-15.0391 89.0137-15.8203 84.8633-18.75C83.0078-16.748 78.5645-11.7676 69.6289-11.7676C66.6504-11.7676 64.0625-12.2559 60.2539-13.8184C56.3965-12.2559 53.8086-11.7676 50.8789-11.7676Z"/>
  <path d="M60.2539 16.1133C64.209 16.1133 66.748 14.8438 66.748 12.793C66.748 10.2539 66.0645 2.44141 66.0645-2.34375C66.0645-10.9375 75.5371-28.0273 76.6113-29.7363L71.0938-33.3008C69.2871-29.9316 67.0898-26.3184 63.623-18.75L63.623-31.7871L56.8359-31.7871L56.8359-18.7012C53.418-26.2695 51.2207-29.9805 49.4141-33.3008L43.9453-29.7363C44.9219-28.0273 54.3945-10.9375 54.3945-2.34375C54.3945 2.44141 53.7109 10.2539 53.7109 12.793C53.7109 14.8438 56.2988 16.1133 60.2539 16.1133Z"/>
  <path d="M39.502-24.7559C46.7285-24.7559 50.9766-28.0762 52.832-32.7637C54.9316-31.4941 57.373-30.7617 60.2539-30.7617C63.0859-30.7617 65.5762-31.4941 67.627-32.7637C69.4824-28.0762 73.7793-24.7559 80.957-24.7559C82.4219-24.7559 83.6426-25.9277 83.6426-27.4414C83.6426-28.9062 82.4219-30.127 80.957-30.127C74.6094-30.2246 71.582-33.7402 71.5332-39.4531C71.5332-41.5527 68.6523-42.334 67.5293-40.5762C65.8203-37.9395 63.4766-36.6211 60.2539-36.6211C56.9824-36.6211 54.6387-37.9395 52.9297-40.5762C51.8066-42.334 48.9258-41.5527 48.9258-39.4531C48.877-33.7402 45.8496-30.2246 39.502-30.127C38.0371-30.127 36.8164-28.9062 36.8164-27.4414C36.8164-25.9277 38.0371-24.7559 39.502-24.7559Z"/>
 </g>
</svg>
