<svg xmlns="http://www.w3.org/2000/svg" viewBox="7.866 -72.02 79.802 73.66" aria-hidden="true" data-sf-symbol="calendar">
 <g fill="black">
  <path d="M 21.399 -0.26 L 74.134 -0.26 C 81.894 -0.26 85.768 -4.18 85.768 -11.793 L 85.768 -58.587 C 85.768 -66.2 81.894 -70.12 74.134 -70.12 L 21.399 -70.12 C 13.689 -70.12 9.766 -66.23 9.766 -58.587 L 9.766 -11.793 C 9.766 -4.15 13.689 -0.26 21.399 -0.26 Z M 20.958 -5.721 C 17.219 -5.721 15.192 -7.68 15.192 -11.52 L 15.192 -47.028 C 15.192 -50.868 17.219 -52.842 20.958 -52.842 L 74.542 -52.842 C 78.22 -52.842 80.356 -50.868 80.356 -47.028 L 80.356 -11.52 C 80.356 -7.68 78.22 -5.721 74.542 -5.721 Z M 40.201 -39.19 L 42.447 -39.19 C 43.746 -39.19 44.113 -39.558 44.113 -40.807 L 44.113 -43.053 C 44.113 -44.288 43.746 -44.655 42.447 -44.655 L 40.201 -44.655 C 38.952 -44.655 38.584 -44.288 38.584 -43.053 L 38.584 -40.807 C 38.584 -39.558 38.952 -39.19 40.201 -39.19 Z M 53.086 -39.19 L 55.333 -39.19 C 56.597 -39.19 56.949 -39.558 56.949 -40.807 L 56.949 -43.053 C 56.949 -44.288 56.597 -44.655 55.333 -44.655 L 53.086 -44.655 C 51.788 -44.655 51.421 -44.288 51.421 -43.053 L 51.421 -40.807 C 51.421 -39.558 51.788 -39.19 53.086 -39.19 Z M 65.923 -39.19 L 68.169 -39.19 C 69.434 -39.19 69.834 -39.558 69.834 -40.807 L 69.834 -43.053 C 69.834 -44.288 69.434 -44.655 68.169 -44.655 L 65.923 -44.655 C 64.624 -44.655 64.272 -44.288 64.272 -43.053 L 64.272 -40.807 C 64.272 -39.558 64.624 -39.19 65.923 -39.19 Z M 27.365 -26.549 L 29.611 -26.549 C 30.909 -26.549 31.276 -26.901 31.276 -28.151 L 31.276 -30.397 C 31.276 -31.646 30.909 -32.014 29.611 -32.014 L 27.365 -32.014 C 26.1 -32.014 25.699 -31.646 25.699 -30.397 L 25.699 -28.151 C 25.699 -26.901 26.1 -26.549 27.365 -26.549 Z M 40.201 -26.549 L 42.447 -26.549 C 43.746 -26.549 44.113 -26.901 44.113 -28.151 L 44.113 -30.397 C 44.113 -31.646 43.746 -32.014 42.447 -32.014 L 40.201 -32.014 C 38.952 -32.014 38.584 -31.646 38.584 -30.397 L 38.584 -28.151 C 38.584 -26.901 38.952 -26.549 40.201 -26.549 Z M 53.086 -26.549 L 55.333 -26.549 C 56.597 -26.549 56.949 -26.901 56.949 -28.151 L 56.949 -30.397 C 56.949 -31.646 56.597 -32.014 55.333 -32.014 L 53.086 -32.014 C 51.788 -32.014 51.421 -31.646 51.421 -30.397 L 51.421 -28.151 C 51.421 -26.901 51.788 -26.549 53.086 -26.549 Z M 65.923 -26.549 L 68.169 -26.549 C 69.434 -26.549 69.834 -26.901 69.834 -28.151 L 69.834 -30.397 C 69.834 -31.646 69.434 -32.014 68.169 -32.014 L 65.923 -32.014 C 64.624 -32.014 64.272 -31.646 64.272 -30.397 L 64.272 -28.151 C 64.272 -26.901 64.624 -26.549 65.923 -26.549 Z M 27.365 -13.893 L 29.611 -13.893 C 30.909 -13.893 31.276 -14.26 31.276 -15.51 L 31.276 -17.756 C 31.276 -19.005 30.909 -19.357 29.611 -19.357 L 27.365 -19.357 C 26.1 -19.357 25.699 -19.005 25.699 -17.756 L 25.699 -15.51 C 25.699 -14.26 26.1 -13.893 27.365 -13.893 Z M 40.201 -13.893 L 42.447 -13.893 C 43.746 -13.893 44.113 -14.26 44.113 -15.51 L 44.113 -17.756 C 44.113 -19.005 43.746 -19.357 42.447 -19.357 L 40.201 -19.357 C 38.952 -19.357 38.584 -19.005 38.584 -17.756 L 38.584 -15.51 C 38.584 -14.26 38.952 -13.893 40.201 -13.893 Z M 53.086 -13.893 L 55.333 -13.893 C 56.597 -13.893 56.949 -14.26 56.949 -15.51 L 56.949 -17.756 C 56.949 -19.005 56.597 -19.357 55.333 -19.357 L 53.086 -19.357 C 51.788 -19.357 51.421 -19.005 51.421 -17.756 L 51.421 -15.51 C 51.421 -14.26 51.788 -13.893 53.086 -13.893 Z"/>
 </g>
</svg>
