<svg xmlns="http://www.w3.org/2000/svg" viewBox="7.852 -72.715 80.391 75.02" aria-hidden="true" data-sf-symbol="calendar">
 <g fill="black">
  <path d="M22.2168 0.390625L73.877 0.390625C82.2266 0.390625 86.3281-3.71094 86.3281-11.9141L86.3281-58.4961C86.3281-66.6992 82.2266-70.8008 73.877-70.8008L22.2168-70.8008C13.916-70.8008 9.76562-66.6992 9.76562-58.4961L9.76562-11.9141C9.76562-3.71094 13.916 0.390625 22.2168 0.390625ZM21.5332-6.68945C18.5059-6.68945 16.7969-8.30078 16.7969-11.4746L16.7969-48.1934C16.7969-51.3672 18.5059-52.9785 21.5332-52.9785L74.5117-52.9785C77.5391-52.9785 79.2969-51.3672 79.2969-48.1934L79.2969-11.4746C79.2969-8.30078 77.5391-6.68945 74.5117-6.68945ZM40.625-39.1602L42.8711-39.1602C44.3359-39.1602 44.8242-39.6484 44.8242-41.0645L44.8242-43.3105C44.8242-44.7266 44.3359-45.2148 42.8711-45.2148L40.625-45.2148C39.209-45.2148 38.7207-44.7266 38.7207-43.3105L38.7207-41.0645C38.7207-39.6484 39.209-39.1602 40.625-39.1602ZM53.2227-39.1602L55.4688-39.1602C56.8848-39.1602 57.373-39.6484 57.373-41.0645L57.373-43.3105C57.373-44.7266 56.8848-45.2148 55.4688-45.2148L53.2227-45.2148C51.7578-45.2148 51.2695-44.7266 51.2695-43.3105L51.2695-41.0645C51.2695-39.6484 51.7578-39.1602 53.2227-39.1602ZM65.7715-39.1602L68.0176-39.1602C69.4336-39.1602 69.9707-39.6484 69.9707-41.0645L69.9707-43.3105C69.9707-44.7266 69.4336-45.2148 68.0176-45.2148L65.7715-45.2148C64.3066-45.2148 63.8184-44.7266 63.8184-43.3105L63.8184-41.0645C63.8184-39.6484 64.3066-39.1602 65.7715-39.1602ZM28.0762-26.8066L30.3223-26.8066C31.7871-26.8066 32.2754-27.2949 32.2754-28.7109L32.2754-30.957C32.2754-32.373 31.7871-32.8613 30.3223-32.8613L28.0762-32.8613C26.6602-32.8613 26.123-32.373 26.123-30.957L26.123-28.7109C26.123-27.2949 26.6602-26.8066 28.0762-26.8066ZM40.625-26.8066L42.8711-26.8066C44.3359-26.8066 44.8242-27.2949 44.8242-28.7109L44.8242-30.957C44.8242-32.373 44.3359-32.8613 42.8711-32.8613L40.625-32.8613C39.209-32.8613 38.7207-32.373 38.7207-30.957L38.7207-28.7109C38.7207-27.2949 39.209-26.8066 40.625-26.8066ZM53.2227-26.8066L55.4688-26.8066C56.8848-26.8066 57.373-27.2949 57.373-28.7109L57.373-30.957C57.373-32.373 56.8848-32.8613 55.4688-32.8613L53.2227-32.8613C51.7578-32.8613 51.2695-32.373 51.2695-30.957L51.2695-28.7109C51.2695-27.2949 51.7578-26.8066 53.2227-26.8066ZM65.7715-26.8066L68.0176-26.8066C69.4336-26.8066 69.9707-27.2949 69.9707-28.7109L69.9707-30.957C69.9707-32.373 69.4336-32.8613 68.0176-32.8613L65.7715-32.8613C64.3066-32.8613 63.8184-32.373 63.8184-30.957L63.8184-28.7109C63.8184-27.2949 64.3066-26.8066 65.7715-26.8066ZM28.0762-14.4531L30.3223-14.4531C31.7871-14.4531 32.2754-14.9414 32.2754-16.3574L32.2754-18.6035C32.2754-20.0195 31.7871-20.5078 30.3223-20.5078L28.0762-20.5078C26.6602-20.5078 26.123-20.0195 26.123-18.6035L26.123-16.3574C26.123-14.9414 26.6602-14.4531 28.0762-14.4531ZM40.625-14.4531L42.8711-14.4531C44.3359-14.4531 44.8242-14.9414 44.8242-16.3574L44.8242-18.6035C44.8242-20.0195 44.3359-20.5078 42.8711-20.5078L40.625-20.5078C39.209-20.5078 38.7207-20.0195 38.7207-18.6035L38.7207-16.3574C38.7207-14.9414 39.209-14.4531 40.625-14.4531ZM53.2227-14.4531L55.4688-14.4531C56.8848-14.4531 57.373-14.9414 57.373-16.3574L57.373-18.6035C57.373-20.0195 56.8848-20.5078 55.4688-20.5078L53.2227-20.5078C51.7578-20.5078 51.2695-20.0195 51.2695-18.6035L51.2695-16.3574C51.2695-14.9414 51.7578-14.4531 53.2227-14.4531Z"/>
 </g>
</svg>
