<svg xmlns="http://www.w3.org/2000/svg" viewBox="4.836 -76.658 82.857 82.809" aria-hidden="true" data-sf-symbol="timer">
 <g fill="black">
  <path d="M46.2402 4.15039C68.0176 4.15039 85.6934-13.4766 85.6934-35.2539C85.6934-57.0312 68.0176-74.6582 46.2891-74.6582C44.1895-74.6582 43.0664-73.291 43.0664-71.1426L43.0664-58.9355C43.0664-57.0312 44.3848-55.5176 46.2402-55.5176C48.1445-55.5176 49.4629-57.0312 49.4629-58.9355L49.4629-67.041C64.502-65.5762 78.2227-52.9297 78.2227-35.2539C78.2227-17.5781 63.916-3.27148 46.2402-3.27148C28.5645-3.27148 14.3066-17.5781 14.3066-35.2051C14.3066-43.0664 17.0898-50.0977 21.582-55.5664C22.9004-57.2754 22.9004-59.4727 21.4355-60.9863C19.9707-62.5488 17.5293-62.4023 15.9668-60.4492C10.3027-53.6133 6.83594-44.7754 6.83594-35.2539C6.83594-13.4766 24.5117 4.15039 46.2402 4.15039Z"/>
  <path d="M46.2402-28.7598C49.8535-28.7598 52.7344-31.6406 52.7344-35.2539C52.7344-37.4023 51.709-39.3555 50-40.5273L30.9082-53.9551C28.8574-55.4199 26.709-53.2715 28.0762-51.1719L40.5273-32.1289C41.8457-30.127 43.8477-28.7598 46.2402-28.7598Z"/>
 </g>
</svg>
