<svg xmlns="http://www.w3.org/2000/svg" viewBox="7.215 -89.053 53.355 107.149" aria-hidden="true" data-sf-symbol="balloon">
 <g fill="black">
  <path d="M 33.851 -29.135 C 47.428 -29.135 58.019 -43.537 58.019 -61.666 C 58.019 -75.889 48.175 -86.502 33.851 -86.502 C 19.561 -86.502 9.766 -75.889 9.766 -61.666 C 9.766 -43.537 20.308 -29.135 33.851 -29.135 Z M 33.851 -34.194 C 23.107 -34.194 14.874 -46.736 14.874 -61.666 C 14.874 -72.679 22.695 -81.379 33.851 -81.379 C 44.992 -81.379 52.926 -72.679 52.926 -61.666 C 52.926 -46.736 44.58 -34.194 33.851 -34.194 Z M 28.861 -31.436 L 27.166 -25.013 C 26.768 -23.606 27.578 -22.141 29.291 -22.141 L 38.49 -22.141 C 40.203 -22.141 41.013 -23.606 40.616 -25.013 L 38.871 -31.436 Z M 33.217 15.545 C 34.547 15.545 35.627 14.432 35.627 13.135 C 35.627 4.641 43.29 2.57 43.29 -5.77 C 43.29 -14.24 36.081 -16.148 36.148 -23.766 L 31.328 -23.766 C 31.294 -13.605 38.469 -11.991 38.469 -5.77 C 38.469 0.597 30.807 1.57 30.807 13.135 C 30.807 14.432 31.871 15.545 33.217 15.545 Z"/>
 </g>
</svg>
