<svg xmlns="http://www.w3.org/2000/svg" viewBox="6.441 -76.378 75.558 82.249" aria-hidden="true" data-sf-symbol="bell">
 <g fill="black">
  <path d="M 8.399 -13.663 C 8.399 -11.159 10.311 -9.483 13.508 -9.483 L 30.644 -9.483 C 30.91 -2.239 36.435 3.912 44.22 3.912 C 51.971 3.912 57.496 -2.206 57.795 -9.483 L 74.932 -9.483 C 78.128 -9.483 80.04 -11.159 80.04 -13.663 C 80.04 -17.502 76.233 -20.912 72.985 -24.281 C 70.137 -27.295 69.651 -33.471 69.175 -38.706 C 68.718 -52.774 64.842 -62.116 54.907 -65.53 C 53.718 -70.564 49.716 -74.42 44.22 -74.42 C 38.739 -74.42 34.721 -70.564 33.532 -65.53 C 23.598 -62.116 19.722 -52.774 19.23 -38.706 C 18.788 -33.471 18.284 -27.295 15.47 -24.281 C 12.188 -20.912 8.399 -17.502 8.399 -13.663 Z M 14.931 -14.606 L 14.931 -15.064 C 15.504 -16.397 17.921 -18.88 20.023 -21.18 C 23.15 -24.589 24.102 -30.483 24.623 -38.232 C 25.142 -53.664 29.813 -59.066 36.413 -60.888 C 37.459 -61.144 38.034 -61.632 38.095 -62.632 C 38.31 -66.609 40.586 -69.431 44.22 -69.431 C 47.819 -69.431 50.129 -66.609 50.326 -62.632 C 50.387 -61.632 50.981 -61.144 51.993 -60.888 C 58.626 -59.066 63.298 -53.664 63.816 -38.232 C 64.352 -30.483 65.305 -24.589 68.417 -21.18 C 70.518 -18.88 72.951 -16.397 73.508 -15.064 L 73.508 -14.606 Z M 35.902 -9.483 L 52.537 -9.483 C 52.244 -4.215 48.867 -0.844 44.22 -0.844 C 39.539 -0.844 36.195 -4.215 35.902 -9.483 Z"/>
 </g>
</svg>
