<svg xmlns="http://www.w3.org/2000/svg" viewBox="12.132 -77.884 54.768 85.194" aria-hidden="true" data-sf-symbol="bookmark">
 <g fill="black">
  <path d="M 17.922 5.281 C 19.58 5.281 20.649 4.333 23.639 1.429 L 39.195 -14.066 C 39.375 -14.246 39.705 -14.246 39.852 -14.066 L 55.408 1.429 C 58.416 4.318 59.437 5.281 61.143 5.281 C 63.487 5.281 64.871 3.683 64.871 0.972 L 64.871 -65.267 C 64.871 -72.275 61.338 -75.856 54.398 -75.856 L 24.634 -75.856 C 17.708 -75.856 14.16 -72.275 14.16 -65.267 L 14.16 0.972 C 14.16 3.683 15.56 5.281 17.922 5.281 Z M 20.685 -3.685 C 20.102 -3.121 19.486 -3.282 19.486 -4.075 L 19.486 -65.169 C 19.486 -68.696 21.324 -70.531 24.9 -70.531 L 54.147 -70.531 C 57.707 -70.531 59.561 -68.696 59.561 -65.169 L 59.561 -4.075 C 59.561 -3.282 58.959 -3.121 58.38 -3.685 L 41.389 -20.391 C 40.279 -21.497 38.767 -21.497 37.642 -20.391 Z"/>
 </g>
</svg>
