<svg xmlns="http://www.w3.org/2000/svg" viewBox="4.901 -75.867 81.258 81.225" aria-hidden="true" data-sf-symbol="clock">
 <g fill="black">
  <path d="M 45.514 3.424 C 66.882 3.424 84.225 -13.885 84.225 -35.254 C 84.225 -56.623 66.882 -73.932 45.514 -73.932 C 24.179 -73.932 6.836 -56.623 6.836 -35.254 C 6.836 -13.885 24.179 3.424 45.514 3.424 Z M 45.514 -2.272 C 27.278 -2.272 12.551 -17.018 12.551 -35.254 C 12.551 -53.49 27.278 -68.235 45.514 -68.235 C 63.749 -68.235 78.495 -53.49 78.495 -35.254 C 78.495 -17.018 63.749 -2.272 45.514 -2.272 Z"/>
  <path d="M 25.104 -31.332 L 45.48 -31.332 C 46.826 -31.332 47.872 -32.363 47.872 -33.69 L 47.872 -59.987 C 47.872 -61.333 46.826 -62.348 45.48 -62.348 C 44.198 -62.348 43.152 -61.333 43.152 -59.987 L 43.152 -36.051 L 25.104 -36.051 C 23.744 -36.051 22.762 -35.005 22.762 -33.69 C 22.762 -32.363 23.744 -31.332 25.104 -31.332 Z"/>
 </g>
</svg>
