<svg xmlns="http://www.w3.org/2000/svg" viewBox="5.095 -43.988 73.12 17.468" aria-hidden="true" data-sf-symbol="ellipsis">
 <g fill="black">
  <path d="M 69.466 -28.261 C 73.347 -28.261 76.474 -31.373 76.474 -35.254 C 76.474 -39.135 73.347 -42.247 69.466 -42.247 C 65.633 -42.247 62.473 -39.135 62.473 -35.254 C 62.473 -31.373 65.633 -28.261 69.466 -28.261 Z"/>
  <path d="M 41.648 -28.261 C 45.529 -28.261 48.641 -31.373 48.641 -35.254 C 48.641 -39.135 45.529 -42.247 41.648 -42.247 C 37.781 -42.247 34.654 -39.135 34.654 -35.254 C 34.654 -31.373 37.781 -28.261 41.648 -28.261 Z"/>
  <path d="M 13.829 -28.261 C 17.71 -28.261 20.822 -31.373 20.822 -35.254 C 20.822 -39.135 17.71 -42.247 13.829 -42.247 C 9.963 -42.247 6.836 -39.135 6.836 -35.254 C 6.836 -31.373 9.963 -28.261 13.829 -28.261 Z"/>
 </g>
</svg>
