<svg xmlns="http://www.w3.org/2000/svg" viewBox="7.742 -75.851 84.959 80.48" aria-hidden="true" data-sf-symbol="figure.flexibility">
 <g fill="black">
  <path d="M 32.834 -57.35 C 37.403 -57.35 41.106 -61.053 41.106 -65.638 C 41.106 -70.174 37.403 -73.828 32.834 -73.828 C 28.316 -73.828 24.58 -70.174 24.58 -65.638 C 24.58 -61.053 28.316 -57.35 32.834 -57.35 Z M 88.646 -4.626 L 63.798 -18.051 L 49.442 -28.036 C 48.35 -28.787 47.355 -29.733 46.506 -30.777 C 47.974 -31.674 48.579 -33.338 48.154 -34.986 L 45.315 -46.406 C 44.32 -50.469 40.682 -53.259 36.521 -53.259 L 27.516 -53.259 C 24.775 -53.259 22.882 -52.605 21.072 -50.795 L 10.858 -40.582 C 9.619 -39.342 9.439 -37.416 10.288 -35.899 L 17.449 -23.338 L 17.449 -1.231 C 17.449 0.823 19.195 2.603 21.301 2.603 C 23.438 2.603 25.15 0.823 25.15 -1.231 L 25.15 -20.206 L 47.159 -18.622 L 60.438 -11.085 L 85.056 2.096 C 87.275 3.305 89.461 2.193 90.261 0.579 C 91.207 -1.28 90.49 -3.631 88.646 -4.626 Z M 18.429 -37.172 L 25.053 -43.878 L 30.257 -30.533 L 26.146 -28.216 L 23.584 -28.216 Z"/>
 </g>
</svg>
