<svg xmlns="http://www.w3.org/2000/svg" viewBox="4.806 -77.817 85.258 85.157" aria-hidden="true" data-sf-symbol="gearshape">
 <g fill="black">
  <path d="M 43.561 5.31 L 51.275 5.31 C 54.113 5.31 56.255 3.632 56.893 0.899 L 58.565 -6.374 L 60.11 -6.924 L 66.392 -2.998 C 68.816 -1.526 71.499 -1.823 73.5 -3.857 L 78.886 -9.209 C 80.901 -11.21 81.231 -13.926 79.726 -16.299 L 75.766 -22.599 L 76.316 -24.058 L 83.59 -25.73 C 86.323 -26.368 88.034 -28.544 88.034 -31.348 L 88.034 -38.928 C 88.034 -41.731 86.356 -43.874 83.59 -44.545 L 76.384 -46.285 L 75.8 -47.777 L 79.76 -54.078 C 81.265 -56.484 80.969 -59.166 78.919 -61.201 L 73.533 -66.553 C 71.566 -68.554 68.884 -68.884 66.459 -67.412 L 60.144 -63.52 L 58.565 -64.103 L 56.893 -71.377 C 56.255 -74.11 54.113 -75.787 51.275 -75.787 L 43.561 -75.787 C 40.723 -75.787 38.615 -74.11 37.977 -71.377 L 36.305 -64.103 L 34.677 -63.52 L 28.362 -67.412 C 25.971 -68.884 23.273 -68.554 21.288 -66.553 L 15.935 -61.201 C 13.886 -59.166 13.589 -56.484 15.095 -54.078 L 19.021 -47.777 L 18.437 -46.285 L 11.246 -44.545 C 8.513 -43.874 6.836 -41.731 6.836 -38.928 L 6.836 -31.348 C 6.836 -28.544 8.547 -26.368 11.246 -25.73 L 18.504 -24.058 L 19.055 -22.599 L 15.128 -16.299 C 13.623 -13.926 13.953 -11.21 15.969 -9.209 L 21.321 -3.857 C 23.307 -1.823 26.038 -1.526 28.429 -2.998 L 34.745 -6.924 L 36.305 -6.374 L 37.977 0.899 C 38.615 3.632 40.723 5.31 43.561 5.31 Z M 44.123 0.051 C 43.332 0.051 42.906 -0.311 42.782 -1.022 L 40.51 -10.411 C 38.308 -11 36.228 -11.837 34.61 -12.828 L 26.39 -7.709 C 25.791 -7.347 25.173 -7.377 24.638 -7.931 L 20.062 -12.541 C 19.508 -13.076 19.478 -13.63 19.888 -14.278 L 24.939 -22.479 C 24.133 -24.049 23.18 -26.128 22.59 -28.331 L 13.168 -30.569 C 12.456 -30.693 12.094 -31.119 12.094 -31.91 L 12.094 -38.433 C 12.094 -39.257 12.422 -39.616 13.168 -39.808 L 22.557 -42.012 C 23.146 -44.349 24.234 -46.496 24.872 -47.931 L 19.855 -56.099 C 19.41 -56.78 19.44 -57.334 19.994 -57.903 L 24.604 -62.445 C 25.173 -62.965 25.689 -63.029 26.39 -62.667 L 34.542 -57.65 C 36.161 -58.539 38.375 -59.443 40.544 -60.066 L 42.782 -69.455 C 42.906 -70.167 43.332 -70.529 44.123 -70.529 L 50.747 -70.529 C 51.553 -70.529 51.963 -70.197 52.088 -69.455 L 54.326 -59.999 C 56.592 -59.41 58.608 -58.505 60.245 -57.616 L 68.465 -62.667 C 69.131 -63.029 69.648 -62.965 70.25 -62.445 L 74.86 -57.903 C 75.38 -57.334 75.444 -56.78 75 -56.099 L 69.949 -47.931 C 70.651 -46.496 71.69 -44.364 72.279 -42.012 L 81.687 -39.808 C 82.447 -39.616 82.742 -39.257 82.742 -38.433 L 82.742 -31.91 C 82.742 -31.119 82.414 -30.693 81.687 -30.569 L 72.246 -28.331 C 71.69 -26.113 70.752 -24.049 69.881 -22.479 L 74.966 -14.278 C 75.377 -13.63 75.347 -13.076 74.793 -12.541 L 70.217 -7.931 C 69.648 -7.377 69.03 -7.347 68.465 -7.709 L 60.211 -12.828 C 58.642 -11.837 56.559 -11 54.326 -10.411 L 52.088 -1.022 C 51.963 -0.28 51.553 0.051 50.747 0.051 Z M 47.418 -20.673 C 55.49 -20.673 61.999 -27.182 61.999 -35.254 C 61.999 -43.326 55.49 -49.835 47.418 -49.835 C 39.346 -49.835 32.837 -43.326 32.837 -35.254 C 32.837 -27.182 39.346 -20.673 47.418 -20.673 Z M 47.418 -25.897 C 42.258 -25.897 38.095 -30.094 38.095 -35.254 C 38.095 -40.414 42.258 -44.61 47.418 -44.61 C 52.578 -44.61 56.774 -40.414 56.774 -35.254 C 56.774 -30.094 52.578 -25.897 47.418 -25.897 Z"/>
 </g>
</svg>
