<svg xmlns="http://www.w3.org/2000/svg" viewBox="4.655 -80.972 91.594 91.504" aria-hidden="true" data-sf-symbol="gear">
 <g fill="black">
  <path d="M 50.452 8.351 C 51.436 8.351 52.133 7.798 52.365 6.129 L 52.744 2.986 C 52.958 1.647 53.721 0.873 55.248 0.711 C 56.677 0.486 57.613 1.08 58.101 2.309 L 59.276 5.205 C 59.955 6.81 60.814 7.13 61.715 6.867 C 62.649 6.589 63.2 5.887 62.953 4.151 L 62.517 1.139 C 62.31 -0.267 62.944 -1.121 64.377 -1.767 C 65.66 -2.312 66.746 -2.136 67.569 -0.993 L 69.461 1.513 C 70.522 2.934 71.378 3.006 72.23 2.481 C 73.116 1.989 73.453 1.238 72.759 -0.367 L 71.575 -3.251 C 71.011 -4.578 71.368 -5.66 72.572 -6.51 C 73.749 -7.349 74.764 -7.477 75.929 -6.574 L 78.389 -4.64 C 79.731 -3.616 80.617 -3.724 81.322 -4.396 C 82.009 -5.116 82.102 -6.021 81.044 -7.344 L 79.125 -9.755 C 78.256 -10.887 78.403 -12.045 79.256 -13.229 C 80.091 -14.274 81.128 -14.71 82.467 -14.097 L 85.336 -12.914 C 86.956 -12.22 87.741 -12.557 88.232 -13.476 C 88.724 -14.294 88.652 -15.135 87.23 -16.211 L 84.759 -18.104 C 83.646 -18.945 83.469 -20.046 84.018 -21.348 C 84.515 -22.694 85.398 -23.28 86.841 -23.122 L 89.951 -22.686 C 91.605 -22.472 92.356 -22.989 92.585 -23.958 C 92.814 -24.907 92.528 -25.717 90.908 -26.362 L 88.027 -27.522 C 86.752 -28.007 86.237 -28.977 86.429 -30.526 C 86.591 -31.898 87.29 -32.748 88.737 -32.928 L 91.813 -33.292 C 93.516 -33.524 94.068 -34.237 94.068 -35.22 C 94.068 -36.204 93.516 -36.916 91.813 -37.148 L 88.737 -37.512 C 87.256 -37.726 86.625 -38.576 86.429 -39.982 C 86.237 -41.396 86.752 -42.366 88.027 -42.884 L 90.941 -44.044 C 92.528 -44.723 92.848 -45.567 92.585 -46.483 C 92.322 -47.418 91.605 -47.968 89.917 -47.721 L 86.875 -47.285 C 85.466 -47.093 84.447 -47.78 83.984 -49.093 C 83.436 -50.529 83.579 -51.495 84.759 -52.337 L 87.23 -54.229 C 88.652 -55.306 88.724 -56.161 88.266 -56.998 C 87.707 -57.917 86.889 -58.187 85.336 -57.561 L 82.467 -56.31 C 81.128 -55.73 80.091 -56.2 79.223 -57.279 C 78.403 -58.396 78.256 -59.486 79.159 -60.651 L 81.078 -63.096 C 82.102 -64.42 82.043 -65.324 81.322 -66.045 C 80.617 -66.717 79.731 -66.825 78.422 -65.767 L 75.962 -63.833 C 74.831 -62.896 73.681 -63.092 72.572 -63.964 C 71.368 -64.915 71.011 -65.878 71.575 -67.189 L 72.759 -70.074 C 73.453 -71.679 73.116 -72.463 72.23 -72.921 C 71.311 -73.481 70.437 -73.24 69.461 -71.953 L 67.569 -69.481 C 66.712 -68.338 65.66 -68.162 64.276 -68.707 C 62.978 -69.252 62.343 -70.14 62.55 -71.579 L 63.02 -74.625 C 63.2 -76.328 62.784 -77.03 61.715 -77.308 C 60.713 -77.57 59.888 -77.116 59.31 -75.645 L 58.169 -72.749 C 57.68 -71.487 56.643 -70.893 55.18 -71.118 C 53.653 -71.347 52.924 -72.054 52.778 -73.46 L 52.365 -76.536 C 52.133 -78.239 51.436 -78.791 50.486 -78.791 C 49.469 -78.791 48.756 -78.239 48.524 -76.57 L 48.145 -73.426 C 47.965 -72.088 47.202 -71.28 45.69 -71.152 C 44.261 -70.994 43.276 -71.52 42.788 -72.749 L 41.628 -75.645 C 41.017 -77.082 40.225 -77.604 39.189 -77.308 C 38.071 -76.996 37.704 -76.159 37.937 -74.625 L 38.388 -71.579 C 38.595 -70.14 37.926 -69.219 36.546 -68.673 C 35.144 -68.162 34.192 -68.338 33.335 -69.481 L 31.443 -71.953 C 30.434 -73.273 29.579 -73.447 28.693 -72.921 C 27.789 -72.43 27.452 -71.679 28.146 -70.074 L 29.329 -67.189 C 29.893 -65.93 29.536 -64.814 28.385 -63.964 C 27.242 -63.092 26.141 -62.964 24.976 -63.866 L 22.516 -65.801 C 21.259 -66.757 20.34 -66.784 19.582 -66.045 C 18.794 -65.223 18.903 -64.353 19.86 -63.096 L 21.779 -60.685 C 22.715 -59.554 22.535 -58.328 21.648 -57.246 C 20.712 -56.166 19.794 -55.764 18.438 -56.343 L 15.553 -57.527 C 14.083 -58.153 13.197 -57.951 12.706 -56.998 C 12.113 -56.06 12.421 -55.171 13.674 -54.229 L 16.145 -52.337 C 17.258 -51.495 17.469 -50.36 16.92 -49.093 C 16.322 -47.746 15.457 -47.16 14.048 -47.318 L 10.938 -47.754 C 9.299 -47.968 8.548 -47.451 8.319 -46.483 C 8.09 -45.567 8.376 -44.723 9.997 -44.078 L 12.877 -42.918 C 14.186 -42.366 14.734 -41.396 14.475 -39.948 C 14.246 -38.542 13.682 -37.726 12.167 -37.512 L 9.091 -37.148 C 7.388 -36.916 6.836 -36.204 6.836 -35.22 C 6.836 -34.237 7.388 -33.524 9.091 -33.292 L 12.167 -32.928 C 13.682 -32.748 14.28 -31.898 14.475 -30.492 C 14.667 -29.112 14.186 -28.075 12.877 -27.556 L 9.963 -26.396 C 8.376 -25.717 8.057 -24.907 8.319 -23.958 C 8.582 -23.023 9.299 -22.472 10.972 -22.72 L 14.014 -23.156 C 15.438 -23.348 16.322 -22.728 16.954 -21.314 C 17.469 -20.046 17.258 -18.912 16.145 -18.104 L 13.674 -16.211 C 12.252 -15.135 12.18 -14.294 12.706 -13.442 C 13.164 -12.557 13.948 -12.22 15.553 -12.88 L 18.438 -14.131 C 19.727 -14.71 20.832 -14.207 21.682 -13.161 C 22.535 -12.112 22.648 -10.954 21.746 -9.789 L 19.826 -7.378 C 18.802 -6.021 18.861 -5.116 19.582 -4.396 C 20.288 -3.724 21.158 -3.616 22.482 -4.673 L 24.942 -6.608 C 26.073 -7.477 27.141 -7.349 28.385 -6.477 C 29.536 -5.626 29.893 -4.544 29.329 -3.251 L 28.146 -0.367 C 27.452 1.238 27.789 1.989 28.693 2.481 C 29.511 3.006 30.367 2.934 31.443 1.513 L 33.335 -0.959 C 34.226 -2.136 35.245 -2.312 36.512 -1.767 C 37.859 -1.222 38.561 -0.301 38.354 1.139 L 37.869 4.185 C 37.704 5.887 38.206 6.623 39.189 6.867 C 40.124 7.096 40.949 6.81 41.594 5.205 L 42.736 2.309 C 43.224 1.08 44.194 0.52 45.758 0.678 C 47.236 0.839 47.965 1.647 48.111 3.02 L 48.524 6.096 C 48.756 7.798 49.469 8.351 50.452 8.351 Z M 28.686 -12.257 C 22.509 -18.012 18.677 -26.156 18.677 -35.235 C 18.677 -44.349 22.509 -52.492 28.67 -58.213 C 30.888 -60.393 33.236 -59.939 34.773 -57.292 L 45.664 -38.416 C 46.966 -36.158 46.966 -34.176 45.603 -31.869 L 34.804 -13.209 C 33.251 -10.501 30.918 -10.093 28.686 -12.257 Z M 50.284 -3.629 C 47.139 -3.629 44.085 -4.119 41.239 -5.022 C 38.132 -5.917 37.423 -8.106 38.991 -10.799 L 49.806 -29.508 C 51.119 -31.823 52.796 -32.795 55.551 -32.795 L 77.117 -32.795 C 80.265 -32.795 81.707 -30.983 80.908 -27.97 C 77.678 -14.01 65.234 -3.629 50.284 -3.629 Z M 50.183 -33.211 C 49.088 -33.211 48.226 -34.073 48.226 -35.168 C 48.226 -36.263 49.088 -37.125 50.183 -37.125 C 51.277 -37.125 52.173 -36.263 52.173 -35.168 C 52.173 -34.073 51.277 -33.211 50.183 -33.211 Z M 55.551 -37.645 C 52.86 -37.645 51.119 -38.647 49.866 -40.842 L 38.976 -59.717 C 37.438 -62.38 38.162 -64.584 41.224 -65.448 C 44.07 -66.352 47.139 -66.875 50.284 -66.875 C 65.234 -66.875 77.727 -56.495 80.908 -42.455 C 81.707 -39.442 80.295 -37.645 77.132 -37.645 Z"/>
 </g>
</svg>
