<svg xmlns="http://www.w3.org/2000/svg" viewBox="6.383 -82.208 100.764 95.09" aria-hidden="true" data-sf-symbol="hammer">
 <g fill="black">
  <path d="M 11.091 2.415 L 16.766 8.124 C 20.097 11.488 23.808 11.278 27.334 7.339 L 74.637 -45.536 L 71.23 -48.959 L 24.227 3.58 C 22.658 5.292 21.213 5.656 19.365 3.773 L 15.408 -0.15 C 13.559 -1.999 13.908 -3.409 15.668 -5.012 L 68.198 -53.112 L 64.776 -56.486 L 11.875 -8.085 C 8.008 -4.556 7.791 -0.9 11.091 2.415 Z M 46.217 -73.196 C 44.659 -71.687 44.573 -69.583 45.425 -68.149 C 46.266 -66.878 47.995 -65.989 50.196 -66.548 C 54.813 -67.923 60.288 -68.586 65.174 -65.831 L 62.892 -59.901 C 61.709 -56.911 62.321 -54.749 64.205 -52.846 L 72.156 -44.828 C 73.87 -43.098 75.468 -43.019 77.413 -43.395 L 81.021 -44.022 L 83.248 -41.795 L 83.147 -40.038 C 83.064 -38.223 83.469 -36.756 85.23 -35.062 L 87.882 -32.425 C 89.505 -30.787 91.762 -30.667 93.397 -32.321 L 103.554 -42.511 C 105.208 -44.213 105.106 -46.354 103.483 -47.993 L 100.797 -50.663 C 99.088 -52.342 97.719 -52.911 95.871 -52.795 L 94.045 -52.645 L 91.919 -54.786 L 92.689 -58.452 C 93.162 -60.615 92.52 -62.328 90.539 -64.313 L 81.914 -72.87 C 72.048 -82.65 54.614 -81.474 46.217 -73.196 Z M 51.084 -71.597 C 57.942 -76.92 71.656 -76.253 77.719 -70.19 L 87.101 -60.891 C 87.988 -60.022 88.162 -59.345 87.921 -58.104 L 86.806 -53.024 L 91.969 -47.862 L 95.367 -48.042 C 96.272 -48.091 96.589 -47.997 97.318 -47.335 L 99.443 -45.226 L 90.668 -36.466 L 88.573 -38.575 C 87.878 -39.271 87.735 -39.636 87.784 -40.56 L 88.013 -43.891 L 82.884 -49.035 L 77.654 -48.122 C 76.462 -47.866 75.905 -48.021 74.984 -48.908 L 68.097 -55.761 C 67.168 -56.675 67.104 -57.312 67.653 -58.665 L 71.221 -67.619 C 66.39 -72.477 58.025 -73.249 51.374 -70.927 C 50.844 -70.701 50.648 -71.262 51.084 -71.597 Z"/>
 </g>
</svg>
