<svg xmlns="http://www.w3.org/2000/svg" viewBox="8.02 -71.896 73.318 73.352" aria-hidden="true" data-sf-symbol="info.square">
 <g fill="black">
  <path d="M 21.399 -0.291 L 67.957 -0.291 C 75.702 -0.291 79.591 -4.21 79.591 -11.823 L 79.591 -58.617 C 79.591 -66.23 75.702 -70.15 67.957 -70.15 L 21.399 -70.15 C 13.689 -70.15 9.766 -66.26 9.766 -58.617 L 9.766 -11.823 C 9.766 -4.18 13.689 -0.291 21.399 -0.291 Z M 21.497 -5.751 C 17.421 -5.751 15.192 -7.913 15.192 -12.089 L 15.192 -58.351 C 15.192 -62.562 17.421 -64.689 21.497 -64.689 L 67.86 -64.689 C 71.875 -64.689 74.165 -62.562 74.165 -58.351 L 74.165 -12.089 C 74.165 -7.913 71.875 -5.751 67.86 -5.751 Z"/>
  <path d="M 37.937 -13.953 L 53.555 -13.953 C 54.95 -13.953 56.048 -14.965 56.048 -16.378 C 56.048 -17.709 54.95 -18.77 53.555 -18.77 L 48.426 -18.77 L 48.426 -39.256 C 48.426 -41.059 47.496 -42.254 45.798 -42.254 L 38.503 -42.254 C 37.127 -42.254 36.044 -41.193 36.044 -39.881 C 36.044 -38.483 37.127 -37.456 38.503 -37.456 L 43.066 -37.456 L 43.066 -18.77 L 37.937 -18.77 C 36.527 -18.77 35.444 -17.709 35.444 -16.378 C 35.444 -14.965 36.527 -13.953 37.937 -13.953 Z M 44.426 -48.957 C 46.987 -48.957 49.017 -50.974 49.017 -53.536 C 49.017 -56.112 46.987 -58.126 44.426 -58.126 C 41.898 -58.126 39.835 -56.112 39.835 -53.536 C 39.835 -50.974 41.898 -48.957 44.426 -48.957 Z"/>
 </g>
</svg>
