<svg xmlns="http://www.w3.org/2000/svg" viewBox="4.901 -75.867 81.258 81.225" aria-hidden="true" data-sf-symbol="info.circle">
 <g fill="black">
  <path d="M 45.514 3.424 C 66.882 3.424 84.225 -13.885 84.225 -35.254 C 84.225 -56.623 66.882 -73.932 45.514 -73.932 C 24.179 -73.932 6.836 -56.623 6.836 -35.254 C 6.836 -13.885 24.179 3.424 45.514 3.424 Z M 45.514 -2.272 C 27.278 -2.272 12.551 -17.018 12.551 -35.254 C 12.551 -53.49 27.278 -68.235 45.514 -68.235 C 63.749 -68.235 78.495 -53.49 78.495 -35.254 C 78.495 -17.018 63.749 -2.272 45.514 -2.272 Z"/>
  <path d="M 38.755 -13.986 L 54.374 -13.986 C 55.768 -13.986 56.866 -14.999 56.866 -16.412 C 56.866 -17.742 55.768 -18.803 54.374 -18.803 L 49.244 -18.803 L 49.244 -39.29 C 49.244 -41.092 48.314 -42.288 46.617 -42.288 L 39.306 -42.288 C 37.912 -42.288 36.847 -41.227 36.847 -39.915 C 36.847 -38.517 37.912 -37.49 39.306 -37.49 L 43.885 -37.49 L 43.885 -18.803 L 38.755 -18.803 C 37.346 -18.803 36.263 -17.742 36.263 -16.412 C 36.263 -14.999 37.346 -13.986 38.755 -13.986 Z M 45.244 -48.99 C 47.806 -48.99 49.835 -51.008 49.835 -53.569 C 49.835 -56.131 47.806 -58.16 45.244 -58.16 C 42.716 -58.16 40.653 -56.131 40.653 -53.569 C 40.653 -51.008 42.716 -48.99 45.244 -48.99 Z"/>
 </g>
</svg>
