<svg xmlns="http://www.w3.org/2000/svg" viewBox="8.886 -76.71 42.043 77.981" aria-hidden="true" data-sf-symbol="info">
 <g fill="black">
  <path d="M10.7422-4.10156C10.7422-2.14844 12.4512-0.585938 14.5508-0.585938L45.2637-0.585938C47.4121-0.585938 49.0723-2.14844 49.0723-4.10156C49.0723-6.00586 47.4121-7.51953 45.2637-7.51953L35.0586-7.51953L35.0586-44.2383C35.0586-46.4355 33.3984-48.1934 31.2988-48.1934L15.7227-48.1934C13.5254-48.1934 11.8652-46.6797 11.8652-44.8242C11.8652-42.8223 13.5254-41.2598 15.7227-41.2598L26.9043-41.2598L26.9043-7.51953L14.5508-7.51953C12.4512-7.51953 10.7422-6.00586 10.7422-4.10156ZM29.2969-61.6211C32.959-61.6211 35.8887-64.5508 35.8887-68.2129C35.8887-71.875 32.959-74.8535 29.2969-74.8535C25.6348-74.8535 22.6562-71.875 22.6562-68.2129C22.6562-64.5508 25.6348-61.6211 29.2969-61.6211Z"/>
 </g>
</svg>
