<svg xmlns="http://www.w3.org/2000/svg" viewBox="7.559 -82.894 55.087 92.683" aria-hidden="true" data-sf-symbol="lightbulb">
 <g fill="black">
  <path d="M 9.766 -57.354 C 9.766 -43.008 18.516 -39.242 20.9 -13.403 C 21.032 -12.059 21.756 -11.252 23.224 -11.252 L 46.982 -11.252 C 48.45 -11.252 49.19 -12.059 49.321 -13.403 C 51.705 -39.242 60.44 -43.008 60.44 -57.354 C 60.44 -70.305 49.272 -80.687 35.103 -80.687 C 20.949 -80.687 9.766 -70.305 9.766 -57.354 Z M 14.889 -57.354 C 14.889 -67.787 24.121 -75.563 35.103 -75.563 C 46.085 -75.563 55.317 -67.787 55.317 -57.354 C 55.317 -46.303 47.889 -43.379 44.602 -16.342 L 25.62 -16.342 C 22.317 -43.379 14.889 -46.303 14.889 -57.354 Z M 23.158 -3.303 L 47.029 -3.303 C 48.215 -3.303 49.119 -4.241 49.119 -5.408 C 49.119 -6.593 48.215 -7.498 47.029 -7.498 L 23.158 -7.498 C 21.991 -7.498 21.053 -6.593 21.053 -5.408 C 21.053 -4.241 21.991 -3.303 23.158 -3.303 Z M 35.103 7.583 C 41.015 7.583 45.824 4.759 46.135 0.418 L 24.052 0.418 C 24.33 4.759 29.158 7.583 35.103 7.583 Z"/>
 </g>
</svg>
