<svg xmlns="http://www.w3.org/2000/svg" viewBox="8.587 -55.93 80.289 41.431" aria-hidden="true" data-sf-symbol="line.3.horizontal">
 <g fill="black">
  <path d="M13.027 -54.019 L84.435 -54.019 A2.529 2.529 0 0 1 84.435 -48.961 L13.027 -48.961 A2.529 2.529 0 0 1 13.027 -54.019 Z M13.027 -37.729 L84.435 -37.729 A2.529 2.529 0 0 1 84.435 -32.671 L13.027 -32.671 A2.529 2.529 0 0 1 13.027 -37.729 Z M13.027 -21.469 L84.435 -21.469 A2.529 2.529 0 0 1 84.435 -16.411 L13.027 -16.411 A2.529 2.529 0 0 1 13.027 -21.469 Z"/>
 </g>
</svg>
