<svg xmlns="http://www.w3.org/2000/svg" viewBox="6.776 -76.98 75.979 84.932" aria-hidden="true" data-sf-symbol="paperclip">
 <g fill="black">
  <path d="M 71.047 -32.91 L 42.598 -4.495 C 35.25 2.905 25.352 2.07 19.029 -4.271 C 12.688 -10.611 11.854 -20.458 19.22 -27.873 L 57.568 -66.172 C 62.173 -70.777 68.717 -71.003 72.863 -66.892 C 76.975 -62.743 76.733 -56.217 72.162 -51.612 L 34.696 -14.112 C 32.681 -12.063 30.218 -12.607 28.758 -14.033 C 27.333 -15.493 26.856 -17.888 28.871 -19.937 L 55.334 -46.384 C 56.361 -47.46 56.417 -48.941 55.45 -49.923 C 54.468 -50.856 52.969 -50.834 51.911 -49.791 L 25.363 -23.243 C 21.559 -19.372 21.744 -13.682 25.085 -10.326 C 28.677 -6.783 34.131 -6.767 38.002 -10.604 L 75.603 -48.239 C 82.636 -55.287 82.061 -64.489 76.169 -70.381 C 70.329 -76.206 61.041 -76.931 53.993 -69.868 L 15.518 -31.34 C 6.129 -21.985 7.056 -8.853 15.334 -0.575 C 23.612 7.669 36.759 8.581 46.099 -0.759 L 74.641 -29.301 C 75.668 -30.294 75.653 -32.06 74.638 -33.008 C 73.671 -34.057 72.074 -33.904 71.047 -32.91 Z"/>
 </g>
</svg>
