<svg xmlns="http://www.w3.org/2000/svg" viewBox="12.64 -80.326 62.659 92.819" aria-hidden="true" data-sf-symbol="pin.fill">
 <g fill="black">
  <path d="M 14.85 -23.56 C 14.85 -20.559 16.921 -18.563 20.129 -18.563 L 40.919 -18.563 L 40.919 0.477 C 40.919 5.79 43.094 10.283 43.953 10.283 C 44.845 10.283 47.02 5.79 47.02 0.477 L 47.02 -18.563 L 67.776 -18.563 C 71.033 -18.563 73.089 -20.559 73.089 -23.56 C 73.089 -31.723 66.625 -40.047 56.033 -43.843 L 54.793 -61.532 C 60.001 -64.553 64.59 -68.121 66.574 -70.747 C 67.53 -72.012 67.988 -73.212 67.988 -74.315 C 67.988 -76.503 66.292 -78.116 63.763 -78.116 L 24.176 -78.116 C 21.613 -78.116 19.951 -76.503 19.951 -74.315 C 19.951 -73.212 20.409 -72.012 21.347 -70.747 C 23.33 -68.121 27.92 -64.538 33.112 -61.532 L 31.906 -43.843 C 21.313 -40.047 14.85 -31.723 14.85 -23.56 Z"/>
 </g>
</svg>
