<svg xmlns="http://www.w3.org/2000/svg" viewBox="6.567 -80.04 93.819 93.808" aria-hidden="true" data-sf-symbol="pizza.slice">
 <g fill="black">
  <path d="M 21.044 10.747 L 89.081 -13.942 C 91.834 -14.967 93.65 -16.033 95.092 -17.49 C 102.949 -25.347 94.954 -43.363 79.351 -59.015 C 63.699 -74.648 45.716 -82.61 37.795 -74.723 C 36.354 -73.345 35.355 -71.495 34.33 -68.727 L 9.623 -0.739 C 8.218 3.098 8.557 6.66 11.086 9.219 C 13.679 11.779 17.207 12.102 21.044 10.747 Z M 18.986 5.736 C 17.182 6.364 15.887 6.3 14.98 5.389 C 14.039 4.433 13.99 3.172 14.633 1.368 L 39.618 -67.236 C 40.186 -68.837 40.813 -69.871 41.655 -70.761 C 46.504 -75.674 62.105 -68.585 75.49 -55.185 C 88.891 -41.766 95.979 -26.184 91.1 -21.335 C 90.258 -20.411 89.142 -19.832 87.556 -19.249 Z M 32.832 -4.56 C 36.982 -4.56 40.303 -8.026 40.352 -12.177 C 40.352 -16.327 36.982 -19.696 32.881 -19.647 C 28.633 -19.696 25.215 -16.327 25.264 -12.177 C 25.215 -7.978 28.633 -4.56 32.832 -4.56 Z M 41.475 -25.995 C 45.625 -25.995 48.994 -29.315 48.994 -33.515 C 48.994 -37.616 45.625 -41.034 41.475 -41.034 C 37.227 -40.985 33.906 -37.665 33.906 -33.515 C 33.906 -29.315 37.275 -25.897 41.475 -25.995 Z M 61.934 -17.206 C 66.035 -17.255 69.404 -20.624 69.453 -24.726 C 69.404 -28.925 66.035 -32.343 61.934 -32.245 C 57.734 -32.294 54.365 -28.925 54.414 -24.692 C 54.365 -20.575 57.734 -17.255 61.934 -17.206 Z M 82.286 -14.493 L 87.582 -16.505 C 86.846 -26.288 79.88 -38.506 69.37 -49.035 C 58.86 -59.544 46.69 -66.525 36.875 -67.246 L 34.862 -61.951 C 42.64 -62.29 55.283 -55.87 65.761 -45.376 C 76.239 -34.914 82.659 -22.304 82.286 -14.493 Z"/>
 </g>
</svg>
