<svg xmlns="http://www.w3.org/2000/svg" viewBox="6.916 -74.574 77.971 78.674" aria-hidden="true" data-sf-symbol="plus.magnifyingglass">
 <g fill="black">
  <path d="M 8.789 -42.6 C 8.789 -25.991 22.296 -12.517 38.905 -12.517 C 45.573 -12.517 51.688 -14.689 56.672 -18.386 L 76.062 1.053 C 76.86 1.833 77.903 2.227 78.994 2.227 C 81.372 2.227 83.014 0.426 83.014 -1.876 C 83.014 -2.971 82.583 -3.964 81.889 -4.741 L 62.566 -24.097 C 66.59 -29.197 68.973 -35.605 68.973 -42.6 C 68.973 -59.193 55.499 -72.701 38.905 -72.701 C 22.296 -72.701 8.789 -59.193 8.789 -42.6 Z M 14.538 -42.6 C 14.538 -56.045 25.444 -66.952 38.905 -66.952 C 52.317 -66.952 63.258 -56.045 63.258 -42.6 C 63.258 -29.172 52.317 -18.232 38.905 -18.232 C 25.444 -18.232 14.538 -29.172 14.538 -42.6 Z"/>
  <path d="M 28.961 -40.122 L 48.785 -40.122 C 50.183 -40.122 51.296 -41.22 51.296 -42.6 C 51.296 -43.998 50.183 -45.096 48.785 -45.096 L 28.961 -45.096 C 27.563 -45.096 26.45 -43.998 26.45 -42.6 C 26.45 -41.22 27.563 -40.122 28.961 -40.122 Z M 41.383 -32.705 L 41.383 -52.528 C 41.383 -53.926 40.27 -55.04 38.905 -55.04 C 37.492 -55.04 36.394 -53.926 36.394 -52.528 L 36.394 -32.705 C 36.394 -31.292 37.492 -30.193 38.905 -30.193 C 40.27 -30.193 41.383 -31.307 41.383 -32.705 Z"/>
 </g>
</svg>
