<svg xmlns="http://www.w3.org/2000/svg" viewBox="4.845 -78.211 81.371 83.626" aria-hidden="true" data-sf-symbol="power">
 <g fill="black">
  <path d="M 45.514 3.424 C 66.882 3.424 84.225 -13.885 84.225 -35.254 C 84.225 -47.494 78.696 -57.395 71.407 -63.935 C 68.446 -66.648 64.613 -62.521 67.574 -59.756 C 74.335 -53.688 78.495 -45.012 78.495 -35.254 C 78.495 -17.018 63.749 -2.272 45.514 -2.272 C 27.278 -2.272 12.551 -17.018 12.551 -35.254 C 12.551 -45.08 16.76 -53.722 23.487 -59.79 C 26.467 -62.574 22.682 -66.547 19.672 -63.901 C 12.331 -57.48 6.836 -47.225 6.836 -35.254 C 6.836 -13.885 24.179 3.424 45.514 3.424 Z M 45.514 -35.729 C 47.148 -35.729 48.227 -36.875 48.227 -38.577 L 48.227 -73.338 C 48.227 -75.054 47.148 -76.22 45.514 -76.22 C 43.914 -76.22 42.8 -75.054 42.8 -73.338 L 42.8 -38.577 C 42.8 -36.875 43.914 -35.729 45.514 -35.729 Z"/>
 </g>
</svg>
