<svg xmlns="http://www.w3.org/2000/svg" viewBox="7.609 -72.283 90.575 73.69" aria-hidden="true" data-sf-symbol="questionmark.folder">
 <g fill="black">
  <path d="M 21.399 -0.749 L 85.371 -0.749 C 92.138 -0.749 96.028 -4.668 96.028 -12.281 L 96.028 -51.6 C 96.028 -59.212 92.105 -63.099 84.394 -63.099 L 47.534 -63.099 C 44.778 -63.099 43.246 -63.691 41.3 -65.372 L 39.025 -67.294 C 36.501 -69.485 34.644 -70.126 30.857 -70.126 L 19.95 -70.126 C 13.443 -70.126 9.766 -66.501 9.766 -59.164 L 9.766 -12.281 C 9.766 -4.638 13.689 -0.749 21.399 -0.749 Z M 21.497 -6.209 C 17.421 -6.209 15.192 -8.337 15.192 -12.547 L 15.192 -58.852 C 15.192 -62.769 17.221 -64.73 21.055 -64.73 L 29.501 -64.73 C 32.181 -64.73 33.683 -64.122 35.675 -62.396 L 37.965 -60.474 C 40.379 -58.393 42.361 -57.672 46.178 -57.672 L 84.296 -57.672 C 88.311 -57.672 90.601 -55.51 90.601 -51.3 L 90.601 -12.514 C 90.601 -8.337 88.311 -6.209 84.296 -6.209 Z"/>
  <path d="M 52.211 -24.743 C 53.793 -24.743 54.723 -25.74 54.723 -27.015 C 54.723 -27.2 54.723 -27.403 54.723 -27.588 C 54.723 -29.689 55.883 -30.986 58.469 -32.73 C 62.031 -35.075 64.274 -37.187 64.274 -41.278 C 64.274 -46.901 59.26 -50.117 53.281 -50.117 C 47.201 -50.117 43.254 -47.125 42.392 -43.697 C 42.242 -43.157 42.141 -42.628 42.141 -42.057 C 42.141 -40.599 43.224 -39.837 44.315 -39.837 C 45.391 -39.837 46.1 -40.348 46.639 -41.169 L 47.129 -41.946 C 48.14 -44.27 50.281 -45.851 53.048 -45.851 C 56.584 -45.851 58.87 -43.903 58.87 -41.031 C 58.87 -38.562 57.398 -37.31 54.162 -35.029 C 51.497 -33.172 49.719 -31.286 49.719 -27.87 C 49.719 -27.669 49.719 -27.451 49.719 -27.217 C 49.719 -25.571 50.63 -24.743 52.211 -24.743 Z M 52.163 -14.276 C 54.069 -14.276 55.701 -15.819 55.701 -17.713 C 55.701 -19.672 54.103 -21.199 52.163 -21.199 C 50.189 -21.199 48.591 -19.638 48.591 -17.713 C 48.591 -15.853 50.223 -14.276 52.163 -14.276 Z"/>
 </g>
</svg>
