<svg xmlns="http://www.w3.org/2000/svg" viewBox="7.77 -70.715 83.833 71.035" aria-hidden="true" data-sf-symbol="repeat">
 <g fill="black">
  <path d="M 42.903 -3.858 L 42.903 -27.775 C 42.903 -29.181 42.06 -29.958 40.608 -29.958 C 39.966 -29.958 39.333 -29.725 38.777 -29.282 L 24.435 -17.568 C 23.275 -16.618 23.207 -15.052 24.435 -14.05 L 38.777 -2.336 C 39.333 -1.893 39.966 -1.676 40.608 -1.676 C 42.06 -1.676 42.903 -2.437 42.903 -3.858 Z M 86.675 -36.389 C 85.018 -36.389 83.777 -35.114 83.777 -33.427 L 83.777 -29.852 C 83.777 -23.042 79.19 -18.733 72.023 -18.733 L 37.254 -18.733 C 35.649 -18.733 34.341 -17.425 34.341 -15.869 C 34.341 -14.264 35.649 -12.97 37.254 -12.97 L 71.533 -12.97 C 82.715 -12.97 89.607 -19.248 89.607 -29.481 L 89.607 -33.427 C 89.607 -35.114 88.348 -36.389 86.675 -36.389 Z"/>
  <path d="M 56.485 -66.537 L 56.485 -42.62 C 56.485 -41.214 57.295 -40.438 58.731 -40.438 C 59.407 -40.438 60.022 -40.67 60.577 -41.113 L 74.904 -52.793 C 76.098 -53.777 76.166 -55.343 74.904 -56.345 L 60.577 -68.059 C 60.022 -68.502 59.407 -68.719 58.731 -68.719 C 57.295 -68.719 56.485 -67.958 56.485 -66.537 Z M 12.698 -34.006 C 14.321 -34.006 15.596 -35.281 15.596 -36.968 L 15.596 -40.543 C 15.596 -47.353 20.149 -51.662 27.316 -51.662 L 62.134 -51.662 C 63.724 -51.662 64.999 -52.97 64.999 -54.526 C 64.999 -56.131 63.724 -57.425 62.134 -57.425 L 27.855 -57.425 C 16.658 -57.425 9.766 -51.147 9.766 -40.914 L 9.766 -36.968 C 9.766 -35.281 11.04 -34.006 12.698 -34.006 Z"/>
 </g>
</svg>
