<svg xmlns="http://www.w3.org/2000/svg" viewBox="7.73 -66.446 85.513 62.482" aria-hidden="true" data-sf-symbol="square.grid.4x3.fill">
 <g fill="black">
  <path d="M 81.695 -6 L 88.043 -6 C 90.366 -6 91.207 -6.841 91.207 -9.18 L 91.207 -15.527 C 91.207 -17.866 90.366 -18.707 88.043 -18.707 L 81.695 -18.707 C 79.356 -18.707 78.516 -17.866 78.516 -15.527 L 78.516 -9.18 C 78.516 -6.841 79.356 -6 81.695 -6 Z"/>
  <path d="M 58.843 -6 L 65.191 -6 C 67.515 -6 68.355 -6.841 68.355 -9.18 L 68.355 -15.527 C 68.355 -17.866 67.515 -18.707 65.191 -18.707 L 58.843 -18.707 C 56.504 -18.707 55.664 -17.866 55.664 -15.527 L 55.664 -9.18 C 55.664 -6.841 56.504 -6 58.843 -6 Z"/>
  <path d="M 35.992 -6 L 42.339 -6 C 44.663 -6 45.503 -6.841 45.503 -9.18 L 45.503 -15.527 C 45.503 -17.866 44.663 -18.707 42.339 -18.707 L 35.992 -18.707 C 33.653 -18.707 32.812 -17.866 32.812 -15.527 L 32.812 -9.18 C 32.812 -6.841 33.653 -6 35.992 -6 Z"/>
  <path d="M 13.14 -6 L 19.488 -6 C 21.811 -6 22.652 -6.841 22.652 -9.18 L 22.652 -15.527 C 22.652 -17.866 21.811 -18.707 19.488 -18.707 L 13.14 -18.707 C 10.801 -18.707 9.961 -17.866 9.961 -15.527 L 9.961 -9.18 C 9.961 -6.841 10.801 -6 13.14 -6 Z"/>
  <path d="M 81.695 -28.852 L 88.043 -28.852 C 90.366 -28.852 91.207 -29.692 91.207 -32.031 L 91.207 -38.379 C 91.207 -40.718 90.366 -41.558 88.043 -41.558 L 81.695 -41.558 C 79.356 -41.558 78.516 -40.718 78.516 -38.379 L 78.516 -32.031 C 78.516 -29.692 79.356 -28.852 81.695 -28.852 Z"/>
  <path d="M 58.843 -28.852 L 65.191 -28.852 C 67.515 -28.852 68.355 -29.692 68.355 -32.031 L 68.355 -38.379 C 68.355 -40.718 67.515 -41.558 65.191 -41.558 L 58.843 -41.558 C 56.504 -41.558 55.664 -40.718 55.664 -38.379 L 55.664 -32.031 C 55.664 -29.692 56.504 -28.852 58.843 -28.852 Z"/>
  <path d="M 35.992 -28.852 L 42.339 -28.852 C 44.663 -28.852 45.503 -29.692 45.503 -32.031 L 45.503 -38.379 C 45.503 -40.718 44.663 -41.558 42.339 -41.558 L 35.992 -41.558 C 33.653 -41.558 32.812 -40.718 32.812 -38.379 L 32.812 -32.031 C 32.812 -29.692 33.653 -28.852 35.992 -28.852 Z"/>
  <path d="M 13.14 -28.852 L 19.488 -28.852 C 21.811 -28.852 22.652 -29.692 22.652 -32.031 L 22.652 -38.379 C 22.652 -40.718 21.811 -41.558 19.488 -41.558 L 13.14 -41.558 C 10.801 -41.558 9.961 -40.718 9.961 -38.379 L 9.961 -32.031 C 9.961 -29.692 10.801 -28.852 13.14 -28.852 Z"/>
  <path d="M 81.499 -51.704 L 87.847 -51.704 C 90.171 -51.704 91.011 -52.544 91.011 -54.883 L 91.011 -61.23 C 91.011 -63.569 90.171 -64.41 87.847 -64.41 L 81.499 -64.41 C 79.161 -64.41 78.32 -63.569 78.32 -61.23 L 78.32 -54.883 C 78.32 -52.544 79.161 -51.704 81.499 -51.704 Z"/>
  <path d="M 58.648 -51.704 L 64.996 -51.704 C 67.319 -51.704 68.16 -52.544 68.16 -54.883 L 68.16 -61.23 C 68.16 -63.569 67.319 -64.41 64.996 -64.41 L 58.648 -64.41 C 56.309 -64.41 55.469 -63.569 55.469 -61.23 L 55.469 -54.883 C 55.469 -52.544 56.309 -51.704 58.648 -51.704 Z"/>
  <path d="M 35.796 -51.704 L 42.144 -51.704 C 44.468 -51.704 45.308 -52.544 45.308 -54.883 L 45.308 -61.23 C 45.308 -63.569 44.468 -64.41 42.144 -64.41 L 35.796 -64.41 C 33.458 -64.41 32.617 -63.569 32.617 -61.23 L 32.617 -54.883 C 32.617 -52.544 33.458 -51.704 35.796 -51.704 Z"/>
  <path d="M 12.945 -51.704 L 19.293 -51.704 C 21.616 -51.704 22.457 -52.544 22.457 -54.883 L 22.457 -61.23 C 22.457 -63.569 21.616 -64.41 19.293 -64.41 L 12.945 -64.41 C 10.606 -64.41 9.766 -63.569 9.766 -61.23 L 9.766 -54.883 C 9.766 -52.544 10.606 -51.704 12.945 -51.704 Z"/>
 </g>
</svg>
