<svg xmlns="http://www.w3.org/2000/svg" viewBox="7.892 -73.662 78.693 76.771" aria-hidden="true" data-sf-symbol="square.grid.3x3">
 <g fill="black">
  <path d="M 69.612 1.236 L 78.399 1.236 C 82.381 1.236 84.712 -1.022 84.712 -5.211 L 84.712 -13.729 C 84.712 -17.903 82.381 -20.176 78.399 -20.176 L 69.612 -20.176 C 65.615 -20.176 63.266 -17.903 63.266 -13.729 L 63.266 -5.211 C 63.266 -1.022 65.615 1.236 69.612 1.236 Z M 70.2 -3.449 C 68.695 -3.449 67.951 -4.193 67.951 -5.766 L 67.951 -13.193 C 67.951 -14.78 68.695 -15.524 70.2 -15.524 L 77.762 -15.524 C 79.282 -15.524 80.026 -14.78 80.026 -13.193 L 80.026 -5.766 C 80.026 -4.193 79.282 -3.449 77.762 -3.449 Z"/>
  <path d="M 42.838 1.236 L 51.625 1.236 C 55.656 1.236 57.938 -1.022 57.938 -5.211 L 57.938 -13.729 C 57.938 -17.903 55.656 -20.176 51.625 -20.176 L 42.838 -20.176 C 38.822 -20.176 36.525 -17.903 36.525 -13.729 L 36.525 -5.211 C 36.525 -1.022 38.822 1.236 42.838 1.236 Z M 43.441 -3.449 C 41.902 -3.449 41.177 -4.193 41.177 -5.766 L 41.177 -13.193 C 41.177 -14.78 41.902 -15.524 43.441 -15.524 L 51.003 -15.524 C 52.508 -15.524 53.252 -14.78 53.252 -13.193 L 53.252 -5.766 C 53.252 -4.193 52.508 -3.449 51.003 -3.449 Z"/>
  <path d="M 16.112 1.236 L 24.865 1.236 C 28.896 1.236 31.212 -1.022 31.212 -5.211 L 31.212 -13.729 C 31.212 -17.903 28.896 -20.176 24.865 -20.176 L 16.112 -20.176 C 12.096 -20.176 9.766 -17.903 9.766 -13.729 L 9.766 -5.211 C 9.766 -1.022 12.096 1.236 16.112 1.236 Z M 16.715 -3.449 C 15.195 -3.449 14.451 -4.193 14.451 -5.766 L 14.451 -13.193 C 14.451 -14.78 15.195 -15.524 16.715 -15.524 L 24.229 -15.524 C 25.749 -15.524 26.526 -14.78 26.526 -13.193 L 26.526 -5.766 C 26.526 -4.193 25.749 -3.449 24.229 -3.449 Z"/>
  <path d="M 69.612 -24.562 L 78.399 -24.562 C 82.381 -24.562 84.712 -26.802 84.712 -30.976 L 84.712 -39.527 C 84.712 -43.716 82.381 -45.975 78.399 -45.975 L 69.612 -45.975 C 65.615 -45.975 63.266 -43.716 63.266 -39.527 L 63.266 -30.976 C 63.266 -26.802 65.615 -24.562 69.612 -24.562 Z M 70.2 -29.214 C 68.695 -29.214 67.951 -29.973 67.951 -31.579 L 67.951 -39.006 C 67.951 -40.545 68.695 -41.289 70.2 -41.289 L 77.762 -41.289 C 79.282 -41.289 80.026 -40.545 80.026 -39.006 L 80.026 -31.579 C 80.026 -29.973 79.282 -29.214 77.762 -29.214 Z"/>
  <path d="M 42.838 -24.562 L 51.625 -24.562 C 55.656 -24.562 57.938 -26.802 57.938 -30.976 L 57.938 -39.527 C 57.938 -43.716 55.656 -45.975 51.625 -45.975 L 42.838 -45.975 C 38.822 -45.975 36.525 -43.716 36.525 -39.527 L 36.525 -30.976 C 36.525 -26.802 38.822 -24.562 42.838 -24.562 Z M 43.441 -29.214 C 41.902 -29.214 41.177 -29.973 41.177 -31.579 L 41.177 -39.006 C 41.177 -40.545 41.902 -41.289 43.441 -41.289 L 51.003 -41.289 C 52.508 -41.289 53.252 -40.545 53.252 -39.006 L 53.252 -31.579 C 53.252 -29.973 52.508 -29.214 51.003 -29.214 Z"/>
  <path d="M 16.112 -24.562 L 24.865 -24.562 C 28.896 -24.562 31.212 -26.802 31.212 -30.976 L 31.212 -39.527 C 31.212 -43.716 28.896 -45.975 24.865 -45.975 L 16.112 -45.975 C 12.096 -45.975 9.766 -43.716 9.766 -39.527 L 9.766 -30.976 C 9.766 -26.802 12.096 -24.562 16.112 -24.562 Z M 16.715 -29.214 C 15.195 -29.214 14.451 -29.973 14.451 -31.579 L 14.451 -39.006 C 14.451 -40.545 15.195 -41.289 16.715 -41.289 L 24.229 -41.289 C 25.749 -41.289 26.526 -40.545 26.526 -39.006 L 26.526 -31.579 C 26.526 -29.973 25.749 -29.214 24.229 -29.214 Z"/>
  <path d="M 69.612 -50.342 L 78.399 -50.342 C 82.381 -50.342 84.712 -52.634 84.712 -56.823 L 84.712 -65.307 C 84.712 -69.496 82.381 -71.788 78.399 -71.788 L 69.612 -71.788 C 65.615 -71.788 63.266 -69.496 63.266 -65.307 L 63.266 -56.823 C 63.266 -52.634 65.615 -50.342 69.612 -50.342 Z M 70.2 -54.994 C 68.695 -54.994 67.951 -55.771 67.951 -57.393 L 67.951 -64.771 C 67.951 -66.325 68.695 -67.102 70.2 -67.102 L 77.762 -67.102 C 79.282 -67.102 80.026 -66.325 80.026 -64.771 L 80.026 -57.393 C 80.026 -55.771 79.282 -54.994 77.762 -54.994 Z"/>
  <path d="M 42.838 -50.342 L 51.625 -50.342 C 55.656 -50.342 57.938 -52.634 57.938 -56.823 L 57.938 -65.307 C 57.938 -69.496 55.656 -71.788 51.625 -71.788 L 42.838 -71.788 C 38.822 -71.788 36.525 -69.496 36.525 -65.307 L 36.525 -56.823 C 36.525 -52.634 38.822 -50.342 42.838 -50.342 Z M 43.441 -54.994 C 41.902 -54.994 41.177 -55.771 41.177 -57.393 L 41.177 -64.771 C 41.177 -66.325 41.902 -67.102 43.441 -67.102 L 51.003 -67.102 C 52.508 -67.102 53.252 -66.325 53.252 -64.771 L 53.252 -57.393 C 53.252 -55.771 52.508 -54.994 51.003 -54.994 Z"/>
  <path d="M 16.112 -50.342 L 24.865 -50.342 C 28.896 -50.342 31.212 -52.634 31.212 -56.823 L 31.212 -65.307 C 31.212 -69.496 28.896 -71.788 24.865 -71.788 L 16.112 -71.788 C 12.096 -71.788 9.766 -69.496 9.766 -65.307 L 9.766 -56.823 C 9.766 -52.634 12.096 -50.342 16.112 -50.342 Z M 16.715 -54.994 C 15.195 -54.994 14.451 -55.771 14.451 -57.393 L 14.451 -64.771 C 14.451 -66.325 15.195 -67.102 16.715 -67.102 L 24.229 -67.102 C 25.749 -67.102 26.526 -66.325 26.526 -64.771 L 26.526 -57.393 C 26.526 -55.771 25.749 -54.994 24.229 -54.994 Z"/>
 </g>
</svg>
