<svg xmlns="http://www.w3.org/2000/svg" viewBox="-2.611 -88.397 101.643 97.991" aria-hidden="true" data-sf-symbol="square.stack.3d.up">
 <g fill="black">
  <path d="M 82.893 -11.814 C 85.66 -13.456 86.812 -14.727 86.812 -16.64 C 86.812 -18.602 85.66 -19.858 82.893 -21.516 L 52.637 -39.036 C 50.95 -40.011 49.675 -40.488 48.22 -40.488 C 46.78 -40.488 45.471 -40.011 43.784 -39.036 L 13.562 -21.516 C 10.761 -19.858 9.643 -18.602 9.643 -16.64 C 9.643 -14.727 10.761 -13.456 13.562 -11.814 L 43.784 5.722 C 45.471 6.697 46.78 7.174 48.22 7.174 C 49.675 7.174 50.95 6.697 52.637 5.722 Z"/>
  <path d="M -0.191 -34.492 C -0.191 -29.154 2.457 -24.723 8.611 -21.163 L 46.438 0.753 C 47.012 1.099 47.676 1.312 48.22 1.312 C 48.745 1.312 49.409 1.099 50.017 0.753 L 87.81 -21.163 C 93.916 -24.674 96.612 -29.154 96.612 -34.492 C 96.612 -39.831 93.916 -44.262 87.81 -47.821 L 57.569 -65.375 C 54.311 -67.26 51.366 -68.174 48.22 -68.174 C 45.055 -68.174 42.11 -67.26 38.852 -65.375 L 8.611 -47.821 C 2.505 -44.262 -0.191 -39.831 -0.191 -34.492 Z"/>
  <path d="M 13.562 -29.65 L 43.784 -12.096 C 45.471 -11.121 46.78 -10.645 48.22 -10.645 C 49.675 -10.645 50.95 -11.121 52.637 -12.096 L 82.893 -29.65 C 85.66 -31.274 86.812 -32.53 86.812 -34.492 C 86.812 -36.439 85.66 -37.71 82.893 -39.353 L 52.637 -56.888 C 50.95 -57.863 49.675 -58.34 48.22 -58.34 C 46.78 -58.34 45.471 -57.863 43.784 -56.888 L 13.562 -39.353 C 10.761 -37.71 9.643 -36.439 9.643 -34.492 C 9.643 -32.53 10.761 -31.274 13.562 -29.65 Z"/>
  <path d="M -0.191 -52.344 C -0.191 -47.006 2.457 -42.575 8.611 -39 L 46.438 -17.099 C 47.012 -16.753 47.676 -16.54 48.22 -16.54 C 48.745 -16.54 49.409 -16.753 50.017 -17.099 L 87.81 -39 C 93.916 -42.526 96.612 -47.006 96.612 -52.344 C 96.612 -57.667 93.916 -62.114 87.81 -65.673 L 57.569 -83.212 C 54.311 -85.112 51.366 -85.977 48.22 -85.977 C 45.055 -85.977 42.11 -85.112 38.852 -83.212 L 8.611 -65.673 C 2.505 -62.114 -0.191 -57.667 -0.191 -52.344 Z"/>
  <path d="M 13.562 -48.205 L 43.784 -30.669 C 45.471 -29.709 46.78 -29.232 48.22 -29.232 C 49.675 -29.232 50.95 -29.709 52.637 -30.669 L 82.893 -48.205 C 85.66 -49.847 86.812 -51.118 86.812 -53.065 C 86.812 -54.993 85.66 -56.298 82.893 -57.907 L 52.637 -75.442 C 50.95 -76.436 49.675 -76.879 48.22 -76.879 C 46.78 -76.879 45.471 -76.436 43.784 -75.442 L 13.562 -57.907 C 10.761 -56.298 9.643 -54.993 9.643 -53.065 C 9.643 -51.118 10.761 -49.847 13.562 -48.205 Z M 16.986 -52.579 C 16.518 -52.843 16.518 -53.269 16.986 -53.566 L 46.606 -70.507 C 47.214 -70.853 47.709 -71.033 48.22 -71.033 C 48.711 -71.033 49.207 -70.853 49.814 -70.507 L 79.435 -53.566 C 79.937 -53.269 79.937 -52.843 79.435 -52.579 L 49.814 -35.604 C 49.207 -35.292 48.745 -35.112 48.22 -35.112 C 47.676 -35.112 47.214 -35.292 46.606 -35.604 Z"/>
 </g>
</svg>
