<svg xmlns="http://www.w3.org/2000/svg" viewBox="3.74 -83.003 77.834 88.993" aria-hidden="true" data-sf-symbol="trash">
 <g fill="black">
  <path d="M 31.279 -8.212 C 32.606 -8.212 33.438 -9.041 33.405 -10.236 L 32.176 -51.88 C 32.142 -53.109 31.265 -53.874 30.05 -53.874 C 28.772 -53.874 27.891 -53.076 27.925 -51.85 L 29.154 -10.221 C 29.187 -8.992 30.035 -8.212 31.279 -8.212 Z M 42.665 -8.212 C 43.977 -8.212 44.857 -9.025 44.857 -10.236 L 44.857 -51.85 C 44.857 -53.061 43.977 -53.874 42.665 -53.874 C 41.368 -53.874 40.472 -53.061 40.472 -51.85 L 40.472 -10.236 C 40.472 -9.025 41.368 -8.212 42.665 -8.212 Z M 54.068 -8.182 C 55.294 -8.182 56.175 -8.977 56.209 -10.206 L 57.404 -51.834 C 57.438 -53.061 56.576 -53.859 55.279 -53.859 C 54.049 -53.859 53.172 -53.061 53.138 -51.865 L 51.943 -10.221 C 51.909 -9.025 52.756 -8.182 54.068 -8.182 Z M 26.108 -63.835 L 31.467 -63.835 L 31.467 -71.962 C 31.467 -74.343 33.08 -75.828 35.585 -75.828 L 49.695 -75.828 C 52.182 -75.828 53.794 -74.343 53.794 -71.962 L 53.794 -63.835 L 59.187 -63.835 L 59.187 -72.299 C 59.187 -77.622 55.715 -80.884 50.002 -80.884 L 35.245 -80.884 C 29.58 -80.884 26.108 -77.622 26.108 -72.299 Z M 8.386 -61.155 L 76.943 -61.155 C 78.356 -61.155 79.455 -62.302 79.455 -63.7 C 79.455 -65.128 78.308 -66.245 76.943 -66.245 L 8.386 -66.245 C 7.055 -66.245 5.859 -65.113 5.859 -63.7 C 5.859 -62.287 7.055 -61.155 8.386 -61.155 Z M 25.249 3.871 L 60.113 3.871 C 65.303 3.871 68.927 0.409 69.189 -4.784 L 71.94 -61.827 L 66.502 -61.827 L 63.834 -5.335 C 63.721 -2.956 61.968 -1.219 59.593 -1.219 L 25.672 -1.219 C 23.379 -1.219 21.593 -2.99 21.48 -5.335 L 18.696 -61.812 L 13.389 -61.812 L 16.188 -4.75 C 16.451 0.443 19.992 3.871 25.249 3.871 Z"/>
 </g>
</svg>
