<svg xmlns="http://www.w3.org/2000/svg" viewBox="6.525 -82.465 93.136 95.097" aria-hidden="true" data-sf-symbol="wrench.adjustable">
 <g fill="black">
  <path d="M 13.408 5.778 C 19.611 11.997 28.641 12.079 34.938 4.899 C 41.827 -2.935 49.976 -18.082 60.974 -29.08 C 69.656 -37.777 79.049 -29.129 90.954 -40.539 C 95.492 -44.894 97.993 -51.053 97.275 -55.687 L 82.868 -51.749 C 80.118 -51.03 78.352 -52.703 77.574 -55.409 L 76.405 -59.338 C 75.627 -62.044 76.498 -64.367 79.249 -65.12 L 93.606 -68.991 C 93.155 -70.274 91.951 -71.928 90.499 -73.428 C 81.788 -82.327 67.206 -82.31 58.715 -74.243 C 46.066 -62.233 55.837 -49.524 47.145 -40.847 C 37.219 -30.921 22.087 -22.626 14.238 -15.768 C 7.058 -9.485 7.174 -0.44 13.408 5.778 Z M 16.662 2.494 C 12.431 -1.834 12.446 -8.268 17.409 -12.581 C 25.361 -19.511 41.488 -28.652 50.398 -37.578 C 60.353 -47.517 50.125 -60.043 62.021 -70.989 C 68.922 -77.405 81.007 -77.089 87.848 -69.995 L 88.98 -72.08 L 78.304 -69.285 C 72.845 -67.847 70.502 -63.736 72.121 -58.048 L 73.195 -54.322 C 75.012 -48.041 78.763 -46.262 83.761 -47.617 L 94.707 -50.607 L 92.648 -51.759 C 91.939 -48.934 90.501 -45.956 87.823 -43.342 C 78.077 -33.821 67.386 -42.027 57.689 -32.364 C 47.74 -22.448 38.728 -6.209 31.767 1.762 C 27.341 6.838 20.908 6.838 16.662 2.494 Z M 62.807 -42.944 L 71.035 -45.145 C 71.707 -45.325 72.101 -46.03 71.921 -46.754 C 71.741 -47.426 71.084 -47.854 70.36 -47.64 L 62.15 -45.424 C 61.478 -45.244 61.084 -44.539 61.23 -43.848 C 61.377 -43.124 62.101 -42.764 62.807 -42.944 Z M 61.796 -47.173 L 69.957 -49.355 C 70.663 -49.536 71.057 -50.226 70.877 -50.95 C 70.697 -51.656 69.988 -52.05 69.316 -51.87 L 61.106 -49.654 C 60.4 -49.474 60.006 -48.734 60.187 -48.111 C 60.4 -47.353 61.057 -46.959 61.796 -47.173 Z M 60.786 -51.403 L 68.962 -53.585 C 69.653 -53.765 70.047 -54.456 69.867 -55.18 C 69.686 -55.885 68.978 -56.279 68.306 -56.099 L 60.096 -53.883 C 59.39 -53.703 58.996 -52.964 59.176 -52.341 C 59.39 -51.583 60.047 -51.189 60.786 -51.403 Z M 78.076 -36.692 L 81.275 -37.401 L 76.395 -54.952 L 73.195 -54.322 Z M 24.053 -0.211 C 26.583 -0.211 28.66 -2.253 28.66 -4.833 C 28.66 -7.364 26.583 -9.455 24.053 -9.455 C 21.473 -9.455 19.382 -7.364 19.382 -4.833 C 19.382 -2.253 21.473 -0.211 24.053 -0.211 Z"/>
 </g>
</svg>
