<svg xmlns="http://www.w3.org/2000/svg" viewBox="8.267 -66.732 63.113 63.1" aria-hidden="true" data-sf-symbol="xmark">
 <g fill="black">
  <path d="M 64.768 -64.368 L 10.631 -10.247 C 9.5 -9.115 9.466 -7.163 10.631 -5.997 C 11.815 -4.847 13.734 -4.847 14.899 -5.997 L 69.002 -60.1 C 70.152 -61.265 70.186 -63.217 69.002 -64.368 C 67.803 -65.499 65.918 -65.533 64.768 -64.368 Z M 69.002 -10.247 L 14.899 -64.368 C 13.734 -65.499 11.782 -65.533 10.631 -64.368 C 9.5 -63.184 9.5 -61.265 10.631 -60.1 L 64.768 -5.997 C 65.884 -4.847 67.836 -4.847 69.002 -5.997 C 70.152 -7.196 70.152 -9.115 69.002 -10.247 Z"/>
 </g>
</svg>
