<svg xmlns="http://www.w3.org/2000/svg" viewBox="6.784 -77.639 84.38 84.405" aria-hidden="true" data-sf-symbol="bandage">
 <g fill="black">
  <path d="M14.9414-1.36719C23.1934 6.83594 34.6191 6.98242 43.7012-2.05078L55.6641-14.0625L50.6836-19.043L38.7695-7.08008C32.8125-1.17188 25.1465-0.390625 19.5312-6.00586C13.916-11.5723 14.6973-19.2871 20.6543-25.1953L32.5684-37.1582L27.5879-42.1387L15.5762-30.127C6.54297-21.0938 6.73828-9.66797 14.9414-1.36719ZM83.0078-69.4824C74.7559-77.6855 63.3301-77.8809 54.248-68.8477L42.2852-56.8359L47.2656-51.8555L59.1797-63.7695C65.1367-69.7266 72.8027-70.459 78.418-64.8926C84.0332-59.2773 83.252-51.6113 77.2949-45.6543L65.3809-33.7402L70.3613-28.7598L82.373-40.7227C91.4062-49.8047 91.2109-61.2305 83.0078-69.4824ZM70.4102-42.8223L56.3477-56.8848C51.6113-61.5234 47.1191-61.6699 42.2852-56.8359L27.5879-42.1387C22.7539-37.3047 22.8516-32.8125 27.5391-28.0762L41.6016-14.0137C46.3379-9.32617 50.8301-9.17969 55.6641-14.0625L70.3613-28.7598C75.1953-33.5938 75.0977-38.0859 70.4102-42.8223ZM52.3926-51.5137L65.0391-38.8672C67.0898-36.7676 66.8945-35.2051 64.7461-33.0566L51.3184-19.6777C49.2188-17.4805 47.6074-17.2852 45.5566-19.3848L32.9102-31.9824C30.8594-34.082 31.0547-35.6445 33.2031-37.793L46.6309-51.1719C48.7305-53.3691 50.3418-53.5645 52.3926-51.5137Z"/>
  <path d="M48.9258-39.4531C50.8789-39.4531 52.3438-41.0156 52.3438-42.8223C52.3926-44.7266 50.8301-46.2402 48.9746-46.2402C47.1191-46.2402 45.6055-44.7266 45.6055-42.7734C45.6055-41.0645 47.168-39.4531 48.9258-39.4531ZM41.6504-32.0801C43.5059-32.0801 45.0195-33.6426 45.0195-35.4004C45.0195-37.3047 43.5059-38.8672 41.6504-38.8672C39.6973-38.8672 38.2324-37.3047 38.2324-35.4492C38.2324-33.5938 39.6973-32.0801 41.6504-32.0801ZM56.3477-32.0801C58.2031-32.0801 59.7656-33.5938 59.7168-35.498C59.7168-37.3047 58.252-38.8672 56.2988-38.8672C54.4922-38.8672 52.9785-37.2559 52.9785-35.5469C52.9785-33.5938 54.4434-32.0801 56.3477-32.0801ZM48.9746-24.6582C50.8301-24.6582 52.3438-26.2207 52.3438-28.125C52.3438-29.8828 50.8301-31.4453 49.0234-31.4453C47.0703-31.4453 45.5566-29.9316 45.5566-28.0762C45.5566-26.2207 47.0703-24.6582 48.9746-24.6582Z"/>
 </g>
</svg>
