<svg xmlns="http://www.w3.org/2000/svg" viewBox="7.693 -78.782 87.056 87.056" aria-hidden="true" data-sf-symbol="cross">
 <g fill="black">
  <path d="M9.76562-29.1992C9.76562-21.4355 13.3301-17.8223 20.9961-17.8223L33.7891-17.8223L33.7891-4.98047C33.7891 2.63672 37.4023 6.20117 45.166 6.20117L57.2266 6.20117C65.0391 6.20117 68.6523 2.63672 68.6523-4.98047L68.6523-17.8223L81.4453-17.8223C89.0625-17.8223 92.6758-21.4355 92.6758-29.1992L92.6758-41.2598C92.6758-49.0234 89.0625-52.6855 81.4453-52.6855L68.6523-52.6855L68.6523-65.5273C68.6523-73.1445 65.0391-76.709 57.2266-76.709L45.166-76.709C37.4023-76.709 33.7891-73.1445 33.7891-65.5273L33.7891-52.6855L20.9961-52.6855C13.3301-52.6855 9.76562-49.0234 9.76562-41.2598ZM16.7969-29.2969L16.7969-41.1621C16.7969-44.1895 18.2617-45.6055 21.3379-45.6055L40.8203-45.6055L40.8203-65.1367C40.8203-68.2129 42.2363-69.6777 45.2637-69.6777L57.1289-69.6777C60.2051-69.6777 61.6211-68.2129 61.6211-65.1367L61.6211-45.6055L81.0547-45.6055C84.1797-45.6055 85.6445-44.1895 85.6445-41.1621L85.6445-29.2969C85.6445-26.2695 84.1797-24.8535 81.0547-24.8535L61.6211-24.8535L61.6211-5.37109C61.6211-2.29492 60.2051-0.830078 57.1289-0.830078L45.2637-0.830078C42.2363-0.830078 40.8203-2.29492 40.8203-5.37109L40.8203-24.8535L21.3379-24.8535C18.2617-24.8535 16.7969-26.2695 16.7969-29.2969Z"/>
 </g>
</svg>
