<svg xmlns="http://www.w3.org/2000/svg" viewBox="7.434 -78.259 97.924 86.011" aria-hidden="true" data-sf-symbol="house">
 <g fill="black">
  <path d="M45.2148 0.830078L67.5781 0.830078L67.5781-23.7305C67.5781-25.5859 66.4062-26.8066 64.502-26.8066L48.291-26.8066C46.4355-26.8066 45.2148-25.5859 45.2148-23.7305ZM13.5742-33.7891C14.7949-33.7891 15.8203-34.4727 16.6992-35.2051L55.127-67.4805C55.5176-67.8223 56.0059-67.9688 56.3965-67.9688C56.7871-67.9688 57.2266-67.8223 57.6172-67.4805L96.0938-35.2051C96.9727-34.4727 97.998-33.7891 99.2188-33.7891C101.611-33.7891 103.027-35.498 103.027-37.3047C103.027-38.2812 102.588-39.3555 101.66-40.1367L61.2793-74.0234C59.7168-75.293 58.0566-75.9277 56.3965-75.9277C54.7363-75.9277 53.0273-75.293 51.5137-74.0234L11.1328-40.1367C10.2051-39.3555 9.76562-38.2812 9.76562-37.3047C9.76562-35.498 11.1816-33.7891 13.5742-33.7891ZM80.8594-55.8105L91.4062-46.9238L91.4062-64.5996C91.4062-66.4551 90.1855-67.627 88.3301-67.627L83.9355-67.627C82.1289-67.627 80.8594-66.4551 80.8594-64.5996ZM30.4199 5.41992L82.3242 5.41992C88.0371 5.41992 91.4062 2.14844 91.4062-3.41797L91.4062-45.8984L84.3262-50.5859L84.3262-5.22461C84.3262-2.92969 83.0566-1.61133 80.8594-1.61133L31.9336-1.61133C29.7363-1.61133 28.418-2.92969 28.418-5.22461L28.418-50.5859L21.3867-45.8984L21.3867-3.41797C21.3867 2.14844 24.7559 5.41992 30.4199 5.41992Z"/>
 </g>
</svg>
