<svg xmlns="http://www.w3.org/2000/svg" viewBox="7.501 -73.065 95.105 75.72" aria-hidden="true" data-sf-symbol="photo.artframe">
 <g fill="black">
  <path d="M13.0859-70.8008C11.084-70.8008 9.76562-69.4336 9.76562-67.4805L9.76562-2.97852C9.76562-0.976562 11.084 0.390625 13.0859 0.390625L97.0215 0.390625C99.0234 0.390625 100.342-0.976562 100.342-2.97852L100.342-67.4805C100.342-69.4336 99.0234-70.8008 97.0215-70.8008ZM18.0176-63.7207L92.1387-63.7207C93.0176-63.7207 93.3105-63.4277 93.3105-62.5488L93.3105-7.86133C93.3105-6.98242 93.0176-6.68945 92.1387-6.68945L18.0176-6.68945C17.0898-6.68945 16.7969-6.98242 16.7969-7.86133L16.7969-62.5488C16.7969-63.4277 17.0898-63.7207 18.0176-63.7207Z"/>
  <path d="M23.2422-59.7656C21.6797-59.7656 20.752-58.8867 20.752-57.373L20.752-13.0371C20.752-11.5234 21.6797-10.6445 23.2422-10.6445L86.9141-10.6445C88.4766-10.6445 89.3555-11.5234 89.3555-13.0371L89.3555-57.373C89.3555-58.8867 88.4766-59.7656 86.9141-59.7656ZM25.9766-55.5176L84.1309-55.5176C84.7656-55.5176 85.1074-55.1758 85.1074-54.5898L85.1074-15.8691C85.1074-15.2344 84.7656-14.8926 84.1309-14.8926L25.9766-14.8926C25.3418-14.8926 25.0488-15.2344 25.0488-15.8691L25.0488-54.5898C25.0488-55.1758 25.3418-55.5176 25.9766-55.5176ZM86.0352-19.873L68.9453-36.0352C67.627-37.207 66.1133-37.7441 64.5996-37.7441C62.9883-37.7441 61.5234-37.3047 60.2051-36.084L47.0703-24.3164L41.748-29.1016C40.5273-30.2246 39.1113-30.7129 37.793-30.7129C36.5234-30.7129 35.2539-30.2246 34.0332-29.1504L22.8027-19.0918L22.8027-16.3574C22.8027-13.623 24.3652-12.5488 26.6113-12.5488L82.2266-12.5488C84.4727-12.5488 86.0352-13.623 86.0352-16.3574Z"/>
  <path d="M42.2363-35.3516C46.0449-35.3516 49.1211-38.4766 49.1211-42.2852C49.1211-46.0449 46.0449-49.1699 42.2363-49.1699C38.4766-49.1699 35.3516-46.0449 35.3516-42.2852C35.3516-38.4766 38.4766-35.3516 42.2363-35.3516Z"/>
 </g>
</svg>
