<svg xmlns="http://www.w3.org/2000/svg" viewBox="7.866 -75.093 79.727 79.775" aria-hidden="true" data-sf-symbol="plus.viewfinder">
 <g fill="black">
  <path d="M9.76562-51.8066C9.76562-49.9023 11.377-48.291 13.2812-48.291C15.2344-48.291 16.7969-49.9023 16.7969-51.8066L16.7969-58.9844C16.7969-63.3789 19.5312-66.1133 23.9746-66.1133L31.2988-66.1133C33.2031-66.1133 34.8145-67.7246 34.8145-69.6289C34.8145-71.582 33.2031-73.1934 31.2988-73.1934L23.9746-73.1934C15.1855-73.1934 9.76562-67.6758 9.76562-58.9844ZM85.6934-51.8066L85.6934-58.9844C85.6934-67.6758 80.2734-73.1934 71.5332-73.1934L64.1602-73.1934C62.2559-73.1934 60.6445-71.582 60.6445-69.6289C60.6445-67.7246 62.2559-66.1133 64.1602-66.1133L71.5332-66.1133C75.9766-66.1133 78.6621-63.3789 78.6621-58.9844L78.6621-51.8066C78.6621-49.9023 80.2734-48.291 82.1777-48.291C84.082-48.291 85.6934-49.9023 85.6934-51.8066ZM9.76562-18.5547L9.76562-11.4258C9.76562-2.68555 15.1855 2.7832 23.9746 2.7832L31.2988 2.7832C33.2031 2.7832 34.8145 1.17188 34.8145-0.732422C34.8145-2.68555 33.2031-4.29688 31.2988-4.29688L23.9746-4.29688C19.5312-4.29688 16.7969-7.03125 16.7969-11.4258L16.7969-18.5547C16.7969-20.5078 15.2344-22.1191 13.2812-22.1191C11.377-22.1191 9.76562-20.5078 9.76562-18.5547ZM85.6934-18.5547C85.6934-20.5078 84.082-22.1191 82.1777-22.1191C80.2734-22.1191 78.6621-20.5078 78.6621-18.5547L78.6621-11.4258C78.6621-7.03125 75.9766-4.29688 71.5332-4.29688L64.1602-4.29688C62.2559-4.29688 60.6445-2.68555 60.6445-0.732422C60.6445 1.17188 62.2559 2.7832 64.1602 2.7832L71.5332 2.7832C80.2734 2.7832 85.6934-2.68555 85.6934-11.4258Z"/>
  <path d="M51.416-20.9961L51.416-49.4629C51.416-51.709 49.9023-53.2227 47.7051-53.2227C45.5078-53.2227 44.0918-51.709 44.0918-49.4629L44.0918-20.9961C44.0918-18.7988 45.5078-17.2852 47.7051-17.2852C49.9023-17.2852 51.416-18.7988 51.416-20.9961ZM33.5449-31.5918L61.9629-31.5918C64.1602-31.5918 65.6738-33.0566 65.6738-35.2051C65.6738-37.4023 64.1602-38.916 61.9629-38.916L33.5449-38.916C31.2988-38.916 29.7852-37.4023 29.7852-35.2051C29.7852-33.0566 31.2988-31.5918 33.5449-31.5918Z"/>
 </g>
</svg>
