<svg xmlns="http://www.w3.org/2000/svg" viewBox="0 -84 96 96">
  <path fill="currentColor" d="M46.2402 4.1504c21.7773 0 39.4531-17.627 39.4531-39.4043S68.0176-74.6582 46.2402-74.6582c-21.7285 0-39.4043 17.627-39.4043 39.4043S24.5117 4.1504 46.2402 4.1504Zm0-7.4219c-17.6758 0-31.9336-14.3066-31.9336-31.9824s14.2578-31.9824 31.9336-31.9824S78.2227-52.9297 78.2227-35.2539 63.916-3.2715 46.2402-3.2715Z"/>
  <path fill="currentColor" d="M26.709-30.9082h19.4824c1.709 0 3.0273-1.3184 3.0273-2.9785v-25.1465c0-1.709-1.3184-3.0273-3.0273-3.0273-1.6602 0-2.9785 1.3184-2.9785 3.0273v22.1191H26.709c-1.709 0-2.9785 1.3184-2.9785 3.0273 0 1.6602 1.2695 2.9785 2.9785 2.9785Z"/>
</svg>
