<?xml version="1.0" encoding="UTF-8"?>
<svg id="Layer_1" data-name="Layer 1" xmlns="http://www.w3.org/2000/svg" viewBox="0 0 129.5 129.5">
  <path d="M82.64,49.2h-7.03v7.03h7.03c5.86,0,9.18,3.32,9.18,9.13v29.64c0,5.86-3.32,9.18-9.18,9.18h-36.28c-5.86,0-9.18-3.32-9.18-9.18v-29.64c0-5.81,3.32-9.13,9.18-9.13h6.98v-7.03h-6.98c-10.4,0-16.21,5.76-16.21,16.16v29.64c0,10.4,5.81,16.21,16.21,16.21h36.28c10.4,0,16.21-5.81,16.21-16.21v-29.64c0-10.4-5.81-16.16-16.21-16.16Z" data-clipstroke-keyframes="0 4 0 0.57707906 1.4045868 0 1 0.57707906 1.4045868"/>
  <path d="M80.59,39.63c0,1.76-1.37,3.03-3.18,3.03-.63,0-1.26-.18-1.8-.54-.21-.13-.41-.3-.59-.49l-5.37-5.86-1.96-2.1.3,5.81v38.09c0,1.8-1.61,3.37-3.51,3.37s-3.47-1.57-3.47-3.37v-38.09l.3-5.82-1.96,2.11-5.42,5.86c-.17.2-.37.36-.59.5-.55.35-1.21.53-1.8.53-1.81,0-3.13-1.27-3.13-3.03,0-.98.34-1.66,1.03-2.35l3.9-3.73,8.6-8.23c.92-.88,1.66-1.17,2.54-1.17s1.66.29,2.53,1.17l8.6,8.2,3.95,3.76c.64.69,1.03,1.37,1.03,2.35Z"/>
</svg>