<svg xmlns="http://www.w3.org/2000/svg" viewBox="0 0 24 24" aria-hidden="true">
  <g fill="black">
    <path d="M6.55 2.65h7.05c.42 0 .83.17 1.13.47l3.15 3.15c.3.3.47.71.47 1.13v2.1h-2.1V8.15h-2.9c-.88 0-1.6-.72-1.6-1.6v-2H6.55c-.5 0-.9.4-.9.9v13.1c0 .5.4.9.9.9h7.2v2.1h-7.2a3 3 0 0 1-3-3V5.45a3 3 0 0 1 3-2.8Zm7.2 2.05v1.45h1.45L13.75 4.7Z"/>
    <path d="M17.7 10.95c.4-.4 1.08-.4 1.48 0l2.98 2.98c.41.41.41 1.08 0 1.49-.41.41-1.08.41-1.49 0l-1.18-1.18v5.71a1.05 1.05 0 1 1-2.1 0v-5.71l-1.18 1.18c-.41.41-1.08.41-1.49 0-.41-.41-.41-1.08 0-1.49l2.98-2.98Z"/>
    <path d="M12.95 19.45h8.95v2.1h-8.95z"/>
  </g>
</svg>
