<svg xmlns="http://www.w3.org/2000/svg" viewBox="0 -86 108 104">
  <path fill="currentColor" d="M53.9062 1.0254c20.0195 0 36.2793-16.3086 36.2793-36.3281S73.9258-71.6309 53.9062-71.6309c-20.0684 0-36.3281 16.3086-36.3281 36.3281S33.8379 1.0254 53.9062 1.0254Zm0-7.0801c-16.1621 0-29.248-13.0859-29.248-29.248 0-16.1133 13.0859-29.248 29.248-29.248 16.1133 0 29.1992 13.1348 29.1992 29.248 0 16.1621-13.0859 29.248-29.1992 29.248Z"/>
  <path fill="currentColor" d="M53.9062-49.9512c1.709 0 3.0762-1.3672 3.0762-3.0762v-26.123c0-1.7578-1.3672-3.125-3.0762-3.125-1.7578 0-3.125 1.3672-3.125 3.125v26.123c0 1.709 1.3672 3.0762 3.125 3.0762ZM9.9609-32.0801h26.0742c1.7578 0 3.125-1.3672 3.125-3.125s-1.3672-3.125-3.125-3.125H9.9609c-1.7578 0-3.125 1.3672-3.125 3.125s1.3672 3.125 3.125 3.125Zm43.9453 43.9453c1.709 0 3.0762-1.3672 3.0762-3.125v-26.123c0-1.709-1.3672-3.0762-3.0762-3.0762-1.7578 0-3.125 1.3672-3.125 3.0762v26.123c0 1.7578 1.3672 3.125 3.125 3.125Zm17.8223-43.9453h26.0742c1.7578 0 3.125-1.3672 3.125-3.125s-1.3672-3.125-3.125-3.125H71.7285c-1.7578 0-3.125 1.3672-3.125 3.125s1.3672 3.125 3.125 3.125Z"/>
</svg>
