<svg xmlns="http://www.w3.org/2000/svg" viewBox="6.827 -83.073 123.43 90.947" aria-hidden="true" data-sf-symbol="hare">
 <g fill="black">
  <path d="M 90.88 0.872 C 98.34 0.872 101.318 -2.89 101.318 -7.124 C 101.318 -15.07 93.98 -19.585 80.294 -19.585 C 77.079 -19.585 75.253 -19.409 73.769 -19.171 L 71.039 -25.612 C 65.007 -39.731 55.851 -44.345 46.476 -44.345 C 44.943 -44.345 43.159 -44.3 41.707 -43.955 C 39.998 -43.591 39.322 -42.691 39.322 -41.548 C 39.322 -40.254 40.331 -39.407 41.692 -39.486 C 43.256 -39.562 44.453 -39.761 46.24 -39.761 C 54.901 -39.761 61.408 -35.246 67.177 -22.353 L 70.774 -14.144 C 73.586 -14.73 76.159 -15.188 80.429 -15.188 C 88.589 -15.188 96.296 -12.771 96.296 -7.494 C 96.296 -5.492 94.283 -4.083 90.88 -4.083 C 87.28 -4.083 84.48 -5.068 81.103 -5.068 C 76.425 -5.068 73.531 -4.251 71.184 -4.251 C 69.277 -4.251 67.216 -4.622 65.141 -6.268 L 48.338 -20.137 C 36.341 -19.581 27.272 -22.693 22.016 -30.434 C 17.923 -30 15.091 -31.639 15.091 -34.916 C 15.091 -37.884 17.646 -39.901 21.848 -39.672 C 25.911 -52.668 34.592 -58.827 46.605 -58.827 C 58.903 -58.827 71.095 -49.452 80.727 -43.885 C 83.617 -42.18 86.362 -41.574 88.404 -41.574 C 92.324 -41.574 95.431 -44.103 98.677 -49.299 L 73.597 -64.632 C 70.194 -66.652 66.496 -69.494 66.496 -70.634 C 66.496 -72.994 71.835 -74.91 76.035 -74.91 C 82.224 -74.91 87.551 -71.217 92.178 -65.468 L 103.591 -51.336 C 114.232 -52.065 122.666 -43.534 122.666 -32.759 C 122.666 -25.948 119.522 -23.825 111.22 -23.825 C 106.011 -23.825 100.322 -25.983 95.75 -29.263 C 88.479 -26.991 81.122 -23.376 75.349 -19.008 L 79.152 -16.686 C 84.805 -20.009 90.887 -22.876 94.858 -24.527 C 99.463 -21.263 105.986 -19.308 111.052 -19.342 C 121.426 -19.409 127.318 -22.571 127.318 -32.793 C 127.318 -45.719 117.424 -55.625 105.952 -55.528 L 97.483 -67.182 C 91.384 -75.475 84.495 -80.134 75.968 -80.134 C 69.181 -80.134 60.411 -76.39 60.411 -71.308 C 60.411 -67.17 65.195 -64.11 70.546 -60.779 C 76.481 -57.115 84.103 -52.677 91.254 -48.538 C 89.93 -47.33 89.102 -46.765 88.015 -46.765 C 86.651 -46.765 85.005 -47.411 82.58 -48.85 C 67.869 -57.236 58.61 -64.186 46.639 -64.186 C 32.667 -64.186 22.539 -56.953 17.663 -43.092 C 12.95 -42.227 9.766 -39.189 9.766 -34.511 C 9.766 -28.87 14.317 -25.839 19.288 -25.58 C 23.388 -19.207 33.427 -14.323 46.101 -15.316 L 62.449 -2.044 C 64.852 -0.15 67.385 0.872 71.083 0.872 C 74.134 0.872 76.86 -0.214 81.271 -0.214 C 85.422 -0.214 87.518 0.872 90.88 0.872 Z M 44.335 4.935 C 52.074 4.935 59.19 2.98 64.864 -3.218 L 60.652 -6.105 C 56.967 -1.731 51.126 0.317 44.167 0.317 C 38.547 0.317 34.996 -1.717 34.996 -4.942 C 34.996 -6.612 36.09 -7.868 38.471 -7.868 C 40.74 -7.868 43.171 -7.129 46.06 -7.129 C 50.403 -7.129 53.068 -7.66 55.822 -10.264 L 52.08 -13.548 C 50.138 -11.85 48.744 -11.444 46.854 -11.444 C 44.108 -11.478 41.609 -12.385 38.74 -12.385 C 33.613 -12.385 30.108 -9.42 30.108 -4.976 C 30.108 1.342 35.766 4.935 44.335 4.935 Z M 108.815 -35.365 C 110.635 -35.365 112.126 -36.855 112.126 -38.69 C 112.126 -40.492 110.635 -42.016 108.815 -42.016 C 107.013 -42.016 105.49 -40.492 105.49 -38.69 C 105.49 -36.855 107.013 -35.365 108.815 -35.365 Z"/>
 </g>
</svg>
