<svg xmlns="http://www.w3.org/2000/svg" viewBox="7.441 -84.795 92.686 97.617" aria-hidden="true" data-sf-symbol="ladybug.fill">
 <g fill="black">
  <path fill-rule="evenodd" d="M19.6777-24.1211C19.6777-5.66406 30.3711 7.86133 46.9238 10.1562C49.5605 10.498 50.9766 9.57031 50.9766 7.51953L50.9766-35.8398C50.9766-37.4023 52.2461-38.6719 53.8086-38.6719C55.3223-38.6719 56.6406-37.4023 56.6406-35.8398L56.6406 7.51953C56.6406 9.57031 58.0566 10.498 60.6934 10.1562C77.1973 7.86133 87.8906-5.66406 87.8906-24.1211C87.8906-32.2754 84.7168-43.6523 79.834-48.1445C77.002-50.6836 75.4883-50.6836 73.9258-50.0488C68.5547-47.8516 61.377-46.0938 53.8086-46.0938C46.1914-46.0938 39.0137-47.8516 33.6426-50.0488C32.0801-50.6836 30.5664-50.6836 27.7832-48.1445C22.8516-43.6523 19.6777-32.2754 19.6777-24.1211Z M38.4277-31.5918C35.6934-31.5918 33.4961-33.8867 33.4961-36.5723C33.4961-39.2578 35.6934-41.5039 38.4277-41.5039C41.1621-41.5039 43.3594-39.2578 43.3594-36.5723C43.3594-33.8867 41.1621-31.5918 38.4277-31.5918ZM34.4238-14.9414C31.2012-14.9414 28.6133-17.5293 28.6133-20.8008C28.6133-23.9258 31.2012-26.5137 34.4238-26.5137C37.5977-26.5137 40.2344-23.9258 40.2344-20.8008C40.2344-17.5293 37.5977-14.9414 34.4238-14.9414ZM39.3555-0.683594C37.0117-0.683594 35.1074-2.58789 35.1074-4.93164C35.1074-7.32422 37.0117-9.22852 39.3555-9.22852C41.748-9.22852 43.6035-7.32422 43.6035-4.93164C43.6035-2.58789 41.748-0.683594 39.3555-0.683594ZM69.1895-31.5918C66.4551-31.5918 64.209-33.8867 64.209-36.5723C64.209-39.2578 66.4551-41.5039 69.1895-41.5039C71.875-41.5039 74.0723-39.2578 74.0723-36.5723C74.0723-33.8867 71.875-31.5918 69.1895-31.5918ZM73.1445-14.9414C69.9707-14.9414 67.3828-17.5293 67.3828-20.8008C67.3828-23.9258 69.9707-26.5137 73.1445-26.5137C76.3672-26.5137 78.9551-23.9258 78.9551-20.8008C78.9551-17.5293 76.3672-14.9414 73.1445-14.9414ZM68.2617-0.683594C65.8691-0.683594 63.9648-2.58789 63.9648-4.93164C63.9648-7.32422 65.8691-9.22852 68.2617-9.22852C70.5566-9.22852 72.4609-7.32422 72.4609-4.93164C72.4609-2.58789 70.5566-0.683594 68.2617-0.683594Z"/>
  <path d="M29.8828-47.5586L22.8027-53.6133C21.1914-54.9805 19.0918-55.127 17.8223-53.5156C16.5039-52.002 16.9922-49.8535 18.5547-48.5352L25.6836-42.4805ZM22.8516-29.6387L13.3301-29.5898C11.1816-29.5898 9.76562-28.2715 9.76562-26.2695C9.76562-24.3164 11.1816-22.998 13.3301-22.998L22.8516-23.0469ZM25.6348-7.22656L18.5059-1.17188C16.9434 0.146484 16.4551 2.24609 17.7734 3.80859C19.0918 5.41992 21.1426 5.22461 22.7539 3.85742L29.834-2.14844ZM77.6855-47.5586L81.8848-42.4805L89.0137-48.5352C90.5762-49.8535 91.1133-52.002 89.7949-53.5156C88.4766-55.127 86.377-54.9805 84.7656-53.6133ZM84.7168-29.6387L84.7168-23.0469L94.2383-22.998C96.3867-22.998 97.8027-24.3164 97.8027-26.2695C97.8027-28.2715 96.3867-29.5898 94.2383-29.5898ZM81.9336-7.22656L77.7344-2.14844L84.8145 3.85742C86.4258 5.22461 88.4766 5.41992 89.7949 3.80859C91.1133 2.24609 90.625 0.146484 89.0625-1.17188Z"/>
  <path d="M33.1543-58.9844C33.1543-56.8359 33.9844-55.127 36.4746-54.0039C40.7715-52.0508 47.2168-50.8789 53.8086-50.8789C60.3516-50.8789 66.8457-52.0508 71.0938-54.0039C73.6328-55.127 74.4141-56.8359 74.4141-58.9844C74.4141-67.1875 66.4062-73.9746 53.8086-73.9746C41.2109-73.9746 33.1543-67.1875 33.1543-58.9844ZM37.207-75L39.3066-74.3652C41.0156-73.877 41.6992-72.998 41.3574-71.6309L40.918-69.9219L47.3145-69.9707L47.5098-71.7773C47.9492-75.7812 46.0449-78.7598 41.9922-80.127L39.3066-81.0547C35.0098-82.4707 32.959-76.2207 37.207-75ZM70.3613-75C74.6094-76.2207 72.5586-82.4707 68.2617-81.0547L65.5762-80.127C61.5234-78.7598 59.6191-75.7812 60.0586-71.7773L60.3027-69.9707L66.6504-69.9219L66.2109-71.6309C65.918-72.998 66.5527-73.877 68.2617-74.3652Z"/>
 </g>
</svg>
