<svg xmlns="http://www.w3.org/2000/svg" viewBox="6.561 -64.61 134.605 70.397" aria-hidden="true" data-sf-symbol="tortoise">
 <g fill="black">
  <path d="M 56.386 -2.804 C 73.304 -2.804 75.926 -12.994 91.165 -12.994 C 108.219 -12.994 107.792 -21.876 120.452 -21.876 C 130.51 -21.876 137.961 -25.417 137.961 -32.519 C 137.961 -47.024 129.569 -55.279 119.461 -55.279 C 109.267 -55.279 103.922 -48.709 101.645 -40.312 C 100.189 -35.483 97.949 -32.362 94.274 -30.626 L 91.695 -35.349 C 81.584 -53.959 72.324 -61.371 57.225 -61.405 C 40.708 -61.371 32.23 -54.202 20.041 -30.92 C 16.228 -23.56 9.766 -21.791 9.766 -17.775 C 9.766 -14.869 11.91 -12.994 16.201 -12.994 C 17.78 -12.994 19.684 -12.994 21.6 -12.994 C 38.599 -12.994 42.329 -2.804 56.386 -2.804 Z M 56.386 -8.182 C 43.66 -8.182 39.858 -18.451 22.674 -18.451 C 20.622 -18.451 18.524 -18.418 16.5 -18.316 L 16.264 -18.838 C 18.825 -20.982 22.204 -23.632 24.808 -28.807 C 35.555 -49.649 42.761 -56.012 57.225 -56.045 C 72.961 -56.012 80.19 -45.373 87.34 -32.475 C 89.866 -27.94 93.331 -22.191 97.063 -18.547 C 95.374 -18.418 93.567 -18.451 91.746 -18.451 C 74.699 -18.451 70.774 -8.182 56.386 -8.182 Z M 102.511 -20.088 C 100.589 -21.563 98.4 -24.293 97.126 -26.567 C 101.627 -28.226 104.186 -31.111 106.098 -37.753 C 108.061 -45.275 112.134 -50.22 119.461 -50.22 C 127.015 -50.22 133.103 -43.157 133.103 -33.203 C 133.103 -29.25 127.431 -26.801 121.414 -26.801 C 111.481 -26.801 107.142 -22.934 102.511 -20.088 Z M 121.163 -35.812 C 122.964 -35.812 124.488 -37.321 124.488 -39.123 C 124.488 -40.959 122.964 -42.449 121.163 -42.449 C 119.327 -42.449 117.852 -40.959 117.852 -39.123 C 117.852 -37.321 119.327 -35.812 121.163 -35.812 Z M 56.702 -31.14 C 69.145 -31.14 78.522 -36.473 85.081 -42.747 L 82.543 -46.396 C 75.675 -39.548 67.064 -35.526 56.702 -35.526 C 46.32 -35.526 37.834 -39.462 30.993 -46.396 L 28.519 -42.607 C 34.466 -36.764 43.752 -31.14 56.702 -31.14 Z M 37.985 -11.981 C 43.002 -17.764 46.36 -26.044 47.173 -32.943 L 43.424 -34.306 C 42.712 -28.026 39.071 -19.019 34.154 -13.837 Z M 76.007 -12.072 L 79.994 -13.852 C 74.725 -19.401 71.356 -27.69 70.781 -34.306 L 66.88 -33.344 C 67.419 -25.915 70.837 -17.683 76.007 -12.072 Z M 20.927 2.431 C 28.385 2.431 36.271 -1.211 42.079 -7.995 L 37.745 -10.681 C 31.826 -4.918 26.054 -2.169 20.964 -2.169 C 17.469 -2.169 15.661 -3.201 15.661 -5.161 C 15.661 -6.711 16.744 -7.726 20.189 -8.509 C 22.505 -9.11 28.635 -11.088 31.502 -12.907 L 27.587 -14.714 C 24.373 -13.177 20.346 -12.458 16.94 -11.254 C 12.991 -10 10.639 -8.141 10.639 -4.502 C 10.639 -0.07 14.98 2.431 20.927 2.431 Z M 92.361 2.582 C 98.308 2.582 102.683 0.115 102.683 -4.351 C 102.683 -8.596 99.504 -10.436 94.847 -11.642 C 91.71 -12.46 88.478 -13.194 85.701 -14.529 L 81.82 -12.722 C 84.687 -10.937 90.783 -8.94 93.133 -8.357 C 96.578 -7.511 97.627 -6.544 97.627 -4.976 C 97.627 -3.016 95.819 -1.969 92.324 -1.969 C 87.234 -1.969 81.462 -4.733 75.577 -10.515 L 71.243 -7.843 C 76.916 -1.179 84.903 2.582 92.361 2.582 Z"/>
 </g>
</svg>
