<svg xmlns="http://www.w3.org/2000/svg" viewBox="7.311 -86.611 102.294 103.089" aria-hidden="true" data-sf-symbol="tree">
 <g fill="black">
  <path d="M 49.38 -6.683 C 52.137 -6.683 55.253 -7.107 58.468 -8.279 C 61.664 -7.107 64.78 -6.683 67.57 -6.683 C 75.43 -6.683 81.224 -10.254 83.349 -12.159 C 86.575 -10.532 89.561 -9.8 92.366 -9.8 C 101.133 -9.8 107.151 -15.983 107.151 -25.043 C 107.151 -29.674 105.244 -34.506 100.864 -38.893 C 104.38 -42.464 105.765 -46.695 105.765 -50.985 C 105.765 -59.99 98.791 -68.186 90.17 -69.127 C 89.845 -77.884 80.294 -84.156 70.985 -84.156 C 66.227 -84.156 61.746 -82.604 58.468 -79.156 C 55.171 -82.604 50.724 -84.156 45.932 -84.156 C 36.623 -84.156 27.072 -77.884 26.78 -69.127 C 18.125 -68.186 11.151 -59.99 11.151 -50.985 C 11.151 -46.695 12.571 -42.464 16.053 -38.893 C 11.673 -34.506 9.766 -29.674 9.766 -25.043 C 9.766 -15.983 15.802 -9.8 24.551 -9.8 C 27.356 -9.8 30.375 -10.532 33.602 -12.159 C 35.678 -10.254 41.487 -6.683 49.38 -6.683 Z M 49.38 -11.571 C 40.517 -11.571 36.074 -16.339 34.43 -18.235 C 30.552 -15.533 28.109 -14.721 24.551 -14.721 C 18.568 -14.721 14.687 -18.749 14.687 -25.043 C 14.687 -29.126 16.16 -32.423 21.36 -37.119 C 22.406 -38.064 22.305 -39.639 21.427 -40.501 C 17.073 -44.667 16.039 -47.699 16.039 -51.577 C 16.039 -59.064 21.848 -64.809 30.348 -64.322 C 31.506 -64.254 31.9 -65.08 31.784 -65.886 C 30.673 -73.32 37.166 -79.269 46.235 -79.269 C 51.519 -79.269 55.168 -77.233 58.468 -73.489 C 61.75 -77.233 65.45 -79.269 70.682 -79.269 C 79.751 -79.269 86.244 -73.32 85.133 -65.886 C 85.017 -65.08 85.411 -64.254 86.603 -64.322 C 95.069 -64.809 100.878 -59.064 100.878 -51.577 C 100.878 -47.699 99.844 -44.667 95.49 -40.501 C 94.631 -39.639 94.511 -38.064 95.557 -37.119 C 100.757 -32.423 102.23 -29.126 102.23 -25.043 C 102.23 -18.749 98.383 -14.721 92.366 -14.721 C 88.793 -14.721 86.365 -15.533 82.487 -18.235 C 80.843 -16.339 76.4 -11.571 67.57 -11.571 C 64.683 -11.571 62.049 -12.029 58.468 -13.516 C 54.868 -12.029 52.234 -11.571 49.38 -11.571 Z"/>
  <path d="M 58.468 14.024 C 61.893 14.024 64.19 12.921 64.19 11.249 C 64.19 8.952 63.522 2.865 63.522 -3.01 C 63.522 -11.437 71.753 -26.726 73.418 -29.176 L 68.732 -32.635 C 66.684 -28.872 64.214 -24.502 61.398 -18.145 L 61.398 -31.499 L 55.519 -31.499 L 55.519 -18.111 C 52.737 -24.468 50.267 -28.906 48.218 -32.635 L 43.552 -29.176 C 45.164 -26.726 53.395 -11.437 53.395 -3.01 C 53.395 2.865 52.727 8.952 52.727 11.249 C 52.727 12.921 55.058 14.024 58.468 14.024 Z"/>
  <path d="M 38.336 -24.756 C 45.502 -24.756 49.342 -28.061 51 -32.87 C 53.13 -31.403 55.481 -30.595 58.468 -30.595 C 61.436 -30.595 63.805 -31.403 65.917 -32.87 C 67.575 -28.061 71.448 -24.756 78.581 -24.756 C 79.743 -24.756 80.721 -25.701 80.721 -26.896 C 80.721 -28.074 79.743 -29.037 78.581 -29.037 C 72.066 -29.135 69.463 -32.756 69.157 -37.834 C 69.066 -39.615 66.654 -40.351 65.531 -38.82 C 63.928 -36.638 61.751 -35.213 58.468 -35.213 C 55.166 -35.213 52.989 -36.638 51.386 -38.82 C 50.263 -40.351 47.836 -39.615 47.76 -37.834 C 47.454 -32.756 44.851 -29.135 38.336 -29.037 C 37.174 -29.037 36.196 -28.074 36.196 -26.896 C 36.196 -25.701 37.174 -24.756 38.336 -24.756 Z"/>
 </g>
</svg>
